<svg xmlns="http://www.w3.org/2000/svg" viewBox="0 0 599.7 599.9"><path d="M284.7 599.5c-63.6-3.2-125-26.8-174.4-67.4-14-11-29.3-26-41-40C34 450 10.5 397 3 343c-3-16.4-3-25.7-3-43s.2-28 3-43c7.5-53.5 30-104 64.3-146 17.7-21.7 39.4-41.7 62.2-57.6 40-27.8 87-45.7 134.7-51.3 15.4-1 37.3-2 51.6-1 49.8 3 95.6 17 137.6 42 56.6 34 101 85 125.3 147 15.3 39 22 78 21 120-1.8 65-25.5 129-67 180-12.7 16-28.7 32-44.3 44-57.4 46-129.7 70-203.7 66zm35.5-12.6c21.2-2 40-5 59.5-11 73-21 135.5-72 172.4-139 18-32 30-68 34-105 2-13 2-17 2-34 0-18 0-23-2-36-10-78-52-149-116-196-41-30-89-49-140-54-16-2-37-2-52-1-78 7-147 44-198 105-57 68-79 158-60 244 8 39 25 76 49 109 24 32 56 60 91 80 39 22 81 34 126 36h35zm-36.7-17c-29.6-2-58.3-9-85.7-20l-9.2-4H205c.2 0 2-3 3.8-6 1.8-4 3.4-6 3.5-6 0-1 6 0 6.2 0l1 6c.5 3 1 6 1.2 6 .2 0 3.2 1 6.7 1l6.3 1 2.8-3 2.8-3 16.5 2 16.5 1 1 2 .7 2.2h20.5l6-3.7 5.8-3.6h10.5l.2 1 .5 3c0 2 .3 3 .5 3 .3.4 12 2 13.4 2 .8 0 1-.4 1.7-2.6l1-2.6 6 1 6 1 3 2 3 2.6 14 1 13 1-6 2c-18 5-36 7-55 9h-32zm-188-92c-4-5-9.4-11-13.8-17-37.5-50-56.5-110-54.4-173 .4-13 .5-13 2.4-17 1-2 4-7 6.7-11 8.8-12 9.5-14 6.8-17-.8-1-2.7-3-4.4-4-1.7-1-3.4-3-4-3l-.8-1 1.7-7c9.6-38 28.8-75 54.7-106 23.5-28 54.4-53 86-69l5.4-3h20.7l-1.3 1c-2.2 1-6 5-8.5 8-2.4 3-6 8-6 8s.6 0 1.3-1c.7-1 2.3-1 3.5-1 2.8-1 11.8-1 15.4 0 3 0 3 0 6-3 2-3 5-6 12-16 5-8 7-10 8-10 0 0 5 4 6 6 1 1 1 2 1 3-1 2-2 3-7 7-7 6-10 10-12 16-1 3-1 5-1 4.4h3v6l22 2c23 2 34 3.5 34 4l-3 8-3 8h-51l2 2c2 2 3 4 3 5.3-1 2.2-4 4-7 3.2-3-.5-13-4-13-5-1-1-1-1.6-1-5 0-1.5 0-2-1-3-2-1-3-1-5 1-1 1.2-2 3.3-3 8.4-1 6-3 9-7 10-1 .4-3 .6-7 .6-9 0-12 .5-16 3-8 5.6-29 17.5-34 20-2 1-10 4.4-18 7.5l-14 6-10 15c-8 11.3-10 15-11 15-1 .3-1 .6-1.8 2.6l-.4 2-5.7 3-6 3 7 4c7.4 5 7 4 4 8-1 1.5-4 4-4.6 4-1.4 0-15-14-14.5-14l5-3 4.6-3 2-3c3-6.5 4.4-13 3-14.5-1.8-2-5.8-1-8.8 3-5 5-10 16-13 27-1 5-1 7 0 14v5.2l-1.7 1c-5 5-6 13-3 16l7 2c22 7 48 18 72 29l8.5 5-1 4c0 6 0 8.7 1.7 10 .3 1 4 3 8 5.8 16 9.4 24 15.4 26 20 1 1.6 1 5 0 7-2 4-5 6-13 10-4 2-5 2.4-6 3.7-2 3-4 7.8-8 20-5 17-7 20-10 22s-4 2-8 .3c-5.2-2-8-2-10-2-7 2-18 18-29 40-2 3.7-3.3 8-4 9-1 3-1 3 0 4.7.7 2 6 12 14.4 27 3.6 7 7 12.5 7 13 0 0-10 6-11 6l-2-3zM453 436l-.3-6.4-.2-4 3-2 3.2-3c0-.8 1.3-5.7 2.7-11l2.6-11c0-.6.6-.6 2.2 0h2.2v20l-3.6 4.6-3.6 4.6v11h-8v-2zm68.6-9.2c-2.3-.7-3.5-2-4-3.5-.3-1.4 0-2.3.8-4.6.2-.6-1-1-6.3-2l-12-3-6-1.8v-54l-3-1-3-1 1-3c1-3 1-3 4-2 4 1 3 1 7-3 3-4 3-4 4-4 0 1 2 1 3 2l2 1 2 6 2 6 6 1h5l1-5 .8-5h11c.5 0 1 3 1 7l1 6 5 1 5 1 9-4 9-4 1.5 3.5 1 3-1 4.3c-4 14.6-10 31-17 45.5-2 5-2 5-4.6 6.4-3 2-10 5.6-12 6-3 .6-6 .5-8 0zM349 418c-1.7-.6-2-1.8-2-5 0-1.7-.3-4.2-.6-5.4-1.5-6.4-8.4-20.6-18.2-37.7l-3-6v-7c0-8-.5-19-1-26-.6-6-1.4-10-2.6-12-1.3-2-1.7-4-2-9-.2-4-.6-6-1.4-7-.8-1-2-4-3.3-12-1-5-2-7-3-9-1-3-1-3-1-6 0-4 0-4-1-4-1-1-2 0-4 1l-4 1c-6 1-20 2-34 2h-11l-3-3-31-32-5-6c-1-1-1-4-2-13v-11l21-14c44-30 40-27 39-28.3l-1-6v-5l2-.7 3-1 1-.3v-15l2-.5 10-2v-3l-.7-3.5-7-11c-4-6-7.6-11.2-7.6-12l1-2c1-2 1-2 3.3-3 2 0 2.8-1 2.8-1l-2-10-2-10 25-12 23-12 10-.2c10-1 10.5-1 13-2l2.7-1-4-3.8-4-3v-8l4 1 4 1 2 3 1.4 3 11-6s11-6 12-6c2 0 21 7 30 11.2 14.4 7 40 22 53 32 12 9 26 22 38 35 29 33 49 72 60 115 2.5 10 5 23 6 34 1 9.2 1.4 14 1.6 25.3.5 10.6.5 11.4 0 14.4-1 3.6-2 6.7-3 7-1 0-1.4-1-1.6-6 0-5.3-1-12-2.5-17.3-1.5-4-4.6-13.7-5-14-.3 0-2 1.5-3.7 4l-3 4-1 14-1 14-4 4-8 7.2-3 3-9-1c-5-1-9.3-1.6-9.5-1.8l-4.4-6-3.6-6 2.6-7 2-7h2c1.6 0 4-.7 6-1h3.8v3.5l.6 8 .5 4.5 4 3 4 2.4v-5c0-4 0-6 1.3-11.7l1.6-6 4-3 3-3 1-4 2-5-1-4c-1-4-1-5-3-8l-2-3.5-6.8 3-6.8 3-6 5.8c-5 4.5-6.6 6-7.8 8.3-1 1-1.5 2-2 2l-3.4-3-3-3 .3-6c.3-4.5.5-6 2-9l1-3v-13h-8v8.7l-3.5 1h-3l-1.2-3-1.6-3s-2 1-4 3c-10 9-18 13-21.6 10.5-1-.4-1.8-1.5-2-2.4l-3.6-7c-3.5-8-10-18-22-34-6.5-9-19-25-19.5-25s0 1 6 11c6 9.5 9 14 12 16.8 2 2 3 4 10 19.5 6 13.5 10 21 11 23 1 1 1.5 1 3 1 2.5 0 7-1 18-3 4-.6 8-1.2 9-1.2 2 0 2 0 4 2l2 3c0 .7.4 1.7 2 3 2 2 2 2 2 4.7.2 2 1 17 1 20 0 0-2 1-5.8 2.2l-5.4 2v-1c-.4-2 .6-20.6 1-22.8l.5-2.7c-.4 0-39 41-40 42.2-4 5-6.5 11-8 17.4-1.5 5.6-2.4 7-5 10-3 2.6-7 5-14 9-12 6-14 7.3-18 13-2 3.5-4 6.5-8.3 16.4-1.3 4-4 8-4.2 9l-3 7-2 5-4 3.5c-6 5-11 7-18.8 8-5 1-16.5 1-17.4 1zm24-231.2l.7-2c0-.3 2.5-.7 6-1.2l6-1c.2-.2 0-1.2-.4-2.4l-.8-2.4s4.7-.2 10.3-.2H405V170l4.2-.7 4-1c.3 0-2.4-.6-17.3-3.3l-10-1.7-4 3.8-4 4-7 1c-8 1-7 1-9-3l-2-2-5 4c-4 4-5 5-6 8-1 2-2 4-3 5-1 2-2 3-1 3l8 2c9 2 14 3 15 3s1 0 1-1zm-27-14.2V169l-8.5-5.8-8.5-6h-10.6l-10.2 8.5c-5.7 4.6-10.2 8.4-10.2 8.5l16.8.6 31 1.3s.2-1 .2-3zm56.3-12.8c4-.6 5.7-1 10.2-3 3-1 5.8-2.3 6.3-2.4.8-.4.7-.6-4-5.2l-5-5c-.2 0-.6 1.7-1 3.7l-1 3h-1.2c-.7 0-3.7 0-6.6 1h-5.4l.8 3c1 4 .4 4 7 3zm-4 239.8c-2.3-1.2-2.4-2.3-.2-3.3 1-.3 3-2.7 8-11.3l6-11 10-6.2 12-7.6 2-1.3v1c-2 3-10 15-14 19-9 13-16 20-20 20-1 0-1 0-2-1zm95.3-60.6l-2.4-1.3 3-4.6c1.7-2 4.3-6 5.8-7l2.6-3 3 1c2 1 3.4 1 3.6 2 .6 1-12 16-13 16l-2.7-1zm-248-270c-1.5-1.5-2.3-4-2.3-7.7 0-2.7.2-3.5.8-4.6 2-2 10-11.3 14-15.3 5-4.6 8-6.7 12-8.7 5-2.3 7-2.6 14-1.8h10c6 0 8 0 8 1s-13 12-30 23c-13 9-21 14-23 14 0 0-1-1-2-1zm40-1.4l-1.4-11-.2-.8 4.4-.3c2.5 0 5.6-.3 7-.4h2.5l-1 4c0 2-1 5-1 7v2h-11zm-80-16.6c.2-.2 1-.3 1-.3.5 0 .4 0 0 .3l-1.3.3c-.4 0-.3 0 .2-.3zM319 36c-1.4-3.8-2.4-7-2-7l12 4 12 4.5s-4.3 1-9.5 2.5l-10 2.5c-.3 0-1-1.3-2.7-6.6z"/></svg>