<svg width="512" height="512" viewBox="0 0 512 512" xmlns="http://www.w3.org/2000/svg" xmlns:xlink="http://www.w3.org/1999/xlink"><title>T_ampersand_white.ai</title><defs><path id="a" d="M0 512.7h512V.7H0z"/></defs><g transform="matrix(1 0 0 -1 0 512.734)" fill="none" fill-rule="evenodd"><mask id="b" fill="#fff"><use xlink:href="#a"/></mask><use fill="#FFF" xlink:href="#a"/><path d="M135.6 103.5l-4.3-2.6v-1.4c-4.4-1.4-7-3.6-8-6.7l-8.6-4.4-9.2-4.7-17.8-.2-2.4 1.5-1 1-2.6 2.4-2 1-2.6 2.8-2.5 2c-.4.5-1 2-1.4 3-.4 1.4-1 3-2 4.4-.2 2.5.4 4 1.3 6.4 1 2.5 2.3 6 2 10.5 2.4 2.4 4 5.7 4.8 10 1.2.8 2 1.6 2.7 2.4l1 1 5 6.5c0 2 .4 2.3 3.2 4.4 1.7 1.4 4 3 5.7 5.6 1.6-2 3.4-3.3 4.7-4.3l1.7-1.4.4-1c1-2.8 2.2-5 3.3-6.8 1-1.6 1.8-3 2.3-4.4l1.2-3.2 3.3-.8c1-.2 1.7-1 3.2-3 2-2.5 5-6.5 10.5-7.7 2.3-3.8 6-5.7 8.7-7 1.7-1 3-1.6 3.4-2.2 0-1.2-.6-1.7-3.8-3.5zM76.8 324l1.7 1c1.2 1 3 2 6.5 2 1 0 1.8 0 3.3-.2 2.8-.2 5-1 7.5-2.2 2.4-1 5-2 8.3-2.8l2.5-2.6 1-1 3-4.6c.5-1 1.3-2.4 2.5-3.6v-14.8c0-.7-.6-1.5-1.4-2.5-1.5-2.2-3.7-5.4-4-10.4-1.2-2.4-2-5-2.5-7.2-.4-1.8-1-3.8-1.5-4.7-1.5-2-2.3-4-3-6-.3-.7-.7-2-1-2.4v.3c-.6 2-1.4 5.3-4 7.7-.5 5-4 7.3-5.7 8.5l-.3.2-4 7.6-.2 1c-.5 2-1.4 5.7-4.3 8-.7 3.8-2.5 6.4-3.8 8.2-.8 1-1.3 2-1.6 2.6v18h1.2zM307 185.3l-.2.2v.2l-5 7.5c-.4.4-1 2-1.4 3-.8 1.7-1.6 3.8-3 5.8l-1.3 1.6-1.6.6c-3.4 1.2-6.3 3.2-9.3 5.3-5.5 4-12 8.5-22.6 8.8l-3 .3c-6 0-8.6-4-9.7-5.8v-.2l-5.3-5.4-1.7-1.4c-1.6-1.2-4-3-5.5-6l-3.6-2c-1.6-1-3-1.8-4.5-2.3l-1.7-.7-1-1.5c-1.5-2-2.4-4-3-6-.4-1-1-2.5-1.2-2.7l-2.2-1.8-2.7-2.2c-.8-2.4-2.2-3.8-4.6-4.8l-2-.8-2-3.4c-2-3.7-2.2-3.8-4.4-3.8l-3.2-1-2.4-1.8c-4.6-7-8-11-16.8-11-3 0-4.2 1.3-6.8 5.2l-2.2 3.2-1.3 1.6-2 .6c-1.3.4-2.3 1.5-4 3.4-1.5 2-3.6 4.7-7 6.4-1.7 3.3-4.3 5.4-6.4 7-2 1.6-3.2 2.5-3.7 4-1 3.4-2.8 6-4.3 8.6-1.8 3-3.3 5.3-3.7 8.6v.6l.4.3c1.8 1.6 2.4 3.5 2.5 5.3l.7.8 1 1.3 1.2 1c2.4 2 2.7 4.6 2.5 6.7 4 3 5.6 7.7 7 11.3.8 2 1.5 4 2.4 5.3l.8 1c1.3 2.8 2.4 5.8 3.4 8.7 1.3 3.8 2.6 7.4 4.4 10l.7 1.6c.7 2 1.8 4 3 6 2.3 3.7 5 8.3 5.5 15.6l-.2 38.8-1 3.6c-2.5 6.5-4.8 12.7-4.7 21.3v4l-3.7 1.6c-1.4.7-2 4-2 6l-.5 4.3-2.4.6c0 3.8-2 6.2-3 7l-.6 2.6-2.3 1.3c-4.3 2.5-9.2 3.5-14 4.4l-6 1.2c-5.3 3.8-12 7.7-22.2 8.8l-42.4-.3H67.2c-2.2 0-7 0-10-3l-17-3.2c-1.3-.3-3.3-1-5-2.2-1.7 0-3.2 0-4.6-.5-1-.4-2.2-1-3-2.3h-2.2l-1.5-1c-2.4-1.6-3.3-4-4-6.2h-.2c-1.7-.6-4.2-1.5-6-4l-1-1.4v-1.7c-.5-5.3-1.5-10-2.5-15-1.3-6.7-2.6-13.5-3-21.6v-.8l.2-.8c5-24 10-45.3 20.2-62.2.8-2.8 2.2-4.7 3.4-6.4 1.5-2 2-2.8 2-4.6l4-6.4.3-1c.5-2 1.4-5.7 4.3-8 .7-3.8 2.5-6.4 3.8-8.3 1-1.3 1.5-2 1.7-3l2.3-3.2 1.8-1.6c.5-1 1.3-2.2 2.4-3.2.6-1.5 1.5-2.4 2.2-3-.3-.3-1.5-1-2.3-1.3l-1.7-2.8-1.8-3c0-1.8 0-2-1.3-2.4l-4.2-6.4c-2-.8-3-1.8-4-3-2-1-3.3-2.4-4.2-3.4l-1-1-2.2-2.3-2.2-3c-.6-4.5-2.5-7.7-4.7-11.5-2.2-3.7-4.6-7.7-5.8-13.2-1.5-1.3-2.7-3-3.2-5.5-1.7-1.3-3-3-3.8-4.5-4-2.2-5.3-7-5.8-9.2l-.3-1 .4-2.5-4.3-4c.3-5.2-.4-9.6-1.3-14.2-1.2-6-2.5-13-1-22.3L1 91C4.8 82.5 7.4 75 9.2 67.3l.6-2.8 2.6-1.4c3.7-1.8 6.6-5 9.6-8.4C26.7 49.4 32.4 43 42.2 41c2.5-3 6-4.3 8.7-5 1-.5 2.5-1 2.7-1l7.5-5.6c.3 0 .5 0 1.6-.7 1-.5 2.4-1.2 4.2-1.7 1.4-1.4 3.5-2.6 6.7-3.2l2.7-2L98 20.6h13l13.5 1.2 2.3.2c1-.8 2 0 4-.4l7.8 4c1 .5 2.3 1.3 3.4 2.5 2.3 1.2 3.8 2.8 4.8 4l.5.8c4.2.8 6.7 3.3 8.2 5.8 4 .8 7 3 9 6.6 2.5 1.3 4 3.2 5 5 1.4.6 2.6 1.4 3.6 2.8h.2c2 .6 3.4 1.4 4.4 2.4C181 56 184 58 186 61c2 .3 3.4 1 4.6 1.7 1.7-1.4 3.7-2 5-2.5.7-3.5 2.3-8.3 6.7-11.4 2-4 5.2-6.6 7.8-8.7 2.5-2 4.4-3.6 5.3-5.7l1.3-3.2 2-.3.2-.6c.7-1.7 1.5-4.3 3.7-6.3l1-.8 1-.5c2.3-1 3.8-2.4 4.8-4.8l2.7-3 2-1c.7-2.2 2-5.7 5.6-7.4 3-3.7 8-5.8 14.7-6.3H268.2l12 5.6L282 7c1.6 1 4.6 3.2 6 7l1.7 2 1.6 3c1.8 7.8.7 20.7-4.4 28.6-1.3 2-2.6 3.3-4 4.3-.4 3.4-2.8 7-9.2 8.6h-.3c-1.5 3.4-4 5.2-5.8 6.4l-1.7 1.4-5 5.6c-.6 1.8-1.7 4.7-4.4 6.5-.6 1-1.3 2-2 2.8l-1 4.2h-2.8c-.3.7-.8 1.6-1.5 2.4-.3 3-1.8 5.2-2.7 6.5l-.6 1 .2 1.5-4.4 8c-2.6 1.4-3.4 2-3.7 3 3.4 4.7 7.3 8.7 12 12 4 .2 6.6 2 8 3l1 .6c.3 0 .7 0 1.5-.3l8 5c2 .5 5.3 1.7 7 4.8l3.7 2.2c1.6 1 3 1.7 4.5 2.3l4 1.4v2c4.4 1.4 7 3.7 8 7l1.2.5c6.4 3.4 16.2 8.4 15.7 22.4 1.4 7.6-3.5 11-5.6 12.4z" fill="#F4C522" transform="translate(99.26 64.108)" mask="url(#b)"/></g></svg>