<svg xmlns="http://www.w3.org/2000/svg" viewBox="0 0 377.95334 463.75867"><defs><clipPath id="a"><path d="M0 347.82h283.465V0H0v347.82z"/></clipPath></defs><g clip-path="url(#a)" transform="matrix(1.33333 0 0 -1.33333 0 463.76)"><path d="M122.858 93.755l-3.962-2.335-.08-1.246c-3.89-1.193-6.303-3.216-7.217-5.992-2.61-1.323-5.17-2.646-7.74-3.943-2.78-1.404-5.544-2.87-8.346-4.27l-16.04-.077c-.725.545-1.478.972-2.243 1.348l-.99.935-2.213 2.153-1.83.92-2.39 2.53-2.317 1.88c-.35.352-.855 1.713-1.244 2.62-.48 1.286-1.012 2.686-1.842 4.035-.273 2.348.246 3.722 1.09 5.85.894 2.31 2.075 5.33 1.906 9.572 2.115 2.206 3.574 5.202 4.255 9.054.972.74 1.73 1.544 2.335 2.205l.875.896 4.69 5.928c-.105 1.763.27 2.19 2.814 4.098 1.632 1.233 3.656 2.75 5.193 5.07h.116c1.316-1.88 2.99-3.06 4.183-3.942l1.492-1.205.272-1.065c.855-2.412 2.003-4.358 3.016-6.07.856-1.4 1.595-2.685 2.082-3.982l1.07-2.984 3.054-.66c.87-.21 1.49-.91 2.853-2.765 1.75-2.296 4.436-5.85 9.508-6.99 2.063-3.465 5.468-5.164 7.92-6.383 1.614-.817 2.723-1.362 3.132-1.97-.02-1.143-.545-1.584-3.405-3.218M69.592 293.392l1.48 1.103c1.108.817 2.742 1.738 5.875 1.738.817 0 1.647-.065 3.035-.22 2.523-.156 4.43-.947 6.823-1.998 2.18-.92 4.527-1.933 7.484-2.517.737-.985 1.574-1.764 2.216-2.373l.895-.83 2.783-4.203c.37-.87 1.05-2.18 2.2-3.308l.09-13.41c-.246-.625-.674-1.312-1.356-2.297-1.38-1.986-3.385-4.878-3.6-9.392-1.166-2.14-1.77-4.462-2.314-6.537-.43-1.673-.888-3.54-1.5-4.32-1.296-1.763-2.022-3.657-2.658-5.344-.31-.765-.687-1.79-.92-2.295l-.117.425c-.43 1.648-1.182 4.748-3.458 6.927-.525 4.488-3.658 6.64-5.208 7.718l-.3.195.066.078-3.618 6.81-.234.934c-.467 1.738-1.303 5.072-3.872 7.225-.622 3.45-2.296 5.76-3.483 7.445-.68.974-1.14 1.66-1.4 2.335l-.077 16.11h1.167zM278.18 167.976l-.273.18.02.118-4.65 6.835c-.312.335-.876 1.71-1.226 2.605-.66 1.673-1.42 3.567-2.74 5.357l-1.065 1.336-1.615.543c-3.017 1.053-5.644 2.88-8.387 4.827-5.11 3.62-10.928 7.69-20.552 7.912-.952.193-1.847.31-2.74.31-5.307 0-7.76-3.71-8.77-5.29l-.117-.13-4.71-4.93-1.497-1.22c-1.46-1.116-3.65-2.724-4.994-5.46-1.204-.61-2.274-1.273-3.267-1.856-1.48-.855-2.704-1.57-4.066-2.062l-1.61-.597-1.033-1.388c-1.303-1.752-2.043-3.645-2.664-5.344-.35-.895-.857-2.296-1.07-2.503l-2.05-1.674-2.484-1.972c-.78-2.153-2.1-3.464-4.276-4.306l-1.77-.727-1.79-3.112c-1.868-3.307-2.043-3.476-3.988-3.4l-2.918-1.01-2.194-1.582c-4.104-6.28-7.16-10.066-15.17-10.066-2.86.013-3.832 1.258-6.224 4.863-.663.948-1.286 1.947-1.986 2.83l-1.142 1.517-1.828.506c-1.148.35-2.043 1.348-3.484 3.112-1.478 1.83-3.424 4.19-6.4 5.785-1.61 2.97-4.002 4.877-5.85 6.33-1.79 1.4-2.822 2.296-3.25 3.62-1.03 3.1-2.56 5.564-3.91 7.782-1.648 2.684-2.97 4.838-3.4 7.833l.053.532.31.272c1.675 1.376 2.22 3.14 2.297 4.8l.66.674.884 1.156 1.167.933c2.195 1.83 2.428 4.293 2.253 6.2 3.54 2.776 5.13 6.978 6.375 10.247.726 1.842 1.387 3.62 2.205 4.72l.584.96c1.206 2.492 2.153 5.215 3.126 7.9 1.186 3.412 2.334 6.68 3.95 9.04l.68 1.44c.604 1.882 1.596 3.53 2.744 5.462 1.997 3.346 4.487 7.51 4.955 14.06l-.234 35.15-.875 3.308c-2.255 5.916-4.37 11.532-4.292 19.237l.04 3.62-3.27 1.554c-1.32.636-1.75 3.658-1.925 5.384l-.31 3.968-2.2.597v.025c-.04 3.502-1.84 5.617-2.685 6.317l-.584 2.374-2.113 1.205c-3.833 2.218-8.308 3.126-12.622 3.982-1.827.376-3.637.727-5.37 1.193-4.875 3.464-11.082 6.966-20.22 7.952l-38.407-.287-1.947-.077H60.94c-1.984 0-6.238 0-9.105-2.49l-15.24-3.063c-1.285-.272-3.114-.79-4.652-1.984-1.497.117-2.86 0-4.117-.44-.973-.35-2.024-.974-2.763-2.1l-1.966-.105-1.38-.844c-2.18-1.36-2.997-3.605-3.71-5.59l-.04-.08c-1.543-.464-3.878-1.243-5.447-3.616l-.856-1.18-.137-1.466c-.428-4.722-1.284-9.015-2.16-13.542-1.186-6.032-2.392-12.27-2.684-19.548l-.02-.74.156-.647c4.59-21.78 9.162-41.053 18.242-56.333.752-2.503 2.036-4.293 3.074-5.81 1.336-1.87 1.75-2.53 1.634-4.164l3.75-5.81.253-.935c.428-1.738 1.303-5.085 3.87-7.238.637-3.426 2.297-5.735 3.478-7.433.858-1.207 1.35-1.92 1.546-2.776l2.03-2.84 1.562-1.57c.41-.88 1.07-2.01 2.1-2.943a6.854 6.854 0 0 1 1.967-2.646c-.234-.284-1.304-.83-2.062-1.18l-1.492-2.45-1.64-2.855c.078-1.556-.156-1.66-1.226-2.05l-3.755-5.81c-1.713-.688-2.874-1.635-3.614-2.647-1.79-.972-3.015-2.255-3.832-3.15l-.895-.895-2.057-2.103-2.07-2.737c-.466-4.047-2.19-6.966-4.195-10.365-1.965-3.333-4.145-7.016-5.234-11.998-1.336-1.154-2.374-2.8-2.854-4.94-1.558-1.194-2.673-2.66-3.484-4.087-3.696-2.024-4.747-6.278-5.233-8.327l-.254-.935.284-2.267-3.937-3.503c.247-4.826-.466-8.77-1.27-12.945C.482 98.723-.706 92.445.52 83.96l.4-1.425c3.426-7.926 5.76-14.8 7.375-21.65l.623-2.593 2.355-1.193c3.32-1.663 5.915-4.555 8.63-7.63 4.263-4.72 9.4-10.48 18.297-12.452 2.283-2.647 5.487-3.736 7.86-4.515.935-.323 2.394-.79 2.588-.908l6.765-4.98c.298 0 .467-.04 1.478-.596.935-.506 2.18-1.156 3.815-1.583 1.207-1.286 3.126-2.348 6.005-2.88l2.47-1.7 19.72-1.243h11.622l12.244 1.038 2.075.21c.86-.663 1.916.128 3.68-.3l6.985 3.62c.934.44 2.134 1.14 3.133 2.295 2.1.986 3.424 2.426 4.37 3.438l.37.764c3.853.752 6.07 3.05 7.504 5.265 3.57.78 6.364 2.815 8.153 5.994 2.2 1.167 3.62 2.93 4.632 4.617a7.11 7.11 0 0 1 3.126 2.45l.058.08c1.79.49 3.095 1.204 4.03 2.087 3.15.674 5.76 2.374 7.582 4.98 1.788.364 3.13 1.05 4.142 1.635 1.596-1.27 3.405-1.856 4.61-2.244.605-3.19 2.043-7.524 5.987-10.326 1.926-3.58 4.748-5.954 7.08-7.912 2.2-1.828 3.927-3.295 4.704-5.253l1.188-2.893 1.888-.35.155-.545c.565-1.673 1.324-3.968 3.327-5.798l.798-.74 1.01-.376c2.122-.805 3.458-2.155 4.354-4.294l2.4-2.633 1.84-1.142c.604-1.83 1.81-5.057 5.04-6.55C219.72 2.348 224.194.43 230.302.04l.216-.04h12.375l11.02 5.06 1.438 1.206c1.57 1.076 4.257 3.01 5.54 6.484l1.51 1.713 1.428 2.672c1.693 7.146.7 18.833-3.968 25.98-1.11 1.713-2.278 2.945-3.445 3.867-.442 3.23-2.602 6.38-8.42 7.95l-.29.04c-1.363 2.97-3.69 4.643-5.247 5.76l-1.518 1.218-4.592 5.058c-.506 1.62-1.517 4.294-3.95 5.915a12.774 12.774 0 0 1-1.744 2.49l-.915 3.827-2.55.065a11.31 11.31 0 0 1-1.343 2.115c-.33 2.917-1.693 4.837-2.51 6.03l-.544.818s-.06.39.213 1.362l-3.95 7.265c-2.366 1.283-3.145 1.866-3.38 2.63 2.99 4.36 6.552 7.992 10.852 11.067 3.6.05 5.87 1.646 7.23 2.605l.935.585c.154 0 .544-.065 1.225-.273l7.374 4.473c1.687.506 4.664 1.61 6.28 4.373a46.382 46.382 0 0 1 3.364 1.92c1.44.84 2.685 1.555 4.047 2.06l3.535 1.285.116 1.973c3.95 1.22 6.382 3.268 7.258 6.16l1.05.545c5.908 3.074 14.774 7.64 14.308 20.286 1.225 7.03-3.146 10.066-5.072 11.39" fill="#fff"/></g></svg>