<svg xmlns="http://www.w3.org/2000/svg" xmlns:xlink="http://www.w3.org/1999/xlink" viewBox="0 0 512 512"><defs><path id="a" d="M0 512.7h512V.7H0z"/></defs><use width="100%" height="100%" fill="#fff" xlink:href="#a"/><path fill="#fccb06" d="M236.15 336.92l-4.38 2.73-.25 1.32c-4.38 1.24-6.94 3.3-7.93 6.6l-8.53 4.3-9.34 4.64H188.2c-1-.4-1.65-1.06-2.64-1.3l-1.08-1.1-2.48-2.3-2.06-.83-2.48-2.97-2.5-2.24c-.56-.16-1.23-1.65-1.64-2.72-.33-1.4-1-2.98-1.9-4.4-.33-2.47.25-4.12 1.16-6.6 1.15-2.48 2.48-5.8 2.23-10.33 2.24-2.47 3.98-5.78 4.8-9.9 1.08-.84 1.82-1.67 2.48-2.5l1.16-1.15 4.96-6.28c-.25-2 .25-2.48 3.06-4.4 1.82-1.47 3.97-3.3 5.8-5.77 1.48 2.3 3.3 3.3 4.7 4.54l1.65 1.33v1.15c1.25 2.65 2.33 4.97 3.32 6.62 1.24 1.65 1.9 3.06 2.32 4.38l1.32 3.3 3.3.83c1.08 0 1.66.83 3.3 2.98 1.9 2.48 4.72 6.37 10.35 7.7 2.24 3.7 6.12 5.53 8.85 7.02 1.65 1.24 2.98 1.65 3.3 2.3 0 1.33-.57 1.66-3.63 3.56m-58.7-219.9l1.66-1.15c1.4-1.07 3.14-1.98 6.6-1.98.84 0 1.83 0 3.32.25 2.8 0 4.96 1.07 7.44 2.15 2.48 1.24 4.96 2.3 8.27 2.9.83 1.06 1.9 1.97 2.5 2.63l1.14.83 2.98 4.55c.4.82 1.07 2.23 2.48 3.55v14.72c-.25.83-.83 1.5-1.5 2.48-1.4 2.3-3.63 5.37-3.87 10.33-1 2.48-1.9 4.96-2.48 7.28-.42 1.65-1.08 3.72-1.66 4.63-1.4 1.9-2.16 3.97-2.9 5.78-.33.83-.66 2.07-1.16 2.48v-.33c-.33-1.9-1.24-5.3-3.64-7.68-.66-4.97-4.13-7.28-5.78-8.52l-.42-.25-3.72-7.44-.24-1.23c-.58-1.82-1.4-5.45-4.4-7.93-.65-3.9-2.47-6.45-3.87-8.27-.83-1.08-1.32-1.66-1.66-2.48v-18.03h1.17zm230.16 137.57h-.4l-5.14-7.85c-.33-.16-1.16-1.65-1.32-2.73-.66-1.9-1.65-3.98-2.98-5.96l-1.07-1.65-1.82-.6c-3.3-1.07-6.2-3.05-9.26-5.28-5.55-4.14-12.16-8.52-22.66-8.85l-3.14-.25c-5.96 0-8.6 4.14-9.68 5.8l-5.3 5.53-1.64 1.5c-1.65 1.06-4.13 2.96-5.46 5.94-1.4.65-2.64 1.4-3.72 2.14-1.65.83-3.06 1.65-4.54 2.23l-1.82.58-1.16 1.5c-1.65 1.9-2.48 3.96-3.14 5.77-.33 1.16-.83 2.65-1.08 2.82l-2.3 1.8-2.9 2.25c-.83 2.05-2.15 3.62-4.72 4.53l-1.9.83-1.98 3.3c-2.15 3.8-2.15 3.9-4.38 3.9l-3.3 1.07-2.24 1.82c-4.63 6.78-8.02 11-16.87 11-3.14 0-4.13-1.33-6.86-5.3l-2.22-3.3-1.08-1.66-2.23-.42c-1.07-.42-2.23-1.5-3.88-3.48-1.5-1.98-3.73-4.62-7.04-6.36-1.65-3.3-4.38-5.46-6.37-6.86-1.9-1.66-3.07-2.48-3.56-3.97-1.16-3.3-2.8-6.2-4.47-8.6-1.65-2.96-3.05-5.53-3.63-8.83v-.5l.4-.4c1.83-1.67 2.5-3.32 2.5-5.4l.82-.65.82-1.32 1.33-1.08c2.5-1.82 2.73-4.63 2.65-6.6 3.9-3.32 5.54-7.7 6.95-11.42.82-2.07 1.65-4.13 2.48-5.3l.58-1.06c1.32-2.82 2.48-5.8 3.55-8.85 1.08-3.73 2.5-7.3 4.4-9.93l.57-1.65c.66-2.07 1.82-3.9 2.98-5.96 2.23-3.55 4.96-8.26 5.54-15.46l-.35-38.52-.82-3.72c-2.48-6.6-4.96-12.65-4.8-21.16v-4.14l-3.72-1.65c-1.47-.82-1.9-4.13-2.22-5.94l-.25-4.4-2.48-.65c0-3.87-1.9-6.2-2.9-6.93l-.4-2.4-2.48-1.4c-4.14-2.48-9.1-3.3-13.8-4.4l-5.96-1.3c-5.2-3.65-12.06-7.45-22.3-8.6l-42.26.32h-3.06c-2.15 0-6.86 0-10.17 2.72l-16.52 3.3c-1.4.5-3.3 1.17-5.2 2.24-1.66 0-3.32 0-4.64.58-1.16.5-2.23 1.16-3.06 2.23l-2.15.25-1.48 1.08c-2.48 1.32-3.3 3.88-4.14 6.1-1.64.5-4.37 1.42-6.02 4.15l-.83 1-.33 1.64c-.4 5.12-1.4 9.9-2.15 14.87-1.4 6.62-2.8 13.4-3.06 21.5v2.06c5.14 23.98 10.18 45.14 20.27 62 .82 2.82 2.15 4.8 3.3 6.46 1.66 2.13 2.15 2.96 2 4.7l3.95 6.36.34 1.16c.4 2.07 1.4 5.54 4.13 8.1.82 3.72 2.47 6.3 3.87 8.27 1.08 1.23 1.66 2.06 1.82 2.97l2.47 2.9 1.66 1.9c.4.82 1.07 2.14 2.23 3.05.66 1.4 1.5 2.48 2.15 2.98-.16.33-1.4.82-2.14 1.32l-1.65 2.64-1.9 3.3c.25 1.66 0 1.66-1.07 2.24l-4.38 6.45c-1.66.83-2.98 1.9-3.8 2.98-1.9 1.07-3.3 2.48-4.14 3.3l-1.06 1.08-2.24 2.24-2.23 3.3c-.5 4.4-2.48 7.45-4.63 11.25-2.15 3.7-4.63 7.68-5.78 13.22-1.5 1.32-2.48 3.06-3.3 5.54-1.66 1.32-2.82 2.8-3.65 4.38-4.12 2.23-5.28 6.94-5.78 9.26l-.4 1.07.32 2.48-4.38 3.97c.25 5.3-.58 9.6-1.4 14.3-1.4 5.54-2.82 12.5-1.4 21.75l.4 1.65c3.64 8.93 6.3 16.53 8.02 23.97l.58 2.9 2.48 1.3c3.72 1.9 6.6 4.97 9.6 8.28 4.8 5.37 10.57 11.5 20.25 13.97 2.47 2.9 6.02 4.13 8.75 4.96.83.34 2.48.84 2.64 1.08l7.43 5.63c.42 0 .67 0 1.66.58.98.5 2.3 1.08 4.12 1.66 1.32 1.4 3.3 2.64 6.6 3.14l2.83 1.9 22.07 1.65h12.73l13.56-1.24 2.24-.25c1.16.82 2.23 0 4.13.5l7.7-3.98c1.15-.5 2.22-1.15 3.3-2.48 2.48-1.16 3.97-2.73 4.96-3.8l.5-.84c4.13-.82 6.6-3.3 8.26-5.78 3.63-.83 6.6-3.06 8.67-6.62 2.48-1.07 4.14-3.3 5.2-4.96 1.1-.58 2.5-1.24 3.32-2.73 2.22-.66 3.54-1.48 4.62-2.48 3.3-.67 6.2-2.5 8.26-5.46 1.9-.25 3.3-1.08 4.4-1.65 1.9 1.4 3.87 2.13 5.2 2.47.66 3.3 2.23 8.26 6.6 11.32 2.24 3.96 5.22 6.6 7.7 8.84 2.48 1.9 4.46 3.55 5.3 5.54l1.3 3.3 2.24.5v.58c.66 1.82 1.4 4.38 3.64 6.36l.83.83 1.14.4c2.48 1.1 3.9 2.5 4.96 4.73l2.48 2.9 2.24 1.06c.58 2.24 1.98 5.8 5.54 7.44 2.97 3.72 7.93 5.8 14.63 6.2h14.04l12.16-5.45 1.4-1.66c1.65-1 4.7-3.3 6.2-6.94l1.4-1.98 1.66-2.9c1.82-8.02.66-20.9-4.46-28.6-1.16-1.9-2.48-3.3-3.8-4.38-.42-3.48-2.82-7.03-9.27-8.77h-.33c-1.4-3.3-3.97-4.96-5.62-6.2l-1.65-1.65-4.96-5.54c-.66-1.64-1.66-4.7-4.55-6.6-.4-1.08-1.07-2-1.65-2.65l-1.16-4.13h-2.64c-.4-.83-.82-1.66-1.65-2.48-.24-3.3-1.64-5.54-2.72-6.62l-.5-1.07.25-1.32-4.38-8.1c-2.48-1.4-3.3-2.07-3.63-2.82 3.3-4.95 7.2-8.83 11.9-12.14 3.97 0 6.6-1.9 8.02-3.06l1.16-.66s.5 0 1.15.33l8.27-4.96c1.9-.57 5.2-1.8 6.95-4.95 1.32-.58 2.48-1.24 3.63-2.15l4.38-2.23 3.9-1.32v-2.07c4.37-1.32 7.18-3.64 8.26-6.86l1-.58c6.6-3.3 16.2-8.27 15.7-22.32 1.4-7.77-3.48-11.08-5.46-12.57" class="ampersand"/></svg>