<svg xmlns="http://www.w3.org/2000/svg" viewBox="0 0 377.95334 463.75867"><defs><clipPath id="a"><path d="M0 347.8h283.5V0H0v347.8z"/></clipPath></defs><g clip-path="url(#a)" transform="matrix(1.33333 0 0 -1.33333 0 463.76)"><path d="M123 93.8l-4-2.4-.2-1.2c-4-1.2-6.3-3.2-7.2-6l-7.7-4-8.5-4.2h-16c-.8.4-1.5 1-2.3 1.2l-1 1-2.2 2-1.8 1-2.4 2.6-2.3 2c-.4.2-1 1.6-1.3 2.5-.4 1.3-1 2.7-1.8 4-.3 2.4.3 3.7 1 6 1 2.2 2.2 5.2 2 9.4 2 2.2 3.6 5.2 4.3 9 1 .8 1.7 1.6 2.3 2.3l1 1 4.6 5.8c0 1.8.2 2.2 2.8 4 1.6 1.3 3.6 3 5.2 5.2 1.4-2 3-3 4.3-4l1.4-1.2.2-1c1-2.4 2-4.4 3-6 1-1.5 1.6-2.8 2-4l1.2-3 3-.7c1 0 1.5-.8 3-2.7 1.7-2.3 4.3-5.8 9.4-7 2-3.4 5.5-5 8-6.4 1.5-1 2.7-1.4 3-2 0-1.2-.5-1.6-3.3-3.2M69.5 293.4l1.5 1c1.2 1 2.8 1.8 6 1.8.8 0 1.6 0 3-.2 2.5 0 4.4-1 6.8-2 2.2-1 4.5-2 7.5-2.5.7-1 1.6-1.8 2.2-2.4l1-.7 2.7-4.2c.4-.8 1-2 2.2-3.2v-13.4c-.2-.7-.6-1.3-1.3-2.3-1.3-2-3.3-4.8-3.5-9.3-1-2.2-1.8-4.5-2.3-6.6-.4-1.5-1-3.4-1.5-4.2-1.3-1.7-2-3.6-2.7-5.3-.3-.8-.6-1.8-1-2.3v.4c-.4 1.7-1.2 4.8-3.5 7-.5 4.4-3.6 6.6-5.2 7.7l-.3.2-3.5 6.8-.2 1c-.5 1.7-1.3 5-4 7.2-.5 3.5-2.2 5.8-3.4 7.4-.8 1-1.2 1.6-1.5 2.3v16h1zM278.2 168l-.3.2-4.7 7c-.3.2-1 1.6-1.2 2.5-.6 1.7-1.4 3.6-2.7 5.4l-1 1.4-1.7.6c-3 1-5.6 2.8-8.4 4.8-5 3.6-11 7.7-20.5 8l-2.8.2c-5.4 0-7.8-3.7-8.8-5.3l-4.8-5-1.5-1.3c-1.6-1-3.8-2.7-5-5.4-1.3-.6-2.4-1.3-3.4-2-1.5-.7-2.7-1.5-4-2l-1.7-.5-1-1.4c-1.4-1.7-2.2-3.6-2.8-5.3-.3-1-.8-2.3-1-2.5l-2-1.7-2.6-2c-.8-2-2-3.4-4.3-4.2l-1.7-.8-1.8-3c-2-3.4-2-3.5-4-3.5l-3-1-2-1.6c-4.2-6.2-7.3-10-15.3-10-2.8 0-3.8 1.2-6.2 4.8l-2 3-1 1.4-2 .5c-1 .4-2 1.4-3.5 3.2-1.4 1.8-3.4 4.2-6.4 5.8-1.6 3-4 5-5.8 6.3-1.8 1.4-2.8 2.3-3.3 3.6-1 3-2.5 5.5-4 7.7-1.5 2.7-2.8 5-3.3 7.8v.6l.4.4c1.7 1.3 2.2 3 2.3 4.8l.7.6.8 1.2 1.2 1c2.2 1.7 2.4 4.2 2.3 6 3.5 3 5 7 6.3 10.4.8 1.8 1.4 3.6 2.2 4.7l.6 1c1.2 2.5 2.2 5.3 3.2 8 1 3.4 2.3 6.6 4 9l.6 1.4c.6 2 1.6 3.6 2.7 5.5 2 3.2 4.5 7.4 5 14l-.3 35-.8 3.4c-2.3 6-4.4 11.5-4.3 19.2v3.7l-3.3 1.5c-1.4.7-1.8 3.7-2 5.4l-.3 4-2.2.6c0 3.5-1.8 5.6-2.7 6.3l-.6 2.5-2.2 1.2c-3.8 2.2-8.3 3-12.6 4l-5.4 1.2c-4.8 3.3-11 6.8-20.2 7.8l-38.4-.3H61c-2 0-6.3 0-9.2-2.5l-15.2-3c-1.3-.4-3-1-4.7-2-1.6 0-3 0-4.2-.5-1-.4-2-1-2.7-2l-2-.2-1.3-1c-2.2-1.2-3-3.5-3.7-5.5-1.6-.5-4-1.3-5.5-3.7l-.8-1-.2-1.5c-.4-4.7-1.3-9-2-13.6-1.3-6-2.5-12.3-2.8-19.6V290c4.7-21.8 9.3-41 18.4-56.3.8-2.5 2-4.3 3-5.8 1.5-2 2-2.7 1.8-4.3l3.7-5.8.3-1c.4-1.8 1.3-5 3.8-7.3.7-3.4 2.3-5.7 3.5-7.4 1-1.2 1.5-2 1.7-2.8l2-2.8 1.6-1.6c.4-.8 1-2 2-2.8a7 7 0 0 1 2-2.7c-.2-.3-1.3-.8-2-1.2l-1.5-2.4-1.7-3c.2-1.5 0-1.6-1-2l-4-5.8c-1.6-.7-2.7-1.7-3.5-2.7-1.8-1-3-2.2-3.8-3l-1-1-2-2-2-3c-.5-4-2.2-6.8-4.2-10.2-2-3.4-4.2-7-5.2-12-1.4-1.2-2.4-2.8-3-5-1.5-1.2-2.6-2.6-3.4-4-3.8-2-4.8-6.3-5.3-8.4l-.3-1 .3-2.3-4-3.5c.3-4.8-.4-8.8-1.2-13C.5 98.8-.7 92.5.5 84l.4-1.5c3.3-8 5.7-14.8 7.3-21.6l.6-2.7 2.3-1.2c3.3-1.6 6-4.5 8.6-7.5C24 44.7 29.2 39 38 37c2.3-2.6 5.5-3.7 8-4.5.8-.3 2.3-.8 2.4-1l6.8-5c.3 0 .5 0 1.5-.5.8-.5 2-1 3.7-1.6 1.2-1.2 3-2.3 6-2.8l2.5-1.7L89 18.5h11.5l12.3 1 2 .3c1-.8 2 0 3.7-.4l7 3.6c1 .4 2 1 3 2.3 2.2 1 3.6 2.4 4.5 3.4l.4.7c3.8.7 6 3 7.5 5.2 3.5.7 6.2 2.8 8 6 2.2 1 3.7 3 4.7 4.6a7 7 0 0 1 3 2.4h.2c1.6.6 3 1.3 4 2.2 3 .6 5.6 2.3 7.5 5 1.7.3 3 1 4 1.6 1.7-1.3 3.5-2 4.7-2.3.6-3 2-7.5 6-10.3 2-3.6 4.7-6 7-8 2.3-1.7 4-3.2 4.8-5l1.2-3 2-.4v-.5c.6-1.7 1.3-4 3.3-5.8l.8-.8 1-.3c2.2-1 3.5-2.2 4.4-4.3l2.4-2.6 2-1c.5-2 1.8-5.2 5-6.7 2.7-3.4 7.2-5.3 13.3-5.7H243l11 5 1.4 1.3c1.5 1 4.2 3 5.5 6.5l1.4 1.7 1.4 2.6c1.7 7.3.7 19-4 26-1 1.8-2.2 3-3.4 4-.4 3.2-2.6 6.4-8.4 8h-.3c-1.4 3-3.7 4.6-5.2 5.7L241 62l-4.7 5c-.5 1.6-1.5 4.3-4 6a12.8 12.8 0 0 1-1.6 2.4l-1 3.8h-2.5a11.3 11.3 0 0 1-1.4 2.2c-.3 3-1.6 5-2.5 6l-.5 1s0 .3.2 1.2l-4 7.3c-2.3 1.2-3 1.8-3.3 2.5 3 4.4 6.5 8 10.8 11 3.6 0 6 1.7 7.3 2.7l1 .6s.4 0 1-.3l7.5 4.5c1.7.5 4.7 1.6 6.3 4.4a46.4 46.4 0 0 1 3.3 2l4 2 3.5 1.2v2c4 1.2 6.5 3.3 7.4 6.2l1 .5c6 3 14.7 7.6 14.3 20.3 1.2 7-3.2 10-5 11.4" fill="#fccb06"/></g></svg>