<svg xmlns="http://www.w3.org/2000/svg" viewBox="0 0 210 297"><path d="M85.3 103.8h1.2c0 .4.8.2 1 .8h1c.2.8 1.6.4 1.7 1.2h2.5c.3 1.6 2.8 1 3.3 2.5 1.2-.3.7 1 2 .8.3.6 1 .8 1.7 1 .2.5.6 1 1.2 1 .3 0 .2.6.3 1 .3 0 .4 0 .4.4 1-.2 1 .7 2 .4.2.5.6.8 1.3.8 0 .4.5.3.8.4 0 .3.2.4.4.4.5.2.7.7 1.2.8.3.3.6.3 1 .4h.3s.4 1.3 1.6 1c.4.8 1.2 1.3 2.5 1.5 0 .5.5.4.8.5 0 .4 0 .4.4.4 0 .3.5.2.8.3 0 .4.2.4.4.4.8.6 2.2.6 2.5 1.7.8.6 2 .6 2.4 1.6 1.2.4 1.8 1 3 1.2.6 1.3 2 1.7 3 2.5 0 .8 1.2.3 1 1.2.7.2 1 .6 1.3 1.2 1.2 0 1.3 1 2.5.8 0 .8 1 .8 1.2 1.6.4.2.8.4.8.8.5 0 .8 0 1 .5.4-.3.2-1.2.3-1.8-.4 0-.2-.8-.7-.8.3-.7.7 0 1.2 0 .2.4.3.7.8.8.2.5.7.7.8 1.2.4 1.3-1 .8-.7 2v1s.4-.2.4 0c.2 0 .3.5.4.7.3.4.7.3 1 .5 0 0 0 .6.4.4 0 1 .3 1.7.8 2.4h.4v.4h.4v.4l.4.8c.3 1.3-.4 1.5-.4 2.5-.4 0-.3.5-.4.8 0 .4-.4.4-.4.8 0 2 .6 3.3.4 5.5-.4 0-.3.5-.4.8-.4 0-.4.2-.4.4-.4.3-1 .4-1.7.4 0 2.3-.6 3.8-.3 6.3 0 1.5-1.4 2-1.2 3.7-.6.2-1 .6-1.2 1.2-.8 0-.3 1.3-1.3 1.2 0 .2.2.7 0 .8h-.4c0 .2-.2.7-.4.8-.2.3-.6.3-.8.5 0 0 0 .5-.4.4v.7h-.4v.8c0 .2-.8.3-1 .4 0 0 .2.5 0 .7-.2 0-.2.5-.3 1-.3-.2-.3 0-.4.3-.4.3-.5 1-.5 1.6-1 .7-2 1.6-2.4 3-1.2.4-2 1.2-2.8 2.3-1 .5-2.3 1-2.5 2.4-1 0-1.2.6-2 .8 0 .8-1.4.3-1.2 1.2-1 0-.6 1.2-1.7 1-.2.5-.6 1-1.2 1-.6.5-1.5.5-1.7 1.3-1 0-.6 1-1.7.8-.3 1.3-2 1.2-2.5 2.5-1.2 0-1.2 1-2.4.8-1 .3-1 1.4-2 1.7-.6 0-.7.7-1.3.8-.3.2-.6.3-.7.8-.7 0-1 .4-1.2 1-.5 0-1 0-1.2.3-1.3-.2-1 1.3-2.4.8-.8.5-1.2 1-2 1.4-.8.3-1.3 1-1.7 1.6-1.3-.2-1 1-2 1.2-.2 1-1.2 1-1.3 1.7-2-.3-2.4 1.3-3.7 2-1 .2-.8-1-1.6-1-1 0-.8 1-2 .5 0-1-1.6-.6-1.6-1.6-1.3-.4-1.2.6-2.5.3 0-.5-.2-.7-.5-.8-.3 0-.4-.2-.4-.4 0-.6.5-.6.5-1.2-.8 0-1 .3-1.6.4-.4.8-1 0-1.4 0 0-.7-.5-.8-.4-1.6.6 0 .4-1 .4-1.6 0-.5-.7-.4-1.2-.4-.3 0-.4-.5-.8-.5 0-.5-.2-1.4.4-1.5-.3-.3-.2-1-.8-1.2 0-.6.7-.7.8-1.2 0-.6.4-.7.4-1.2-.2-1.4.2-2.3.4-3.3.3-1.2-.7-1.2-.4-2.4 0-1.6.8-2.4.8-4 .8-.3 1-1 1.3-2a3.7 3.7 0 0 0 1.6-1.7 3.7 3.7 0 0 0 1.7-1.6c.7 0 .8-.4 1.3-.5 0-.4.8-.2.8-.8.5-.4 1.5-.4 1.6-1.2 1-.2 1.4-1 2-1.2.4-.6.7-1.3 1.7-1.3 0-1.2 1-1.6 1.4-2.4.8-.4 1.6-1 2.4-1.3.2-1 1.6-1 2.5-1.2 0-1 1.7-.7 2-1.6.4-.4 1-.3 1.2-.8.4-.3.7-.5 1.3-.4 1-.2.7-1.5 2-1.3 0-.8 1-.8 1.3-1.6.5 0 .8 0 1-.3.8-.3 2-.4 2.7-.8 1 0 .5-1.3 1.3-1.4 0-.4.5-.3.8-.4 0-.3.2-.4.4-.4.3-1 1.7-1 1.6-2.5V152c0-1-.6-1.5-1.6-1.5 0-1-1-1-2-.8 0-1-1.6-.4-1.3-1.7-.6-.4-1.6-.4-1.7-1.2-1 .2-1-.8-2-.4-.3-.6-.7-1-1.3-1.3-.5 0-.6-.6-1.2-.7l-.8-.4-.5-1s-.7.2-.8 0v-.3H94c-.3-.6-.7-1-1.3-1.2-.2-.5-.5-1-1.2-1-.5-.8-1.3-1.4-2.5-1.5-.2-.6-.6-1-1.2-1.2-.4-.4-1.2-.3-1.3-1-1-.3-2-1-2.4-2-1 .4-.8-.7-1.6-.7-.5 0-.6-.6-1.2-.7-.3-.4-1-.3-1.2-1-.6 0-.7-.6-1.3-.7v-2c0-.4-.5-.3-.8-.4 0-.5-.2-.8-.5-1 0-.3 0-.6-.4-.7-.2 0-.3 0-.3-.4-1-.2-1-1.8-2-2 .3-2-1-2.5-1.7-3.6 0-1 .5-1.7.8-2.5v-5c.4 0 .4-.2.4-.4-.2-1 1-.8 1.3-1.2.2-.6.6-1 1.2-1.3 0-.5 0-1-.4-1 .2-.4.4-.8.4-1.3 1 0 .7-1.6 1.2-2 2.3 0 5 .3 4.4-2.5 1.7-.4 1.3 1.2 3 .8v-1.2z" fill="#fff" fill-rule="evenodd"/></svg>