<svg xmlns="http://www.w3.org/2000/svg" viewBox="0 0 613.44 375.07"><path fill="#fff" class="arrows" fill-rule="evenodd" d="M408.93 0h4.67c.4 1.73 3.07 1.07 3.07 3.07h4.66c.4 3.2 5.74 1.33 6.27 4.66h9.33c1.07 6.14 10.67 3.74 12.27 9.34 4.67-1.34 2.93 4.26 7.6 3.06 1.07 2.14 3.33 2.94 6.27 3.07.8 2.4 2.4 4 4.66 4.8 1.34 0 1.07 1.87 1.34 3.07 1.33-.4 1.33.53 1.6 1.33 3.73-.53 3.33 2.93 7.73 1.73.67 1.87 2 3.07 4.67 3.07 0 1.33 1.86 1.33 3.06 1.33-.26 1.34.67 1.6 1.6 1.74 2 .4 2.4 2.66 4.67 2.93.8.93 1.87.93 3.07 1.6.26 0 1.33-.27 1.33 0 .53.27 1.87 4.67 6.4 3.07 1.6 3.46 4.67 5.6 9.33 6.26 0 1.34 1.87 1.34 3.07 1.34-.4 1.33.4 1.6 1.33 1.73 0 1.33 2 1.33 3.2 1.33-.26 1.34.54 1.6 1.34 1.74 3.06 2.26 8.26 2.26 9.33 6.26 3.07 2.14 8 2.27 9.33 6.14 4 1.33 6.14 4.26 10.94 4.66 2.13 4.54 6.93 6.4 10.66 9.34.4 2.93 5.34 1.06 4.8 4.53 2.27.93 4 2.67 4.67 4.67 4.53-.4 4.8 3.6 9.33 3.2.4 3.2 4 3.06 4.67 6.26 1.33.67 2.67 1.34 3.07 3.07 1.73-.27 2.66.4 3.06 1.6 2.14-.53 1.34-4 1.6-6.27-1.73-.26-1.06-3.06-3.2-3.06 1.34-2.67 2.94-.27 4.67 0 .8 1.33 1.33 2.66 3.33 3.06.54 2.14 2.67 2.67 3.07 4.67 1.07 4.8-4.27 3.07-3.07 7.73.27.67-.53 2.67 0 3.2 0 0 1.34-.26 1.34 0 .66.67 1.06 2.4 1.73 3.07.8.8 2.13.8 3.07 1.33.66.54 0 2.4 1.73 1.74 0 4.4 1.33 6.66 3.07 9.33 0 .27 1.33-.27 1.33 0 .4.27 0 1.33 0 1.33.4.4 1.33 0 1.73 0 0 .4-.26 1.34 0 1.74.54 1.33 1.34 1.86 1.34 3.2 1.33 4.8-1.34 5.73-1.34 9.33-1.6 0-1.33 1.87-1.73 3.07-.27 1.33-1.33 1.6-1.33 3.06.26 6.94 2.26 12 1.33 20-1.33.27-1.33 2.14-1.33 3.34-1.34-.27-1.6.53-1.74 1.33-1.33 1.33-3.46 1.87-6.13 1.73 0 8-2.67 13.87-1.6 23.2-.27 6-5.33 7.2-4.67 14-2 .8-3.6 2.4-4.53 4.67-2.93 0-1.07 5.07-4.53 4.53-.4.67.4 2.67 0 3.2-.27 0-1.34-.26-1.6 0-.54.8-.94 2.4-1.6 3.07-.8.8-2.14.8-3.07 1.6-.53.4 0 2.13-1.6 1.33-.27.67.53 2.67 0 3.2 0 0-1.33-.26-1.33 0-.4.8.26 2.27 0 3.07-.54.67-3.07.93-3.2 1.33-.54 1.07 0 2.4 0 3.2-1.74 0-1.34 2-1.74 3.2-1.33 0-1.33.67-1.6 1.6-1.33 1.34-1.6 3.6-1.33 6.27-4.4 2.4-7.6 5.87-9.33 10.67-4.94 2-8.4 5.06-10.94 9.33-4 2.13-8.8 3.6-9.33 9.33-4-.26-4.8 2.4-7.73 3.07 0 2.93-5.07 1.07-4.67 4.67-3.07 0-2 4-6.13 3.06-.94 2.4-2.67 4-4.67 4.8-2.27 1.34-6 1.34-6.4 4.67-3.07 0-2 4.27-6.13 3.2-1.34 4.8-8 4.4-9.34 9.33-4.53-.53-4.8 3.47-9.33 3.07-3.6 1.07-4 5.07-7.73 6.13-2 .54-2.4 2.67-4.67 3.07-1.33.8-2.67 1.33-3.07 3.2-2.66 0-4 1.07-4.66 3.07-2.14 0-4.4-.27-4.67 1.6-4.8-.8-3.47 4.66-9.33 3.06-2.67 1.34-4.4 3.74-7.6 4.67-2.67 1.33-4.8 3.47-6.27 6.13-4.8-.8-4 4-7.73 4.54-.4 3.2-4 3.06-4.67 6.13-8-.53-9.07 5.33-13.87 8-4.4.93-3.33-3.33-6.4-3.33-3.73-.54-3.33 2.66-7.73 1.6 0-4-6-2.27-6.13-6.27-4.8-1.07-4.67 2.67-9.34 1.6.27-1.73-.4-2.67-1.6-3.07-1.33 0-1.33-.8-1.33-1.73-.67-2.67 1.33-2.67 1.33-4.67-3.2-.66-4 1.07-6.13 1.6-1.33 2.67-2.67.27-4.67 0 0-2.66-1.86-3.33-1.6-6.26 2.14-.4 1.34-4 1.6-6.14-.26-1.73-2.66-1.33-4.66-1.33-1.34-.4-1.34-1.6-3.07-1.6 0-2.67-.8-6 1.6-6.27-1.33-1.06-1.07-4-3.33-4.53.53-2 2.66-2.4 3.2-4.53-.67-2.67 1.33-2.67 1.33-4.67-.67-5.33.67-8.67 1.6-12.4 1.07-4.8-2.67-4.53-1.6-9.33 0-6.14 3.07-9.34 3.07-15.47 3.06-1.07 4-4 4.66-7.73 2.67-1.34 4.8-3.47 6.27-6.27 2.67-1.33 4.8-3.47 6.13-6.13 2.67.4 2.67-1.34 4.8-1.6.4-1.6 3.07-1.07 3.07-3.07 2-1.6 5.73-1.33 6.13-4.67 3.2-.93 4.94-3.2 7.74-4.66 1.33-2.27 2.26-4.8 6.13-4.67 0-4.67 3.33-6 4.67-9.33 3.2-1.34 6.13-3.07 9.33-4.54.93-3.73 5.87-3.46 9.33-4.66.4-4 6.67-2.67 7.74-6.14 1.33-1.33 4.26-.93 4.66-3.2 1.34-.8 2.4-1.6 4.54-1.33 3.73-.67 2.93-5.6 8-4.8.26-3.2 4-3.07 4.4-6.27 1.86.27 2.66-.26 3.2-1.33 3.33-1.33 7.73-1.6 10.66-3.2 3.6.53 1.74-4.4 4.67-4.53 0-1.6 1.87-1.34 3.07-1.6-.27-1.34.66-1.34 1.6-1.6.93-4 6.4-3.74 6.13-9.34v-4.53c0-4-2.27-6-6.13-6.27-.27-3.2-4-3.2-7.74-2.93.4-4-6-1.33-4.66-6.13-2.14-1.6-5.87-1.34-6.27-4.67-3.73.67-3.33-2.67-7.73-1.6-.8-2.13-2.4-3.73-4.67-4.67-2-.53-2.4-2.66-4.67-3.06-.53-.94-2.26-.8-3.06-1.34-.67-.66-1.07-2.93-1.6-3.33-.67-.27-2.67.53-3.2 0 0 0 .26-1.33 0-1.33-.94-.54-2.14 0-3.07 0-.67-2.4-2.27-4-4.53-4.8-.67-1.87-2-3.2-4.67-3.07-1.33-3.6-4.53-5.73-9.07-6.27-.93-2.26-2.4-3.73-4.66-4.66-1.34-1.34-4.27-.8-4.67-2.94-4-1.73-7.47-4-9.33-7.73-4 1.07-3.07-3.07-6.14-3.07-2-.53-2.4-2.66-4.66-3.2-1.07-1.33-4-.8-4.54-3.06-2-.54-2.4-2.67-4.66-3.07v-7.73c0-1.6-1.74-1.34-2.94-1.74.27-1.73-.4-2.66-1.6-3.06.27-1.74-.26-2.67-1.33-3.07-1.33.4-1.6-.53-1.73-1.33-4-1.34-3.2-7.2-7.74-8 1.34-7.74-4-9.34-6.13-13.74.27-3.73 1.73-6.4 2.93-9.33V39.33c1.34.4 1.34-.53 1.34-1.33-.94-4.27 3.33-3.2 4.8-4.8.93-2.13 2.4-3.6 4.66-4.53 0-2.14.27-4.4-1.33-4.67.67-1.07 1.33-2.4 1.33-4.53 4 0 2.67-5.74 4.67-7.74 8.8 0 18.93 1.34 17.07-9.33 6.13-1.33 4.66 4.67 10.66 3.2V.93zM66.67 3.07C72 1.73 69.33 8.13 68 9.33c.67 1.74 2.93 4 3.2 1.34 3.33-.54 4 1.33 6.27 1.73v9.33c1.33 4 2.93-4 8-1.6-.4 1.87 2.13.8 2.93 1.6v1.34c1.87.8 4.27-.27 6.27 0 .66 2.4 2.26 4 4.53 4.8 1.33 1.33 4 .93 4.53 3.06 4 1.6 7.6 3.74 10.94 6.14 3.2 2.4 6.93 4.4 10.66 6.13 0 1.6 2 1.33 3.2 1.6-.26 1.33.67 1.33 1.6 1.6.54 2 2.67 2.4 3.07 4.53 4.27-1.33 4 2.27 7.6 1.6-.4 2.67 1.33 2.67 1.6 4.67 4.67.4 6.67 3.33 10.67 4.67 0 1.33 1.86 1.33 3.06 1.33-.26 1.33.67 1.6 1.6 1.73.67 1.34 1.34 2.67 3.07 3.07 1.33 1.33 4.27.93 4.67 3.07 1.33 1.06 2.66 1.86 4.66 1.73.94 3.73 5.87 3.47 9.34 4.67.66 4.4 6.66 3.6 7.73 7.73 5.6-1.07 5.87 3.33 10.67 3.07.66 4 6.66 2.66 8 6.13 1.86.53 2.26 2.67 4.53 3.07 1.33.53 2.67 1.33 3.07 2.93 4.93-.67 3.6 4.8 9.33 3.07 2.27 2.93 3.47 6.93 9.33 6.26 1.6 4 6.14 5.34 7.74 9.34h4.8c2.66 4.93 7.73 7.73 12.4 10.66-.27 2.27-.4 4.54 1.33 4.8-.27 1.74.4 2.67 1.6 3.07-1.07 4.93-1.07 3.07 0 8 .93 3.07 3.2 4.93 4.67 7.6.53 3.6 1.6 6.67 4.53 7.73.8 3.74-2.67 3.47-1.33 7.74 0 3.73 2.66 4.66 1.33 9.33.4 2.93 1.33 5.33 3.33 6.27.27 3.73-2.4 4.8-3.2 7.73v7.73c1.34 4-2.93 3.07-2.93 6.14-1.33 0-1.33 1.86-1.33 3.06-1.34-.26-1.6.67-1.74 1.6 0 2.67-1.33 4-3.06 4.67-1.34 1.33-.94 4.27-3.07 4.67V226c-3.2 1.07-4.27 4-4.8 7.73-2.27 1.07-4 2.67-4.67 4.8-2 .67-3.33 2-3.2 4.67-3.6-.4-1.73 4.67-4.66 4.8.26 2.67-1.74 3.2-1.34 6.13-4.53.8-3.73 6.67-8 7.74 0 1.86.54 2.66 1.74 3.2-.4 3.2-6.94.26-6.27 4.66-2.27.67-4 2.14-6.13 2.94-.8 2.26-2.27 4-3.07 6.13 0 3.07-4.27 2-3.2 6.27-2 1.33-5.73 1.33-6.13 4.66-.4 3.07-4 3.07-6.27 4.54-1.73 2.4-1.33 6.93-6.13 6.26.26 4-2.4 4.94-3.07 8-4.27-1.33-4 2-7.6 1.34-1.6 0-1.33 2-1.6 3.2 0 1.33-1.33 1.33-1.33 3.06-4 1.6-5.34 6.14-9.34 7.74-.66 5.06-8.26 3.2-8 9.33-2.66-.27-3.06 1.87-6 1.6-.4 1.6-3.06.93-3.06 3.07-2 .53-2.4 2.66-4.67 3.06-1.33.67-2.67 1.34-3.07 3.07-4.53 0-5.73 3.6-7.73 6.27-4.93-.8-4.4 4-6.27 6.13-2.66 0-6-.8-6.26 1.33h-7.74c-3.73-.53-3.46 2.94-8 1.6-3.06-.66-4 1.07-6 1.6-4.26 1.07-3.06-3.06-6.13-3.06-4.53-.27-4.8 3.6-9.33 3.2-.27-1.87-2.67-1.34-4.67-1.6h-4.8c-.4-1.74-3.07-1.2-3.07-3.07 0-1.33-1.33-1.6-1.33-3.2-4.53-1.33-4 2.13-8 1.6-.93 2.67-2.67 0-4.53 0 0-4.67 3.6-5.87 6.26-8-1.33-5.87 3.74-5.33 4.67-9.07-1.33.94-1.33-1.33-1.6-1.6-1.07-.26-3.73 2.67-6.13 1.6-2.14-1.6-5.74-1.6-8-3.06v-10.94c-.27-2.13-3.74-1.33-6-1.33-.8-5.07 1.86-6.67 4.66-8-1.33-4.67 4.27-2.93 3.07-7.73 1.87-4.94-5.07-1.07-3.07-6.14-1.33 0-1.33-1.73-1.6-2.93-1.33.27-1.33-.67-1.33-1.6.53-8 10.67-6.67 9.07-17.07 6.13 2 3.73-4.53 7.73-4.66.53-3.07 4.27-2.94 4.67-6.14 4 1.07 3.06-3.06 6.13-3.06 2-.54 2.4-2.67 4.67-3.2 2.66-1.34 4.93-3.47 6.26-6.14 1.34-.66 2.67-1.33 3.07-3.06 1.87.4 2.67-.27 3.2-1.34 3.07-.53 2.93-4.26 6.13-4.8.4-1.6 3.07-1.06 3.07-3.06 1.33 0 1.6-1.34 3.07-1.34 3.2-.53 3.2-4.26 4.66-6.26 5.6.8 4-5.34 9.34-4.67 1.33-1.33 1.06-4.27 3.2-4.67 1.33-.66 2.66-1.33 3.06-3.06 3.6-1.07 4.27-5.34 8-6.14.8-3.6 4.94-4.26 6-8 .27-3.2-1.33-4.8-4.66-4.4-3.07 0-2-4-6.14-3.06-2.66-5.07-8-7.2-10.66-12.4-5.6-.67-8.54-4-12.54-6.14-.93-2.13-3.2-2.93-6.13-3.06 0-1.6-1.87-1.34-3.07-1.6.27-1.34-.66-1.34-1.6-1.34-.93-4.93-8.26-3.2-9.33-8-4-1.73-7.47-3.73-10.67-6.13-2.4-.93-4-2.4-4.8-4.67-2.93 0-5.33-1.06-6.26-3.06-3.07 0-2-4.4-6.27-3.2-.67-2-2-3.2-4.67-3.2 0-2.94-4.93-1.07-4.4-4.54-1.33-1.33-4.26-.93-4.66-3.2-3.07 0-2-4-6.27-3.06-.53-1.87-2.67-2.27-3.07-4.54-3.6-.53-6.66-1.6-7.73-4.66-4 .4-4.8-2.27-7.73-2.94-.4-2.66 1.33-2.66 1.33-4.66-1.33 0-1.07-1.87-1.33-3.07-1.34-3.47-4.67-4.67-7.74-6.13-1.6 0-1.33-2-1.6-3.2H12.4c-.67-1.34-1.33-2.67-3.07-3.07 1.34-7.47-4.53-8-3.2-15.47.27-3.73-2.26-4.66-4.53-6.13-.27-2.67 1.87-3.2 1.33-6.13C1.6 77.87 2 75.2 0 75.2c1.07-3.6 5.33-4 6.13-7.73.67-3.34-.93-4-1.33-6.27-.93-4.8 4-4 4.53-7.73 1.07-4.67-2.66-4.54-1.6-9.34h9.34c2.66-1.33 4.8-3.46 6.13-6.13 0-2.27.27-4.4-1.33-4.67 0-1.6-.54-2.66-1.74-2.93.54-2.27 4.8-.53 4.8-3.07 1.34 0 1.34-2 1.6-3.2 1.34.4 1.34-.4 1.34-1.33h6.4c.26-1.73 3.06-1.07 3.06-3.07 4.67-1.33 2.67 4 7.6 3.07 4-.27 3.07-5.33 3.07-9.33 3.2-.4 3.07-4 4.67-6.14C55.6 8.67 58.4 10 62 10.4c-2.27 2-2.27 8.8 0 10.67 4.4 0 7.2-9.6 1.33-10.67.94-2.27 2.67-4 3.34-6.27"/></svg>
