<svg xmlns="http://www.w3.org/2000/svg" viewBox="0 0 20 14"><path fill="#0F9FD6" fill-rule="evenodd" d="M.172 11.052c.088-.02.055-.168.163-.17v-.254c.167-.024.076-.316.243-.34v-.51c.32-.06.194-.588.487-.678-.06-.26.223-.163.163-.424.11-.056.15-.18.162-.34.117-.047.198-.132.244-.254.002-.083.1-.066.162-.085-.015-.072.032-.08.08-.085-.032-.204.15-.184.082-.424.1-.037.167-.11.163-.255.08-.002.064-.103.082-.17.07.016.077-.032.08-.084.03-.113.144-.135.164-.256.045-.05.044-.11.08-.17.01-.017-.013-.07 0-.084.018-.018.246-.09.163-.34.183-.09.294-.257.324-.51.08-.002.063-.103.08-.17.07.017.078-.032.082-.084.08-.002.063-.104.082-.17.07.016.076-.033.08-.084.118-.16.12-.44.325-.51.118-.16.12-.44.325-.51.068-.21.223-.332.244-.593.242-.116.337-.384.487-.595.152-.01.055-.28.243-.254.045-.122.126-.206.243-.254-.02-.25.184-.26.163-.51.164-.024.158-.23.323-.254.036-.075.072-.152.163-.17-.013-.098.018-.15.08-.17-.024-.114-.202-.07-.324-.084-.02.092-.16.057-.162.17-.145-.063-.012-.155 0-.255.072-.037.145-.074.162-.17.107-.03.128-.15.244-.17.25-.063.156.233.406.17.03-.02.14.028.162 0 .01-.012-.012-.076 0-.085.04-.027.126-.048.163-.085.045-.044.04-.12.08-.17.022-.026.114 0 .082-.084.227.007.35-.08.486-.17.013-.01-.01-.074 0-.086.014-.014.068.014.08 0 .015-.014-.012-.07 0-.085.014-.014.066.01.082 0 .055-.036.09-.07.163-.085.25-.062.297.086.488.084.002.082.1.065.162.084.066.016.08.085.163.085C8.73.336 9 .223 9.428.273c.003.083.1.066.163.085-.014.07.032.08.082.084.063.076.087.192.08.34.427.007.732.14 1.22.084.312.012.374.287.73.255.045.122.126.207.243.255.01.16.27.06.244.254.028.022.14-.028.16 0 .01.012-.01.077 0 .085.042.028.127.048.164.085.045.044.04.12.08.17.022.026.114 0 .082.084.03.022.14-.027.162 0 .007.01-.008.083 0 .085.045.018.122-.022.163 0 .035.02.053.158.082.17.045.022.115-.015.162 0 .003.084.1.067.163.086-.015.072.03.08.08.085.073.067.184.092.326.086.132.23.317.403.568.51.102.26.27.454.488.593.116.218.19.48.488.508-.013.21.127.263.162.425.153.01.056.28.243.254.002.17.223.108.164.34.117.047.198.132.243.254.082.114.077.317.244.34.002.17.222.108.163.34.257.072.23.438.488.51-.02.248.184.26.163.508.055.198.27.228.325.425.028.11.143.133.162.254.036.076.07.152.162.17-.003.145.06.22.163.255-.007.12-.013.24.08.254-.038.268.25.192.163.51.073.15.197.247.244.424.073.15.18.262.325.34-.04.266.218.223.243.424.166.025.16.23.325.254-.033.43.284.496.406.764.06.232-.16.17-.16.34-.035.204.147.184.08.424-.21.008-.116.33-.325.34-.06.26.14.25.08.508-.093-.014-.143.02-.16.085.014.07-.033.08-.082.084-.13.024-.14-.08-.244-.085-.035.177.055.224.08.34.145.06.012.153 0 .253-.145-.01-.17.104-.324.085-.026-.115-.204-.07-.325-.085-.094.014-.068.155-.08.255-.016.07-.082.085-.082.17-.128-.008-.31.04-.324-.085-.066.073-.223.05-.244.17-.106-.03-.128-.15-.244-.17-.13.024-.14-.08-.243-.085-.28.037-.455-.034-.65-.085-.248-.062-.238.146-.487.085-.324 0-.487-.17-.812-.17-.056-.168-.216-.226-.406-.254-.073-.15-.18-.263-.324-.34-.074-.15-.182-.263-.325-.34.02-.136-.078-.146-.082-.254-.09-.02-.056-.17-.163-.17-.08-.112-.077-.315-.243-.34-.048-.176-.17-.273-.244-.423-.12-.074-.257-.128-.244-.34-.247.004-.315-.18-.487-.255-.078-.173-.166-.335-.243-.51-.197-.048-.18-.32-.244-.508-.22-.025-.146-.357-.325-.424-.07-.07-.048-.233-.162-.255-.043-.068-.085-.138-.08-.254-.026-.2-.283-.157-.245-.424-.165-.025-.16-.23-.325-.254.013-.1-.018-.15-.08-.17-.06-.193-.073-.434-.163-.594.025-.196-.235-.094-.244-.255-.08-.002-.063-.103-.08-.17-.07.016-.078-.032-.082-.084-.22-.054-.202-.356-.487-.34h-.244c-.207.01-.315.123-.325.34-.177.01-.174.213-.162.423-.214-.025-.064.33-.325.255-.08.112-.076.315-.242.34.033.204-.15.183-.082.423-.117.05-.198.134-.243.256-.03.11-.143.133-.163.255-.048.035-.04.128-.08.17-.028.03-.145.054-.163.085-.02.03.026.148 0 .17-.008.007-.08-.01-.08 0-.018.05.01.118 0 .17-.118.047-.2.132-.245.254-.1.036-.167.108-.162.254-.184.09-.295.257-.325.51-.117.047-.198.13-.244.254-.07.068-.047.232-.16.254-.09.22-.206.408-.407.51.06.23-.16.17-.162.34-.028.11-.142.132-.162.253-.07.07-.048.233-.162.255-.03.112-.143.133-.163.255h-.406c-.08.002-.063.104-.08.17-.095-.015-.145.018-.163.084-.095-.015-.145.018-.163.084.016.072-.03.08-.08.085-.056.223-.37.178-.406.423-.41-.062-.502.21-.73.34-.19-.028-.336-.102-.488-.17h-.974c.015-.072-.032-.08-.08-.085-.22.06-.158-.175-.245-.254-.117-.048-.198-.133-.243-.255-.116-.008-.23-.015-.244.084-.065-.045-.132-.09-.243-.085-.01-.22-.303-.137-.406-.256.004-.484.07-1.033-.487-.933-.08-.338.243-.255.163-.593H.172v-.255z"/></svg>