<?xml version="1.0" encoding="UTF-8" standalone="no"?>
<!-- Created with Inkscape (http://www.inkscape.org/) -->

<svg
   xmlns:dc="http://purl.org/dc/elements/1.1/"
   xmlns:cc="http://creativecommons.org/ns#"
   xmlns:rdf="http://www.w3.org/1999/02/22-rdf-syntax-ns#"
   xmlns:svg="http://www.w3.org/2000/svg"
   xmlns="http://www.w3.org/2000/svg"
   xmlns:sodipodi="http://sodipodi.sourceforge.net/DTD/sodipodi-0.dtd"
   xmlns:inkscape="http://www.inkscape.org/namespaces/inkscape"
   width="27.536306mm"
   height="27.000648mm"
   viewBox="0 0 97.569589 95.671588"
   id="svg2"
   version="1.1"
   inkscape:version="0.91 r13725"
   inkscape:export-filename="/Users/Willem/Sites/tandem/site/wp-content/themes/exchange/assets/images/png/T_checkbox_Checked_WEB.png"
   inkscape:export-xdpi="223.75"
   inkscape:export-ydpi="223.75"
   sodipodi:docname="T_checkbox_Unchecked_WEB.svg">
  <defs
     id="defs4" />
  <sodipodi:namedview
     id="base"
     pagecolor="#ffffff"
     bordercolor="#666666"
     borderopacity="1.0"
     inkscape:pageopacity="0.0"
     inkscape:pageshadow="2"
     inkscape:zoom="3.8773437"
     inkscape:cx="8.030614"
     inkscape:cy="53.735969"
     inkscape:document-units="px"
     inkscape:current-layer="layer1"
     showgrid="false"
     inkscape:window-width="1440"
     inkscape:window-height="855"
     inkscape:window-x="0"
     inkscape:window-y="1"
     inkscape:window-maximized="1"
     fit-margin-top="0"
     fit-margin-left="0"
     fit-margin-right="0"
     fit-margin-bottom="0" />
  <metadata
     id="metadata7">
    <rdf:RDF>
      <cc:Work
         rdf:about="">
        <dc:format>image/svg+xml</dc:format>
        <dc:type
           rdf:resource="http://purl.org/dc/dcmitype/StillImage" />
        <dc:title></dc:title>
      </cc:Work>
    </rdf:RDF>
  </metadata>
  <g
     inkscape:label="Layer 1"
     inkscape:groupmode="layer"
     id="layer1"
     transform="translate(-152.73072,-473.21991)">
    <path
       inkscape:connector-curvature="0"
       style="fill:#ffbc00;fill-rule:evenodd"
       d="m 232.86062,552.9915 c -0.27,0.13 -0.54,0.26 -0.6,0.6 -0.13,0.26 -0.26,0.53 -0.6,0.6 0.05,0.35 -0.07,0.53 -0.3,0.6 -0.13,0.26 -0.26,0.53 -0.6,0.6 0.02,0.42 0.05,0.85 -0.3,0.9 -0.1,0.6 -0.8,0.6 -0.9,1.2 -1.23,-0.13 -1.92,0.28 -2.7,0.6 -1.83,-0.23 -2.72,0.48 -4.5,0.3 -0.85,0.05 -1.25,0.55 -2.1,0.6 -0.13,-0.44 -0.26,0.03 -0.6,0 -0.92,0.22 -0.88,-0.52 -1.8,-0.3 -0.92,-0.22 -1.1,0.3 -1.8,0.3 -2.28,0.12 -5.1,-0.3 -6.9,0.3 -0.7,0.1 -1.15,-0.05 -1.5,-0.3 -0.54,-0.04 -0.63,0.37 -1.2,0.3 -0.48,0.02 -1.15,-0.15 -1.2,0.3 -0.8,-0.6 -2.62,-0.18 -3.9,-0.3 l -12,0 c -0.7,0.3 -1.8,0.2 -2.4,0.6 -0.72,0.12 -0.65,-0.55 -1.5,-0.3 -0.95,-0.15 -1.17,0.42 -1.8,0.6 l -0.9,0 c -0.06,-0.34 -0.3,-0.17 -0.3,0 -0.44,-0.17 -1.55,0.35 -1.5,-0.3 -0.82,-0.22 -0.6,0.6 -1.2,0.6 l -1.8,0 c -0.53,0.07 -0.7,0.5 -0.6,1.2 -1.06,0.16 -0.74,-1.07 -1.8,-0.9 -0.7,0.4 -1.68,0.52 -1.5,1.8 -0.43,-0.07 -0.1,-0.9 -0.6,-0.9 -0.05,-0.35 -0.55,-0.26 -0.9,-0.3 -0.4,0.2 -0.56,0.64 -0.6,1.2 0.34,0.06 0.17,0.3 0,0.3 0.05,0.35 -0.07,0.53 -0.3,0.6 -0.12,0.72 0.55,0.65 0.3,1.5 -0.6,0 -0.38,0.82 -1.2,0.6 -0.3,-0.8 -0.62,-1.58 -0.6,-2.7 -0.5,0 -0.78,-0.23 -0.9,-0.6 -1.4,-0.3 -1,1.2 -2.4,0.9 0.22,-0.92 -0.52,-0.88 -0.3,-1.8 -0.16,-0.24 -0.3,-0.5 -0.3,-0.9 0.05,-0.35 -0.07,-0.54 -0.3,-0.6 0.1,-0.7 1.04,-0.56 0.9,-1.5 -0.2,-0.5 0.27,-1.16 0,-1.8 -0.06,-0.14 -0.3,0.03 -0.3,-0.3 0,-0.54 0.33,-0.64 0.3,-1.2 -0.33,-1.27 -0.35,-2.86 -0.3,-4.5 -0.13,-0.58 -0.1,-1.3 -0.9,-1.2 0.13,-0.57 0.86,-0.54 0.6,-1.5 -0.25,-0.96 -0.2,-2.2 -0.6,-3 l 0,-1.8 c -0.04,-0.24 -0.32,-0.3 -0.3,-0.6 0,0.04 0.3,-0.12 0.3,-0.3 l 0,-0.3 c -0.04,-0.56 -0.2,-1 -0.6,-1.2 -0.12,-0.73 0.55,-0.65 0.3,-1.5 -0.33,-1.27 -0.35,-2.86 -0.3,-4.5 -0.22,-0.7 -0.27,-1.53 -0.6,-2.1 0.13,-1.03 -0.12,-1.68 -0.3,-2.4 0.43,-0.14 -0.03,-0.27 0,-0.6 l 0,-1.2 c -0.1,-0.7 -0.36,-1.24 -0.6,-1.8 l 0,-1.8 c -0.04,-0.56 -0.2,-1 -0.6,-1.2 0,-0.7 0.52,-0.9 0.3,-1.8 -0.32,-0.7 -0.2,-1.8 -0.6,-2.4 -0.13,-0.63 0.2,-0.8 0.3,-1.2 -0.35,-0.36 -0.34,-1.06 -0.3,-1.8 0.22,-0.93 -0.82,-0.58 -0.6,-1.5 0.53,-0.22 0.04,-0.55 0,-0.9 0.16,-0.24 0.3,-0.5 0.3,-0.9 -0.5,-1.2 -0.24,-3.17 -0.3,-4.8 0.35,-0.05 0.25,-0.55 0.3,-0.9 0.3,0 0.23,-0.37 0.3,-0.6 0.7,0 0.88,-0.52 1.8,-0.3 0.48,0.08 0.5,-0.3 0.9,-0.3 0.35,0.05 0.53,-0.07 0.6,-0.3 0.24,0.16 0.5,0.3 0.9,0.3 0.48,0.08 0.52,-0.3 0.9,-0.3 0.35,0.05 0.53,-0.07 0.6,-0.3 0.85,0.3 1.25,0.3 2.1,0 0.8,0 1.7,0.1 2.1,-0.3 l 2.4,0 c 0.72,0.12 0.65,-0.55 1.5,-0.3 0.35,0.05 0.53,-0.07 0.6,-0.3 0.35,0.05 0.53,-0.07 0.6,-0.3 l 1.2,0 c 0.35,0.05 0.53,-0.07 0.6,-0.3 0.43,-0.17 1.55,0.35 1.5,-0.3 0.4,0.4 1.3,0.3 2.1,0.3 0.63,0.12 0.8,-0.2 1.2,-0.3 0.48,-0.1 0.52,0.3 0.9,0.3 0.25,0 0.47,-0.32 0.9,-0.3 0.62,0.02 0.8,0.1 1.2,0.3 0.38,-0.42 1.4,-0.2 1.8,-0.6 0.72,-0.12 0.65,0.55 1.5,0.3 l 2.1,0 c -0.15,-0.18 0.24,-0.38 0.3,-0.3 0.02,0.02 -0.02,0.3 0,0.3 0.27,0.04 0.62,0 0.9,0 0.45,-0.02 1.03,-0.25 1.5,-0.3 0.63,-0.08 2.26,-0.32 3,0 0.14,0.06 -0.03,0.3 0.3,0.3 0.75,0 1.3,-0.54 2.4,-0.3 0.24,0.05 0.3,0.3 0.6,0.3 0.2,0 0.34,-0.25 0.6,-0.3 0.3,-0.06 1.2,-0.12 1.5,0 0.13,0.06 -0.03,0.3 0.3,0.3 0.38,0 0.13,-0.23 0.3,-0.3 0.44,-0.2 0.55,0.37 0.9,0.3 0.04,0 0.05,-0.3 0.3,-0.3 0.8,-0.05 1.65,0.04 2.4,0 0.92,-0.22 0.88,0.5 1.8,0.3 0.97,0.17 1.4,-0.2 2.1,-0.3 4.66,0.06 9.2,0 13.5,-0.3 0.3,0.4 0.3,1.1 0.6,1.5 0.92,-0.23 0.57,0.82 1.5,0.6 -0.23,1.1 -0.96,-0.03 -2.1,0.3 0.1,0.7 0.47,1.12 0.3,2.1 0.22,0.92 -0.52,0.88 -0.3,1.8 0.3,0.9 0.22,2.18 1.2,2.4 -0.25,0.35 -0.4,0.8 -0.3,1.5 0.53,0.22 0.04,0.54 0,0.9 0.16,0.24 0.3,0.5 0.3,0.9 0.32,0.07 0.2,0.6 0.6,0.6 -0.7,0.84 -0.1,2.3 0,3.3 0.66,0.62 1.3,-0.48 2.4,-0.3 0.1,0.8 -1.16,0.23 -0.9,1.2 -0.43,0.17 -0.73,0.47 -0.9,0.9 l 0,1.5 c 0.04,0.56 0.2,1 0.6,1.2 -0.05,0.35 0.07,0.53 0.3,0.6 0.25,-0.06 0.28,0.12 0.3,0.3 -0.05,0.35 0.07,0.53 0.3,0.6 0.05,0.25 -0.12,0.28 -0.3,0.3 0.12,0.62 -0.2,0.8 -0.3,1.2 0.06,0.24 0.3,0.3 0.3,0.6 -0.05,0.35 0.07,0.53 0.3,0.6 0.16,0.43 -0.35,1.55 0.3,1.5 0.08,0.48 -0.28,0.5 -0.3,0.9 -0.1,0.48 0.28,0.5 0.3,0.9 -0.36,0.84 -0.33,2.07 -0.3,3.3 -0.25,0.85 0.42,0.77 0.3,1.5 l 0,3.6 c 0.1,0.7 0.47,1.12 0.3,2.1 0,0.5 0.22,0.77 0.6,0.9 0.12,0.72 -0.55,0.65 -0.3,1.5 0.26,0.24 0.18,0.82 0.6,0.9 0.02,0.47 -0.15,1.14 0.3,1.2 l 0,1.5 c 0.1,0.4 0.53,0.47 0.6,0.9 0,0.9 -0.63,1.16 -0.9,1.8 -0.22,0.82 0.6,0.6 0.6,1.2 -0.37,0.13 -0.62,0.38 -0.6,0.9 -0.05,0.65 1.06,0.13 1.5,0.3 0.1,-0.4 0.75,-0.25 1.2,-0.3 -0.08,0.32 -0.6,0.2 -0.6,0.6 m 5.4,3.3 c 0,-0.92 -0.63,-1.17 -0.9,-1.8 0.4,0 0.38,-0.83 0,-0.9 -0.04,0.36 -0.1,0.7 -0.6,0.6 -0.57,-0.44 -1.33,-0.67 -1.2,-1.8 0.44,-0.16 0.75,-0.45 1.2,-0.6 0.06,0.33 0.33,0.46 0.6,0.6 0.05,0.35 -0.05,0.85 0.3,0.9 0.05,-0.45 -0.1,-1.1 0.3,-1.2 0.02,-0.52 -0.23,-0.77 -0.6,-0.9 -0.07,-0.57 0.34,-0.66 0.3,-1.2 -0.72,-0.13 -0.65,0.55 -1.5,0.3 0.25,-0.35 0.4,-0.8 0.3,-1.5 -0.48,0.13 -1,-1.12 -0.3,-1.2 0.5,0 0.17,0.83 0.6,0.9 0.07,-0.43 0.5,-0.5 0.6,-0.9 0.02,-0.52 -0.07,-0.93 -0.3,-1.2 l 0,-0.3 c -0.06,-0.37 -0.34,-0.2 -0.6,0 -0.02,-0.4 -0.4,-0.42 -0.3,-0.9 0.94,0.34 0.73,-0.47 1.2,-0.6 0.18,-1.4 -0.67,-1.73 -0.6,-3 -0.3,0 -0.36,-0.24 -0.6,-0.3 -0.36,-0.05 -0.85,0.05 -0.9,-0.3 0.33,-0.07 0.47,-0.33 0.6,-0.6 0.36,-0.04 0.7,-0.1 0.6,-0.6 0,-0.42 0.14,-0.66 0.3,-0.9 -0.4,-0.2 -0.56,-0.64 -0.6,-1.2 0.22,-0.92 -0.3,-1.1 -0.3,-1.8 -0.12,-0.73 0.55,-0.65 0.3,-1.5 0.1,-0.7 -0.05,-1.15 -0.3,-1.5 0.1,-0.4 0.43,-0.58 0.3,-1.2 0.1,-0.8 -1.17,-0.24 -0.9,-1.2 0,-0.3 -0.24,-0.36 -0.3,-0.6 l 0,-1.5 c -0.18,-0.02 -0.36,-0.05 -0.3,-0.3 0.23,-0.07 0.35,-0.25 0.3,-0.6 -0.1,-0.4 -0.43,-0.57 -0.3,-1.2 0.3,-0.8 0.36,-1.84 0.3,-3 -0.1,-0.6 -0.8,-0.6 -0.9,-1.2 1.06,-0.04 -0.64,-1 0.3,-0.9 0.12,-0.73 -0.55,-0.65 -0.3,-1.5 -0.25,-0.85 0.42,-0.78 0.3,-1.5 -0.23,-0.07 -0.35,-0.25 -0.3,-0.6 -0.02,-0.4 -0.4,-0.42 -0.3,-0.9 -0.13,-0.57 -0.65,-0.76 -0.6,-1.5 0.1,-0.4 0.43,-0.57 0.3,-1.2 0,-0.3 -0.24,-0.36 -0.3,-0.6 -0.03,-0.34 0.44,-0.47 0,-0.6 l 0,-2.4 c -0.4,0 -0.27,-0.53 -0.6,-0.6 l 0,-0.6 c -0.23,-0.07 -0.6,0 -0.6,-0.3 0.36,-0.04 0.7,-0.1 0.6,-0.6 -0.35,-0.05 -0.33,-0.48 -0.3,-0.9 l -0.9,-1.8 c 0.23,-0.07 0.35,-0.25 0.3,-0.6 0.23,-0.07 0.35,-0.25 0.3,-0.6 0.12,-0.3 -0.22,-0.2 -0.3,-0.3 -0.14,-0.17 -0.18,-0.43 -0.3,-0.6 -0.04,-0.05 -0.25,0.04 -0.3,0 -0.1,-0.07 0.05,-0.5 0,-0.6 -0.02,-0.04 -0.27,0.03 -0.3,0 -0.1,-0.08 0.07,-0.5 0,-0.6 -0.5,0 -0.17,-0.83 -0.6,-0.9 -0.16,-0.45 -0.45,-0.76 -0.6,-1.2 0.24,-1.04 -0.45,-1.16 -0.3,-2.1 -0.68,-0.22 -0.9,-0.9 -1.2,-1.5 l -3.6,0 c -0.57,0.07 -0.66,-0.34 -1.2,-0.3 -1.16,0.06 -2.2,0 -3,-0.3 -0.57,-0.07 -0.66,0.34 -1.2,0.3 -0.4,-0.1 -0.57,-0.43 -1.2,-0.3 -1.13,0.23 -2.55,-0.33 -3.3,0 -0.17,0.07 0.07,0.3 -0.3,0.3 0.1,0 -0.18,-0.27 -0.3,-0.3 -0.18,-0.05 -0.4,0 -0.6,0 -1.5,-0.13 -2.92,-0.13 -4.2,0 -0.55,0.05 -0.68,0.3 -1.2,0.3 -0.33,0 -0.17,-0.24 -0.3,-0.3 -0.22,-0.1 -0.66,0.02 -0.9,0 -1.77,-0.13 -4.73,-0.28 -6,0 -0.24,0.05 -0.4,0.3 -0.6,0.3 l 0,-0.3 c -0.05,-0.07 -0.5,0 -0.6,0 -1.2,-0.17 -1.73,0.18 -2.4,0.3 -0.5,-0.5 -1.76,-0.24 -2.7,-0.3 -0.57,-0.07 -0.66,0.34 -1.2,0.3 l -6.3,0 c -0.38,0 -0.42,0.38 -0.9,0.3 -1.1,-0.1 -1.95,0.05 -2.7,0.3 -0.3,0.06 -0.36,-0.32 -0.6,-0.3 l 0,0.3 c -0.08,0.1 -0.5,-0.08 -0.6,0 l -2.1,0 c -0.57,-0.07 -0.66,0.34 -1.2,0.3 -0.4,-0.07 -0.42,-0.3 -0.9,-0.3 l 0,0.3 c -0.2,0.24 -1.23,-0.2 -1.5,0 0,0.3 -0.24,0.36 -0.3,0.6 0.16,0 0.34,0.24 0,0.3 -0.05,-0.35 -0.48,-0.33 -0.9,-0.3 l -1.5,0 c -0.36,0.34 -1.06,0.34 -1.8,0.3 -0.07,0.23 -0.25,0.35 -0.6,0.3 -0.38,0 -0.42,0.38 -0.9,0.3 -1.9,-0.1 -3.07,0.53 -5.1,0.3 -0.3,0 -0.36,0.24 -0.6,0.3 -0.4,0 -0.28,0.52 -0.6,0.6 -0.08,-0.42 -0.66,-0.34 -0.9,-0.6 l -1.5,0 c -0.7,0 -0.88,0.5 -1.8,0.3 -0.1,0.28 -0.6,0.53 -0.9,0.6 -0.2,0.04 -0.4,-0.04 -0.6,0 -0.27,0.53 -0.73,0.87 -0.9,1.5 -0.38,-0.02 -0.42,-0.4 -0.9,-0.3 -0.35,0.45 -0.37,1.22 -0.9,1.5 -0.57,-0.07 -0.66,0.34 -1.2,0.3 0.14,0.94 -0.92,0.68 -0.6,1.8 -0.4,0 -0.28,0.52 -0.6,0.6 -0.02,0.18 -0.05,0.35 -0.3,0.3 -0.07,0.23 0,0.6 -0.3,0.6 -0.07,0.57 0.34,0.66 0.3,1.2 -0.1,0.4 -0.43,0.57 -0.3,1.2 0.1,0.4 0.43,0.57 0.3,1.2 0.07,0.57 -0.34,0.66 -0.3,1.2 0.65,-0.05 0.13,1.06 0.3,1.5 0.32,0.78 0.73,1.47 0.6,2.7 0.35,0.04 0.85,-0.05 0.9,0.3 -1.06,0.03 0.64,1 -0.3,0.9 0.05,0.3 -0.3,0.35 -0.3,0.6 0,-0.1 0.27,0.18 0.3,0.3 0.05,0.2 -0.04,0.4 0,0.6 0,0.6 -0.82,0.38 -0.6,1.2 0.35,0.05 0.32,0.47 0.3,0.9 0.38,0.12 0.6,0.38 0.6,0.9 0.04,0.74 0.04,1.44 -0.3,1.8 0.38,0.12 0.6,0.4 0.6,0.9 -0.25,0.35 -0.4,0.8 -0.3,1.5 -0.07,0.56 0.34,0.66 0.3,1.2 l 0,1.8 c 0.4,0.38 0.3,1.3 0.3,2.1 0.4,0.38 0.3,1.3 0.3,2.1 0.25,0.35 0.4,0.8 0.3,1.5 -0.06,0.3 0.3,0.36 0.3,0.6 0,0 -0.28,-0.02 -0.3,0 -0.1,0.08 0.07,0.5 0,0.6 0.65,-0.05 0.13,1.06 0.3,1.5 0.47,0.52 0.3,1.16 0,1.5 0.65,0.25 0.48,1.3 0.9,1.8 -0.07,0.38 -0.32,0.4 -0.3,0.9 0,0.25 0.2,0.4 0.3,0.6 0.13,0.23 0.14,0.4 0.3,0.6 -0.38,0.12 -0.6,0.38 -0.6,0.9 0.18,0.02 0.35,0.04 0.3,0.3 0.23,0.06 0.6,0 0.6,0.3 0.42,0.08 0.34,0.66 0.6,0.9 -0.02,0.18 -0.05,0.35 -0.3,0.3 -0.24,0.06 -0.35,0.25 -0.3,0.6 0.23,0.06 0.35,0.25 0.3,0.6 -0.4,0 -0.28,0.52 -0.6,0.6 0.18,0.72 0.43,1.37 0.3,2.4 l 0.9,1.8 c -0.66,-0.06 -0.96,0.24 -0.9,0.9 0,0.38 0.38,0.4 0.3,0.9 0.07,0.43 0.5,0.5 0.6,0.9 -0.25,0.35 -0.4,0.8 -0.3,1.5 0.4,0.38 0.3,1.3 0.3,2.1 0.47,0.08 0.2,0.66 0,0.9 l 0.9,0 c 0,0.4 0.14,0.66 0.3,0.9 -0.47,0.03 -1.04,-0.04 -0.9,0.6 -0.04,0.74 -0.05,1.44 0.3,1.8 -0.53,0.07 -0.68,0.5 -0.6,1.2 0.3,0.4 0.28,1.1 0.9,1.2 0.26,0.44 0.45,0.95 1.2,0.9 1.38,-0.08 1.45,-0.32 2.7,0 0.4,-0.42 1.3,-0.3 2.1,-0.3 0.3,0.7 1.03,0.97 0.9,2.1 0.38,0 0.4,0.38 0.9,0.3 l 0,1.2 c 1.54,0.24 1.97,-0.63 3.3,-0.6 0,0.4 0.52,0.27 0.6,0.6 -0.02,0.5 0.23,0.77 0.6,0.9 0.05,-0.45 0.72,-0.28 1.2,-0.3 l 1.5,0 c 0.38,-0.02 0.4,-0.4 0.9,-0.3 1.7,0.2 2.5,-0.5 4.2,-0.3 0.56,-0.24 1.1,-0.5 1.8,-0.6 3.32,0.22 5.72,-0.48 9,-0.3 0.35,-0.25 0.8,-0.4 1.5,-0.3 0.85,-0.25 0.78,0.42 1.5,0.3 0.52,0.2 0.93,-0.3 1.2,-0.3 l 0,0.3 c 0.05,0.06 0.5,0 0.6,0 1.2,0.14 1.5,-0.33 2.4,-0.3 0.7,0.1 1.12,0.47 2.1,0.3 0.85,0.25 0.78,-0.43 1.5,-0.3 l 4.8,0 c 1.46,-0.14 3.5,0.3 4.5,-0.3 0.38,0 0.4,0.38 0.9,0.3 0.56,-0.24 1.1,-0.5 1.8,-0.6 0.9,0.42 1.6,-0.14 2.7,-0.3 l 3.6,0 c 0.88,-0.27 0.92,-0.27 1.8,0 0.72,-0.58 2.4,-0.2 3.6,-0.3 0.43,-0.47 1.53,-0.27 2.4,-0.3 0.05,-0.35 0.47,-0.33 0.9,-0.3 0.57,0.06 0.66,-0.34 1.2,-0.3 0.95,0.05 1,-0.8 2.1,-0.6 0.73,-0.27 1.3,-0.7 2.4,-0.6 0.2,-0.4 0.64,-0.56 1.2,-0.6 0.3,-0.8 1.2,-1 1.5,-1.8 0.38,-0.13 0.6,-0.4 0.6,-0.9 0.7,0.1 0.33,-0.87 0.9,-0.9 -0.18,-1.28 0.2,-2 0.3,-3"
       class="checkbox"
       id="path4" />
    <path
       style="fill:#ffffff;fill-opacity:1;stroke:none;stroke-width:1.51499999;stroke-miterlimit:4;stroke-dasharray:none;stroke-opacity:1"
       d="m 170.60812,564.80388 c -0.15822,-0.45388 -0.28859,-1.06906 -0.28969,-1.36705 -0.001,-0.33526 -0.26665,-0.66471 -0.69619,-0.86419 -0.90356,-0.41963 -1.23204,-0.40658 -1.62298,0.0645 -0.61028,0.73535 -0.9667,0.3957 -1.40161,-1.33567 -0.39482,-1.5718 -0.39675,-1.74264 -0.0221,-1.95231 0.36065,-0.20183 0.39111,-0.76865 0.25044,-4.6607 -0.10723,-2.96707 -0.27194,-4.60628 -0.49856,-4.96169 -0.23412,-0.36719 -0.26077,-0.66952 -0.0865,-0.98099 0.17197,-0.30731 0.1195,-1.10391 -0.16531,-2.50952 -0.2295,-1.13261 -0.42466,-2.7222 -0.43368,-3.53241 -0.009,-0.81021 -0.0813,-1.57933 -0.16066,-1.70915 -0.0793,-0.12982 -0.18406,-1.58055 -0.23273,-3.22385 -0.0487,-1.64331 -0.20526,-3.51009 -0.34799,-4.14842 -0.14272,-0.63832 -0.36727,-2.23375 -0.49899,-3.54539 -0.13172,-1.31165 -0.32122,-2.51706 -0.42112,-2.67871 -0.30369,-0.49137 -0.61063,-3.20776 -1.00154,-8.86355 -0.10268,-1.48571 -0.31556,-2.72104 -0.50214,-2.91395 -0.21509,-0.22239 -0.269,-0.69885 -0.1605,-1.4185 0.0899,-0.59599 0.0822,-1.37377 -0.0171,-1.7284 -0.32065,-1.14569 -0.24211,-3.86068 0.13799,-4.77041 0.37439,-0.89602 0.47323,-0.94581 2.59609,-1.30756 1.05148,-0.17919 1.31745,-0.20986 4.25549,-0.4907 4.81879,-0.46063 6.15082,-0.63057 7.09248,-0.9049 2.54774,-0.74221 5.73276,-0.98524 14.95869,-1.14141 1.7022,-0.0288 3.87552,-0.14979 4.8296,-0.26882 1.251,-0.15608 1.8388,-0.13002 2.10806,0.0934 0.2822,0.2342 0.63092,0.24051 1.42815,0.0258 0.66668,-0.17952 1.2124,-0.19582 1.48312,-0.0443 0.26922,0.15066 0.7131,0.14043 1.19494,-0.0275 0.56889,-0.19831 0.90353,-0.18175 1.29738,0.0642 0.39866,0.24896 0.55596,0.25585 0.63203,0.0277 0.0626,-0.18784 0.21476,-0.21605 0.39857,-0.0739 0.16352,0.12645 1.05169,0.14864 1.97371,0.0493 0.92203,-0.0993 1.85416,-0.0914 2.07142,0.0177 0.21726,0.10907 3.0607,0.0991 6.31876,-0.0222 10.89178,-0.40534 10.25156,-0.42312 10.48974,0.29144 0.11435,0.34302 0.46094,0.73799 0.77021,0.87771 0.89761,0.4055 0.83471,0.80801 -0.10916,0.69845 l -0.8426,-0.0978 0.0277,2.14787 c 0.0416,3.2288 0.0727,3.50092 0.44271,3.87093 0.18778,0.18778 0.35517,0.94558 0.372,1.68401 0.0168,0.73842 0.17276,1.60825 0.34653,1.93296 0.17378,0.32471 0.29172,1.12177 0.26208,1.77125 -0.0696,1.52616 0.34751,2.66759 0.89774,2.45645 0.22398,-0.086 0.69389,-0.22822 1.04424,-0.31615 0.59888,-0.15031 0.58209,-0.10009 -0.28064,0.8393 -0.66852,0.72793 -0.91797,1.23343 -0.91886,1.86207 -0.001,0.76533 0.61207,2.26734 1.0691,2.61888 0.27841,0.21414 0.33672,0.86276 0.14331,1.59403 -0.10057,0.38024 -0.062,1.00921 0.0857,1.39771 0.14771,0.3885 0.32126,3.30794 0.38568,6.48764 0.0644,3.17971 0.17241,5.87074 0.23999,5.98009 0.0676,0.10934 0.18622,0.70304 0.26366,1.31933 0.0774,0.61628 0.26696,1.1985 0.42118,1.29381 0.20084,0.12413 0.19744,0.32829 -0.012,0.71958 -0.22904,0.42797 -0.20389,0.71737 0.11612,1.33621 0.22467,0.43446 0.47688,1.36736 0.56046,2.07313 0.0836,0.70577 0.25147,1.3447 0.37307,1.41985 0.35755,0.22098 0.25438,1.10518 -0.21201,1.81698 -0.34315,0.52371 -0.37103,0.76039 -0.13423,1.13956 0.18966,0.30369 0.20655,0.53561 0.0462,0.63469 -0.13895,0.0859 -0.25264,0.39649 -0.25264,0.69027 0,0.47979 0.11705,0.52094 1.15041,0.40447 l 1.1504,-0.12967 -1.1504,1.49504 c -0.63272,0.82226 -1.15041,1.61392 -1.15041,1.75924 0,0.68353 -1.23587,1.50888 -2.70803,1.8085 -3.19023,0.64928 -7.08373,1.07435 -10.83216,1.18259 -2.12775,0.0614 -5.60951,0.17677 -7.73726,0.25627 -3.11684,0.11646 -16.19398,0.34147 -23.04207,0.39647 -0.75776,0.006 -1.68921,0.17213 -2.06988,0.36898 -0.74066,0.38301 -2.77992,0.41774 -3.33871,0.0569 -0.21111,-0.13633 -0.51014,-0.0635 -0.79404,0.19343 -0.26736,0.24196 -0.90957,0.41213 -1.55534,0.41213 -0.88305,0 -1.12655,0.10172 -1.23484,0.51582 -0.16087,0.61518 -0.41311,0.65351 -0.84846,0.12895 -0.44056,-0.53085 -1.09552,-0.48476 -1.88001,0.13232 -0.56155,0.44172 -0.76019,0.47355 -1.33132,0.21332 -0.46965,-0.21398 -0.75278,-0.22436 -0.94261,-0.0345 -0.36967,0.36967 -0.79499,2.3531 -0.62168,2.89914 0.0805,0.25359 -0.0687,0.63229 -0.34913,0.88605 -0.46928,0.42469 -0.50168,0.40877 -0.77737,-0.38208 z"
       id="path4173"
       inkscape:connector-curvature="0" />
  </g>
</svg>
