<svg xmlns="http://www.w3.org/2000/svg" viewBox="0 0 85.528625 73.085876"><path fill="#ffbc00" fill-rule="evenodd" d="M80.13 57.16c-.27.13-.54.26-.6.6-.13.26-.26.53-.6.6.05.35-.07.53-.3.6-.13.26-.26.53-.6.6.02.42.05.85-.3.9-.1.6-.8.6-.9 1.2-1.23-.13-1.92.28-2.7.6-1.83-.23-2.72.48-4.5.3-.85.05-1.25.55-2.1.6-.13-.44-.26.03-.6 0-.92.22-.88-.52-1.8-.3-.92-.22-1.1.3-1.8.3-2.28.12-5.1-.3-6.9.3-.7.1-1.15-.05-1.5-.3-.54-.04-.63.37-1.2.3-.48.02-1.15-.15-1.2.3-.8-.6-2.62-.18-3.9-.3h-12c-.7.3-1.8.2-2.4.6-.72.12-.65-.55-1.5-.3-.95-.15-1.17.42-1.8.6h-.9c-.06-.34-.3-.17-.3 0-.44-.17-1.55.35-1.5-.3-.82-.22-.6.6-1.2.6h-1.8c-.53.07-.7.5-.6 1.2-1.06.16-.74-1.07-1.8-.9-.7.4-1.68.52-1.5 1.8-.43-.07-.1-.9-.6-.9-.05-.35-.55-.26-.9-.3-.4.2-.56.64-.6 1.2.34.06.17.3 0 .3.05.35-.07.53-.3.6-.12.72.55.65.3 1.5-.6 0-.38.82-1.2.6-.3-.8-.62-1.58-.6-2.7-.5 0-.78-.23-.9-.6-1.4-.3-1 1.2-2.4.9.22-.92-.52-.88-.3-1.8-.16-.24-.3-.5-.3-.9.05-.35-.07-.54-.3-.6.1-.7 1.04-.56.9-1.5-.2-.5.27-1.16 0-1.8-.06-.14-.3.03-.3-.3 0-.54.33-.64.3-1.2-.33-1.27-.35-2.86-.3-4.5-.13-.58-.1-1.3-.9-1.2.13-.57.86-.54.6-1.5-.25-.96-.2-2.2-.6-3v-1.8c-.04-.24-.32-.3-.3-.6 0 .04.3-.12.3-.3v-.3c-.04-.56-.2-1-.6-1.2-.12-.73.55-.65.3-1.5-.33-1.27-.35-2.86-.3-4.5-.22-.7-.27-1.53-.6-2.1.13-1.03-.12-1.68-.3-2.4.43-.14-.03-.27 0-.6v-1.2c-.1-.7-.36-1.24-.6-1.8v-1.8c-.04-.56-.2-1-.6-1.2 0-.7.52-.9.3-1.8-.32-.7-.2-1.8-.6-2.4-.13-.63.2-.8.3-1.2-.35-.36-.34-1.06-.3-1.8.22-.93-.82-.58-.6-1.5.53-.22.04-.55 0-.9.16-.24.3-.5.3-.9-.5-1.2-.24-3.17-.3-4.8.35-.05.25-.55.3-.9.3 0 .23-.37.3-.6.7 0 .88-.52 1.8-.3.48.08.5-.3.9-.3.35.05.53-.07.6-.3.24.16.5.3.9.3.48.08.52-.3.9-.3.35.05.53-.07.6-.3.85.3 1.25.3 2.1 0 .8 0 1.7.1 2.1-.3h2.4c.72.12.65-.55 1.5-.3.35.05.53-.07.6-.3.35.05.53-.07.6-.3h1.2c.35.05.53-.07.6-.3.43-.17 1.55.35 1.5-.3.4.4 1.3.3 2.1.3.63.12.8-.2 1.2-.3.48-.1.52.3.9.3.25 0 .47-.32.9-.3.62.02.8.1 1.2.3.38-.42 1.4-.2 1.8-.6.72-.12.65.55 1.5.3h2.1c-.15-.18.24-.38.3-.3.02.02-.02.3 0 .3.27.04.62 0 .9 0 .45-.02 1.03-.25 1.5-.3.63-.08 2.26-.32 3 0 .14.06-.03.3.3.3.75 0 1.3-.54 2.4-.3.24.05.3.3.6.3.2 0 .34-.25.6-.3.3-.06 1.2-.12 1.5 0 .13.06-.03.3.3.3.38 0 .13-.23.3-.3.44-.2.55.37.9.3.04 0 .05-.3.3-.3.8-.05 1.65.04 2.4 0 .92-.22.88.5 1.8.3.97.17 1.4-.2 2.1-.3 4.66.06 9.2 0 13.5-.3.3.4.3 1.1.6 1.5.92-.23.57.82 1.5.6-.23 1.1-.96-.03-2.1.3.1.7.47 1.12.3 2.1.22.92-.52.88-.3 1.8.3.9.22 2.18 1.2 2.4-.25.35-.4.8-.3 1.5.53.22.04.54 0 .9.16.24.3.5.3.9.32.07.2.6.6.6-.7.84-.1 2.3 0 3.3.66.62 1.3-.48 2.4-.3.1.8-1.16.23-.9 1.2-.43.17-.73.47-.9.9v1.5c.04.56.2 1 .6 1.2-.05.35.07.53.3.6.25-.06.28.12.3.3-.05.35.07.53.3.6.05.25-.12.28-.3.3.12.62-.2.8-.3 1.2.06.24.3.3.3.6-.05.35.07.53.3.6.16.43-.35 1.55.3 1.5.08.48-.28.5-.3.9-.1.48.28.5.3.9-.36.84-.33 2.07-.3 3.3-.25.85.42.77.3 1.5v3.6c.1.7.47 1.12.3 2.1 0 .5.22.77.6.9.12.72-.55.65-.3 1.5.26.24.18.82.6.9.02.47-.15 1.14.3 1.2v1.5c.1.4.53.47.6.9 0 .9-.63 1.16-.9 1.8-.22.82.6.6.6 1.2-.37.13-.62.38-.6.9-.05.65 1.06.13 1.5.3.1-.4.75-.25 1.2-.3-.08.32-.6.2-.6.6m5.4 3.3c0-.92-.63-1.17-.9-1.8.4 0 .38-.83 0-.9-.04.36-.1.7-.6.6-.57-.44-1.33-.67-1.2-1.8.44-.16.75-.45 1.2-.6.06.33.33.46.6.6.05.35-.05.85.3.9.05-.45-.1-1.1.3-1.2.02-.52-.23-.77-.6-.9-.07-.57.34-.66.3-1.2-.72-.13-.65.55-1.5.3.25-.35.4-.8.3-1.5-.48.13-1-1.12-.3-1.2.5 0 .17.83.6.9.07-.43.5-.5.6-.9.02-.52-.07-.93-.3-1.2v-.3c-.06-.37-.34-.2-.6 0-.02-.4-.4-.42-.3-.9.94.34.73-.47 1.2-.6.18-1.4-.67-1.73-.6-3-.3 0-.36-.24-.6-.3-.36-.05-.85.05-.9-.3.33-.07.47-.33.6-.6.36-.04.7-.1.6-.6 0-.42.14-.66.3-.9-.4-.2-.56-.64-.6-1.2.22-.92-.3-1.1-.3-1.8-.12-.73.55-.65.3-1.5.1-.7-.05-1.15-.3-1.5.1-.4.43-.58.3-1.2.1-.8-1.17-.24-.9-1.2 0-.3-.24-.36-.3-.6v-1.5c-.18-.02-.36-.05-.3-.3.23-.07.35-.25.3-.6-.1-.4-.43-.57-.3-1.2.3-.8.36-1.84.3-3-.1-.6-.8-.6-.9-1.2 1.06-.04-.64-1 .3-.9.12-.73-.55-.65-.3-1.5-.25-.85.42-.78.3-1.5-.23-.07-.35-.25-.3-.6-.02-.4-.4-.42-.3-.9-.13-.57-.65-.76-.6-1.5.1-.4.43-.57.3-1.2 0-.3-.24-.36-.3-.6-.03-.34.44-.47 0-.6v-2.4c-.4 0-.27-.53-.6-.6v-.6c-.23-.07-.6 0-.6-.3.36-.04.7-.1.6-.6-.35-.05-.33-.48-.3-.9l-.9-1.8c.23-.07.35-.25.3-.6.23-.07.35-.25.3-.6.12-.3-.22-.2-.3-.3-.14-.17-.18-.43-.3-.6-.04-.05-.25.04-.3 0-.1-.07.05-.5 0-.6-.02-.04-.27.03-.3 0-.1-.08.07-.5 0-.6-.5 0-.17-.83-.6-.9-.16-.45-.45-.76-.6-1.2.24-1.04-.45-1.16-.3-2.1-.68-.22-.9-.9-1.2-1.5h-3.6c-.57.07-.66-.34-1.2-.3-1.16.06-2.2 0-3-.3-.57-.07-.66.34-1.2.3-.4-.1-.57-.43-1.2-.3-1.13.23-2.55-.33-3.3 0-.17.07.07.3-.3.3.1 0-.18-.27-.3-.3-.18-.05-.4 0-.6 0-1.5-.13-2.92-.13-4.2 0-.55.05-.68.3-1.2.3-.33 0-.17-.24-.3-.3-.22-.1-.66.02-.9 0-1.77-.13-4.73-.28-6 0-.24.05-.4.3-.6.3v-.3c-.05-.07-.5 0-.6 0-1.2-.17-1.73.18-2.4.3-.5-.5-1.76-.24-2.7-.3-.57-.07-.66.34-1.2.3h-6.3c-.38 0-.42.38-.9.3-1.1-.1-1.95.05-2.7.3-.3.06-.36-.32-.6-.3v.3c-.08.1-.5-.08-.6 0h-2.1c-.57-.07-.66.34-1.2.3-.4-.07-.42-.3-.9-.3v.3c-.2.24-1.23-.2-1.5 0 0 .3-.24.36-.3.6.16 0 .34.24 0 .3-.05-.35-.48-.33-.9-.3h-1.5c-.36.34-1.06.34-1.8.3-.07.23-.25.35-.6.3-.38 0-.42.38-.9.3-1.9-.1-3.07.53-5.1.3-.3 0-.36.24-.6.3-.4 0-.28.52-.6.6-.08-.42-.66-.34-.9-.6h-1.5c-.7 0-.88.5-1.8.3-.1.28-.6.53-.9.6-.2.04-.4-.04-.6 0-.27.53-.73.87-.9 1.5-.38-.02-.42-.4-.9-.3-.35.45-.37 1.22-.9 1.5-.57-.07-.66.34-1.2.3.14.94-.92.68-.6 1.8-.4 0-.28.52-.6.6-.02.18-.05.35-.3.3-.07.23 0 .6-.3.6-.07.57.34.66.3 1.2-.1.4-.43.57-.3 1.2.1.4.43.57.3 1.2.07.57-.34.66-.3 1.2.65-.05.13 1.06.3 1.5.32.78.73 1.47.6 2.7.35.04.85-.05.9.3-1.06.03.64 1-.3.9.05.3-.3.35-.3.6 0-.1.27.18.3.3.05.2-.04.4 0 .6 0 .6-.82.38-.6 1.2.35.05.32.47.3.9.38.12.6.38.6.9.04.74.04 1.44-.3 1.8.38.12.6.4.6.9-.25.35-.4.8-.3 1.5-.07.56.34.66.3 1.2v1.8c.4.38.3 1.3.3 2.1.4.38.3 1.3.3 2.1.25.35.4.8.3 1.5-.06.3.3.36.3.6 0 0-.28-.02-.3 0-.1.08.07.5 0 .6.65-.05.13 1.06.3 1.5.47.52.3 1.16 0 1.5.65.25.48 1.3.9 1.8-.07.38-.32.4-.3.9 0 .25.2.4.3.6.13.23.14.4.3.6-.38.12-.6.38-.6.9.18.02.35.04.3.3.23.06.6 0 .6.3.42.08.34.66.6.9-.02.18-.05.35-.3.3-.24.06-.35.25-.3.6.23.06.35.25.3.6-.4 0-.28.52-.6.6.18.72.43 1.37.3 2.4l.9 1.8c-.66-.06-.96.24-.9.9 0 .38.38.4.3.9.07.43.5.5.6.9-.25.35-.4.8-.3 1.5.4.38.3 1.3.3 2.1.47.08.2.66 0 .9h.9c0 .4.14.66.3.9-.47.03-1.04-.04-.9.6-.04.74-.05 1.44.3 1.8-.53.07-.68.5-.6 1.2.3.4.28 1.1.9 1.2.26.44.45.95 1.2.9 1.38-.08 1.45-.32 2.7 0 .4-.42 1.3-.3 2.1-.3.3.7 1.03.97.9 2.1.38 0 .4.38.9.3v1.2c1.54.24 1.97-.63 3.3-.6 0 .4.52.27.6.6-.02.5.23.77.6.9.05-.45.72-.28 1.2-.3h1.5c.38-.02.4-.4.9-.3 1.7.2 2.5-.5 4.2-.3.56-.24 1.1-.5 1.8-.6 3.32.22 5.72-.48 9-.3.35-.25.8-.4 1.5-.3.85-.25.78.42 1.5.3.52.2.93-.3 1.2-.3v.3c.05.06.5 0 .6 0 1.2.14 1.5-.33 2.4-.3.7.1 1.12.47 2.1.3.85.25.78-.43 1.5-.3h4.8c1.46-.14 3.5.3 4.5-.3.38 0 .4.38.9.3.56-.24 1.1-.5 1.8-.6.9.42 1.6-.14 2.7-.3h3.6c.88-.27.92-.27 1.8 0 .72-.58 2.4-.2 3.6-.3.43-.47 1.53-.27 2.4-.3.05-.35.47-.33.9-.3.57.06.66-.34 1.2-.3.95.05 1-.8 2.1-.6.73-.27 1.3-.7 2.4-.6.2-.4.64-.56 1.2-.6.3-.8 1.2-1 1.5-1.8.38-.13.6-.4.6-.9.7.1.33-.87.9-.9-.18-1.28.2-2 .3-3" class="checkbox"/></svg>