<svg xmlns="http://www.w3.org/2000/svg" viewBox="0 0 91.23053 77.958267"><defs><clipPath id="a"><path d="M0 58.47h68.423V0H0v58.47z"/></clipPath></defs><g clip-path="url(#a)" transform="matrix(1.33333 0 0 -1.33333 0 77.958)"><path d="M64.103 12.742c-.213-.106-.43-.21-.48-.48-.106-.213-.21-.43-.48-.48.04-.278-.053-.427-.24-.48-.106-.213-.21-.43-.48-.48.02-.34.04-.68-.24-.72-.07-.49-.65-.47-.72-.96-.983.103-1.538-.222-2.16-.48-1.462.182-2.178-.383-3.6-.24-.68-.04-1-.44-1.68-.48-.107.35-.21-.024-.48 0-.734-.174-.707.414-1.44.24-.734.173-.875-.245-1.44-.24-1.82-.1-4.076.236-5.52-.24-.557-.076-.922.04-1.2.24-.43.03-.507-.294-.96-.24-.38-.02-.916.116-.96-.24-.648.472-2.098.143-3.12.24h-9.6c-.55-.25-1.448-.152-1.92-.48-.58-.098-.522.44-1.2.24-.756.115-.94-.34-1.44-.48h-.72c-.046.273-.24.133-.24 0-.35.13-1.24-.28-1.2.24-.655.175-.484-.476-.96-.48h-1.44c-.423-.058-.548-.412-.48-.96-.85-.13-.59.85-1.44.72-.554-.326-1.34-.42-1.2-1.44-.346.055-.084.717-.48.72-.04.28-.438.203-.72.24-.323-.158-.448-.512-.48-.96.272-.046.133-.24 0-.24.038-.28-.053-.427-.24-.48-.1-.578.438-.52.24-1.2-.477-.003-.306-.655-.96-.48-.238.642-.495 1.266-.48 2.16-.41-.01-.622.18-.72.48-1.123.243-.798-.962-1.92-.72.174.734-.415.706-.24 1.44-.127.194-.25.39-.24.72.038.28-.053.428-.24.48.074.566.833.447.72 1.2-.17.397.22.924 0 1.44-.047.11-.244-.024-.24.24.005.43.266.507.24.96-.266 1.015-.277 2.284-.24 3.6-.102.46-.087 1.033-.72.96.102.458.685.434.48 1.2-.197.764-.154 1.768-.48 2.4v1.44c-.035.194-.255.24-.24.48-.002-.03.23.09.24.24.004.08-.004.16 0 .24-.033.447-.158.803-.48.96-.1.58.438.522.24 1.2-.266 1.015-.277 2.284-.24 3.6-.175.547-.215 1.226-.48 1.68.105.826-.095 1.345-.24 1.92.348.107-.025.21 0 .48v.96c-.08.56-.29.992-.48 1.44v1.44c-.034.447-.16.802-.48.96-.006.566.413.707.24 1.44-.252.55-.153 1.448-.48 1.92-.102.502.164.636.24.96-.277.284-.272.848-.24 1.44.178.74-.66.46-.48 1.2.427.176.034.437 0 .72.126.194.25.39.24.72-.406.955-.19 2.532-.24 3.84.28.04.202.438.24.72.233.007.186.294.24.48.565-.005.706.414 1.44.24.387-.067.412.227.72.24.278-.04.426.053.48.24.192-.126.39-.25.72-.24.387-.067.413.227.72.24.278-.038.427.053.48.24.68-.25 1-.25 1.68 0 .637.003 1.37-.09 1.68.24h1.92c.578-.097.52.44 1.2.24.28-.04.427.053.48.24.28-.038.427.053.48.24h.96c.28-.04.427.054.48.24.348.132 1.24-.28 1.2.24.31-.33 1.042-.237 1.68-.24.5-.1.635.165.96.24.387.078.413-.24.72-.24.2 0 .38.254.72.24.496-.02.64-.072.96-.24.306.333 1.132.148 1.44.48.578.098.52-.438 1.2-.24h1.68c-.118.146.19.303.24.24.013-.016-.016-.238 0-.24.217-.034.5-.01.72 0 .36.017.822.195 1.2.24.507.06 1.81.253 2.4 0 .11-.046-.023-.24.24-.24.597-.002 1.05.43 1.92.24.194-.042.24-.245.48-.24.167.003.273.202.48.24.247.046.972.098 1.2 0 .107-.046-.02-.23.24-.24.303-.01.102.18.24.24.354.152.44-.295.72-.24.034.007.043.228.24.24.64.04 1.324-.03 1.92 0 .733.174.705-.413 1.44-.24.78-.14 1.116.163 1.68.24 3.728-.047 7.366-.006 10.8.24.244-.315.235-.884.48-1.2.74.18.46-.66 1.2-.48-.182-.875-.766.024-1.68-.24.076-.564.38-.9.24-1.68.174-.734-.415-.706-.24-1.44.237-.722.177-1.742.96-1.92-.202-.278-.317-.643-.24-1.2.426-.176.034-.436 0-.72.127-.192.25-.39.24-.72.26-.06.162-.477.48-.48-.555-.674-.075-1.85 0-2.64.53-.5 1.03.38 1.92.24.07-.63-.93-.188-.72-.96a1.21 1.21 0 0 1-.72-.72v-1.2c.032-.447.157-.802.48-.96-.04-.28.053-.426.24-.48.204.044.226-.094.24-.24-.04-.28.053-.427.24-.48.044-.204-.094-.226-.24-.24.1-.5-.165-.635-.24-.96.045-.194.24-.24.24-.48-.04-.28.053-.427.24-.48.13-.348-.28-1.24.24-1.2.068-.388-.227-.413-.24-.72-.068-.387.227-.413.24-.72-.288-.672-.264-1.656-.24-2.64-.2-.678.338-.62.24-1.2v-2.88c.077-.563.38-.9.24-1.68-.01-.41.177-.62.48-.72.098-.578-.438-.52-.24-1.2.206-.193.142-.657.48-.72.02-.38-.116-.916.24-.96v-1.2c.085-.315.42-.378.48-.72.01-.73-.507-.933-.72-1.44-.175-.654.477-.483.48-.96-.296-.104-.493-.306-.48-.72-.042-.52.85-.11 1.2-.24.074.326.6.2.96.24-.06-.26-.477-.163-.48-.48m4.32-2.64c.01.73-.507.934-.72 1.44.314.004.305.666 0 .72-.028-.292-.072-.568-.48-.48-.453.348-1.064.536-.96 1.44.355.125.604.356.96.48.05-.27.266-.373.48-.48.037-.282-.042-.68.24-.72.04.36-.086.886.24.96.013.413-.185.616-.48.72-.054.455.27.53.24.96-.58.1-.523-.438-1.2-.24.2.278.316.644.24 1.2-.387-.102-.806.895-.24.96.396-.004.134-.666.48-.72.057.342.395.405.48.72.018.418-.054.746-.24.96-.01.078.012.162 0 .24-.047.292-.27.147-.48 0-.014.307-.308.333-.24.72.756-.274.584.377.96.48.147 1.108-.54 1.382-.48 2.4-.24 0-.286.194-.48.24-.284.037-.682-.04-.72.24.268.05.373.266.48.48.292.027.568.072.48.48-.01.33.112.527.24.72-.322.158-.447.513-.48.96.173.734-.246.875-.24 1.44-.1.58.438.522.24 1.2.076.557-.038.922-.24 1.2.076.325.34.46.24.96.07.632-.932.19-.72.96 0 .24-.194.286-.24.48v1.2c-.147.014-.284.036-.24.24.186.054.278.2.24.48-.076.325-.342.458-.24.96.248.632.287 1.473.24 2.4-.072.49-.65.47-.72.96.85.027-.51.794.24.72.098.58-.438.522-.24 1.2-.198.678.338.622.24 1.2-.187.054-.28.2-.24.48-.014.307-.31.332-.24.72-.104.457-.518.604-.48 1.2.074.324.34.458.24.96 0 .24-.195.286-.24.48-.025.27.35.374 0 .48v1.92c-.318.003-.22.42-.48.48v.48c-.187.054-.474.007-.48.24.292.028.568.073.48.48-.28.04-.26.38-.24.72-.23.49-.49.95-.72 1.44.186.054.278.2.24.48.187.053.278.202.24.48.094.238-.177.166-.24.24-.114.135-.143.344-.24.48-.028.04-.202-.03-.24 0-.07.057.04.393 0 .48-.015.03-.212-.022-.24 0-.08.065.06.394 0 .48-.396.004-.135.666-.48.72-.125.356-.356.605-.48.96.192.833-.358.923-.24 1.68-.546.176-.72.723-.96 1.2h-2.88c-.454-.054-.53.27-.96.24-.927-.047-1.77-.008-2.4.24-.454.054-.53-.27-.96-.24-.325.076-.46.342-.96.24-.9-.186-2.036.26-2.64 0-.14-.06.06-.24-.24-.24.07 0-.145.216-.24.24-.147.037-.33-.012-.48 0-1.192.1-2.336.103-3.36 0-.436-.043-.543-.24-.96-.24-.265 0-.132.194-.24.24-.174.075-.53-.014-.72 0-1.417.106-3.784.22-4.8 0-.192-.04-.326-.24-.48-.24-.01 0 .01.227 0 .24-.042.05-.407-.01-.48 0-.952.136-1.384-.15-1.92-.24-.4.402-1.41.19-2.16.24-.454.054-.53-.27-.96-.24h-5.04c-.307-.013-.333-.307-.72-.24-.875.074-1.562-.038-2.16-.24-.24-.046-.29.252-.48.24-.01 0 .01-.225 0-.24-.065-.078-.394.06-.48 0h-1.68c-.454.055-.53-.27-.96-.24-.308.058-.332.25-.72.24-.01 0 .01-.227 0-.24-.16-.196-.982.15-1.2 0 0-.24-.195-.286-.24-.48.132 0 .272-.194 0-.24-.04.28-.38.26-.72.24h-1.2c-.284-.276-.85-.27-1.44-.24-.053-.187-.2-.278-.48-.24-.307-.013-.333-.307-.72-.24-1.528.088-2.454-.426-4.08-.24-.24 0-.286-.194-.48-.24-.318-.003-.22-.42-.48-.48-.063.337-.527.274-.72.48h-1.2c-.566.006-.707-.413-1.44-.24-.09-.225-.49-.422-.72-.48-.15-.037-.328.03-.48 0-.216-.424-.58-.7-.72-1.2-.307.014-.333.308-.72.24-.282-.36-.3-.98-.72-1.2-.454.054-.53-.27-.96-.24.116-.756-.737-.543-.48-1.44-.318-.003-.22-.42-.48-.48-.014-.147-.036-.284-.24-.24-.055-.186-.007-.473-.24-.48-.054-.454.27-.53.24-.96-.076-.324-.342-.458-.24-.96.075-.324.34-.458.24-.96.053-.454-.27-.53-.24-.96.52.04.108-.85.24-1.2.257-.622.583-1.177.48-2.16.282-.037.68.042.72-.24-.85-.027.51-.793-.24-.72.037-.24-.24-.285-.24-.48 0 .07.216-.145.24-.24.037-.15-.03-.327 0-.48-.004-.477-.655-.305-.48-.96.28-.04.26-.38.24-.72.3-.098.49-.31.48-.72.03-.59.036-1.156-.24-1.44.3-.098.49-.31.48-.72-.202-.278-.317-.643-.24-1.2-.054-.453.27-.53.24-.96v-1.44c.33-.31.237-1.042.24-1.68.33-.31.237-1.042.24-1.68.2-.278.316-.643.24-1.2-.047-.238.25-.29.24-.48 0-.01-.227.012-.24 0-.08-.064.06-.393 0-.48.52.04.108-.85.24-1.2.376-.42.24-.926 0-1.2.517-.202.387-1.052.72-1.44-.054-.308-.255-.33-.24-.72.007-.205.157-.33.24-.48.1-.183.112-.33.24-.48-.302-.098-.49-.31-.48-.72.146-.014.284-.035.24-.24.186-.053.473-.006.48-.24.337-.062.273-.526.48-.72-.014-.146-.036-.283-.24-.24-.188-.052-.28-.2-.24-.48.186-.053.28-.2.24-.48-.318-.002-.22-.42-.48-.48.145-.574.344-1.095.24-1.92.23-.49.49-.95.72-1.44-.524.044-.764-.196-.72-.72.012-.307.307-.332.24-.72.057-.343.395-.404.48-.72-.202-.278-.317-.643-.24-1.2.33-.31.237-1.043.24-1.68.373-.062.166-.526 0-.72h.72c-.01-.33.112-.526.24-.72-.378-.022-.833.032-.72-.48-.032-.59-.037-1.156.24-1.44-.423-.057-.547-.413-.48-.96.24-.32.227-.892.72-.96.208-.35.36-.76.96-.72 1.1.062 1.16.256 2.16 0 .31.33 1.042.238 1.68.24.246-.553.826-.774.72-1.68.306-.013.332-.307.72-.24v-.96c1.23-.19 1.574.506 2.64.48.002-.317.42-.22.48-.48-.014-.412.184-.615.48-.72.044.356.58.22.96.24h1.2c.306.013.332.308.72.24 1.366-.166 1.993.407 3.36.24.448.19.878.4 1.44.48 2.66-.18 4.578.382 7.2.24.278.202.643.317 1.2.24.678.198.62-.338 1.2-.24.418-.158.745.24.96.24.008 0-.01-.227 0-.24.04-.05.407.01.48 0 .953-.115 1.21.26 1.92.24.563-.076.9-.38 1.68-.24.678-.2.62.34 1.2.24h3.84c1.17.11 2.81-.25 3.6.24.306-.013.332-.307.72-.24.448.192.88.4 1.44.48.727-.34 1.285.107 2.16.24h2.88c.702.216.737.216 1.44 0 .58.46 1.928.152 2.88.24.348.37 1.228.212 1.92.24.04.28.38.26.72.24.453-.053.53.27.96.24.76-.04.8.638 1.68.48.586.214 1.04.56 1.92.48.157.323.512.447.96.48.248.632.952.81 1.2 1.44.302.1.49.31.48.72.553-.073.266.694.72.72-.142 1.022.172 1.588.24 2.4" fill="#ffbc00" fill-rule="evenodd"/></g></svg>