<svg xmlns="http://www.w3.org/2000/svg" viewBox="0 0 394.95843 405.33332"><path fill="#fec600" fill-rule="evenodd" d="M394.72 32c.97 4.07-1.36 4.86-1.33 8-.6 1.2-1.18 2.4-2.68 2.67.22 1.55-.3 2.37-1.33 2.66v8c-3.4.17-5.18 1.94-5.34 5.34-2.35 1.2-4.13 2.98-5.34 5.33-2.77.78-4.3 2.8-6.66 4-1.45.33-.9 2.65-2.67 2.67-.22 1.56-2.44 1.12-4 1.33-.88 3.57-3.83 5.07-5.34 8-1.64.58-2.74 1.7-2.67 4-1.2.6-2.4 1.17-2.68 2.67-1.92.74-3.25 2.08-4 4-1.97.7-3.36 1.97-5.33 2.66-1.07 2.5-2.24 4.9-2.68 8-3.14.42-2.48 4.63-6.66 4-1.2 2.35-2.98 4.13-5.34 5.34-1.2 2.35-2.98 4.13-5.33 5.33-1.2 2.35-3 4.13-5.34 5.33.22 4.22-3.55 4.46-2.67 9.34-1.76.47-2.1 2.34-4 2.66-.04 1.3-1.64 1.04-2.68 1.34.25 1.13-.52 1.25-1.33 1.33-.1 3.9-3.06 4.95-5.34 6.67-.9 3.1-4.43 3.57-5.34 6.66-3.1.9-3.57 4.43-6.66 5.34.96 4.07-2.7 2.86-2.67 6-2.3 1.7-5.25 3.42-5.34 7.33-1.55 1.12-2.24 3.1-5.34 2.67-.4 3.14-4.63 2.48-4 6.66-2.7.4-2.6 3.6-5.33 4 0 2.23-2 2.45-2 4.67-1.76.47-.1 4.35-2 4.67-2.16-.38-2.3 1.26-4 1.33-.03 2.65-3.65 1.7-2.68 5.33-1.92.75-3.25 2.08-4 4-2.1 3.23-4.76 5.9-8 8 .17 2.4-1.63 2.82-1.33 5.34-1.65.58-2.75 1.7-2.68 4-2.64 0-1.7 3.64-5.33 2.66-1.76.48-2.1 2.35-4 2.67v6.67c-1.98.7-3.37 1.97-5.34 2.66.97 3.64-2.65 2.7-2.67 5.34-.7 1.97-1.98 3.36-2.68 5.33-1.64.58-2.73 1.7-2.66 4-2.93 1.5-4.43 4.46-8 5.33-1.1 3.34-3.66 5.24-4 9.34-1.2 1.03-1.68 3.43-4 3.33.38 1.17-1.82.87-1.34 2 .26.6 1.4-.15 1.34 1.33-.04 1.1-1.9 2.15-1.34 4-3.4 1.5-3.83 3.28-6.66 5.34.77 4.32-3.58 6.2-4 9.33-3.52.93-2.82 6.07-6.67 6.67-1.7 2.74-2.14 6.76-6.68 6.66 0 2-.76 2.5-1.33 4-.5 1.3.26 2.6-1.34 2.67-.6 1.2-1.17 2.38-2.67 2.67.2 1.55-.3 2.37-1.34 2.66-1.07 4.63-2.02 2.46-2.67 6.67-1.08.7-.84 4.06-2.68 4 .38 2.15-1.92-1.7-2 0 .2 3.32-1.42 2.8-2 5.33-4.98 1.43-1.13 2.03-5.33 2.67-4.7 1.08-3.43 8.14-9.34 8 .17 2.4-1.63 2.8-1.34 5.33-1.64.6-2.73 1.7-2.66 4-3.94 1.85-5.4 6.16-9.34 8-.22 3.78-4.44 2.9-4.66 6.67-3.04.97-4.8 3.86-7.34 5.33-2.9-.22-2.6 4.07-3.33 6-4.54 1.7-5.65 5.48-7.34 10-1.2 1.04-3 1.44-5.34 1.34.76 1.35-1.18.97-1.33 1.33-.3.65.4 2.1 0 2.67-.58.75-2.04.65-2.68 1.33-.2.23.23 1.1 0 1.33-.22.23-1.1-.22-1.33 0-.23.23.2 1.1 0 1.34-.23.22-1.08-.18-1.34 0-.75.5.2 1.25-1.34 1.33-.44.02-.88-.02-1.33 0-.4 2.72-3.62 2.6-4 5.33-1.2.6-2.4 1.17-2.68 2.67-1.55-.22-2.37.3-2.66 1.33-3.34-1.1-5.9-.98-10-1.33-2.67 1.33-3.72 1.18-8.67.67-.38-2.74-3.57-2-5.34-3.34-1.08-.25-1.33-1.33-2.67-1.33-1.56.22-2.38-.3-2.68-1.33-3.1-.43-5.1.2-6.66 1.33-3.9-.1-4.95-3.05-6.67-5.33-2.78-.78-4.32-2.8-6.68-4-.18-2.5-.87-4.46-2.66-5.34.1-1.9.22-3.77-1.34-4 0-3.54.5-7.6-1.33-9.33v-9.33c-1.13-3.77-1.56-8.23-2.68-12-1.4-3.05-.84-8.05-2.66-10.67v-13.33c.54-3.22-2.44-2.9-1.34-6.67-1.5-3.4-3.27-6.5-5.33-9.33v-8c.72-1.94-1.57-6.9 1.32-6.67-2.63-3.15-2.63-8.92-4-13.33-.25-1.08-1.33-1.33-1.33-2.67.2-1.55-.3-2.37-1.34-2.67-.2-2.48-.88-4.45-2.67-5.33.7-1.07 1.38-2.16 1.32-4-.7-1.07-1.4-2.16-1.33-4-.43-3.13-2.12-5-1.34-9.33C9.33 250.27 7.9 244.6 5.4 240c.37-2.15-1.27-2.3-1.34-4 .1-1.9.22-3.78-1.34-4-1.36-1.75-1.3-4.92-2.66-6.67.16-3.84-.73-8.72 1.33-10.66.96-4.08-1.37-4.86-1.34-8 1.45-.33.9-2.65 2.66-2.67.26-1.08 1.34-1.33 1.34-2.67 1.92-.74 3.25-2.08 4-4 2.72-.4 2.6-3.6 5.33-4 1.9-.74 4.58.6 5.32-1.33 3.9-.35 2.77.35 6.67 0 7-.78 10.1 2.35 17.32 1.33.04 1.3 1.64 1.04 2.67 1.34.03 1.3 1.62 1.03 2.66 1.33 2.4-.17 2.8 1.63 5.33 1.33.9 3.1 4.42 3.57 5.32 6.67 2.35 1.2 2.2 4.9 5.34 5.33-1.1 3.77 1.88 3.46 1.33 6.67 1.65 2.8-.13 6.35 2.66 8-.43 3.13 1.9 3.67 2.66 8 .2 2.48.88 4.46 2.67 5.33.18 2.5.87 4.46 2.66 5.34 0 3.54-.5 7.6 1.33 9.33.1 1.9.2 3.78-1.34 4 .7 1.07 1.4 2.16 1.33 4-.2 3.32 2.1 4.13 2.66 6.67-.15 7.26 2.03 12.2 4 17.33v8c.57 2.54 2.87 3.35 2.66 6.67 1.98.7 3.37 1.97 5.34 2.66 3.58.92 2.58-2.75 4-4 .74-1.92 2.08-3.25 4-4-.97-3.64 2.65-2.68 2.66-5.33 1.76-.47 2.1-2.35 4-2.67.44-3.1 1.6-5.5 2.67-8 2.8-1.18 3.93-4.06 8-4 1.06-2.5 2.22-4.88 2.66-8 3.1-.9 3.57-4.43 6.66-5.33.67-5.55 4.67-7.78 5.34-13.33 2.5-1.93 5.9-2.98 5.33-8 1.7-1.85 6.3-.82 8-2.67 1.84-2.15 1.12-6.87 4-8-.64-4.2 3.58-3.52 4-6.67.7-1.07 1.38-2.16 1.32-4 1.45-.33.9-2.65 2.67-2.66 1.18-2.37 3.7-3.4 2.66-8 1.75-.48 2.1-2.35 4-2.67.33-1.45 2.65-.9 2.66-2.67 3.1-.9 3.57-4.43 6.67-5.33.56-2.54 2.86-3.35 2.66-6.67 1.92-.74 3.25-2.08 4-4 1.92-.74 3.25-2.08 4-4 1.3-.03 1.03-1.63 1.33-2.66.24-1.08 1.33-1.33 1.32-2.67 5.7-3.65 9-9.68 14.67-13.33 1.63-2.8 3.68-5.2 5.32-8 1.76-.48 2.1-2.35 4-2.67 1.15-1.08.8-3.65 2.67-4 0-2.67 2-3.33 2-6 1.54-1.12 1.57-3.76 4.66-3.33 1.2-2.35 2.98-4.13 5.33-5.34-1-4.1 3.65-2.56 2.66-6.66 3.64.97 2.68-2.65 5.33-2.67 1.74-.47 2.1-2.35 4-2.67.44-4.44 5.85-3.9 4.66-10 1.75-1.36 2.9-3.3 4.66-4.66 3.64.97 2.7-2.65 5.34-2.67 2.94-1.06 1.73-6.27 5.33-6.67 1.06-2.5 2.22-4.88 2.66-8 1.2-.6 2.38-1.17 2.66-2.66 1.55.2 2.38-.3 2.67-1.34 2.7-.4 2.6-3.6 5.32-4 .26-6.86 7.27-6.95 6.67-14.66 2.35-1.2 3.88-3.22 6.66-4 1.16-1.96 2-4.23 5.33-4 1.35-1.76 1.3-4.92 2.66-6.67 1.77-1.34 4.96-1.26 5.33-4 2.74-.37 1.25-4.97 4-5.33v-8c.44-4.45 5.2-1.25 4-7.34 4.07-.96 3.52-3.3 6.66-3.33 3.57-.87 5.07-3.82 8-5.33-.2-4.2 3.42-4.58 6.66-5.34 2.06-2.83 3.84-5.94 5.34-9.33 3.34.23 4.17-2.05 5.33-4 3.05.72 3.22 1.03 8 1.33 2.08.14 5.37-.1 8 0 .2 1.57 2.42 1.13 4 1.34.2 1.56 2.42 1.12 4 1.33.58 1.2 1.16 2.4 2.66 2.67.33 1.44 2.65.9 2.66 2.66 1.2.6 2.4 1.17 2.67 2.67 1.54-.22 2.36.3 2.66 1.33 5.88.34 7.02 5.42 12 6.67.57 2.54 2.87 3.35 2.66 6.67 2.52 1.93 6.93 1.96 8 5.33"/></svg>