<svg xmlns="http://www.w3.org/2000/svg" viewBox="0 0 63.149948 63.15"><path fill="#ffc400" fill-rule="evenodd" d="M10.518 7.843s-.534.473-.518.863c.012.31.316.83.216 1.15-.11.35.165.712.23 1.045.07.354.513.953.513.953.167.437.72.935 1.267 1.478.157.126-.112.748.317.53.385.21.123.422.422.634.246.272.492.522.74.526.064.106-.002.212.104.317-.1.14.048.164.107.106.243.25.49.13.74.528.207.28.42.388.633.423.168.422.61.845 1.055 1.268.28.21.387.424.422.635-.112.2.177.094.317.317l.317.315c-.1.14.047.166.106.107l.634.634c-.248.095.325.668.422.422.175.2.352.092.53.317-.113.175.175.35.316.527.202.175.09.352.315.53.386.326.774.437 1.163.95-.003.03.143.542.317.527.01 0 .1-.11.105-.104.19.158.34.362.53.527.474.352.52.703.63 1.055.282.212.565.31.847.424l1.583 1.583c.198-.107.08.103.21.212.107-.1.212.046.32.105.208.386.526.774.737 1.16l.74.742c-.108.156.103.313.212.21l.316.317c.4.246.127.493.527.74.2-.108.082.105.212.212.066.104 0 .21.105.317.126.06.253.15.38.236-.01.003-.016.01-.024.01-.43.25-.16.496-.317.74-.21.282-.425.39-.634.424-.202.142-.08.282-.21.422-.106.066-.212 0-.317.105-.21.212.152.423-.212.634-.14-.104-.28.108-.422.213-.106.066-.21 0-.316.105-.247-.34-.493.66-.74.317-.252.247-.13.493-.528.74-.14-.107-.28.105-.422.21l-.317.316c-.102.07-.217-.004-.317.108.013-.013.062.14 0 .21-.024.028-.094.074-.105.107-.026.07.125.26.105.317-.032.085-.168.128-.21.21-.212-.362-.423.575-.634.212l-.634.634c.25.28-.327.388-.422.422l-.528.527c-.442.318-.387.634-.527.95-.353.345-.705.35-1.056.846-.232.023-.257.11-.318.315-.02.07.125.262.105.318-.033.085-.17.13-.212.21-.317.283-.632.25-.95.53-.45.283-.247.564-.633.844-.354.132-.705.572-1.056.634-.387.21-.126.425-.424.634.11.204-.176.093-.315.317-.267-.11-.208.18-.317.317l-.845.844c-.106.14-.212.165-.317.105-.013.177-.126.356-.317.53-.178.01-.35.128-.526.317-.184.196-.11.338-.317.527-.247.28-.493.162-.74.317-.246.033-.492.288-.738.318-.265.493-.66.985-.847 1.478-.177.205-.35.095-.527.317-.013.177-.125.354-.317.53-.248.4-.494.127-.74.526-.14.157-.283.316-.424.21-.14.106-.165.213-.105.317-.246.4 0 .265-.246.664-.14.16.302.336.302.336-.052.07.538.615.486.632l.928.252.888-.19.567.144.7-.18.707-.073c.437-.167.935-.717 1.478-1.265.124-.157.745.112.527-.317.21-.386.422-.123.634-.422.273-.247.525-.494.53-.74.105-.066.21 0 .316-.106.14.1.164-.046.105-.105.25-.244.132-.492.53-.74.28-.208.387-.422.422-.633.422-.168.843-.61 1.266-1.056.21-.28.423-.387.634-.422.2.113.094-.176.317-.317l.316-.317c.14.1.164-.048.105-.107l.635-.632c.095.25.67-.326.422-.423.202-.175.093-.35.317-.527.175.112.353-.176.53-.317.174-.2.35-.092.526-.317.327-.385.44-.772.95-1.16.03.002.546-.143.53-.317-.002-.012-.113-.102-.107-.108.158-.19.364-.34.53-.528.35-.475.702-.522 1.055-.633.21-.28.307-.562.422-.843l1.584-1.585c-.107-.2.1-.082.21-.212-.1-.106.05-.21.108-.315.385-.21.773-.53 1.16-.74l.74-.74c.156.108.314-.102.21-.21l.318-.317c.246-.398.492-.128.74-.53-.11-.198.102-.078.21-.21.103-.064.21 0 .316-.106.012-.024.034-.05.047-.074.007.013.01.025.02.038.16.14.32.28.213.42.273.248.523.494.527.74l.95.95c.012.176.124.352.318.528.142-.088.282.137.423 0 .082.152.104.435.212.634.068.126.237.196.315.317.068.103 0 .21.107.317.35.174.703.426 1.056.844.545.81 1.486 1.62 1.794 2.43.316.464.634.27.95.738l.528.528c-.048.14-.096.28 0 .422.104-.1.21.05.317.108.07-.11.142-.06.212 0 .176.158.35.45.527.315.177.158.353.453.53.317.14.158.28.317.422.212.2.14.083.28.212.42.162.18.263.1.422.213.402.424.578.913 1.16 1.372.035.028.173.215.213.21.01-.002.097-.11.104-.105.086.07.006.216.107.317.085.085.226-.016.316.105.297.21.036.422.424.633.385-.248.122.325.422.422-.25.21.326.422.422.634.278.03.386.14.42.42.3.21.038.424.426.635-.162.21-.06.422.21.634-.16.208-.06.42.21.633-.006.176.228.35.106.527l1.056 1.058c-.148.28.424.562.212.844.274.245.523.49.527.74.247.276.494.157.74.316.21.182.423.282.634.212.246.397.492.274.74.527.21.363.42.002.633.212.175-.187.353-.196.53-.108.244-.276.49-.526.738-.527.297-.354.244-.706.422-1.056.366-.353.082-.706 0-1.057.256-.353-.205-.705 0-1.056-.006-.177.224-.354.105-.53.088-.14-.14-.282 0-.42-.327-.424-.375-.847-.844-1.27-.28-.212-.387-.42-.422-.633-.177-.01-.355-.123-.53-.315.107-.14-.1-.285-.21-.425.107-.14-.103-.282-.21-.42-.186-.248.077-.494-.106-.74-.317-.155-.636-.193-.95-.53-.34-.317-.377-.632-.53-.948-.19-.19-.333-.11-.527-.317-.164-.175-.113-.257-.21-.422-.46-.26-.917-.634-1.374-.95-.528-.45-.74-.48-1.057-1.057-.214-.366-.424-.004-.634-.21-.177-.205-.352-.096-.528-.318l-.634-.634c.246-.096-.328-.67-.422-.422-.3-.21-.035-.423-.422-.634.362-.212-.575-.42-.212-.632-.283-.385-.562.083-.844-.424l-.74-.74c-.248-.427-.495-.16-.74-.315-.21-.387-.422-.122-.633-.42-.543-.424-.47-.848-1.056-1.27.245-.21-.33-.422-.424-.63-.204-.177-.095-.354-.316-.53l-1.478-1.478c-.264-.458-.598-.915-.74-1.373l-.42-.425c-.107-.14-.214-.164-.318-.105-.224-.22-.173-.437-.43-.655l.257-.257c.14-.2.28-.08.423-.21.14-.158.28-.317.422-.212.246-.272.492-.525.74-.53l.95-.948c.174-.01.352-.123.528-.316-.088-.14.138-.282 0-.422.153-.082.435-.105.634-.212.126-.068.195-.24.315-.317.103-.067.212 0 .317-.104.173-.35.427-.703.845-1.056.81-.546 1.62-1.49 2.43-1.797.464-.316.27-.63.738-.95l.53-.528c.14.05.28.096.42 0-.1-.104.047-.21.106-.317-.11-.07-.06-.14 0-.21.157-.176.45-.353.316-.53.158-.175.453-.35.317-.526.158-.14.317-.283.212-.424.14-.2.28-.08.42-.21.18-.162.098-.262.21-.422.426-.402.915-.58 1.374-1.162.027-.035.216-.17.21-.21 0-.01-.11-.1-.104-.107.07-.087.216-.004.317-.105.085-.085-.016-.228.105-.317.21-.298.423-.035.634-.423-.248-.385.325-.122.422-.42.21.247.422-.33.634-.425.032-.278.14-.387.422-.422.21-.298.423-.035.634-.422.21.162.422.058.634-.212.21.16.42.062.632-.21.176.008.35-.228.53-.106l1.055-1.056c.28.148.564-.42.845-.21.246-.274.492-.525.74-.53.277-.245.158-.492.316-.738.183-.21.28-.423.21-.634.398-.246.277-.49.53-.74.363-.21 0-.42.21-.633-.186-.175-.194-.35-.106-.527-.275-.245-.527-.49-.53-.74-.352-.296-.704-.245-1.054-.423-.352-.366-.705-.08-1.056 0-.353-.256-.705.205-1.056 0-.177.007-.352-.223-.527-.105-.14-.088-.283.14-.422 0-.424.327-.846.375-1.268.844-.213.28-.423.39-.634.424-.01.177-.125.353-.317.527-.14-.105-.283.105-.422.212-.14-.105-.283.103-.422.21-.246.185-.492-.076-.74.107-.153.318-.192.636-.528.95-.317.34-.635.376-.95.528-.192.19-.112.335-.318.53-.175.163-.256.11-.422.21-.26.457-.633.914-.95 1.372-.45.527-.48.74-1.056 1.056-.367.213-.003.423-.21.634-.204.176-.095.352-.317.528l-.633.632c-.096-.245-.67.33-.422.424-.21.3-.423.035-.634.422-.21-.36-.423.574-.633.21-.386.284.085.565-.422.846l-.74.74c-.427.246-.16.493-.316.738-.388.21-.124.423-.423.634-.422.542-.846.47-1.268 1.056-.212-.247-.425.327-.635.422-.176.204-.35.095-.526.317l-1.48 1.48c-.46.265-.917.6-1.374.74l-.422.42c-.14.107-.164.213-.105.318-.248.253-.493.13-.74.527-.06.097-.123.158-.184.21-.16-.223-.305-.448-.383-.67-.248-.43-.495-.16-.74-.318-.28-.21-.388-.422-.42-.632-.143-.2-.283-.082-.423-.212-.066-.106-.002-.21-.107-.317-.21-.21-.42.153-.632-.212.106-.14-.106-.28-.21-.422-.067-.106 0-.21-.106-.317.34-.247-.66-.493-.317-.74-.248-.25-.494-.127-.74-.525.106-.14-.106-.284-.21-.424l-.318-.315c-.072-.1.006-.217-.106-.316.013.013-.143.06-.212 0-.028-.025-.072-.097-.105-.107-.07-.027-.262.127-.317.107-.086-.033-.13-.17-.212-.212.362-.212-.573-.424-.21-.634l-.634-.634c-.28.248-.388-.327-.422-.422l-.53-.527c-.317-.442-.633-.388-.95-.53-.344-.352-.346-.704-.844-1.055-.022-.23-.11-.255-.316-.317-.07-.02-.262.126-.317.105-.086-.032-.13-.168-.21-.21-.282-.317-.248-.634-.53-.95-.282-.452-.563-.25-.843-.634-.132-.354-.572-.705-.634-1.056-.21-.388-.425-.125-.634-.422-.204.11-.094-.178-.317-.317.11-.27-.18-.21-.317-.318l-.844-.844c-.14-.106-.167-.212-.107-.317-.177-.012-.354-.124-.528-.316-.01-.18-.128-.352-.317-.53-.196-.183-.34-.11-.53-.316-.28-.247-.16-.493-.316-.74-.033-.246-.288-.492-.318-.738-.493-.264-.985-.656-1.478-.844-.205-.177-.095-.353-.317-.53-.177-.012-.352-.124-.527-.316-.4-.247-.13-.493-.528-.74-.16-.14-.316-.28-.21-.42-.106-.14-.213-.168-.317-.108-.4-.247-.13-.493-.53-.738-.158-.14-.602.06-.496-.08-.53-.125-.498.13-.564.424-.06.273-.43.74-.438.715z"/></svg>