<svg xmlns:dc="http://purl.org/dc/elements/1.1/" xmlns:cc="http://creativecommons.org/ns#" xmlns:rdf="http://www.w3.org/1999/02/22-rdf-syntax-ns#" xmlns:svg="http://www.w3.org/2000/svg" xmlns="http://www.w3.org/2000/svg" viewBox="0 0 228.73989 230.40498" version="1.1"><path id="path6498" style="fill:#f4c522;fill-opacity:1;fill-rule:evenodd;stroke:none" d="m 22.674962,179.18663 c -0.8725,0.26 -0.575,-2.345 -1.37125,-1.03 0.58875,0.0213 0.68625,2.22875 1.37125,1.03 m -6.515,-113.811251 c -0.265,0.075 -0.39625,0.28625 -0.34125,0.685 0.2675,-0.07625 0.39875,-0.2875 0.34125,-0.685 0.4825,-0.09 0.3925,-0.7525 0.6875,-1.03 0.43,-0.13875 0.69875,-0.44125 0.685,-1.0275 -1.45625,-0.31375 -1.46375,0.82125 -1.3725,2.0575 m -1.7125,3.08375 c 0.84375,0.53375 1.00875,-1.16375 0.34125,-1.0275 -0.01875,0.20875 -0.05,0.40625 -0.34125,0.3425 l 0,0.685 z m 13.0275,119.296251 c -1.06125,0.0575 -1.5425,-1.2075 -1.03,-1.71375 -0.225,-1.03375 -1.3175,-1.1975 -1.02875,-2.74125 -0.82125,-0.1375 0.19125,1.56 -1.02875,1.02625 -0.1975,-0.7175 -0.85,-0.97875 -0.685,-2.0575 -0.1925,-0.4925 -0.53375,-0.83375 -1.0275,-1.025 -0.18125,-0.51125 -0.50875,-0.86625 -0.68625,-1.3725 -0.79,0.10375 -0.38125,-0.9925 -1.0275,-1.03 -0.18,-0.5075 -0.5075,-0.86375 -0.6875,-1.37 -0.30875,-0.605 -0.7675,-1.0625 -1.36875,-1.3725 0.05375,-0.39875 -0.07625,-0.61125 -0.34375,-0.685 0.2775,-1.87875 -1.145,-2.05625 -1.02875,-3.77 -0.43625,0.075 -0.45,1.02125 0,1.02625 0.09625,0.5525 -0.3225,0.5925 -0.3425,1.02875 -0.98,0.0475 -0.42,-1.45 -1.03,-2.055 -0.2475,-1.04875 0.5925,-1.00875 0.3425,-2.0575 -0.305,-0.21125 -0.6125,-0.41375 -0.68375,0 -0.0125,0.335 -0.41875,0.265 -0.685,0.3425 -0.0125,-1.0375 -1.45125,-1.97625 0.3425,-2.0575 -0.29625,-0.275 -0.205,-0.93875 -0.6875,-1.03 -0.17875,-0.2725 -0.35625,-0.555 -0.34125,-1.025 -0.67875,-0.24 -0.91375,-0.91625 -1.0275,-1.715 -0.12375,0.0837 -0.59625,-0.1125 -0.6875,0 -0.01625,0.0187 0.015,0.3425 0,0.3425 -0.2725,0.0162 -0.34375,-0.40875 -0.685,-0.3425 0.01625,-0.58625 -0.255,-0.8875 -0.68625,-1.0275 0.03125,-0.4875 0.05625,-0.9725 -0.34125,-1.02875 0.165,-1.07875 -0.49,-1.34 -0.68625,-2.0575 -0.4949998,-0.0775 -0.11875,-1.025 -0.6862498,-1.0275 -0.18,-0.27625 -0.3575,-0.55875 -0.34125,-1.03 -0.19875,-0.7175 -0.85125,-0.9775 -0.68625,-2.05625 0.68875,-0.1175 1.07125,0.07 1.0275,0.68375 0.8762498,-0.0375 0.6812498,-1.1475 0.6862498,-2.05625 -0.7824998,-0.095 -1.2874998,0.085 -1.3712498,0.6875 -0.49375,-0.0787 -0.12,-1.02375 -0.68625,-1.02875 0.0975,-0.55375 -0.32375,-0.58875 -0.34375,-1.02875 -0.19625,-1.11375 0.235,-1.59625 0.34375,-2.39875 0.01625,-0.58875 -0.25375,-0.89 -0.685,-1.03 0.145,-0.71625 -0.23625,-0.90625 -0.3425,-1.37125 -1.04125,0.42375 0.3725,1.18 0,2.0575 -0.7925,0.10625 -0.38125,-0.99 -1.02875,-1.0275 0.0425,-0.6175 -0.42,-0.7225 -0.34375,-1.3725 0.4875,0.03 0.9725,0.0575 1.03125,-0.34125 0.16,-1.0775 -0.92375,-0.9075 -1.03125,-1.71625 l 0,-1.0275 c -0.05375,-0.39875 0.07625,-0.61 0.34375,-0.68625 0,-0.68 -0.935,-0.435 -0.68625,-1.36875 -1.0225,0.005 0.48625,2.5375 -1.02875,2.055 l 0,-3.42875 c 0.27625,-0.18 0.5575,-0.3575 1.02875,-0.34125 0.1525,0.4975 0.30125,-0.0362 0.68625,0 0.12625,-0.5825 -0.2675,-0.64625 -0.68625,-0.68375 -0.2775,-0.0662 -0.34125,-0.34625 -0.685,-0.34625 0.22875,-2.4 -0.44375,-3.8975 -0.68625,-5.82875 -0.90875,-0.10625 0.32,1.9225 -1.02875,1.37375 -0.22125,-0.83625 -0.6925001,-1.76375 0.68625,-1.715 -0.4725,-0.44125 -0.33875,-1.4875 -0.34125,-2.39875 -0.75875,-0.0413 -0.1475,-1.455 -0.345,-2.05875 -1.1087501,-0.42125 -0.2625,1.11125 -1.3700001,0.68625 -0.2225,-1.365 0.9075,-1.37625 0.685,-2.74125 -0.82125,-0.13625 0.19,1.56125 -1.02875,1.02875 -0.35375,-0.9025 -0.41,-2.10375 -0.34125,-3.4275 0.3725,-0.085 0.23125,-0.6825 0.685,-0.685 0.30625,-0.1525 0.61375,-0.3025 0.685,-0.6875 -0.1225,-0.3925 -0.60375,-0.8675 -0.685,-0.34125 -0.45,0.41 -0.54,0.13375 -1.02875003,0 -0.28875,-1.3125 -0.44875,-2.75375 -0.3425,-4.4575 1.34875003,-0.55 0.12,1.48125 1.02750003,1.37 l 0,2.05875 c 0.58375,0.12625 0.6475,-0.2675 0.68625,-0.68625 l 0,-1.3725 c 0.2575,-1.05375 -0.94,-0.6575 -0.68625,-1.7125 -0.05125,-0.85375 0.54,-1.0625 0.68625,-1.71375 0.03375,-1.40625 0.0675,-2.80875 -0.3425,-3.77125 0.07625,-0.32 -0.095,-0.71375 0,-1.03 0.035,-0.11625 0.3475,-0.4425 0.3425,-0.34125 0.0225,-0.61625 -0.4025,-0.72375 -0.3425,-1.37125 0.46,-0.22625 0.6375,-0.7325 0.685,-1.37 -0.0425,-0.61625 0.4200001,-0.72375 0.3437501,-1.3725 0.3375,-0.805 0.6,-1.685 0.68625,-2.7425 0.0425,-0.615 -0.42,-0.7225 -0.345,-1.37125 -0.17875,-0.27625 -0.3575,-0.55625 -0.34125,-1.02875 -0.5825001,0.1275 -0.6475001,-0.2675 -0.6862501,-0.685 0.02375,-1.5325 0.7837501,-0.43625 1.3725001,-1.02875 -0.26625,-2.093751 0.4475,-3.207501 0.34125,-5.142501 -0.4225,0.15125 -0.70375,0.44 -0.68625,1.02875 0.06375,0.2925 -0.13375,0.32375 -0.34125,0.34375 0.24875,0.8 0.9375,2.925 -0.6862501,2.7425 -0.08625,-0.125 0.11125,-0.595 0,-0.68625 -0.02375,-0.02 -0.34,0.02125 -0.3425,0 -0.0125,-0.07625 -0.05125,-0.645 0,-0.68625 0.02,-0.015 0.34125,0.015 0.3425,0 0.02625,-0.6325 -0.0175,-1.05 0,-2.05625 0.3575,-0.785 0.21875,-2.0675 0.6862501,-2.7425 0.93,-0.245 -0.2475001,1.61625 0.68625,1.37125 0.465,-0.10625 0.28375,-0.85875 0.34125,-1.37125 0.2775,-0.18125 0.55625,-0.3575 1.02875,-0.3425 -0.2975,-0.85 -0.67125,-2.65875 0,-3.4275 0.24875,-1.04875 -0.59125,-1.00875 -0.34375,-2.0575 0.71375,-0.2 1.10875,-0.72 1.715,-1.0275 -0.3675,-1.28125 0.85125,-0.97875 0.6875,-2.0575 -0.08625,-0.43125 -0.6825,-0.34625 -0.6875,0 -0.40125,-0.055 -0.29,-0.625 -0.34375,-1.02875 l 0,-1.37125 c 0.25875,-1.11375 0.6225,-2.12125 1.03125,-3.085 0.96,0.595 0.32,0.89875 0.34125,2.05625 -0.12125,0.45 -0.60375,0.54 -0.6875,1.02875 l 0,1.37125 c 0.33375,-0.0088 0.26875,-0.42 0.34625,-0.685 0.28875,0.0625 0.3225,-0.13375 0.34125,-0.3425 -0.03,-0.4875 -0.0575,-0.97125 0.3425,-1.02875 0.26625,-0.7625 0.72,-1.3375 0.685,-2.4 0.37125,-0.08375 0.23125,-0.68125 0.68625,-0.685 0.065,-0.27875 0.34375,-0.3425 0.34375,-0.68625 0.645,-0.03875 0.2375,-1.1325 1.0274998,-1.02875 -0.2275,-1.2525 0.74125,-1.315 0.68625,-2.39875 0.925,-0.1025 0.6125,-1.4425 1.37,-1.715 -0.02875,-0.48625 -0.055,-0.97 0.3425,-1.0275 l 0,-2.4 c 0.96625,-0.06125 0.43,-1.62875 1.715,-1.37125 0.31375,-1.17125 0.51375,-2.45625 1.02875,-3.42875 l 0,-2.39875 c 0.435,-0.4775 1.67875,-0.15 1.71375,-1.02875 0.65375,-0.145 0.61875,-0.97875 1.715,-0.685 -0.14875,-0.53875 -1.07875,-0.2925 -0.6875,-1.37125 0.48625,-0.03 0.9725,-0.0575 1.03,0.3425 0.79,0.105 0.38,-0.99 1.02625,-1.02875 0.1925,-0.49375 0.53625,-0.83625 1.03,-1.0275 -0.045,-0.615 0.41875,-0.7225 0.3425,-1.3725 0.6975,-0.1 0.67125,-0.92625 1.37125,-1.0275 -0.23625,-0.92125 0.70875,-0.6625 1.02875,-1.02875 -0.2775,-1.64875 1.50375,-1.2375 1.02875,-3.085 1.02125,0.41 1.165,0.095 2.055,-0.3425 -0.2125,-0.3225 0.33125,-0.28375 0.345,-0.3425 0.04625,-0.2425 -0.60875,-0.8225 -0.345,-1.37125 0.33375,-0.01 0.2675,-0.42 0.345,-0.68625 0.29,0.06375 0.3225,-0.13375 0.34125,-0.342499 0.40375,-0.055 0.29,-0.625 0.3425,-1.02875 0.7,-0.1 0.6725,-0.927501 1.37125,-1.02875 -0.0675,-0.98125 -0.04375,-1.87 1.02875,-1.71375 0.0975,0.55375 -0.32375,0.59 -0.34375,1.03 0.79125,0.10375 0.38125,-0.99125 1.03,-1.03 0.36375,-0.32 0.10625,-1.26375 1.02875,-1.0275 0.5075,-0.15 -0.135,-0.43875 0,-1.03 0.44875,-0.41 0.53875,-0.1325 1.02875,0 0.60125,-0.31 0.565,-1.26125 1.36875,-1.37 0.31125,-0.605 0.76625,-1.06125 1.3725,-1.37125 0.2,-0.71375 0.72,-1.107501 1.02875,-1.71375 0.37125,-0.085 0.23125,-0.6825 0.685,-0.68625 0.18125,-0.275 0.35875,-0.55625 0.3425,-1.02875 0.8075,-0.105 0.63875,-1.19 1.715,-1.0275 0.0475,-0.63875 0.225,-1.14625 0.68375,-1.37125 0.14125,-0.82625 -0.625,-0.74625 -0.3425,-1.715 0.58375,-0.125 0.6475,0.26875 0.68625,0.68625 0.86,0.05875 1.07375,-0.52625 1.37125,-1.02875 0.3725,-0.085 0.2325,-0.68125 0.68625,-0.685 0.2775,-0.06625 0.34125,-0.34375 0.68625,-0.3425 -0.1225,-0.45125 -0.605,-0.54 -0.68625,-1.02875 l 0,-1.37125 c 0.33125,-0.01 0.26625,-0.42 0.3425,-0.685 l 0.685,0 c 0.335,-0.01 0.2675,-0.42 0.34375,-0.68625 0.29125,0.0625 0.3225,-0.13375 0.3425,-0.3425 0.275,-0.05 0.3425,-0.36375 0.685,-0.3425 -0.0425,-0.0038 0.13,0.33125 0.34375,0.3425 0.11375,0.005 0.22875,-0.005 0.3425,0 0.04375,-0.61625 -0.41875,-0.7225 -0.3425,-1.37125 0.5425,-0.02875 1.3075,0.165 1.37125,-0.34375 0.485,0.03 0.97125,0.0575 1.02875,-0.3425 0.5425,0.02875 1.30625,-0.165 1.37125,0.3425 0.4925,-0.19125 0.83625,-0.53375 1.0275,-1.0275 l 1.71375,0 c 0.335,-0.01 0.26625,-0.42 0.34125,-0.68625 0.29375,0.06375 0.325,-0.13375 0.345,-0.3425 0.30625,-0.1525 0.6125,-0.30125 0.685,-0.685 1.225,-0.1475 1.88125,-0.86125 2.4,-1.715 0.27625,0.065 0.34125,0.345 0.685,0.3425 0.605,-0.30875 1.06375,-0.76625 1.3725,-1.37125 l 1.37,0 c 0.3325,-0.0087 0.2675,-0.41875 0.345,-0.685 0.29,0.06375 0.3225,-0.13375 0.3425,-0.3425 0.4,-0.055 0.28625,-0.625 0.34125,-1.02875 l 1.3725,0 c 0.8825,-0.37375 1.645,-0.86625 2.05625,-1.71375 l 1.0275,0 c 0.80875,-0.105 0.63875,-1.191249 1.715,-1.028749 0.31,-0.60375 1.26125,-0.56625 1.37,-1.37125 0.39875,-0.055 0.61,0.07625 0.68625,0.3425 0.4925,-0.19125 0.83625,-0.53375 1.0275,-1.0275 1.0475,0.2475 1.25125,-0.35125 2.0575,-0.3425 0.4225,-0.15 0.70375,-0.43875 0.68625,-1.03 l 1.0275,0 c 0.60375,-0.30875 1.0625,-0.7662508 1.37125,-1.3700008 0.2925,-0.10625 0.7475,0.1325 1.02875,0 0.1575,-0.07375 0.215,-0.6275 0.3425,-0.68625 0.125,-0.05625 0.605,0.09875 0.68625,0 0.02375,-0.02875 -0.03,-0.33375 0,-0.3425 0.31875,-0.08625 0.70375,0.07 1.0275,0 0.65375,-0.14625 0.62,-0.98 1.7125,-0.685 0.05625,-0.4025 0.62625,-0.28875 1.03125,-0.3425 0.0125,-0.33375 0.41875,-0.26625 0.68375,-0.34375 0.085,-0.3725 0.6825,-0.2325 0.68625,-0.685 l 1.02875,0 c -0.24625,-0.93125 1.615,0.245 1.37125,-0.68625 l 1.7125,0 c 0.9475,-0.42375 1.74375,-1.00125 3.08625,-1.02875 0.655,-0.145 0.62,-0.97875 1.715,-0.685 0.41,-0.45 0.13375,-0.54 0,-1.02875 -0.09625,-0.55375 0.3225,-0.59 0.3425,-1.0275 0.73125,-0.16125 0.6525,0.48875 0.685,1.0275 0.55375,0.09625 0.59125,-0.32375 1.02875,-0.3425 1.025,-0.40375 -1.25375,-0.29625 -0.685,-1.37124997 l 1.71375,0 c 0.7,-0.10125 0.6725,-0.92750000214 1.37125,-1.02875 l 2.7425,0 c 0.825,-0.14 0.745,0.62625 1.7125,0.3425 0.717498,-0.145 0.909998,0.235 1.372498,0.34375 3.535,-0.2225 5.7725,0.85374997 9.255,0.68499997 1.6325,0.3125 3.1075,0.77875 5.14125,0.68625 0.555,-0.0975 0.59125,0.32375 1.03,0.3425 3.2675,-0.1825 5.35875,0.81125 8.57,0.68625 0.5525,-0.0975 0.58875,0.32375 1.0275,0.34125 l 2.7425,0 c 2.305,0.5525 4.75625,0.9575 7.54125,1.02875 0.555,-0.09625 0.5925,0.325 1.02875,0.34375 l 3.085,0 c 0.55375,-0.09625 0.59125,0.32375 1.03,0.3425 3.33625,-0.13875 5.6275,0.77 8.91125,0.685 0.80875,-0.00625 1.01125,0.59125 2.0575,0.34375 0.27625,0.18 0.555,0.3575 1.03,0.3425 0.39625,-0.05625 0.6075,0.07625 0.68375,0.3425 0.21875,0.04125 0.4725,-0.05375 0.68375,0 0.35125,0.0875 0.1675,0.2625 0.345,0.34375 0.12375,0.05625 0.6025,-0.1 0.68625,0 0.0275,0.0325 -0.0362,0.33 0,0.3425 0.59,0.205 1.24125,0.1875 2.05625,0.3425 0.0375,0.6475 1.1325,0.2375 1.02625,1.02875 1.085,-0.16875 1.21125,0.6175 2.4,0.3425 0.0125,0.3325 0.42125,0.265 0.6875,0.3425 0.23875,0.9037508 1.56125,0.7250008 1.715,1.7150008 0.71875,0.42125 1.33625,0.9475 2.05625,1.37 0,0.68125 0.93375,0.43625 0.685,1.37125 0.4925,0.192499 0.8375,0.534999 1.02875,1.028749 1.33,0.38375 1.75375,1.67375 3.085,2.05625 0,0.68125 0.935,0.43625 0.68625,1.3725 0.5075,0.1775 0.8625,0.50625 1.37,0.685 0.15,0.4225 0.43875,0.70375 1.0275,0.685 0.35625,0.9025 1.36,1.155 1.71625,2.0575 0.9675,-0.2825 0.88625,0.4825 1.71375,0.3425 0.1525,0.305 0.3,0.61375 0.685,0.685 0.085,0.3725 0.68125,0.23375 0.685,0.68625 1.055,-0.255 0.66,0.94125 1.71375,0.685 0.4225,0.72125 0.94875,1.3375 1.37125,2.0575 0.71625,-0.145 0.90875,0.235 1.37125,0.3425 0.085,0.3725 0.6825,0.2325 0.68625,0.685 0.97125,0.05875 1.4275,0.62875 2.4,0.6875 0.25,0.7775 1.03,1.02375 1.715,1.37 0.31,0.60375 1.25875,0.56625 1.37,1.37125 0.615,-0.04375 0.72125,0.42 1.37125,0.3425 0.44875,0.1225 0.54,0.60375 1.0275,0.68625 -0.145,1.74625 0.52875,2.6725 1.02875,3.77 0.82875,0.14125 0.745,-0.625 1.71625,-0.3425 -0.3,1.32625 0.83625,1.22 1.02625,2.0575 0.3725,0.085 0.2325,0.68125 0.68875,0.685 0.17875,0.27625 0.355,0.5575 0.34125,1.02875 0.30875,0.60375 0.76625,1.06125 1.37,1.37125 -0.09,1.00375 0.77375,1.0525 0.68625,2.0575 0.12,0.44875 0.6025,0.5375 0.68375,1.0275 0.335,0.01 0.26625,0.42 0.34375,0.685 0.29125,-0.0625 0.32375,0.13375 0.34125,0.34375 0.425,0.14875 0.7075,0.43875 0.6875,1.0275 0.4225,0.15 0.705,0.44 0.68625,1.02875 0.9875,0.15375 0.80875,1.475 1.71375,1.71375 -0.18625,1.21375 1.21375,0.84375 1.02875,2.0575 0.45,0.35 1.26375,0.335 1.71125,0.68625 -0.0438,0.61375 0.4225,0.7225 0.34625,1.37 0.37,0.085 0.22875,0.6825 0.685,0.68625 -0.16125,1.07625 0.9225,0.905 1.02625,1.71375 0.31,0.60625 0.82875,1.00125 1.03,1.71375 0.67625,0.2375 0.915,0.915 1.0275,1.71375 0.45125,0.1225 0.54,0.60375 1.03,0.68625 0.5525,-0.09625 0.58875,0.32375 1.02625,0.3425 l 0,1.37125 c 0.33,0.7 0.70125,1.35625 1.02875,2.05625 -0.0162,0.5875 0.255,0.8875 0.68625,1.02875 -0.03,0.48625 -0.055,0.97125 0.34125,1.02875 0.2975,0.27625 0.205,0.93875 0.6875,1.028749 0.18125,0.275001 0.35625,0.555001 0.34375,1.027501 0.4925,0.0775 0.11875,1.02375 0.68375,1.028749 0.15375,0.305001 0.30125,0.61375 0.68625,0.685 l 0,1.715001 c 0.0375,0.647499 1.13375,0.2375 1.02875,1.0275 0.12,0.451249 0.6025,0.54 0.68375,1.028749 0.35375,0.79125 1.18125,1.10625 1.03125,2.400001 0.30625,0.60625 0.82625,1.001249 1.02625,1.713749 0.31,0.606251 0.83,1.00125 1.02875,1.715 0.7175,0.9975 0.86625,2.56125 1.37375,3.770001 l 0,2.4 c -0.0587,0.39875 0.0725,0.60875 0.34125,0.68625 -0.0575,0.397499 0.0738,0.60875 0.3425,0.684999 -0.2075,0.821251 -0.4925,1.563751 -0.3425,2.742501 0.115,0.8 0.35125,1.476249 1.0275,1.713749 -0.05,0.850001 -0.0625,1.663751 0.68625,1.713751 -0.10875,0.795 0.055,1.316249 0.34375,1.713749 l 0,2.4 c -0.0437,0.615 0.41875,0.72375 0.3425,1.37125 0.4925,0.0775 0.12,1.0225 0.68375,1.0275 -0.0437,0.84625 -0.0513,1.652503 0.34125,2.057501 -0.23125,1.2525 -0.475,2.4925 -0.34125,4.11375 0.08,0.49375 1.02375,0.11875 1.03,0.68625 0.3725,0.085 0.23375,0.68125 0.685,0.68375 -0.33625,1.3775 -0.41875,3.00875 -0.3425,4.80125 -0.0513,0.85125 0.53875,1.06 0.685,1.71375 l 0,2.4 c -0.0975,0.55375 0.325,0.58875 0.34125,1.02625 0.0937,1.16375 -0.2625,2.78 0.34625,3.42875 0.2925,1.0925 -0.53875,1.06125 -0.6875,1.715 -0.25,0.93375 0.68125,0.69 0.6875,1.37125 -0.14,1.6225 0.61125,2.35875 0.3425,4.11375 0.24875,0.935 -0.6825,0.6875 -0.68875,1.37125 -0.095,0.5525 0.3275,0.59 0.34625,1.02875 0.25,0.935 -0.6825,0.68875 -0.6875,1.36875 -0.49375,0.08 -0.11875,1.02375 -0.685,1.03 -0.12375,1.02125 -0.545,1.73875 -1.03125,2.39875 -0.1375,0.8275 0.62875,0.745 0.34625,1.715 -0.4025,0.0538 -0.29125,0.62375 -0.34625,1.02625 -0.39875,0.0588 -0.28625,0.6275 -0.34125,1.03 -0.39625,-0.055 -0.6075,0.0775 -0.68375,0.34125 0.0625,0.295 -0.13375,0.32375 -0.3425,0.3425 l 0,1.37375 c -0.0312,0.48625 -0.0588,0.96875 0.3425,1.03 -0.2675,0.30375 -0.37,0.7725 -0.3425,1.36875 -0.18375,0.96125 -0.505,1.7825 -0.6875,2.74375 -0.4625,0.105 -0.2825,0.8575 -0.3425,1.36875 -0.4,0.055 -0.2875,0.625 -0.3425,1.03125 -0.805,0.11 -0.76625,1.05875 -1.3725,1.36875 l 0,2.0575 c -0.33125,0.01 -0.26375,0.42125 -0.34125,0.6875 -0.29,-0.0637 -0.325,0.1325 -0.34375,0.34125 -0.33375,0.009 -0.265,0.42 -0.3425,0.685 -0.2925,-0.0637 -0.3225,0.13375 -0.34125,0.34125 -0.265,0.30875 -0.37,0.7775 -0.3425,1.37375 -0.37375,0.0837 -0.2325,0.68125 -0.6875,0.68375 -0.0438,0.61625 0.41875,0.72375 0.3425,1.3725 -0.44875,0.12 -0.53625,0.6025 -1.02625,0.68375 -0.2975,0.2775 -0.2025,0.94 -0.685,1.03125 -0.32875,0.7 -0.7025,1.35625 -1.03,2.05625 -0.145,0.7175 0.235,0.90625 0.34125,1.3725 -0.0838,1.16875 -0.865,1.645 -0.68375,3.08375 -0.46,0.22375 -0.63875,0.735 -0.68625,1.37125 -0.795,0.23 -0.91875,1.13875 -1.71375,1.36875 0.14125,1.63125 -1.16875,1.8025 -1.02875,3.42875 -0.78875,-0.1025 -0.38125,0.9925 -1.0275,1.03 0.14,0.82625 -0.62625,0.745 -0.3425,1.71375 -0.79125,-0.105 -0.3825,0.99 -1.03,1.02875 -0.26625,0.30375 -0.36875,0.775 -0.34125,1.37125 -0.71875,0.425 -1.29125,0.9975 -1.715,1.7125 -1.21375,-0.18375 -0.84375,1.215 -2.0575,1.03 -0.0463,0.63875 -0.22375,1.145 -0.68375,1.37125 -0.4525,0.12 -0.53875,0.6025 -1.03,0.685 0.14,0.82625 -0.625,0.745 -0.3425,1.71375 -0.6,0.3125 -1.19125,0.63875 -1.0275,1.715 -0.60375,0.31 -1.0625,0.7675 -1.37125,1.37 -0.31,0.6075 -0.82875,1.0025 -1.03,1.71375 -0.49375,0.1925 -0.83625,0.53375 -1.0275,1.03 -0.9225,-0.2375 -0.66125,0.7075 -1.02875,1.0275 l -1.0275,0 c -0.30375,0.72625 -1.04375,1.01375 -1.03125,2.05625 -1.025,0.34375 -1.71375,1.03 -2.055,2.0575 -0.61375,-0.0437 -0.7225,0.41875 -1.37,0.3425 0.24625,1.0475 -0.5925,1.01 -0.345,2.05625 -0.5075,0.18125 -0.8625,0.51 -1.37,0.6875 0.24875,0.935 -0.68125,0.68875 -0.68625,1.36875 -0.7125,0.2025 -1.1075,0.72 -1.71375,1.03 -0.3325,0.007 -0.26625,0.41875 -0.3425,0.68375 -0.29125,-0.0612 -0.32375,0.135 -0.3425,0.34375 -0.58625,-0.0137 -0.8875,0.25375 -1.0275,0.6875 -0.72125,0.42125 -1.33625,0.9475 -2.0575,1.36875 -1.575,1.055 -2.5375,2.71875 -4.11375,3.7725 0.28375,0.9675 -0.48375,0.89 -0.34375,1.71375 -1.005,0.025 -1.2725,0.7825 -1.7125,1.3725 -0.605,0.30875 -1.06375,0.76625 -1.3725,1.3675 -0.935,-0.24875 -0.68875,0.6825 -1.37,0.68875 -0.68125,0.002 -0.4375,0.93375 -1.3725,0.68375 -0.14,0.8275 0.62625,0.74625 0.34375,1.715 -0.605,0.31 -1.0625,0.76625 -1.37125,1.3725 l -1.37125,0 c -0.30625,0.15 -0.61375,0.30125 -0.68625,0.685 -0.3975,-0.055 -0.61,0.075 -0.68625,0.3425 -1.0475,-0.24875 -1.0075,0.59125 -2.055,0.34125 -0.0962,0.7075 -1.2775,0.32375 -1.3725,1.03 -1.41,0.19 -2.21625,0.98375 -3.77125,1.0275 -0.645,0.4975 -1.78,0.50375 -2.05625,1.3725 -0.54375,0.0263 -1.30625,-0.165 -1.3725,0.34125 -0.305,0.26625 -0.77375,0.37 -1.36875,0.3425 -0.86,0.285 -1.3475,0.93875 -2.4,1.03125 -0.8375,0.3025 -1.4875,0.7975 -2.745,0.6825 -0.075,0.49375 -1.02,0.12125 -1.02625,0.68875 -0.61625,-0.0438 -0.72375,0.41875 -1.37125,0.3425 -0.605,0.30625 -1,0.8275 -1.71625,1.02625 -0.10625,0.80625 -1.05875,0.7675 -1.3675,1.3725 l -2.0575,0 c -0.27625,0.2925 -0.94,0.20375 -1.03,0.685 -0.48625,-0.0312 -0.96875,-0.055 -1.02625,0.3425 -0.54375,0.0288 -1.30875,-0.165 -1.3725,0.34375 -0.48875,-0.0288 -0.97125,-0.0575 -1.02875,0.34375 -3.4825,-0.055 -5.705,1.15 -8.9125,1.3675 -0.5525,-0.095 -0.58875,0.32625 -1.0275,0.34625 -0.085,0.37 -0.68125,0.22875 -0.6875,0.685 -0.405,-0.395 -1.21,-0.38875 -2.0575,-0.34375 -0.39625,-0.0575 -0.6075,0.0762 -0.68375,0.34375 -0.39875,-0.0538 -0.61125,0.0737 -0.68625,0.3425 -0.91125,0.002 -1.95625,-0.1275 -2.39875,0.3425 l -2.74375,0 c -0.5525,-0.0975 -0.58875,0.325 -1.0275,0.34125 l -2.7425,0 c -0.4875,-0.0275 -0.97125,-0.055 -1.0275,0.345 -0.805,-0.11 -1.2875,-0.54125 -2.4,-0.345 -2.46375,0.6225 -5.93125,0.24125 -8.9125,0.345 -0.39875,0.055 -0.61125,-0.0763 -0.68625,-0.345 -0.39875,0.0575 -0.61,-0.0738 -0.68625,-0.34125 -1.4025,0.1475 -2.19625,-0.3175 -3.085,-0.685 l -2.39875,0 c -1.004998,0.09 -1.053748,-0.775 -2.057498,-0.685 -0.43875,-0.47625 -1.6175,-0.21125 -2.0575,-0.6875 -1.87625,0.0488 -3.26,-0.39375 -4.79875,-0.685 -1.04625,-0.24875 -1.25,0.35 -2.05625,0.34375 -0.80625,-0.11 -1.2875,-0.5425 -2.4,-0.34375 -0.5875,0.015 -0.8875,-0.25375 -1.0275,-0.685 -0.4875,0.0288 -0.9725,0.055 -1.02875,-0.34375 l -1.71375,0 c -0.0775,-0.49375 -1.02375,-0.11875 -1.02875,-0.68625 l -1.715,0 c -0.935,0.25 -0.69,-0.68125 -1.3725,-0.68375 -0.6375,-0.0487 -1.14375,-0.22625 -1.36875,-0.6875 l -1.71375,0 c -0.0825,-0.6025 -0.59125,-0.78125 -1.3725,-0.68375 -0.10625,-0.46625 -0.8575,-0.28625 -1.37125,-0.34375 -0.0125,-0.33375 -0.42,-0.265 -0.685,-0.34125 -0.27625,-0.0663 -0.34125,-0.34625 -0.685,-0.3425 -0.305,-0.27 -0.775,-0.37 -1.3725,-0.345 -0.12,-0.44875 -0.60125,-0.54 -0.685,-1.02625 -0.91375,0.025 -1.365,-0.24625 -2.055,-0.68625 -0.07,-0.045 -0.28875,0.055 -0.345,0 -0.03875,-0.04 0.04625,-0.3225 0,-0.345 -0.4825,-0.23 -0.87625,-0.10125 -1.37,-0.3425 -0.17,-0.0813 0.035,-0.3225 -0.34375,-0.34125 -0.28,-0.0138 -0.33875,-0.38375 -0.68625,-0.3425 -0.2425,-0.9 -1.955,-0.32875 -2.055,-1.3725 -1.085,0.0575 -1.1475,-0.9125 -2.4025,-0.685 -0.295,-0.50125 -0.51125,-1.0875 -1.3675,-1.03 0.065,-0.4075 -0.51625,-0.16875 -0.68875,-0.34125 -0.0275,-0.03 0.03625,-0.3325 0,-0.3425 -0.3125,-0.0975 -0.7075,0.075 -1.02625,0 -0.51875,-0.85125 -1.17375,-1.56625 -2.40125,-1.71625 -0.19125,-0.49125 -0.535,-0.83375 -1.0275,-1.025 0.105,-0.7925 -0.99,-0.3825 -1.02875,-1.03125 -1.2925,0.265 -1.64,-0.41875 -2.74375,-0.34125 -0.08375,-0.3725 -0.68125,-0.23375 -0.68375,-0.68375 -0.27625,-0.185 -0.55625,-0.36 -1.02875,-0.3475 0.095,-0.78 -0.0825,-1.28625 -0.68625,-1.3675 -0.1775,-0.5075 -0.50625,-0.86625 -0.6825,-1.3725 l -1.37375,0 c -0.5575,-1.15625 -1.965,-1.4625 -2.05625,-3.08375 -0.305,-0.26875 -0.77375,-0.37 -1.37125,-0.345 0.125,-0.58125 -0.26625,-0.6475 -0.68625,-0.685 -0.26625,-0.30375 -0.36875,-0.775 -0.3425,-1.3725 -0.995,-0.26 -0.89,-1.62375 -2.39875,-1.36875 -0.06625,-0.28 -0.345,-0.3425 -0.34375,-0.6875 0.3325,-0.009 0.2675,-0.41875 0.34375,-0.685 -0.27625,-0.18125 -0.5575,-0.3575 -1.03,-0.3425 -0.39625,0.055 -0.60875,-0.0763 -0.685,-0.34125 -0.235,-1.1425 0.71,-0.55375 1.0275,-0.3425 0.09875,-0.5575 -0.32375,-0.5925 -0.3425,-1.03125 -0.0125,-0.33375 -0.41875,-0.265 -0.685,-0.34125 l 0,0.685 c -0.6,-0.3125 -1.19125,-0.63625 -1.03,-1.715 -1.0925,0.29625 -1.05875,-0.54 -1.7125,-0.68375 -1.05625,0.25375 -0.65875,-0.94125 -1.7125,-0.68625 0.13875,-0.82625 -0.6275,-0.745 -0.34375,-1.71375 -0.30625,-0.21125 -0.6125,-0.4125 -0.685,0 -0.555,0.095 -0.59,-0.32375 -1.02875,-0.3425 -0.28375,-0.97 0.4825,-0.89 0.3425,-1.715 -0.055,-0.4025 -0.62375,-0.29 -1.02875,-0.34125 l -1.02875,0 c -0.15,-0.42125 -0.43625,-0.70375 -1.03,-0.68875 0.3675,-1.2775 -0.85,-0.97375 -0.68375,-2.05625 -0.27625,-0.0625 -0.34125,-0.3425 -0.68625,-0.3425 0.1825,0.2775 0.35875,0.55625 0.345,1.03" class="circle" /></svg>
