<svg xmlns="http://www.w3.org/2000/svg" viewBox="0 0 228.73989 230.40498"><path fill="#f4c522" fill-rule="evenodd" d="M22.67 179.2c-.87.25-.57-2.36-1.37-1.04.6.02.7 2.23 1.37 1.03m-6.5-113.9c-.28 0-.4.2-.35.6.27-.1.4-.3.34-.7.48-.1.4-.8.7-1.1.42-.2.7-.5.67-1-1.45-.3-1.46.8-1.37 2m-1.7 3.1c.83.5 1-1.2.33-1.1-.1.2-.1.4-.4.3v.7zm13 119.3c-1.05 0-1.53-1.2-1.02-1.8-.22-1.1-1.3-1.2-1.02-2.8-.83-.2.2 1.5-1.03 1-.2-.7-.9-1-.7-2.1-.2-.5-.6-.8-1.1-1-.2-.5-.5-.9-.7-1.4-.8.1-.4-1-1.1-1-.2-.5-.5-.9-.7-1.4-.3-.6-.8-1.1-1.4-1.4 0-.4-.1-.6-.4-.7.3-1.9-1.1-2.1-1-3.8-.5.1-.5 1 0 1 .1.5-.3.6-.4 1-1 0-.5-1.5-1.1-2.1-.3-1 .6-1 .3-2.1-.3-.3-.6-.5-.7 0 0 .3-.5.2-.7.3 0-1.1-1.5-2 .3-2.1-.3-.3-.2-.9-.7-1-.2-.3-.4-.6-.3-1.1-.7-.2-.9-.9-1.1-1.7-.2.1-.6-.1-.7 0v.3c-.3 0-.4-.4-.7-.4 0-.6-.3-.9-.7-1 0-.5 0-1-.4-1 .1-1.1-.5-1.4-.7-2.1-.5-.1-.1-1-.7-1-.2-.3-.4-.6-.4-1-.2-.8-.9-1-.7-2.1.7-.1 1 0 1 .7.9-.1.7-1.2.7-2.1-.8-.1-1.3.1-1.4.7-.5-.1-.1-1-.7-1 .1-.6-.3-.6-.3-1.1-.2-1.1.2-1.6.3-2.4 0-.6-.3-.9-.7-1.1.1-.7-.2-.9-.3-1.3-1.1.4.3 1.1 0 2-.8.1-.4-1-1.1-1 0-.6-.4-.7-.4-1.4.5 0 1 0 1.1-.4.2-1.1-.9-.9-1-1.7v-1c-.1-.4 0-.6.3-.7 0-.7-1-.5-.7-1.4-1 0 .5 2.6-1 2.1v-3c.2-.2.5-.4 1-.3.2.5.3 0 .7 0 .1-.6-.3-.6-.7-.7-.3-.1-.3-.3-.7-.3.2-2.4-.4-3.9-.7-5.9-.9-.1.3 1.9-1 1.4-.2-.9-.7-1.8.7-1.7-.5-.5-.3-1.5-.3-2.4-.8-.1-.2-1.5-.4-2.1-1.1-.4-.3 1.1-1.4.7-.2-1.4.9-1.4.7-2.8-.8-.1.2 1.5-1 1-.4-.9-.4-2.1-.4-3.4.3-.1.2-.7.6-.7.3-.2.7-.3.7-.7-.1-.4-.6-.9-.7-.4-.4.4-.5.1-1 0-.3-1.3-.4-2.7-.3-4.5 1.3-.6.1 1.5 1 1.3v2c.5.1.6-.3.7-.7v-1.4c.2-1.1-1-.7-.7-1.7-.1-.9.5-1.1.7-1.8 0-1.4 0-2.8-.4-3.8.1-.3-.1-.7 0-1 0-.1.3-.5.3-.4 0-.6-.4-.8-.4-1.4.4-.2.6-.8.7-1.4-.1-.6.4-.7.3-1.4.3-.8.6-1.7.7-2.7 0-.6-.4-.7-.4-1.4-.2-.3-.3-.6-.3-1.1-.6.1-.7-.2-.7-.7 0-1.5.8-.4 1.4-1-.3-2.1.4-3.2.3-5.1-.4.2-.7.5-.7 1.1.1.3-.1.3-.4.3.3.8 1 2.9-.7 2.7 0-.1.2-.6 0-.7v-.7h.4v-2c.3-.8.2-2.1.7-2.8.9-.2-.3 1.7.62 1.4.5-.1.3-.8.4-1.4.3-.1.6-.3 1-.3-.3-.8-.7-2.6 0-3.4.24-1-.6-1-.36-2 .7-.2 1.1-.7 1.7-1.04-.4-1.25.9-.95.7-2-.1-.46-.7-.4-.7 0-.4-.1-.3-.65-.3-1.06V82c.2-1.1.6-2.1 1-3.1 1 .6.3.9.3 2.06-.1.47-.6.56-.7 1.05v1.4c.4 0 .3-.4.4-.7.3.1.4-.1.4-.3 0-.5 0-1 .4-1 .3-.8.7-1.3.7-2.4.4-.1.3-.7.7-.7.1-.3.4-.3.4-.7.7 0 .3-1.1 1-1-.2-1.3.7-1.3.7-2.4.9-.1.6-1.4 1.4-1.7 0-.5-.1-1 .3-1V69c1-.04.5-1.6 1.8-1.35.3-1.15.5-2.43 1.1-3.4v-2.4c.4-.47 1.63-.14 1.7-1.02.62-.14.6-.97 1.7-.7-.17-.52-1.1-.27-.7-1.35.5 0 1-.08 1.02.32.8.1.4-1 1-1 .2-.5.6-.84 1.1-1.03-.07-.6.4-.7.32-1.37.7-.1.7-.92 1.4-1.02-.25-.9.7-.65 1-1.02-.3-1.67 1.5-1.26 1-3.1 1.06.4 1.2.1 2.1-.35-.2-.3.3-.3.3-.3.1-.2-.6-.8-.3-1.3.36 0 .3-.4.37-.7.3.1.3-.1.3-.3.4 0 .3-.6.3-1 .7-.1.6-.9 1.3-1 0-1 0-1.9 1.1-1.7.1.6-.3.6-.3 1.1.8.1.4-1 1-1 .4-.3.1-1.2 1-1 .5-.1-.1-.4 0-1 .45-.4.5-.1 1 0 .6-.3.6-1.2 1.4-1.3.3-.6.74-1.1 1.34-1.4.2-.7.7-1.1 1-1.7.4-.1.26-.7.7-.7.2-.3.4-.5.36-1 .8-.1.7-1.2 1.7-1 .1-.6.3-1.1.7-1.4.2-.8-.6-.7-.3-1.7.6-.1.7.3.7.7.9.1 1.1-.5 1.4-1 .4-.1.2-.7.7-.7.22 0 .3-.3.7-.3-.2-.4-.68-.5-.7-1V28c.3 0 .2-.45.3-.7h.7c.3 0 .3-.4.3-.7.3.06.3-.14.35-.35.3 0 .3-.3.7-.3-.1 0 .1.36.3.37h.4c0-.6-.4-.77-.4-1.4.5-.05 1.3.15 1.3-.36.5 0 1 .05 1.1-.35.5 0 1.3-.2 1.3.3.5-.2.8-.5 1-1h2c.3 0 .3-.4.3-.6.3.1.4-.1.4-.3.3-.1.6-.3.7-.6 1.2-.1 1.9-.9 2.4-1.7.3.1.37.4.7.3.6-.3 1.06-.7 1.37-1.3H59c.3 0 .2-.4.3-.7.3.1.3-.1.3-.3.4-.1.3-.6.3-1h1.4c.9-.4 1.7-.8 2.1-1.7h1.05c.8-.1.65-1.2 1.7-1 .3-.6 1.3-.6 1.4-1.4.4 0 .6.1.7.4.5-.2.85-.5 1.04-1 1 .3 1.2-.3 2-.3.4-.1.7-.4.7-1h1c.6-.3 1.1-.8 1.4-1.4.3-.1.7.2 1 0 .2-.1.2-.6.3-.7.1 0 .6.1.7 0 0 0-.1-.3 0-.3.3-.1.7.1 1 0 .7-.2.6-1 1.7-.7 0-.4.6-.3 1-.3 0-.3.4-.3.7-.3.1-.4.7-.2.7-.7h1c-.2-.9 1.6.3 1.4-.7h2c.9-.4 1.7-1 3.1-1 .6-.1.6-1 1.7-.7.4-.4.1-.5 0-1-.1-.6.3-.6.3-1 .7-.2.6.5.7 1 .5.1.5-.4 1-.4 1-.4-1.3-.3-.7-1.4h2c.7-.1.6-.9 1.3-1H98c.9-.1.8.6 1.7.3.8-.1.9.3 1.4.4 3.6-.2 5.8.9 9.3.7 1.7.3 3.1.8 5.2.7.6-.1.6.3 1.1.3 3.3-.1 5.4.8 8.6.7.6-.1.6.3 1.1.4h2.7c2.3.6 4.8 1 7.6 1 .6-.1.6.3 1 .3h3.1c.6-.1.6.3 1.1.4 3.4-.1 5.6.8 8.9.7.8 0 1 .6 2.1.3.3.2.5.4 1 .4.4 0 .6.1.7.4.2.1.5 0 .7 0 .3.1.1.3.3.4.1.1.6-.1.7 0 .6.2 1.3.2 2.1.4.1.7 1.2.2 1.1 1 1.1-.2 1.3.6 2.4.4.1.3.5.2.7.3.3.9 1.6.7 1.7 1.7.8.4 1.4 1 2.1 1.4 0 .7 1 .5.7 1.4.5.2.9.6 1 1.1 1.4.4 1.8 1.7 3.1 2.1 0 .7 1 .5.7 1.4.5.2.9.5 1.4.7.1.4.4.7 1 .7.3.9 1.4 1.2 1.7 2.1 1-.3.9.5 1.7.3.2.3.3.6.7.7.1.4.7.2.7.7 1.1-.2.7 1 1.7.7.4.7 1 1.3 1.4 2.1.7-.1.9.3 1.4.4.1.4.7.3.7.7 1 .1 1.5.7 2.4.7.3.8 1.1 1 1.7 1.4.4.6 1.3.6 1.4 1.4.6 0 .8.5 1.4.4.5.2.5.6 1 .7-.1 1.8.6 2.7 1.1 3.8.8.1.7-.6 1.7-.3-.3 1.3.8 1.2 1 2.1.36 0 .2.6.67.6.2.3.34.6.33 1 .3.6.78 1.1 1.4 1.4-.1 1 .75 1.1.66 2.1.1.5.6.6.7 1.1.3 0 .27.4.35.7.3-.02.3.1.3.38.4.2.7.5.7 1.1.4.16.7.45.7 1.04 1 .1.8 1.5 1.7 1.7-.2 1.2 1.2.8 1.1 2.1.5.3 1.3.3 1.7.7 0 .6.4.7.4 1.3.3.1.2.7.7.7-.2 1.1.9.9 1 1.7.3.6.8 1 1 1.7.7.2.9.9 1 1.7.5.1.5.6 1 .7.6-.1.6.3 1.1.3v1c.3.7.7 1.37 1 2.07 0 .6.3.9.7 1 0 .5 0 1 .4 1.05.3.3.2.9.7 1 .2.3.4.6.4 1 .5 0 .1 1 .7 1 .1.3.3.6.7.7V71c0 .6 1.1.2 1 1 .1.4.6.5.7 1 .4.8 1.2 1.1 1 2.4.3.6.8 1 1 1.7.3.6.9 1 1.1 1.7.7 1 .8 2.5 1.3 3.7v2.4c0 .4.1.6.4.7 0 .4.1.6.4.7-.2.8-.4 1.5-.3 2.7.1.8.4 1.5 1.1 1.7 0 .8 0 1.6.7 1.7-.1.8.1 1.3.4 1.7v2c-.05.6.4.72.3 1.37.5.1.1 1.04.7 1.04 0 .9 0 1.7.4 2.1-.3 1.3-.5 2.5-.4 4.1 0 .5 1 .2 1 .7.4.1.2.7.7.7-.4 1.4-.4 3-.4 4.8 0 .9.53 1.1.7 1.8v2.4c-.1.6.3.6.33 1.08.1 1.16-.24 2.78.37 3.4.3 1.1-.6 1.08-.7 1.7-.3.96.7.7.7 1.4-.2 1.6.6 2.36.3 4.1.3.95-.6.7-.7 1.4 0 .54.4.58.4 1 .3.95-.6.7-.7 1.38-.4.1-.1 1.04-.6 1.04-.1 1-.57 1.8-1 2.4-.2.9.6.8.3 1.7-.4.1-.3.7-.3 1.1-.4.1-.3.7-.4 1.1-.4 0-.6.1-.7.4.1.3-.1.4-.3.4v1.4c-.1.5-.1 1 .3 1.1-.3.3-.4.8-.4 1.4-.2 1-.5 1.8-.7 2.8-.45.1-.3.9-.3 1.4-.4.1-.3.6-.3 1-.8.1-.75 1.1-1.4 1.4v2.1c-.3 0-.2.4-.3.7-.3-.1-.3.1-.3.4-.3 0-.3.4-.3.7-.3 0-.4.2-.4.4-.3.3-.4.8-.4 1.4-.3.1-.2.7-.7.7 0 .6.5.7.4 1.4-.4.1-.5.6-1 .7-.3.2-.2.9-.7 1l-1.03 2c-.1.7.2.9.4 1.4-.1 1.2-.9 1.7-.7 3.1-.5.3-.6.8-.7 1.4-.8.3-.9 1.2-1.7 1.4.1 1.6-1.2 1.8-1.1 3.4-.8-.1-.4 1-1 1 .1.8-.63.8-.35 1.7-.8-.1-.4 1-1.1 1.1-.2.3-.3.8-.3 1.4-.7.4-1.3 1-1.7 1.7-1.2-.2-.9 1.2-2.1 1 0 .6-.2 1.1-.6 1.3-.5.1-.54.6-1 .7.1.9-.6.8-.3 1.7-.6.3-1.2.7-1 1.7-.6.4-1.1.8-1.4 1.4-.3.6-.9 1-1.1 1.8-.5.2-.8.5-1 1-.9-.3-.67.7-1.04 1H199c-.3.7-1.1 1-1.07 2-1 .3-1.7 1-2.03 2.1-.6-.1-.7.4-1.38.3.2 1-.6 1-.36 2-.5.2-.9.5-1.4.7.26 1-.7.7-.7 1.4-.7.2-1.1.7-1.7 1.1-.32 0-.3.45-.33.7-.3-.05-.3.15-.3.36-.6 0-.9.24-1 .7-.72.4-1.34.9-2.06 1.35-1.6 1.1-2.6 2.7-4.18 3.8.3 1-.5.9-.4 1.7-1 .1-1.3.8-1.7 1.4-.6.3-1.1.8-1.4 1.4-.9-.2-.7.7-1.4.7s-.5.98-1.4.7c-.2.87.6.8.3 1.7-.6.3-1.1.8-1.4 1.4h-1.4c-.3.17-.6.3-.7.7-.4-.1-.6.08-.7.3-1.1-.2-1 .6-2.1.38-.1.7-1.3.3-1.4 1-1.4.2-2.2 1-3.8 1-.7.5-1.8.5-2.1 1.4-.6 0-1.3-.2-1.4.3-.3.2-.8.3-1.4.3-.9.3-1.4.9-2.4 1-.9.3-1.5.8-2.8.7-.1.5-1.1.1-1.1.7-.6-.1-.7.4-1.4.3-.6.3-1 .8-1.7 1-.1.8-1.1.8-1.4 1.4h-2.1c-.3.3-1 .2-1 .7-.5 0-1-.05-1.1.35-.5 0-1.3-.13-1.4.38-.5 0-1-.1-1 .3-3.5-.1-5.7 1.1-8.9 1.3-.6-.1-.6.3-1 .3-.1.4-.7.2-.7.7-.4-.4-1.2-.4-2.1-.3-.3-.1-.6 0-.6.3-.4-.1-.6.08-.7.3-.9 0-2-.1-2.4.3H124c-.55-.1-.6.4-1 .4h-3c-.5-.1-.97-.1-1.03.3-.8-.1-1.3-.5-2.4-.3-2.45.6-5.92.26-8.9.36-.4.1-.6 0-.7-.3-.4.1-.6-.1-.67-.3-1.4.1-2.2-.4-3.1-.7h-2.4c-1 .1-1.05-.8-2.05-.7-.44-.5-1.62-.2-2.06-.7-1.9.04-3.3-.4-4.8-.7-1.1-.2-1.3.4-2.1.4-.8-.1-1.3-.6-2.4-.4-.6 0-.9-.3-1-.7-.5 0-1 .04-1.1-.3h-1.7c-.1-.5-1-.1-1.1-.7h-1.7c-1 .2-.7-.7-1.4-.7-.7-.1-1.2-.2-1.4-.7h-1.7c-.1-.6-.6-.8-1.4-.7-.1-.4-.9-.27-1.4-.3 0-.37-.4-.3-.7-.4-.3 0-.4-.3-.7-.3-.3-.3-.8-.4-1.4-.4-.1-.5-.6-.5-.7-1-.9.07-1.4-.2-2.1-.7-.1 0-.3.1-.4 0-.1 0 0-.3 0-.3-.5-.23-.9-.1-1.4-.4-.2-.1 0-.3-.4-.3-.3 0-.3-.4-.7-.3-.3-.9-2-.3-2.1-1.4-1.1 0-1.2-.9-2.4-.7-.3-.5-.5-1.1-1.4-1 .1-.4-.5-.14-.7-.3 0 0 .1-.3 0-.3-.3-.1-.7.07-1 0-.5-.85-1.2-1.6-2.4-1.7-.2-.5-.5-.84-1-1 .1-.8-1-.4-1.1-1.1-1.3.28-1.6-.4-2.7-.33-.1-.4-.7-.26-.7-.7-.3-.2-.6-.4-1-.4.1-.8-.1-1.3-.7-1.4-.2-.5-.5-.9-.7-1.4H46c-.6-1.13-2-1.44-2.1-3.1-.3-.23-.78-.33-1.38-.3.1-.6-.3-.64-.7-.7-.27-.3-.38-.8-.35-1.4-1-.23-.9-1.6-2.4-1.34-.03-.3-.3-.35-.3-.7.37 0 .3-.4.4-.7-.28-.2-.57-.34-1.04-.33-.4.1-.6-.1-.7-.3-.24-1.2.7-.6 1-.4.1-.6-.3-.6-.33-1.07 0-.3-.42-.3-.7-.3v.7c-.6-.3-1.2-.6-1-1.7-1.1.3-1.05-.53-1.7-.7-1.05.3-.65-.9-1.7-.66.13-.84-.64-.76-.35-1.7-.3-.2-.6-.4-.7 0-.54.1-.58-.3-1-.35-.28-1 .5-.9.35-1.7-.07-.4-.64-.3-1.04-.36h-1c-.2-.4-.5-.7-1.08-.7.4-1.22-.83-.92-.66-2-.3-.1-.4-.4-.7-.4.2.3.35.6.3 1" class="circle"/></svg>