<svg xmlns="http://www.w3.org/2000/svg" class="section__edge--top" viewBox="0 0 840 20" preserveAspectRatio="none"><path d="M444 12l7 1 5-2h3l8-1 8 1h7l5-1h9l4 3 6-1 4 1h9l4-3 3 2 1-2 4 1h7l6 1v-2h1l3 2v-2l3 2 1-2 2 1h12l3 1 4-2 2 3h9l8-2 9 1h6l5-1h3l9 1h10l3-1 4 1 8-1h1l2 2 4-3 5 3 7-3h8l4 3 4-1 3 1 4-3 1 1h4l2-1 6 3 4-3 1 1h2l3 1h1l2-2 7 3 1-3 7 2 8-2v3-3l7 3 4-3v2l1-2 9 3 1-1 7-2 9 2v-1l5 1h5l8-2 8 2v1l7-1 3-2h7v1l4 1 9-1 4-1 6 10h6H0V10l13 2 9 1 5-2v1h4l6-2 9 3v-1h8l8 1 8-1 7 1 9-3 3 1h9l8 2v-1l9 1 4-3 9 1v-1l7 1 1 1h6l7 1 7-1v1h1l2-2h7l1 2h16l8-1 9-2 7 3h5l4-2 8-1 9 3 8-3 5 3 9-2h6l7 2 6-3h5l9 3 1-3h3l4 1 5 1h8l5-1 5 1 2-2 7 1 6 2 5-1 4-1h3l1 1 8-2 7 1h2l2-1h5v1l1-1v2l2-1 6 1 1-2 3 1h7l9 2 4-2h9l4-1 9 3 4-3h7z" fill="#dceff0"/></svg>