<svg xmlns="http://www.w3.org/2000/svg" viewBox="0 0 210 297"><g fill-rule="evenodd"><path d="M124.4 154.8s-.3 0-.3.2h-1.3-.2-.2-.4c-.4.2-.7.2-1 .2h-2.4-1c-.3-.2-.4-.2-.6 0-.2-.2-.4-.2-.7-.2h-.6c-.2 0-.4-.2-.4-.4h-.2v-.3-.5c.2 0 .3-.2.3-.4a2.8 2.8 0 0 0 0-.7v-.7c0-.3 0-.5-.2-.7v-.3s0-.2.2-.2v-.5-1-.2-.9-.3c0-.2.2-.3 0-.5v-.6a4 4 0 0 0 0-1v-.4-.4a1.5 1.5 0 0 0-.2-.5v-.6c0-.2.3-.2.3-.4 0 0 .2 0 .2-.2H117c.5 0 1 0 1.4-.2a.3.3 0 0 1 0-.2l.2-.3v-.6l.2-.6v-.2-.3c-.2 0-.4 0-.4-.3H116c-.2 0-.3-.2-.3-.2-.3 0-.4-.2-.5-.2v-.2l-.2-.2v-.2-.6-1.8c.2 0 .2 0 .2-.2 0 0 0-.2.2-.3v-.4h.3l.2-.2.3-.3h1.3c.2 0 .2 0 .2-.2h.2l.4-.2h.2c0-.2 0 0 .2-.2 0 0 0-.3.3-.3 0-.6 0-1.2-.3-1.6h-4.8a.3.3 0 0 1-.2.2c0-.2 0-.2 0 0h-.5-.3v.2h-.3v.2h-.2-.2v.3c-.2 0-.2 0-.3.2-.2.7 0 1.7 0 2.5l-.3.6v2.3c-.2 0-.2.2-.3.2 0 0-.2 0-.3.2h-.4H110.4h-.2s-.2 0-.3.2c0-.2-.2-.2-.3-.2h-.5s0 .3-.2.3a.4.4 0 0 1 0 .4v.6c-.2 0-.2.4-.2.6v.6c0 .2.4.2.6.3h.7s.2 0 .2.2h.5l.6.2s.2 0 .2.2h.2c0 .3 0 .4.2.4v.2c0 .2 0 .2.2.3v2.8l-.2 2.3v2.1c0 .3 0 .5.2.7v2.2c-.2 0-.2 0-.2.2 0 0 0 .2 0 0l-.4.6h-.6s-.4 0-.3.3h-.4c-.3 0-.2.3-.6.2 0-.2-.4 0-.4 0 0-.2 0-.3-.3-.3h-.4s0 .2-.2 0h-.3-2l-.2.2h-.2c-.3 0-.6 0-.7.2-.4 0-.7 0-1-.2h-.6c-.4-.2-1-.2-1.3-.3 0 0-.2-.2-.5-.2h-.5c-.2 0 0-.2-.3-.2h-.8c-.4 0-.4-.2-.7-.2H99h-.6s-.2-.2-.2 0a.7.7 0 0 0-.6-.2H97h-.3s-.2.3-.3 0c-.2.2 0-.2-.3-.2v-.3c0-.2 0-.2-.2-.2v-.2l.2-.2v-.2c.2-.2 0-.2 0-.4v-.2h-.2v-1.6-.7-.8-.2-.3l.2-.4V147l.2-.4v-.6-.3-.3V143.6l.2-.7v-.7-.2-1.2-.8-1.1c-.2-.2 0-.4 0-.4-.2-.3 0-.5 0-.7v-1-.2s0-.2.2-.3c0-.7 0-1.5-.2-2v-.3-.3l.2-1V132 130.5c.2 0 .2-.2.2-.3v-.3c.2-.2.3-.2.3-.4l.2-1.4c0-.2 0-.3-.2-.4v-.3-.3c-.2-.2 0-.2 0-.4v-.2h.3a1.6 1.6 0 0 0 .5-.3h4c.3-.2.5-.3.8-.3h.3a.3.3 0 0 1 .3-.2H105l.4.2h.6c.4 0 .8.2 1 0 .3 0 .6 0 1 .2h2.1c.4 0 .8 0 1.2.2h.3c.3 0 .4 0 .6.2H116c0-.2.3 0 .3-.2h.2c.2-.2.2 0 .3-.2a34 34 0 0 1 2 0H123.5v.2c.2 0 .2.2.3.2 0 0 0 .2.2.2 0 0 0 .2.2.2l.3 1.5v1l.2.3v.4c0 .5 0 1 .2 1.6v1.8c0 .2 0 .3.2.5v1.6c-.2 0-.2 0-.2.3v.2l-.2 4.4v4.1c0 .4-.3.5-.3.8 0 .4 0 .7.2 1v8.4" fill="#fff"/><path d="M126 165.3c-.2 0-.3 0-.4.3h-.2-1.2-.2-.2-.4c-.3.2-.6.2-.8.2-.4 0-.4-.2-.7 0h-1-.9s-.2 0-.2-.2h-2.5c-.3 0-.4-.2-.5-.4 0 0 0-.2-.2-.2-.2-.4 0-.4 0-.6l.2-.4a2.8 2.8 0 0 0 0-.7v-.8-1s-.2-.2 0-.2c0 0-.2-.3 0-.5-.2-.3-.2-.7-.2-1v-.3a.3.3 0 0 0 0-.2c.2 0 .2-.2.2-.4v-.3-.2-.2-1.1a4 4 0 0 0 0-1c-.2 0 0-.3 0-.4-.2 0 0 0 0-.2v-.2a1.5 1.5 0 0 0-.3-.5v-.7c0-.2.3-.2.3-.4s.3 0 .2-.3h.2c.4-.2 1-.2 1.4-.2h1.3a.3.3 0 0 1 0-.3.4.4 0 0 1 0-.3l.2-.7v-.6-.2-.4s-.2 0-.3-.2h-2.3c-.2 0-.2-.2-.3-.2l-.4-.2v-.2c0-.2 0-.2-.2-.3v-.2-.6c0-.2 0-.4.2-.5v-1.5c0-.3 0-.3.2-.4v-.4h.3l.2-.2h.2v-.3c.4 0 1 0 1.3-.2h.2c0-.2.2 0 .2-.2l.4-.2h.3c0-.2.2-.2.2-.2.2 0 0-.3.3-.3 0-.7 0-1.3-.3-1.7-.2 0-.4-.2-.7 0h-1-3.2a.3.3 0 0 1-.2.2h-.5s-.2 0-.3.2h-.3v.3h-.2c0 .2 0 .3-.2.3l-.3.3v3.2l-.3.7v1.5h-.2c0 .2-.2.2-.3.3h-1.1-.2c-.2 0-.3 0-.4.2h-.2c0-.2 0 0 0 0h-.5v.2a.4.4 0 0 1-.2.3v.5c-.2.2-.2.5-.2.7v.6c0 .2.5.2.6.3 0 .2.4 0 .6.2h.5c0 .2 0 .2.2.2h.6c0 .3.2.2.2.4h.3v.4h.2v.2c0 .2.2.2.2.3V157.3c0 .8-.2 1.5 0 2.4 0 .2-.3.3-.3.6v.7l.2.6v3.1c-.2 0 0 .2-.2.2l-.3.4h-.5s-.3 0-.3.2h-.4c-.3 0-.2.2-.6.2 0-.2-.3 0-.3-.2h-.5-.6-.4-2.1l-.2.2h-1.6-.3-.2v-.2h-1.4l-.6-.2h-.5c-.2 0 0-.2-.2-.2h-.3c-.2 0-.4 0-.6-.2H100.5h-.3s0-.2-.3 0c-.2 0-.3-.2-.3 0a.7.7 0 0 0-.5-.2h-.7-.3s-.2.3-.2 0c-.3 0-.2-.2-.4-.2v-.2s-.2 0-.2-.2v-.3-.3l.2-.3v-.4c-.2 0-.2 0-.2-.2V161v-.7-.7-.3-.2c0-.2 0-.3.2-.4v-1.4-1l.2-.3v-.3-1.8c0-.3 0-.5.2-.7v-.6-.3-.2-1-1l-.2-.6v-.5c0-.2.2-.3 0-.3v-.8-.7l.2-.3v-.3c0-.6.2-1.4 0-2v-.3-.3-.7c0-.5.3-1 .2-1.3V141v-.2l.2-.4s.2 0 .2-.2a10 10 0 0 0 0-1.4v-.4s0-.2-.2-.3v-.2-.4c.2 0 0-.2.2-.2h.2c.2 0 .3-.2.5-.3 0 0 0-.2 0 0h1.5s0-.2.2-.2h2.2l1-.2s.2 0 .2-.2a.3.3 0 0 1 .2 0H106.5c.4 0 .4.2.6.2h3.7l.4.2h.5c.3 0 .7 0 1 .2H113.7c.2 0 .3 0 .5.2h3.3c.2 0 .2 0 .3-.2h.3c.2-.2.3 0 .3-.2h6.4c.2 0 .2 0 .2.2v.2c.2 0 .2.2.3.2.2 0 0 .2.2.2 0 .5.2 1 .4 1.5-.2.4 0 .6 0 1v.7c0 .6 0 1.2.2 1.7v1.8l.2.5v1.8l-.2.3v6.4l-.2 2c0 .4-.2.4 0 .8-.2.4 0 .7 0 1v4c0 1 .2 2 0 2.8v1.5"/></g></svg>