<?xml version="1.0" encoding="UTF-8" standalone="no"?>
<!-- Created with Inkscape (http://www.inkscape.org/) -->

<svg
   xmlns:dc="http://purl.org/dc/elements/1.1/"
   xmlns:cc="http://creativecommons.org/ns#"
   xmlns:rdf="http://www.w3.org/1999/02/22-rdf-syntax-ns#"
   xmlns:svg="http://www.w3.org/2000/svg"
   xmlns="http://www.w3.org/2000/svg"
   xmlns:sodipodi="http://sodipodi.sourceforge.net/DTD/sodipodi-0.dtd"
   xmlns:inkscape="http://www.inkscape.org/namespaces/inkscape"
   id="svg5632"
   version="1.1"
   inkscape:version="0.91 r13725"
   width="599.72424"
   height="599.85797"
   viewBox="0 0 599.72426 599.85799"
   sodipodi:docname="T_globe_WEB.svg">
  <metadata
     id="metadata5638">
    <rdf:RDF>
      <cc:Work
         rdf:about="">
        <dc:format>image/svg+xml</dc:format>
        <dc:type
           rdf:resource="http://purl.org/dc/dcmitype/StillImage" />
        <dc:title></dc:title>
      </cc:Work>
    </rdf:RDF>
  </metadata>
  <defs
     id="defs5636" />
  <sodipodi:namedview
     pagecolor="#ffffff"
     bordercolor="#666666"
     borderopacity="1"
     objecttolerance="10"
     gridtolerance="10"
     guidetolerance="10"
     inkscape:pageopacity="0"
     inkscape:pageshadow="2"
     inkscape:window-width="1451"
     inkscape:window-height="971"
     id="namedview5634"
     showgrid="false"
     fit-margin-top="0"
     fit-margin-left="0"
     fit-margin-right="0"
     fit-margin-bottom="0"
     inkscape:zoom="1.5318248"
     inkscape:cx="179.20106"
     inkscape:cy="375.96265"
     inkscape:window-x="-6"
     inkscape:window-y="31"
     inkscape:window-maximized="0"
     inkscape:current-layer="svg5632" />
  <path class="globe" fill="#A0A0A0"
     d="m 284.72103,599.48691 c -63.60911,-3.1533 -124.87149,-26.8177 -174.46766,-67.39317 -14.080378,-11.5195 -29.236968,-26.549 -41.023898,-40.6801 -35.31537,-42.3388 -58.73545,-94.9964 -66.3390296,-149.1563 -2.26635,-16.1431 -2.89768,-25.5023 -2.890380001601,-42.8485 C 0.0070624,282.15694 0.6963024,271.96924 2.8831224,256.77744 10.562842,203.42654 32.913212,152.85184 67.365782,110.86524 85.144132,89.199136 106.75107,69.206436 129.59849,53.281836 169.47387,25.488836 216.59051,7.5523363 264.29114,2.0065363 279.63525,0.22263632 301.48795,-0.48251368 315.81786,0.34393632 365.56483,3.2131363 411.35201,17.158636 453.40324,42.248836 510.1062,76.081036 554.3397,127.92794 578.7104,189.12354 c 15.2407,38.2699 22.0143,77.069 20.895,119.6866 -1.7067,64.9875 -25.3953,128.639 -66.9245,179.8272 -12.6964,15.6494 -28.6183,31.5713 -44.2677,44.2677 -57.48639,46.63897 -129.71626,70.24907 -203.69217,66.58187 z m 35.43592,-12.6102 c 21.24998,-1.6444 40.1061,-5.0147 59.56554,-10.6465 73.06893,-21.14717 135.49431,-71.29357 172.35791,-138.45537 17.768,-32.3718 29.252,-68.3315 33.4488,-104.7381 1.4627,-12.6883 1.663,-16.8117 1.6509,-33.9895 -0.012,-17.5744 -0.2911,-22.5715 -2.0064,-35.9783 -10.0027,-78.1786 -51.8312,-148.7306 -115.94927,-195.571204 -41.15994,-30.0688 -89.38663,-48.567 -140.06305,-53.7235 -16.26815,-1.6553 -37.34709,-1.8862 -52.70382,-0.5773 -77.9217,6.6419 -147.61496,43.263 -198.552148,104.331604 -56.05069,67.1992 -77.9092696,157.1985 -59.12883,243.4537 8.52702,39.1632 25.61623,76.8529 49.54871,109.2783 24.15431,32.726 55.758748,60.6969 90.905328,80.4542 38.62574,21.71297 81.09231,34.05007 125.67121,36.50907 7.00742,0.3865 28.51024,0.1748 35.25512,-0.3471 z m -36.70149,-16.3112 c -29.60532,-1.846 -58.30029,-8.4049 -85.69706,-19.58807 -6.53088,-2.6659 -9.33667,-3.899 -9.16023,-4.0258 0.0663,-0.048 3.69526,0.051 8.06447,0.2193 4.36921,0.1681 8.12482,0.2363 8.3458,0.1515 0.22098,-0.085 1.92123,-2.8953 3.77836,-6.2456 1.85712,-3.3503 3.42061,-6.1494 3.47443,-6.2203 0.12217,-0.1607 5.9935,0.6171 6.19749,0.8211 0.082,0.082 0.55103,2.7214 1.04235,5.8654 0.49131,3.1439 1.03459,5.8036 1.20728,5.9104 0.17269,0.1067 3.17447,0.9016 6.67062,1.7664 l 6.35665,1.5723 2.80287,-2.5133 2.80287,-2.5134 16.45239,1.7274 c 9.04882,0.9501 16.4583,1.7382 16.46553,1.7513 0.007,0.013 0.4081,1.1631 0.89084,2.5552 l 0.87771,2.5311 10.23414,0 10.23414,0 5.88931,-3.4351 5.88932,-3.4351 5.26875,0 5.26874,0 0.19834,0.9944 c 0.10909,0.5469 0.31357,2.015 0.45441,3.2624 0.14084,1.2474 0.37296,2.3403 0.51581,2.4286 0.31338,0.1936 12.0964,1.6254 13.40471,1.6288 0.82282,0 1.00981,-0.2665 1.71969,-2.4706 l 0.79648,-2.473 5.28748,0.8495 5.28748,0.8495 2.82611,2.5477 2.82611,2.54767 13.28118,1.0673 c 7.30465,0.587 13.33823,1.1244 13.40791,1.1941 0.0697,0.07 -2.68417,0.8803 -6.11968,1.8013 -18.25643,4.8945 -35.96726,7.752 -55.24199,8.913 -6.8793,0.4144 -25.11166,0.3942 -32.00081,-0.035 z M 95.392842,478.12514 c -4.00286,-4.4992 -9.27571,-11.0007 -13.68132,-16.8692 -37.46908,-49.9106 -56.48774,-110.2041 -54.41696,-172.5141 0.42554,-12.8046 0.47749,-13.1704 2.38989,-16.8336 0.88816,-1.7013 3.91465,-6.2573 6.72553,-10.1246 8.79915,-12.106 9.52996,-13.9326 6.81037,-17.0222 -0.77233,-0.8774 -2.7656,-2.5121 -4.42949,-3.6326 -1.66388,-1.1206 -3.43083,-2.4714 -3.92655,-3.0018 l -0.90132,-0.9645 1.75897,-6.9343 c 9.55472,-37.6673 28.80123,-75.0122 54.63472,-106.0103 C 113.92064,95.943136 144.76253,71.282536 176.33972,55.467536 l 5.49709,-2.7531 8.32239,0.038 c 4.5773,0.021 9.21732,-0.103 10.31113,-0.2755 l 1.98875,-0.3136 -1.26557,0.9502 c -2.1612,1.6227 -6.12253,5.5334 -8.47672,8.3683 -2.4486,2.9486 -5.98692,7.8908 -5.98692,8.3624 0,0.1617 0.56694,-0.091 1.25987,-0.561 0.69292,-0.4702 2.29273,-1.0348 3.55513,-1.2547 2.79112,-0.486 11.73676,-0.5053 15.37357,-0.033 3.2266,0.419 3.86193,0.1555 6.77699,-2.8101 2.54122,-2.5853 5.02913,-5.7579 12.26174,-15.6361 5.77082,-7.8817 7.61463,-10.1289 8.30245,-10.119 0.77722,0.011 5.71712,4.4544 6.76272,6.0828 0.85283,1.3282 1.04636,1.9709 0.91205,3.0292 -0.23356,1.8404 -1.15628,2.8878 -6.38973,7.2534 -7.07348,5.9005 -9.9675,9.8146 -12.11037,16.3791 -1.00217,3.07 -1.15731,4.5477 -0.45492,4.333 0.24859,-0.076 0.9738,-0.2281 1.61156,-0.3381 l 1.15958,-0.1999 0.10599,2.6094 0.10599,2.6094 22.08869,2.1953 c 23.63227,2.3487 34.24071,3.6902 34.02221,4.302 -0.0732,0.2051 -1.32042,3.7492 -2.77152,7.8759 l -2.63837,7.503004 -25.615,0 -25.615,0 2.29849,2.2985 c 2.50899,2.509 3.353,4.2523 2.78366,5.7498 -0.87233,2.2944 -4.05156,3.8237 -6.936,3.3363 -2.32819,-0.3933 -12.3442,-4.1123 -13.12555,-4.8736 -0.70493,-0.6868 -0.78305,-1.3415 -0.5551,-4.6526 0.12062,-1.7521 0.037,-2.0212 -0.87107,-2.8023 -1.52357,-1.3105 -3.15586,-1.1654 -4.53301,0.4032 -1.28569,1.4643 -1.96557,3.6076 -2.75222,8.6765 -0.92928,5.9879 -2.95341,9.2095 -6.60511,10.5126 -0.89824,0.3206 -3.25062,0.492 -6.96136,0.5073 -8.90607,0.037 -11.60322,0.5925 -15.62758,3.2196 -8.3971,5.4817 -28.9353,17.3718 -34.43767,19.937 -1.99706,0.931 -9.96567,4.28 -17.70803,7.4423 l -14.07702,5.7496 -9.968358,15.0699 c -7.77237,11.75 -10.20743,15.1752 -11.05356,15.5484 -0.97009,0.4278 -1.11841,0.7117 -1.3984,2.6771 l -0.31322,2.1985 -5.77621,2.5022 c -3.17691,1.3761 -5.83833,2.6014 -5.91426,2.7227 -0.0759,0.1212 2.70901,2.1177 6.18875,4.4365 7.10942,4.7376 6.76486,4.0976 3.99976,7.4292 -1.43537,1.7294 -4.22777,4.0045 -4.91505,4.0045 -1.42642,0 -15.23095,-13.4869 -14.52604,-14.1918 0.18427,-0.1843 2.42798,-1.586 4.98601,-3.1149 l 4.65097,-2.7797 1.51527,-2.8837 c 3.3055,-6.2904 4.64141,-12.6368 3.00462,-14.2736 -1.63449,-1.6345 -5.6163,-0.2078 -8.63331,3.0933 -4.92256,5.386 -10.39764,16.7655 -13.08939,27.2052 -1.27739,4.9542 -1.30042,6.7721 -0.17955,14.1772 l 0.84833,5.6047 -1.1831,1.3109 c -4.45741,4.9389 -5.91143,12.8696 -2.85307,15.5616 0.37548,0.3305 3.61158,1.5024 7.19133,2.6042 22.49762,6.9248 48.301358,17.2426 72.045478,28.8079 l 8.76705,4.2703 -0.23065,4.2895 c -0.32501,6.0444 0.007,8.2706 1.44378,9.6947 0.62715,0.6214 4.23187,2.9703 8.0105,5.2199 16.21589,9.6539 24.02926,15.632 26.3461,20.1575 0.88317,1.7251 0.76599,4.9647 -0.25897,7.1594 -1.77117,3.7925 -4.78522,6.1854 -12.32663,9.7859 -4.13049,1.9721 -5.0879,2.5861 -6.03815,3.8723 -2.0936,2.8338 -4.0082,7.5798 -8.27381,20.5096 -5.31668,16.1157 -6.84775,19.3657 -9.99116,21.2078 -3.45989,2.0276 -3.97779,2.0703 -8.37914,0.6904 -5.2701,-1.6524 -8.04078,-2.1354 -9.66968,-1.6856 -6.91393,1.909 -18.41513,17.5392 -29.030408,39.4525 -1.78229,3.6791 -3.68368,7.9518 -4.22532,9.4948 -0.95741,2.7273 -0.96844,2.848 -0.39646,4.339 0.78896,2.0568 6.04726,11.8879 14.455128,27.0259 3.81079,6.8612 6.97272,12.6376 7.0265,12.8365 0.0753,0.2785 -9.926198,5.9663 -10.491258,5.9663 -0.0693,0 -1.10321,-1.0984 -2.29751,-2.4408 z m 357.708428,-41.4021 c -0.12156,-1.243 -0.31256,-4.1312 -0.42443,-6.4183 l -0.20343,-4.1583 2.94505,-2.3294 c 1.61981,-1.2812 3.08227,-2.6643 3.24994,-3.0735 0.16767,-0.4093 1.37752,-5.3815 2.68854,-11.0495 1.31102,-5.6679 2.44291,-10.4832 2.51533,-10.7006 0.0934,-0.2803 0.77211,-0.2921 2.33433,-0.041 l 2.20266,0.3548 0,9.7439 0,9.744 -3.61591,4.6742 -3.61591,4.6741 0,5.4195 0,5.4195 -3.92756,0 -3.92757,0 -0.22104,-2.2599 z m 68.53983,-9.2715 c -2.3162,-0.8 -3.5804,-1.9213 -4.039,-3.5823 -0.3241,-1.1736 -0.1485,-2.0951 0.8409,-4.4122 0.1887,-0.4419 -0.9913,-0.8342 -6.3695,-2.1176 -3.6306,-0.8664 -9.3266,-2.2393 -12.6578,-3.0509 l -6.0567,-1.4757 0,-27.3794 0,-27.3793 -3.43507,-0.8282 c -1.88931,-0.4554 -3.43512,-0.9879 -3.43512,-1.1833 0,-0.1953 0.35747,-1.465 0.79435,-2.8215 0.87132,-2.7053 0.94758,-2.7478 3.54475,-1.9734 3.71959,1.1091 3.19829,1.3326 6.68129,-2.8642 3.002,-3.6172 3.1988,-3.7823 3.9344,-3.301 0.426,0.2787 1.6125,1.0221 2.6368,1.652 l 1.8624,1.1453 1.3662,5.5392 1.3662,5.5393 5.2156,0.8028 c 2.8686,0.4415 5.288,0.7303 5.3765,0.6418 0.089,-0.089 0.3565,-2.3362 0.5956,-4.9949 l 0.4347,-4.8341 5.5768,-0.1002 c 3.0673,-0.055 5.696,0.026 5.8417,0.1808 0.1457,0.1546 0.6273,3.1285 1.0703,6.6088 0.4429,3.4803 0.9058,6.4356 1.0285,6.5674 0.1227,0.1317 2.3686,0.6062 4.9908,1.0545 l 4.7677,0.815 8.8889,-3.3682 c 4.8889,-1.8525 8.9451,-3.3033 9.0137,-3.2241 0.069,0.079 0.7125,1.4573 1.4308,3.0623 l 1.3059,2.9181 -1.2409,4.6753 c -3.8608,14.5459 -10.0665,31.2378 -16.8745,45.3883 -2.5312,5.2612 -2.5458,5.2816 -4.8536,6.7989 -2.9775,1.9577 -9.9875,5.3195 -12.0871,5.7968 -2.4496,0.5568 -5.3806,0.4414 -7.5155,-0.2961 z m -172.78937,-9.41 c -1.50334,-0.6607 -1.93669,-1.7948 -1.94239,-5.0832 -0.003,-1.6959 -0.24942,-4.1189 -0.54774,-5.3843 -1.49582,-6.3454 -8.33188,-20.5779 -18.11499,-37.715 l -3.02738,-5.303 -0.005,-7.1719 c -0.005,-7.8726 -0.48323,-18.9564 -1.0964,-25.4321 -0.56298,-5.9456 -1.31865,-9.3179 -2.51186,-11.2094 -1.3375,-2.1202 -1.69202,-3.6662 -1.95934,-8.5447 -0.23093,-4.2143 -0.66186,-6.0979 -1.46565,-6.4063 -0.76311,-0.2928 -1.86759,-4.2265 -3.2643,-11.6259 -0.99031,-5.2464 -1.58313,-7.4685 -2.50813,-9.4014 -1.17883,-2.4633 -1.20622,-2.625 -1.0223,-6.0376 0.18786,-3.4856 0.1837,-3.5078 -0.69536,-3.7285 -0.59495,-0.1493 -1.82362,0.1889 -3.75459,1.0335 -1.57863,0.6904 -3.54396,1.4341 -4.36741,1.6525 -5.45644,1.4477 -19.28476,2.3136 -34.20362,2.1417 l -10.74729,-0.1238 -2.92832,-2.8928 c -4.14794,-4.0975 -26.93934,-27.7319 -31.65433,-32.8251 -2.16873,-2.3427 -4.20839,-4.7835 -4.53257,-5.4239 -0.44129,-0.8717 -0.79353,-4.0078 -1.4016,-12.4787 -0.44671,-6.2229 -0.75097,-11.3674 -0.67615,-11.4322 0.0748,-0.065 9.41084,-6.5447 20.74672,-14.3997 44.01101,-30.4969 39.77952,-27.4249 39.74146,-28.8519 -0.0185,-0.6918 -0.15852,-3.3839 -0.31125,-5.9824 l -0.27768,-4.7246 2.11919,-0.4565 c 1.16556,-0.2511 2.72939,-0.6128 3.47517,-0.8037 l 1.35596,-0.347 0,-7.5538 0,-7.5539 2.07915,-0.4191 c 5.45758,-1.1003 10.31851,-2.1475 10.40073,-2.2408 0.0501,-0.057 -0.0861,-1.7305 -0.30276,-3.7192 l -0.39386,-3.6159 -7.51878,-11.3036 c -4.13534,-6.2169 -7.51879,-11.4723 -7.51879,-11.6786 0,-0.2064 0.5416,-1.2216 1.20356,-2.2561 1.11696,-1.7457 1.39013,-1.9411 3.7967,-2.7155 1.87879,-0.6045 2.59033,-1.003 2.5829,-1.4463 -0.006,-0.3366 -0.96071,-4.842604 -2.12238,-10.013304 -1.16166,-5.1708 -2.00722,-9.5194 -1.87903,-9.6636 0.1282,-0.1442 10.56147,-5.8907 23.18505,-12.7702 l 22.95196,-12.5079 10.25445,-0.8556 c 9.8832,-0.8246 10.35119,-0.8981 12.92688,-2.03 1.46984,-0.6459 2.66799,-1.2671 2.66256,-1.3803 -0.005,-0.1132 -1.78826,-1.6703 -3.96184,-3.4602 l -3.95198,-3.2543 -0.0157,-3.7063 c -0.009,-2.0385 0.10638,-3.7083 0.25554,-3.7108 0.14916,0 2.12853,0.6891 4.3986,1.5367 l 4.12741,1.5413 1.7484,2.712 c 0.96161,1.4915 1.79575,2.8539 1.85364,3.0275 0.0579,0.1735 5.09811,-2.3079 11.20046,-5.5143 6.10236,-3.2064 11.41243,-5.8298 11.80013,-5.8298 2.15447,0 21.46994,7.4935 30.22893,11.7274 14.74088,7.1255 40.10406,22.4837 53.15388,32.1863 11.97177,8.9011 26.52731,22.497304 37.76551,35.276404 29.6125,33.6729 49.7457,71.9776 60.5671,115.2321 2.5635,10.247 4.9497,23.6834 6.1527,34.6457 1.0317,9.4009 1.3096,14.0635 1.5199,25.4921 0.1972,10.7165 0.1649,11.576 -0.5457,14.5329 -0.7652,3.184 -2,6.2575 -2.6837,6.68 -0.823,0.5087 -1.2498,-1.124 -1.4918,-5.707 -0.2891,-5.4759 -1.289,-11.7944 -2.7686,-17.4946 -1.1109,-4.2798 -4.1884,-13.553 -4.6573,-14.0336 -0.1573,-0.1611 -1.7658,1.6486 -3.5744,4.0217 l -3.2885,4.3148 -0.8977,13.8771 -0.8977,13.877 -4.2713,4.0918 c -2.3491,2.2505 -5.7845,5.4917 -7.6342,7.2027 l -3.3629,3.1109 -9.1119,-1.2004 c -5.0116,-0.6602 -9.3082,-1.3526 -9.548,-1.5386 -0.2398,-0.186 -2.152,-2.8871 -4.2494,-6.0023 l -3.8134,-5.6641 2.6593,-7.051 2.6593,-7.051 2.1325,-0.2336 c 1.1729,-0.1284 3.7761,-0.3458 5.785,-0.4831 l 3.6524,-0.2496 0.2263,3.5567 c 0.1244,1.9562 0.3344,5.5491 0.4665,7.9844 l 0.2403,4.4278 4.0168,2.5459 4.0168,2.5458 0.2382,-4.9849 c 0.1973,-4.1301 0.5073,-6.0826 1.8079,-11.3862 l 1.5698,-6.4014 3.5954,-3 3.5955,-3 1.7639,-4.8815 1.7638,-4.8815 -0.8056,-4.5199 c -0.6867,-3.8526 -1.0729,-5.0403 -2.6162,-8.0453 -0.9959,-1.9391 -1.9484,-3.5256 -2.1168,-3.5256 -0.1684,0 -3.1926,1.4459 -6.7206,3.2132 l -6.4144,3.2131 -5.8866,5.5555 c -4.6706,4.4079 -6.2185,6.1156 -7.4934,8.2673 -0.8838,1.4916 -1.7575,2.712 -1.9416,2.712 -0.1842,0 -1.8661,-1.4084 -3.7377,-3.1296 l -3.4029,-3.1296 0.4875,-5.5073 c 0.418,-4.723 0.6657,-5.969 1.7393,-8.7488 l 1.2519,-3.2415 0,-6.4724 0,-6.4723 -4.0178,0 -4.0177,0 0.2074,1.1752 c 0.1142,0.6463 0.3147,2.5668 0.4458,4.2677 l 0.2383,3.0926 -3.3859,0.7792 c -1.8622,0.4286 -3.497,0.664 -3.6328,0.5233 -0.1358,-0.1407 -0.7594,-1.5576 -1.3858,-3.1486 -0.6263,-1.591 -1.2752,-3.0332 -1.442,-3.2049 -0.1672,-0.1721 -1.9392,1.2363 -3.94906,3.1387 -9.81727,9.2925 -17.8989,13.2612 -21.72822,10.6703 -0.69607,-0.4709 -1.6182,-1.5851 -2.04918,-2.4758 -0.43094,-0.8908 -1.92847,-3.979 -3.32779,-6.8627 -3.85966,-7.954 -10.51123,-18.0443 -22.28681,-33.8088 -6.5048,-8.7082 -19.18099,-24.769 -19.54938,-24.769 -0.26523,0 0.20412,0.773 6.47657,10.667 5.91649,9.3324 9.22024,14.1479 11.35677,16.5535 1.96084,2.2078 2.81383,3.9213 9.70041,19.4854 6.06417,13.7055 9.79611,21.3682 11.24616,23.0915 0.80661,0.9586 1.12491,1.0745 2.95113,1.0744 2.21767,-10e-5 6.8195,-0.7013 17.70284,-2.6976 3.83771,-0.7039 7.89762,-1.2798 9.02202,-1.2798 2.0252,0 2.06444,0.021 4.17274,2.1885 1.3885,1.4279 2.0541,2.3817 1.915,2.7443 -0.1362,0.3548 0.4885,1.3312 1.7273,2.7002 1.8843,2.0822 1.947,2.2202 2.1599,4.7587 0.172,2.0494 0.7708,17.2204 0.781,19.7859 0,0.3672 -1.7799,1.1816 -5.6025,2.5615 l -5.6047,2.0233 -0.128,-0.9345 c -0.25738,-1.8787 0.73222,-20.5215 1.21046,-22.8028 0.2709,-1.2925 0.45629,-2.3863 0.41196,-2.4307 -0.14876,-0.1487 -38.57146,40.6658 -39.81146,42.2897 -3.8239,5.0081 -6.51095,10.7804 -8.16321,17.5366 -1.25873,5.1469 -2.22855,7.0009 -5.03587,9.6268 -2.64229,2.4716 -6.6454,4.9476 -13.91063,8.6041 -11.73749,5.9075 -13.8592,7.4833 -17.59465,13.0679 -2.43771,3.6444 -3.99924,6.6359 -8.6237,16.5207 -1.72124,3.6792 -3.80733,7.8096 -4.63581,9.1786 -0.82844,1.369 -2.24642,4.3792 -3.15101,6.6894 -0.90463,2.3102 -1.92681,4.5515 -2.27155,4.9808 -0.34474,0.4292 -2.17259,2.1049 -4.0619,3.7238 -5.4009,4.6278 -10.41198,6.7204 -18.13484,7.5731 -4.93637,0.545 -16.6188,0.8305 -17.53358,0.4284 z m 24.28825,-231.2085 c 0.12927,-0.862 0.36097,-1.7711 0.51487,-2.0202 0.16973,-0.2746 2.54046,-0.7443 6.02457,-1.1937 3.15958,-0.4075 5.8914,-0.8736 6.07072,-1.0359 0.18998,-0.1718 0,-1.1853 -0.45199,-2.4287 -0.42791,-1.1736 -0.778,-2.2391 -0.778,-2.3678 0,-0.1288 4.6374,-0.2341 10.30534,-0.2341 l 10.30535,0 0,-3.7557 0,-3.7556 4.04356,-0.77 c 2.22397,-0.4236 4.10211,-0.8286 4.17367,-0.9002 0.14094,-0.1409 -2.5024,-0.6476 -17.40168,-3.3352 l -9.7268,-1.7547 -3.65207,3.8257 -3.65203,3.8256 -6.50864,0.3884 c -7.47687,0.4463 -6.67801,0.7522 -8.75014,-3.3505 -0.70311,-1.3921 -1.3462,-2.6044 -1.42904,-2.694 -0.0829,-0.09 -2.10422,1.7816 -4.49187,4.1583 -3.4982,3.4821 -4.66551,4.918 -6.01126,7.3947 -0.91854,1.6905 -2.13244,3.7537 -2.69757,4.5851 -1.00142,1.4731 -1.27927,2.2852 -0.78188,2.2852 0.1351,0 3.67417,0.7261 7.86461,1.6136 9.68221,2.0507 14.59196,2.9961 15.823,3.0469 0.8783,0.036 0.99491,-0.1113 1.20728,-1.5272 z m -27.32221,-14.2523 -0.0121,-3.5255 -8.49314,-5.8758 -8.49314,-5.8759 -5.32557,0.01 -5.32558,0.01 -10.20681,8.3787 c -5.61375,4.6082 -10.16979,8.4142 -10.12455,8.4576 0.0453,0.043 7.5672,0.3475 16.71545,0.6758 18.61569,0.6679 30.59942,1.1406 31.00643,1.2231 0.14916,0.03 0.26573,-1.5316 0.25905,-3.4706 z m 56.30521,-12.7566 c 3.73943,-0.5999 5.56839,-1.1349 10.02815,-2.9335 3.00004,-1.2098 5.85148,-2.3517 6.33655,-2.5376 0.84699,-0.3245 0.6897,-0.5306 -3.97247,-5.2023 -2.66995,-2.6755 -4.95185,-4.8645 -5.07088,-4.8645 -0.11904,0 -0.57533,1.6074 -1.01397,3.572 l -0.79757,3.5721 -1.34135,0.2032 c -0.73779,0.1117 -3.70078,0.4826 -6.58447,0.8241 -2.88369,0.3415 -5.29593,0.6617 -5.36051,0.7115 -0.0646,0.05 0.25289,1.7326 0.7055,3.7396 0.96375,4.2733 0.30345,4.0011 7.07102,2.9154 z m -4.1037,239.74 c -2.32054,-1.1762 -2.38932,-2.2944 -0.19866,-3.2284 0.76983,-0.3282 2.32605,-2.7816 7.19331,-11.3406 l 6.21091,-10.9219 10.06069,-6.3079 c 5.53336,-3.4694 10.95277,-6.874 12.04315,-7.5659 l 1.98246,-1.258 -0.68825,1.0593 c -2.24266,3.4518 -10.31873,14.8735 -13.78837,19.5005 -9.73823,12.9865 -16.7161,20.1407 -20.14337,20.6527 -0.75818,0.1132 -1.69116,-0.093 -2.67187,-0.5898 z m 95.26052,-60.5783 -2.42969,-1.2471 3.13839,-4.6109 c 1.7261,-2.536 4.3238,-6.106 5.7726,-7.9333 l 2.6342,-3.3224 3.1499,1.0647 c 1.7324,0.5856 3.2924,1.2072 3.4665,1.3814 0.5874,0.5874 -12.0563,16.0077 -13.0637,15.9326 -0.1313,-0.01 -1.332,-0.579 -2.6682,-1.265 z M 245.72293,68.884236 c -1.65304,-1.3909 -2.40407,-3.7599 -2.40407,-7.5831 0,-2.696 0.13539,-3.4834 0.78906,-4.5894 1.22373,-2.0705 9.37055,-11.2797 13.53894,-15.3045 4.7926,-4.6274 7.64788,-6.7563 11.70655,-8.7283 4.76944,-2.3174 6.45662,-2.5371 13.9952,-1.8227 3.43965,0.326 7.96242,0.6839 10.05061,0.7955 6.04507,0.3229 7.59341,0.5407 7.59341,1.0683 0,1.6562 -13.26483,11.7952 -30.37365,23.2161 -13.43256,8.9668 -21.57433,13.8624 -23.05453,13.8624 -0.41524,0 -1.24393,-0.4114 -1.84152,-0.9143 z m 40.08288,-1.2794 c 0,-0.3727 -1.26464,-8.9388 -1.60456,-10.8686 l -0.16717,-0.949 4.41138,-0.2383 c 2.42625,-0.1311 5.53519,-0.3378 6.90875,-0.4593 l 2.49737,-0.221 -0.24264,3.9395 c -0.13345,2.1666 -0.3441,5.1191 -0.4681,6.5609 l -0.22546,2.6215 -5.55479,0 c -3.69394,0 -5.55478,-0.1292 -5.55478,-0.3857 z m -80.454,-16.609 c 0.39775,-0.171 0.96725,-0.3108 1.26557,-0.3108 0.34187,0 0.27504,0.1149 -0.1808,0.3108 -0.39775,0.1709 -0.96726,0.3107 -1.26557,0.3107 -0.34188,0 -0.27504,-0.1149 0.1808,-0.3107 z m 113.45085,-15.0769 c -1.23463,-3.7158 -2.17758,-6.8232 -2.09545,-6.9053 0.0821,-0.082 5.61122,1.7652 12.28687,4.1052 6.67564,2.3401 12.09632,4.2934 12.04594,4.3408 -0.0504,0.048 -4.3222,1.1688 -9.49295,2.492 -5.17075,1.3231 -9.64848,2.4771 -9.9505,2.5644 -0.42647,0.1233 -1.0506,-1.3504 -2.79391,-6.5971 z"
     id="path6182"
     inkscape:connector-curvature="0"
     inkscape:export-filename="/Users/Willem/Sites/tandem/site/wp-content/themes/exchange/assets/images/png/T_globe_WEB.png"
     inkscape:export-xdpi="60.029999"
     inkscape:export-ydpi="60.029999" />
</svg>
