<svg xmlns="http://www.w3.org/2000/svg" id="svg5632" viewBox="0 0 599.72 599.86">
  <path id="path6182" fill="#f4c522" d="M284.72 599.5c-63.6-3.17-124.87-26.83-174.47-67.4-14.08-11.53-29.23-26.56-41.02-40.7C33.9 449.08 10.5 396.43 2.9 342.27.6 326.1 0 316.76 0 299.4c0-17.24.7-27.43 2.88-42.62 7.68-53.35 30.03-103.93 64.5-145.9 17.76-21.68 39.37-41.67 62.22-57.6 39.87-27.8 87-45.73 134.7-51.27C279.63.23 301.5-.47 315.8.35c49.74 2.87 95.53 16.82 137.58 41.9 56.7 33.84 100.94 85.7 125.3 146.88 15.25 38.27 22.02 77.07 20.9 119.7-1.7 64.98-25.4 128.63-66.92 179.82-12.7 15.65-28.62 31.57-44.27 44.27-57.47 46.64-129.7 70.25-203.68 66.6zm35.44-12.62c21.25-1.65 40.1-5.02 59.56-10.65 73.07-21.15 135.5-71.3 172.36-138.46 17.77-32.37 29.25-68.33 33.45-104.73 1.46-12.7 1.66-16.8 1.65-34 0-17.57-.3-22.56-2-35.97-10-78.18-51.84-148.73-115.96-195.57-41.16-30.07-89.38-48.57-140.06-53.73-16.27-1.65-37.35-1.88-52.7-.57-77.92 6.64-147.62 43.26-198.55 104.33C21.86 184.73 0 274.73 18.8 360.98c8.52 39.17 25.6 76.86 49.55 109.28 24.15 32.73 55.75 60.7 90.9 80.45 38.63 21.73 81.1 34.06 125.67 36.52 7 .4 28.5.18 35.26-.34zm-36.7-16.3c-29.6-1.86-58.3-8.42-85.7-19.6-6.53-2.67-9.34-3.9-9.16-4.03.06-.05 3.7.05 8.06.22 4.37.17 8.13.24 8.35.15.23-.08 1.93-2.9 3.8-6.24 1.84-3.35 3.4-6.15 3.46-6.22.12-.16 6 .6 6.2.82.08.08.55 2.72 1.04 5.86.5 3.15 1.04 5.8 1.2 5.9.18.12 3.18.92 6.68 1.78l6.36 1.57 2.8-2.52 2.8-2.5 16.45 1.7 16.46 1.76c0 .02.4 1.17.9 2.56l.87 2.53h20.47l5.9-3.43 5.87-3.44h10.54l.2 1c.12.54.32 2 .46 3.26.15 1.24.38 2.34.52 2.43.3.2 12.1 1.62 13.4 1.62.83 0 1.02-.26 1.73-2.47l.8-2.47 5.3.85 5.28.85 2.82 2.55 2.83 2.55 13.28 1.06c7.3.58 13.35 1.12 13.42 1.2.07.06-2.7.87-6.12 1.8-18.26 4.88-35.97 7.74-55.24 8.9-6.88.42-25.12.4-32-.03zM95.4 478.12c-4-4.5-9.28-11-13.7-16.87-37.46-49.9-56.48-110.2-54.4-172.52.42-12.8.47-13.17 2.38-16.83.9-1.7 3.92-6.25 6.73-10.12 8.8-12.1 9.54-13.93 6.82-17.02-.77-.88-2.77-2.5-4.43-3.63-1.67-1.12-3.44-2.47-3.94-3l-.9-.97 1.76-6.93c9.56-37.67 28.8-75 54.64-106 23.56-28.3 54.4-52.95 85.98-68.76l5.5-2.76 8.32.05c4.58.02 9.22-.1 10.3-.27l2-.32-1.27.95c-2.17 1.64-6.13 5.55-8.48 8.38-2.45 2.95-6 7.9-6 8.36 0 .17.58-.1 1.27-.56.68-.47 2.28-1.03 3.54-1.25 2.8-.5 11.74-.5 15.38-.03 3.23.4 3.86.15 6.78-2.8 2.54-2.6 5.02-5.77 12.26-15.65 5.77-7.88 7.6-10.13 8.3-10.12.78 0 5.72 4.45 6.76 6.08.86 1.34 1.05 1.98.9 3.04-.22 1.84-1.14 2.9-6.38 7.26-7.07 5.9-9.96 9.8-12.1 16.37-1 3.07-1.16 4.55-.46 4.34.25-.07.97-.22 1.6-.33l1.17-.2.1 2.6.1 2.62 22.1 2.18c23.63 2.35 34.24 3.7 34.02 4.3l-2.77 7.88-2.64 7.5H225.43l2.3 2.3c2.5 2.5 3.35 4.26 2.8 5.75-.9 2.3-4.07 3.84-6.95 3.35-2.33-.4-12.34-4.1-13.13-4.87-.7-.7-.78-1.35-.55-4.66.12-1.75.04-2.02-.87-2.8-1.53-1.3-3.16-1.16-4.54.4-1.3 1.47-1.97 3.6-2.76 8.68-.93 6-2.95 9.2-6.6 10.5-.9.33-3.25.5-6.96.52-8.9.04-11.6.6-15.63 3.22-8.4 5.48-28.94 17.37-34.44 19.94-2 .93-9.95 4.28-17.7 7.44l-14.07 5.75-9.97 15.07C88.6 185.4 86.16 188.8 85.3 189.2c-.97.42-1.1.7-1.4 2.66l-.3 2.2-5.78 2.5c-3.18 1.38-5.84 2.6-5.92 2.73-.07.1 2.7 2.1 6.2 4.42 7.1 4.74 6.76 4.1 4 7.43-1.44 1.73-4.24 4-4.92 4-1.43 0-15.24-13.48-14.53-14.18.18-.2 2.43-1.6 5-3.12l4.64-2.78 1.5-2.88c3.3-6.3 4.64-12.65 3-14.3-1.63-1.62-5.6-.2-8.63 3.1-4.92 5.4-10.4 16.77-13.1 27.2-1.26 4.97-1.3 6.78-.17 14.2l.85 5.6-1.18 1.3c-4.46 4.94-5.9 12.88-2.85 15.57.37.33 3.6 1.5 7.2 2.6 22.5 6.93 48.3 17.24 72.03 28.8l8.77 4.28-.23 4.3c-.34 6.03 0 8.26 1.43 9.68.63.63 4.23 2.97 8 5.22 16.23 9.66 24.04 15.64 26.36 20.16.87 1.74.76 4.98-.27 7.17-1.77 3.8-4.78 6.2-12.33 9.8-4.13 1.96-5.08 2.57-6.03 3.86-2.1 2.83-4 7.58-8.28 20.5-5.32 16.12-6.86 19.37-10 21.22-3.46 2.02-3.98 2.07-8.38.7-5.27-1.67-8.04-2.15-9.67-1.7-6.9 1.9-18.4 17.54-29.03 39.45-1.78 3.68-3.68 7.96-4.22 9.5-.96 2.73-.97 2.85-.4 4.34.8 2.05 6.05 11.9 14.46 27.02 3.8 6.86 6.97 12.64 7.02 12.84.08.28-9.92 5.97-10.5 5.97-.06 0-1.1-1.1-2.3-2.44zm357.7-41.4c-.12-1.25-.3-4.14-.42-6.43l-.2-4.15 2.94-2.33c1.62-1.28 3.08-2.67 3.25-3.08.17-.4 1.38-5.38 2.7-11.05 1.3-5.67 2.43-10.5 2.5-10.7.1-.3.77-.3 2.34-.05l2.2.36v19.5l-3.6 4.67-3.62 4.67v10.84h-7.86l-.22-2.26zm68.54-9.28c-2.32-.8-3.58-1.92-4.04-3.58-.32-1.17-.15-2.1.84-4.4.2-.45-1-.85-6.37-2.13l-12.65-3.05-6.06-1.5v-54.75l-3.44-.82c-1.9-.46-3.43-1-3.43-1.2 0-.18.35-1.45.78-2.8.87-2.7.95-2.76 3.55-1.98 3.72 1.1 3.2 1.33 6.68-2.87 3-3.6 3.2-3.78 3.94-3.3l2.64 1.65 1.86 1.15 1.37 5.54 1.38 5.54 5.2.8c2.88.44 5.3.73 5.4.64.08-.1.34-2.33.58-5l.44-4.83 5.57-.1c3.07-.05 5.7.03 5.85.18.14.16.62 3.13 1.07 6.6.43 3.5.9 6.45 1 6.58.14.13 2.38.6 5 1.06l4.77.8 8.9-3.37c4.88-1.85 8.94-3.3 9-3.22.08.1.72 1.47 1.44 3.07l1.3 2.92-1.23 4.66c-3.86 14.55-10.06 31.24-16.87 45.4-2.53 5.25-2.55 5.27-4.86 6.8-2.97 1.95-9.98 5.3-12.08 5.8-2.45.54-5.38.43-7.52-.3zm-172.8-9.4c-1.5-.67-1.92-1.8-1.93-5.1 0-1.7-.24-4.1-.54-5.38-1.5-6.34-8.33-20.57-18.1-37.7l-3.04-5.3v-7.2c0-7.86-.5-18.94-1.1-25.42-.57-5.94-1.32-9.32-2.5-11.2-1.35-2.13-1.7-3.67-1.97-8.55-.23-4.22-.67-6.1-1.47-6.4-.76-.3-1.87-4.23-3.26-11.63-1-5.25-1.6-7.47-2.5-9.4-1.2-2.47-1.22-2.63-1.03-6.04.17-3.5.17-3.5-.7-3.73-.6-.15-1.83.2-3.76 1.03-1.58.7-3.55 1.44-4.37 1.65-5.46 1.45-19.3 2.32-34.2 2.15l-10.75-.13-2.93-2.9c-4.16-4.1-26.95-27.72-31.66-32.82-2.17-2.34-4.2-4.78-4.54-5.42-.44-.87-.8-4-1.4-12.48-.45-6.22-.75-11.37-.67-11.43.07-.07 9.4-6.55 20.74-14.4 44-30.5 39.78-27.43 39.74-28.85 0-.7-.15-3.4-.3-5.98l-.28-4.73 2.12-.47c1.17-.25 2.73-.6 3.48-.8l1.35-.35v-15.1l2.08-.42c5.46-1.1 10.32-2.15 10.4-2.24.05-.06-.08-1.73-.3-3.72l-.4-3.62-7.5-11.3C283.4 116.46 280 111.2 280 111c0-.2.54-1.22 1.2-2.26 1.12-1.74 1.4-1.94 3.8-2.7 1.88-.62 2.6-1.02 2.58-1.46 0-.34-.96-4.84-2.12-10-1.16-5.18-2-9.53-1.88-9.68.13-.14 10.56-5.9 23.2-12.77l22.94-12.5 10.25-.86c9.88-.82 10.34-.9 12.92-2.03 1.47-.65 2.67-1.27 2.66-1.38 0-.1-1.8-1.67-3.96-3.46l-3.95-3.25-.02-3.7c0-2.05.1-3.72.26-3.72s2.14.7 4.4 1.54l4.13 1.54 1.75 2.72c.96 1.5 1.8 2.85 1.86 3.03.05.17 5.1-2.3 11.2-5.52 6.1-3.2 11.4-5.83 11.8-5.83 2.15 0 21.47 7.5 30.23 11.73 14.74 7.12 40.1 22.48 53.15 32.2 11.97 8.9 26.53 22.48 37.77 35.26 29.6 33.66 49.73 71.97 60.55 115.22 2.57 10.25 4.95 23.7 6.16 34.65 1.04 9.4 1.32 14.06 1.53 25.5.2 10.7.16 11.57-.55 14.52-.77 3.18-2 6.25-2.68 6.67-.83.5-1.25-1.12-1.5-5.7-.28-5.48-1.28-11.8-2.76-17.5-1.12-4.28-4.2-13.55-4.66-14.03-.16-.16-1.77 1.65-3.58 4.02l-3.28 4.32-.9 13.87-.9 13.88-4.27 4.1c-2.35 2.24-5.8 5.48-7.64 7.2l-3.35 3.1-9.1-1.2c-5.02-.66-9.32-1.35-9.56-1.53-.25-.2-2.16-2.9-4.26-6l-3.8-5.67 2.65-7.05 2.65-7.05 2.13-.24c1.17-.13 3.78-.35 5.8-.5l3.64-.24.22 3.56c.13 1.95.34 5.55.47 7.98l.25 4.43 4.02 2.55 4 2.54.25-4.98c.2-4.13.5-6.1 1.8-11.4l1.58-6.4 3.6-3 3.6-3 1.76-4.87 1.76-4.88-.8-4.53c-.7-3.86-1.08-5.04-2.62-8.05-1-1.94-1.95-3.52-2.12-3.52-.17 0-3.2 1.44-6.72 3.2l-6.4 3.22-5.9 5.56c-4.67 4.4-6.22 6.1-7.5 8.27-.88 1.5-1.75 2.7-1.94 2.7-.18 0-1.86-1.4-3.73-3.12l-3.42-3.13.5-5.5c.4-4.73.66-5.98 1.73-8.76l1.26-3.24v-12.94h-8.02l.2 1.17c.1.65.3 2.57.44 4.27l.24 3.1-3.4.77c-1.85.43-3.5.66-3.62.52-.14-.15-.76-1.56-1.4-3.15-.6-1.6-1.26-3.04-1.43-3.2-.17-.18-1.94 1.23-3.95 3.13-9.82 9.3-17.9 13.26-21.73 10.67-.7-.47-1.62-1.6-2.06-2.48l-3.32-6.86c-3.86-7.94-10.5-18.03-22.3-33.8-6.5-8.7-19.17-24.77-19.54-24.77-.26 0 .2.78 6.48 10.67 5.9 9.33 9.22 14.15 11.35 16.55 1.97 2.2 2.83 3.92 9.7 19.5 6.08 13.7 9.8 21.36 11.26 23.08.8.96 1.13 1.07 2.95 1.07 2.23 0 6.83-.7 17.7-2.7 3.85-.7 7.9-1.27 9.04-1.27 2.02 0 2.06.02 4.17 2.2 1.4 1.4 2.06 2.37 1.92 2.73-.13.35.5 1.33 1.73 2.7 1.9 2.08 1.95 2.22 2.16 4.76.18 2.05.78 17.22.8 19.78 0 .37-1.8 1.2-5.6 2.57l-5.6 2.02-.14-.94c-.26-1.88.73-20.53 1.2-22.8.28-1.3.46-2.4.42-2.44-.15-.15-38.57 40.67-39.8 42.3-3.84 5-6.52 10.77-8.17 17.53-1.25 5.14-2.22 7-5.03 9.62-2.64 2.48-6.65 4.95-13.9 8.6-11.75 5.92-13.87 7.5-17.6 13.08-2.44 3.64-4 6.63-8.63 16.52-1.72 3.68-3.8 7.8-4.64 9.18-.82 1.37-2.24 4.38-3.15 6.7-.9 2.3-1.92 4.54-2.27 4.97-.34.43-2.17 2.1-4.06 3.72-5.4 4.63-10.4 6.72-18.13 7.57-4.95.56-16.63.84-17.55.44zm24.3-231.22c.13-.86.36-1.77.5-2.02.18-.26 2.56-.73 6.04-1.18 3.16-.4 5.9-.87 6.07-1.04.2-.17 0-1.18-.45-2.43-.43-1.17-.78-2.23-.78-2.36 0-.14 4.64-.25 10.3-.25h10.3v-7.51l4.05-.77c2.23-.42 4.1-.83 4.18-.9.14-.14-2.5-.65-17.4-3.33l-9.73-1.76-3.65 3.83-3.65 3.83-6.5.4c-7.5.44-6.7.74-8.76-3.36-.7-1.4-1.35-2.6-1.43-2.7-.1-.08-2.1 1.8-4.5 4.16-3.5 3.5-4.66 4.92-6 7.4-.92 1.7-2.14 3.75-2.7 4.58-1 1.5-1.28 2.3-.78 2.3.13 0 3.67.73 7.86 1.6 9.7 2.06 14.6 3 15.83 3.06.88.04 1-.1 1.2-1.53zm-27.32-14.25v-3.52l-8.5-5.88-8.5-5.88h-5.33l-5.33.02-10.2 8.38c-5.62 4.6-10.18 8.42-10.13 8.46.04.04 7.56.35 16.7.68 18.63.66 30.6 1.14 31.02 1.22.15.03.26-1.53.26-3.47zm56.3-12.76c3.74-.6 5.57-1.13 10.03-2.93 3-1.22 5.85-2.36 6.34-2.55.83-.32.68-.53-3.98-5.2-2.67-2.67-4.96-4.86-5.08-4.86-.1 0-.57 1.6-1 3.56l-.8 3.57-1.35.2c-.75.12-3.7.5-6.6.83-2.88.34-5.3.66-5.35.7-.07.06.25 1.74.7 3.75.97 4.28.3 4 7.07 2.92zm-4.1 239.74c-2.32-1.17-2.4-2.3-.2-3.22.77-.33 2.33-2.8 7.2-11.34l6.2-10.93 10.07-6.3 12.03-7.57 1.98-1.26-.68 1.06c-2.24 3.45-10.32 14.87-13.8 19.5-9.72 13-16.7 20.14-20.13 20.65-.77.12-1.7-.1-2.68-.6zM493.28 339l-2.43-1.26 3.14-4.6c1.7-2.55 4.3-6.12 5.76-7.95l2.64-3.33 3.15 1.07c1.73.58 3.3 1.2 3.46 1.38.6.6-12.04 16-13.05 15.93-.13 0-1.33-.58-2.67-1.26zM245.72 68.87c-1.65-1.4-2.4-3.76-2.4-7.58 0-2.7.13-3.48.8-4.6 1.2-2.06 9.36-11.27 13.53-15.3 4.8-4.62 7.64-6.75 11.7-8.72 4.77-2.32 6.46-2.54 14-1.82 3.44.32 7.96.68 10.05.8 6.04.3 7.6.53 7.6 1.06 0 1.66-13.27 11.8-30.38 23.22-13.43 8.96-21.58 13.86-23.06 13.86-.4 0-1.24-.4-1.84-.92zm40.1-1.28c0-.37-1.28-8.93-1.62-10.86l-.17-.95 4.42-.25c2.42-.13 5.53-.34 6.9-.46l2.5-.23-.24 3.94c-.12 2.17-.34 5.13-.46 6.57l-.22 2.62h-5.56c-3.7 0-5.55-.14-5.55-.4zM205.34 51c.4-.18.97-.3 1.27-.3.34 0 .27.1-.18.3-.4.17-.97.3-1.27.3-.34 0-.27-.1.18-.3zM318.8 35.92c-1.23-3.72-2.17-6.82-2.1-6.9.1-.1 5.62 1.76 12.3 4.1 6.67 2.34 12.1 4.3 12.04 4.34-.05.05-4.32 1.17-9.5 2.5-5.16 1.3-9.64 2.47-9.94 2.56-.43.12-1.05-1.35-2.8-6.6z" class="globe"/>
</svg>
