<svg xmlns="http://www.w3.org/2000/svg" viewBox="0 0 228.73989 230.40498"><g fill-rule="evenodd"><path d="M22.3 179.3c-.86.26-.56-2.34-1.36-1.02.6.02.7 2.22 1.37 1.02M15.8 65.5c-.27.07-.4.28-.34.68.27-.08.4-.3.34-.7.48-.08.4-.74.7-1.02.42-.14.7-.44.67-1.02-1.45-.32-1.46.82-1.37 2.05m-1.7 3.08c.83.53 1-1.17.33-1.03-.02.2-.05.4-.34.34v.68zm13 119.3c-1.05.05-1.53-1.2-1-1.72-.24-1.03-1.33-1.2-1.04-2.74-.82-.14.2 1.56-1.03 1.03-.2-.72-.85-.98-.7-2.06-.18-.5-.52-.85-1.02-1.04-.16-.5-.5-.86-.67-1.37-.8.1-.38-1-1.03-1.04-.18-.5-.5-.86-.7-1.37-.3-.6-.75-1.07-1.36-1.38.06-.4-.07-.6-.34-.7.28-1.86-1.14-2.04-1.03-3.76-.43.08-.45 1.02 0 1.03.1.54-.32.58-.34 1.02-.98.04-.42-1.45-1.03-2.06-.25-1.05.6-1 .34-2.06-.3-.2-.6-.4-.68 0 0 .34-.42.27-.7.35 0-1.04-1.44-1.98.36-2.06-.3-.3-.2-.95-.7-1.04-.17-.27-.35-.55-.33-1.03-.7-.23-.93-.9-1.04-1.7-.13.08-.6-.12-.7 0 0 0 .03.33 0 .33-.26.02-.33-.4-.67-.34 0-.6-.27-.9-.7-1.03.03-.5.06-.98-.34-1.04.16-1.08-.5-1.34-.7-2.05-.48-.07-.1-1.02-.67-1.02-.2-.28-.37-.56-.36-1.03-.2-.72-.84-.98-.68-2.06.7-.12 1.07.06 1.03.68.86-.04.67-1.15.67-2.06-.78-.1-1.3.08-1.37.7-.5-.1-.12-1.04-.68-1.04.1-.56-.33-.6-.35-1.03-.2-1.1.24-1.6.35-2.4 0-.6-.26-.9-.7-1.03.16-.7-.22-.9-.33-1.37-1.05.42.36 1.18 0 2.06-.8.1-.4-.98-1.04-1.02.04-.62-.42-.72-.34-1.37.48.04.97.06 1.03-.33.16-1.08-.93-.9-1.03-1.72v-1.03c-.06-.4.07-.6.34-.68 0-.68-.94-.44-.7-1.37-1 0 .5 2.54-1 2.05v-3.42c.26-.2.54-.36 1-.35.17.5.32-.03.7 0 .13-.58-.27-.64-.7-.68-.26-.07-.33-.35-.67-.35.22-2.4-.46-3.9-.7-5.82-.9-.1.32 1.92-1.03 1.37-.22-.84-.7-1.77.7-1.72-.48-.44-.35-1.5-.35-2.4-.76-.04-.15-1.45-.35-2.05-1.1-.43-.26 1.1-1.37.68-.22-1.36.9-1.38.7-2.74-.83-.14.18 1.56-1.04 1.03-.35-.9-.4-2.1-.34-3.43.37-.08.23-.68.68-.68.3-.16.62-.3.7-.7-.13-.38-.6-.86-.7-.33-.45.4-.54.13-1.03 0-.28-1.3-.44-2.76-.34-4.46 1.35-.55.12 1.48 1.03 1.37v2.06c.58.13.65-.27.7-.7v-1.36c.24-1.05-.96-.66-.7-1.7-.05-.87.54-1.07.7-1.73.02-1.4.05-2.8-.36-3.76.08-.32-.1-.7 0-1.03.04-.1.35-.43.35-.33.02-.6-.4-.72-.35-1.37.46-.23.64-.73.7-1.37-.05-.62.4-.72.33-1.37.34-.8.6-1.7.7-2.74.03-.62-.43-.73-.36-1.38-.18-.27-.35-.55-.34-1.02-.58.12-.65-.27-.68-.7.02-1.52.78-.43 1.37-1.02-.27-2.1.45-3.2.34-5.14-.42.15-.7.44-.7 1.03.08.28-.12.3-.33.33.25.8.94 2.93-.68 2.74-.1-.12.1-.6 0-.68-.03-.03-.34 0-.35 0 0-.1-.04-.66 0-.7.02 0 .35.02.35 0 .02-.63-.02-1.05 0-2.06.35-.78.2-2.06.68-2.74.93-.24-.24 1.62.7 1.37.45-.1.27-.85.33-1.37.28-.18.56-.35 1.03-.34-.3-.85-.68-2.66 0-3.43.24-1.05-.6-1-.35-2.05.7-.2 1.1-.72 1.7-1.03-.36-1.28.86-.98.7-2.06-.1-.44-.7-.36-.7 0-.4-.07-.28-.63-.33-1.04V82.3c.25-1.12.62-2.13 1.03-3.1.96.6.32.9.34 2.06-.13.45-.62.54-.7 1.03v1.36c.34 0 .27-.42.35-.68.3.06.32-.14.34-.35-.04-.48-.07-.97.33-1.02.27-.76.72-1.33.7-2.4.36-.08.22-.68.67-.68.07-.28.35-.34.34-.7.65-.02.24-1.12 1.03-1-.22-1.27.75-1.33.7-2.4.9-.12.6-1.46 1.36-1.73-.03-.5-.05-.98.34-1.04v-2.4c.97-.06.43-1.62 1.72-1.37.3-1.18.5-2.46 1.02-3.44v-2.4c.43-.47 1.67-.14 1.7-1.02.66-.15.63-.98 1.72-.7-.14-.53-1.07-.28-.68-1.36.48-.03.97-.06 1.03.34.78.1.37-1 1-1.03.2-.5.55-.84 1.04-1.03-.04-.62.42-.73.35-1.38.68-.1.66-.93 1.36-1.03-.24-.93.7-.67 1.03-1.03-.3-1.65 1.5-1.24 1-3.1 1.04.42 1.18.1 2.07-.33-.2-.3.33-.27.34-.33.06-.25-.6-.83-.33-1.37.33 0 .27-.42.34-.7.3.07.34-.12.36-.33.4-.06.3-.63.34-1.03.7-.1.67-.93 1.37-1.03-.07-.97-.04-1.86 1.03-1.7.1.55-.33.6-.34 1.03.8.1.38-1 1.02-1.03.37-.32.1-1.27 1.03-1.03.52-.15-.12-.44 0-1.03.46-.4.55-.13 1.04 0 .6-.3.57-1.26 1.37-1.37.32-.6.78-1.06 1.38-1.37.2-.72.72-1.1 1.03-1.72.38-.08.24-.68.7-.68.18-.28.36-.56.34-1.03.8-.1.64-1.2 1.7-1.03.06-.64.24-1.14.7-1.37.14-.83-.63-.75-.34-1.7.58-.14.64.25.68.67.86.06 1.08-.52 1.37-1.03.38-.07.24-.67.7-.67.27-.07.33-.35.68-.34-.13-.47-.6-.55-.7-1.04V27.8c.34-.02.28-.43.35-.7h.7c.32 0 .25-.42.33-.7.3.08.33-.12.35-.33.28-.05.35-.36.7-.34-.05 0 .12.33.33.34h.34c.05-.6-.4-.72-.34-1.37.55-.03 1.3.16 1.37-.34.5.03.97.05 1.03-.35.54.04 1.3-.15 1.37.36.5-.2.84-.54 1.03-1.03h1.72c.33 0 .26-.42.34-.7.3.08.32-.12.34-.33.3-.15.6-.3.7-.68 1.2-.15 1.87-.87 2.4-1.72.26.07.33.34.67.34.6-.3 1.06-.76 1.37-1.37H59c.33 0 .26-.42.34-.68.3.05.32-.15.34-.36.4-.05.3-.62.34-1.03h1.37c.88-.36 1.64-.85 2.05-1.7h1.03c.8-.1.64-1.2 1.7-1.03.32-.6 1.27-.56 1.38-1.37.4-.05.6.08.7.34.48-.2.83-.53 1.02-1.02 1.05.24 1.25-.35 2.05-.35.43-.15.7-.44.7-1.03h1.02c.6-.3 1.06-.76 1.37-1.37.3-.1.75.14 1.03 0 .16-.07.2-.62.34-.68.12-.07.6.1.68 0 .02-.04-.03-.35 0-.35.32-.1.7.06 1.03 0 .66-.15.63-.98 1.72-.7.05-.4.62-.28 1.03-.33 0-.34.42-.27.68-.35.1-.37.68-.23.7-.68h1.02c-.25-.94 1.6.23 1.37-.7h1.7c.96-.42 1.75-1 3.1-1.03.65-.14.62-.97 1.7-.68.42-.46.15-.55 0-1.04-.08-.55.34-.6.35-1.03.74-.16.66.5.7 1.03.54.1.58-.32 1.02-.34 1-.4-1.27-.3-.7-1.37h1.72c.7-.1.67-.93 1.37-1.03h2.73c.83-.14.75.62 1.7.34.73-.14.92.24 1.4.34 3.52-.22 5.76.86 9.24.7 1.63.3 3.1.77 5.14.68.57-.1.6.32 1.04.34 3.27-.2 5.36.8 8.57.68.57-.1.6.33 1.04.35h2.74c2.3.55 4.76.95 7.54 1.02.56-.1.6.33 1.03.35h3.1c.54-.1.58.32 1.02.34 3.33-.14 5.63.77 8.9.7.82-.02 1.02.58 2.07.33.27.17.55.35 1.02.33.4-.05.6.08.7.34.2.04.46-.05.67 0 .35.1.17.27.35.35.12.05.6-.1.68 0 .03.03-.03.33 0 .34.6.2 1.24.2 2.06.34.04.65 1.13.24 1.03 1.03 1.08-.17 1.2.62 2.4.34 0 .34.42.27.68.35.24.9 1.57.72 1.72 1.7.72.43 1.34.96 2.06 1.38 0 .68.94.44.7 1.37.48.2.83.54 1.02 1.03 1.33.38 1.75 1.67 3.08 2.06 0 .68.94.43.7 1.37.5.18.85.5 1.36.68.15.44.44.72 1.03.7.34.9 1.35 1.16 1.7 2.06.97-.3.9.48 1.72.34.15.3.3.6.68.7.1.36.68.22.7.67 1.04-.25.65.94 1.7.7.43.7.95 1.32 1.37 2.04.72-.13.9.25 1.38.36.08.37.68.23.68.68.97.06 1.43.63 2.4.7.25.77 1.03 1 1.72 1.36.3.6 1.26.56 1.37 1.37.6-.04.72.42 1.37.34.44.13.53.62 1.02.7-.15 1.74.52 2.67 1.02 3.77.83.14.75-.63 1.72-.34-.3 1.32.84 1.22 1.03 2.05.36.1.22.68.67.7.18.26.36.55.35 1.02.3.6.76 1.06 1.37 1.37-.1 1 .76 1.05.67 2.06.12.45.6.53.7 1.02.32 0 .25.42.33.7.3-.07.32.12.34.33.43.15.7.44.7 1.03.4.16.7.45.67 1.04 1 .15.82 1.47 1.73 1.7-.2 1.23 1.2.86 1.03 2.07.45.36 1.26.35 1.7.7-.03.6.43.72.35 1.37.4.08.25.68.7.68-.16 1.08.92.9 1.03 1.72.3.6.82 1 1.03 1.7.67.25.9.92 1.02 1.72.45.12.54.6 1.03.68.57-.1.6.32 1.04.34v1.37c.33.7.7 1.35 1.03 2.05-.02.6.25.9.68 1.03-.02.5-.05.97.35 1.03.3.28.2.95.68 1.04.18.27.36.55.35 1.02.5.08.12 1.03.68 1.03.16.3.3.6.7.68v1.7c.04.66 1.13.25 1.03 1.04.12.45.6.54.68 1.03.36.8 1.2 1.1 1.04 2.4.3.6.83 1 1.03 1.7.3.62.83 1 1.03 1.73.7 1 .86 2.56 1.37 3.77v2.4c-.06.4.07.6.34.68-.04.4.1.6.35.7-.2.8-.5 1.55-.34 2.73.13.8.36 1.48 1.04 1.7-.05.86-.06 1.68.7 1.73-.12.78.04 1.3.33 1.7V96c-.05.62.42.73.34 1.37.5.08.13 1.03.7 1.03-.05.85-.06 1.65.34 2.06-.23 1.25-.48 2.5-.34 4.1.08.5 1.02.13 1.02.7.38.08.24.68.7.68-.35 1.38-.43 3-.35 4.8-.06.86.54 1.06.68 1.72v2.4c-.1.55.33.6.34 1.02.1 1.17-.27 2.78.34 3.43.3 1.1-.54 1.07-.7 1.73-.24.93.7.7.7 1.37-.14 1.62.6 2.36.34 4.1.25.95-.68.7-.7 1.38-.08.56.34.6.36 1.03.25.95-.68.7-.7 1.38-.48.08-.1 1.03-.67 1.03-.13 1.03-.55 1.75-1.03 2.4-.14.84.62.76.34 1.73-.4.05-.3.62-.34 1.02-.4.06-.3.63-.34 1.03-.4-.05-.6.08-.7.34.07.3-.12.33-.33.35v1.37c-.03.5-.06.97.34 1.03-.26.3-.36.77-.33 1.37-.2.96-.5 1.78-.7 2.74-.45.1-.27.86-.33 1.37-.4.06-.3.63-.34 1.03-.8.1-.77 1.06-1.38 1.37v2.06c-.33.02-.26.43-.34.7-.3-.07-.32.13-.34.34-.33 0-.27.42-.34.68-.3-.06-.33.14-.35.34-.26.3-.37.78-.34 1.38-.36.08-.22.68-.67.68-.05.62.4.72.34 1.37-.45.1-.54.6-1.03.68-.3.27-.2.94-.7 1.03-.3.7-.7 1.36-1 2.06-.16.72.22.9.33 1.38-.1 1.16-.87 1.64-.7 3.08-.45.22-.63.73-.67 1.37-.8.22-.92 1.13-1.72 1.36.14 1.63-1.17 1.8-1.03 3.43-.78-.12-.38.98-1.02 1.02.14.83-.63.74-.35 1.7-.8-.1-.38 1-1.03 1.04-.26.3-.36.78-.34 1.37-.7.43-1.28 1-1.7 1.72-1.22-.2-.84 1.2-2.06 1.03-.05.63-.22 1.14-.68 1.37-.45.12-.54.6-1.03.68.14.83-.63.75-.35 1.72-.6.3-1.2.63-1.02 1.7-.6.32-1.07.78-1.37 1.38-.32.6-.84 1-1.04 1.72-.5.2-.84.53-1.03 1.02-.92-.23-.66.7-1.03 1.03h-1.03c-.3.73-1.04 1-1.03 2.06-1.02.34-1.7 1.03-2.05 2.06-.63-.05-.74.42-1.38.34.24 1.05-.6 1-.35 2.06-.5.17-.86.5-1.37.68.25.94-.68.7-.68 1.37-.72.2-1.1.72-1.72 1.03-.33 0-.26.42-.34.7-.3-.08-.33.12-.34.33-.6-.02-.9.25-1.03.68-.73.44-1.35.96-2.07 1.38-1.57 1.06-2.54 2.72-4.1 3.78.27.97-.5.88-.36 1.7-1 .03-1.27.8-1.7 1.38-.6.3-1.07.77-1.38 1.37-.95-.24-.7.7-1.38.7-.68 0-.44.93-1.37.68-.14.83.62.75.34 1.72-.62.3-1.07.76-1.38 1.37h-1.37c-.3.15-.62.3-.7.68-.4-.05-.6.08-.67.35-1.05-.25-1 .6-2.06.34-.1.7-1.28.32-1.37 1.03-1.4.2-2.22.98-3.77 1.03-.65.5-1.78.5-2.06 1.37-.54.03-1.3-.17-1.37.34-.3.28-.78.38-1.37.35-.86.3-1.35.94-2.4 1.03-.84.3-1.5.8-2.75.7-.07.48-1.02.1-1.02.67-.6-.04-.72.42-1.36.35-.6.3-1 .82-1.72 1.02-.1.8-1.06.77-1.37 1.38h-2.06c-.28.3-.95.2-1.03.68-.5-.03-.97-.05-1.03.34-.55.03-1.3-.16-1.37.35-.5-.03-.97-.06-1.03.34-3.48-.04-5.7 1.16-8.92 1.38-.55-.1-.58.33-1.02.34-.1.38-.7.24-.7.7-.4-.4-1.2-.4-2.05-.35-.4-.06-.6.07-.68.34-.4-.05-.6.08-.7.35-.9 0-1.94-.13-2.4.34h-2.73c-.55-.1-.6.32-1.03.34h-2.73c-.5-.03-.97-.06-1.03.34-.8-.1-1.3-.54-2.4-.34-2.46.62-5.93.24-8.9.34-.4.06-.62-.08-.7-.34-.4.05-.6-.08-.68-.35-1.4.14-2.2-.32-3.1-.7h-2.4c-1 .1-1.04-.76-2.04-.68-.44-.47-1.62-.2-2.06-.68-1.88.05-3.26-.4-4.8-.7-1.05-.24-1.25.36-2.06.36-.8-.1-1.28-.55-2.4-.35-.58.02-.88-.25-1.02-.68-.5.03-.98.05-1.03-.35h-1.72c-.07-.5-1.02-.12-1.03-.68h-1.7c-.94.25-.7-.68-1.38-.7-.64-.04-1.15-.2-1.37-.67h-1.72c-.08-.6-.6-.78-1.37-.7-.1-.45-.86-.27-1.37-.33-.02-.33-.43-.27-.7-.34-.27-.07-.33-.35-.68-.35-.3-.26-.77-.37-1.37-.34-.12-.44-.6-.53-.7-1.02-.9.03-1.35-.24-2.04-.68-.06-.05-.28.05-.34 0-.04-.04.05-.32 0-.35-.48-.23-.87-.1-1.37-.34-.18-.07.03-.3-.35-.33-.28-.02-.34-.4-.7-.35-.23-.9-1.94-.32-2.04-1.37-1.08.06-1.14-.9-2.4-.68-.3-.5-.5-1.1-1.36-1.03.06-.4-.52-.17-.7-.34-.02-.03.05-.33 0-.35-.3-.1-.7.08-1.02 0-.52-.85-1.17-1.56-2.4-1.7-.2-.5-.53-.85-1.03-1.04.1-.78-1-.37-1.03-1.02-1.3.27-1.64-.4-2.75-.34-.08-.37-.68-.23-.68-.68-.28-.2-.56-.36-1.03-.35.1-.77-.07-1.28-.68-1.36-.17-.5-.5-.86-.68-1.37h-1.37c-.56-1.15-1.97-1.46-2.06-3.08-.3-.28-.76-.38-1.36-.36.13-.58-.27-.65-.7-.68-.25-.3-.35-.78-.33-1.38-.98-.26-.88-1.62-2.4-1.37-.05-.26-.33-.33-.33-.67.33 0 .26-.42.34-.7-.26-.17-.54-.35-1.02-.33-.4.06-.6-.08-.68-.34-.24-1.14.7-.55 1.03-.34.1-.56-.33-.6-.35-1.03 0-.35-.42-.28-.68-.36v.7c-.6-.32-1.2-.65-1.03-1.72-1.1.3-1.06-.54-1.7-.7-1.07.26-.67-.93-1.73-.68.14-.82-.63-.74-.34-1.7-.3-.22-.6-.42-.7 0-.54.1-.58-.33-1.02-.35-.28-.98.5-.9.35-1.73-.06-.4-.63-.3-1.03-.34h-1.03c-.15-.42-.44-.7-1.03-.7.37-1.27-.85-.96-.68-2.04-.28-.08-.35-.36-.7-.35.2.27.37.55.35 1.02" class="circle" fill="#f4c522"/><g class="icon" fill="#fff"><path d="M187.6 63.73c2.72 4.23-1.92 7.5-3.75 9.8-1.42.18-3.67 5.1-4.37 6.03-2.14-.52-.3-.52-2.35.92-2.06.96-1.64 3.75-3.7 4.7-.17.26.26.34.03.53-.13.1-.58-.1-.7 0-.1.13.13.6 0 .7-.08.1-.63-.1-.7 0-.13.26.23 1.22 0 1.4-.05.05-.66-.07-.68 0-.15.4.1.96 0 1.4-1.88.2-1.94 2-3.47 2.55-.78 3.38-3.43 3.25-4.9 5.94-.92.24-1.27 1.87-2.27 2.04-.8 1.23-.95 2.2-1.84 2.25-1.65 1.22-.84 2.84-2.88 2.66-.17.75-.62 1-.63 1.9-1.13-.2-1.36 1.54-2.25 1.58-1.44.4-2.46 2.86-3.7 3.48-1.2 1.23-3.8 3.6-4.9 4.72-1.44 2.5-4.5 3.84-5.94 6.35-2.76 1.16-2.5 4.44-5.45 5.4-.25.93-1.23 1.1-1.4 2.1-.3.62-.6 1.24-1.38 1.4-.37.93-1.6.72-1.8 2.36-2.2-.33-2.13 2.97-3.77 3.2-.3.6-.6 1.23-1.4 1.38-.16.76-1.8.24-1.8 1.16-4.3 1.84-8.13 2.04-11.4.23-2.13-.18-3.12-1.5-4.86-2.1-.9-1.42-1.1-3.5-3.47-3.46-.25-.9-1.23-1.1-1.4-2.1-.67 0-.53-.84-.7-1.38H98.4c-.3-.86-.9-1.43-2.1-1.4-.3-.62-.6-1.24-1.4-1.4-1.3-1.7-2.16-3.84-3.46-5.55-.76-.17-.47-1.38-1.4-1.4-.12-.55-.7-.68-.7-1.38-1-.4-1.68-1.08-2.07-2.08-2.05-.98-2.82-3.23-4.87-4.2-.1-2.67-2.82-2.73-3.47-4.85-3.43-2.37-5.62-5.97-9.04-8.34-.02-3-3.47-2.55-3.5-5.55-1.67-1.1-3.06-2.5-4.16-4.17-1.4-.2-1.36-1.9-2.78-2.1.22-1.6-2-.76-2.08-2.07-1.03-.36-.52-.64-1.55-1-.4-1-1.05-2.07-2.05-2.46-.6-.56-1.68-1.9-2.66-2.1-.37-.56-.72-1.12-.7-2.08-.85-.3-1.42-.9-1.38-2.1-.62-.3-1.25-.6-1.4-1.38-1.45-.63-4.75-3.54-4.72-5.66-.96-.9-1.22-1.64-1.23-3.48 1.22-.63 4.08-2.05 5.52-2.46 2.2.34 3.58-.77 6-.2.1.8.35-.32 1.17-.2.98-.07 2.75-.62 2.86.2.9-.96 2.66-.4 4.5-.42 5.26-.54 10.57.6 15.17-.6 10.9 0 21.7-1.08 32.58-1.08 2.22-.57 5.35.8 7.18-.16 15.6.62 31.83-.72 47.13.2 4.62 0 7.13-.12 11.9 0 2.1.22 4.5-.4 5.4.66 2.45-.13 4.62 1.2 6.5 1.65M32.5 80.27c1.2 1 3.97 3.25 4.96 5.56 1.02.37.36 1.6 1.38 1.98.54.6.88.57 1.04 1.5 1.88.66 2.9 2.1 4.8 2.76.66 1.75 2.68 2.3 3.35 4.04 1.74.58 1.7 2.75 2.67 4.02 1 .4 1.67 1.07 2.03 2.03.85.3 1.4.88 1.33 2 1.43.87 2.56 2 3.4 3.4 1.8.72 2.25 2.66 4.06 3.4-.2 2.3 2.3 2.22 2.67 4 .67.05.5.83.65 1.35.6-.1.65.27.68.67.9.26 1.05 1.2 2.04 1.37.6.55.36 1.82 1.34 2 .6.56.37 1.83 1.34 2.02-.18.24.2 1.15-.04 1.32-.08.06-.65-.1-.7-.02-.12.23.18 1.16-.03 1.3-.1.1-.6-.1-.7 0-.3.36-.4.93-.72 1.3-.2.2-.97-.03-.72.63-1.85.62-2.4 2.52-4.26 3.15-.1 1.24-2.3.4-2.14 1.9-.92.22-1.12 1.14-2.12 1.27-1.75.5-2.84 1.77-4.72 3.08-.42.25-1.06-.4-.92.05.27.9-.46.96-.55 1.07-.1.12-.03-.54-.15-.43-.08.05-.66-.1-.7-.03-.16.32.2 1.02-.04 1.3-.07.1-.58-.1-.68 0-.12.1.1.54-.02.65-.12.1-.58-.13-.7-.02-.1.1.08.52 0 .65-.3.44-.6.72-.75 1.3-1.95 1.2-3.6 2.7-5 4.46-1.23.57-2.18 1.42-2.84 2.56-.93.63-2.6.55-2.83 1.9-2.14 1-2.7 2.02-6.22 1.65-1.9.44-.57-1.36-2.47-1.1-.58-.54-.48-1.53-1.46-1.73-.32-2.06.32-3.8-.46-5.44.83-11.06-1.73-23.85-.7-35.77.12-1.52-.23-2.8.8-3.92.03-2.17-1.1-3.3-.53-5.93-.45-2.02.6-1 .16-3.02-.04-.93-.97-2.05-.15-2.14-.1-.76.13-2.17.68-2.3-1.2-2.12.5-3.1.2-6.78 1.23-.56.9-3.06 2.54-3.22.23 0 1 .22 1.22.23M200.6 79.16c.1.1.4-.6.5.33.06.4.07.82.12 1.3.1 1.1.13 2.77.2 3.94.13 1.97-.2 3.73-.25 4.24-.07.58.03 1.8.15 1.9.06.04-.35 1.35-.33 1.4.25.8-.15 3.74.04 4.54.14.6.3.6.44 1.5.13.85-.52-.07-.42.77.83 2.7-.22 5.83-.3 9.34 1.07 4.63-.02 10.1.98 14.8.45 4.65-.3 8.8-.2 12.8.08 3.1-.08 7.12.53 8.73-.2 1.5-1.05 1.05-.6 3.13-.65.28-.93 1.37-1.07 2.08-.84-.1-2 .15-2.15.65-.72-.34-.03.67-1.95-.13-1.5-.36-2.56-1.3-3.84-1.85-.95-.22-1.96-1.52-3-1.67-.18-.7-1.4-.38-1.4-1.23-.17-.54-2.62-2.05-4.36-2.86-1.2-1.73-2.33-2.72-4.57-3.5-.5-1.48-2.12-1.2-2.62-2.67-.7 0-1.2-.62-1.38-1.1-.6.1-.68-.26-.73-.65-.65-.27-1.9-.13-2.05-.85-2.2-.58-1.7-3.5-4.48-3.56 0-.43 0 .26-.02-.17-.64-.27-.9-.4-1.07-1.12-.6-.54-1.73-.78-1.93-1.68-.95-.2-1.5-1.64-2.54-1.78-.57-.55-.62-.9-.82-1.8 0-.2-.5.07-.65-.42-.08-.23-.44-.44-.44-.83-.1-1.6-.33.2-.02-.4.07-.14.03-.66.42-1.68.06-.16.96-.33 1.07-.44.12-.1.73-1.35.85-1.46.48-.43-.72-.17.22-.2.17-.7 1.5-.63 1.5-1.48.57-.13.55-1.67 1.27-1.68.2-1.3.87-.57 1.07-1.88 2.35-1.12 3.55-4.33 5.9-5.46 1.36-1.78 3.02-3.3 5-4.54.35-2.02 1.92-2.5 2.8-4.07 1.5-.65 3.27-3.04 4.63-4.6 1.47-.2 1.06-2.13 2.53-2.34.07-1.2 2.38-.47 2.14-1.94.88-.96 3.26-5.6 4.23-5.8.17-.4 1-2.32 2.42-3.9.55-.62.86-1.26 1.36-1.76.87-.86 2.63-.18 2.8 0"/><path d="M148.73 135.1c1.75.24 3.42 2.16 3.94 3.53 1.33.63 2.34 1.56 3.02 2.78 1.32.64 2.32 1.57 3 2.8.67.3 1.4.17 1.57.94.88-.1 1.28.6 1.44 1.14 1.34.63 3 1.12 3.68 2.35 1.77.2 2.44 2.46 3.1 2.52 1.3 2.28 4.92 2.78 6.22 5.06 1.35-.08.65 1.36 2.07 1.2.2.76 2.36.55 2.37 1.48.6.36.36.64 1.4.6.2.76 1.5.48 1.5 1.4 1.76.47 2.02 2.3 3.77 2.78-.2 1.12.72 1.2.77 2.1.46.6.9 1.23 0 1.37-.1 1.77-1.1 2.7-3.02 2.8-.12.8-.64-.1-1.52 0-.12.82-1.56.3-2.44.42-4.6-.53-5.32.62-9.78.2-3.8-.66-9.6.04-13.38-.63H144.4c-2.77.46-5.1-.02-7.66.63-3.32 0-7.63.2-13.1.2-3.24-.7-7.53.22-10.65-.6-9.1.8-15.72.95-24.88.6-2.96.52-5.6-.42-8.43.2-3.16.34-6.22.34-9.12.35-2.78 0-3.96-.35-6.65-.13-3.16.36-5.43.38-8 .2-3-.23-3.84.48-7.2-.07-2.12.58-2.3-.42-4.12-.13-.98-.25-4.53-1.13-3.54-1.64-1.2-1.33-1.2-2.9.22-4.3.15-.57 2.2-.87 2.2-1.57-.13-.8.16-1.24.74-1.4.8-2.04 3.4-2.4 5.28-3.47 1.18-1.7 2.7-3.08 4.5-4.18.44-1 1.2-1.7 2.27-2.1.6-.58 2.07-.4 2.26-1.37 2.06.5 1.52-1.38 3.02-1.4-.52-1.86 1.55-1.34 2.26-2.08.5-.93 1.62-1.3 3.02-1.4-.23-1.6 2.17-.76 2.26-2.08 1.08-.4 1.84-1.1 2.26-2.1 2.05.52 1.5-1.37 3-1.38.83-1.8 1.9-3.34 3.78-4.17.18-.76 1.5-.47 1.5-1.4.37.22 2.35-1.72 3.84-1.48.83.14 1.03 2.02 1.43 2.18.4.17 1.1-.2 1.5 0 .1.06-.1.6 0 .7.12.12.63-.12.75 0 .13.12-.12.58 0 .7.13.1.63-.12.76 0 .5.46.54 1.36 1.5 1.38.08 1.8 2.95 1 3.02 2.78.67.32 1.35.62 1.5 1.4.9-.1 1.35.16 1.52.7 1.12.82 2 1.44 3 2.78 1.34.63 2.34 1.56 3.02 2.78 1.33.63 2.33 1.56 3 2.78 1.9-.1 2.35 1.1 3.78 1.4.27.17 1.3-.24 1.5 0 .05.04-.05.68 0 .7 2.17.42 5.07-.34 7.54 0 1.53.18 2.05-.36 3-.7.16-.06.66.1.76 0 .08-.08-.16-.07-.06-.1.42-.17 1.13-.46 1.57-.6.3-.1.33-.2 1.1-.22.24 0 1-.33 1.16-.48.07-.05.78.08.84.06.96-.2 1.48-1.07 2.44-1.22.33-1.32 1.24-.22 1.25-.92.6-.14.66-1.75 1.42-1.75.42-1 1.8-1.03 2.88-1.42.1-1.3 1.56-1.02 1.72-1.7 1.1-.38 1.84-1.07 2.26-2.07 1.84-1.1 3.34-2.48 4.53-4.17 1.5-.25 2.88-3.93 4.38-3.93 1.75.22 1.35 1 2.23.4"/></g></g></svg>