<svg xmlns="http://www.w3.org/2000/svg" viewBox="0 0 228.73989 230.40498"><g class="icon" fill="#f4c522"><path d="M187.6 63.73c2.72 4.23-1.92 7.5-3.75 9.8-1.42.18-3.67 5.1-4.37 6.03-2.14-.52-.3-.52-2.35.92-2.06.96-1.64 3.75-3.7 4.7-.17.26.26.34.03.53-.13.1-.58-.1-.7 0-.1.13.13.6 0 .7-.08.1-.63-.1-.7 0-.13.26.23 1.22 0 1.4-.05.05-.66-.07-.68 0-.15.4.1.96 0 1.4-1.88.2-1.94 2-3.47 2.55-.78 3.38-3.43 3.25-4.9 5.94-.92.24-1.27 1.87-2.27 2.04-.8 1.23-.95 2.2-1.84 2.25-1.65 1.22-.84 2.84-2.88 2.66-.17.75-.62 1-.63 1.9-1.13-.2-1.36 1.54-2.25 1.58-1.44.4-2.46 2.86-3.7 3.48-1.2 1.23-3.8 3.6-4.9 4.72-1.44 2.5-4.5 3.84-5.94 6.35-2.76 1.16-2.5 4.44-5.45 5.4-.25.93-1.23 1.1-1.4 2.1-.3.62-.6 1.24-1.38 1.4-.37.93-1.6.72-1.8 2.36-2.2-.33-2.13 2.97-3.77 3.2-.3.6-.6 1.23-1.4 1.38-.16.76-1.8.24-1.8 1.16-4.3 1.84-8.13 2.04-11.4.23-2.13-.18-3.12-1.5-4.86-2.1-.9-1.42-1.1-3.5-3.47-3.46-.25-.9-1.23-1.1-1.4-2.1-.67 0-.53-.84-.7-1.38H98.4c-.3-.86-.9-1.43-2.1-1.4-.3-.62-.6-1.24-1.4-1.4-1.3-1.7-2.16-3.84-3.46-5.55-.76-.17-.47-1.38-1.4-1.4-.12-.55-.7-.68-.7-1.38-1-.4-1.68-1.08-2.07-2.08-2.05-.98-2.82-3.23-4.87-4.2-.1-2.67-2.82-2.73-3.47-4.85-3.43-2.37-5.62-5.97-9.04-8.34-.02-3-3.47-2.55-3.5-5.55-1.67-1.1-3.06-2.5-4.16-4.17-1.4-.2-1.36-1.9-2.78-2.1.22-1.6-2-.76-2.08-2.07-1.03-.36-.52-.64-1.55-1-.4-1-1.05-2.07-2.05-2.46-.6-.56-1.68-1.9-2.66-2.1-.37-.56-.72-1.12-.7-2.08-.85-.3-1.42-.9-1.38-2.1-.62-.3-1.25-.6-1.4-1.38-1.45-.63-4.75-3.54-4.72-5.66-.96-.9-1.22-1.64-1.23-3.48 1.22-.63 4.08-2.05 5.52-2.46 2.2.34 3.58-.77 6-.2.1.8.35-.32 1.17-.2.98-.07 2.75-.62 2.86.2.9-.96 2.66-.4 4.5-.42 5.26-.54 10.57.6 15.17-.6 10.9 0 21.7-1.08 32.58-1.08 2.22-.57 5.35.8 7.18-.16 15.6.62 31.83-.72 47.13.2 4.62 0 7.13-.12 11.9 0 2.1.22 4.5-.4 5.4.66 2.45-.13 4.62 1.2 6.5 1.65M32.5 80.27c1.2 1 3.97 3.25 4.96 5.56 1.02.37.36 1.6 1.38 1.98.54.6.88.57 1.04 1.5 1.88.66 2.9 2.1 4.8 2.76.66 1.75 2.68 2.3 3.35 4.04 1.74.58 1.7 2.75 2.67 4.02 1 .4 1.67 1.07 2.03 2.03.85.3 1.4.88 1.33 2 1.43.87 2.56 2 3.4 3.4 1.8.72 2.25 2.66 4.06 3.4-.2 2.3 2.3 2.22 2.67 4 .67.05.5.83.65 1.35.6-.1.65.27.68.67.9.26 1.05 1.2 2.04 1.37.6.55.36 1.82 1.34 2 .6.56.37 1.83 1.34 2.02-.18.24.2 1.15-.04 1.32-.08.06-.65-.1-.7-.02-.12.23.18 1.16-.03 1.3-.1.1-.6-.1-.7 0-.3.36-.4.93-.72 1.3-.2.2-.97-.03-.72.63-1.85.62-2.4 2.52-4.26 3.15-.1 1.24-2.3.4-2.14 1.9-.92.22-1.12 1.14-2.12 1.27-1.75.5-2.84 1.77-4.72 3.08-.42.25-1.06-.4-.92.05.27.9-.46.96-.55 1.07-.1.12-.03-.54-.15-.43-.08.05-.66-.1-.7-.03-.16.32.2 1.02-.04 1.3-.07.1-.58-.1-.68 0-.12.1.1.54-.02.65-.12.1-.58-.13-.7-.02-.1.1.08.52 0 .65-.3.44-.6.72-.75 1.3-1.95 1.2-3.6 2.7-5 4.46-1.23.57-2.18 1.42-2.84 2.56-.93.63-2.6.55-2.83 1.9-2.14 1-2.7 2.02-6.22 1.65-1.9.44-.57-1.36-2.47-1.1-.58-.54-.48-1.53-1.46-1.73-.32-2.06.32-3.8-.46-5.44.83-11.06-1.73-23.85-.7-35.77.12-1.52-.23-2.8.8-3.92.03-2.17-1.1-3.3-.53-5.93-.45-2.02.6-1 .16-3.02-.04-.93-.97-2.05-.15-2.14-.1-.76.13-2.17.68-2.3-1.2-2.12.5-3.1.2-6.78 1.23-.56.9-3.06 2.54-3.22.23 0 1 .22 1.22.23M200.6 79.16c.1.1.4-.6.5.33.06.4.07.82.12 1.3.1 1.1.13 2.77.2 3.94.13 1.97-.2 3.73-.25 4.24-.07.58.03 1.8.15 1.9.06.04-.35 1.35-.33 1.4.25.8-.15 3.74.04 4.54.14.6.3.6.44 1.5.13.85-.52-.07-.42.77.83 2.7-.22 5.83-.3 9.34 1.07 4.63-.02 10.1.98 14.8.45 4.65-.3 8.8-.2 12.8.08 3.1-.08 7.12.53 8.73-.2 1.5-1.05 1.05-.6 3.13-.65.28-.93 1.37-1.07 2.08-.84-.1-2 .15-2.15.65-.72-.34-.03.67-1.95-.13-1.5-.36-2.56-1.3-3.84-1.85-.95-.22-1.96-1.52-3-1.67-.18-.7-1.4-.38-1.4-1.23-.17-.54-2.62-2.05-4.36-2.86-1.2-1.73-2.33-2.72-4.57-3.5-.5-1.48-2.12-1.2-2.62-2.67-.7 0-1.2-.62-1.38-1.1-.6.1-.68-.26-.73-.65-.65-.27-1.9-.13-2.05-.85-2.2-.58-1.7-3.5-4.48-3.56 0-.43 0 .26-.02-.17-.64-.27-.9-.4-1.07-1.12-.6-.54-1.73-.78-1.93-1.68-.95-.2-1.5-1.64-2.54-1.78-.57-.55-.62-.9-.82-1.8 0-.2-.5.07-.65-.42-.08-.23-.44-.44-.44-.83-.1-1.6-.33.2-.02-.4.07-.14.03-.66.42-1.68.06-.16.96-.33 1.07-.44.12-.1.73-1.35.85-1.46.48-.43-.72-.17.22-.2.17-.7 1.5-.63 1.5-1.48.57-.13.55-1.67 1.27-1.68.2-1.3.87-.57 1.07-1.88 2.35-1.12 3.55-4.33 5.9-5.46 1.36-1.78 3.02-3.3 5-4.54.35-2.02 1.92-2.5 2.8-4.07 1.5-.65 3.27-3.04 4.63-4.6 1.47-.2 1.06-2.13 2.53-2.34.07-1.2 2.38-.47 2.14-1.94.88-.96 3.26-5.6 4.23-5.8.17-.4 1-2.32 2.42-3.9.55-.62.86-1.26 1.36-1.76.87-.86 2.63-.18 2.8 0"/><path d="M148.73 135.1c1.75.24 3.42 2.16 3.94 3.53 1.33.63 2.34 1.56 3.02 2.78 1.32.64 2.32 1.57 3 2.8.67.3 1.4.17 1.57.94.88-.1 1.28.6 1.44 1.14 1.34.63 3 1.12 3.68 2.35 1.77.2 2.44 2.46 3.1 2.52 1.3 2.28 4.92 2.78 6.22 5.06 1.35-.08.65 1.36 2.07 1.2.2.76 2.36.55 2.37 1.48.6.36.36.64 1.4.6.2.76 1.5.48 1.5 1.4 1.76.47 2.02 2.3 3.77 2.78-.2 1.12.72 1.2.77 2.1.46.6.9 1.23 0 1.37-.1 1.77-1.1 2.7-3.02 2.8-.12.8-.64-.1-1.52 0-.12.82-1.56.3-2.44.42-4.6-.53-5.32.62-9.78.2-3.8-.66-9.6.04-13.38-.63H144.4c-2.77.46-5.1-.02-7.66.63-3.32 0-7.63.2-13.1.2-3.24-.7-7.53.22-10.65-.6-9.1.8-15.72.95-24.88.6-2.96.52-5.6-.42-8.43.2-3.16.34-6.22.34-9.12.35-2.78 0-3.96-.35-6.65-.13-3.16.36-5.43.38-8 .2-3-.23-3.84.48-7.2-.07-2.12.58-2.3-.42-4.12-.13-.98-.25-4.53-1.13-3.54-1.64-1.2-1.33-1.2-2.9.22-4.3.15-.57 2.2-.87 2.2-1.57-.13-.8.16-1.24.74-1.4.8-2.04 3.4-2.4 5.28-3.47 1.18-1.7 2.7-3.08 4.5-4.18.44-1 1.2-1.7 2.27-2.1.6-.58 2.07-.4 2.26-1.37 2.06.5 1.52-1.38 3.02-1.4-.52-1.86 1.55-1.34 2.26-2.08.5-.93 1.62-1.3 3.02-1.4-.23-1.6 2.17-.76 2.26-2.08 1.08-.4 1.84-1.1 2.26-2.1 2.05.52 1.5-1.37 3-1.38.83-1.8 1.9-3.34 3.78-4.17.18-.76 1.5-.47 1.5-1.4.37.22 2.35-1.72 3.84-1.48.83.14 1.03 2.02 1.43 2.18.4.17 1.1-.2 1.5 0 .1.06-.1.6 0 .7.12.12.63-.12.75 0 .13.12-.12.58 0 .7.13.1.63-.12.76 0 .5.46.54 1.36 1.5 1.38.08 1.8 2.95 1 3.02 2.78.67.32 1.35.62 1.5 1.4.9-.1 1.35.16 1.52.7 1.12.82 2 1.44 3 2.78 1.34.63 2.34 1.56 3.02 2.78 1.33.63 2.33 1.56 3 2.78 1.9-.1 2.35 1.1 3.78 1.4.27.17 1.3-.24 1.5 0 .05.04-.05.68 0 .7 2.17.42 5.07-.34 7.54 0 1.53.18 2.05-.36 3-.7.16-.06.66.1.76 0 .08-.08-.16-.07-.06-.1.42-.17 1.13-.46 1.57-.6.3-.1.33-.2 1.1-.22.24 0 1-.33 1.16-.48.07-.05.78.08.84.06.96-.2 1.48-1.07 2.44-1.22.33-1.32 1.24-.22 1.25-.92.6-.14.66-1.75 1.42-1.75.42-1 1.8-1.03 2.88-1.42.1-1.3 1.56-1.02 1.72-1.7 1.1-.38 1.84-1.07 2.26-2.07 1.84-1.1 3.34-2.48 4.53-4.17 1.5-.25 2.88-3.93 4.38-3.93 1.75.22 1.35 1 2.23.4"/></g></svg>