<svg xmlns="http://www.w3.org/2000/svg" viewBox="0 0 228.73989 230.40498"><path d="M169.783 56.995c.21 1.603 2.36 1.265 2.038 3.398 1.344.47 1.813 1.814 2.04 3.4.95 2.672 2.158 5.09 3.398 7.475-.09 1.675-.103 3.275.68 4.077V86.22c-.555 2.162-.433 5.003-1.36 6.795.418 3.138-1.525 3.912-1.358 6.797-1.846-.487.486 3.205-1.36 2.718.563 1.922-.96 1.76-.68 3.398-.51 2.21-1.23 4.207-2.04 6.117-.892 1.825-1.822 3.613-2.717 5.438-1.035 1.682-1.394 4.042-3.4 4.756.497 1.854-1.35 1.368-1.358 2.718-1.566-.208-.755 1.964-2.037 2.04-.634 1.86-2.085 2.897-2.72 4.757-.353 1.005-1.005 1.713-1.36 2.718-1.567-.21-.754 1.964-2.038 2.04-.354 1.005-1.005 1.71-1.36 2.717-1.566-.207-.754 1.963-2.04 2.04-.38.978-1.057 1.658-2.037 2.04.496 1.853-1.35 1.368-1.36 2.718-.64 2.075-3.305 2.13-3.397 4.756-1.647 1.073-3.006 2.433-4.078 4.078-2.145.573-1.933 3.505-4.078 4.078-2.087 3.122-5.387 5.033-7.476 8.155-1.854-.495-1.368 1.35-2.72 1.36-.238.892-1.195 1.068-1.358 2.04-2.398.093-3.038 1.943-5.436 2.038-.297.835-.87 1.396-2.04 1.36-.296.835-.87 1.395-2.04 1.357-3.136 1.395-5.712 3.348-9.512 4.078-3.533.36-5.448-.898-8.157-1.36-2.524-.42-4.27-1.618-6.795-2.038-.01-1.35-1.854-.863-1.36-2.717-.66-.02-.526-.833-.68-1.36-.79.11-1.207-.15-1.357-.68-.382-.98-1.062-1.658-2.04-2.038.03-1.163-.504-1.76-1.36-2.04.497-1.855-1.35-1.368-1.36-2.718-.584-.548-.403-1.862-1.358-2.04-.58-1.912-2.195-2.787-2.04-5.435-.66-.02-.525-.833-.68-1.36-.127-.552-.68-.678-.677-1.36.086-1.22-.832-1.433-.68-2.718-.73-1.762-1.652-3.334-1.36-6.116-1.845.485.487-3.205-1.36-2.72.288-1.42-.464-1.8-.68-2.718-.373-2.116-.554-4.428-1.358-6.117-.056-2.434-1.056-3.925-1.36-6.116.563-1.92-.957-1.76-.68-3.398-.584-.55-.402-1.862-1.36-2.04-.056-2.435-1.055-3.927-1.357-6.117-.572-.79-.897-1.82-.68-3.4-.98-.153-.237-2.026-1.36-2.036-.32-4.663-1.652-8.317-2.718-12.234-.764-1.73-1.67-3.314-2.72-4.758-.1-1.063-1.354-1.46-2.037-2.038-.197-.167-.497-1.277-.68-1.36-.377-.17-.964.13-1.36 0-1.587.225-2.807.817-4.078 1.36-.2 1.386-1.836 1.332-2.037 2.717-1.202.613-1.984 1.64-3.4 2.04-.098 1.486-1.71 1.46-3.397 1.36-2.587.32-4.24-.29-4.757-2.04-1.964-.3-3.097-1.432-3.397-3.4-.212-2.077.43-3.297 1.36-4.755.087-.138-.112-.568 0-.68.083-.086.625.098.678 0 .524-.956.747-1.738 1.36-2.72.234-.373.637.104.68-.68.03-.555.76-.672.68-1.358 2.897-1.86 4.577-4.937 7.475-6.797 1.86-2.897 4.936-4.578 6.795-7.476.98-.38 1.658-1.06 2.04-2.04 1.163.03 1.76-.503 2.038-1.36.893-.238 1.068-1.195 2.038-1.358.55-.584 1.863-.404 2.04-1.36.79.112 1.21-.15 1.36-.68 2.19.15 2.875-1.2 5.436-.68.112-.794 1.24-.572 2.04-.678 1.1.19 1.17-.642 2.04-.68 2.955-.894 6.977-.725 10.193-1.36 2.31.638 4.98.91 7.475 1.36.186 1.4 2.53.64 2.718 2.04 1.006.353 1.715 1.005 2.718 1.36.586.546.405 1.86 1.36 2.036.586.55.405 1.863 1.36 2.04-.446 2.487 1.47 2.608 1.36 4.758.604 1.66 1.585 2.946 1.36 5.437.53 1.51 1.428 2.65 1.36 4.757.67 1.596 1.19 3.338 1.358 5.437.922.21.565 1.702.68 2.718.796.11.573 1.24.68 2.04.98 3.096.613 7.54 1.357 10.872.225 1.59.818 2.81 1.36 4.078-.19 1.1.644 1.17.68 2.04-.06.964-.112 1.924.68 2.04-.49 4.792 1.528 7.08 1.36 11.55-.524 2.564.83 3.25.678 5.44.528.604.732 1.534.68 2.717.605.302 1.216.597 1.36 1.36.903-.683 2.528-.643 2.718-2.038 1.568.207.756-1.965 2.04-2.04-.506-2.092 1.866-1.307 1.36-3.398 1.566.207.755-1.965 2.038-2.04 1.085-1.86 2.538-3.353 3.398-5.437.302-.605.598-1.215 1.36-1.36-.11-.79.15-1.21.68-1.36.093-1.264.445-2.27 1.358-2.718.406-5.937 3.025-9.66 2.72-16.31-1.02-1.926-.76-5.13-2.04-6.797-1.51-.98-3.278-1.706-6.118-1.36h-4.076c-.892-.24-1.07-1.195-2.04-1.36-.06-1.126.08-2.27 0-3.396.006.07-.656-.247-.68-.68-.027-.542.81-.684.68-1.36.65-1.388 1.39-2.69 2.04-4.077.66-.018.528-.832.68-1.36.578.125.64-.265.678-.678.662-.02.528-.833.68-1.36.578.125.64-.265.68-.68.65-1.388 1.388-2.69 2.038-4.078.98-.38 1.66-1.06 2.04-2.04 1.005-.352 1.713-1.005 2.718-1.36.716-2.002 3.076-2.36 4.757-3.397-.206-1.566 1.965-.755 2.04-2.04 1.006-.35 1.714-1.004 2.72-1.36 1.824-.89 3.613-1.823 5.436-2.716 1.422.288 1.8-.465 2.72-.68h6.115c3.206-.033 5.15 1.193 8.158 1.36 3.53-.36 5.446.896 8.155 1.358" class="icon" fill="#f4c522" fill-rule="evenodd"/></svg>