<svg xmlns="http://www.w3.org/2000/svg" viewBox="0 0 228.73989 230.40498"><path d="M22.3 179.3c-.86.27-.56-2.34-1.36-1.02.6.02.7 2.23 1.37 1.03M15.8 65.5c-.27.07-.4.28-.34.68.27-.08.4-.3.34-.7.48-.08.4-.74.7-1 .42-.15.7-.46.67-1.04-1.45-.32-1.46.82-1.37 2.05m-1.7 3.08c.83.53 1-1.17.33-1.03-.02.2-.05.4-.34.34v.68zm13 119.3c-1.05.05-1.53-1.2-1-1.72-.24-1.03-1.33-1.2-1.04-2.74-.83-.14.2 1.56-1.03 1.03-.2-.72-.85-.98-.7-2.06-.18-.5-.52-.85-1.02-1.04-.16-.5-.5-.86-.67-1.37-.8.1-.38-1-1.03-1.04-.18-.5-.5-.86-.7-1.37-.3-.6-.75-1.07-1.36-1.38.06-.4-.07-.6-.34-.7.28-1.86-1.14-2.04-1.03-3.76-.43.08-.45 1.03 0 1.03.1.54-.32.58-.34 1.02-.98.05-.42-1.45-1.03-2.06-.25-1.05.6-1 .34-2.05-.3-.2-.6-.4-.68 0 0 .34-.42.27-.7.35 0-1.04-1.44-1.98.36-2.06-.3-.28-.2-.95-.7-1.04-.17-.27-.35-.55-.33-1.03-.7-.23-.93-.9-1.04-1.7-.12.08-.6-.12-.7 0 0 0 .03.33 0 .33-.26.02-.33-.4-.67-.34 0-.58-.27-.9-.7-1.03.03-.5.06-.98-.34-1.04.16-1.07-.5-1.34-.7-2.05-.48-.07-.1-1.02-.67-1.02-.2-.28-.37-.56-.35-1.03-.2-.72-.85-.98-.7-2.06.7-.12 1.08.06 1.04.68.86-.04.67-1.15.67-2.06-.78-.1-1.28.1-1.37.7-.5-.1-.12-1.04-.68-1.04.1-.55-.33-.6-.35-1.03-.2-1.1.24-1.6.35-2.4 0-.58-.26-.9-.7-1.03.16-.7-.22-.9-.33-1.37-1.05.42.36 1.18 0 2.06-.8.1-.4-.98-1.04-1.02.04-.6-.42-.72-.34-1.37.48.04.97.07 1.03-.33.16-1.08-.93-.9-1.03-1.72v-1.03c-.06-.4.07-.6.34-.68 0-.68-.94-.44-.7-1.37-1 0 .5 2.54-1 2.05v-3.42c.26-.2.54-.36 1-.35.17.5.32-.03.7 0 .13-.58-.27-.64-.7-.68-.26-.07-.33-.35-.67-.35.22-2.4-.46-3.9-.7-5.82-.9-.1.32 1.92-1.02 1.37-.23-.84-.7-1.76.68-1.7-.47-.46-.34-1.5-.34-2.4-.76-.06-.15-1.47-.34-2.07-1.1-.43-.27 1.1-1.38.68-.22-1.36.9-1.37.7-2.74-.83-.13.18 1.56-1.04 1.03-.35-.9-.4-2.1-.34-3.43.37-.08.23-.68.68-.68.3-.16.62-.3.7-.7-.13-.38-.6-.86-.7-.33-.45.4-.54.13-1.02 0-.3-1.3-.45-2.75-.35-4.46 1.35-.55.12 1.48 1.03 1.37v2.06c.58.13.65-.27.7-.7v-1.36c.24-1.05-.96-.66-.7-1.7-.05-.86.54-1.07.7-1.73.02-1.4.05-2.8-.36-3.76.08-.32-.1-.7 0-1.02.04-.12.35-.45.35-.35.02-.6-.4-.72-.35-1.37.46-.22.64-.73.7-1.37-.05-.6.4-.72.33-1.37.34-.8.6-1.7.7-2.74.03-.62-.43-.73-.35-1.37-.2-.28-.36-.56-.35-1.03-.58.12-.64-.27-.68-.7.02-1.52.78-.43 1.37-1.02-.27-2.1.45-3.2.34-5.14-.42.15-.7.44-.68 1.03.06.28-.14.3-.35.33.25.8.94 2.93-.68 2.74-.1-.12.1-.6 0-.68-.03-.03-.34 0-.35 0 0-.1-.05-.66 0-.7.02 0 .35.02.35 0 .02-.63-.02-1.05 0-2.05.35-.8.2-2.07.68-2.75.93-.24-.24 1.62.7 1.38.45-.1.27-.86.33-1.38.28-.18.56-.35 1.03-.34-.3-.85-.68-2.66 0-3.43.24-1.05-.6-1-.35-2.05.7-.2 1.1-.72 1.7-1.03-.36-1.28.86-.98.7-2.06-.1-.44-.7-.35-.7 0-.4-.06-.28-.63-.33-1.04V82.3c.25-1.12.62-2.13 1.03-3.1.96.6.32.9.34 2.06-.13.45-.62.54-.7 1.03v1.36c.34 0 .27-.42.35-.68.3.06.32-.14.34-.34-.04-.5-.07-.98.33-1.03.27-.76.72-1.33.7-2.4.36-.08.22-.68.67-.68.07-.28.35-.34.35-.68.64-.04.23-1.14 1.02-1.03-.22-1.25.75-1.3.7-2.4.92-.1.6-1.43 1.36-1.7-.03-.5-.06-.98.34-1.03v-2.4c.97-.07.43-1.63 1.72-1.38.3-1.18.5-2.46 1.02-3.43v-2.4c.43-.48 1.67-.15 1.7-1.03.66-.15.63-.98 1.72-.7-.14-.53-1.07-.28-.68-1.36.48-.03.97-.06 1.03.34.78.1.37-1 1-1.02.2-.5.55-.84 1.04-1.03-.04-.62.42-.73.35-1.37.7-.1.66-.93 1.36-1.03-.24-.92.7-.67 1.03-1.03-.3-1.65 1.5-1.24 1-3.1 1.04.42 1.18.1 2.07-.33-.2-.3.33-.27.34-.33.06-.24-.6-.82-.33-1.37.33 0 .27-.42.34-.7.3.08.34-.12.36-.33.4-.06.3-.63.34-1.03.7-.1.67-.93 1.37-1.03-.07-.97-.04-1.86 1.03-1.7.1.55-.33.6-.34 1.03.8.1.38-1 1.02-1.03.37-.32.1-1.27 1.03-1.03.52-.15-.12-.44 0-1.03.46-.4.55-.13 1.04 0 .6-.3.57-1.26 1.37-1.37.32-.6.78-1.06 1.38-1.37.2-.7.72-1.1 1.03-1.72.38-.08.24-.68.7-.68.18-.28.36-.56.34-1.03.8-.1.64-1.2 1.7-1.03.06-.64.24-1.14.7-1.37.14-.82-.63-.74-.34-1.7.58-.14.64.25.68.67.86.06 1.08-.52 1.37-1.03.38-.07.24-.67.7-.67.27-.07.33-.34.68-.34-.13-.46-.6-.55-.7-1.04V27.8c.34-.02.28-.43.35-.7h.7c.32 0 .25-.42.33-.7.3.08.33-.12.35-.33.28-.05.35-.36.7-.34-.05 0 .12.33.33.34h.34c.05-.6-.4-.72-.34-1.37.55-.03 1.3.17 1.37-.34.5.03.97.06 1.03-.34.54.02 1.3-.17 1.37.34.5-.2.84-.54 1.03-1.03h1.72c.33 0 .26-.42.34-.7.3.08.32-.12.34-.33.3-.15.6-.3.7-.68 1.2-.15 1.87-.87 2.4-1.72.26.07.33.35.67.34.6-.3 1.06-.76 1.37-1.37H59c.33 0 .26-.42.34-.68.3.05.32-.15.34-.35.4-.06.3-.63.34-1.03h1.37c.88-.38 1.64-.87 2.05-1.72h1.03c.8-.1.64-1.2 1.7-1.03.32-.6 1.27-.56 1.38-1.37.4-.05.6.08.7.35.48-.2.83-.54 1.02-1.03 1.05.25 1.25-.35 2.05-.35.43-.15.7-.43.7-1.02h1.02c.6-.3 1.06-.77 1.37-1.37.3-.1.75.13 1.03 0 .16-.08.2-.63.34-.7.12-.05.6.1.68 0 .02-.02-.03-.33 0-.33.32-.1.7.07 1.02 0 .66-.15.63-.98 1.72-.7.06-.4.62-.28 1.03-.33 0-.34.42-.27.68-.34.1-.38.68-.24.7-.7h1.02c-.25-.92 1.6.26 1.37-.68h1.7c.96-.42 1.75-1 3.1-1.02.65-.15.62-.98 1.7-.7.42-.44.15-.53 0-1.02-.08-.55.34-.6.35-1.03.74-.16.66.5.7 1.03.54.1.58-.32 1.02-.34 1-.4-1.27-.3-.7-1.37h1.72c.7-.1.67-.93 1.37-1.03h2.73c.83-.14.75.63 1.72.34.7-.14.9.24 1.37.35 3.53-.22 5.77.86 9.25.7 1.63.3 3.1.77 5.14.68.57-.1.6.32 1.04.34 3.27-.18 5.36.8 8.57.7.57-.1.6.3 1.04.33h2.74c2.3.55 4.76.95 7.54 1.03.56-.1.6.32 1.03.34h3.1c.54-.1.58.32 1.02.34 3.33-.14 5.63.77 8.9.7.82-.02 1.02.58 2.07.33.27.17.55.35 1.02.33.4-.05.6.08.7.35.2.04.46-.06.68 0 .34.08.16.26.34.34.12.06.6-.1.68 0 .03.03-.03.33 0 .34.6.2 1.24.2 2.06.34.04.65 1.13.24 1.03 1.03 1.08-.17 1.2.62 2.4.35 0 .33.42.26.68.34.24.9 1.57.72 1.72 1.7.72.43 1.33.96 2.05 1.38 0 .68.94.44.7 1.37.48.2.83.54 1.02 1.03 1.33.4 1.75 1.68 3.08 2.06 0 .68.94.44.7 1.37.5.18.85.5 1.36.7.15.4.44.7 1.03.67.34.9 1.35 1.16 1.7 2.06.97-.28.9.48 1.72.34.15.3.3.62.68.7.1.36.7.22.7.67 1.04-.25.65.94 1.7.7.43.7.95 1.32 1.38 2.04.7-.13.9.25 1.37.36.08.37.68.23.68.68.97.06 1.43.63 2.4.7.25.77 1.03 1 1.7 1.36.32.6 1.28.57 1.4 1.37.6-.04.7.42 1.36.34.44.14.53.62 1.02.7-.15 1.75.52 2.67 1.02 3.77.83.14.75-.63 1.72-.34-.3 1.32.84 1.22 1.03 2.05.36.1.22.7.67.7.18.27.36.55.35 1.02.3.6.76 1.06 1.37 1.37-.1 1 .76 1.05.67 2.06.12.45.6.54.7 1.03.32 0 .25.42.33.68.3-.06.32.13.34.34.43.15.7.44.7 1.03.4.16.7.45.67 1.04 1 .15.82 1.48 1.73 1.7-.2 1.23 1.2.86 1.03 2.07.45.36 1.26.35 1.7.7-.03.6.43.72.35 1.37.38.08.25.68.7.68-.16 1.08.92.9 1.03 1.72.3.6.82 1 1.03 1.7.67.25.9.93 1.02 1.73.45.12.54.6 1.03.68.57-.1.6.33 1.04.34v1.37c.33.7.7 1.35 1.03 2.05-.02.6.25.9.68 1.03-.02.5-.05.97.35 1.03.3.3.2.95.68 1.04.18.27.36.55.35 1.03.5.07.12 1.02.68 1.02.16.3.3.6.7.68v1.7c.04.66 1.13.25 1.03 1.04.12.45.6.54.68 1.03.36.8 1.2 1.1 1.04 2.4.3.6.83 1 1.03 1.7.3.62.83 1 1.03 1.73.7 1 .86 2.56 1.37 3.77v2.4c-.06.4.07.6.34.68-.04.4.1.6.35.7-.2.8-.5 1.55-.34 2.73.13.8.36 1.48 1.04 1.72-.05.85-.06 1.66.7 1.7-.13.8.04 1.33.33 1.72V96c-.05.62.42.73.34 1.37.5.08.13 1.03.7 1.03-.05.85-.06 1.66.34 2.06-.23 1.25-.48 2.5-.34 4.1.07.5 1.02.13 1.02.7.38.1.24.68.7.7-.35 1.36-.43 3-.35 4.78-.05.86.54 1.07.68 1.72v2.4c-.1.55.33.6.34 1.03.1 1.15-.27 2.77.34 3.4.3 1.1-.54 1.07-.7 1.73-.24.93.7.7.7 1.37-.14 1.62.6 2.36.34 4.1.25.95-.68.7-.7 1.38-.08.56.34.6.36 1.03.25.95-.68.7-.7 1.38-.48.08-.1 1.03-.67 1.03-.12 1.03-.55 1.75-1.03 2.4-.14.84.62.76.34 1.73-.4.05-.3.62-.34 1.02-.4.06-.3.63-.34 1.03-.4-.05-.6.08-.7.35.07.3-.12.32-.33.34v1.37c-.03.5-.06.97.34 1.03-.26.3-.36.77-.33 1.37-.2.96-.5 1.78-.7 2.74-.45.1-.27.86-.33 1.37-.4.06-.3.63-.34 1.03-.8.1-.77 1.06-1.38 1.37v2.06c-.33.02-.26.43-.34.7-.3-.07-.32.13-.34.34-.33 0-.27.42-.34.68-.3-.06-.33.14-.35.35-.26.3-.36.77-.34 1.37-.36.08-.22.68-.67.68-.05.62.4.73.34 1.37-.45.1-.54.6-1.03.68-.3.28-.2.94-.7 1.03-.3.7-.7 1.37-1 2.06-.16.72.22.9.33 1.38-.1 1.17-.87 1.64-.7 3.08-.45.23-.63.73-.67 1.37-.8.22-.92 1.13-1.72 1.36.14 1.63-1.17 1.8-1.03 3.43-.8-.1-.38.98-1.02 1.02.14.83-.63.75-.35 1.7-.8-.1-.38 1-1.02 1.04-.27.3-.37.78-.35 1.37-.7.43-1.28 1-1.7 1.72-1.22-.2-.84 1.2-2.06 1.03-.05.63-.22 1.14-.68 1.37-.45.12-.54.6-1.03.68.14.83-.63.75-.35 1.72-.6.3-1.2.64-1.02 1.7-.6.32-1.07.78-1.37 1.38-.32.6-.84 1-1.04 1.72-.5.2-.84.53-1.03 1.02-.92-.23-.66.7-1.03 1.03h-1.03c-.3.73-1.04 1.02-1.03 2.06-1.03.34-1.7 1.03-2.05 2.06-.63-.05-.74.42-1.38.34.24 1.05-.6 1-.35 2.06-.5.17-.86.5-1.37.68.25.94-.68.7-.68 1.37-.72.2-1.1.72-1.72 1.03-.33 0-.26.42-.34.7-.3-.08-.33.12-.34.33-.6-.02-.9.25-1.03.7-.73.4-1.35.93-2.07 1.36-1.57 1.04-2.54 2.7-4.1 3.76.27.97-.5.9-.35 1.7-1 .03-1.28.8-1.72 1.38-.6.3-1.06.77-1.37 1.37-.95-.24-.7.7-1.38.7-.68 0-.44.93-1.37.7-.14.8.62.73.34 1.7-.62.3-1.07.77-1.38 1.37h-1.37c-.3.15-.62.3-.7.7-.4-.07-.6.06-.67.33-1.05-.25-1 .6-2.06.34-.1.7-1.28.32-1.37 1.03-1.4.2-2.22.98-3.77 1.03-.65.5-1.8.5-2.06 1.37-.54.03-1.3-.16-1.37.34-.3.28-.77.38-1.37.35-.86.3-1.35.94-2.4 1.03-.84.3-1.5.8-2.74.7-.08.48-1.03.1-1.03.67-.6-.04-.72.42-1.36.35-.6.3-1 .83-1.72 1.03-.1.8-1.06.76-1.37 1.37h-2.06c-.28.3-.94.2-1.03.68-.5-.03-.98-.05-1.03.35-.55.02-1.3-.17-1.37.34-.5-.03-.97-.06-1.03.34-3.48-.04-5.7 1.16-8.92 1.38-.55-.1-.6.33-1.02.35-.1.37-.68.23-.7.68-.4-.38-1.2-.38-2.05-.33-.4-.06-.6.07-.68.34-.4-.04-.6.1-.7.35-.9 0-1.94-.13-2.4.35h-2.73c-.55-.1-.6.32-1.03.34h-2.73c-.5-.03-.97-.06-1.03.34-.8-.1-1.28-.54-2.4-.34-2.46.62-5.93.24-8.9.34-.4.06-.62-.07-.7-.34-.4.06-.6-.08-.68-.34-1.4.14-2.2-.32-3.1-.7h-2.4c-1 .1-1.04-.76-2.04-.67-.44-.48-1.62-.2-2.06-.7-1.88.06-3.26-.4-4.8-.68-1.05-.24-1.25.35-2.06.35-.8-.1-1.28-.55-2.4-.35-.58.02-.88-.25-1.02-.68-.5.03-.98.06-1.03-.34h-1.72c-.08-.5-1.02-.12-1.02-.7h-1.7c-.94.26-.7-.67-1.38-.68-.64-.04-1.15-.22-1.37-.68h-1.72c-.08-.6-.6-.78-1.37-.7-.1-.45-.86-.27-1.37-.33-.02-.33-.43-.27-.7-.34-.27-.07-.34-.35-.68-.35-.3-.26-.77-.37-1.37-.34-.12-.44-.6-.53-.7-1.02-.9.03-1.35-.24-2.04-.68-.06-.05-.28.06-.34 0-.03-.04.05-.32 0-.35-.48-.22-.87-.1-1.37-.34-.18-.07.03-.3-.35-.33-.28 0-.34-.38-.7-.34-.23-.9-1.94-.33-2.04-1.37-1.08.05-1.14-.92-2.4-.7-.3-.5-.5-1.08-1.36-1.02.06-.4-.52-.17-.7-.34-.02-.03.05-.33 0-.34-.3-.1-.7.07-1.02 0-.52-.86-1.17-1.57-2.4-1.72-.2-.5-.53-.84-1.03-1.03.1-.78-1-.37-1.03-1-1.3.25-1.64-.43-2.75-.36-.08-.37-.68-.23-.68-.68-.28-.18-.56-.36-1.03-.35.1-.77-.07-1.28-.68-1.36-.17-.5-.5-.86-.68-1.37h-1.37c-.56-1.15-1.97-1.46-2.06-3.08-.3-.28-.76-.38-1.36-.36.13-.58-.27-.64-.7-.68-.25-.3-.35-.78-.33-1.37-.98-.28-.88-1.64-2.4-1.38-.05-.28-.33-.35-.33-.7.33 0 .26-.4.34-.67-.26-.2-.54-.36-1.02-.35-.4.06-.6-.07-.68-.34-.24-1.14.7-.55 1.03-.34.1-.56-.33-.6-.35-1.03 0-.35-.42-.28-.68-.36v.7c-.6-.32-1.2-.65-1.03-1.72-1.1.3-1.06-.54-1.7-.7-1.07.27-.67-.93-1.73-.67.14-.83-.63-.75-.34-1.72-.3-.2-.6-.4-.7 0-.54.1-.58-.32-1.02-.34-.28-.98.5-.9.35-1.73-.06-.4-.63-.28-1.03-.34h-1.03c-.15-.42-.44-.7-1.03-.68.37-1.3-.85-.98-.68-2.06-.28-.08-.35-.35-.7-.35.2.27.37.55.35 1.02" class="circle" fill="#f4c522" fill-rule="evenodd"/><path d="M170.9 69.16c.65-.45 1.32-.9 2.46-.88.96.1 1.47-.22 1.64-.86 1.54-.15 2.75-.6 3.27-1.73 2.72-.32 6.74-2.06 9.1-.2 1.32 5.58-3.7 5.1-3.1 10 1.14 1.17 4.72 1.1 5.8-.1l4.14-.1c.4.73.77 1.47 1.7 1.62-.2 1.04.36 2.3.07 3.32-.02.08-.76-.06-.83 0-.26.3.3 1.4.04 1.67-.1.13-.75-.1-.83.03-.86 1.4-1.7 2.66-3.24 3.38-.9.23-.52 1.67-1.62 1.7-.72.38-1.46.76-1.62 1.7-2.56-.58-1.54 2.3-4.1 1.73-.8 2.2-3.23 2.86-4.04 5.06-1.56.1-.52 2.73-2.43 2.52-.28 1.1-1.44 1.33-1.62 2.52.24 4.83-1.28 7.97-.55 13.27-.97.16-.67 1.53-.78 2.5-.8.05-.62 1.03-.8 1.68-.8.04-.6 1.03-.8 1.67-.13.68-.8.85-.78 1.68-1.02 2.26-1.93 4.64-1.5 8.3-1.68.28-.7 3.1-2.4 3.38.38 2-1.48 1.84-.74 4.17-1.7.26-.72 3.1-2.42 3.36-.07 1.54-.47 2.78-1.58 3.35.17 2.05-1.24 2.58-1.57 4.17-1.9-.2-.87 2.4-2.43 2.54-1.27 2.28-3 4.14-4 6.7-1.92.6-2.16 2.8-4.07 3.4-1.92.6-2.16 2.8-4.08 3.4-.52 1.93-2.7 2.27-3.22 4.2-1.08.32-1.28 1.48-2.45 1.7-.73.4-1.47.77-1.63 1.7-2.06-.1-2.53 1.35-4.1 1.74-2.06-.08-2.54 1.35-4.1 1.74-1.58.4-2.05 1.83-4.1 1.74-.2 1.72-3.08.85-3.27 2.56-3.3.07-4.94 1.76-8.25 1.83-2.4.96-5.86.87-8.25 1.83l-5.8.12c-2.58-.4-5.4-.56-7.48-1.5-6.9.7-11.33-1.16-18.24-.45-.04-.8-1.02-.62-1.67-.8-.2-.9-1.65-.52-1.68-1.6-.75-.37-1.5-.7-1.7-1.64.1-2.07-1.32-2.56-2.54-3.26l-9.1.2c-2.07.16-2.6-1.26-4.2-1.58-2.04.17-2.58-1.25-4.16-1.57-2.34-1.52-7.42-.17-6.73-4.83-.03-.83-.04-1.66-.06-2.5.96.13 1.47-.2 1.64-.85 1.54-.14 2.75-.6 3.28-1.72 3.63.5 4.63-1.5 8.26-1 5.2-.96 10.5-1.83 14.84-3.62-.15-1.54-.6-2.76-1.73-3.28.2-1.9-.26-3.1-1.72-3.28.22-1.92-2.4-.87-2.53-2.43-1.56-.06-.63-2.73-2.53-2.44-.15-1.54-.6-2.75-1.73-3.27.24-1.93-.2-3.18-.9-4.13.22-1.92-.2-3.17-.92-4.12.06-2.92 2.3-3.75 2.35-6.68-.83-1.67-1.76-3.24-2.6-4.9-2.12-.05-1.24-3.22-3.37-3.26.2-1.34-.8-1.4-.88-2.47-.9-.18-.6-1.63-1.7-1.62.22-1.34-.8-1.4-.87-2.46-.9-.2-.58-1.65-1.68-1.64-.17-2.05 1.25-2.6 1.57-4.17.3-1.6 2.33-1.56 1.56-4.2.23-2.3-.45-4.2-.94-5.76-.05-.16.1-.73-.02-.83-.1-.08-.78.13-.83.02-.6-1.32.08-2.5-.9-3.3-.3-3.64-1.45-6.37-1.05-10.74-.76-2.63 1.25-2.6 1.57-4.17 1.7-.26.7-3.1 2.4-3.36-.12-3.64 1.88-5.23 4-6.7 2.97-.56 4.04.87 5.84 1.53.13 2.12 3.26 1.12 3.38 3.24 2.9 1.52 4.14 4.73 7.58 5.65.38 1.02 1.1 1.68 2.5 1.6.4.74.77 1.47 1.7 1.63.8 1.44 1.9 2.53 3.4 3.24.1 2.13 3.24 1.12 3.37 3.25 1.33-.26 1.44.75 2.5.78.22.9 1.66.52 1.7 1.62 3.3-.07 5 1.55 8.3 1.48 2.95.32 4.83 1.74 8.32 1.5 3.94-.28 3.44-4.82 6.5-5.95-.46-2.6 1.1-3.26 1.55-5 1.7-.26.7-3.1 2.4-3.36-.7-3.68 2.44-2.8 2.1-6.1 1.08-.32.96-2.4 2.14-2.6 1.34.2.28-2.12 1.34-2.2 1.08-.3 1.27-1.47 2.45-1.7.72-.38 1.45-.75 1.6-1.7 4.27.05 6.62-1.76 9.05-3.5.73-.37 1.67.53 1.83-.4 1.93-.05 3.66-1.36 5.6-1.4 1.93.23 3.43.93 5 1.55 1.5 1.05 3.45-.33 3.72 1.37 3.35.16 5.42 2.34 8.78 2.5.2 1.2 2.48.25 2.52 1.6 1.33-.25 1.44.77 2.5.8.22.88 1.66.52 1.7 1.6 1.32-.25 1.43.76 2.5.8" class="icon" fill="#fff" fill-rule="evenodd"/></svg>