<svg xmlns="http://www.w3.org/2000/svg" viewBox="0 0 228.7567 230.41747"><g class="icon" fill="#f4c522"><path d="M134.6 92.1c.58.2 3.7.2 4.1-.2.3.1 4.63-.23 5.1-.4 1.6-.24 2.54-2.02 4.75-1.6 0-.97 1.14-.6 1.3-1.42.98-.17-.66-1.53.23-1.8.55-5.58.15-6.34-.87-10.93-.7-3.14-1.1-9.1-2.02-13.3.46-3.73-.63-5.77-.68-8.94-.78-.74-.22-1.74-.68-2.97-.03-.08-.6.07-.68 0-.2-.18.12-1.22 0-1.5-.04-.08-.6.08-.68 0-.22-.2.17-1.2 0-1.48-.55-3.87-.56-8.32-2.04-11.17-2.18-1.1-3.8-2.8-7.5-2.23-3.55-.17-5-.73-7.75 0 .04-1.56-1.85-.4-2.42-.44-.7-.03-1.82-.2-2.1-.3-1.13-.46-2.13-.46-3.73-.8h-2.28c-1.02.12-3.3-.2-3.5.8-1.7-.62-3.44.4-6.5-.8-1.6.72-2.86.7-4.96.9-1.33 1-2.45-.35-4 .43-1.27-.1-1.73 1.56-2.17.56-1.2-.68-3.1-.94-5.45-.35 0 .98-1.84.07-2 .88-.1.16.02-.28-.1-.13-.28.36-1.12.3-1.36.74-.38.7.33 2.24-.68 2.22-.1.88.12 2.12-.68 2.24-.1.87.12 2.1-.68 2.23v2.23c-.15.57-.02 1.46-.68 1.5.56.85-.03 1.5-.25 3.2-1.12.03.54 2.57-.44 2.74.3 1.8-1.24 1.62-.68 3.73.15 1.4-.8 2.7-.72 4.05.02.75-.5-.2-.63.4-.15.6 1.02 1.77.36 1.8 0 2.47-1.04 4.67-1.04 7.15-1.27-.22.45 3.46-.7 3.46.5 2.27-.3 2.6-.28 4.37-.4 3.92-.58 6.75-.4 10.03.2.58 1.63 2.93 3.22 3.43.92.23.88 1.3 2.3 1 0 1.22 2 .2 2.64.78 5.04-.54 7.87.85 12.82.4 2.17.1 4.7.8 7.15.62 1.13 0 1.93.05 3.07.05.74.1 2.24-.18 2.8.1 1.57-.46 3.62-.08 4.02-.2.36 0 17.47-.98 17.46-1.1"/><path d="M183.7 139.24c1.5-12.9-.7-27.25.57-40.37-.9-5.54 0-14.05-1.4-16.57-3.72-1.32-9.5-2.02-13.32-1.14-2.4.32-3.86.15-6.53.2-.18 1.07-1.92.28-2.18 1.26-1.72-.23-.3 4.4-1.72 4.5.3 1.73.48 1.56.48 2.85 0 .76-.6 1.76-.47 2.36.22.94-.17 2.03 0 2.98.03 3.27-1.86 4.6-2.98 6.7-4.06-.32-6.17 1.84-10.48 1.26-1.98 0-3.72.43-5.7.43-.88-.13-1.32-.23-1.54-.56.22.66-1.64.9-1.98.88-.87 0-18.27.7-23.1.8.3.58-2.48-.28-2.47-.25-.22.23-7.7-.87-9.33 0-3.57.16-6.06.1-9.44.45-2.7 0-3.2-.83-5.93-.83-.75 0-1.6.76-2.2.62-.57-.17-3 .15-3.02-.57-.74 0-1.14-.1-1.9-.1 0-1-1.76.23-1.94-.58-2.84-.4-5.45-1.7-6.57-3.8.3-1.27-2.34-1.82-1.24-2.14V85.76c-1.08-.43-.6-2.05-1-3.12-1-.76-2.75-.73-3.73-1.5H54.9c-1.8-.3-1.63 1.37-3.74.76-1.83-.1-3.58-.12-4.46.74-1.87-.12-2.32 1.17-3.74 1.5-1.1.64-2.36 1.1-2.23 2.97-.53.68-.75 2 0 3v4.45c-1.02 2.55-.74 6.02-.75 8.93.5 3.73-.7 5.76-.74 8.94-.58 16.46 1 30.77.74 46.9-.5 2.75-.34 5.73-.38 8.9-.02 1.77 2.4 1.8 1.87 4.08 1.44.3 1.25.3 1.56.3.88.12 1.02 1.34 1.57 0 1.7.22 2.65 1.44 2.83.14.18.05.28.1.34.16h.13c.1-.07.1-.04.03.03.2.1.44.28.6.2.1-.04 1.48.53 1.55.44.2-.24 1.93.4 2.2.22 4.4.2 10.95-.55 14.82-.9.22-1.5.1-5.35.3-6.87.26-1.74.4-5.74 1.88-6.25.7-3.03 1.67-3.05 4.07-4.38 3-1.97 7.15-2.74 11.3-3.54 9.68.48 17.6-.13 26.67-.24 3.76.45 7.22.86 11.32.98 5.82-.13 8.97.5 11.95.55 3.26-.2 4.84 0 8.76.44.12.85 1.73.92 2.8.85.94.05-.93 1.1.27.9 0 .98 1.1-.45 1.28.35 1.06.2 1.56.65 2.2 1.25.03 1.03 1.64.65 1.25 1.25-.13 1.12 2.57 4.15 1.56 4.38.18 2.4 1.57 4.65 1.57 7.5.84.16.3 2.15.63 2.8-.53 2.04-.3-.53-.3.95 1.56.25 1.88.18 4.8.18.16-.57 1.84.08 2.7.2.76 0 .9-.6 1.5-.74 2.28.54 2.5-.43 4.8.1 2.72 0 6.9-.97 9.63-.97-.12 1.6 1.1-.4 2.2 0 1.72.23 1.63-.64 2.5-1.26.3-2.18 1.17-1.32.93-4.05-.04-2.45-.58-3.38.05-6.5 1.4-6.2.8-15.25 0-21.6"/><path d="M77.35 183.56c-.87-1.25-.87-11.25.43-13.9 1.44-.92 2.6-2.16 3.46-3.72.8.12 1.23-.16 1.4-.74.8.12 1.22-.17 1.38-.75h4.16c.58-.9 2.47-.35 3.48-.75 1.45.3 2.1.1 3.04-.14 2.66.63 5.3.37 8.76.15 3.77-.56 5.63.9 9.03.75 9.36-.45 17.5-.7 26.4.74.06 1.9 2.7 1.05 2.77 2.96 1.42.23 1.36 2.03 2.78 2.25.46 2.74.74 5.67 1.4 8.2.07 1.33-.86 1.57-.7 2.98.3 2.8-1.48 3.4-2.8 4.46.04 1.28-.5 1.93-1.38 2.24.04 1.27-.5 1.93-1.38 2.23-.6-.12-.67.3-.7.76-4.13.54-7.5 1.9-12.5 1.5-.56.06-.56.96-1.25.87-.55-.08-1.9-.6-4.08 0-2.23-.17-3.2 0-5.8-.14-3-.24-5.53.75-8.2.13-6.47 0-13.1-1.63-19.57-1.63-.1-.87-1.26-.63-2.07-.74-.02-.73-.85-.58-1.4-.75-1.32-.3-1.74-1.6-3.47-1.5-.2-1.5-1.85-1.46-2.77-2.2-.23-1.53-.24-1.7-.45-3.24" fill-rule="evenodd"/></g></svg>