<svg xmlns="http://www.w3.org/2000/svg" viewBox="0 0 228.73989 230.40498"><path d="M22.314 179.303c-.87.26-.575-2.34-1.37-1.026.588.02.688 2.226 1.37 1.026m-6.512-113.81c-.268.076-.4.287-.343.686.266-.077.397-.288.342-.686.48-.09.39-.752.684-1.03.433-.14.7-.44.688-1.027-1.457-.314-1.466.82-1.372 2.057m-1.715 3.084c.844.534 1.01-1.164.34-1.028-.016.21-.048.405-.34.344v.684zm13.026 119.294c-1.06.057-1.54-1.203-1.027-1.714-.227-1.03-1.32-1.194-1.03-2.74-.822-.138.19 1.56-1.028 1.03-.196-.72-.85-.98-.685-2.058-.19-.496-.534-.838-1.03-1.03-.177-.506-.505-.862-.685-1.37-.79.105-.38-.99-1.026-1.028-.18-.508-.51-.867-.688-1.373-.31-.605-.766-1.06-1.37-1.37.055-.4-.076-.61-.345-.688.28-1.877-1.144-2.053-1.026-3.77-.44.078-.45 1.023 0 1.028.095.553-.326.59-.345 1.028-.98.045-.418-1.453-1.028-2.056-.25-1.05.59-1.01.34-2.06-.303-.21-.613-.412-.683 0-.01.336-.42.268-.687.345-.01-1.035-1.45-1.978.343-2.058-.295-.275-.205-.937-.688-1.027-.18-.278-.355-.555-.34-1.03-.677-.235-.915-.91-1.03-1.71-.122.084-.592-.114-.686 0-.016.017.017.34 0 .34-.27.017-.344-.406-.685-.34.016-.588-.254-.89-.684-1.03.03-.485.054-.97-.344-1.03.163-1.078-.49-1.34-.687-2.055-.494-.08-.12-1.025-.685-1.03-.18-.276-.357-.556-.34-1.026-.2-.718-.854-.98-.69-2.058.69-.12 1.074.07 1.03.684.875-.038.68-1.148.685-2.055-.78-.096-1.287.08-1.37.684-.495-.078-.12-1.023-.687-1.028.098-.553-.323-.592-.342-1.03-.198-1.11.233-1.593.342-2.4.016-.585-.254-.886-.684-1.026.145-.717-.236-.91-.343-1.372-1.043.42.37 1.178 0 2.056-.792.105-.383-.99-1.03-1.03.043-.613-.42-.723-.343-1.37.487.027.97.056 1.03-.34.162-1.078-.925-.908-1.03-1.715v-1.03c-.054-.396.076-.608.342-.685-.004-.683-.934-.435-.684-1.37-1.025.005.482 2.54-1.03 2.055v-3.426c.277-.185.556-.358 1.03-.345.15.498.3-.033.683 0 .126-.584-.267-.648-.684-.685-.28-.065-.344-.347-.688-.343.23-2.4-.445-3.897-.686-5.83-.91-.106.32 1.92-1.026 1.374-.222-.835-.694-1.764.685-1.714-.472-.442-.34-1.49-.342-2.4-.76-.042-.145-1.455-.342-2.057-1.11-.424-.263 1.11-1.373.686-.22-1.365.906-1.378.685-2.74-.822-.14.193 1.56-1.027 1.027-.354-.905-.41-2.106-.34-3.428.37-.085.23-.683.683-.687.308-.15.615-.3.685-.686-.12-.393-.602-.87-.685-.343-.45.41-.54.135-1.027 0-.29-1.312-.448-2.752-.344-4.455 1.35-.552.12 1.478 1.03 1.368v2.06c.582.124.646-.268.685-.687v-1.373c.255-1.053-.943-.657-.686-1.713-.052-.853.54-1.06.687-1.713.034-1.406.067-2.81-.344-3.77.076-.32-.096-.716 0-1.03.036-.12.346-.444.344-.344.02-.613-.403-.722-.344-1.37.46-.225.638-.732.685-1.37-.042-.616.42-.723.344-1.372.337-.805.6-1.685.686-2.743.044-.615-.42-.722-.342-1.37-.182-.276-.36-.557-.344-1.03-.584.127-.648-.267-.685-.686.02-1.532.782-.437 1.37-1.028-.264-2.094.45-3.208.344-5.143-.422.15-.703.44-.684 1.028.063.292-.134.324-.344.344.25.8.937 2.925-.685 2.74-.085-.123.112-.592 0-.684-.025-.02-.34.02-.344 0-.01-.076-.05-.645 0-.686.02-.015.344.015.344 0 .026-.634-.02-1.05 0-2.057.357-.785.216-2.067.685-2.742.93-.245-.245 1.616.686 1.37.466-.105.285-.856.343-1.37.277-.18.557-.358 1.028-.343-.297-.85-.67-2.658 0-3.428.248-1.05-.59-1.008-.342-2.057.713-.2 1.108-.72 1.713-1.027-.368-1.28.852-.98.686-2.058-.085-.43-.682-.346-.687 0-.4-.055-.29-.625-.343-1.028V82.29c.257-1.113.62-2.12 1.03-3.085.96.594.32.9.342 2.057-.123.45-.606.54-.69 1.028v1.372c.336-.01.268-.42.346-.687.29.064.323-.132.343-.34-.03-.488-.058-.972.342-1.03.265-.762.72-1.337.684-2.4.372-.085.233-.68.686-.686.065-.278.345-.342.345-.686.645-.04.236-1.134 1.026-1.03-.225-1.252.743-1.314.686-2.397.926-.104.614-1.443 1.37-1.715-.03-.487-.056-.97.342-1.028v-2.4c.967-.06.43-1.63 1.715-1.37.315-1.172.514-2.456 1.03-3.43v-2.4c.435-.476 1.68-.15 1.712-1.027.653-.145.62-.98 1.713-.685-.147-.538-1.077-.294-.685-1.372.488-.03.97-.057 1.03.343.79.105.38-.99 1.026-1.03.192-.49.535-.835 1.03-1.026-.043-.615.42-.724.343-1.372.7-.1.67-.928 1.37-1.028-.236-.923.71-.664 1.03-1.03-.28-1.648 1.502-1.238 1.027-3.084 1.023.41 1.167.095 2.057-.344-.214-.322.33-.283.343-.342.05-.243-.606-.823-.342-1.37.334-.01.267-.42.343-.688.29.064.326-.133.344-.342.402-.056.29-.625.344-1.03.698-.1.67-.926 1.37-1.028-.067-.98-.042-1.87 1.03-1.713.094.553-.324.59-.344 1.028.79.105.38-.99 1.028-1.028.367-.32.107-1.264 1.03-1.028.51-.15-.137-.44 0-1.03.448-.41.538-.135 1.028 0 .604-.31.565-1.262 1.37-1.37.31-.606.767-1.063 1.372-1.372.2-.714.72-1.108 1.028-1.714.37-.085.232-.682.685-.686.182-.275.36-.556.345-1.03.807-.104.64-1.19 1.712-1.026.048-.64.227-1.147.687-1.372.14-.826-.626-.746-.342-1.715.584-.126.646.268.684.687.86.058 1.075-.527 1.372-1.028.374-.086.233-.684.687-.687.277-.064.342-.343.686-.342-.123-.45-.605-.54-.685-1.028v-1.372c.333-.01.266-.42.342-.685h.687c.333-.01.264-.42.34-.687.292.064.324-.133.344-.34.275-.05.343-.365.685-.345-.044-.003.13.332.342.344.114.005.23-.005.342 0 .045-.617-.418-.724-.342-1.372.545-.028 1.307.165 1.37-.343.49.03.972.057 1.03-.343.544.03 1.307-.165 1.37.343.495-.192.84-.535 1.03-1.03h1.715c.334-.008.265-.418.34-.684.292.064.324-.134.344-.343.307-.152.614-.3.687-.686 1.224-.146 1.88-.86 2.4-1.714.277.067.34.345.685.343.604-.31 1.06-.766 1.37-1.37h1.37c.336-.01.267-.42.345-.686.292.062.324-.134.344-.343.402-.055.29-.625.343-1.03h1.373c.882-.372 1.646-.865 2.055-1.712h1.028c.81-.105.64-1.192 1.716-1.03.31-.603 1.26-.565 1.37-1.37.4-.055.61.076.687.342.494-.19.836-.534 1.027-1.03 1.05.25 1.25-.347 2.057-.34.423-.15.704-.44.687-1.03h1.028c.605-.31 1.064-.766 1.373-1.37.292-.106.748.133 1.028 0 .158-.075.218-.627.343-.686.127-.056.607.1.687 0 .024-.03-.03-.335 0-.343.32-.087.705.07 1.027 0 .655-.146.622-.98 1.714-.686.055-.4.625-.288 1.03-.343.01-.333.42-.267.686-.343.085-.372.682-.232.683-.685h1.03c-.245-.932 1.617.244 1.37-.687h1.715c.947-.424 1.74-1 3.086-1.03.655-.144.62-.978 1.715-.684.41-.45.134-.54 0-1.03-.097-.553.324-.59.343-1.028.73-.16.65.49.683 1.028.553.097.592-.323 1.03-.342 1.023-.405-1.254-.296-.687-1.37h1.714c.7-.103.672-.93 1.372-1.03h2.74c.827-.14.746.626 1.714.342.718-.145.91.235 1.373.344 3.534-.222 5.774.854 9.254.685 1.633.312 3.108.778 5.143.685.554-.096.59.324 1.03.343 3.268-.183 5.358.812 8.57.686.554-.097.59.324 1.026.34h2.743c2.304.554 4.756.96 7.54 1.03.555-.096.593.324 1.03.344h3.085c.553-.098.59.324 1.028.342 3.337-.138 5.63.77 8.915.685.807-.006 1.01.592 2.057.344.274.18.556.357 1.03.342.396-.057.607.076.685.342.216.04.47-.054.682 0 .352.086.17.263.345.343.122.057.603-.1.684 0 .028.033-.036.33 0 .342.59.205 1.242.188 2.057.343.038.647 1.134.237 1.028 1.03 1.083-.17 1.21.615 2.4.34.01.334.42.266.686.342.24.905 1.56.727 1.714 1.715.72.423 1.338.95 2.06 1.372 0 .68.933.436.684 1.37.494.193.836.536 1.027 1.03 1.328.383 1.753 1.673 3.087 2.056.002.68.932.436.684 1.37.508.18.866.51 1.372.687.15.422.44.704 1.026.685.358.903 1.36 1.155 1.715 2.058.97-.284.89.482 1.715.342.15.305.3.614.685.685.084.373.68.233.686.687 1.054-.255.658.94 1.713.685.423.72.95 1.336 1.37 2.056.72-.144.91.236 1.374.344.084.372.68.232.684.685.973.057 1.43.628 2.4.686.25.78 1.033 1.025 1.716 1.37.31.605 1.26.567 1.37 1.372.615-.043.723.42 1.37.344.45.12.54.603 1.03.685-.148 1.745.526 2.672 1.027 3.77.828.14.746-.626 1.715-.343-.3 1.326.838 1.22 1.03 2.057.373.085.23.68.685.685.18.275.358.555.34 1.028.31.604.77 1.06 1.373 1.37-.09 1.005.775 1.054.687 2.057.12.45.603.54.683 1.03.335.01.267.418.343.684.292-.065.323.133.342.343.422.15.706.44.686 1.027.423.15.705.44.685 1.03.99.153.81 1.474 1.714 1.713-.184 1.214 1.215.844 1.03 2.056.45.35 1.262.335 1.714.687-.043.613.42.722.344 1.37.372.085.232.682.687.686-.162 1.076.923.905 1.027 1.714.31.606.827 1 1.03 1.713.675.238.914.914 1.026 1.714.453.123.54.604 1.03.686.553-.096.59.324 1.03.343v1.37c.326.7.696 1.357 1.026 2.057-.016.588.254.888.683 1.03-.027.485-.054.97.344 1.027.296.277.204.94.686 1.03.183.275.36.555.343 1.027.493.078.12 1.024.685 1.03.154.304.302.61.688.684v1.715c.038.647 1.133.237 1.028 1.027.12.452.602.54.685 1.03.353.79 1.182 1.105 1.03 2.4.308.605.827 1 1.028 1.713.31.606.83 1 1.03 1.715.716.996.865 2.56 1.37 3.77v2.4c-.056.397.074.61.343.685-.056.397.077.61.343.686-.207.82-.492 1.563-.342 2.742.116.798.352 1.476 1.028 1.713-.05.85-.062 1.664.686 1.714-.108.794.055 1.315.344 1.713v2.4c-.042.615.42.722.343 1.37.493.08.12 1.024.687 1.03-.046.845-.054 1.65.34 2.056-.23 1.252-.476 2.492-.34 4.113.077.494 1.022.12 1.027.685.373.086.233.682.685.685-.337 1.377-.42 3.01-.343 4.8-.053.852.54 1.06.686 1.714v2.4c-.097.553.324.59.34 1.028.095 1.164-.262 2.78.345 3.43.294 1.092-.54 1.058-.685 1.713-.25.934.68.69.685 1.37-.14 1.624.613 2.36.343 4.115.25.935-.68.69-.686 1.37-.096.554.325.59.344 1.03.25.934-.68.69-.685 1.37-.494.077-.12 1.024-.686 1.027-.124 1.023-.545 1.74-1.03 2.402-.14.825.626.745.345 1.713-.4.057-.29.625-.344 1.03-.4.053-.29.624-.34 1.03-.4-.06-.61.073-.687.34.063.292-.134.323-.342.343v1.37c-.03.487-.057.97.343 1.03-.266.304-.368.774-.342 1.37-.184.96-.505 1.78-.686 2.742-.464.107-.285.857-.344 1.373-.4.054-.287.624-.34 1.026-.807.11-.77 1.062-1.374 1.372v2.056c-.33.01-.265.42-.342.686-.29-.064-.325.134-.343.34-.333.013-.267.423-.343.69-.29-.065-.324.133-.343.34-.265.306-.37.775-.343 1.373-.37.085-.23.68-.684.686-.045.612.418.722.342 1.37-.45.12-.54.604-1.027.685-.296.276-.203.94-.686 1.03-.328.7-.7 1.356-1.028 2.055-.147.716.236.91.34 1.37-.082 1.17-.863 1.65-.683 3.09-.46.222-.64.73-.685 1.367-.796.234-.92 1.14-1.715 1.373.14 1.626-1.167 1.8-1.03 3.43-.79-.11-.38.987-1.026 1.026.14.825-.626.744-.343 1.713-.79-.104-.38.99-1.03 1.03-.265.304-.368.772-.34 1.37-.72.426-1.29.996-1.715 1.714-1.214-.187-.843 1.212-2.058 1.03-.048.637-.225 1.145-.686 1.368-.45.12-.54.607-1.03.688.14.824-.624.745-.342 1.71-.598.316-1.192.64-1.027 1.716-.605.31-1.06.767-1.37 1.37-.31.605-.83 1.002-1.03 1.715-.494.193-.838.535-1.03 1.027-.92-.235-.66.71-1.028 1.03h-1.027c-.306.723-1.044 1.013-1.03 2.057-1.03.342-1.715 1.027-2.056 2.057-.614-.044-.723.418-1.37.34.246 1.05-.593 1.01-.344 2.06-.51.176-.865.505-1.37.683.248.937-.68.69-.687 1.372-.712.2-1.11.72-1.715 1.026-.332.012-.266.424-.34.69-.293-.065-.324.134-.344.34-.585-.015-.888.256-1.028.686-.72.423-1.336.95-2.057 1.37-1.576 1.055-2.538 2.72-4.113 3.773.284.97-.483.887-.343 1.715-1.006.02-1.273.783-1.713 1.37-.603.308-1.06.766-1.37 1.37-.937-.248-.69.683-1.372.685-.68.006-.435.937-1.372.688-.14.824.627.745.343 1.715-.604.31-1.06.763-1.37 1.37h-1.373c-.304.153-.614.3-.685.685-.4-.056-.61.075-.686.343-1.048-.25-1.008.592-2.057.342-.094.708-1.28.324-1.372 1.028-1.41.19-2.22.984-3.77 1.03-.646.495-1.78.502-2.057 1.37-.542.03-1.307-.165-1.372.345-.304.265-.772.366-1.37.34-.86.286-1.346.94-2.4 1.03-.837.305-1.486.797-2.744.686-.076.492-1.022.117-1.027.683-.615-.043-.723.42-1.37.342-.608.31-1 .83-1.715 1.03-.11.805-1.06.767-1.37 1.37h-2.058c-.276.297-.938.205-1.028.687-.488-.03-.97-.057-1.028.342-.544.028-1.31-.164-1.37.343-.49-.03-.974-.058-1.03.343-3.48-.052-5.706 1.153-8.912 1.372-.553-.097-.59.323-1.03.342-.084.374-.68.233-.685.685-.404-.396-1.21-.388-2.056-.345-.398-.053-.61.078-.686.344-.4-.056-.61.074-.685.343-.91.004-1.957-.13-2.4.342h-2.742c-.55-.097-.59.324-1.03.344h-2.74c-.487-.033-.972-.058-1.028.34-.805-.11-1.288-.54-2.4-.34-2.463.62-5.93.24-8.913.34-.4.055-.612-.076-.687-.34-.397.053-.607-.078-.685-.345-1.404.147-2.197-.316-3.085-.686h-2.4c-1.002.09-1.052-.776-2.057-.686-.438-.476-1.62-.21-2.057-.685-1.878.045-3.262-.397-4.8-.688-1.046-.247-1.25.35-2.057.346-.805-.11-1.286-.544-2.4-.346-.586.016-.886-.255-1.027-.685-.487.03-.973.058-1.03-.343h-1.714c-.076-.492-1.02-.12-1.026-.684h-1.714c-.938.25-.69-.682-1.374-.687-.637-.048-1.144-.225-1.37-.685h-1.714c-.083-.603-.59-.78-1.37-.685-.107-.465-.86-.284-1.373-.344-.008-.333-.42-.268-.684-.345-.277-.065-.342-.342-.685-.342-.304-.265-.773-.37-1.37-.34-.122-.454-.604-.54-.686-1.03-.913.026-1.367-.246-2.057-.686-.07-.044-.286.057-.343 0-.04-.04.045-.32 0-.343-.483-.23-.877-.1-1.37-.34-.17-.085.035-.326-.345-.345-.28-.017-.34-.387-.686-.346-.243-.897-1.956-.33-2.056-1.37-1.085.056-1.145-.91-2.4-.686-.297-.5-.51-1.085-1.37-1.028.065-.41-.516-.172-.687-.342-.028-.03.036-.334 0-.343-.314-.095-.708.075-1.028 0-.52-.853-1.174-1.568-2.4-1.713-.19-.495-.534-.84-1.026-1.03.103-.79-.992-.382-1.03-1.027-1.292.263-1.638-.42-2.743-.346-.084-.37-.68-.23-.684-.685-.277-.18-.558-.356-1.03-.342.094-.78-.083-1.29-.686-1.37-.177-.51-.507-.865-.685-1.37h-1.372c-.56-1.158-1.965-1.468-2.057-3.088-.304-.267-.774-.367-1.37-.342.126-.584-.268-.646-.686-.685-.266-.306-.37-.775-.342-1.373-.995-.262-.89-1.623-2.4-1.37-.064-.277-.344-.34-.344-.686.335-.01.266-.42.344-.686-.275-.184-.56-.36-1.03-.346-.396.057-.61-.073-.685-.34-.235-1.14.71-.55 1.03-.343.096-.553-.324-.59-.344-1.028-.01-.333-.42-.27-.686-.345v.688c-.6-.315-1.19-.638-1.028-1.713-1.093.29-1.06-.54-1.716-.687-1.053.255-.656-.94-1.712-.686.14-.825-.626-.746-.344-1.715-.305-.212-.612-.415-.685 0-.554.098-.59-.325-1.03-.343-.282-.97.485-.887.344-1.715-.054-.4-.625-.288-1.028-.343h-1.03c-.15-.422-.438-.705-1.028-.685.366-1.282-.853-.977-.685-2.056-.278-.067-.343-.347-.686-.345.183.274.36.557.343 1.027" class="circle" fill="#f4c522" fill-rule="evenodd"/><path d="M169.783 56.995c.21 1.603 2.36 1.265 2.038 3.398 1.344.47 1.813 1.814 2.04 3.4.95 2.672 2.158 5.09 3.398 7.475-.09 1.675-.103 3.275.68 4.077V86.22c-.555 2.162-.433 5.003-1.36 6.795.418 3.138-1.525 3.912-1.358 6.797-1.846-.487.486 3.205-1.36 2.718.563 1.922-.96 1.76-.68 3.398-.51 2.21-1.23 4.207-2.04 6.117-.892 1.825-1.822 3.613-2.717 5.438-1.035 1.682-1.394 4.042-3.4 4.756.497 1.854-1.35 1.368-1.358 2.718-1.566-.208-.755 1.964-2.037 2.04-.634 1.86-2.085 2.897-2.72 4.757-.353 1.005-1.005 1.713-1.36 2.718-1.567-.21-.754 1.964-2.038 2.04-.354 1.005-1.005 1.71-1.36 2.717-1.566-.207-.754 1.963-2.04 2.04-.38.978-1.057 1.658-2.037 2.04.496 1.853-1.35 1.368-1.36 2.718-.64 2.075-3.305 2.13-3.397 4.756-1.647 1.073-3.006 2.433-4.078 4.078-2.145.573-1.933 3.505-4.078 4.078-2.087 3.122-5.387 5.033-7.476 8.155-1.854-.495-1.368 1.35-2.72 1.36-.238.892-1.195 1.068-1.358 2.04-2.398.093-3.038 1.943-5.436 2.038-.297.835-.87 1.396-2.04 1.36-.296.835-.87 1.395-2.04 1.357-3.136 1.395-5.712 3.348-9.512 4.078-3.533.36-5.448-.898-8.157-1.36-2.524-.42-4.27-1.618-6.795-2.038-.01-1.35-1.854-.863-1.36-2.717-.66-.02-.526-.833-.68-1.36-.79.11-1.207-.15-1.357-.68-.382-.98-1.062-1.658-2.04-2.038.03-1.163-.504-1.76-1.36-2.04.497-1.855-1.35-1.368-1.36-2.718-.584-.548-.403-1.862-1.358-2.04-.58-1.912-2.195-2.787-2.04-5.435-.66-.02-.525-.833-.68-1.36-.127-.552-.68-.678-.677-1.36.086-1.22-.832-1.433-.68-2.718-.73-1.762-1.652-3.334-1.36-6.116-1.845.485.487-3.205-1.36-2.72.288-1.42-.464-1.8-.68-2.718-.373-2.116-.554-4.428-1.358-6.117-.056-2.434-1.056-3.925-1.36-6.116.563-1.92-.957-1.76-.68-3.398-.584-.55-.402-1.862-1.36-2.04-.056-2.435-1.055-3.927-1.357-6.117-.572-.79-.897-1.82-.68-3.4-.98-.153-.237-2.026-1.36-2.036-.32-4.663-1.652-8.317-2.718-12.234-.764-1.73-1.67-3.314-2.72-4.758-.1-1.063-1.354-1.46-2.037-2.038-.197-.167-.497-1.277-.68-1.36-.377-.17-.964.13-1.36 0-1.587.225-2.807.817-4.078 1.36-.2 1.386-1.836 1.332-2.037 2.717-1.202.613-1.984 1.64-3.4 2.04-.098 1.486-1.71 1.46-3.397 1.36-2.587.32-4.24-.29-4.757-2.04-1.964-.3-3.097-1.432-3.397-3.4-.212-2.077.43-3.297 1.36-4.755.087-.138-.112-.568 0-.68.083-.086.625.098.678 0 .524-.956.747-1.738 1.36-2.72.234-.373.637.104.68-.68.03-.555.76-.672.68-1.358 2.897-1.86 4.577-4.937 7.475-6.797 1.86-2.897 4.936-4.578 6.795-7.476.98-.38 1.658-1.06 2.04-2.04 1.163.03 1.76-.503 2.038-1.36.893-.238 1.068-1.195 2.038-1.358.55-.584 1.863-.404 2.04-1.36.79.112 1.21-.15 1.36-.68 2.19.15 2.875-1.2 5.436-.68.112-.794 1.24-.572 2.04-.678 1.1.19 1.17-.642 2.04-.68 2.955-.894 6.977-.725 10.193-1.36 2.31.638 4.98.91 7.475 1.36.186 1.4 2.53.64 2.718 2.04 1.006.353 1.715 1.005 2.718 1.36.586.546.405 1.86 1.36 2.036.586.55.405 1.863 1.36 2.04-.446 2.487 1.47 2.608 1.36 4.758.604 1.66 1.585 2.946 1.36 5.437.53 1.51 1.428 2.65 1.36 4.757.67 1.596 1.19 3.338 1.358 5.437.922.21.565 1.702.68 2.718.796.11.573 1.24.68 2.04.98 3.096.613 7.54 1.357 10.872.225 1.59.818 2.81 1.36 4.078-.19 1.1.644 1.17.68 2.04-.06.964-.112 1.924.68 2.04-.49 4.792 1.528 7.08 1.36 11.55-.524 2.564.83 3.25.678 5.44.528.604.732 1.534.68 2.717.605.302 1.216.597 1.36 1.36.903-.683 2.528-.643 2.718-2.038 1.568.207.756-1.965 2.04-2.04-.506-2.092 1.866-1.307 1.36-3.398 1.566.207.755-1.965 2.038-2.04 1.085-1.86 2.538-3.353 3.398-5.437.302-.605.598-1.215 1.36-1.36-.11-.79.15-1.21.68-1.36.093-1.264.445-2.27 1.358-2.718.406-5.937 3.025-9.66 2.72-16.31-1.02-1.926-.76-5.13-2.04-6.797-1.51-.98-3.278-1.706-6.118-1.36h-4.076c-.892-.24-1.07-1.195-2.04-1.36-.06-1.126.08-2.27 0-3.396.006.07-.656-.247-.68-.68-.027-.542.81-.684.68-1.36.65-1.388 1.39-2.69 2.04-4.077.66-.018.528-.832.68-1.36.578.125.64-.265.678-.678.662-.02.528-.833.68-1.36.578.125.64-.265.68-.68.65-1.388 1.388-2.69 2.038-4.078.98-.38 1.66-1.06 2.04-2.04 1.005-.352 1.713-1.005 2.718-1.36.716-2.002 3.076-2.36 4.757-3.397-.206-1.566 1.965-.755 2.04-2.04 1.006-.35 1.714-1.004 2.72-1.36 1.824-.89 3.613-1.823 5.436-2.716 1.422.288 1.8-.465 2.72-.68h6.115c3.206-.033 5.15 1.193 8.158 1.36 3.53-.36 5.446.896 8.155 1.358" class="icon" fill="#fff" fill-rule="evenodd"/></svg>