<svg xmlns="http://www.w3.org/2000/svg" viewBox="0 0 228.73989 230.40498"><path d="M22.3 179.3c-.86.27-.56-2.34-1.36-1.02.6.02.7 2.22 1.37 1.03M15.8 65.5c-.27.07-.4.28-.34.68.27-.08.4-.3.34-.7.48-.08.4-.74.7-1 .42-.15.7-.46.67-1.04-1.45-.32-1.46.82-1.37 2.05m-1.7 3.08c.83.53 1-1.17.33-1.03-.02.2-.05.4-.34.34v.68zm13 119.3c-1.05.05-1.53-1.2-1-1.72-.24-1.03-1.33-1.2-1.04-2.74-.83-.14.2 1.56-1.03 1.03-.2-.72-.85-.98-.7-2.06-.18-.5-.52-.85-1.02-1.04-.17-.5-.5-.86-.67-1.37-.8.1-.38-1-1.03-1.04-.18-.5-.5-.86-.7-1.37-.3-.6-.75-1.07-1.36-1.38.06-.4-.07-.6-.34-.7.28-1.86-1.14-2.04-1.03-3.76-.44.08-.45 1.03 0 1.03.1.54-.32.58-.34 1.02-.98.05-.42-1.45-1.03-2.06-.25-1.05.6-1 .34-2.05-.3-.2-.6-.4-.68 0 0 .34-.42.27-.7.35 0-1.04-1.44-1.98.36-2.06-.3-.28-.2-.95-.7-1.04-.17-.27-.35-.55-.33-1.02-.7-.24-.93-.92-1.04-1.72-.12.1-.6-.1-.7 0 0 .02.03.34 0 .34-.26.02-.33-.4-.67-.34 0-.58-.27-.9-.7-1.03.03-.5.06-.98-.34-1.04.16-1.07-.5-1.34-.7-2.05-.48-.07-.1-1.02-.67-1.02-.2-.28-.37-.56-.35-1.03-.2-.72-.86-.98-.7-2.05.7-.12 1.08.06 1.04.68.86-.04.67-1.15.67-2.06-.78-.1-1.28.1-1.37.7-.5-.1-.12-1.03-.68-1.04.1-.55-.33-.6-.35-1.03-.2-1.1.24-1.6.35-2.4 0-.58-.26-.9-.7-1.03.16-.7-.22-.9-.33-1.37-1.05.42.36 1.18 0 2.06-.8.1-.4-.98-1.04-1.02.04-.62-.42-.72-.34-1.37.48.04.97.07 1.03-.33.16-1.08-.93-.9-1.03-1.72v-1.03c-.06-.4.07-.6.34-.68 0-.68-.93-.44-.7-1.37-1 0 .5 2.54-1.02 2.05v-3.42c.28-.2.56-.36 1.03-.35.16.5.3-.03.7 0 .12-.58-.28-.64-.7-.68-.27-.07-.34-.35-.68-.35.22-2.4-.46-3.9-.7-5.82-.9-.1.32 1.92-1.03 1.37-.22-.84-.7-1.76.7-1.72-.48-.44-.35-1.48-.35-2.4-.76-.04-.15-1.45-.35-2.05-1.1-.43-.26 1.1-1.37.68-.22-1.36.9-1.37.7-2.74-.83-.14.18 1.56-1.04 1.03-.35-.9-.4-2.1-.34-3.43.37-.08.23-.68.68-.68.3-.16.62-.3.7-.7-.13-.38-.6-.86-.7-.33-.45.4-.54.13-1.03 0-.28-1.3-.44-2.75-.34-4.46 1.35-.55.12 1.48 1.03 1.37v2.06c.58.13.65-.27.7-.7v-1.36c.24-1.05-.95-.66-.7-1.7-.05-.87.54-1.07.7-1.72.02-1.4.05-2.8-.36-3.78.08-.32-.1-.7 0-1.03.04-.1.35-.43.35-.33.02-.6-.4-.72-.35-1.37.46-.22.64-.73.7-1.37-.05-.62.4-.72.33-1.37.34-.8.6-1.7.7-2.74.03-.62-.43-.73-.36-1.37-.18-.28-.35-.56-.34-1.03-.58.12-.65-.27-.68-.7.02-1.52.78-.43 1.37-1.02-.27-2.1.45-3.2.34-5.14-.42.15-.7.44-.7 1.03.08.28-.12.3-.33.33.25.8.94 2.93-.68 2.74-.1-.12.1-.6 0-.68-.03-.03-.34 0-.35 0 0-.1-.05-.66 0-.7.02 0 .35.02.35 0 .02-.63-.02-1.05 0-2.05.35-.8.2-2.07.68-2.75.93-.24-.24 1.62.7 1.38.45-.1.27-.86.33-1.38.28-.18.56-.35 1.03-.34-.3-.85-.68-2.66 0-3.43.24-1.05-.6-1-.36-2.05.72-.2 1.12-.72 1.72-1.03-.37-1.28.85-.98.7-2.06-.1-.44-.7-.35-.7 0-.4-.06-.3-.63-.34-1.04V82.3c.26-1.12.62-2.13 1.03-3.1.96.6.32.9.34 2.06-.13.45-.62.54-.7 1.03v1.36c.34 0 .27-.42.35-.68.3.06.32-.14.34-.34-.04-.5-.07-.98.33-1.03.27-.76.72-1.33.7-2.4.36-.08.22-.68.67-.68.07-.28.35-.34.35-.68.64-.04.23-1.14 1.02-1.03-.22-1.25.75-1.3.7-2.4.9-.1.6-1.43 1.36-1.7-.03-.5-.06-.98.34-1.04v-2.4c.97-.06.43-1.62 1.72-1.37.3-1.18.5-2.46 1.02-3.43v-2.4c.43-.48 1.67-.15 1.7-1.03.66-.15.63-.98 1.72-.7-.14-.53-1.07-.28-.68-1.36.5-.03.97-.06 1.03.34.78.1.37-1 1-1.02.2-.5.55-.84 1.04-1.03-.04-.62.42-.73.35-1.37.68-.1.66-.93 1.36-1.03-.24-.92.7-.67 1.03-1.03-.3-1.65 1.5-1.24 1-3.1 1.04.42 1.18.1 2.07-.33-.2-.3.33-.27.34-.33.06-.24-.6-.82-.33-1.37.33 0 .27-.42.34-.7.3.08.34-.12.36-.33.4-.06.28-.63.34-1.03.7-.1.67-.93 1.37-1.03-.07-.97-.04-1.86 1.03-1.7.1.55-.32.6-.34 1.03.8.1.38-1 1.02-1.03.37-.32.1-1.27 1.03-1.03.52-.15-.12-.44 0-1.03.46-.4.55-.13 1.04 0 .6-.3.57-1.26 1.37-1.37.32-.6.78-1.06 1.38-1.37.2-.7.72-1.1 1.03-1.72.38-.08.24-.68.7-.68.18-.28.35-.56.34-1.03.8-.1.64-1.2 1.7-1.03.06-.64.24-1.14.7-1.37.14-.82-.63-.74-.34-1.7.58-.14.64.25.68.67.86.06 1.08-.52 1.37-1.03.38-.07.24-.67.7-.67.27-.07.33-.35.68-.34-.13-.46-.6-.55-.7-1.04V27.8c.34-.02.28-.43.35-.7h.7c.32 0 .25-.42.33-.7.3.08.33-.12.35-.33.28-.05.35-.36.7-.34-.06 0 .12.33.33.34h.34c.05-.6-.4-.72-.34-1.37.55-.03 1.3.17 1.37-.34.5.03.97.05 1.03-.34.54.02 1.3-.17 1.37.34.5-.2.84-.54 1.03-1.03h1.72c.33 0 .26-.42.34-.7.3.08.32-.12.34-.33.3-.15.6-.3.7-.68 1.2-.15 1.87-.87 2.4-1.72.26.07.33.35.67.34.6-.3 1.06-.76 1.37-1.37H59c.33 0 .26-.42.34-.68.3.05.32-.15.34-.36.4-.05.3-.62.34-1.02h1.37c.88-.38 1.64-.87 2.05-1.72h1.03c.8-.1.64-1.2 1.7-1.03.32-.6 1.27-.56 1.38-1.37.4-.05.6.08.7.35.48-.2.83-.54 1.02-1.03 1.05.25 1.25-.35 2.05-.35.43-.15.7-.43.7-1.02h1.02c.6-.3 1.06-.77 1.37-1.37.3-.1.75.13 1.03 0 .16-.08.2-.63.34-.7.12-.05.6.1.68 0 .02-.02-.03-.33 0-.33.32-.1.7.07 1.02 0 .66-.15.63-.98 1.72-.7.05-.4.62-.28 1.03-.33 0-.34.42-.27.68-.34.1-.38.7-.24.7-.7h1.02c-.25-.92 1.6.26 1.37-.68h1.7c.96-.42 1.75-1 3.1-1.02.65-.15.62-.98 1.7-.7.42-.44.15-.53 0-1.02-.08-.55.34-.6.36-1.03.73-.16.65.5.68 1.03.55.1.6-.32 1.03-.34 1-.4-1.26-.3-.7-1.37h1.72c.7-.1.67-.93 1.37-1.03h2.73c.83-.14.74.63 1.7.34.73-.14.92.24 1.4.35 3.52-.22 5.76.86 9.24.7 1.63.3 3.1.77 5.14.68.57-.1.6.32 1.04.34 3.27-.18 5.36.8 8.57.68.57-.1.6.33 1.04.35h2.74c2.3.55 4.76.95 7.54 1.03.56-.1.6.32 1.03.34h3.1c.54-.1.58.32 1.02.34 3.33-.14 5.63.77 8.9.7.82-.02 1.02.58 2.07.33.27.17.55.35 1.02.33.4-.05.6.08.7.35.2.04.46-.06.67 0 .35.08.17.26.35.34.12.05.6-.1.68 0 .03.03-.03.33 0 .34.6.2 1.24.2 2.06.34.04.65 1.13.24 1.03 1.03 1.08-.17 1.2.62 2.4.35 0 .33.42.26.68.34.24.9 1.57.72 1.72 1.7.72.43 1.34.96 2.06 1.38 0 .68.94.44.7 1.37.48.2.83.54 1.02 1.03 1.33.4 1.75 1.68 3.1 2.06 0 .68.92.44.67 1.37.5.18.86.5 1.36.7.15.4.44.7 1.03.67.35.9 1.35 1.16 1.7 2.06.97-.28.9.48 1.72.34.15.3.3.6.68.7.1.36.68.22.7.67 1.04-.25.65.94 1.7.7.43.7.95 1.32 1.37 2.04.72-.13.9.25 1.38.36.08.37.68.23.68.68.97.06 1.43.63 2.4.7.25.77 1.03 1 1.7 1.36.32.6 1.28.57 1.4 1.37.6-.04.7.42 1.36.34.44.14.53.62 1.02.7-.15 1.75.52 2.67 1.02 3.77.83.14.75-.63 1.72-.34-.3 1.32.84 1.22 1.03 2.05.36.1.22.7.67.7.18.27.36.55.35 1.02.3.6.76 1.06 1.37 1.37-.1 1 .76 1.05.67 2.06.12.45.6.54.7 1.03.32 0 .25.4.33.68.3-.06.32.13.34.34.43.15.7.44.7 1.03.4.16.7.45.67 1.04 1 .15.82 1.47 1.73 1.7-.2 1.23 1.2.86 1.03 2.07.45.36 1.26.35 1.7.7-.03.6.43.72.35 1.37.4.08.24.68.7.68-.16 1.08.92.9 1.03 1.72.3.6.82 1 1.03 1.7.67.25.9.93 1.02 1.73.45.12.54.6 1.03.68.57-.1.6.32 1.04.34v1.37c.33.7.7 1.35 1.03 2.05-.02.6.25.9.68 1.03-.02.5-.05.97.35 1.03.3.3.2.95.68 1.04.18.27.36.55.35 1.03.5.07.12 1.02.68 1.02.16.3.3.6.7.68v1.7c.04.66 1.13.25 1.03 1.04.12.45.6.54.68 1.03.36.8 1.2 1.1 1.04 2.4.3.6.83 1 1.03 1.7.3.62.83 1 1.03 1.73.7 1 .86 2.56 1.37 3.77v2.4c-.06.4.07.6.34.68-.05.4.1.6.35.7-.2.8-.5 1.55-.34 2.73.13.8.36 1.48 1.04 1.72-.05.85-.06 1.66.68 1.7-.1.8.06 1.33.35 1.72V96c-.05.62.42.73.34 1.37.5.08.13 1.03.7 1.03-.05.85-.06 1.66.34 2.06-.23 1.25-.48 2.5-.34 4.1.07.5 1.02.13 1.02.7.38.08.24.68.7.68-.35 1.38-.43 3-.35 4.8-.06.86.54 1.06.68 1.72v2.4c-.1.55.33.6.34 1.03.1 1.15-.27 2.77.34 3.4.3 1.1-.54 1.07-.7 1.73-.24.93.7.7.7 1.37-.14 1.62.6 2.36.34 4.1.25.95-.68.7-.7 1.38-.08.56.34.6.36 1.03.25.95-.68.7-.7 1.38-.48.08-.1 1.03-.67 1.03-.13 1.03-.55 1.75-1.03 2.4-.14.84.62.76.34 1.73-.4.05-.3.62-.34 1.02-.4.06-.3.63-.34 1.03-.4-.05-.6.08-.7.34.07.3-.12.33-.33.35v1.37c-.03.5-.06.97.34 1.03-.26.3-.36.77-.33 1.37-.2.96-.5 1.78-.7 2.74-.45.1-.27.86-.33 1.37-.4.06-.3.63-.34 1.03-.8.1-.77 1.06-1.38 1.37v2.06c-.33.02-.26.43-.34.7-.3-.07-.32.13-.34.34-.33 0-.27.42-.34.68-.3-.06-.33.14-.35.35-.26.3-.37.77-.34 1.37-.36.08-.22.68-.68.68-.04.62.42.73.35 1.38-.45.12-.54.6-1.03.68-.3.28-.2.94-.7 1.03-.3.7-.7 1.36-1 2.06-.16.72.22.9.33 1.38-.1 1.17-.87 1.64-.7 3.08-.45.23-.63.74-.67 1.37-.8.22-.92 1.13-1.72 1.36.14 1.63-1.17 1.8-1.03 3.43-.78-.1-.38.98-1.02 1.02.14.83-.63.74-.35 1.7-.8-.1-.38 1-1.03 1.04-.26.3-.36.78-.34 1.37-.7.43-1.28 1-1.7 1.72-1.22-.2-.84 1.2-2.06 1.03-.05.63-.22 1.14-.68 1.37-.45.12-.54.6-1.03.68.14.83-.63.75-.35 1.72-.6.3-1.2.63-1.02 1.7-.6.32-1.07.78-1.37 1.38-.32.6-.84 1-1.04 1.72-.5.2-.84.53-1.03 1.02-.92-.23-.66.7-1.03 1.03h-1.03c-.3.73-1.04 1.02-1.03 2.06-1.02.34-1.7 1.03-2.05 2.06-.63-.05-.74.42-1.38.34.24 1.05-.6 1-.35 2.06-.5.18-.86.5-1.37.68.25.94-.68.7-.68 1.37-.72.2-1.1.72-1.72 1.03-.33 0-.26.42-.34.7-.3-.08-.33.12-.34.33-.6-.02-.9.25-1.03.7-.73.4-1.35.93-2.07 1.36-1.58 1.04-2.54 2.7-4.1 3.76.27.97-.5.9-.36 1.7-1 .04-1.27.8-1.7 1.38-.6.3-1.07.77-1.38 1.37-.95-.24-.7.7-1.38.7-.68 0-.44.93-1.37.7-.14.8.62.73.34 1.7-.6.3-1.07.76-1.38 1.37h-1.37c-.3.15-.62.3-.7.7-.4-.07-.6.06-.68.33-1.04-.25-1 .6-2.05.34-.1.7-1.28.32-1.37 1.03-1.4.2-2.22.98-3.77 1.03-.65.5-1.78.5-2.06 1.37-.54.03-1.3-.17-1.37.34-.3.28-.77.38-1.37.35-.86.3-1.35.94-2.4 1.03-.84.3-1.5.8-2.75.7-.07.48-1.02.1-1.02.68-.6-.05-.72.4-1.36.34-.6.3-1 .83-1.72 1.03-.1.8-1.06.76-1.37 1.37h-2.06c-.28.3-.95.2-1.03.68-.5-.03-.97-.05-1.03.35-.55.02-1.3-.17-1.37.34-.5-.03-.98-.06-1.03.34-3.48-.04-5.7 1.16-8.9 1.38-.57-.1-.6.33-1.04.35-.1.37-.68.23-.7.68-.4-.38-1.2-.38-2.05-.33-.4-.06-.6.07-.68.34-.4-.04-.6.1-.7.35-.9 0-1.94-.12-2.4.35h-2.73c-.55-.1-.6.32-1.03.34h-2.73c-.5-.03-.97-.06-1.03.34-.8-.1-1.3-.54-2.4-.34-2.46.62-5.93.24-8.9.34-.4.06-.62-.07-.7-.34-.4.05-.6-.08-.68-.34-1.4.14-2.2-.32-3.1-.7h-2.4c-1 .1-1.04-.76-2.04-.67-.44-.48-1.62-.22-2.06-.7-1.88.06-3.26-.4-4.8-.68-1.05-.24-1.25.35-2.06.35-.8-.1-1.28-.54-2.4-.35-.58.02-.88-.25-1.02-.68-.5.03-.98.05-1.03-.34h-1.72c-.07-.5-1.02-.12-1.02-.7h-1.7c-.95.26-.7-.67-1.38-.68-.64-.04-1.15-.22-1.37-.68h-1.72c-.08-.6-.6-.78-1.37-.7-.1-.45-.86-.27-1.37-.33-.02-.33-.43-.27-.7-.34-.27-.07-.34-.35-.68-.34-.3-.27-.77-.37-1.37-.35-.12-.44-.6-.53-.7-1.02-.9.03-1.35-.24-2.04-.68-.06-.05-.28.05-.34 0-.04-.04.05-.32 0-.35-.48-.23-.87-.1-1.37-.34-.18-.07.03-.3-.35-.33-.28 0-.34-.38-.7-.34-.23-.9-1.94-.33-2.04-1.37-1.08.05-1.14-.92-2.4-.7-.3-.5-.5-1.08-1.36-1.02.06-.4-.52-.17-.7-.34-.02-.03.05-.33 0-.34-.3-.1-.7.07-1.02 0-.52-.86-1.17-1.57-2.4-1.72-.2-.5-.53-.83-1.03-1.03.1-.78-1-.37-1.03-1-1.3.25-1.64-.43-2.75-.36-.08-.37-.68-.23-.68-.68-.28-.2-.56-.36-1.03-.35.1-.77-.07-1.28-.68-1.36-.17-.5-.5-.86-.68-1.37h-1.37c-.56-1.15-1.97-1.46-2.06-3.08-.3-.28-.76-.38-1.36-.36.12-.58-.27-.64-.7-.68-.25-.3-.36-.78-.33-1.37-.98-.28-.88-1.64-2.4-1.38-.05-.28-.33-.35-.33-.7.33 0 .27-.4.34-.68-.26-.18-.55-.35-1.02-.34-.4.06-.6-.07-.68-.34-.24-1.14.7-.55 1.03-.34.1-.56-.33-.6-.35-1.03 0-.35-.42-.28-.68-.36v.7c-.6-.32-1.2-.65-1.03-1.72-1.1.3-1.06-.54-1.72-.7-1.05.27-.65-.93-1.7-.68.13-.82-.64-.74-.35-1.7-.3-.22-.6-.42-.7 0-.54.1-.58-.33-1.02-.35-.28-.98.5-.9.35-1.73-.06-.4-.63-.3-1.03-.34h-1.03c-.15-.42-.44-.7-1.03-.7.37-1.26-.85-.96-.68-2.04-.28-.08-.35-.36-.7-.35.2.27.37.55.35 1.02" class="circle" fill="#f4c522" fill-rule="evenodd"/><path d="M169.87 50.9c.4 1 1.08 1.7 2.07 2.08.6.55.4 1.9 1.38 2.07-.3 1.44 1.5 2.57 1.73 3.5.05 1.1-1.37 1.9-.34 2.03 1.26 5.6.54 8.68 1.4 12.43v8.3c.26 2.5-.63 4.6-.14 6.9-.75 2 .88 4.92.13 6.92-.35 3.6.73 8.58-.7 11.06.76 2.92.8 6.57.7 10.36-.42 2.94-.5 5.95-.7 8.98-.1 1.64.2 3.1 0 4.84-.13 1.1.32 2.03.26 3.34-.26 5.72-1.2 12.2-.95 18.08.04.84-.2 1.95 0 2.76.05.18.66.06.7.7.18 3.53-.14 9.84 0 14.5-.1 2 .37 4.53-.7 5.53-1.26 1.02-2.66 1.18-4.83 1.38-1.83.17-3.7-.13-5.53 0-2.22-.15-1.66.36-4.26-.18-.1-.8-2.53.3-3.34.18-1.12-.2-.36-.22-1.24-.18-3.75-.17-7.56-.24-11.9.18-3.88.2-6.56-.8-8.97-2.07-.62-2.03-.62-2.13 0-4.15.8-.1.58-1.26.7-2.07v-2.76c-.55-4.22-.8-8.07-.7-12.44.1-4.03 1.22-8.16.7-12.44-.06-2.94-1.16-4.83-.7-8.3.5-2.1-.7-2.5-.7-4.13.37-1.04.43-2.43.8-3.45 1.37 0 1.47-1.2 3.36-.7h3.44c2.34-.2 3.97-1.1 6.9-.7 1.37-2.33 2-5.37 2.08-8.98-.98-2.24-3.35-3.1-6.9-2.77h-2.77c-.8.12-1.23-.15-1.38-.7-2.2.6-2.14-1.07-3.46-1.37-.2-1.62-1.08-2.6-.68-4.84.8-.82-.2-1.47-.3-3.17-.53-4 .33-7.53 1.54-9.78 2.3-1.14 6-1.94 9.82-1.56.17-.76 1.37-.48 1.38-1.4 1.1.2 1.2-.65 2.07-.7.56-.35 1.12-.7 2.07-.68-.1-.8.16-1.23.7-1.38.54-2.85-1.07-3.55-.7-6.22-.4-.38-.9-.38-1.38-.7-.14-.08-.57.13-.7 0-.04-.05.08-.66 0-.68-2.6-.73-6.96.4-9.66.7-3.97.17-8.8-.53-11.75.68-1.23-.1-1.44.85-2.75.7-.17.74-1.38.46-1.38 1.37-1.62.2-1.55 2.13-2.77 2.76v9.67c-.27 2.5-.9 4.63-1.38 6.9-.22 2.55.6 6.13-.7 7.6-1 1.08-3.53.62-5.52.7-1 1.07-3.53.6-5.52.7-.12 1.95-1.27 2.87-1.4 4.83.02 1.24-.72 1.45-.68 2.76.04 1.1.48 1.2.7 2.08.4.78.8 1.75 2.07 2.07.43.1.96-.13 1.38 0 .08.02.23.57.7.7 1.07.26 2.34-.22 3.44 0 .1.8 1.25.57 2.07.68.17.75 1.37.47 1.38 1.38 1.4.2 1.35 1.87 2.76 2.07 1.05 3.72.64 9.16.7 14.5-.6 1.97-.48 4.38-.7 6.92-.2 2.55-.07 4.96-.68 6.9.77 2.93.8 6.6.7 10.38-.4 2.24.46 3.2.68 4.83.18 2.02-1.56 2.12-1.38 4.15-1.3.76-3.26.88-4.83 1.38-1.13-.2-1.2.65-2.1.7-.97-.07-2.5-1.6-2.6-.8-3.32-.83-6.8.54-10.5.1-3.6-.37-4.98.46-8.15.5-2.3 0-4.1-.3-6.4-.3-.63-.53-2.22.44-3.43.5-1.1-.07-2.63.32-2.76-.7-2.85.54-3.06-.47-5.73-.1-.55-.23.05.13-.62 0-.43-.08-1.08.72-1.5.6-1.02-.23-1.35.08-2.15-.3-3.46.47-7.75-.55-10.7-.6-2.73-.26-4.97.9-6.7-1.23-.3-1.3-.4-2.3-.3-4.03.8-.82-.53-3.7-.62-5.4 0-.04.5-1.08.6-2.78.5-2.12-.32-2.96-.3-4.6 1.4-6.65-.52-15.87 1.08-22.33-.5-7.42 1.15-12.7.7-20.04-.7-5.5-1.3-13.27 0-18.66V82.7c.4-3.3 1-6.4.7-10.38.8-.1.58-1.26.68-2.07V67.5c.75-.2.47-1.4 1.4-1.4 0-.7-1.2-1.35-1.2-2.04.54-4.46.16-6.83.5-11.08 1.44-.4 1.97-1.72 4.14-1.4h2.77c.97.07 1.94.13 2.06-.68H75.2c2.5-.75 6.28 1.62 8.5.63 4.7-.32 7.7-1.08 11 0 5.8-.4 10.8-.08 19.9-.63.9.96 3 .7 4.83.7 1.63-.02 2.04 1.18 4.15.68 3.75-.52 6.9-.65 10.53-1.06 3.9-.27 7.23 1.3 10.4.3.92 0 0 .32.9.32.82.1 2.3.23 2.46-.3 2.92.8 7.7-.25 12.22-.32 4.77-.12 5.37-1.12 9.8-.32" class="icon" fill="#fff" fill-rule="evenodd"/></svg>