<svg xmlns="http://www.w3.org/2000/svg" viewBox="0 0 228.73989 230.40498"><path d="M22.32 179.3c-.88.27-.58-2.34-1.38-1.02.6.02.7 2.23 1.38 1.03M15.8 65.5c-.26.07-.4.28-.34.68.27-.08.4-.3.34-.68.48-.1.4-.76.7-1.03.42-.14.7-.45.67-1.03-1.45-.32-1.46.82-1.37 2.06m-1.7 3.08c.83.53 1-1.16.33-1.03-.02.2-.05.4-.34.34v.68zm13.02 119.3c-1.07.05-1.55-1.2-1.03-1.72-.24-1.03-1.33-1.2-1.04-2.74-.82-.14.2 1.56-1.03 1.03-.2-.72-.85-.98-.7-2.06-.18-.5-.52-.84-1-1.04-.2-.5-.52-.86-.7-1.37-.8.1-.38-1-1.03-1.04-.18-.5-.5-.86-.7-1.37-.3-.6-.75-1.07-1.35-1.38.05-.4-.08-.6-.35-.7.28-1.86-1.14-2.04-1.03-3.76-.43.08-.45 1.03 0 1.03.1.54-.32.58-.34 1.02-.98.05-.42-1.45-1.03-2.06-.25-1.04.6-1 .34-2.05-.3-.2-.6-.4-.68 0 0 .34-.42.27-.7.35 0-1.04-1.44-1.98.36-2.06-.3-.28-.2-.95-.7-1.04-.17-.27-.35-.55-.33-1.02-.7-.24-.93-.92-1.04-1.72-.12.1-.6-.1-.7 0 0 .02.03.34 0 .34-.26.02-.33-.4-.67-.34 0-.58-.27-.9-.7-1.03.03-.5.06-.98-.34-1.03.17-1.08-.5-1.34-.7-2.06-.48-.07-.1-1.02-.67-1.02-.2-.28-.37-.56-.35-1.03-.2-.72-.85-.98-.7-2.06.7-.12 1.08.06 1.04.68.86-.04.67-1.15.67-2.06-.78-.1-1.28.1-1.37.7-.5-.1-.12-1.03-.68-1.04.1-.55-.33-.6-.35-1.03-.2-1.1.24-1.6.35-2.4 0-.6-.26-.9-.7-1.03.16-.7-.22-.9-.33-1.37-1.05.43.36 1.18 0 2.06-.8.12-.4-.98-1.04-1.02.04-.62-.42-.72-.34-1.37.48.04.97.07 1.03-.33.16-1.08-.93-.9-1.03-1.72v-1.03c-.06-.4.07-.6.34-.68 0-.68-.93-.44-.7-1.37-1 0 .5 2.54-1 2.05v-3.42c.26-.18.54-.36 1-.35.17.5.32-.03.7 0 .13-.58-.27-.64-.7-.68-.26-.07-.33-.35-.67-.35.22-2.4-.45-3.9-.7-5.82-.9-.1.32 1.92-1.03 1.37-.22-.84-.7-1.76.7-1.72-.48-.44-.35-1.48-.35-2.4-.76-.04-.15-1.45-.35-2.05-1.1-.42-.26 1.1-1.37.68-.22-1.36.9-1.37.7-2.74-.83-.13.18 1.56-1.04 1.03-.35-.9-.4-2.1-.34-3.43.37-.08.23-.68.68-.68.3-.15.62-.3.7-.7-.13-.38-.6-.86-.7-.33-.45.4-.54.13-1.02 0-.3-1.3-.45-2.75-.35-4.46 1.35-.55.12 1.48 1.03 1.37v2.06c.58.13.65-.27.7-.7v-1.36c.24-1.05-.95-.66-.7-1.7-.05-.86.54-1.07.7-1.72.02-1.4.05-2.8-.36-3.78.08-.32-.1-.7 0-1.03.04-.1.35-.43.35-.33.02-.6-.4-.72-.35-1.37.46-.22.64-.73.7-1.37-.05-.6.4-.72.33-1.37.34-.8.6-1.7.7-2.74.03-.62-.43-.73-.36-1.37-.17-.28-.35-.56-.34-1.03-.58.12-.64-.27-.68-.7.02-1.52.78-.42 1.37-1.02-.27-2.1.45-3.2.34-5.14-.42.15-.7.44-.7 1.03.08.28-.12.3-.33.33.25.8.94 2.93-.68 2.75-.1-.13.1-.6 0-.7-.03 0-.34.03-.35 0 0-.07-.05-.64 0-.68.02 0 .35.02.35 0 .02-.63-.02-1.05 0-2.05.35-.8.22-2.07.68-2.75.93-.24-.24 1.62.7 1.38.45-.1.27-.86.33-1.38.28-.18.56-.35 1.03-.34-.3-.85-.68-2.66 0-3.43.24-1.04-.6-1-.35-2.05.7-.2 1.1-.72 1.7-1.03-.36-1.28.86-.98.7-2.06-.1-.44-.68-.35-.7 0-.4-.06-.28-.63-.33-1.04V82.3c.26-1.12.62-2.13 1.03-3.1.96.6.32.9.34 2.06-.13.45-.6.54-.7 1.03v1.36c.34 0 .27-.42.35-.68.3.06.32-.14.34-.34-.04-.5-.07-.98.33-1.03.27-.76.72-1.33.7-2.4.36-.08.22-.67.67-.68.07-.28.35-.34.35-.68.64-.04.23-1.14 1.02-1.03-.22-1.25.75-1.3.7-2.4.92-.1.6-1.43 1.36-1.7-.03-.5-.05-.98.34-1.03v-2.4c.97-.07.43-1.63 1.72-1.38.3-1.18.5-2.46 1.02-3.43v-2.4c.43-.48 1.68-.15 1.7-1.03.66-.15.63-.98 1.73-.7-.15-.53-1.08-.28-.7-1.36.5-.03.98-.06 1.04.34.78.1.37-1 1-1.02.2-.5.55-.84 1.04-1.03-.04-.62.42-.72.35-1.37.68-.1.66-.93 1.36-1.03-.24-.92.7-.66 1.03-1.03-.3-1.65 1.5-1.24 1.02-3.1 1.02.42 1.16.1 2.05-.33-.2-.3.33-.27.35-.33.04-.24-.6-.82-.35-1.37.33 0 .27-.42.35-.7.3.08.32-.12.34-.33.4-.06.3-.63.34-1.03.7-.1.67-.93 1.37-1.03-.07-.97-.04-1.86 1.03-1.7.1.55-.32.6-.34 1.03.8.1.38-1 1.03-1.03.35-.32.1-1.27 1-1.03.52-.15-.12-.44 0-1.03.46-.4.55-.13 1.04 0 .6-.3.57-1.26 1.37-1.37.32-.6.78-1.06 1.38-1.37.2-.7.72-1.1 1.03-1.7.38-.1.24-.7.7-.7.18-.28.36-.56.34-1.03.8-.1.64-1.2 1.72-1.03.04-.64.22-1.14.68-1.37.14-.82-.63-.74-.34-1.7.58-.14.64.26.68.67.86.06 1.08-.52 1.37-1.03.38-.07.24-.67.7-.67.27-.07.33-.34.68-.34-.13-.46-.6-.55-.7-1.04V27.8c.34-.02.28-.43.35-.7h.7c.32 0 .26-.42.33-.68.3.06.33-.14.35-.35.28-.05.35-.36.7-.34-.05 0 .12.33.33.34h.35c.04-.6-.42-.72-.35-1.37.55-.03 1.3.17 1.37-.34.5.03.98.06 1.03-.34.55.02 1.3-.17 1.37.34.5-.2.84-.54 1.03-1.03h1.72c.33 0 .26-.42.34-.7.3.08.32-.12.34-.33.3-.15.6-.3.7-.68 1.2-.15 1.87-.86 2.4-1.72.26.07.33.35.67.34.6-.3 1.07-.76 1.37-1.37H59c.33 0 .26-.42.34-.68.3.05.32-.15.34-.35.4-.06.3-.63.34-1.03h1.38c.88-.38 1.64-.87 2.05-1.72h1.03c.8-.1.64-1.2 1.7-1.03.32-.6 1.28-.56 1.38-1.37.4-.05.6.08.7.35.48-.2.83-.54 1.02-1.03 1.05.25 1.25-.35 2.06-.34.42-.15.7-.44.68-1.03h1.03c.6-.3 1.06-.77 1.37-1.37.3-.1.75.13 1.03 0 .16-.08.2-.63.34-.7.12-.05.6.1.68 0 .02-.02-.03-.32 0-.33.32-.1.7.07 1.03 0 .66-.15.63-.98 1.72-.7.05-.4.62-.28 1.03-.33 0-.33.42-.27.68-.34.1-.38.7-.24.7-.7h1.02c-.25-.92 1.6.26 1.37-.68h1.7c.96-.42 1.76-1 3.1-1.02.65-.15.62-.98 1.7-.7.42-.44.15-.53 0-1.02-.08-.55.34-.6.36-1.03.73-.16.65.5.68 1.03.55.1.6-.32 1.03-.34 1-.4-1.26-.3-.7-1.37h1.72c.7-.1.67-.93 1.37-1.03h2.73c.83-.14.75.63 1.7.34.73-.14.92.24 1.4.35 3.52-.22 5.76.86 9.24.7 1.63.3 3.1.77 5.14.68.57-.1.6.32 1.04.34 3.27-.18 5.36.8 8.57.7.57-.1.6.3 1.04.33h2.74c2.3.55 4.76.95 7.54 1.03.56-.1.6.32 1.03.34h3.1c.54-.1.58.32 1.02.34 3.33-.14 5.63.77 8.9.7.82-.02 1.02.58 2.07.33.27.17.55.35 1.03.33.4-.05.6.08.68.35.22.04.47-.06.68 0 .36.08.17.26.35.34.12.06.6-.1.7 0 0 .03-.05.33 0 .34.58.2 1.23.2 2.04.34.04.65 1.13.24 1.03 1.03 1.08-.17 1.2.62 2.4.35 0 .33.42.26.7.34.22.9 1.55.72 1.7 1.7.72.43 1.34.96 2.06 1.38 0 .68.94.44.7 1.37.48.2.83.54 1.02 1.03 1.33.4 1.75 1.68 3.1 2.06 0 .68.92.44.67 1.37.5.18.85.5 1.36.7.15.4.44.7 1.03.67.35.9 1.35 1.16 1.7 2.06.97-.28.9.48 1.72.34.15.3.3.62.68.7.1.36.7.22.7.67 1.04-.25.65.94 1.7.7.43.7.95 1.33 1.37 2.05.72-.15.9.23 1.38.34.08.37.68.23.68.68.97.06 1.43.63 2.4.7.25.77 1.03 1 1.72 1.36.3.6 1.26.57 1.37 1.37.6-.04.72.42 1.37.34.44.14.53.62 1.02.7-.15 1.75.52 2.67 1.02 3.77.83.14.75-.62 1.72-.34-.3 1.32.84 1.22 1.03 2.06.36.07.22.67.68.67.17.28.35.56.34 1.03.3.6.76 1.06 1.37 1.37-.1 1 .76 1.05.67 2.06.12.45.6.54.7 1.03.32 0 .25.42.33.68.3-.06.32.13.34.34.43.15.7.44.7 1.03.4.16.7.45.68 1.04.98.15.8 1.48 1.7 1.7-.18 1.23 1.22.86 1.04 2.07.45.36 1.26.35 1.7.7-.03.6.43.72.36 1.37.37.08.22.68.68.68-.16 1.08.92.9 1.03 1.72.3.6.83 1 1.03 1.7.67.25.9.93 1.02 1.73.46.12.54.6 1.03.68.57-.1.6.33 1.04.34v1.38c.33.7.7 1.35 1.03 2.05-.02.6.25.9.7 1.03-.04.5-.07.97.33 1.03.3.3.2.95.68 1.04.2.27.36.55.35 1.03.5.07.12 1.02.68 1.02.17.3.3.6.7.68v1.7c.04.66 1.13.25 1.03 1.04.12.45.6.54.68 1.03.36.8 1.2 1.1 1.04 2.4.3.6.83 1 1.03 1.7.3.62.83 1.02 1.03 1.73.7 1 .86 2.56 1.37 3.77v2.4c-.06.4.07.6.34.7-.05.38.1.6.35.67-.2.82-.5 1.56-.34 2.74.13.8.36 1.48 1.04 1.72-.05.85-.06 1.66.7 1.7-.12.8.04 1.33.33 1.72V96c-.04.62.42.73.34 1.38.5.07.13 1.02.7 1.02-.05.85-.06 1.66.34 2.06-.23 1.25-.48 2.5-.34 4.1.08.5 1.02.13 1.03.7.37.1.23.68.68.68-.33 1.38-.4 3-.33 4.8-.05.86.54 1.07.68 1.72v2.4c-.1.55.33.6.34 1.03.1 1.15-.27 2.77.34 3.4.3 1.1-.54 1.08-.7 1.73-.24.93.7.7.7 1.37-.14 1.62.6 2.36.34 4.1.25.95-.68.7-.7 1.4-.08.54.34.58.36 1 .25.95-.68.7-.7 1.38-.48.08-.1 1.03-.67 1.03-.13 1.03-.55 1.75-1.03 2.4-.14.84.63.76.34 1.73-.4.05-.3.62-.34 1.02-.4.06-.3.63-.34 1.03-.4-.05-.6.08-.7.34.07.3-.12.33-.33.35v1.37c-.03.5-.06.97.34 1.03-.26.3-.36.77-.33 1.37-.18.96-.5 1.78-.7 2.74-.45.1-.27.86-.33 1.37-.4.06-.3.63-.34 1.03-.8.1-.77 1.06-1.38 1.37v2.06c-.33.02-.26.43-.34.7-.3-.07-.32.13-.34.34-.33 0-.27.42-.34.68-.3-.06-.33.14-.34.34-.27.3-.37.78-.35 1.38-.36.08-.22.68-.67.68-.05.62.4.73.34 1.37-.45.1-.54.6-1.03.68-.3.28-.2.94-.68 1.03-.33.7-.7 1.37-1.03 2.07-.15.7.23.9.34 1.37-.1 1.17-.87 1.64-.7 3.08-.45.23-.62.74-.67 1.37-.8.22-.92 1.13-1.72 1.36.15 1.63-1.16 1.8-1.02 3.43-.8-.1-.4.98-1.03 1.02.14.83-.63.75-.34 1.7-.8-.1-.4 1-1.04 1.04-.27.3-.37.78-.35 1.37-.7.43-1.28 1-1.7 1.72-1.2-.2-.84 1.2-2.06 1.03-.04.64-.22 1.14-.68 1.37-.45.12-.54.6-1.03.68.14.83-.63.75-.34 1.72-.6.3-1.2.64-1.04 1.7-.6.32-1.06.78-1.37 1.38-.32.6-.84 1-1.04 1.72-.5.2-.84.53-1.03 1.03-.92-.24-.66.7-1.03 1.02h-1.03c-.3.73-1.04 1.02-1.03 2.06-1.02.34-1.7 1.03-2.05 2.06-.63-.05-.74.42-1.38.34.24 1.05-.6 1-.35 2.06-.5.18-.86.5-1.37.68.25.94-.68.7-.68 1.37-.72.2-1.1.72-1.72 1.03-.33 0-.26.42-.34.7-.3-.08-.32.12-.34.33-.6 0-.9.25-1.03.7-.73.4-1.35.93-2.07 1.36-1.57 1.04-2.54 2.7-4.1 3.76.27.97-.5.9-.36 1.7-1 .04-1.27.8-1.7 1.38-.6.3-1.07.77-1.38 1.37-.95-.24-.7.7-1.38.7-.68 0-.44.93-1.37.68-.14.83.62.75.34 1.72-.6.3-1.07.77-1.38 1.37h-1.37c-.3.15-.62.3-.7.7-.4-.07-.6.06-.67.33-1.05-.25-1 .6-2.06.34-.1.7-1.28.32-1.37 1.03-1.4.2-2.22.98-3.77 1.03-.65.5-1.78.5-2.06 1.37-.54.03-1.3-.16-1.37.34-.3.28-.78.38-1.37.35-.86.3-1.35.94-2.4 1.04-.84.3-1.5.78-2.75.67-.07.5-1.02.12-1.02.7-.6-.06-.72.4-1.36.33-.6.3-1 .83-1.72 1.03-.1.8-1.06.76-1.37 1.37h-2.05c-.28.3-.94.2-1.03.68-.5-.03-.97-.05-1.03.35-.54.02-1.3-.17-1.37.34-.5-.03-.97-.06-1.03.34-3.48-.04-5.7 1.16-8.9 1.38-.57-.1-.6.33-1.04.35-.1.37-.68.23-.7.68-.4-.38-1.2-.38-2.05-.33-.4-.06-.6.07-.68.34-.4-.04-.6.1-.7.35-.9 0-1.94-.12-2.4.35h-2.73c-.55-.1-.6.32-1.03.34h-2.73c-.5-.03-.97-.06-1.03.34-.8-.1-1.28-.54-2.4-.34-2.46.62-5.93.24-8.9.34-.4.06-.62-.07-.7-.34-.4.06-.6-.08-.68-.34-1.4.14-2.2-.32-3.1-.7h-2.4c-1 .1-1.04-.76-2.04-.67-.44-.48-1.62-.2-2.06-.7-1.88.06-3.26-.38-4.8-.68-1.05-.24-1.25.35-2.06.35-.8-.1-1.28-.54-2.4-.35-.58.02-.88-.25-1.02-.68-.5.03-.98.05-1.03-.34h-1.72c-.07-.5-1.02-.12-1.02-.7h-1.7c-.94.26-.7-.67-1.38-.67-.64-.05-1.15-.23-1.37-.7h-1.7c-.1-.6-.6-.77-1.4-.68-.1-.46-.84-.28-1.36-.34-.02-.33-.43-.26-.7-.34-.27-.07-.33-.35-.68-.34-.3-.27-.77-.37-1.37-.35-.12-.44-.6-.53-.7-1-.9 0-1.35-.26-2.04-.7-.06-.05-.28.05-.34 0-.03-.04.05-.32 0-.35-.48-.23-.87-.1-1.37-.34-.18-.07.03-.3-.35-.33-.28 0-.34-.38-.7-.34-.23-.9-1.94-.33-2.04-1.37-1.08.05-1.14-.92-2.4-.7-.3-.5-.5-1.08-1.36-1.02.06-.4-.52-.17-.7-.34-.02-.03.05-.33 0-.34-.3-.1-.7.07-1.02 0-.5-.85-1.17-1.57-2.4-1.72-.2-.5-.53-.83-1.02-1.02.1-.8-1-.4-1.03-1.04-1.3.27-1.64-.4-2.75-.34-.08-.37-.68-.23-.68-.68-.28-.2-.56-.36-1.03-.35.1-.77-.07-1.27-.68-1.36-.17-.5-.5-.86-.68-1.37h-1.37c-.56-1.15-1.97-1.46-2.06-3.08-.3-.28-.76-.38-1.36-.36.13-.58-.27-.64-.7-.68-.25-.3-.35-.78-.33-1.37-.98-.27-.88-1.64-2.4-1.38-.05-.28-.33-.35-.33-.7.33 0 .27-.4.34-.68-.26-.18-.54-.35-1.02-.34-.4.06-.6-.07-.68-.34-.24-1.14.7-.55 1.03-.34.1-.56-.33-.6-.35-1.03 0-.35-.42-.28-.68-.35v.68c-.6-.3-1.2-.64-1.03-1.7-1.1.28-1.06-.55-1.7-.7-1.07.26-.67-.94-1.73-.68.14-.83-.62-.75-.34-1.72-.3-.2-.6-.4-.7 0-.54.1-.58-.32-1-.34-.3-.98.47-.9.33-1.73-.06-.4-.63-.3-1.03-.34h-1.03c-.15-.42-.44-.7-1.03-.7.37-1.26-.85-.96-.68-2.04-.28-.07-.34-.35-.7-.35.2.27.37.55.36 1.03" class="circle" fill="#f4c522" fill-rule="evenodd"/><path d="M152.6 113.46c0 4.36-.62 7.2-.62 11.56-.94 0-.3 3.03-1.06 3.23.03 1.13.93 1.75.56 2.4.38.72-.67.7-.7.83-.17.43.2 1.24 0 1.63-.08.14-.62-.1-.72 0-.12.15.12.7 0 .83-.1.14-.57-.12-.7 0-.24.22.17 1.34 0 1.64-1.65.55-1.9 2.7-3.54 3.26-.48 1.9-2.35 2.2-2.83 4.1-2.08.04-2.63 1.86-3.54 3.25-1.44.8-2.8 1.67-4.24 2.46-.97-.04-1.55.38-2.12.8-6.98.94-14.28 1.48-21.2 2.47-3.36-.47-6.52-1.18-10.6-.8-1.33-.67-2.6-1.38-4.25-1.65-.12-.95-1.1-.88-2.12-.8-.12-.97-1.1-.9-2.12-.83-1.47-.47-2-2.03-4.23-1.64 0-1.08-1.24-.74-1.4-1.63-1.35.18-1.57-.92-2.84-.8-.98-2.43-3.26-3.32-4.24-5.73-.4-1.18-1.1-2-2.13-2.45.1-2.04.12-1.8-.18-3.34.02-1.13.05-2.6-.32-3.26.52-3.87-.72-5.3-.63-8.66 0-1.63 1.4-5.3 0-4.7-.75-.75-.9-4.17-2.8-3.6-1.37-.3-4.38 1.17-3.86 3.96v20.41c.5 3.03-1.2 3.5-.7 6.54.04 3.48 1.17 5.7.7 9.8-.52 2.5 1.22 2.4.7 4.9-.52 2.52 1.94 1.57 1.42 4.1 1.2-.05 1.8.62 2.12 1.62 1.63-.26 2.7.13 3.53.82 2.83.27 3.92-1.46 7.07-.82 2.48.4 4.6 1.22 7.77.82 2.34.58 4.53 1.3 7.08 1.63 3.65-.03 7.16-.23 9.2.8 3.4-1.5 8.93-.54 13.42-.8 3-1.17 6.68-1.54 9.9-2.46 2.58.54 2.55 1.04 4.8 1.18 2.65.62 3.33-1.4 5.6-1.2 3.64.16 5.87-.27 9.38.02.02-1.08 1.24-.74 1.42-1.63 1-.2 1.2-1.34 2.12-1.62.15-.92.78-1.28 1.4-1.64v-4.08c1.1-1.2.63-4.2.72-6.54 1.1-1.2.62-4.18.7-6.54-.38-4.46.27-8.18-.1-12.65 0-3-.2-6.88-.2-9.87.53-1.93.28-5.18-1.1-6.9-.9-.03-1-1.04-2.13-.8-.16 1.16-2.15 1.33-2.4 2.4m-56.98 14.86c1.83.26 1.76 2.42 3.58 2.7.1 2.3 3.5 1.27 3.6 3.57 1.33.14 3.3-.33 3.57.9 5.1.6 7.45-1.53 12.55-.9-1.64.96 11.26-3.7 9.86-3.6 1.58-.8 2.6-2.16 4.48-2.68.8-1.58 2-2.78 3.58-3.6.14-1.04-.15-2.53.9-2.67.14-1.06-.16-2.55.9-2.7.35-4.24-1.6-6.16-.9-10.75-.7-.2-1.05-.75-.9-1.8 0-.9-.72-1.06-.9-1.78-.38-1.7-1.93-2.25-1.8-4.48-.82-.13-1.14-.57-1.78-.9-.18-.1-.76.14-.9 0-.1-.1.12-.85 0-.9-.47-.2-1.34.27-1.8 0-.35-.2-.5-1.5-.88-1.8-.38-.27-1.36.2-1.8 0-.24-.1.02-1.4-.9-.88-.24-1.85-3.33-.85-3.58-2.7-2.62.24-2.75-2.02-5.37-1.78-4.03-.44-6.72.45-9.86.9-.24 1.25-1.97 1-2.7 1.78-.04.55-.04.07-.8-.1-.2.7-1.24 1.3-2.1 1.33-1.4 1.9-3.5 1.14-4.5 3.42-1.27.24-2.4 6.4-3.18 7.14-1.2.6-1.2 2.02-1.33 3.7-1.26.23-.55 2.44-1.32 3.16 0 .9 1.75.33 1.58 1.06-.2.7-.02 1.77-.9 1.8.84 4.53 2.5 8.24 3.6 12.54M150.36 75c-.9-.6-5.35 1.74-6.4 3.84-.96 1.9-2.25 7.37 2.5 11.58 1.9 1.7 7.46 2.33 8.7 1.23 4.23 1.13 3.27-4.47 5.45-4.48-.22-3.4.54-9.1-1.28-10.9-1.1 0-8.33-4.48-8.97-1.28m18.07-19.35c.44 1.9 2.95 1.75 2.83 4.24 1 .15.24 2.1 1.4 2.1-.05 1-.1 2 .72 2.13 1 3.24 1.83 6.63 2.1 10.6.6 3.64.93 7.56.7 12 .9.17.94 2.12 0 2.13.4.57.75 1.15.72 2.12v6.37c.03 2.32 1.2 3.5.7 6.36-2.52.6 1.83 3.65-.7 4.25v6.36c-1 .95-1 4 0 4.96.38 4.62-.44 8.04-.7 12 .82 3 .77 7.42.7 12.03.46 4.24-.33 7.86-.38 12.63.47 4.7.16 5.52.38 9.97-.96.22-.6 1.77-.7 2.83-.83.12-.6 1.3-.7 2.12-.25.55-.6.73-.72 1.42-.08.45.1.96 0 1.4-.25 1.04-4.13 2.06-4.5 2.88-1.03.4.7-.7.3.32-.57.6-2.3-.37-2.5.62-.57.6-.12-.38-.3.62-1.8 1.9-1.76-.55-1.88.93-5.04 1.1-10.2 3.36-16.57 3.13-5.38-.75-12.28.72-17.66-.02-2.6.03-8.24.4-8.9.33 0 0-1.22-.3-1.72-.34-.7-.04-1.42-.03-2.12 0-1.23.05-1.54.55-2.82.7-3.02.38-6.52-.26-10.6 0-5 .3-8.17-1.25-13.43-.7-4.92.2-8.23-1.2-12.72-1.4-3.35-.54-4.86.78-7.77.7h-2.1c-.83-.12-1.27.15-1.42.7-.82-.6-1.9-.93-3.54-.7-.2-1.46-2.63-.67-2.83-2.13-1.4 0-.9-1.93-2.8-1.4.5-1.94-1.42-1.43-1.43-2.84-.95-.47-1.3-1.52-1.4-2.83-1.08-2-1.72-4.42-1.42-7.78-1.54.1-.32-2.52-.7-3.54-.96-.47-1.33-1.5-1.42-2.83v-6.36-3.54c.06-1 .1-2-.7-2.12-.1-1.25.85-1.48.7-2.8.06-1.02.1-2-.7-2.13v-5.66c.1-8.1.05-16.07-.72-23.3-.42-5.16 1.24-8.2.72-13.44.3-3.14-.5-5.15-1.42-7.07v-8.5c.35-3.16-.35-5.3-.7-7.76-.52-3.35.8-4.86.7-7.78.95-.46 1.32-1.5 1.42-2.83.93-.25 1.1-1.24 2.12-1.4-.13-2.5 2.4-2.34 2.83-4.25 1.3-.1 2.36-.47 2.82-1.4 1.47.28 1.87-.5 2.82-.72 2.18-.18 4-.72 5.66-1.4 5.5.53 8.97-.93 14.13-.72 9.9.23 19.18-.15 28.28-.7 1.14.2 1.22-.68 2.12-.72 9.4.5 18 1.8 28.27 1.42 2.4.2 5.73-.55 7.07.7.22-.95 1.77-.58 2.83-.7h3.53c4.56.1 9.9-.4 14.14.7" class="icon" fill="#fff" fill-rule="evenodd"/></svg>