<svg xmlns="http://www.w3.org/2000/svg" viewBox="0 0 228.73989 230.40498"><path d="M170.9 69.16c.65-.45 1.32-.9 2.46-.88.96.1 1.47-.22 1.64-.86 1.54-.15 2.75-.6 3.27-1.73 2.72-.32 6.74-2.06 9.1-.2 1.32 5.58-3.7 5.1-3.1 10 1.14 1.17 4.72 1.1 5.8-.1l4.14-.1c.4.73.77 1.47 1.7 1.62-.2 1.04.36 2.3.07 3.32-.02.08-.76-.06-.83 0-.26.3.3 1.4.04 1.67-.1.13-.75-.1-.83.03-.86 1.4-1.7 2.66-3.24 3.38-.9.23-.52 1.67-1.62 1.7-.72.38-1.46.76-1.62 1.7-2.56-.58-1.54 2.3-4.1 1.73-.8 2.2-3.23 2.86-4.04 5.06-1.56.1-.52 2.73-2.43 2.52-.28 1.1-1.44 1.33-1.62 2.52.24 4.83-1.28 7.97-.55 13.27-.97.16-.67 1.53-.78 2.5-.8.05-.62 1.03-.8 1.68-.8.04-.6 1.03-.8 1.67-.13.68-.8.85-.78 1.68-1.02 2.26-1.93 4.64-1.5 8.3-1.68.28-.7 3.1-2.4 3.38.38 2-1.48 1.84-.74 4.17-1.7.26-.72 3.1-2.42 3.36-.07 1.54-.47 2.78-1.58 3.35.17 2.05-1.24 2.58-1.57 4.17-1.9-.2-.87 2.4-2.43 2.54-1.27 2.28-3 4.14-4 6.7-1.92.6-2.16 2.8-4.07 3.4-1.92.6-2.16 2.8-4.08 3.4-.52 1.93-2.7 2.27-3.22 4.2-1.08.32-1.28 1.48-2.45 1.7-.73.4-1.47.77-1.63 1.7-2.06-.1-2.53 1.35-4.1 1.74-2.06-.08-2.54 1.35-4.1 1.74-1.58.4-2.05 1.83-4.1 1.74-.2 1.72-3.08.85-3.27 2.56-3.3.07-4.94 1.76-8.25 1.83-2.4.96-5.86.87-8.25 1.83l-5.8.12c-2.58-.4-5.4-.56-7.48-1.5-6.9.7-11.33-1.16-18.24-.45-.04-.8-1.02-.62-1.67-.8-.2-.9-1.65-.52-1.68-1.6-.75-.37-1.5-.7-1.7-1.64.1-2.07-1.32-2.56-2.54-3.26l-9.1.2c-2.07.16-2.6-1.26-4.2-1.58-2.04.17-2.58-1.25-4.16-1.57-2.34-1.52-7.42-.17-6.73-4.83-.03-.83-.04-1.66-.06-2.5.96.13 1.47-.2 1.64-.85 1.54-.14 2.75-.6 3.28-1.72 3.63.5 4.63-1.5 8.26-1 5.2-.96 10.5-1.83 14.84-3.62-.15-1.54-.6-2.76-1.73-3.28.2-1.9-.26-3.1-1.72-3.28.22-1.92-2.4-.87-2.53-2.43-1.56-.06-.63-2.73-2.53-2.44-.15-1.54-.6-2.75-1.73-3.27.24-1.93-.2-3.18-.9-4.13.22-1.92-.2-3.17-.92-4.12.06-2.92 2.3-3.75 2.35-6.68-.83-1.67-1.76-3.24-2.6-4.9-2.12-.05-1.24-3.22-3.37-3.26.2-1.34-.8-1.4-.88-2.47-.9-.18-.6-1.63-1.7-1.62.22-1.34-.8-1.4-.87-2.46-.9-.2-.58-1.65-1.68-1.64-.17-2.05 1.25-2.6 1.57-4.17.3-1.6 2.33-1.56 1.56-4.2.23-2.3-.45-4.2-.94-5.76-.05-.16.1-.73-.02-.83-.1-.08-.78.13-.83.02-.6-1.32.08-2.5-.9-3.3-.3-3.64-1.45-6.37-1.05-10.74-.76-2.63 1.25-2.6 1.57-4.17 1.7-.26.7-3.1 2.4-3.36-.12-3.64 1.88-5.23 4-6.7 2.97-.56 4.04.87 5.84 1.53.13 2.12 3.26 1.12 3.38 3.24 2.9 1.52 4.14 4.73 7.58 5.65.38 1.02 1.1 1.68 2.5 1.6.4.74.77 1.47 1.7 1.63.8 1.44 1.9 2.53 3.4 3.24.1 2.13 3.24 1.12 3.37 3.25 1.33-.26 1.44.75 2.5.78.22.9 1.66.52 1.7 1.62 3.3-.07 5 1.55 8.3 1.48 2.95.32 4.83 1.74 8.32 1.5 3.94-.28 3.44-4.82 6.5-5.95-.46-2.6 1.1-3.26 1.55-5 1.7-.26.7-3.1 2.4-3.36-.7-3.68 2.44-2.8 2.1-6.1 1.08-.32.96-2.4 2.14-2.6 1.34.2.28-2.12 1.34-2.2 1.08-.3 1.27-1.47 2.45-1.7.72-.38 1.45-.75 1.6-1.7 4.27.05 6.62-1.76 9.05-3.5.73-.37 1.67.53 1.83-.4 1.93-.05 3.66-1.36 5.6-1.4 1.93.23 3.43.93 5 1.55 1.5 1.05 3.45-.33 3.72 1.37 3.35.16 5.42 2.34 8.78 2.5.2 1.2 2.48.25 2.52 1.6 1.33-.25 1.44.77 2.5.8.22.88 1.66.52 1.7 1.6 1.32-.25 1.43.76 2.5.8" class="icon" fill="#f4c522" fill-rule="evenodd"/></svg>