<svg xmlns="http://www.w3.org/2000/svg" viewBox="0 0 228.73989 230.40498"><path d="M152.6 113.46c0 4.36-.62 7.2-.62 11.56-.94 0-.3 3.03-1.06 3.23.03 1.13.93 1.75.56 2.4.38.72-.67.7-.7.83-.17.43.2 1.24 0 1.63-.08.14-.62-.1-.72 0-.12.15.12.7 0 .83-.1.14-.57-.12-.7 0-.24.22.17 1.34 0 1.64-1.65.55-1.9 2.7-3.54 3.26-.48 1.9-2.35 2.2-2.83 4.1-2.08.04-2.63 1.86-3.54 3.25-1.44.8-2.8 1.67-4.24 2.46-.97-.04-1.55.38-2.12.8-6.98.94-14.28 1.48-21.2 2.47-3.36-.47-6.52-1.18-10.6-.8-1.33-.67-2.6-1.38-4.25-1.65-.12-.95-1.1-.88-2.12-.8-.12-.97-1.1-.9-2.12-.83-1.47-.47-2-2.03-4.23-1.64 0-1.08-1.24-.74-1.4-1.63-1.35.18-1.57-.92-2.84-.8-.98-2.43-3.26-3.32-4.24-5.73-.4-1.18-1.1-2-2.13-2.45.1-2.04.12-1.8-.18-3.34.02-1.13.05-2.6-.32-3.26.52-3.87-.72-5.3-.63-8.66 0-1.63 1.4-5.3 0-4.7-.75-.75-.9-4.17-2.8-3.6-1.37-.3-4.38 1.17-3.86 3.96v20.41c.5 3.03-1.2 3.5-.7 6.54.04 3.48 1.17 5.7.7 9.8-.52 2.5 1.22 2.4.7 4.9-.52 2.52 1.94 1.57 1.42 4.1 1.2-.05 1.8.62 2.12 1.62 1.63-.26 2.7.13 3.53.82 2.83.27 3.92-1.46 7.07-.82 2.48.4 4.6 1.22 7.77.82 2.34.58 4.53 1.3 7.08 1.63 3.65-.03 7.16-.23 9.2.8 3.4-1.5 8.93-.54 13.42-.8 3-1.17 6.68-1.54 9.9-2.46 2.58.54 2.55 1.04 4.8 1.18 2.65.62 3.33-1.4 5.6-1.2 3.64.16 5.87-.27 9.38.02.02-1.08 1.24-.74 1.42-1.63 1-.2 1.2-1.34 2.12-1.62.15-.92.78-1.28 1.4-1.64v-4.08c1.1-1.2.63-4.2.72-6.54 1.1-1.2.62-4.18.7-6.54-.38-4.46.27-8.18-.1-12.65 0-3-.2-6.88-.2-9.87.53-1.93.28-5.18-1.1-6.9-.9-.03-1-1.04-2.13-.8-.16 1.16-2.15 1.33-2.4 2.4m-56.98 14.86c1.83.26 1.76 2.42 3.58 2.7.1 2.3 3.5 1.27 3.6 3.57 1.33.14 3.3-.33 3.57.9 5.1.6 7.45-1.53 12.55-.9-1.64.96 11.26-3.7 9.86-3.6 1.58-.8 2.6-2.16 4.48-2.68.8-1.58 2-2.78 3.58-3.6.14-1.04-.15-2.53.9-2.67.14-1.06-.16-2.55.9-2.7.35-4.24-1.6-6.16-.9-10.75-.7-.2-1.05-.75-.9-1.8 0-.9-.72-1.06-.9-1.78-.38-1.7-1.93-2.25-1.8-4.48-.82-.13-1.14-.57-1.78-.9-.18-.1-.76.14-.9 0-.1-.1.12-.85 0-.9-.47-.2-1.34.27-1.8 0-.35-.2-.5-1.5-.88-1.8-.38-.27-1.36.2-1.8 0-.24-.1.02-1.4-.9-.88-.24-1.85-3.33-.85-3.58-2.7-2.62.24-2.75-2.02-5.37-1.78-4.03-.44-6.72.45-9.86.9-.24 1.25-1.97 1-2.7 1.78-.04.55-.04.07-.8-.1-.2.7-1.24 1.3-2.1 1.33-1.4 1.9-3.5 1.14-4.5 3.42-1.27.24-2.4 6.4-3.18 7.14-1.2.6-1.2 2.02-1.33 3.7-1.26.23-.55 2.44-1.32 3.16 0 .9 1.75.33 1.58 1.06-.2.7-.02 1.77-.9 1.8.84 4.53 2.5 8.24 3.6 12.54M150.36 75c-.9-.6-5.35 1.74-6.4 3.84-.96 1.9-2.25 7.37 2.5 11.58 1.9 1.7 7.46 2.33 8.7 1.23 4.23 1.13 3.27-4.47 5.45-4.48-.22-3.4.54-9.1-1.28-10.9-1.1 0-8.33-4.48-8.97-1.28m18.07-19.35c.44 1.9 2.95 1.75 2.83 4.24 1 .15.24 2.1 1.4 2.1-.05 1-.1 2 .72 2.13 1 3.24 1.83 6.63 2.1 10.6.6 3.64.93 7.56.7 12 .9.17.94 2.12 0 2.13.4.57.75 1.15.72 2.12v6.37c.03 2.32 1.2 3.5.7 6.36-2.52.6 1.83 3.65-.7 4.25v6.36c-1 .95-1 4 0 4.96.38 4.62-.44 8.04-.7 12 .82 3 .77 7.42.7 12.03.46 4.24-.33 7.86-.38 12.63.47 4.7.16 5.52.38 9.97-.96.22-.6 1.77-.7 2.83-.83.12-.6 1.3-.7 2.12-.25.55-.6.73-.72 1.42-.08.45.1.96 0 1.4-.25 1.04-4.13 2.06-4.5 2.88-1.03.4.7-.7.3.32-.57.6-2.3-.37-2.5.62-.57.6-.12-.38-.3.62-1.8 1.9-1.76-.55-1.88.93-5.04 1.1-10.2 3.36-16.57 3.13-5.38-.75-12.28.72-17.66-.02-2.6.03-8.24.4-8.9.33 0 0-1.22-.3-1.72-.34-.7-.04-1.42-.03-2.12 0-1.23.05-1.54.55-2.82.7-3.02.38-6.52-.26-10.6 0-5 .3-8.17-1.25-13.43-.7-4.92.2-8.23-1.2-12.72-1.4-3.35-.54-4.86.78-7.77.7h-2.1c-.83-.12-1.27.15-1.42.7-.82-.6-1.9-.93-3.54-.7-.2-1.46-2.63-.67-2.83-2.13-1.4 0-.9-1.93-2.8-1.4.5-1.94-1.42-1.43-1.43-2.84-.95-.47-1.3-1.52-1.4-2.83-1.08-2-1.72-4.42-1.42-7.78-1.54.1-.32-2.52-.7-3.54-.96-.47-1.33-1.5-1.42-2.83v-6.36-3.54c.06-1 .1-2-.7-2.12-.1-1.25.85-1.48.7-2.8.06-1.02.1-2-.7-2.13v-5.66c.1-8.1.05-16.07-.72-23.3-.42-5.16 1.24-8.2.72-13.44.3-3.14-.5-5.15-1.42-7.07v-8.5c.35-3.16-.35-5.3-.7-7.76-.52-3.35.8-4.86.7-7.78.95-.46 1.32-1.5 1.42-2.83.93-.25 1.1-1.24 2.12-1.4-.13-2.5 2.4-2.34 2.83-4.25 1.3-.1 2.36-.47 2.82-1.4 1.47.28 1.87-.5 2.82-.72 2.18-.18 4-.72 5.66-1.4 5.5.53 8.97-.93 14.13-.72 9.9.23 19.18-.15 28.28-.7 1.14.2 1.22-.68 2.12-.72 9.4.5 18 1.8 28.27 1.42 2.4.2 5.73-.55 7.07.7.22-.95 1.77-.58 2.83-.7h3.53c4.56.1 9.9-.4 14.14.7" class="icon" fill="#f4c522" fill-rule="evenodd"/></svg>