<svg xmlns="http://www.w3.org/2000/svg" viewBox="0 0 228.73989 230.40498"><path d="M169.87 50.9c.4 1 1.08 1.7 2.07 2.08.6.55.4 1.9 1.38 2.07-.3 1.44 1.5 2.57 1.73 3.5.05 1.1-1.37 1.9-.34 2.03 1.26 5.6.54 8.68 1.4 12.43v8.3c.26 2.5-.63 4.6-.14 6.9-.75 2 .88 4.92.13 6.92-.35 3.6.73 8.58-.7 11.06.76 2.92.8 6.57.7 10.36-.42 2.94-.5 5.95-.7 8.98-.1 1.64.2 3.1 0 4.84-.13 1.1.32 2.03.26 3.34-.26 5.72-1.2 12.2-.95 18.08.04.84-.2 1.95 0 2.76.05.18.66.06.7.7.18 3.53-.14 9.84 0 14.5-.1 2 .37 4.53-.7 5.53-1.26 1.02-2.66 1.18-4.83 1.38-1.83.17-3.7-.13-5.53 0-2.22-.15-1.66.36-4.26-.18-.1-.8-2.53.3-3.34.18-1.12-.2-.36-.22-1.24-.18-3.75-.17-7.56-.24-11.9.18-3.88.2-6.56-.8-8.97-2.07-.62-2.03-.62-2.13 0-4.15.8-.1.58-1.26.7-2.07v-2.76c-.55-4.22-.8-8.07-.7-12.44.1-4.03 1.22-8.16.7-12.44-.06-2.94-1.16-4.83-.7-8.3.5-2.1-.7-2.5-.7-4.13.37-1.04.43-2.43.8-3.45 1.37 0 1.47-1.2 3.36-.7h3.44c2.34-.2 3.97-1.1 6.9-.7 1.37-2.33 2-5.37 2.08-8.98-.98-2.24-3.35-3.1-6.9-2.77h-2.77c-.8.12-1.23-.15-1.38-.7-2.2.6-2.14-1.07-3.46-1.37-.2-1.62-1.08-2.6-.68-4.84.8-.82-.2-1.47-.3-3.17-.53-4 .33-7.53 1.54-9.78 2.3-1.14 6-1.94 9.82-1.56.17-.76 1.37-.48 1.38-1.4 1.1.2 1.2-.65 2.07-.7.56-.35 1.12-.7 2.07-.68-.1-.8.16-1.23.7-1.38.54-2.85-1.07-3.55-.7-6.22-.4-.38-.9-.38-1.38-.7-.14-.08-.57.13-.7 0-.04-.05.08-.66 0-.68-2.6-.73-6.96.4-9.66.7-3.97.17-8.8-.53-11.75.68-1.23-.1-1.44.85-2.75.7-.17.74-1.38.46-1.38 1.37-1.62.2-1.55 2.13-2.77 2.76v9.67c-.27 2.5-.9 4.63-1.38 6.9-.22 2.55.6 6.13-.7 7.6-1 1.08-3.53.62-5.52.7-1 1.07-3.53.6-5.52.7-.12 1.95-1.27 2.87-1.4 4.83.02 1.24-.72 1.45-.68 2.76.04 1.1.48 1.2.7 2.08.4.78.8 1.75 2.07 2.07.43.1.96-.13 1.38 0 .08.02.23.57.7.7 1.07.26 2.34-.22 3.44 0 .1.8 1.25.57 2.07.68.17.75 1.37.47 1.38 1.38 1.4.2 1.35 1.87 2.76 2.07 1.05 3.72.64 9.16.7 14.5-.6 1.97-.48 4.38-.7 6.92-.2 2.55-.07 4.96-.68 6.9.77 2.93.8 6.6.7 10.38-.4 2.24.46 3.2.68 4.83.18 2.02-1.56 2.12-1.38 4.15-1.3.76-3.26.88-4.83 1.38-1.13-.2-1.2.65-2.1.7-.97-.07-2.5-1.6-2.6-.8-3.32-.83-6.8.54-10.5.1-3.6-.37-4.98.46-8.15.5-2.3 0-4.1-.3-6.4-.3-.63-.53-2.22.44-3.43.5-1.1-.07-2.63.32-2.76-.7-2.85.54-3.06-.47-5.73-.1-.55-.23.05.13-.62 0-.43-.08-1.08.72-1.5.6-1.02-.23-1.35.08-2.15-.3-3.46.47-7.75-.55-10.7-.6-2.73-.26-4.97.9-6.7-1.23-.3-1.3-.4-2.3-.3-4.03.8-.82-.53-3.7-.62-5.4 0-.04.5-1.08.6-2.78.5-2.12-.32-2.96-.3-4.6 1.4-6.65-.52-15.87 1.08-22.33-.5-7.42 1.15-12.7.7-20.04-.7-5.5-1.3-13.27 0-18.66V82.7c.4-3.3 1-6.4.7-10.38.8-.1.58-1.26.68-2.07V67.5c.75-.2.47-1.4 1.4-1.4 0-.7-1.2-1.35-1.2-2.04.54-4.46.16-6.83.5-11.08 1.44-.4 1.97-1.72 4.14-1.4h2.77c.97.07 1.94.13 2.06-.68H75.2c2.5-.75 6.28 1.62 8.5.63 4.7-.32 7.7-1.08 11 0 5.8-.4 10.8-.08 19.9-.63.9.96 3 .7 4.83.7 1.63-.02 2.04 1.18 4.15.68 3.75-.52 6.9-.65 10.53-1.06 3.9-.27 7.23 1.3 10.4.3.92 0 0 .32.9.32.82.1 2.3.23 2.46-.3 2.92.8 7.7-.25 12.22-.32 4.77-.12 5.37-1.12 9.8-.32" class="icon" fill="#f4c522" fill-rule="evenodd"/></svg>