<svg xmlns="http://www.w3.org/2000/svg" viewBox="0 0 228.73989 230.40498">
  <path fill="#fff" stroke="#f4c522" stroke-width="1.25" stroke-miterlimit="10" d="M181.38 119.96c-.03.13.07.13.07.23.06.2-.14.14-.14.3-.1 0-.02.2-.15.2-.02.24-.1.4-.22.54-.03.18.14.16.08.37-.08.03-.06.15-.07.24-.08 0-.06.13-.07.22-.1 0-.13.02-.15.08.02.06-.02.07-.06.07v.3c0 .12-.02.22.07.24-.05.06-.07.16-.06.3l-.15.6c-.1.02-.07.18-.08.3-.1 0-.07.13-.08.22-.17.02-.16.23-.3.3v.45c-.07 0-.05.1-.07.16-.06-.02-.07.03-.07.07-.07 0-.06.1-.08.15-.06 0-.06.03-.07.08-.06.06-.08.16-.08.3-.08 0-.04.14-.14.15 0 .14.1.16.07.3-.1.03-.12.14-.22.16-.07.06-.05.2-.15.22l-.22.45c-.02.15.06.2.08.3-.02.25-.2.36-.15.67-.1.05-.13.16-.14.3-.2.05-.2.25-.38.3.03.36-.26.4-.22.75-.18-.02-.1.22-.23.23.03.17-.13.16-.07.37-.17-.02-.08.22-.23.22-.05.07-.07.17-.07.3-.15.1-.28.22-.37.38-.26-.04-.18.26-.44.22-.02.14-.06.25-.16.3-.1.03-.12.14-.22.15.03.18-.14.16-.08.38-.13.07-.25.14-.22.37-.13.07-.23.17-.3.3-.06.13-.17.22-.22.38-.1.04-.18.1-.22.22-.2-.05-.14.16-.22.23h-.22c-.07.15-.23.22-.23.45-.2.07-.35.22-.43.45-.13-.02-.16.1-.3.07.06.23-.12.22-.07.45l-.3.15c.06.2-.14.15-.14.3-.15.04-.24.16-.37.22-.08 0-.07.1-.1.14-.05 0-.06.04-.06.08-.13 0-.2.05-.23.15l-.43.3c-.34.22-.55.6-.9.82.08.2-.1.2-.06.37-.2 0-.26.16-.36.3-.13.06-.23.16-.3.3-.2-.06-.15.14-.3.14-.14 0-.1.22-.3.16-.02.2.15.17.1.38-.14.07-.24.17-.3.3h-.3c-.07.03-.14.07-.16.15-.08-.02-.13 0-.14.06-.23-.05-.22.13-.44.08-.03.15-.28.07-.3.22-.3.04-.48.22-.82.23-.13.1-.38.1-.44.3-.12 0-.28-.05-.3.06-.07.06-.16.08-.3.07-.18.07-.28.2-.5.23-.2.07-.33.18-.6.15-.02.12-.22.04-.23.16-.12 0-.14.1-.28.08-.13.06-.22.18-.37.22-.02.18-.23.17-.3.3h-.44c-.05.06-.2.05-.22.15-.1 0-.2 0-.2.08-.13 0-.3-.03-.3.08-.12 0-.22 0-.23.07-.76 0-1.24.26-1.93.3-.12-.02-.13.07-.22.08-.02.1-.15.06-.15.16-.08-.1-.26-.1-.44-.08-.08 0-.12.02-.14.08-.1 0-.13.02-.15.07-.2 0-.4-.03-.5.08h-.6c-.12 0-.13.08-.22.08h-.6c-.1 0-.2 0-.2.08-.2-.02-.3-.12-.53-.08-.54.14-1.28.06-1.93.08-.08 0-.13-.02-.15-.08-.08.02-.13 0-.15-.07-.3.04-.47-.06-.66-.14h-.52c-.22.02-.23-.17-.44-.15-.1-.1-.35-.04-.45-.14-.4 0-.7-.1-1.03-.15-.23-.04-.28.08-.45.08-.17-.02-.27-.1-.52-.07-.12 0-.2-.05-.22-.14-.1 0-.2 0-.22-.08h-.36c-.02-.1-.22-.02-.22-.15h-.37c-.2.06-.15-.15-.3-.15-.14 0-.24-.05-.3-.14h-.36c-.03-.13-.15-.17-.3-.16-.03-.1-.2-.06-.3-.07 0-.06-.1-.05-.15-.06-.06-.02-.08-.08-.15-.08-.07-.06-.17-.08-.3-.07-.02-.1-.13-.13-.15-.24-.2 0-.3-.05-.44-.15 0 0-.05.02-.06 0-.02 0 0-.06 0-.07-.1-.04-.2-.02-.3-.07-.04-.02 0-.07-.08-.07-.06-.02-.07-.1-.14-.1-.05-.18-.42-.06-.44-.3-.24.03-.25-.2-.53-.14-.06-.1-.1-.24-.3-.22.02-.1-.1-.04-.14-.08 0 0 .02-.07 0-.07-.06-.03-.14 0-.2 0-.12-.2-.27-.35-.53-.4-.04-.1-.1-.17-.22-.2.02-.18-.2-.1-.23-.24-.27.06-.35-.1-.6-.07 0-.1-.14-.06-.14-.16-.06-.04-.1-.08-.22-.08.02-.17 0-.28-.15-.3-.02-.1-.1-.18-.13-.3h-.3c-.12-.25-.42-.32-.44-.67-.07-.07-.17-.1-.3-.08.03-.13-.06-.15-.15-.15-.06-.07-.08-.17-.07-.3-.2-.06-.18-.36-.5-.3-.02-.06-.08-.08-.08-.15.07 0 .05-.1.07-.15-.07-.04-.13-.08-.23-.08s-.13-.02-.15-.08c-.05-.25.15-.12.22-.08.02-.12-.07-.12-.07-.22 0-.07-.1-.06-.15-.08v.15c-.13-.07-.26-.14-.22-.38-.24.06-.23-.12-.37-.15-.23.06-.14-.2-.37-.15.03-.18-.14-.16-.07-.37-.08-.05-.15-.1-.16 0-.12.02-.13-.08-.23-.08-.05-.2.12-.2.1-.38-.02-.1-.15-.07-.23-.08h-.23c-.03-.1-.1-.15-.22-.15.08-.28-.18-.22-.15-.45-.06 0-.07-.07-.15-.07.05.06.08.12.08.22-.23.02-.33-.26-.22-.37-.05-.23-.3-.26-.23-.6-.17-.03.05.34-.22.22-.04-.16-.18-.2-.15-.45-.03-.1-.1-.18-.22-.22l-.14-.3c-.17.02-.1-.22-.23-.23-.04-.1-.12-.18-.15-.3-.07-.13-.17-.23-.3-.3 0-.08-.02-.13-.07-.14.06-.42-.25-.45-.23-.83-.1.02-.1.22 0 .23.02.1-.07.12-.07.22-.2 0-.1-.32-.22-.45-.06-.23.12-.22.07-.45-.06-.04-.13-.1-.15 0 0 .07-.1.06-.14.08 0-.23-.32-.44.07-.45-.05-.06-.04-.2-.14-.23-.04-.06-.07-.12-.07-.22-.16-.05-.2-.2-.24-.38-.02.02-.12-.02-.14 0v.08c-.06 0-.08-.1-.15-.08 0-.13-.06-.2-.15-.22 0-.1 0-.2-.07-.22.03-.24-.1-.3-.15-.45-.1 0-.02-.22-.15-.22-.04-.06-.08-.12-.07-.22-.05-.16-.2-.22-.15-.45.15-.02.23.02.22.16.2 0 .15-.26.15-.45-.17 0-.28.02-.3.15-.1 0-.02-.22-.15-.22.03-.12-.06-.13-.07-.22-.04-.24.05-.34.07-.52 0-.13-.05-.2-.14-.22.04-.16-.04-.2-.07-.3-.22.1.08.26 0 .45-.17.03-.08-.2-.22-.22.02-.13-.08-.15-.07-.3.1 0 .22 0 .23-.07.03-.23-.2-.2-.23-.37v-.22c0-.08.02-.12.08-.14 0-.15-.2-.1-.14-.3-.22 0 .1.55-.22.45v-.74c.06-.04.12-.08.22-.08.04.1.07 0 .15 0 .04-.12-.05-.14-.14-.14-.06-.02-.07-.08-.14-.08.05-.52-.1-.85-.15-1.27-.2-.04.07.4-.22.3-.05-.2-.15-.4.14-.4-.1-.08-.08-.3-.08-.5-.17-.02-.03-.33-.07-.46-.24-.1-.06.24-.3.15-.05-.3.2-.3.15-.6-.18-.04.04.33-.23.2-.07-.18-.1-.45-.07-.74.08 0 .05-.14.15-.14.06-.04.13-.07.15-.15-.03-.1-.13-.2-.15-.08-.1.08-.12.02-.22 0-.07-.3-.1-.6-.08-.98.3-.12.03.32.22.3v.45c.13.02.14-.06.15-.16v-.28c.06-.23-.2-.15-.15-.38 0-.2.12-.23.15-.37 0-.3.02-.62-.07-.83.02-.07-.02-.15 0-.22 0-.03.07-.1.07-.08 0-.13-.1-.16-.07-.3.1-.05.14-.16.15-.3 0-.13.1-.15.07-.3.07-.17.13-.36.15-.6 0-.13-.1-.15-.07-.3-.04-.05-.08-.12-.08-.22-.13.03-.14-.06-.15-.15 0-.33.17-.1.3-.22-.06-.46.1-.7.07-1.13-.1.04-.16.1-.15.23 0 .06-.04.07-.08.07.05.18.2.64-.15.6-.02-.03.03-.13 0-.15h-.07v-.15h.07v-.45c.08-.17.05-.45.15-.6.2-.05-.05.36.15.3.1-.02.06-.18.07-.3.05-.04.1-.08.22-.07-.07-.2-.15-.58 0-.75.05-.23-.13-.22-.08-.45.16-.04.24-.16.37-.22-.07-.28.2-.22.16-.45-.02-.1-.15-.08-.15 0-.08-.02-.05-.14-.07-.23v-.3c.06-.24.14-.46.23-.67.2.13.07.2.07.45-.02.1-.13.12-.14.22v.3c.06 0 .04-.1.06-.15.06.02.07-.03.07-.07 0-.1 0-.22.08-.23.06-.16.16-.3.15-.52.08-.02.06-.15.15-.15.02-.06.08-.08.08-.15.14 0 .05-.25.22-.23-.05-.27.16-.28.15-.52.2-.02.13-.32.3-.37 0-.1-.02-.2.07-.22v-.52c.2-.02.1-.36.37-.3.06-.26.1-.54.2-.75v-.52c.1-.1.37-.03.38-.22.14-.03.13-.22.37-.15-.03-.1-.23-.06-.15-.3.1 0 .2 0 .22.08.18.03.1-.2.23-.22.04-.1.1-.18.22-.23 0-.13.1-.15.07-.3.16-.02.15-.2.3-.22-.05-.2.15-.13.22-.2-.06-.37.33-.28.23-.7.2.1.24.03.43-.06-.05-.07.07-.07.07-.08 0-.05-.13-.18-.07-.3.07 0 .06-.1.07-.15.07.03.07-.02.07-.06.1-.02.07-.14.08-.23.15 0 .14-.2.3-.2-.02-.23-.02-.42.22-.4.02.13-.07.14-.08.24.16.02.07-.22.2-.23.1-.06.04-.26.24-.2.1-.04-.03-.1 0-.24.1-.08.1-.03.22 0 .13-.06.12-.27.3-.3.06-.13.16-.23.3-.3.03-.15.14-.24.2-.37.1-.03.06-.16.16-.16.04-.06.08-.12.08-.22.17-.03.13-.26.36-.23 0-.15.05-.26.15-.3.04-.2-.12-.17-.06-.38.13-.03.14.05.14.15.2 0 .24-.12.3-.23.08-.02.05-.15.15-.15.06-.02.07-.08.15-.08-.03-.1-.13-.12-.15-.23v-.3c.07 0 .06-.1.07-.16h.15c.08 0 .06-.1.08-.15.06 0 .07-.04.07-.08.06 0 .08-.08.15-.08 0 0 .03.08.07.08h.08c0-.14-.1-.16-.08-.3.12 0 .28.04.3-.08.1 0 .2.02.22-.07.12 0 .28-.04.3.07.1-.04.18-.1.22-.22h.37c.07 0 .06-.1.07-.15.07 0 .07-.03.08-.07.07-.04.13-.07.14-.15.27-.04.4-.2.53-.38.05.02.07.08.14.08.12-.07.22-.17.3-.3h.28c.08 0 .06-.1.08-.15.06 0 .07-.03.07-.08.1 0 .07-.14.08-.22h.3c.2-.1.36-.2.44-.38h.23c.17-.02.14-.26.37-.22.07-.13.27-.13.3-.3.08 0 .13 0 .14.07.1-.04.18-.1.23-.22.23.05.28-.08.45-.08.1-.03.15-.1.15-.22h.22c.13-.07.23-.17.3-.3.06-.02.16.03.22 0 .03-.02.05-.14.07-.15.04 0 .14.02.16 0v-.08c.07-.02.15.02.22 0 .14-.03.14-.2.37-.15.02-.08.14-.06.23-.07 0-.07.1-.06.14-.07.02-.1.15-.06.15-.16h.22c-.06-.2.34.06.3-.14h.36c.2-.1.38-.23.66-.23.15-.03.14-.2.38-.15.1-.1.03-.12 0-.23-.03-.12.07-.12.07-.22.16-.03.14.1.15.22.12.02.12-.06.22-.07.22-.1-.27-.06-.15-.3h.36c.15-.02.15-.2.3-.22h.6c.17-.04.15.13.36.07.16-.03.2.05.3.08.76-.05 1.24.18 2 .15.34.07.66.17 1.1.15.12-.02.13.07.23.07.7-.04 1.16.18 1.85.15.12-.02.13.07.22.07h.6c.5.13 1.02.2 1.62.23.12-.02.13.07.22.08h.67c.12-.03.12.07.22.07.72-.03 1.22.17 1.93.15.17 0 .2.13.44.07.06.04.12.08.22.08s.13.02.15.08c.04 0 .1-.02.14 0 .07 0 .03.05.07.07.04 0 .14-.02.16 0v.07c.13.05.27.05.44.08 0 .14.25.05.23.22.23-.03.26.14.52.08 0 .07.1.06.14.08.04.2.33.15.36.37l.45.3c0 .15.2.1.15.3.1.04.2.1.23.22.28.1.37.37.66.45 0 .15.2.1.15.3l.3.15c.02.1.08.16.2.15.1.2.3.25.38.45.2-.06.2.1.37.08.03.06.07.13.15.15.02.07.14.05.14.15.23-.06.15.2.38.14l.3.45c.14-.04.2.04.3.07 0 .08.13.05.14.15.2 0 .3.14.5.15.07.17.24.22.38.3.07.13.28.12.3.3.13 0 .15.1.3.07.1.03.1.13.22.15-.04.37.1.58.22.82.18.03.16-.14.37-.08-.07.3.18.27.22.45.08 0 .05.14.15.14.04.06.08.12.08.23.06.13.16.23.3.3-.03.2.16.23.14.44.02.1.13.13.15.24.06 0 .04.1.06.15.06-.03.07.02.07.06.1.04.16.1.15.23.1.02.15.08.15.2.22.05.18.34.37.4-.04.25.26.17.22.44.1.07.28.07.37.15 0 .12.1.14.07.3.08 0 .05.13.14.14-.02.23.22.2.24.37.06.14.18.23.22.4.14.04.2.18.22.36.1.03.12.13.22.15.12 0 .13.08.22.08v.3l.23.45c0 .13.05.2.15.23 0 .1-.02.2.07.22.06.06.04.2.15.23.04.07.08.13.07.23.1.02.02.23.14.23.03.06.06.13.15.15v.38c0 .14.23.05.2.23.04.1.14.12.16.23.07.17.25.24.22.52.07.14.18.22.22.38.07.13.18.22.22.37.16.22.2.56.3.83v.52c0 .1.02.13.07.15-.02.1 0 .14.07.15-.05.18-.1.34-.08.6.02.17.07.32.22.37-.02.2-.02.37.14.38-.02.17.02.3.08.38v.52c0 .13.1.16.07.3.12 0 .04.22.16.22 0 .2 0 .36.08.45-.06.28-.1.55-.08.9.02.1.22.03.23.15.06.02.03.15.13.15-.07.3-.1.66-.08 1.05 0 .18.12.23.16.37v.52c-.02.12.08.13.08.22.02.26-.06.6.07.75.07.23-.1.22-.14.37-.05.2.15.15.15.3-.03.35.13.5.07.9.06.2-.14.14-.14.3zm11-1.06c0-.22-.3-.14-.2-.43.03-.2.3-.2.2-.54-.2-.2-.08-.7-.1-1.08 0-.14-.14-.15-.1-.32v-.76c-.06-.2-.24-.27-.23-.53-.02-.57 0-1.08.1-1.5-.13 0-.1-.2-.2-.23 0-.16-.3-.05-.33-.2-.04-.5.04-.9.1-1.3-.1-.12-.1-.37-.1-.64-.17 0-.06-.3-.2-.33 0-.2-.13-.23-.12-.43v-.75c-.1-.12-.14-.3-.1-.54-.24 0-.24-.26-.22-.53-.22-.07-.3-.28-.33-.53-.04-.37.05-.6.1-.86-.07-.03-.12-.1-.1-.22-.08-.02-.12-.1-.1-.22v-.75c-.16-.4-.2-.88-.43-1.2-.07-.22-.23-.34-.33-.53-.07-.23-.23-.35-.33-.54.05-.4-.2-.5-.32-.75-.03-.16-.18-.2-.22-.33.03-.25-.3-.12-.32-.32V102c-.1-.03-.16-.13-.2-.23-.18 0-.07-.3-.23-.32 0-.15-.04-.24-.1-.32-.15-.03-.12-.24-.2-.33-.14 0-.13-.16-.12-.32-.14-.04-.22-.13-.22-.32l-.32-.65v-.42c-.13 0-.14-.14-.32-.1-.15-.03-.17-.18-.32-.22-.04-.25-.1-.46-.32-.54-.06-.22-.23-.35-.32-.54-.04-.25-.38-.2-.33-.54-.15 0-.1-.18-.22-.2.02-.2-.12-.25-.1-.44-.15-.1-.4-.1-.55-.22.06-.38-.38-.26-.32-.64-.28-.08-.22-.5-.53-.54 0-.2-.08-.28-.22-.32 0-.2-.08-.28-.2-.33-.02-.06-.02-.13-.12-.1-.02-.1 0-.22-.1-.22-.03-.15-.2-.18-.22-.32.04-.3-.23-.32-.2-.64-.2-.1-.34-.24-.44-.43 0-.15-.05-.24-.1-.32-.15 0-.1-.18-.22-.2-.06-.27-.42-.24-.32-.65-.3-.1-.28.15-.54.1-.16-.34-.37-.63-.32-1.18-.16-.03-.2-.18-.33-.22-.2.03-.24-.12-.43-.1-.03-.26-.33-.24-.43-.43-.2-.1-.46-.2-.54-.44-.3 0-.45-.2-.75-.2 0-.15-.2-.1-.22-.23-.14-.03-.2-.15-.43-.1-.13-.23-.3-.42-.43-.65-.33.08-.2-.3-.54-.2 0-.16-.2-.12-.2-.23-.13-.02-.18-.12-.23-.22-.26.05-.23-.2-.54-.1-.12-.3-.43-.37-.55-.65-.18 0-.27-.08-.32-.2-.15-.07-.27-.18-.43-.23.08-.3-.2-.22-.2-.43-.43-.12-.57-.53-.98-.65-.06-.16-.17-.27-.32-.33.07-.3-.22-.22-.22-.43-.23-.13-.42-.3-.65-.43-.05-.3-.46-.25-.54-.53-.1-.02-.22 0-.22-.1-.37.08-.4-.17-.76-.12.04-.24-.3-.1-.32-.32-.25-.05-.46-.04-.64-.1v-.1c-.03-.04-.18 0-.22 0-.05-.04 0-.1-.1-.12-.08 0-.15.02-.22 0-.02-.08-.1-.12-.22-.1-.15 0-.23-.05-.32-.1-.33.07-.4-.12-.65-.12-1.03.03-1.75-.25-2.8-.2-.13-.02-.15-.15-.32-.12h-.96c-.14 0-.15-.14-.32-.1-.88-.03-1.65-.16-2.37-.33h-.86c-.15 0-.16-.14-.33-.1-1 .03-1.67-.28-2.7-.22-.14 0-.15-.13-.32-.1-.64.03-1.1-.12-1.62-.2-1.1.04-1.8-.3-2.9-.23-.15-.03-.2-.15-.43-.1-.3.08-.28-.16-.54-.1h-.86c-.22.02-.2.28-.43.3h-.54c-.18.35.54.3.2.44-.13 0-.14.15-.3.12-.02-.17 0-.38-.23-.33 0 .13-.13.14-.1.32.04.15.13.18 0 .32-.35-.1-.34.17-.54.2-.42.02-.67.2-.97.34h-.55c.08.3-.5-.08-.43.2h-.32c0 .15-.2.1-.22.23-.08.03-.2 0-.2.12-.14 0-.32-.02-.34.1-.34-.1-.33.17-.54.22-.1.02-.22-.03-.32 0v.1c-.02.04-.18 0-.2 0-.05.02-.07.2-.12.22-.1.04-.23-.03-.32 0-.1.2-.24.33-.43.43h-.32c0 .18-.08.27-.2.32-.27 0-.33.18-.66.1-.06.16-.17.27-.32.33-.02-.1-.1-.13-.22-.1-.03.24-.33.23-.43.42-.34-.05-.28.3-.53.32h-.33c-.14.26-.38.4-.65.53h-.43c-.02.13 0 .3-.1.32-.02.07-.03.13-.12.1-.02.1 0 .22-.1.23h-.44c-.1.2-.24.33-.43.43-.1 0-.13-.08-.2-.1-.18.27-.38.5-.77.54-.02.12-.12.17-.22.2 0 .08 0 .14-.1.12-.03.1 0 .2-.1.22h-.55c-.07.15-.18.26-.33.32-.02-.16-.26-.1-.43-.1-.02.12-.17.1-.32.1-.03.16-.27.1-.44.1-.02.2.12.24.1.44h-.1c-.06 0-.12-.1-.1-.1-.1-.02-.13.08-.22.1 0 .06 0 .12-.1.1-.03.1 0 .22-.1.22h-.23c-.02.1 0 .2-.1.22v.43c.02.16.17.2.2.33-.1 0-.12.1-.2.1-.15 0-.1.2-.22.22-.1.16-.15.35-.42.33-.02-.14-.03-.26-.22-.22-.1.3.15.28.1.54-.14.07-.2.23-.2.43-.34-.05-.3.3-.54.32 0 .15-.06.24-.1.33-.16 0-.1.2-.23.2-.1.2-.27.33-.33.55-.2.1-.33.24-.43.43-.26.03-.24.33-.43.43-.15-.05-.17-.14-.32 0-.04.18.16.27 0 .3-.3-.06-.2.24-.32.34-.2 0-.07.35-.32.32 0-.14.14-.15.1-.32-.33-.05-.34.23-.32.54-.22.03-.2.3-.43.32-.03.13 0 .3-.12.32 0 .07 0 .13-.1.1-.02.1 0 .22-.1.22-.1.18.1.36.1.44 0 0-.18 0-.1.1-.3.14-.34.24-.66.1.15.6-.4.46-.32.98-.1.12-.4.03-.32.32-.22.04-.2.3-.43.33.02.2-.12.24-.1.44-.17.06-.27.16-.33.32-.2 0-.08.36-.33.32-.03-.12-.18-.1-.33-.1-.12.33.17.26.22.43-.36-.1-.35.17-.55.22 0 .28-.4.17-.54.32v.76c-.16.3-.2.7-.3 1.07-.42-.08-.25.42-.55.44v.76c-.13.02-.12.17-.1.32-.25.1-.15.5-.44.54.03.34-.28.36-.2.76-.25-.04-.13.3-.33.32 0 .1-.1.12-.1.2-.15 0-.1.2-.22.23 0 .33-.14.5-.22.75-.12.02-.12.17-.1.33 0 .07-.02.13-.12.1 0 .1 0 .23-.1.23v-.43c.03-.16.2-.18.22-.33 0-.36.2-.46-.1-.64-.13.3-.25.62-.33.97v.43c0 .13-.03.3.1.32 0-.1.2-.13.2 0 .07.34-.3.25-.2.65-.2.1-.3.26-.54.32-.08.33.2.32.1.65-.2.24-.08.8 0 1.07-.14 0-.23.05-.3.1-.03.17.03.4-.12.44-.3.08.08-.5-.2-.43-.16.2-.12.62-.23.86 0 .33.02.46 0 .66h-.1c-.02 0 0 .2 0 .2 0 .02.1 0 .1 0 .05.04-.02.2 0 .23.52.05.3-.62.23-.87.06 0 .12-.02.1-.1 0-.2.08-.28.22-.33.03.6-.2.95-.1 1.6-.2.2-.43-.15-.44.33.02.14.04.26.23.22 0 .15.05.24.1.32-.02.2.12.24.1.43-.02.34-.1.6-.2.86.02.2-.13.24-.1.44-.03.2-.08.36-.23.43-.02.2.12.23.1.43 0-.03-.1.07-.1.1-.03.1.03.23 0 .33.13.3.12.73.1 1.17-.04.2-.22.27-.2.54-.1.34.3.22.2.55v.43c0 .13-.02.26-.2.22v-.65c-.3.03.1-.6-.33-.43-.03.53.02 1 .1 1.4.16.04.2.13.33 0 .03-.17.18-.02.22.1-.03.13-.12.17-.22.22-.14 0-.1.2-.2.22-.04.4-.02.8.1 1.07.37.17.06-.36.32-.32.07.44-.3.44-.22.87.35.13.1-.35.43-.2.06.18-.13.62.1.63 0 .3-.03.62.12.76-.44-.02-.3.27-.22.53.43.17.04-.47.33-.43.07.6.28 1.07.2 1.83.12 0 .14.08.23.1.12 0 .24.03.2.22-.12 0-.17.15-.2 0-.16 0-.25.05-.34.1V126c.48.15 0-.64.33-.64-.1.3.2.22.2.43-.08 0-.13.08-.1.2v.33c.03.25.37.2.3.53 0 .13-.15.12-.3.1-.03.2.1.25.1.44.2 0 .08.36.32.33.12-.28-.32-.52 0-.65.04.14.16.2.1.43.15.05.23.15.23.33-.04.26-.17.4-.1.76 0 .13.13.14.1.3.18 0 .06.3.2.33.04-.2.2-.24.44-.2 0 .27.05.62-.22.63 0-.2-.1-.25-.33-.2-.05.33.16.4.22.63 0 .14.05.23.1.32.2 0 .07.3.22.32.05.23.26.3.2.65.13 0 .13.16.12.3.13.05.22.15.2.33.12-.02.14.12.23.1v-.1c.03-.03.17.03.2 0 .05.25.12.47.34.54-.02.15.03.24.1.32.15.02.12.23.2.32-.55.02-.1.32-.1.64.08-.02.2 0 .22-.1.02-.14.12-.07.2 0 .1.32-.18.3-.1.64.2.2.02.66.33.65 0-.14.14-.15.1-.33-.14 0-.13-.3 0-.32-.03.54.4.6.33 1.2.08 0 .12.08.1.2.2.1.34.24.44.43.05.16.15.27.2.43.22.02.08.36.33.33.06.15.16.26.22.42.15.06.26.16.32.32-.06.34.15.42.2.65.4.15.07-.38.33-.34-.1.5.25.54.32.86-.16.16 0 .56.33.54 0-.15-.05-.23-.1-.32.1 0 .12.1.2.1-.05.35.34.25.22.65.2 0 .28.08.32.2h.33c.12.03.3 0 .32.12.05.26-.2.23-.1.54.13 0 .14.13.3.1.04-.13.14-.06.23 0-.1.3.15.28.1.54.34-.08.2.3.55.22.2.04.2.3.53.2-.04.35.14.45.33.55v-.22c.1.03.22 0 .22.1 0 .15.14.16.1.33-.1-.06-.4-.25-.3.1 0 .1.08.14.2.12.15 0 .24.05.33.1-.03.1 0 .22-.1.22 0 .1.07.13.1.22.47-.08.44.35.75.43 0 .2.02.33.1.43.14 0 .26.03.22.22.2 0 .34.02.43.1.03.5.47.6.65.97h.43c.06.15.16.26.22.42.2.03.24.2.2.43.16 0 .25.05.34.1 0 .15.17.1.2.23.35-.03.46.2.86.1 0 .2.36.08.32.33.16.07.27.18.33.33.4.05.6.27.76.54.1.02.23-.03.32 0v.1c.06.06.24-.02.22.1.27 0 .34.18.43.33.4-.06.4.24.75.22.04.33.57.15.65.43.1 0 .13.1.2.1.13.02.07.1.12.12.16.08.28.03.43.1.02 0 0 .1 0 .1.02.03.1 0 .1 0 .23.15.37.24.66.23.02.15.17.18.2.32.2 0 .35.03.44.1.1 0 .13.1.22.12.08.02.2 0 .2.1.17.02.4-.03.44.1.25 0 .4.04.44.23h.53c.08.14.24.2.44.2.22 0 .14.3.44.23h.53c0 .18.3.06.34.22h.53c.02.12.18.1.33.1.04.14.14.22.32.22.35-.06.5.07.75.1.26 0 .32-.18.65-.1.48.1.92.23 1.5.2.15.16.52.08.65.23.32-.03.34.24.65.2h.75c.28.13.53.27.97.23.03.08.1.12.22.1.02.1.1.13.2.12.95-.04 2.04.08 2.8-.1.36-.08.5.06.77.1.02-.13.17-.12.32-.1h.86c.15-.02.16-.15.33-.12h.87c.13-.15.46-.1.75-.1.02-.1.1-.13.22-.12.02-.08.08-.12.2-.1.28-.02.53-.02.66.1 0-.14.2-.1.2-.2.15-.02.16-.15.33-.12 1-.07 1.7-.45 2.8-.43.02-.13.17-.12.33-.1 0-.17.25-.1.42-.1.02-.14.17-.13.32-.12.03-.14.24-.12.32-.2h.65c.1-.2.4-.2.44-.44.22-.06.35-.22.54-.32.2.02.24-.12.43-.1 0-.2.3-.07.34-.22.4.03.6-.12.86-.22.32-.03.48-.24.75-.32.2 0 .33-.03.43-.1.02-.17.26-.1.43-.12.1-.27.46-.27.66-.43.48 0 .74-.27 1.18-.33.03-.2.4-.1.43-.32.33.08.32-.18.65-.1.02-.1.1-.13.2-.1.03-.13.13-.18.23-.23h.43c.1-.2.24-.33.43-.43.1-.3-.14-.27-.1-.54.3.08.22-.2.43-.2.22 0 .14-.3.43-.23.1-.2.24-.33.43-.43.13-.18.22-.42.53-.43-.04-.27.2-.24.1-.55.5-.33.8-.85 1.3-1.18.23-.13.42-.3.65-.43.04-.14.14-.22.32-.22 0-.06.02-.12.1-.1.03-.1 0-.22.1-.22.2-.1.33-.26.56-.32 0-.22.3-.14.2-.43.17-.06.28-.16.44-.22-.08-.33.2-.3.1-.65.2.03.25-.12.44-.1.1-.32.32-.54.65-.65-.02-.33.2-.42.3-.64h.33c.12-.12.04-.4.32-.34.07-.15.17-.26.33-.32.06-.22.22-.35.32-.54.1-.2.24-.33.43-.43-.05-.34.13-.44.32-.54-.1-.3.16-.28.1-.54.17-.03.2-.18.33-.22.15-.07.2-.23.22-.43.38.06.27-.38.65-.33.13-.22.3-.4.53-.53 0-.2.03-.35.1-.45.22 0 .1-.35.33-.32-.07-.3.17-.28.12-.54.2-.02.08-.36.33-.33-.05-.5.36-.57.32-1.08.25-.08.3-.36.54-.44.02-.2.08-.36.22-.43-.06-.45.2-.6.22-.97-.04-.14-.15-.2-.1-.43l.3-.64c.17-.04.14-.25.23-.34.15-.02.18-.17.32-.2.02-.2-.13-.25-.12-.44.15 0 .1-.2.22-.22 0-.2.03-.33.1-.43.02-.06.02-.13.12-.1.02-.1 0-.22.1-.22 0-.07.02-.13.1-.1.04-.1 0-.22.12-.22v-.65c.2-.1.18-.4.43-.43.02-.13-.02-.3.1-.32.02-.17-.03-.4.1-.44.07-.3.17-.56.23-.87 0-.18.02-.33.1-.43-.12 0-.1-.17-.1-.32v-.43c.07 0 .13-.02.1-.1.03-.1.1-.13.22-.12.02-.12-.02-.3.1-.32.03-.12 0-.3.12-.3.1-.32-.15-.3-.1-.55.14-.2.27-.44.3-.76.2 0 .08-.3.23-.33 0-.2.3-.13.22-.43-.02-.14-.16-.14-.12-.32 0-.22.3-.14.2-.43.1-.56-.14-.8-.1-1.3z"/>
  <path fill="#f4c522" fill-rule="evenodd" d="M42.33 136.43c-.28.08-.18-.74-.43-.32.18 0 .2.7.43.33m-2.05-35.75c-.08.02-.12.1-.1.2.08 0 .12-.08.1-.2.15-.03.12-.24.22-.32.13-.05.22-.14.2-.33-.45-.1-.45.26-.42.65m-.54.97c.27.16.32-.37.1-.32 0 .06 0 .12-.1.1v.22zm4.1 37.47c-.34.02-.5-.38-.33-.54-.06-.32-.4-.38-.3-.86-.27-.04.05.5-.34.32-.06-.22-.26-.3-.2-.64-.07-.16-.18-.27-.33-.32-.06-.16-.16-.28-.22-.44-.24.03-.1-.3-.3-.32-.07-.16-.17-.27-.23-.43-.1-.2-.24-.34-.43-.44.02-.12-.02-.2-.1-.22.08-.6-.37-.64-.33-1.18-.13.02-.13.32 0 .32.04.17-.1.2-.1.33-.3.02-.13-.45-.32-.64-.08-.33.18-.32.1-.65-.1-.05-.18-.12-.2 0 0 .12-.14.1-.22.12 0-.33-.46-.62.1-.65-.1-.08-.06-.3-.2-.32-.07-.08-.12-.17-.12-.32-.2-.08-.3-.3-.32-.54-.04.02-.2-.04-.22 0v.1c-.08 0-.1-.13-.2-.1 0-.2-.1-.3-.23-.33 0-.16.02-.3-.1-.32.05-.34-.16-.43-.22-.65-.16-.03-.04-.32-.2-.32-.07-.1-.13-.18-.12-.33-.06-.22-.27-.3-.22-.64.23-.03.35.03.34.22.27 0 .2-.36.2-.64-.24-.03-.4.02-.42.2-.16 0-.04-.3-.22-.3.03-.2-.1-.2-.1-.34-.07-.34.07-.5.1-.75 0-.2-.07-.3-.2-.33.03-.23-.1-.3-.12-.43-.33.13.12.37 0 .64-.25.04-.12-.3-.32-.32 0-.2-.13-.23-.1-.43.14 0 .3.02.3-.1.06-.35-.28-.3-.3-.55v-.32c-.03-.12 0-.2.1-.2 0-.23-.3-.15-.22-.44-.32 0 .15.8-.32.64v-1.07c.1-.07.17-.13.32-.13.05.16.1 0 .22 0 .04-.18-.1-.2-.22-.2-.1-.03-.1-.12-.2-.12.06-.75-.15-1.22-.23-1.83-.27-.03.1.6-.3.43-.08-.26-.23-.55.2-.54-.14-.12-.1-.45-.1-.74-.24 0-.05-.46-.1-.65-.36-.12-.1.36-.44.23-.07-.43.28-.43.2-.86-.24-.04.07.5-.3.32-.12-.3-.14-.67-.12-1.1.12 0 .07-.2.22-.2.1-.05.2-.1.2-.2-.02-.14-.17-.3-.2-.12-.14.13-.17.04-.32 0-.1-.42-.14-.87-.1-1.4.4-.18.02.46.3.43v.65c.2.04.2-.08.23-.2v-.44c.08-.32-.3-.2-.22-.53-.02-.27.17-.33.22-.54 0-.44.02-.88-.1-1.18 0-.1-.04-.23 0-.33 0-.03.1-.14.1-.1 0-.2-.13-.23-.1-.43.13-.1.2-.24.2-.45 0-.2.13-.22.1-.43.12-.25.2-.53.23-.86 0-.2-.14-.23-.1-.43-.07-.1-.12-.17-.12-.32-.18.05-.2-.08-.2-.2 0-.5.23-.14.42-.33-.1-.66.14-1 .1-1.62-.13.05-.22.14-.2.33 0 .1-.05.1-.12.1.08.26.3.92-.2.87-.04-.04.02-.2 0-.22h-.12c0-.02-.02-.2 0-.2 0-.02.1 0 .1 0v-.66c.12-.25.07-.65.22-.86.3-.07-.08.52.22.44.14-.04.1-.27.1-.43.1-.05.18-.1.33-.1-.1-.27-.2-.83 0-1.08.08-.32-.2-.3-.1-.64.2-.07.34-.23.53-.33-.12-.4.27-.3.2-.64 0-.13-.2-.1-.2 0-.13 0-.1-.2-.1-.3v-.45c.07-.34.2-.66.3-.96.3.17.1.27.12.63-.04.14-.2.17-.22.32v.44c.1-.02.1-.15.1-.23.1.02.12-.04.12-.1 0-.16-.02-.3.1-.33.1-.24.24-.42.22-.75.12-.04.08-.23.22-.23.02-.1.1-.1.1-.22.2 0 .08-.35.33-.32-.07-.4.23-.4.22-.75.3-.04.2-.46.43-.54 0-.15-.02-.3.1-.32v-.76c.3-.02.14-.5.54-.43.1-.37.16-.77.33-1.07v-.76c.13-.15.52-.05.53-.32.2-.05.2-.3.54-.22-.05-.17-.34-.1-.2-.43.14 0 .3 0 .3.1.26.04.13-.3.33-.3.06-.17.17-.28.33-.34-.02-.2.13-.23.1-.44.22-.03.2-.3.43-.32-.07-.3.23-.2.33-.32-.1-.52.47-.4.32-.97.32.13.37.03.65-.1-.07-.1.1-.1.1-.12.02-.07-.2-.26-.1-.43.1 0 .08-.13.1-.2.1 0 .1-.06.1-.12.14-.02.1-.2.12-.32.22-.03.2-.3.43-.33-.02-.3 0-.58.32-.53.03.17-.1.18-.1.32.25.03.1-.3.32-.32.1-.1.03-.4.32-.33.16-.04-.04-.14 0-.32.14-.13.17-.04.33 0 .18-.1.17-.4.43-.43.1-.2.24-.33.43-.43.06-.24.22-.36.32-.55.12-.03.07-.2.2-.22.07-.08.13-.17.12-.32.26-.02.2-.36.54-.3.03-.2.08-.37.23-.44.04-.26-.2-.24-.1-.54.17-.04.2.08.2.2.27.03.34-.15.43-.3.12-.04.08-.22.22-.23.1-.03.1-.1.2-.1-.02-.15-.17-.18-.2-.34v-.43c.1 0 .08-.13.1-.2H49c.1 0 .1-.14.1-.23.1.02.1-.04.12-.1.08-.02.1-.12.2-.1 0 0 .05.1.12.1h.1c.02-.2-.12-.23-.1-.43.17 0 .4.05.43-.1.16 0 .3 0 .32-.12.16 0 .4-.05.43.1.15-.05.26-.16.32-.32h.54c.1 0 .07-.13.1-.2.1 0 .1-.05.1-.12.1-.04.2-.08.22-.2.38-.05.6-.28.75-.54.1.02.1.1.22.1.18-.1.32-.23.42-.43h.43c.1 0 .08-.13.1-.2.1 0 .1-.05.1-.12.14 0 .1-.18.12-.3h.43c.28-.13.52-.28.65-.55h.32c.26-.03.2-.37.54-.32.1-.2.4-.18.44-.43.13-.02.2.02.2.1.17-.06.28-.16.34-.32.33.08.4-.1.64-.1.14-.05.23-.14.22-.33h.32c.2-.1.34-.24.43-.43.08-.03.23.04.32 0 .05-.02.06-.2.1-.22.04 0 .2.03.22 0v-.1c.1-.03.22.02.32 0 .2-.05.2-.3.54-.22.02-.12.2-.1.32-.1 0-.1.14-.1.22-.1.03-.13.2-.1.2-.23h.34c-.08-.3.5.08.43-.2h.55c.3-.15.54-.33.97-.34.2-.03.2-.3.54-.2.12-.15.04-.17 0-.33-.04-.17.1-.18.1-.32.23-.05.2.15.22.32.17.03.18-.1.32-.1.32-.13-.4-.1-.22-.43h.54c.22-.04.2-.3.44-.33H66c.27-.03.25.2.56.12.22-.05.28.07.43.1 1.1-.06 1.8.28 2.9.22.5.1.97.25 1.6.22.18-.03.2.1.33.1 1.03-.05 1.68.26 2.7.22.17-.03.18.1.32.1h.86c.73.18 1.5.3 2.38.33.17-.02.18.1.32.12h.97c.17-.03.18.1.32.1 1.04-.04 1.76.25 2.8.22.24 0 .3.2.64.1.08.07.17.12.32.12.12-.02.2.02.2.1.08.02.16 0 .23 0 .1.03.04.1.1.1.04.03.2-.02.2 0 .02.02 0 .12 0 .12.2.07.4.06.66.1 0 .2.36.08.32.33.34-.04.38.2.76.12 0 .1.13.08.2.1.1.3.5.24.55.54.22.14.4.3.64.44 0 .2.3.13.2.43.17.06.28.17.33.32.42.12.56.53.97.64 0 .2.3.13.22.43.16.05.27.16.43.2.04.14.13.23.3.23.12.28.44.36.55.64.3-.08.28.16.54.1.04.1.1.2.2.23.03.1.22.07.22.2.33-.07.2.3.54.23.13.22.3.42.43.64.2-.04.28.08.42.1.03.13.2.08.2.23.32 0 .47.2.77.2.07.26.3.33.53.44.1.2.4.18.43.43.2 0 .23.14.43.1.13.05.16.2.3.23-.03.54.18.84.33 1.18.26.06.24-.2.54-.1-.1.42.27.4.33.65.1.02.07.2.2.2.07.1.13.2.12.34.1.18.24.32.43.42-.03.3.25.33.22.64.03.15.18.17.2.33.1 0 .1.12.12.2.08-.02.1.04.1.1.13.06.22.15.2.33.14.05.23.14.23.33.3.04.25.46.54.54-.06.38.37.26.32.64.13.1.4.1.53.22-.02.2.13.22.1.43.12 0 .08.2.22.2-.05.34.3.3.32.54.1.2.26.32.33.54.2.07.28.3.32.54.14.04.17.2.32.2.18-.02.2.12.32.12v.43c.1.22.23.43.33.65-.02.18.07.28.2.32 0 .15 0 .3.1.32.1.1.08.3.23.33.05.07.1.16.1.3.16.03.04.33.22.33.05.1.1.2.22.22v.54c0 .2.35.06.32.3.03.15.18.18.2.33.1.25.37.35.33.76.1.18.26.3.32.52.1.2.26.32.32.54.23.32.27.8.43 1.2v.74c0 .13.03.2.1.22 0 .12.03.2.12.2-.06.27-.16.5-.1.87.03.24.1.46.3.53 0 .27 0 .52.23.54-.03.25.02.4.1.54v.76c0 .2.14.23.1.43.17.02.05.32.23.32 0 .26-.02.5.1.64-.07.4-.14.78-.1 1.3.03.15.32.03.32.2.12.04.07.22.22.23-.1.42-.13.93-.1 1.5-.03.26.16.33.2.53v.75c-.02.18.1.2.1.33.04.37-.07.88.12 1.08.1.35-.17.34-.2.54-.1.3.2.22.2.43-.04.5.2.75.1 1.3.1.3-.2.2-.2.42-.04.18.1.2.1.33.08.3-.2.22-.2.43-.17.02-.05.32-.23.32-.03.32-.16.55-.3.76-.06.27.18.24.1.55-.13 0-.1.2-.1.32-.14 0-.1.2-.12.32-.12-.03-.2 0-.22.1.02.1-.04.1-.1.1v.44c0 .15-.02.3.1.32-.08.1-.1.24-.1.43-.06.3-.16.55-.22.85-.15.04-.1.27-.1.43-.13.02-.1.2-.1.33-.27.04-.25.34-.45.44v.64c-.1 0-.1.13-.1.22-.1-.02-.1.04-.12.1-.1 0-.08.14-.1.22-.1-.02-.1.04-.12.1-.08.1-.1.25-.1.44-.12.03-.08.2-.22.22 0 .2.13.22.1.43-.13.04-.16.2-.3.22-.1.1-.08.3-.23.32l-.3.65c-.06.2.06.28.1.42-.03.37-.28.52-.22.97-.14.06-.2.22-.2.42-.26.07-.3.36-.55.43.04.5-.37.57-.33 1.08-.25-.04-.12.3-.32.32.04.26-.2.24-.1.54-.26-.04-.13.3-.33.3-.08.1-.12.25-.1.44-.23.14-.4.32-.55.54-.38-.06-.26.38-.64.33-.02.2-.07.36-.22.44-.14.03-.17.2-.32.2.04.27-.2.24-.1.55-.2.1-.38.2-.33.53-.2.1-.35.24-.44.43-.1.2-.26.3-.33.54-.15.06-.26.17-.32.32-.28-.07-.2.22-.3.32h-.33c-.1.23-.33.32-.33.65-.32.1-.54.3-.64.64-.2-.02-.23.13-.43.1.07.33-.2.32-.1.65-.17.05-.28.15-.44.2.07.3-.2.22-.22.43-.2.07-.34.23-.53.33-.1 0-.08.13-.1.2-.1 0-.1.06-.1.12-.2 0-.3.08-.34.22-.22.13-.4.3-.64.43-.5.33-.8.85-1.3 1.18.1.32-.15.3-.1.55-.33 0-.4.25-.55.43-.2.1-.33.24-.43.43-.3-.07-.22.23-.43.23-.22 0-.15.3-.44.2-.04.27.2.24.1.55-.18.1-.33.24-.42.43h-.43c-.1.06-.2.1-.2.23-.13-.02-.2.02-.23.1-.32-.07-.3.2-.64.1-.03.23-.4.1-.43.33-.44.06-.7.32-1.2.33-.2.14-.55.14-.63.42-.17 0-.4-.05-.43.1-.1.1-.25.12-.43.1-.26.1-.42.3-.75.34-.26.1-.46.25-.86.22-.03.15-.33.03-.33.2-.2 0-.23.14-.43.12-.2.1-.32.26-.54.32-.04.25-.33.24-.43.43h-.65c-.1.1-.3.06-.32.2-.16 0-.3 0-.32.12-.17 0-.42-.05-.44.1-.15 0-.3 0-.32.12-1.1-.03-1.8.35-2.8.42-.17-.03-.18.1-.32.1-.03.12-.2.08-.22.22-.12-.12-.38-.12-.64-.1-.13-.02-.2.02-.22.1-.12-.02-.2.03-.2.1-.3 0-.63-.03-.77.12h-.86c-.18-.03-.2.1-.33.1h-.86c-.15 0-.3 0-.32.1-.25-.02-.4-.16-.75-.1-.77.2-1.86.08-2.8.1-.12.03-.2 0-.2-.1-.14.02-.2-.02-.23-.1-.44.04-.7-.1-.97-.22h-.75c-.32.03-.33-.24-.65-.2-.14-.16-.5-.08-.65-.23-.58.03-1.02-.1-1.5-.2-.33-.08-.4.1-.65.1-.25-.03-.4-.17-.75-.1-.2 0-.28-.1-.33-.22-.15 0-.3.02-.32-.1h-.54c-.03-.16-.33-.04-.33-.22h-.54c-.3.08-.2-.22-.43-.22-.2 0-.36-.07-.43-.2h-.54c-.02-.2-.18-.26-.43-.23-.03-.14-.27-.08-.43-.1 0-.1-.13-.08-.22-.1-.08-.02-.1-.1-.2-.1-.1-.1-.25-.13-.44-.12-.03-.14-.18-.17-.2-.32-.3 0-.43-.08-.65-.22-.02 0-.1.02-.1 0-.02 0 0-.1 0-.1-.16-.08-.3-.04-.44-.1-.04-.04.02-.1-.1-.12-.08 0-.1-.12-.2-.1-.1-.3-.63-.1-.66-.44-.34.02-.36-.3-.76-.22-.1-.15-.15-.34-.42-.32.02-.13-.16-.05-.22-.1v-.1c-.1-.04-.22 0-.32 0-.17-.28-.37-.5-.76-.55-.06-.17-.16-.28-.32-.33.03-.25-.3-.12-.32-.33-.4.1-.52-.13-.86-.1-.03-.12-.22-.08-.22-.22-.1-.06-.17-.1-.32-.1.03-.25-.03-.4-.22-.44-.05-.16-.16-.27-.2-.43h-.44c-.18-.36-.62-.46-.65-.97-.1-.08-.23-.1-.42-.1.04-.2-.08-.2-.22-.22-.08-.1-.1-.25-.1-.43-.32-.1-.28-.5-.76-.43-.02-.1-.1-.1-.1-.22.1 0 .08-.13.1-.2-.1-.07-.17-.13-.32-.12-.13.02-.2-.02-.22-.1-.07-.37.23-.18.33-.12.02-.17-.1-.18-.12-.32 0-.1-.13-.1-.22-.1v.2c-.18-.1-.37-.2-.32-.53-.34.08-.33-.18-.54-.23-.33.08-.2-.3-.53-.2.04-.27-.2-.25-.1-.55-.1-.07-.2-.13-.23 0-.17.03-.18-.1-.32-.1-.1-.3.15-.3.1-.55 0-.12-.2-.1-.32-.1h-.32c-.05-.14-.14-.22-.32-.22.1-.4-.27-.3-.22-.65-.1-.02-.1-.1-.2-.1.04.08.1.17.1.32"/>
</svg>
