<svg xmlns="http://www.w3.org/2000/svg" viewBox="0 0 210 297"><path d="M116.3 156.5c-.2.2 0 .5-.2.7v1s.3 0 .2.2v.3c0 .3-.2.5 0 .8h-.2c0 .2 0 .4-.2.5l-.2.4-.5.7c0 .2 0 .2-.2.3v.2h-.3a.8.8 0 0 1-.3.4.8.8 0 0 1-.3.2c0 .2-.2.2-.4.3 0 0-.2 0-.3.3-.2 0-.3.4-.6.5a4 4 0 0 1-.6.3h-.5c0 .2 0 .2-.3.2h-.3c-.3 0-.6 0-.8.2h-1.8l-.7.2h-1.9c-.7 0-1.3-.2-2-.3 0-.2-.2 0-.3-.3h-.3c-.3-.2-.5-.3-.8-.3h-.2c-.2 0-.2-.2-.3-.2h-.2c-.2 0-.2-.3-.4-.2a.7.7 0 0 0-.2 0c-.2 0-.2 0-.2-.2-.2 0-.3-.3-.5-.4 0 0-.2 0-.2-.2 0 0-.2 0-.2-.3v-.3a.5.5 0 0 1-.3-.2c-.2 0-.2-.2-.2-.3a.5.5 0 0 1-.3-.2v-.3c-.3-.2-.3-.4-.4-.5v-1c-.2-.2-.2-.5 0-.8l-.3-.7v-.2-.3-.6h-1.1c0 1.5.2 3.2 0 4.7v2.7c.2 0 0 .2 0 .3.2 0 .2 0 .2.2v1.2h.2c.2 0 .2.4.3.4l.4.3s.2 0 .3.2h3.8c.5.2 1 .3 1.8.3H105s0 .2.2.2h1.6c.6 0 1 0 1.6-.2h.8c.4 0 .4-.2.8 0 .2-.2.5-.3.8-.3h.8c.3-.2.6-.4 1-.4h2.1s.4 0 .5.2c0 0 .3 0 .4.2h.4s.3 0 .3-.2h.3v-.3a.3.3 0 0 1 .2-.2s.2 0 .2-.2c0 0 .2 0 .2-.3V164v-.5c0-.2 0-.2.2-.3v-.4-.4-.3-.3c-.2 0 0-.2 0-.3l-.2-.4v-.7-.3c0-.2-.2 0-.2-.3a.7.7 0 0 0 0-.5v-1.4c.2-.3.2-.5.2-.8v-.2-.4h-.3-.3m-9.7-4h-.5c-.2 0-.3.3-.6.2a.5.5 0 0 1-.3.3v.3c-.2 0-.2.2-.3.2 0 .2-.2.2-.2.2l-.2.6s0 .2-.2.2c0 0 0 .2-.2.2 0 .2 0 .2-.2.3 0 0 0 .2-.2.2v.7h-.3v.3h-.2V157.4h.2a.3.3 0 0 0 0 .3h.2v1h.2v.2a.8.8 0 0 1 .4.3s.2 0 .3.3h.2c-.2.2 0 0 0 .3h1.6a4.6 4.6 0 0 1 1.3 0c0-.2.2 0 .2-.3h.4c.3 0 .3-.3.6-.3H109.8v-.3h.5s0-.2.2-.3c0 0 0-.2.3-.2.2 0 .2-.2.3-.2l.2-1V156v-.8c-.2 0-.2 0-.3-.2-.2 0-.2-.2-.2-.2v-.2s-.2 0-.2-.2v-.4h-.5v-.2h-.2c0-.2 0-.2-.2-.2h-.2a.8.8 0 0 1-.3-.4c-.2 0-.2-.2-.4 0 0-.2 0-.2-.2-.2 0-.2-.2-.3-.4-.3s0-.2-.3 0h-.4c-.2 0-.3 0-.5-.2m9.5-6.3l-1-.2c0 .3-.6 0-.7.3 0 .2-.4.2-.5.4l-.4 1v1.2l.6.4c0 .3.3 0 .4.4h.2c0 .2.2 0 .2.3.2 0 .6 0 .5-.2.6 0 .8 0 1.2-.2 0-.2 0-.2.2-.3 0-.2 0-.3.2-.3v-.6s.2-.4 0-.4v-.6c0-.5-.3-.8-.7-1h-.2m3.2-3.8c0 .2.2.2.2.3 0 0 0 .3.3.3v.3c.2.2.3.2.3.4v.4l.2.4c.2 0 .2.4.4.6v2.2c.2 0 .2.4.3.5v3.9s0 .3.2.4v2.4c0 .4 0 .6-.2 1v5c0 .8 0 1.6.2 2.3v.5l.3.3v2.2c0 .2-.2.2-.2.3v.3c0 .5-.3.7-.3 1V167.7h-.2V168.6s-.2 0 0 .3h-.2c0 .3-.2.3-.3.3-.2 0 0 .3-.2.3s-.2 0-.3.2h-.3c0 .2-.2.3-.3.3v.2h-.2a.5.5 0 0 0-.3.3h-.2l-.2.2h-1.4c-.3 0-.5.2-.8.3H115c-.2 0-.4 0-.6-.2h-.5c-1 0-1.7 0-2.3-.2h-1.5-.3-.2-3.4c0 .2-.3.2-.4 0h-1.4-.5H101.8c-.4 0-.6-.2-1 0-.2 0-.2-.3-.5-.2h-.2l-.3-.2H99h-.4c-.2 0-.2.2-.3.2h-.7-.4s0 .2-.3 0c-.3.2-.3 0-.4 0h-.2l-.4-.2h-.2c-.2 0-.2-.3-.3-.3 0 0 0-.3-.2-.2l-.2-.2-.4-.5v-.2c-.2 0-.3 0-.2-.3-.2 0 0-.2-.2-.2v-.2c-.2-.6-.3-1-.3-1.6 0-.2-.2-.2 0-.3h-.2c0-.2 0-.2-.2-.3v-.2-.6-2-.2c-.2-.2 0-.6 0-1 0 0-.2 0 0-.2-.2 0 0-.3-.2-.3v-.6-.6-.5-.6-.7a12 12 0 0 0 0-2.2c-.2 0-.2-.2-.2-.3v-1.5-.4-.3l.2-.5v-1.8-.3s0-.2-.2-.2v-.6c-.3-.2 0-.3 0-.6s0-.6-.2-.7c.2-.3 0-.6 0-.8v-.8-.6l-.2-.5.2-.8v-.3-.4c.2 0 .2 0 .2-.2.2 0 0-.2.2-.2v-.3h.2c.2 0 .3-.2.4-.3 0-.2 0-.4.2-.5.2 0 .3 0 .4-.3.4 0 .6-.3 1-.4H96.3c0-.2 0-.2.2-.3h1.2c.4 0 .6-.2 1 0l1-.4h1c0 .2 0 0 .3 0 0 0 .2.2.3 0H106.4v-.2h5l.6.2h1.3c.5 0 1 .2 1.4 0h4.3c0 .2.2.3.5.2" fill="#000" fill-rule="evenodd"/></svg>