<svg xmlns="http://www.w3.org/2000/svg" viewBox="0 0 287.56125 10.500488"><path fill="#ffc400" fill-rule="evenodd" d="M3.75 10.5h-.38c0-.63-.75-.38-1.25-.63-.5 0-.87.38-1.25 0 0-.37-.6-.37-.5-.87 0-.5-.5-.75-.36-1.25V7.5c.27-.38 0-.63.4-.63 0 0 .37 0 .24-.62V6c0-.25.38-.25.26-.5.36 0 .36-.5.6-.5H2s.25-.25.25 0c.5 0 .63-.25.88-.38 0 .38.75 0 .62.38H4s.38 0 .38.25c.62 0 .5-.38.87-.5 0 .38.5.5.88.5 0-.38.5 0 .62 0 0-.38.25-.5.63-.5h.87c0 .25.25.25.5.25.38 0 .38-.25.5-.38 0 .25.38.38.63.38.24 0 .24.25.62.25h.75c0-.5.25-.5.5-.25.5 0 .63.38 1.25.25.38 0 .25-.5.75-.25 0 .38.38-.25.63 0 0 .25.5 0 .5.38.37 0 .24-.63.74-.5 0 0 .38 0 .5.25h1.38v-.25s0-.25.38-.25c0 0 0 .25.25.25h1.25s.25-.38.62-.5h.25l.25.25h.75c.5 0 .5-.38.75-.38 0 .25.38.25.38.38H23c.63 0 .5-.63 1-.63 0 .25.38.25.63.25 0 .38.75 0 .62.25.5 0 .38-.63 1-.5.63 0 .88 0 1.25.25.5 0 .5-.88 1-.5.63 0 .63.38 1.25.5 0-.25.25-.25.25-.38.25 0 .25-.25.63 0 .62-.25.37.38 1 0h.5v-.25s.24-.25.37 0h.5c.25 0 .5 0 .63.25H35l.63.5s.24 0 .24-.25c0 0 .38 0 .38.25h.38c.24 0 .5 0 .5.25.24 0 .5 0 .62-.25.25 0 .25-.5.75-.37.5 0 .88 0 1 .5.63 0 .38-.5 1-.38 0 .25.38 0 .63 0 .24.38.5.5.74.5.38 0 .38-.5 1-.37.5 0 .5.25 1 0h2.63l.38-.25c0 .25.37 0 .5 0 .24 0 .37.38.62.25.5 0 .38-.38.75-.38 0 0 .38 0 .5.25 0 0 0 .25.38 0 0 0 .24 0 0 0 .37-.25.5 0 .62 0 .25 0 .25-.37.75-.25l1.5.25s.63-.37.63 0h1.37s0 .25.25 0v-.25c.25-.25.5 0 .63 0H59s0-.25.38-.25c0 0 .24 0 .24.25h.26s.62 0 .62.25c.25 0 .38 0 .5-.25h.75c.63 0 1.25 0 1.63-.25 0 0 0 .25.37.38.25 0 .5 0 .5.25.75 0 .5-.63 1.25-.38h.38c0 .38.5 0 .5.38H67s0-.25.25-.25h.38c0 .25 0 .25.25.25h1.25s.37 0 .37-.25h.88l.87.25c.5-.25 1.63-.25 2.13 0 .37 0 .25-.63.87-.5.25.25.88 0 1.25.25.38 0 .25-.5.88-.38h1.25c0 .25 0 .25.25 0h.37c-.25.38.5 0 .5.25h.75c.5.25.38-.37.88-.25 0 0 .37 0 .5.25 0 0 .25-.25.62 0 0 .5.63 0 .88-.25v.25h.5c.37 0 .5.38.87.38.25 0 .38 0 .38-.25.25 0 .5 0 .5.25h1c.5 0 .62 0 1-.25 0 .38.37.5.75.5.37-.25.5 0 1.25 0 0 0 .37 0 .37.25.25 0 .75 0 .75.25.25 0 .38-.38.5-.38H91s0 .25.25 0c0 .25 0 .38.25.38h.5c.38-.25.88 0 1.25.25h.25c0-.38.25-.25.5-.25.38 0 .38-.25.75-.38 0 .25.25.25.38.38h.75c.37 0 .25-.38.75-.25.37.25.62.5 1.25.38h.62c.25-.63.38 0 .75 0 .63 0 1.25-.25 1.63-.38.5 0 .62.38 1.25.25.5 0 .37-.5 1-.38.62 0 .62.25 1.25 0a.75.75 0 0 0 .37-.25h1.75c.38 0 .38-.5.63-.5 0 .25.25 0 .37.25l1.25.13V4h.5v-.25h2c.5 0 .5-.25 1 0 .63 0 .75-.25 1.25 0a.75.75 0 0 0 .38 0c0-.38.37-.25.62-.25l1.25.25c.25 0 0-.5.75-.25h.25c0 .38.38.25.63.25a.75.75 0 0 0 .5 0c0-.38.5-.25.75-.25h.75l.87-.25c.25 0 .25.25.63.25 0 .38.75 0 .62.25.63 0 .5-.63 1.25-.5 0 .38.25.38.5.25l.75-.25c0-.38.5 0 .63 0h.75c.5.25.87-.38 1.5-.25l1.25.25c.37 0 .25-.38.62-.25h.75c.5-.25.38 0 .75 0h.25c0-.25 0-.38.25-.25.25 0 .5 0 .5.25h.75c.5.25.38-.5 1-.25.25 0 .25.38.63.25.25 0 0 .38.62.25 0 0 .25 0 .25-.25.25 0 .25-.25.5 0h3.38c.25-.25.37 0 .5 0v-.5h.5c.62 0 .87.25 1.25.38.5-.38 1.25-.25 1.62-.25.75 0 .5-.5 1.25-.5l1.25.25c.25 0 .38-.25.63-.38 0 0 0 .38.37.25H147l.5-.25c.38 0 .63.5 1.25.38l.88-.25h1.25c.62 0 .37-.63 1.25-.5.37 0 .5.25.75.37.5 0 .5-.38 1.25-.38 0 .38.5 0 .75.25h.87c.38 0 .38.38.75.38.25 0 .38.25.5.5.25 0 .38-.25.5-.5l.75.25h.38l.62.25h.5c0-.25.25-.38.38 0l1.25.25H164c.5 0 .88 0 1.25.25.25 0 .5 0 .5-.25h.25c.5-.25.5 0 .88 0h1.5l.75.25c.25-.5.62 0 .87 0l.88-.25 1.25.25c.25 0 .37 0 .5-.38.25.25.5 0 .75 0s0 .38.5.25c.37 0 .5-.5 1.25-.37h.87c.63 0 .5-.38.88-.25 0 .38.75 0 .62.25h.38c.5.25.5 0 .87 0H180c.5 0 .38-.5.88-.5 0 .5.5 0 .75 0 0 0 0 .25.37.25l.25-.38c.75 0 1.25-.37 2 0 0 0 0-.25.25-.25 0-.25 0-.37.25-.37.38 0 .5 0 .63.25h.62c.63.25.5-.38 1-.38 0 .25.5.25.75.38 0 0 0-.25.38 0h.25l.37-.38h.25c.63 0 .75.38 1.25.25.5 0 .38-.37.75-.37l.88-.25h2.37c.5 0 .38-.25.75 0 .38 0 .75 0 .88-.25H198c.75 0 .75-.38 1.25-.38s.38.38.88.38c0-.38.62 0 .87-.25h.88c.5-.25.5 0 .87 0l.63-.25h.25c.37 0 .5.25 1 0h1.62c.38 0 .5.25 1 0h.25c.25-.25.38-.38.63-.25.87 0 1.25 0 2.12-.25.25 0 .75 0 .88.25.37 0 .5-.38 1-.38.37.26 1.25.26 1.62.5h.38a.75.75 0 0 0 .62-.24l1 .24c.5 0 .88-.24 1.25-.37.25 0 .38.38.88.38.25-.26.75 0 1.25-.26h3.12s0-.24.5-.24c.5.37 1.25.24 1.88 0h.37c0 .37.25.24.38.24l1.25.26v-.26c0 .26.37.26.62.26.38 0 .38.24.88 0h1.12l1.88-.38s.5 0 .75.38l.87.24h3.5s.38-.24.5 0c.25 0 .38.26.38 0 .37 0 .37-.24.75 0h1.25c.37.26.5 0 1 0l1.25.26.25-.26h1.75c.37 0 .62-.24 1.25 0h.62s.63.26.63 0h.87c0 .26.75-.24.63 0h.62V.5h.88s.37 0 .37.25h1c0 .25.75-.25.75 0 .25 0 .25.25.38.25 0 0 .37 0 .5.25.37 0 .25-.38.5-.38h.87c.25 0 .5.26.75 0 .38 0 .25-.24.75 0h2.88c.25 0 .25.26.5 0h.5c.37 0 .5.5 1 .38h1.75l1.5.38h2.87s.75 0 .75.25h2.38c.37 0 .37-.5.87-.38h1c.63 0 .5-.5 1-.38 0 .38.63 0 .5.25.5-.25.38 0 .75 0 0-.25.75-.25.63 0h1.5c.25 0 .25-.5.62-.37h1.5c.5 0 1.25 0 1.63-.38l.5.26c.25 0 .25-.26.62-.26 0 0 .38.38.88.38s.75-.25 1-.38c.37 0 .37.5.62.5h.5s.38 0 .38.25h1.37c.63 0 1 .25 1.5.38 0 0 .25 0 .38.25 0 0 0 .38.25.5 0 .25.62 0 .75.63.37 0 .87.25.87.75s.38.62.5 1.25v.75c-.25 0-.38.25-.38.5-.25 0-.25.37-.62.25-.38 0-.38.25-.88.25l-.62.25c-.25 0-.38.37-.75.25h-.88c0-.5-.62-.25-.75-.5h-1.25c0-.25-.5-.25-.62-.38-.25.25-.5 0-.5 0-.25 0-.5 0-.5-.5h-.75c-.25-.25-.38-.25-.63 0-.25 0-.75 0-.75-.25-.37 0-.62-.5-.75 0-.37 0-.37-.25-.75 0h-3c-.25 0-.25-.25-.5 0h-.5c0 .25-.37 0-.62 0 0 .38-.25.25-.5.25v.25h-.38c-.25 0-.25 0-.37-.25H271l-1.25.25c-.75-.38-2-.38-2.88-.5h-2l-.62-.25s-.38 0-.38.25H262c-.38-.38-.63-.38-1-.25 0-.25-.25-.25-.5-.25h-5c0-.25-.5 0-.63 0h-1.75c-.25 0-.25-.38-.37 0-.38 0-.38-.38-.88-.25h-1.75c-.5 0-1 0-1.25-.25h-3.12c-.25.25-.5.38-.88.38-.25-.25-.5-.5-1.25-.38H243c0 .25-.5 0-.5 0H240c-.38-.25-.5 0-.75 0 0 .25-.75.25-.63 0H237c-.25 0-.38.25-.38 0-.25 0-.5-.25-.75 0-.62 0-1.25 0-1.62-.38l-.75.25h-1.25s0 .25 0 0h-1.75c-.25.38-.5-.25-.63-.25h-2"/></svg>