<svg xmlns="http://www.w3.org/2000/svg" viewBox="0 0 10.5 287.56124"><defs><clipPath id="a"><path d="M0 8.4h230V0H0v8.4z"/></clipPath></defs><g clip-path="url(#a)" transform="matrix(0 1.25 1.25 0 0 0)"><path d="M3 0h-.3c0 .5-.6.3-1 .5-.4 0-.7-.3-1 0 0 .3-.5.3-.4.7 0 .4-.4.6-.3 1v.2c.2.3 0 .5.3.5 0 0 .3 0 .2.5v.2c0 .2.3.2.2.4.3 0 .3.4.5.4h.4s.2.2.2 0c.4 0 .5.2.7.3 0-.3.6 0 .5-.3h.2s.3 0 .3-.2c.5 0 .4.3.7.4 0-.3.4-.4.7-.4 0 .3.4 0 .5 0 0 .3.2.4.5.4h.7c0-.2.2-.2.4-.2.3 0 .3.2.4.3 0-.2.3-.3.5-.3s.2-.2.5-.2H9c0 .4.2.4.4.2.4 0 .5-.3 1-.2.3 0 .2.4.6.2 0-.3.3.2.5 0 0-.2.4 0 .4-.3.3 0 .2.5.6.4 0 0 .3 0 .4-.2H14v.2s0 .2.3.2c0 0 0-.2.2-.2h1s.2.3.5.4h.2l.2-.2h.6c.4 0 .4.3.6.3 0-.2.3-.2.3-.3h.5c.5 0 .4.5.8.5 0-.2.3-.2.5-.2 0-.3.6 0 .5-.2.4 0 .3.5.8.4.5 0 .7 0 1-.2.4 0 .4.7.8.4.5 0 .5-.3 1-.4 0 .2.2.2.2.3.2 0 .2.2.5 0 .5.2.3-.3.8 0h.4v.2s.2.2.3 0h.4c.2 0 .4 0 .5-.2H28l.5-.4s.2 0 .2.2c0 0 .3 0 .3-.2h.3c.2 0 .4 0 .4-.2.2 0 .4 0 .5.2.2 0 .2.4.6.3.4 0 .7 0 .8-.4.5 0 .3.4.8.3 0-.2.3 0 .5 0 .2-.3.4-.4.6-.4.3 0 .3.4.8.3.4 0 .4-.2.8 0h2.1l.3.2c0-.2.3 0 .4 0 .2 0 .3-.3.5-.2.4 0 .3.3.6.3 0 0 .3 0 .4-.2 0 0 0-.2.3 0 0 0 .2 0 0 0 .3.2.4 0 .5 0 .2 0 .2.3.6.2l1.2-.2s.5.3.5 0h1.1s0-.2.2 0v.2c.2.2.4 0 .5 0h2.9s0 .2.3.2c0 0 .2 0 .2-.2h.2s.5 0 .5-.2c.2 0 .3 0 .4.2h.6c.5 0 1 0 1.3.2 0 0 0-.2.3-.3.2 0 .4 0 .4-.2.6 0 .4.5 1 .3h.3c0-.3.4 0 .4-.3h.5s0 .2.2.2h.3c0-.2 0-.2.2-.2L55 5h.3s.3 0 .3.2h.7L57 5c.4.2 1.3.2 1.7 0 .3 0 .2.5.7.4.2-.2.7 0 1-.2.3 0 .2.4.7.3h1c0-.2 0-.2.2 0h.3c-.2-.3.4 0 .4-.2h.6c.4-.2.3.3.7.2 0 0 .3 0 .4-.2 0 0 .2.2.5 0 0-.4.5 0 .7.2v-.2h.4c.3 0 .4-.3.7-.3.2 0 .3 0 .3.2.2 0 .4 0 .4-.2h.8c.4 0 .5 0 .8.2 0-.3.3-.4.6-.4.3.2.4 0 1 0 0 0 .3 0 .3-.2.2 0 .6 0 .6-.2.2 0 .3.3.4.3h.6s0-.2.2 0c0-.2 0-.3.2-.3h.4c.3.2.7 0 1-.2h.2c0 .3.2.2.4.2.3 0 .3.2.6.3 0-.2.2-.2.3-.3h.6c.3 0 .2.3.6.2.3-.2.5-.4 1-.3h.5c.2.5.3 0 .6 0 .5 0 1 .2 1.3.3.4 0 .5-.3 1-.2.4 0 .3.4.8.3.5 0 .5-.2 1 0a.6.6 0 0 1 .3.2h1.4c.3 0 .3.4.5.4 0-.2.2 0 .3-.2L87 5v.2h.4v.2H89c.4 0 .4.2.8 0 .5 0 .6.2 1 0a.6.6 0 0 1 .3 0c0 .3.3.2.5.2l1-.2c.2 0 0 .4.6.2h.2c0-.3.3-.2.5-.2a.6.6 0 0 1 .4 0c0 .3.4.2.6.2h.6l.7.2c.2 0 .2-.2.5-.2 0-.3.6 0 .5-.2.5 0 .4.5 1 .4 0-.3.2-.3.4-.2l.6.2c0 .3.4 0 .5 0h.6c.4-.2.7.3 1.2.2l1-.2c.3 0 .2.3.5.2h.6c.4.2.3 0 .6 0h.2c0 .2 0 .3.2.2.2 0 .4 0 .4-.2h.6c.4-.2.3.4.8.2.2 0 .2-.3.5-.2.2 0 0-.3.5-.2 0 0 .2 0 .2.2.2 0 .2.2.4 0h2.7c.2.2.3 0 .4 0v.4h.4c.5 0 .7-.2 1-.3.4.3 1 .2 1.3.2.6 0 .4.4 1 .4l1-.2c.2 0 .3.2.5.3 0 0 0-.3.3-.2h1l.4.2c.3 0 .5-.4 1-.3l.7.2h1c.5 0 .3.5 1 .4.3 0 .4-.2.6-.3.4 0 .4.3 1 .3 0-.3.4 0 .6-.2h.7c.3 0 .3-.3.6-.3.2 0 .3-.2.4-.4.2 0 .3.2.4.4l.6-.2h.3l.5-.2h.4c0 .2.2.3.3 0l1-.2h2.1c.4 0 .7 0 1-.2.2 0 .4 0 .4.2h.2c.4.2.4 0 .7 0h1.2l.6-.2c.2.4.5 0 .7 0l.7.2 1-.2c.2 0 .3 0 .4.3.2-.2.4 0 .6 0 .2 0 0-.3.4-.2.3 0 .4.4 1 .3h.7c.5 0 .4.3.7.2 0-.3.6 0 .5-.2H142.3c.4-.2.4 0 .7 0h1c.4 0 .3.4.7.4 0-.4.4 0 .6 0 0 0 0-.2.3-.2l.2.3c.6 0 1 .3 1.6 0 0 0 0 .2.2.2 0 .2 0 .3.2.3.3 0 .4 0 .5-.2h.5c.5-.2.4.3.8.3 0-.2.4-.2.6-.3 0 0 0 .2.3 0h.2l.3.3h.2c.5 0 .6-.3 1-.2.4 0 .3.3.6.3l.7.2h1.9c.4 0 .3.2.6 0 .3 0 .6 0 .7.2h1.7c.6 0 .6.3 1 .3s.3-.3.7-.3c0 .3.5 0 .7.2h.7c.4.2.4 0 .7 0l.5.2h.2c.3 0 .4-.2.8 0h1.3c.3 0 .4-.2.8 0h.2c.2.2.3.3.5.2.7 0 1 0 1.7.2.2 0 .6 0 .7-.2.3 0 .4.3.8.3.3-.2 1-.2 1.3-.4h.3a.6.6 0 0 1 .5.2l.8-.2c.4 0 .7.2 1 .3.2 0 .3-.3.7-.3.2.2.6 0 1 .2h2.5s0 .2.4.2c.4-.3 1-.2 1.5 0h.3c0-.3.2-.2.3-.2l1-.2v.2c0-.2.3-.2.5-.2.3 0 .3-.2.7 0h.9l1.5.3s.4 0 .6-.3l.7-.2h2.8s.3.2.4 0c.2 0 .3-.2.3 0 .3 0 .3.2.6 0h1c.3-.2.4 0 .8 0l1-.2.2.2h1.4c.3 0 .5.2 1 0h.5s.5-.2.5 0h.7c0-.2.6.2.5 0h.5V8h.7s.3 0 .3-.2h.8c0-.2.6.2.6 0 .2 0 .2-.2.3-.2 0 0 .3 0 .4-.2.3 0 .2.3.4.3h.7c.2 0 .4-.2.6 0 .3 0 .2.2.6 0h2.3c.2 0 .2-.2.4 0h.4c.3 0 .4-.4.8-.3h1.4l1.2-.3h2.3s.6 0 .6-.2h1.9c.3 0 .3.4.7.3h.8c.5 0 .4.4.8.3 0-.3.5 0 .4-.2.4.2.3 0 .6 0 0 .2.6.2.5 0h1.2c.2 0 .2.4.5.3h1.2c.4 0 1 0 1.3.3l.4-.2c.2 0 .2.2.5.2 0 0 .3-.3.7-.3.4 0 .6.2.8.3.3 0 .3-.4.5-.4h.4s.3 0 .3-.2h1.1c.5 0 .8-.2 1.2-.3 0 0 .2 0 .3-.2 0 0 0-.3.2-.4 0-.2.5 0 .6-.5.3 0 .7-.2.7-.6 0-.4.3-.5.4-1v-.6c-.2 0-.3-.2-.3-.4-.2 0-.2-.3-.5-.2-.3 0-.3-.2-.7-.2l-.5-.2c-.2 0-.3-.3-.6-.2h-.7c0 .4-.5.2-.6.4h-1c0 .2-.4.2-.5.3-.2-.2-.4 0-.4 0-.2 0-.4 0-.4.4h-.6c-.2.2-.3.2-.5 0-.2 0-.6 0-.6.2-.3 0-.5.4-.6 0-.3 0-.3.2-.6 0h-.2-.3-1.9c-.2 0-.2.2-.4 0h-.4c0-.2-.3 0-.5 0 0-.3-.2-.2-.4-.2v-.2h-.3c-.2 0-.2 0-.3.2h-.6l-1-.2c-.6.3-1.6.3-2.3.4h-1-.3-.3l-.5.2s-.3 0-.3-.2h-1.5c-.3.3-.5.3-.8.2 0 .2-.2.2-.4.2H204.6h-.2c0 .2-.4 0-.5 0h-1.2-.2c-.2 0-.2.3-.3 0-.3 0-.3.3-.7.2h-.3-1.1c-.4 0-.8 0-1 .2h-2.5c-.2-.2-.4-.3-.7-.3-.2.2-.4.4-1 .3h-.5c0-.2-.4 0-.4 0H192c-.3.2-.4 0-.6 0 0-.2-.6-.2-.5 0h-1.3c-.2 0-.3-.2-.3 0-.2 0-.4.2-.6 0-.5 0-1 0-1.3.3l-.6-.2h-1s0-.2 0 0h-1.4c-.2-.3-.4.2-.5.2h-1.6a5.6 5.6 0 0 0-1.5.2h-1.5-3c-.3 0-.2-.3-.7-.2h-.5-1.6c-.4 0-1 .2-1 0h-.6c-.3 0-.3.3-.6.2l-.6-.2c-.4.2-.6 0-.8 0h-.3-.3v-.3h-.4l-.6.3c-.4 0-.5-.3-1-.2-.5.2-1 0-1.5-.2-.3 0 0-.4 0-.6v-.4s0-.2-.2-.2v1a.6.6 0 0 1 0 .3h-3.2c0-.2-.3 0-.3 0h-.6c-.6 0-1 0-1.2-.2 0 .2-.3.2-.6.2s-.3.2-.6 0h-.2c-.2-.2-.3-.3-.5-.2-.7 0-1 0-1.6-.2l-.6.2s0-.2-.2-.2h-.5c-.2 0-.2.2-.5.2 0 0 0-.2-.2-.2a.6.6 0 0 0-.4.2l-.3-.2h-.4l-.6.2c0-.2-.2-.3-.5-.3s0-.4-.4-.3c0 .2-.5 0-.6 0h-1c0-.3-.3.2-.5 0-.2.2-.7 0-.7.2h-.2s-.3 0-.3-.2c-.3 0-.2.3-.6.2h-.3l-.3-.2c0-.2-.4-.2-.6-.3 0 .3-.4.3-.7.2h-.2c0-.2-.2-.2-.3 0a.6.6 0 0 1-.3-.2h-.3c-.5 0-.3-.4-.8-.2h-.2-1.6c-.3 0-.4 0-.5-.2-.4 0-.3.3-.7.2-.5 0-.8 0-1.2-.3 0 0 0 .2-.4 0 0 0 0 .3-.2.3v-.2h-.2l-1-.2c0 .2-.4.2-.5 0 0 0-.3-.2-.6 0-.7 0-1.6 0-2.2-.2l-.8.2c0-.2-.2 0-.2-.2h-.5-.3a.6.6 0 0 0-.3 0 .6.6 0 0 1-.4 0s-.2-.2-.2 0h-1-.5c-.2 0 0-.4-.5-.3h-.2c0 .2-.2.2-.4.2H129.2v.2h-1c-.4.2-.6 0-.8 0 0 .3 0 .3-.3.2 0-.2 0 0-.3 0-.6.2-1.2.3-2 .3a.6.6 0 0 0-.4 0c0 .2-.3 0-.5 0h-.7c-.3 0-.3.2-.5 0 0 .3-.5.3-.5 0h-.8c-.2 0-.4 0-.5.2 0 0-.6 0-.6.2-.3 0-.4-.3-.8-.3-.2.3-.6.2-1 .2-.4.2-.5-.5-.7 0-.3 0-.6 0-1-.2 0 0 0 .2-.3 0h-.3a.6.6 0 0 0-.4.2h-.5s-.4 0-.4-.2c-.2 0 0-.3-.5-.2.3.4-.2 0-.5.2-.4 0-.4-.3-.8-.2h-4.2c-.5.2-.7 0-1.2 0h-1s-.2 0-.3-.2c0 .2-.2.3-.4.3 0-.2-.3-.3-.6-.2l-.6-.2c-.3.2-.8.2-1.3.2-.3 0-.4-.2-.5-.2v.2c-.2-.2-.3-.2-.5-.2h-.5v.2c-.2 0-.2 0-.2-.2H100l-.4-.2h-1.1-.3-.3a.6.6 0 0 1-.3 0c-.2-.2-.4.2-.5 0 0 0 0-.2-.2-.2h-.2-.2c-.4-.2-.7 0-1.3 0l-.6-.2c-.2 0-.3 0-.5-.2h-.5c-.3 0-.3.3-.7.2a.6.6 0 0 1-.4 0c0-.3-.2-.2-.4-.2h-.4c-.2 0-.4 0-.5.2h-1a.6.6 0 0 0-.3 0h-.5c-.2 0-.3-.3-.3 0h-.5a1.5 1.5 0 0 0-.4 0H88s0-.2-.2-.2H87c-.5 0-.7-.3-1-.4 0 .2 0 0-.2 0 0 .2-.3.2-.4.3 0-.3-.4 0-.4-.4-.2 0-.5 0-.6-.2-.2 0-.2.3-.4.3 0 .3-.4 0-.6 0h-1.8c-.5 0-.6-.2-.8-.3 0 .2-.5 0-.6 0-.4.2-.4 0-.8 0A5.3 5.3 0 0 1 78 1H77 76.3 76c-.4 0-.5.2-1 0-.4.2-.5-.2-.8-.2-.3.3-1 0-1.4.2-.2 0-.3 0-.3.2H72c0-.2-.2.2-.5 0H71c-.3 0-.2.3-.6.2h-.2H69l-.2.2H68c-.3 0-.2-.4-.6-.3 0 .3-.4.3-.7.3-.3 0-.8 0-1-.2 0 .4-.2.4-.5.4h-.6c-.3 0-.2-.3-.5-.2h-.3s0 .2-.3.2c-.2 0-.3-.2-.5 0l-.5-.4c0 .4-.7.2-1 .3-.4 0-.4-.2-.7 0-.2 0 0 .2-.4 0H60c-.3 0-.3-.3-.6-.3 0 .2-.3 0-.5.2 0 .2-.5 0-.7 0-.4.2-.5-.2-1-.2 0 .2-.3 0-.5.2h-.3-.3c-.2 0-.7 0-.6.2h-.3S55 2 55 2c-.2 0-.6 0-1-.2 0 0 0 .2-.2.2 0 0 0 .2-.2 0h-.3c-.2 0-.5 0-.5.2-.2 0-.3-.2-.5-.3 0 0 0 .2-.3.2-.2 0-.7-.2-.6 0h-1l-1 .2h-1.9c0-.2-.2-.3-.2 0-.4-.2-.4 0-.7 0 0-.2-.3 0-.5 0S46 2 45.6 2H45h-.2-.3s-.2 0-.3-.2c-.3 0-.3.3-.6.2-.5 0-.8-.2-1-.3l-1 .2H41C41 2 41 2 41 2c0 0-.2 0-.2.2H40c0-.3-.5 0-.6-.2-.2 0 0-.4-.4-.3h-.6c0 .2-.2.3-.4.3h-.2l-.4-.2h-1.5c-.4 0-.7 0-.8-.2-.3 0-.4.2-.8 0 0-.2-.3-.2-.5-.2l-.4.2s-.3 0-.4-.2h-.8c-.2 0-.3 0-.3.2 0 0-.2-.3-.3 0-.4 0-.7-.4-1-.4-.2.2-.3.2-.6.2-.2 0 0 .3-.5.2l-.6-.2c0 .3-.5 0-.7.2h-.6c-.3.2-.2-.2-.5-.2 0 .3 0 .3-.3.3h-1.1c-.3 0-.2.3-.6.2 0-.3-.5 0-.7-.2h-.3s-.2-.2-.3 0h-.7c-.3 0-.5 0-.7-.2 0 0-.3 0-.4.2h-.6c-.5 0-.4-.5-.8-.5 0 .2-.4.4-.4 0h-1.2c-.2 0 0 .3-.5.3 0-.2-.2-.2-.3-.2a.6.6 0 0 1-.4 0h-.4c0-.2 0-.3-.2-.3 0 .2-.3.5-.4.2h-.6-.2-1-.2a.6.6 0 0 1-.4-.2s0-.2-.2-.2H14h-1.3l-.3-.2H12c0 .3-.3.2-.5.2-.4 0-.4-.2-.8 0-.4-.2-.3 0-.6 0H10a.6.6 0 0 0-.3 0H9c0 .2-.4.2-.7.2h-.6c0-.2-.2-.3-.4-.3 0 .2-.3 0-.4 0-.4 0-.4.4-.8.3-.3 0-.4-.4-1-.4H5h-.2c-.3 0-.3-.2-.6 0h-.5C3.4.5 3.4.2 3 .3V0" fill="#ffc400" fill-rule="evenodd"/></g></svg>