<svg xmlns="http://www.w3.org/2000/svg" viewBox="0 0 637.95752 234.36626"><defs><clipPath id="a"><path d="M0 187.5h510.4V0H0v187.5z"/></clipPath></defs><g clip-path="url(#a)" transform="matrix(1.25 0 0 -1.25 0 234.37)"><path d="M464 154c.2-1 0-1.5-.3-2v-.2-.2c.2-.3.6-.8.5-1.7 0-.6-.2-1-.3-1.4-.2-.6-.3-1-.2-1.8.3-1 0-1.5-.3-1.8 0-.5 0-1.4-.4-2 .2-1.2 0-2.2 0-3-.2-1-.3-2 0-3.2v-.4c-1-3.2-1.4-6-1-9.5.3-1.5-.6-2.2-1-2.4l-.3-1.2c0-.5 0-1-.4-1.4 0-.8-.3-1.3-.4-1.8l-.2-.2c0-.5.2-1.2-.3-1.6a3.6 3.6 0 0 0-.6-.4l-1.4-1-1-.2c-.4-.2-1-.6-2.2-.5a4 4 0 0 0-1 0c-.5 0-1 0-1.3.2-.2.2-.3.2-.5.2h-.7l-.4.5c-1 1.4-1.6 3-2.3 4.5v.3c-.2 1.5.2 2.5.5 3.3.2.7.4 1.2.3 2v.9c.5 1.3 1 2.6.7 4.3 0 1 .3 1.8.6 2.3.3.4.4.5.3 1v.4c0 1.2.4 2 .8 3v3.4c0 1 .3 2 .5 3 .4 2 .7 3.8.8 6-.3-.3-.6-.6-1-.7l-.4-.7v-.6l-.7-.4a3.3 3.3 0 0 1-1.4-1.5l-.3-.6h-.4v-.2c0-.4-.3-1.3-1-1.7a5.6 5.6 0 0 0-1.8-2v-.3c-.3-.5-.6-1.4-1.5-1.8a5.5 5.5 0 0 0-1.5-1.8c0-1.3-1-2-1.7-2.2v-.4c-.2-.5-.6-1.5-1.6-2-.2-.6-.7-1-1-1.3l-.3-.2-.2-.6-.5-.3a3.3 3.3 0 0 1-1.4-1.6l-.2-.2c-.3-.7-.8-1.7-2.2-2l-.4-.2v-.5l-.5-.3c0-.3-.3-.6-.6-1l-.8-1-.3-.2-1-1v-.6l-.6-.4-.4-.2v-.6l-.5-.2c-.2 0-.4-.2-.4-.3l-1-1-1-.4c-2 0-3-.6-4.3-1.2h-.3a5.5 5.5 0 0 0-1.3-.3c-1 0-1.6.3-2.2.5-.4.2-.8.4-1.2.4l-1 1a5 5 0 0 1-.3.8c-.3.6-.5 1.3-.5 2.4-.2.4-.5 1-.5 1.7l-.6 1.4c0 .5-.2 1 0 1.5v1c-.2.6-.2 1-.2 1.6v1.5c-.7.8-.7 2-.7 3v1.2c0 .5 0 .7-.2 1-.2.4-.5 1-.5 1.6 0 1 .2 1.6.3 2 .2.7.3 1 0 1.8v.5c.2.5 0 .6 0 1-.3.4-.5 1-.5 1.6l-.3 4.5a2.6 2.6 0 0 0-.5 1v1l-.2.6c-.2 0-.3-.3-.5-.4 0-1-.7-1.4-1-1.5l-.8-1c-.2 0-.4-.3-.7-1-.3-.5-.6-1.2-1.4-1.7-.2-.5-.6-.8-.8-1l-.6-1.3c-.4-.2-.6-.4-.7-.7 0-1-.7-1.3-1-1.5v-.7a3.6 3.6 0 0 0-1.3-1.7c0-1-.3-1.5-.5-2l-.3-1.4v-.3c-.2-.6-.5-1-.8-1.2v-.2l-.2-.8h-.4a2.2 2.2 0 0 0-.5-.8c0-1.4-.3-2.5-.5-3.6l-.6-3c0-3-1-4.8-2-6.4l-.6-.8h-.5l-1.4-.3c-1-.3-2-.6-3.7-.5h-1v.5h-.2c-.5 0-1-.2-1.6 0-.5 0-1 .4-1.2.7l-1 1.3v4c0 2 0 4 .4 6 0 1.2.4 2 1.2 2.7 0 .4.2.8.5 1.2 0 1 .3 2 .6 2.6l.3 1.4v.8h.4v.4a6.5 6.5 0 0 0 0 .8v1h.4c0 .5.2.8.4 1 0 1.2.5 2 .8 2.7l.5 1c0 1 .3 1.5.5 2 .2.6.4 1 .3 1.7v.2c.2 1.6.7 3 1.2 4 0 .8.2 1.4.4 1.8v.7l.3.3c0 .4.2 1 .6 1.3 0 .7.3 1.2.8 1.6 0 .7.5 1.3 1.2 1.7.5 1 1.5 2 3.5 2.4 2.8 0 4.2-1.3 5-2.6.3.3.5.6.6 1 .3.2.5.7 1 1 0 .6.3 1 .6 1.3.2.4.5.8 1 1l.6.6v.4l1 .2.4.3c.4.3 1 .7 2 .8 1.7.2 2.8-.2 3.8-.6l.7-.3.5-.2.2-.3a5.8 5.8 0 0 1 2.2-2l.3-.2.2-.5 1-3 .7-2.8v-.3c0-1.5.5-2.6.8-3.7l.5-2 .4-6.4c0-1 .3-1.7.5-2.5.7-2.8 1.4-5.7 1.5-9.2.2 0 .4 0 .6.2l.2.2c.2.3.5.8 1 1l.5 1 .4.3h.2c0 .3 0 .5.3.7l.3.4.5.5.2.3.6.4a1.2 1.2 0 0 0 .3.6l.5.3v.2l.4.4h.2c0 .2 0 .4.3.6l.4.4.3.5h.4c0 .3.3.6.7 1 .2 0 .4.4.7.6.2.6.4 1 .8 1.2.3.6.8 1.5 2 1.8.2.6.4 1.4 1.2 1.8.2.7.6 1 1 1.2l.2.2v.3c.3 1 1 1.7 1.7 2.2.5.5 1 .8 1 1.5v.5l.3.3a12.5 12.5 0 0 1 3 3.3l.2.4h.4c.4.3.6.7 1 1.4.4.6.8 1.4 1.5 2 0 .8.5 1.5 1 2l.2.5c0 .8.4 1.4.7 1.8.2.3.3.4.2.7v.7l.5.4 1.5 1 1.2 1a1.8 1.8 0 0 0 .7.6v.5l.8.2a3 3 0 0 0 2.3-.3c.4-.2.4-.2.7 0l1.4-1 .6-.4c.5-.4 1.3-1 1.5-2 .3-.3.4-.7.5-1h.5v-1l.2-.7v-.2h.4v-1-1.6c0-1.5.2-3.3.7-4.4l.3-.5v-.5c-.4-1-.5-2.4-.3-4.4m-83.8 8.5c0-.7-.2-1-.3-1.4-.2 0-.2-.2-.2-.3l-.5-1.2a2.3 2.3 0 0 0-.4-.6c0-1-.7-1.5-1.8-2h-.2l-1-.7a6.4 6.4 0 0 0-1.2 0c-1.3 0-2 .3-2.8.7-.6.2-1 .5-1.6.5a27.7 27.7 0 0 0-3-.2c-2 0-3.6.2-5.3.4l-2 .3-.6-.3c-.6-.2-1.3-.5-2.3-.4a2.3 2.3 0 0 0-.2-.2v-.7h-2.5a6.6 6.6 0 0 0-1.2-.2c-1 0-1.7.3-2.4.6l-1.5.3c-.3 0-.6-.2-1-.4-.6-.2-1.2-.4-2.2-.4-.5-.5-1.3-.5-1.8-.5h-.7c-.2-.2-.5-.5-1-.6h-.2v-.8h-.4c0-.4-.4-.8-.8-1V150.5c-.3-.3-.4-.5-.4-.8 0-.5.2-1.5-.3-2 0-.8 0-1.3-.3-1.6v-.3h2.5c1.2.3 2 0 2.6-.2.4 0 .5-.2 1 0h2.5c.6 0 1.3 0 2-.3h2.3c.7 0 1 0 1.4-.4 1 0 2.2 0 3.3-.2 3.5-.3 7-.6 11-.4h.2l1.2-.3c.8 0 1.6 0 2.3-.4h2.2l2.3.3c1.2 0 2-.3 2.7-.7l.5-.3v-.5c.4-2.6-.5-4.3-2.8-5.3-1-.8-2.8-.8-4.3-.8h-2c-.6 0-1-.3-1.4-.6-.6-.3-1.4-.7-2.6-.7h-.7c-1 0-1.6 0-2.4-.4l-1-.2a20.6 20.6 0 0 1-3.7.4c-1.8 0-3.3-.3-4.2-.7h-.2a4 4 0 0 0-1 0c-.8 0-1.4.3-1.8.5-.4.3-.6.4-1 .3-.5 0-.8 0-1.2-.3-.7-.2-1.5-.6-3-.4l-.7.3v.2H343.5c-1-.3-2 0-2.7 0-.6.2-1 .3-1.4.2h-.3c-.7 0-1.2 0-1.8-.2a7.5 7.5 0 0 0-1-.4c-.3 0-.5-.3-.6-1.4 0-.7-.3-1-.5-1.4v-.4c0-.6-.2-1-.4-1.2 0-1-.6-1.4-1-1.6l-.3-1.4v-1.1h1c.6 0 1-.2 1.2-.4l8 .4c.5 0 .7 0 1 .2.6.3 1.3.7 2.5.5h.6c.7 0 1.8 0 2 .3l.2.3h.4c1 .3 1.8 0 2.3 0 .3-.3.5-.4 1-.2 2.2.7 5 .8 8 1h1l.2-.5h.8l.2-.3.8-.2h.4l.4-.2.5-.2c.7 0 2-.6 2-2.4.6-2-1-2.7-1.5-3h-.2c-1-1-2.2-1-3.5-1v-.2c-.3-.4-.7-1-1.5-1.2-.4-.3-1-.5-1.3-.6-.3 0-.7-.2-.8-.4l-.4-.2h-.6l-.2-.6-7.7-.3-2-.5c-1-.3-2.2-.5-3-1l-.3-.3h-1.6l-.2.2a1.6 1.6 0 0 0-.8-.2h-.4-.4c-.3-.3-.8-.7-1.7-.7h-2.7c-2 0-4-.2-5-.8h-.8c-2.2.2-3.4 0-5.5-.2l-1.5-.2h-.6l-.4.3h-.6c-.5.2-1.7.3-2.2 1.4-.3 0-.7.4-1 1-.2 0-.3.3-.4.5l-.8 1.2c0 .5 0 1 .2 1.3.2.6.3 1 0 1.8 0 1.3.4 2 .7 2.4l.3.7v.7c.8 1.7 1.5 3.4 1.6 5.5v1h.5v1.2h.3l.5.2c0 .2.2.4.4.6 0 1 .3 1.6.6 2 0 .3.3.5.3.7.2 1 0 1.6-.5 2.4-.4 1-1 2-.7 3.7v1h.4c0 .8.4 1.2.8 1.4a2.4 2.4 0 0 0 1.5 1.2c.2.5.6 1 1 1l.5.7c0 1 .3 1.6.6 2 0 .2 0 .3.2.4-.3 1 0 1.6.3 2h.2c-.2 1 .2 1.7.4 2 0 .7 0 1.2.4 1.5 0 .6.3 1 .5 1.2s0 .2 0 .4l-.2.5.3.5.3.8c0 .5 0 1 .3 1.4 0 1 .3 1.6.8 2 0 1 .7 1.6 1 1.8l.7 1.4c.4.2.6.5.8 1l1.2.7h.3c.2.2.7.5 1.5.5l.8.4 21 1.6c1.5.3 3.2.5 4.7.6 2.2.3 4.4.5 5.8 1.3h.3c1.2.3 2 0 2.7 0 .3-.2.5-.3.8-.3h.5c1.4.4 2.3 0 2.8-.5.4-.2.6-.3 1-.2l1-1.3h.2l.3-.5.5-.6.7-1.2c0-.4 0-.5.3-1 .2-.4.6-1 .4-2.3m-77.5-17.7a35.2 35.2 0 0 0-.2-2c0-1.5-.2-3 0-4.7l-.4-1a5 5 0 0 0 0-.7v-1h-.3a5.8 5.8 0 0 0 0-.5v-1h-.4a6 6 0 0 0 0-.5v-1h-.4l-.2-.2v-.5h-.5c0-.4-.3-.8-.7-1v-.2l-1-1-.2-.6c0-.3-.2-.6-.4-1-.4-.8-1-1.5-1.6-2-.5-.5-1-1-1.2-1.4l-.2-.5-.4-.2c-.3-.2-.7-.5-1.3-.6h-.2c-.2-.5-.7-.7-1-.8l-.3-.4c-.3-.4-.8-.5-1-.7h-.2l-.2-.2-1-.7h-.2l-1.3-.7a1.2 1.2 0 0 1-.2 0h-.2c-.2-.2-.7-.6-1.4-.6-.3 0-.5-.2-.7-.3l-1.2-.8h-.2c-.3-.3-.6-.5-1.2-.5l-.7-.2h-.2l-1.2-.8c-1.6 0-2.8-.4-4-.8l-2-.5a2.6 2.6 0 0 0-.5 0c-.5 0-1 .2-1 .4-.8 0-1.3.2-1.6.5a9 9 0 0 0-1 0c-.4 0-1.2 0-2 .4-.8 0-1.6.3-2.3.5-.7.3-1.4.6-2.4.6h-1.2v.7c-.8.2-1.3.5-1.5 1-.5.2-.7.5-.8.7l-1.7.3h-.3c-.6 0-1 .3-1.2.6-.7.4-1 1-1 1.4h-.6l-.2.8v1.4c-.2 0-.6.6-.6.6v.7c0 .5.2.8.3 1 0 .6 0 1.5.4 2 0 .6 0 1.2.4 1.7 0 .6.4 1 .6 1.4.3.3.3.4.3.7v.5c0 .5.3 1 .5 1.3.3.4.4.7.3 1.2l.5 1.3c0 .2.2.4.4.6 0 .3.3.6.4.8v.2l.6 1.3c.3.5.4.7.3 1.3l.7 1.2c.2 0 .5.4.6 1.6v.3l.2.3.3.7c.2.5.4 1.2 1 1.7a19.5 19.5 0 0 0 1 5c-.2 1.2.6 1.8 1 2v.8c0 .4.3.8.5 1.2l.4.8.6 3c.4 2.6 1 5.2 1.8 7.6.4 1 1 1.7 2 2l.2.2 5 .3.2-.6c.3 0 .7-.3 1-.7.2 0 .4-.5.6-1 .4-.3.6-.7.7-1 1.6.3 2.8.4 4 .4h2.7c1 0 1.7-.4 2.2-.7.5-.3.6-.4 1-.3l1.4-.3h1.5v-.4h.5l1-1h.3c.5 0 1.3-.3 1.7-1 .5-.3.8-.7 1-1l.3-.2 1.5-1.3c.3-.2 1-.6 1-1.4.6-.4.7-1 .8-1.3v-.2l1-1c0-.4 0-.5.2-.8.3-.3.5-.7.7-1.2.2-.3.6-.7.6-1.3l.6-1c0-2.2.3-3.7 1-5.3 0-.4 0-.8.2-1.3v-.2zM244.5 166c0-.6 0-1.5-.5-2 0-.5 0-1-.4-1.5 0-.6 0-1.2-.5-1.6a3.3 3.3 0 0 0-.2-1c0-.4 0-1-.3-1.2l-.2-.2a1.6 1.6 0 0 0 0-.4 1.3 1.3 0 0 0-.4-.6 2.2 2.2 0 0 0 0-.8 1.2 1.2 0 0 0-.5-.7v-.6l-.2-1h-.2l-.2-1.2h-.5c0-.2-.2-.3 0-.6v-.8l-.8-.4c-.3 0-.6-.3-.7-1.5v-.7l-.6-.3-.2-.5c-.2-.4-.5-1-1-1.4-.3-.7-.6-2-1.7-2.5 0-.4-.2-.8-.6-1.2 0-.5 0-1-.4-1.6 0-.4-.3-.7-.4-1h-.2v-.7l-.5-.2c0-.2-.3-.6-.6-1l-.8-1.6c-.6-1-1-2-1.3-3v-.7l-.7-.3c-.2 0-.2 0-.2-.4v-.7l-.6-.2-.4-.3v-.7h-.4c-.2-.4-.4-.8-.8-1a2.7 2.7 0 0 0-.6-.8c0-1.3-1.2-1.8-1.8-2 0-1-.8-1.5-1.2-1.8l-.2-.3v-1h-1c-.5-.2-1-.3-1.4-.6-.6-.3-1.4-.7-2.5-.7l-1-.4v-.6l-4.5-.2v.5c-.4.2-.8.4-1 .8a1 1 0 0 1-.5 0l-1.3 1.4c-.3.2-1 .6-1 1.5-.5.3-1 .7-1 1.4v.7h-.7v1.5h-.7v1h-.2v.8l-1 2.3v.2c-.4.4-.8 1-.8 2h-.4v1l-1 2.8-1 2.7c0 .4-.2.6-.4 1-.4.5-.8 1-1 1.8-.8.4-1 1.2-1.3 1.7v.5l-1 1c0 1.6-.5 1.8-.7 2l-1 .2.2.6c-.3 0-.6.3-.8.8l-.2-.7c0-.7-.2-1.4-.5-2 .2-1.8-.3-3-.7-4l-.2-.7v-1.5c-.2-1-.2-2-.7-3-.3-.7-.4-1.8-.5-3 0-.3 0-.7-.2-1a2 2 0 0 0-.4-1c0-.7 0-1.2-.4-1.5 0-.5 0-1.4-.4-2 0-1-.3-1.6-.6-2-.3-.6-.4-1-.2-1.6v-.7c-.4-1-.7-2.4-1-3.8-.2-1.6-.5-3.3-1-4.8l-.2-.2c-1-1-1.8-1-2.4-1H186c-.3-.4-1-1-2.4-.7a6 6 0 0 0-1 0c-.6 0-1.3 0-2 .4-1 0-2 .4-2.5 1.2-.4.6-.7 1.5-.7 2.6v.5c0 .6-.2 1.7.6 2.3 0 1 .2 2.3 0 3.5l.4 1.3c0 .6.3 1 .5 1.2a2.3 2.3 0 0 0 .3.8c0 .8.2 1.3.4 1.5 0 .6 0 1.5.4 2l.7 2.5.2.6c0 1 .3 1.5.6 2 .2.3.2.4.2.7v.3c0 .6.3 1.2.4 1.8.4 1.6.8 3 .7 5v1h.4c0 .5.2 1 .4 1 0 .6 0 1 .4 1.5 0 1 0 1.6.2 2.2l.2 1c0 .7 0 1.4-.2 1.7-.7.2-1.7 1-1.6 3v1h1c0 .4.5 1 1.3 1 .2.4.4.8.7 1 0 1.2.8 1.8 1.3 2.2.4.3.5.4.5.6v.7l1 .2h1.4l.7.5h1.8c.2.4.5.5.7.6a3 3 0 0 0 2.2 0c.4-.3.5-.3.8-.2h.2c1 0 1.6-.2 2.2-.8l.2-.2v-.2h.2c.3 0 1-.3 1.4-1 1-.3 2-.7 2.5-1.7.5-.4 1-.8 1.2-1.2.3-.3.5-.5.7-.5l.8-1.2v-.2c.2 0 .3-.3.4-.5.3 0 .4-.3.6-.3l1-1.2c0-.3.2-.5.4-.8.3-.3.6-.7.8-1.3v-.2c0-.4 0-.6.3-1 .3-.2.6-.6.8-1.2 0-.2.2-.3.4-.5.2-.3.5-.7.7-1.3.7-.3 1-1 1-1.2l.8-1.3c-.2-1.3.2-2 .7-2.7l.3-.4c.7-1.6 1-3 1.3-4.3l.7-1.3.8-1.6c.3-.3.5-.7.6-1l.6-.2v-.4h.4c.2 0 .4 0 .5.2v.8h.6l.2.3c0 .4.2 1.3 1 1.7l.4 1c.3 1 .7 2 1.4 2.7 0 .8.7 1.3 1 1.5l.5 1.4c0 .2.3.5.7.8v.2c.2 1 1 1.5 1.3 1.8l.2.2 1 1c0 .4 0 .8.4 1.2l.7 1.4.3.6v.5l.6.3s.2 0 .3.2c0 .6 0 1 .4 1.4 0 .7.3 1.2.6 1.6l.2.5.2 1h.3c0 .5.3.8.4 1 0 .6.3 1 .4 1.4.2.5.2.7 0 1.2 0 1 .2 1.6.4 2 0 .5 0 1 .4 1.3 0 1.8.4 3 1 3.8 0 .4.3.7.4 1l.2.7.7.2c.8 0 1.5.5 2.2.8l.6.3h.3c2 0 4-.5 5.5-1.3l.8-.4v-.6h.5v-1h.3l.2-.7c.2-1 0-1.7-.3-2.2M161 141.4a1.4 1.4 0 0 0-.3-.7c-.2-.4-.5-.6-.8-.7v-.7l-.3-.8h-.2v-.2l-.3-1h-.2v-.3h-1.4c0-1 0-1.6-.3-2 0-.5-.2-.6 0-1.2v-.2-.7c0-1.2.2-2.3-.3-3.2.2-1.4 0-2.4 0-3.4-.3-1-.4-2-.2-3 .2-1.2-.3-2-.6-2.4-.2-.3-.3-.4-.2-.7v-1l-.4-.2v-.5a2 2 0 0 0-.5-1v-.3c-.3-1-1-1.7-1.7-2.2a1.2 1.2 0 0 0-.3-.7 1.4 1.4 0 0 0-1-.4 1 1 0 0 0-.4-.5c-.4-.2-.8-.2-1.3-.2h-.2l-1.4.4h-.2l-1 .3v.3h-.3v1c0 .3 0 .3-.2.4l-.8 1c0 1.2-.3 1.8-.7 2.6l-.4 1-.3.3v.3c.3 1 .4 2.3.4 3.7 0 1.4 0 3 .4 4 .4 2 .3 4.8 0 7.6-.4 0-.7.2-1 .4h-1.8c-1.3 0-2-.2-3-.5l-1-.3-4.7-.3c-.6-.5-1.5-.6-2-.6h-1.4a3.7 3.7 0 0 0-.7-.4h-.2c-.7-.5-.7-.6-.7-1h.2v-.2l-.6-1.4c-.3-.4-.3-.5-.3-.8l-.5-1c0-.4-.3-.8-.7-1v-.5l-.7-1.2c0-.3-.2-.6-.3-.8v-.3c-.3-.3-.4-.5-.4-.7 0-1 0-1.4-.5-1.8 0-.7 0-1.5-.7-2a2 2 0 0 0-.4-1c0-.7-.2-1.2-.5-1.5 0-1-.7-1.5-1-1.7v-.7l-1.3-.3c-.8-.3-1.8-.6-3-.6-.7-.4-1.5-.4-2-.4a3.6 3.6 0 0 1-.5 0l-1-.2-.2.5h-.2-1l-.3.6-.7 1.3-1 1.4v.4c-.3 1.6 0 2.8.2 3.8v.5c0 1 .3 1.5.6 2 .2.6.4 1 .4 1.4v.4l.2.3.3 1c0 .5 0 1.3.6 2l-.6.8c-.5 1-1.2 2-1 4-.3 1.7.5 2.6 1.2 3 0 1 .7 1.5 1 1.7l.7 1.4.7.3c0 .2.3.3.6.4.3.6.8.8 1.2 1v.5l.7.3c.3.3.7.6 1.3.6l1.2.7c.2.2.4.6 1 .8 0 .5.3 1 .5 1.4.4.7.8 1.4 1 2.3v.5c.2.2.3.5.3 1l.4 1.2c0 1 .3 1.6.7 2 0 1.5.2 2.4.5 3 .2.8.4 1.3.3 2v.4c.2.5.3 1 .3 1.7.2 1.4.4 2.8 1.2 3.8l.4.5h.7l.3.2c.3.3.8 1 2 1H134.5l1.3.7.4.3c.5.7 1.4 1 2 1 0 0 .2 0 .3.2v.5h.8a7 7 0 0 0 1.5.3c1 0 2-.3 2.6-.5.6-.2 1.2-.4 2-.4h1l.2-.6c.7-.2 1.2-.5 1.4-1l.6-.3.8-.4h.3l.2-.3.7-1.3c0-.3.3-.8.4-.8l.8-1.3.4-.6c.2 0 .3-.2.4-.4h.6l.2-1c0-.8.5-1.5 1-2.2l.2-.7v-.3c.2-.3.4-.6.5-1.2l.6-1c0-1.8.3-3 .7-4.3.4-1.4.8-2.8.8-4.7 0-.3 0-.4 1.4-.6l.8-.2.3-.5c0-.2.3-.4.5-.7.4-.5 1-1 1.2-1.8v-.8c0-.4.2-1-.3-1.5m-51.3 17.4h-2.2v-.2l-.4-.3c-.4-.3-1-.8-2-.8h-9.7l-7 .2a6.6 6.6 0 0 1-.8-.6c-.5-.3-1-.7-2-1-.4-1-.8-2-1-3v-.8h-.3v-.4-1.6H84v-.4-1.8h-.4v-.2c0-.4-.3-.6-.5-.8.2-.6 0-1-.2-1.4v-.8l-.3-.4s-.2-.4-.2-1.2L82 142l-.5-1c.2-2-.3-3.2-.8-4.2 0-1-.3-1.8-.5-2.4-.2-.4-.3-.8-.3-1.3 0-1-.3-2-.6-2.6-.2-.4-.3-.8-.3-1.3v-1h-.3v-.2l-.3-1H78v-.2l-.7-1.2c0-1.7-.4-3-.8-4.4-.4-1-.7-2.2-.8-3.5v-.8h-.4v-.4-1.1l-.2-.3v-1.3l-.5-1c0-.6-.2-1-.4-1.2 0-.6 0-1-.2-1.3a1.5 1.5 0 0 1-.2-.3l-1-1-.4-.2-1-.4v-.5l-1.2-.2c-2.5 0-4 1-5.5 2H64v.5c-.6 1.5-.8 3-.8 4.8v.4l.4 1c.3.7.5 1.3.4 2v.3l.2.7c.2 1 .3 1.7 0 3l.5 1.2c0 .5.3.8.5 1 0 .6 0 1 .4 1.5 0 1.4.3 2.3.6 3 0 .3 0 .5.2.7 0 1 .4 1.6.6 2 .3.4.4.6.3 1l.4 1.4c0 .6.2 1 .4 1.2l.5 1c0 .6.2 1 .4 1.3v.4l.5 1c0 .3 0 .5.3.7 0 1 0 2 .2 3v1.4l.2 1.2h.4c0 .6-.2 1 0 1.7l.2.5c.2.6.4 1 .7 1.3 0 .7.3 1.3.7 1.8 0 .6.2 1 .4 1.4v.2c0 1 .4 1.5.6 2 0 .4.2.6.3 1-.5-.4-1.3-.7-2.5-.4a3.3 3.3 0 0 1-.3 0c-.4 0-.6 0-1-.3-.6-.3-1.3-.6-2.5-.5-2.5 0-4.5-.6-6.6-1l-1-.3c-1.3-.3-2.5-.8-3.7-1.3l-2.7-1c-1-.6-2-.7-3.4-.7h-.6a1.3 1.3 0 0 0-1-.4l-.7.3h-.3l-.2.2-.7.2-1.4 1.2-.2.8c-.3.3-.6.7-.8 1.3v1.1c-.2.7-.3 1.5.2 2.2v1l.3.4c.3.6.7.8 1 1 0 .3.3.7.7 1l.6.3.6.4h1c.2.3.5.5 1 .6h1.4l.8.5 1 .7c1 0 1.5.2 2.2.5l1.4.6c.3.2.7.5 1.3.6.3.2.7.6 1.4.6h.7c.2.3.5.4 1 .5l10.4.6 5.6 1 1.7.2.2.3c.2.3.6.8 1 1l.7.6v.8l4 .2h.8c1 0 1.5-.4 1.8-.7l.2-.2h1.2l-.2-1c.2 0 .5 0 .7-.2l4.2.2c2.2-.5 4.5-.8 6.8-1l3-.5c.7 0 1.3-.2 1.7-.4h.7c1.2 0 2-.3 2.7-1 .2 0 .6 0 1-.2 1-.2 3-.5 3-3v-1h-.5v-.2l-.2-1-1.6-1zm399.6-5c.5 0 .8 0 1 .2.2.5-.7.4-.6 1l.2.4c-.2.4-1 .3-1 .8.2.2.4.3.3.6 0 .3-.8.2-.8.5s.5.4.4.8c-.2.4-.6.4-.7.7.2.2.6.3.4.8-.3 0-.4.2-.8 0h-1c0 .3.2.2.3.3l.2.2h.2v.3h.2v.3c-.3 0-.3 0-.3.2s-.3.2-.2.4c0 .5.6.4.4 1-.3 0-.4.3-1 .3h-.3c0 .3 0 .4-.2.5h-1c0 .2 0 .4-.3.6.2.3.8.2.7.8 0 0-1 .4-.4.5 0 .3-.5.3-.6.6.3 0 .4.2.6.3 0 0 .3 0 0 .3h-.8c-.2.2-.7.2-.6.5.3.3.7.5 1.2.7-.2.7.7.7.7 1.2s-.3.7 0 1.2c-.4 0-.5 0-.6.2 0 .2-.3.2-.4.4.2.6-.3.7-.2 1.2 0 .2-.3.3-.4.4-.3 0-.2.3-.4.4 0 .3.6.2.4.6 0 0 0 .2-.2.3 0 0 .3.2.3.4h-.2v.7h-.4c-.3 0-.6 0-.6.3 0 0 .3 0 .2.4-.5 0-.8 0-.8.2.3 0 .5.2.6.4.5 0 .4.4.4.7l-.4.2c-.3 0-.3-.3-.6-.3h-.5c-.2 0-.3-.3-.6-.2v.2c.3 0 .3.3.3.3v1h-.4c-.2 0 0 0 0 0h-.4l.4.3h1s0 .5.4.5c.2 0 .5.3 1 .2 0 .2 0 .3-.2.4-.3 0-.2.4-.2.6h-.2s-.4 0-.4.3 0 .5-.4.5c0 .2-.3.3-.4.5 0 0 .2 0 .2.2h.4c0 .3.4.3.6.4 0 .4.4.5.8.7 0 0 0 .2.2 0 0 .2 0 .4.2.4 0 .4.6.3.4.6 0 .3-.7.2-.8.5 0 .2 0 .4-.2.5 0 0 .3.2 0 .2.2.4-.2.6-.2.7l.2.3h-.8c0 .4.4.4.2.8-.5 0-.4.2-1 0 0 .4-.2.5-.6.5h-.4-1.8c-.4 0-.6.3-1 .2-.8 0-1.4 0-2 .2h-.3l-.6-.2h-.6-.5c-.3 0-.4.2-1 0-1 0-2.3 0-3 .2-.5 0-.4-.3-1-.2h-2.3c-.4 0-.8-.3-1.4-.2-1 .2-2.5 0-3.4 0H481.4c0 .7-.3.5-.8.4h-.2c-2.6-.2-5.2-.4-8-.4-.2-.2-1 0-1.2-.3 0 .2-.3 0-.6 0-.2 0-.2.2-.6.2h-7.3l-.8-.2c-.3 0-.4.2-.5.2h-2c-.7-.2-2.5 0-3.2 0H451.3h-.6l-.8.2c-.3-.4-.8 0-1 0-.2 0 0-.3-.3-.3l-.5-.2c-.4 0-.6.2-1.2 0h-1.6-.6c0-.2-.3-.2-.6-.2-.4 0-.5.3-1 .3l-.4-.2h-1.3-2.4c-.3 0-.4 0-.5.2-.3 0-.3-.3-.4 0H437h-.6c-.2 0-.2-.3-.6-.2h-3c-.3 0-.4-.2-.8 0-.8-.2-1.4 0-2 0h-1.7c-1 0-2 .2-3 .4-.5 0-1-.3-1.6-.3h-.8s0-.4-.2-.4h-3.2l-1 .2c-.4 0-.6 0-1-.2 0 .2-.2.3-.5.3h-.8c-.5 0-.6 0-1-.2v-.3h-.5c-.4 0-1 .4-1.5-.4h-2c-.2 1-.6.2-.6.4h-1.2l-1 .2c-.2 0-.3.3-.3-.5h-.7c-.3 1-.7.3-.8.4-.3 0-.7.2-.8.4l-1-.2h-2.4-.5c-.5-.2-.4 0-1 0H396.8c-1.2.2-2.2 0-3.3 0-.5 0-.6-.2-1.2 0-1 0-1.8 0-2.7.2-.5-.3-1.6-.3-2.4-.4a7.8 7.8 0 0 1-2 0h-2.7-.6c-.6 0-.7-.3-1-.3-.5 0-.6.4-1 .4-.2-.2-.6-.2-1-.2 0 0-.4 0-.4.2-.4 0-.6-.3-1.2-.2 0 0-.2 0-.2.2h-2.6c-.4 0-.7-.5-1 0-.4 0-.5-.3-1-.3 0 .2 0 .2-.3.2 0 .2-.3.2-.6.2 0-.2-.2 0-.4 0h-.6-.4a1.3 1.3 0 0 1-.6-.2c-.3.2-.5.2-.8 0-.3 0-.4 0-.5.2-.3 0-.3-.2-.7-.2 0 .2-.4 0-.8.2-.5-.2-.5 0-1 0-.4.2-.7-.3-.8 0h-.4a1.3 1.3 0 0 0-.6 0h-.4c0-.2-.2-.2-.4-.2-1 0-1.8-.2-2.5 0-.3 0-.5-.2-1 0-.4-.2-.3 0-1 0l-2.3-.2c-.8-.2-.8.2-1.5 0-1 0-2.6 0-3.4.2 0-.2-.5 0-.8 0h-6.8-.6c-.3 0-.7 0-.8.2-.5 0-.4-.2-.8-.2h-2.4c-.4 0-1.2-.3-1.3 0-.4 0-.6-.3-1.2-.3h-.7c-.5-.2-2 0-2.4-.2l-1 .2c-.2 0-.3-.2-.8-.2a6.8 6.8 0 0 1-1.8 0c-.4 0-.4.3-1 .2-.6 0-.6-.2-1-.2s-.3.4-1 .3c0 0-.2 0-.3-.2h-.7c-.3 0-.4-.2-.6-.3l-.8.2c-1-.3-2.3 0-3.2 0-.7-.2-1 0-1.8-.2-.5 0-.8.2-1.2.3h-.6c0-.3-.3-.3-.6-.3-.7 0-.7.3-1 .3-.2-.2-.5-.2-1-.3 0 0 0 .2-.3.2l-.6-.2c-.4.3-1.5 0-2.2.2-.5 0-.6.2-1.2 0-.4.2-.7-.3-1 0-.3 0 0-.3-.7-.2h-2.2c-.4 0-.5 0-.8.2-.5-.3-1.7 0-2.5 0-.2-.4-1-.2-1.7-.3h-3.8l-1.7-.4c-.5 0-.6.2-1.2 0H288c-.8.2-1.8 0-2.7 0-1 0-2 .2-2.8 0h-1c-.7 0-.7.2-1.3 0-.5.2-.4 0-1 0h-3.2c-.2 0-.3-.2-.7 0-.2 0-.5-.2-.6 0-.5 0-.6-.2-1.2 0H272.4c-.6-.2-.5 0-1 0l-1-.2c-.2 0-.3-.2-.7-.2h-5.5c-.3 0-.4.3-.8.2-1-.2-2.4 0-3.6 0-.4-.2-1.2 0-2 0v.2a1.3 1.3 0 0 0-.7 0h-.3-.4c-.7 0-1-.2-1.4-.3a6.6 6.6 0 0 1-2 0h-2.6c-.4 0-.5-.3-.8-.3-.7.3-2 0-3 .2l-1 .3c0-.4-.4-.4-1-.4-.5 0-.5-.3-1 0-.8-.2-1.3 0-1.8 0H240.6c-.2-.2-.3 0-.6 0-.3-.2-.5-.2-.8 0h-1c-.4-.3-1.4 0-2 0-.3-.2-.3-.3-.7-.3h-2c-.4 0-.5 0-.8.2 0 0 0-.2-.2-.2l-.2.2-.8-.2h-1.3c-.4 0-1 .2-1.6 0H227c-1-.2-1.5 0-2.3 0-.6 0-.6-.3-1.2-.2-.5 0-.6.3-1.2.2-.4 0-.5-.4-1-.4H214c-.4 0-.8.3-1.3.4h-.6a1.6 1.6 0 0 1-.7 0s0 .4-.2.4v-.4c0 .4-.8 0-1 0-.2.3-.8.3-1.3.3s-.5-.7-1 0h-2c-.3 0-.3-.2-.7-.3-.4 0-.8 0-1.2-.2h-1.6c0-.2-.5 0-1 0-1 0-2-.2-3 0H197c-.6-.2-1.4 0-1.8 0h-2.8c-.3 0-.8 0-.8.2-1-.3-3 0-4.3-.2h-2.8l-1-.2c-.4 0-.4.2-1 0H181c-.7-.2-1 .3-1.4 0-1 .2-1.6 0-2.3 0 0-.2-.6 0-1 0l-1-.2-1 .2-1-.2c0 .2 0 .2-.4.2h-1.2v-.2h-.4c-.2 0 0 0-.2.2h-.8c-.2 0-.2-.2-.2-.2h-1l-.4.2v-.2h-.2c-1 0-1.2.3-2 .2l-1.3-.2c-.7 0-.6.2-1 .2s-.3-.3-.5-.3l-.6.2-.3-.2-.4.2c-.3 0-.6 0-1-.2 0 .2-.2.3-.5.3h-1.4c-.2 0-.6-.2-.6 0-.4 0-.5 0-.6-.3-.5 0-.5-.2-1 0-1-.2-1 0-1.7 0h-.6l-.3.2h-1.2l-1.8-.3c-.4 0-.4.4-1 .4h-1s-.4-.2-.5 0l-.4-.3H147c-.7.2-1.7 0-2.5 0-.3 0-.5-.2-1 0-1.5 0-3.4-.3-4.7 0 0 0 0-.2-.4-.2 0 0 0-.2-.2 0-.5 0-.5-.3-1-.3h-1.8c-.3 0-.6 0-.6.3-.5 0-.6-.2-1.2 0-.4 0-.3.3-1 .2-.3 0-.5-.2-1 0-.6 0-1 0-1.3-.3l-.6.2s0-.2-.2-.2h-.4c-.2 0-.4 0-.7-.2H124c-.4 0-.3.3-.8.2l-.8-.2c-.2.4-.5 0-.8 0 0 .2-.5 0-1 0h-1c-.3 0-.4 0-.5-.2h-.8c-.6.2-1.3.4-2.2.3-.4.2-.6.4-1 .4-.7 0-1.6 0-2-.2 0 .2-.5.2-.5 0l-.8.2c-.5-.3-1.5 0-2.3-.2a7.4 7.4 0 0 0-1.6-.2c-.6 0-.8.2-1.5 0-.6.2-.4-.3-1-.2-.3.2-.8 0-1 .2H103l-.4-.2c-.2 0 0 0-.2.2h-.8c-.2 0-.2-.2-.2-.2l-.6.2c-.2 0-.3 0-.4-.2h-1c-.2 0-.2 0-.2.2l-2.3-.2c-.7 0-.6.2-1 .2l-1.5-.3s-.8.3-.8 0c-.5 0-.5.2-1 0-1.2 0-2.4.2-3.3 0H86.5c-2-.2-3.5 0-5.3 0-.5 0-.4.2-1 0a7.2 7.2 0 0 0-1.6 0h-3.3c-.4-.2-1 0-1.6-.3-.5.3-1.8 0-2.6.2h-3H66.8a6.5 6.5 0 0 0-1.8.2c0-.2-.5 0-.7-.2h-.6H61.2s-.2-.2-.3 0c-.5 0-1 0-1.4-.3l-1 .2c0-.2-.3-.3-.7-.3h-3c-.2 0-.4 0-.4.2-.5 0-.5-.2-1 0H51.6h-1.1c-.7-.3-1 0-1.4 0H44.7c0-.2-.3 0-.4 0a17 17 0 0 0-2.4 0h-2-.6c-.3 0-.6-.4-.7 0-.5 0-.6-.2-1-.3 0 .3-.3.3-.6.3s-.3.2-.6 0h-.8l-.8-.2c-.4 0-.2.5-.8.4 0 0-.3-.2-.4 0-.7-.2-1.8 0-2.6 0-.3-.2-.4-.3-1-.3s-1.4 0-2 .3c-.3 0-.4-.3-1-.3h-2-.4c0-.2 0-.3-.4-.3-.6 0-.6.3-1.2.2-1-.2-2.3 0-3 0-.2 0-.3-.3-.4-.3-.3 0 0 0-.2.2-.8 0-1.3-.5-2-.3l-1 .2c-.5-.3-1.3-.3-1.7-.4-.4 0-.5.2-.8 0-.2-.3-.5 0-1.3 0-.5-.2-1.3-.2-2-.3-.6 0-.6.3-1.2.2-.4 0-.5-.3-1-.3h-.8c0-.2-1 .2-1 0-.5 0-.6-.3-1-.3l-1.5-.2c-.3 0-.4.2-.8 0H2c-.2-.3-.5-.3-1-.3l-.2-.4a1.3 1.3 0 0 1-.6 0c.2-.5-.3-.6-.2-1 .6 0 .8-.3.8-.4h.9l.8-1c.5 0 .4-.2 1 0l.2-.6c.5 0 .6-.2 1-.3 0-.3.8-.2 1-.4 0-.3-.6-.2-.4-.7.3 0 .5 0 .4-.2.3 0 .6 0 .6-.2-.2-.3.6-.5 0-.5.2-.4-.5-.3-.4-.7.3 0 .3-.4.7-.4 0-.4.8 0 .7-.5-.4 0-.5 0-.5-.4-.2-.3.4-.2.4-.5 0-.2-.6 0-.5-.6l.8-1c-.7.2-.5 0-1-.2 0-.4.4-.5.4-.8 0-.3-.5-.4-.5-.7 0-.3.6-.2.5-.5 0 0 0-.2.4-.2 0-.2 0-.3.2-.4-.2-.3-.3-.7-.2-1.2.3 0 0-.3.2-.5 1 0 .8-.5 1.6-.4 0-.4 0-.5.6-.4a.6.6 0 0 1 .3 0v-.3h-.7c0-.2-.6-.2-.8-.4 0-.2 0-.4.4-.5 0-.2.6-.2.4-.6 0 0-.2 0-.2-.3 0 0-.3 0 0 0-.2-.4-.6-.5-.4-1h.4l.2-.5c.2-.7-.4-1-.4-1.6-.2 0-.3-.3-.4-.4-.4 0 0-.4-.4-.4-.3 0-.4-.2-.8 0-.3-.3-.2-.6-.7-.7 0 0-.2 0-.3-.2-.2 0 0-.3-.4-.3 0-.4.5-.5 1-.7 0-.3 1 0 1-.7-.4-.2-1.5 0-1.4-.5 0-.2.2-.2.2-.5 0-.2.3-.2.4-.4-.2 0-.3-.2-.5-.4.3 0 .4 0 .4-.3-.2-.5.7-.3.6-.8 0-.2-.4-.2-.4-.4s-.3-.2-.2-.4l.2-.6c0-.3-.6-.2-.5-.5.4 0 .8-.4.3-.4 0-.3.4-.3.3-.8h-1c0-.2 0-.6-.5-.5 0-.6.8-.4.7-1-.2 0-.3 0-.4-.2 0-.2-.3-.2-.4-.4.6 0 .2-.6 0-1l.7-.3c0-.4.6-.2.4-.7l1.2-1c0-.6.3-1 0-1.7.4 0 1 0 1-.4.3-.2.6-.3.5-.6 0-.3-.4-.3-.2-.7.3 0 0-.2.3-.3v-1.8c0-.3-.4-.2-.2-.6h.4c-.2 0-.2 0-.2-.3 0-.2.4-.3.4-.7 0-.4-.5-.4-.4-.8.3 0 .8 0 .8-.4 0-.2.3-.2.2-.5.3 0 .4-.3.6-.3 0 0 0-.2.3 0l.2-.4c-.4 0-.3.2-.6 0H11c.2-.5 0-.4 0-.7v-1c.3 0 .4 0 .4-.2 0-.4.6-.2.4-.7 0-.3 0-.7-.6-.8 0-.4.6-.3.4-.7l-.2-.5c.4 0 .4-.4.6-.6 0-.4.6-.2.4-.6 0-.4 0-1-.2-1 .2 0 .3-.2.2-.3h.4c0-.5.4-.4.4-.6.2-.5 1-.5 1-1 0-.3-.5-.2-.6-.4l-.6-.2c0-.4-.3-.6-.4-1 0-.3-.5-.2-.5-.7v-.6s.6-.2.6-.5h-1c0-.8 0-1.5.2-2 0 0-.2 0-.2-.3 0 0 0-.2-.2-.3-.3-.2-.6-.3-.6-.6 0-.6 1-.5 1-1-.3 0-.2-.4-.4-.5 0-.3-.3-.4-.2-.7-.3 0-.2-.2-.4-.2 0 0-.4 0-.6-.2 0-.5.8-.3.6-1a1.2 1.2 0 0 1-.6 0c0-.3-.4-.2-.4-.4.2 0 .2-.2 0-.2-.2-.5.3-.5.2-1-.5 0-1-.3-1.8-.2-.2-.5.7-.3.8-.7-.6 0-.5-.7-.2-.8-.4 0-.6-.4-.6-.7-.3 0-.7-.3-.7-.4 0 0 .4 0 .3-.2h.8c.3 0 .3-.3.6-.4 0-.2.5 0 .8 0 0-.2 0-.3.2-.2.2 0 .2 0 .2-.3 0 0 0-.3-.2-.3a1.3 1.3 0 0 1-.6 0c0-.3.3-.5 0-.5s-.4-.2-.4-.4.5 0 .4-.5c0-.2.3-.3.4-.5-.3 0 0-.4-.4-.4-.3 0-.4-.2-.4-.4.2-.5 1-.7 1.2-1 0-.3.3-.4.2-.7.2 0 .8 0 .6-.4l.3-.3h-.2v-.4c0-.2-.3-.2-.3-.5v-1.2c0-.3-.8-.6-.6-1-.2 0-.4.3-.4-.5h-.4-.2c.2-.5-.5-.2-.4-.6 0-.5 1.3-.2 1.2-.8 0-.4-.4-.3-.4-.6 0-.4-.4-.4-.2-.8 0-.3-.7-.2-.6-.7.3-.2 0-.8.2-1.2 0-.2.6-.2.4-.7 0-.5-.6-.7-.4-1.3-.5 0-.7 0-.6-.4 0-.5.8-.2.6-.7.3 0 .6 0 .8.2h.4l.4.2H12v.3h2.5c0-.6.4-.2.6-.3l1-.2a6.7 6.7 0 0 1 1.7 0H25c.2 0 .3.2.7.2.2 0 .4-.2.8 0H29c.4 0 .5-.2 1 0h.3c.6 0 .2.5.7.6.2 0 .2-.3.4-.4.4 0 .2-.5.8-.4.4 0 .4.2.8 0h3c.3 0 .3.2.7 0 .4 0 .7.2 1 .3.4 0 .2-.5.8-.4 0 .2.3.2.6 0h7c.4 0 .5.2.8 0l2.7.3c1-.3 1 0 1.8-.3l.8.2c.2-.3.4-.3.7-.3H54c.2 0 .4-.2.6 0h.6s.4 0 .6.2c.3-.2.3-.3.6-.3v.2s.5-.2.6 0c1.2-.5 3.5 0 4.7-.4.6.2 1.6 0 2.2.3.3 0 .6-.5.7 0 .5 0 .6-.4 1.3-.3.5.2 1.2.2 1.8.3.4 0 .5-.3 1-.2l.8.2h1.6a.4.4 0 0 0 .3 0h1.9c.2.2.2 0 .4 0 .5 0 .4-.3 1-.3 0 .3.7 0 1 .2.4 0 .5.2 1 0 .7-.2 1.5.2 2.3 0a7.4 7.4 0 0 1 1.6 0c.8-.2 1 0 1.7 0h2.1c.3 0 .3.2.6 0h.5c.3 0 .3.2.6 0h3.3c.5.2.8 0 1.3 0 .3 0 .3.2.6 0 0-.2 1 .2 1 0 .8-.2.7.5 1.5.4h.6c.3-.2.7 0 1 0 .4-.2.4-.3.6-.5.5-.2.4.3 1 0 .7.2 1 0 1.3 0 .4 0 .3.4.8.3.4 0 .5-.2.8 0 .2-.2.8-.2 1.4-.2 1.6.5 3.2 0 5 0l.7.3h.7c.4 0 .7 0 1.2-.2.4 0 .5.4 1 .3.8 0 2-.3 2.6 0 .4 0 .4-.4 1-.3.6 0 1 .3 1.4.3 1 0 1.6 0 2.3-.2.4 0 .7.2 1 .3l1-.2.6.3h.7c.4 0 1 0 1.5-.2 0 .2 0 .3.4.3h.6c.6 0 .8.3 1.2.4.4 0 .5-.3 1-.3 0 .2 1 .2.8 0 .7 0 .5.4 1.2.3h1.5c.2 0 .4 0 .7.2.3-.2.5-.3.8-.3l.6.2h1c.3 0 .2.2.7 0 .7.2.4-.4 1-.3h3.1c.6 0 .4.3.8.3 0-.3.5-.3 1-.3.7 0 .8-.2 1.3-.2 0 0 0 .2.5.2.4 0 .2-.4.8-.3 0 .3.5.3 1 .3s.6.2 1 .3c.3 0 .5-.2.8-.3 0 .2.5 0 .5.3h.6c0-.3 1.2 0 1.2-.5l.6.2c.2 0 0 0 .2-.2h.6c.8.2 2.4.2 3.3 0 0 0 0 .2.3.2h.6c.4 0 .3-.2 1 0 0 0 0 .2.5.2h.8s.3-.3.6-.3c.2 0 .2.3.5.3 0-.3.6-.3 1-.3h.9c0 .2.3 0 .4.2h.6c0 .3.3.2.4.3.3 0 .3.3.6.3.2 0 .3-.2.4-.3h.8c.5 0 .4-.4 1-.4h1.5c.6 0 .3.6 1 .5.6 0 0-.5.7-.3-.2-.3 1 0 .8-.2.6 0 .4-.4 1-.3 0 .2.3.2.6 0 .2.3.5.3.7.3h1l1-.3v.2h1c.6-1 .4.2 1 0 .6.2.6-.3 1-.2.3 0 .4 0 .5.2.3 0 .3-.2.7-.2l1 .2c0-.2 0-.3.3-.3 0 0 0-.2.4-.2 0 .2.5.2.8.2.3 0 .3.2.6.3 0-.2.4-.2.7-.2l.6.2c.5 0 .5-.3 1-.2.4.2 1 .2 1.5.3 0 0 0-.2.4-.2.8.2 1.7 0 2.6 0 .4 0 .6.2 1 .3h.7l.8-.2h2c.3 0 .4.2.6.3h.5l.8-.2H192c.3 0 .6.2.8.3.4 0 .7 0 1.2-.2h3c.5-.2.8 0 1 0 .5 0 .4-.4 1-.3.5 0 .4.4 1 .3.8 0 1.6.3 2.6.3l1.4-.2 1.2.2c0-.3.7 0 1 0h1.4c.4 0 1.2-.3 2-.3.3 0 .7.3 1 .4.6 0 1.3 0 2-.2h.3c0 .2.3 0 .3.3.5 0 1 0 1.3.2h.2c0-.2.3 0 .4 0v-.3h.2v-.2h.4c.5 0 .4.5 1 .4 0-.3.7 0 1 0 .6 0 .8-.3 1.2-.3.5.2 1-.2 2 0H226.7c1 0 2 .3 3.2.2.4 0 .5-.3 1-.3h2.5l1.4.2h1.7c0-.2.4 0 .7 0 .2 0 .2-.3.6-.3h.8c.4 0 .2.4.8.3 1 0 1.2.3 1.8.3 2-.6 4.5-.2 6.5-.4.6 0 .6.2 1 .3 0-.2.5 0 .8-.2 0-.2.5 0 .6-.2.5.2 1 .3 1.6.2.2 0 .3.2.4.3.3 0 .2.2.4.2 0-.2.7 0 1 0 .3-.2.8-.2 1.3-.2h.7c0 .3.4.3.6.4.6 0 .5-.3 1-.3 0 .3.4.4.8.3.6 0 .6.3 1 .2.7 0 .4-.7 1.2-.6 0 .2.5 0 .6.3.4-.2.7 0 1 0 .4 0 .2-.3.8-.3h1.2s.4 0 .4 0h2.9c.4 0 .8-.2 1 0 0-.2.4-.4 1-.4s.4.5 1 .5c0-.2.5-.2.5-.3l1-.2c.6.2 1.7 0 2.5.3.2 0 .5-.2 1 0 .6 0 1.3-.2 1.6 0 .3 0 .4-.2 1 0h4.5c.2 0 1 0 1-.2.4 0 .6.2 1.2 0h3c.8 0 .6.5 1.5.3.5 0 1.4 0 2-.2h.6c.6 0 .5-.2 1-.2 0 .4 1 0 1 .3.7 0 .8.2 1.3.2 0-.2.3-.2.6-.2.2 0 .2-.2.6 0 .5-.2.7-.3 1.4-.3.6 0 1 .3 1.4.3h1.4c.4-.2 1.2 0 2 0 .2 0 .4 0 .7.2.3-.2.5-.2.8 0 .6-.2 1.2-.4 1.8-.2h.4c.3 0 .3-.3.7-.2 0 0 .4.3.8.3h2.6c.5 0 .4.4 1 .3h.2c0-.2.2-.3.4-.2l1-.2c.6 0 .7.2 1.5.2.5 0 .6-.4 1.3-.3 1.7 0 3.6.5 5.3 0 1 .2 2 0 3 0v.3h2v-.2.2c.7 0 1.6 0 2-.2 0 .2.4 0 .7.2.6 0 .5.2 1 .2 0 0 0-.2.3-.2.2 0 .3.2.4 0 .3 0 .4 0 .6-.2 0 .2.3.2.4 0 .5 0 .4.3 1 .2h3.5l.2-.2h.8c.3.2.7 0 1 0 .6.2.5 0 1 0h6.5c.4 0 .5.3.8.2h.7c.2 0 .5 0 .6-.2.6 0 .8.2 1.5 0l1.6.2h1.5c.6 0 1.4-.2 1.7 0h1.4c.7 0 1 0 1.4-.2.5.3 1.7 0 2.5.2.4 0 .5.3 1 .2H361.6c0 .2 1 0 1.2 0 .7 0 1 0 1.5.2.4 0 .2-.4.8-.3.5-.2.4 0 1 0h.6c0-.3.3-.3.6-.2 1 0 2 .3 3.3.2.5 0 .4-.2 1 0 .3 0 .7-.2 1 0h.4c.6-.3 1 0 1.3 0 .4-.2 1.4 0 2 0 .7-.2.5.3 1 .2.3-.2.6-.2 1-.2.7 0 .6-.2 1 0h2.8c.3 0 .4-.3.7-.3h4c.5 0 .6.3 1 .3h.7c.2 0 .6 0 .6-.2h2.4c.8.6 2.2.4 3.3.5H396.8c.6 0 .7 0 1.3-.2.4 0 .4.3 1 .2 1-.2 2.7 0 4 0 .3 0 .3.2.7.2h6.1c.2 0 .2-.3.6-.2.2 0 .3.2.6 0h.6c0 .2.3.2.6.2.4 0 .4-.3 1-.2l1.2.2h2.5c.6 0 .8-.2 1.5 0 1-.3 1.8 0 2.5 0 .3 0 .5-.3 1-.2h2l1.2.2H429c.4 0 1 0 1.7.2h2l.3-.2h.8c.3 0 .2.2.4.2l1-.2c.3 0 1 .2 1 0 .5-.2.5 0 1 0h1c.5.2 1.8 0 2.7 0 .4 0 .5.3 1 .2.8 0 .7-.3 1.4-.2.2.2.7.2 1.2.2.4 0 .3.4 1 .4 0-.2.3-.3.6-.3 0-.2.4-.2.8-.3 1 0 1.8 0 2.3.3.2 0 .3-.2.8 0 .4-.2.6.4.7 0h.2v.2c.4 0 .5 0 .7-.2 0 .2.6-.4.6.4h1c.6 0 .4-.4.8-.4.8 0 .7-.3 1.4-.2.6 0 .6.3 1.2.2l1.8.2c.3 0 .4-.2.6-.3h2.1c.3 0 .3-.2.7-.2 0 .2.5.2.8.2l1.6.2c.5-.2.7-.6 1.3-.6h2.3c.4 0 .2.5.6.5.2-.2 0-.5.6-.4 0 0 .4 0 .4.2-.2 0-.2.3 0 .3h2.2c.5 0 .5.2 1 0h.3c.2 0 .2.3.6.2.4 0 0-.5.8-.4.8 0 .4.5 1 .4 0-.3.8 0 1 0 0-.2-.2-.3 0-.4h.3c.2 0 .4 0 .4-.2.6 0 1.5 0 2 .2h2.5c.8-.2 1.4 0 2 0h1.7s.4-.2 1 0h1c.4 0 .5.2 1 .3h1.4c0 .3.2.3.2.5-.3 0-.3.2-.2.4 0 .3 0 .7-.2 1 .3 0 0 .3.6.3 0 .3.6 0 .6.4.5 0 .4.3.8.3.5 0 .2.3.6.4l.8-.2c0-.2.5 0 .6 0 .2.7-1.3.2-1.2.8H492.6v.3c0 .2 0 .4-.2.6-.5 0 .3 0 0 .4-.6.3-1 .6-1.4 1 .2 0 .2.3.4.4 0 0 .3 0 .2.4.5 0 .4.4.4.8 0 0-.2 0-.2.2-.2 0-.6 0-.6.2s0 .3.2.4h-.6c-.2.6.2.8.2 1.2 0 .3-.6.2-.4.6 0 .3 0 .6-.2.8 0 0 .2 0 0 0 0 .3 0 .4-.2.5.5 0 .6 0 .6.5.4 0 .7 0 .8.2.3 0 .5.2.8.3 0 .3-.4.3-.2.7l.4.2s0 .2-.2.2c0 .2 0 .3.2.4 0 .4 0 .7.2.8l-.2.3h-.4c-.3.3-.6.3-.6.7 0 .3.5.3.8.4.2.4-.6.3-.4.7-.2 0-.2.2-.2.4 0 0 0 .2-.2.3 0 .3.7.4.8.7-.6 0 0 .5.2.6.4 0 1.3-.3 1.4.2h-.4c-.2 0-.6 0-.6.3 0 .4.4.3.4.6l.2.3h.4c0 .3.2.3.2.4 0 0 0 .3.2.3 0 0 .2 0 .2.3.3 0 .2.2.4.2l-.2.6c.4 0 .6.3.7.6.4 0 .6.3 1 .5h.4c0 .3 0 .3.3.4v.4h.2c0 .4-.2.4-.2.7.7 0 1 .3 1.4.7.8 0 .8.5 1.4.6 0 .7.7.7.5 1.4.4.2.8.3 1 .7-.3.4 0 .5 0 1 0 0 0 .5-.3.6h-.2l-.2.2c-.2 0 0 .3.2.4-.7 0-1 0-1 .5.7 0 .3.5 1 .4-.2.7-.3 1.3-.2 2 0 .4-.8 0-.7.6 0 .4.4.3.3.7l-1.6.2c.2.3.6.4.4.8-.2 0-.6 0-.7.2.3 0 .4 0 .4.4 0 0 .5 0 .6.2 0 .5.4.5.2 1 .6 0 0 1 .4 1 .3 0 .6-.4.8 0h.8c.7.2.6.8 1.8.7 0 .2-.3.3-.8.3 0 .3-.7.2-.6.7.2.3.7.4.8.8l.6.2c0 .2.4.2.6.3 0 .4-.3.5-.4.8.3 0 .2.4.4.4 0 .2.3.2.2.4 0 .3-.3.3-.2.7.2 0 .3 0 .3.3v.5s.6.2.6.5c.4 0 .6.2.6.6.6 0 .6.2 1 0 0 .4-.3.5 0 1h.7c.5 0 .3.5.7.5.2.3-.2.2 0 .6h-.2v.5c0 .2.2-.2.7 0h.2l.6.2c0 .8-1.3.6-1 1.5-.5 0-.5-.2-1 0-.2 0-.3.3-.2.6h-.6c-.2 0-.2.3-.2.5 0 .4 1 .3 1.5.4 0 .2 0 .3.4.3l.5.3c0 .6.3.8.2 1.5h1.4c0 .3 0 .4-.3.5 0 .3-1 0-.6.4 0 .3.3.3.3.5M290.5 146c-.3 1-.7 1.7-.7 3l-.4.5h-.6v1c-.2 0-.4.4-.5.8-1 .5-1.4 1.3-1.8 2l-2.4.3c-.4 0-.7.3-1 .4H281a2.2 2.2 0 0 0-.7 0v-.2l-2.3-1a3.6 3.6 0 0 0-1-1c0-1-.6-1.4-1-1.6l-.3-1.3c0-.8-.4-1.3-.5-1.5h-.2v-.3c-.2 0-.2-.3-.3-.5 0-.5-.4-1.2-1-1.6l.2-2.6-.7-1c-.2-.2-.2-.2-.2-.5l-.5-1.3a2.2 2.2 0 0 0-.4-1c0-1-.4-1.5-.7-2-.2-.6-.4-1-.2-1.6l-.5-1.3c0-.3-.2-.6-.4-1 0-.4-.2-.7-.4-1 0-.3-.2-.5-.3-.8v-.2c-.5-1-1-2-1-3l.2-.2 1-.5h.2c1 0 1.5-.3 2-.6.4-.2.5-.3 1-.2h.2c.6 0 .8 0 1.3.4.3.2.6.5 1.2.7h.3c.3 0 .5.2.8.4l.2.2h1.5v.4h.8l2.5 1c1 .6 2 1 3.3 1.3a11 11 0 0 0 2.6 2.8c.3.7.8 1.3 1.5 1.7v.3c0 .4.4 1.2 1 1.6l.6 2.4c.2 1 .5 2 .5 3v2c0 .6-.2 1-.5 1.7m-145 3.7c-.2.2-1.3 1.5-1.3 2v1.2c-.5.3-.6 1-.6 1.4a2 2 0 0 0-.5.6l-.5 1a1 1 0 0 1-.2.5c-.6.4-1 1-1 1.4h-.2c-.3-.5-.8-.7-1.2-1h-.2c0-.2-.2-.4-.3-.5l-.7-1s-.2-.4-.5-.6v-.4c-.2-.5-.4-1.2-1-1.6 0-1.4-.5-2.3-1-3.2-.2-.8-.5-1.4-.6-2.2 1.5-.2 3.8 0 6 0 1 .2 2 .3 3.2.3 0 0 .6.6 1 .6v1h-.2zM403 39v-.3h-.3v-1l-1.2-1.7c-.2-.3-.6-.7-1.2-1-.4 0-.8-.2-1-.3h-.4l-.5-.3h-.5c-1.6 0-3 0-4.6.4l-8.7.3h-.3c-.6 0-1 .2-1.4.4h-.2c-.5-.2-1.4-.4-2.3-.2-1 0-1.7 0-2.2.2a4 4 0 0 1-.6.2 20.8 20.8 0 0 0-.7 0c-.8-.3-1.6-.5-2.6-.6h-.8c-1.8 0-3.4.3-5 .5-.5 0-.7 0-1.2-.2l-.6-.3h-2.2l-.2-.2c0-.3-.2-.7-.5-1l-.2-.4-.3-1-.3-1-.2-2.3s.2 0 .3-.3l.4-.3 1-.7c.5 0 .8-.2 1-.3l3.2-.3c1.4 0 2.8-.3 4.5-.2l2.3.3c2.3.4 4.6.7 7.4.5h.7c1 .2 2.4.3 3.7.3l1.2.2h2.3l.4-.4c2-.4 2.3-1.5 2.3-2.4 0-3-2.4-3.6-3.8-3.8a3 3 0 0 0-.7-.3l-.8-.5-1-1h-1a2.4 2.4 0 0 0-.3-.2l-2-.6h-1l-.4-.3h-.7c-1.2.2-2.4 0-3.7 0H377c-1-.3-2-.4-3-.4-.7 0-1.6 0-2.2-.2h-2c-1.4.3-2.7.5-4.3.5h-.4c-.5 0-1 .2-1.4.4l-1.4.3h-.4l-.5.2c-.7.4-1.4.8-2.2 1l-1.4 1c-.2 0-.3.3-.4.4a3.3 3.3 0 0 0-1 1l-.2.2h-.3l-.7.5-.5.8-.4.2v1c-.8 3.3-.2 6.6.4 9.5l.5 2.5h-.2c-.2.4-.6 1-.6 2a2.3 2.3 0 0 0-.3 1c0 1 0 1.4.3 1.8 0 .2 0 .4.2.7l.4 1h.4l.4.3h.3l.6.2c.5.2 1 .2 1.6 0l.3.3.6 1 1 1v.2l.8 1.5v1l1 .5c1.4.5 2 1 2.3 1.5l1.5 1 .5.4c.2.3.6.6 1 .8v.2l1.2.7h.2l.3.2h.4c.3.3.4.3.5.3.3.2.6.2 1 .2.5.6 1.2.7 1.7.8h.2l1.8.6s.5 0 .8.2h.8c.3.2.6.2 1 0 .3.4.8.4 1 .4h1.4l1 .3H382.7c.4 0 1 .3 1.6.2 1 0 1.8 0 2.4-.3.6 0 1-.2 1.7 0h.3l.4-.2 1.5-.4c.8 0 1.6-.3 2.3-.6h3.3c1-.2 1.6-.5 2-.7.2 0 .4 0 .5-.2 1 0 1.6-.3 2-.6h1.3l.3-1.5c0-.4.2-.6.3-1 .3-.8.6-1.8.4-3.3l-.3-1.4h-.3l-.2-1h-1.5c-.6-.6-1.4-.8-1.8-1h-.3l-.3-.2h-.7c-1.3 0-2.3.4-3 .7l-.4.2h-.4v.2h-.3l-1.6.5-.4.3a9.8 9.8 0 0 0-2 .6c-1.4 0-2.2.4-3 .8-.5-.2-1.2-.5-2-.3-1 0-1.6.3-2 .4-.4.2-.5.2-.7 0h-1.8c-.5-.2-1-.4-1.7-.4-.7-.4-1.6-.7-2.8-.5 0-.5-.4-1-1-1.3v-.5l-1-.2c-.3-.3-.8-.6-1.4-.7v-.2c.6 0 1 0 1.6-.2h3.7c1 0 1.7 0 2.4.2h.3c1 .2 1.5-.2 2-.4h1.5c.2 0 .6.3 1.2.3.8 0 1.2-.3 1.5-.4H387l.7.4h1.2c.7 0 1.4 0 2-.5H394.5l.5.2h.6c1 0 1.6-.4 2-.7.4.2 1 .3 1.6.2h.5c.5 0 1-.2 1.2-.4l1.3-1.5c.4-.5 1-1.4.5-2.7M346.5 41l-1.2-1.8a2.2 2.2 0 0 0-.5-.8l-1.2-1.5-.2-.5-.6-.3a8 8 0 0 0-1-.6l-.6-.3-1.4-1c-.6 0-1-.2-1.6-.6l-.5-.3h-.4a3 3 0 0 0-1-.2l-1.4-.6-.6-.2c-.5-.2-1-.4-2-.4a15.3 15.3 0 0 0-.8-.2c-.3 0-.8 0-1-.2l-.4-.2h-3.5c-1.3-.2-2.5-.3-3.8 0l-1-.3c-1-.2-2.2-.5-3.8-.4a3 3 0 0 0-2 .4l-1.4-.3-.2-.4c-.2-.2-.3-.6-.4-1 0-.4-.3-.8-.5-1.2a8.8 8.8 0 0 0-.5-3.2c0-.2 0-.4-.2-.7 0-.7-.3-1.4-.7-2l-.2-.3c-.6-.7-1.6-.8-2.3-.8h-1c-.2-.2-.6-.3-1-.3s-.7 0-1 .3c-.5 0-.8.2-1 .4h-1l-.2 1c-.5.5-1 1.4-.7 2.8-.2.4-.4 1-.4 1.6v.3l1 5 .7 1.6.2.6v1.4h.4v.4h.2l.6 1.6s0 .3.2.4c0 .2.2.3.3.4v.2l.2.4 1 1.5v.2s0 .2.2.3l.7 1.5.3.3.8 1.3c0 .7.3 1.2.4 1.5l.2 1v.5l.2.5.4 1c0 .3.2.6.4 1l-.3.4c-.6.7-.8 1.7-.6 2.8l.2 1.5h1c.3.3 1 .7 1.7.7l2 .2c1 0 1.5-.5 1.8-.7h1l.6-1h.4c.4 0 1 .3 1.6.3l1 .6 1.6.2c1.4 0 2.6 0 3.6.4h1.2c1.2-.3 2.6-.7 4.5-.6 1 0 1.7-.2 2.3-1h.4l1-.5c.7 0 1.3-.4 1.7-.6.4-.2.5-.3 1-.2l1.6-.8.3-.3h.6l.5-.7a7.5 7.5 0 0 1 2-2l.6-.4V47c0-.3.2-.6.5-1 .5-.8 1-2 1-3.5a2.8 2.8 0 0 0-.5-2m-52 2.6a4 4 0 0 0 0-.7v-.8a2.5 2.5 0 0 0-.4-1l.2-.5-.2-.6a2.7 2.7 0 0 0-.2-.4 2.5 2.5 0 0 0 0-.7l-.5-1.2a4 4 0 0 0-.5-1h-.2l-1-2a3.2 3.2 0 0 0-.3-.7l-.3-.4h-.5l-.2-.7-.5-.3a5 5 0 0 1-1.6-1.4l-.5-1h-.5l-1.3-.5a2.4 2.4 0 0 0-.6-.2l-.3-.2c-.2-.2-.7-.5-1.5-.7h-.5l-.2-.2a4.3 4.3 0 0 0-1-.5 3.4 3.4 0 0 0-.7-.4l-1-.7-1.2-.3v-.4h-1.6c-.3.2-.7.2-.8.2l-.4-.3h-4.3l-.3-.2h-.4c-.7 0-1 .2-1.4.3h-.5c-.5 0-1 .2-1.3.4-.7 0-1.2.2-1.5.3H265l-.7.5h-.6l-1.7.5a7 7 0 0 0-.6.3l-1 .3-1.6 1-.8.3-.2.8c0 .3 0 .4-.2.5l-.2.3a3.4 3.4 0 0 0-1.2 1.5c-.2.3-.6.8-.7 1.5l-.3 1.8v1.2c0 1.3 0 2.6.8 3.6v1l.6 1.7.2.7h.2v.5h.5c0 .2.2.3.3.3l1.5 1.2.3.5.2.2c.3 0 .6.3 1 .5l1 .6 1.5 1c.3.2.7.5 1.3.6.4.3.8.6 1.5.6.5 0 1 .3 1.4.6l1.2.5a3.3 3.3 0 0 0 1 .3l1.4.4c.4.3 1 .5 1.7.3.3 0 .5 0 .8.2.6.2 1.5.4 2.6.4.2 0 .3 0 .4.2l.4.3c0 .2.3.4.4.5l1 1c0 .4.5 1 1.3 1.4l1 .7c.3.2.7.4 1.3.4h.4c.2.2.5.3 1 .3 1.7.2 2.7-.2 3.4-.7.5 0 1 0 1.2-.3l.4-.4.7-.5.8-.3.2-.6h.3c.3-.3.6-.4 1-.6.7-.4 1-1 1.3-1.2L294 51c.2-.3.4-1 .3-1.7l.3-.8c0-.6.2-1 .3-1.7 0-.5.2-1 .3-1.3v-.2a2.8 2.8 0 0 0-.5-2M252 30.5a3.4 3.4 0 0 0-1.5-1.6v-1.2h-2a2.5 2.5 0 0 0-1 0 2.2 2.2 0 0 0-1-.5 2 2 0 0 0-.4-.4 2 2 0 0 0-.6-.5c-.3-.3-.8-.4-1.3-.5H242l-2-.2c-.7 0-1.4 0-2 .4-.6 0-1 0-1.3.2a6.8 6.8 0 0 0-2.6 0H233c-1 .3-1.8.4-3 .4h-.4l-.8.2h-.4a4 4 0 0 0-.5 0c-.4 0-.8.2-1 .3l-.3.2a2.4 2.4 0 0 0-1 .2h-.4c-.6 0-1 .3-1.5.7h-.4c-.5 0-1.2 0-1.8.3l-1 .3h-1v.4h-.2l-1 .3-.2.5a2.2 2.2 0 0 0-.6.3h-.3V30h-.6a2.7 2.7 0 0 0-.4-.7l-.6-1-.8-1.7a2.6 2.6 0 0 0-.4-.5c0-.6-.3-1.2-.5-1.7v-1l-.5-2-.2.2-.2-.3a2.3 2.3 0 0 0-.6-.8v-1.2l-4.2.2c-1-.2-1.8 0-2.3.3h-.5l-1.3.3v1.3l-.5 1.3-.3.6.2 3.4c0 .5.2 1 .4 1.6l.7 2.6v1.5l.4 1.2h.4c0 .4.2.8.3 1l.8 2c.2 0 .3.3.4.4 0 .7.3 1.3.6 2l.2.4 1 1.6v.3l1 1.3c.2.8.6 1.4 1 1.8.2.6.7 1 1 1.2v.8h.7c0 .2.2.3.3.4l1 1.5.8.8c.3.6.8 1 1.3 1.4 0 .3 0 .6.2 1 0 .3.2.6.4 1-.2.5-.4 1-.3 2v.3c.3.7.7 1.2 1 1.6l.3.3.6 1h1c.4 0 .8.3 1.4.3a2.2 2.2 0 0 0 1.7-1c.2 0 .3 0 .4-.2l.6.2c.4.3 1.2.7 2.2.7l.7.2c.3 0 .7.3 1.2.3l.4.7h1c1 0 1.6 0 2.4.2l1.4.3h3.3V59l.5.4 1-.3 1.2-.2c.7 0 1.4 0 2.2-.4 1 0 1.5-.7 1.8-1l.5-.2.3-.7 1-1.3v-.2l.3-.4c0-.3.4-.7.6-1.3l.4-1.2V52l.4-.4v-2.8a2.5 2.5 0 0 0-.5-1.6l-.8-1.5v-1.2l-.7-.2v-.6l-1-.5a1.2 1.2 0 0 1-.6-.5l-.3-.5-.5-.3a1.2 1.2 0 0 1-.6-.6l-1.5-1-1.7-1-1-.4-.3-.2c-.3-.2-.7-.5-1.3-.7l-1.2-.3h-.3l-.2-.2a190.6 190.6 0 0 1-1.8-1l-.8-.2.7-.2 1.7-.2c1-.3 2.2-.4 3.3-.6l4-.6c1.8.2 3.7.3 5.6 0l.5.3h.3v.4l1.2.2h.8c1.4 0 2-.7 2.5-1v-.2l1-.3v-.7c.4-1.6-.4-2.4-.8-2.8m-58 17c0-.6-.2-1.2-.4-1.6V45l-.8-1.4c0-.6-.2-1.2-.6-1.8a6.5 6.5 0 0 1-.5-2l-.8-1.3h-.2a2.2 2.2 0 0 0-.2-.5l-1-1.2a3.3 3.3 0 0 0-.3-.6l-.5-.7-.4-.5-.3-1h-.2c-.2-.6-.5-1-1-1.2v-.3c-.3-.2-.4-.3-.4-.5l-.2-.6-.8-.4-1.6-1.5a3 3 0 0 0-.6-.5l-.6-.7-1.6-1-1.6-1a2.3 2.3 0 0 0-1-.5c-.3-.4-.8-.6-1-.7h-.3l-.2-.3h-.3c-.2-.2-.6-.5-1.2-.6a3 3 0 0 0-1-.4l-1.5-.6a3.4 3.4 0 0 0-1.5-.4 3.2 3.2 0 0 0-.7-.2 2.6 2.6 0 0 0-1-.3h-.7a2.8 2.8 0 0 0-1.3-.4c-.3 0-.5.2-.8.3h-1.5l-2.2.4-1 .3v.2c-.6.2-1 .6-1.3 1l-1 .5-1.2 1.2c-.2 0-.5.3-.7.6a2.4 2.4 0 0 0-.3.4l-1 2v2.4l-.2.4c0 1.2 0 2.2.3 3 0 1 .3 1.7.2 2.6v.2c0 1 .3 1.4.5 1.8l.2.7v.8l.4.7c.2.4.2.6.2 1v.5l.4.5.4 1 .3.7a2.7 2.7 0 0 0 .4 1l.7 1.5c0 .4.2.8.3 1 0 .4.2.5 0 .8l.7 2 .3 1c-.3.6-.5 1.3-.4 2.3 0 1.5 1 2.2 1.4 2.5.6 1.3 1.6 1.8 2.3 2v.2l2.5.8c1.2 0 1.7-.3 2.3-.8l.2-.2.4-.2.2-.2 1-1 .2-1.2c0-1.6-.4-2.8-.8-3.7l-.4-1.5V51l-.3-.2V50v-.5l-.5-1.5v-1h-.6v-.4c0-1-.2-1.6-.6-2a2.2 2.2 0 0 0-.2-.4c0-.7-.2-1.2-.5-1.5a2.3 2.3 0 0 0-.3-.5c0-.6-.2-1-.4-1.4a2.6 2.6 0 0 0-.4-1 2.7 2.7 0 0 0-.4-1c0-1-.3-2-.5-2.7 0-.2 0-.5-.2-.8V34v-2.3c.8 0 1.3-.2 1.7-.4h1.2c.4.4 1 .6 1.8.6.3 0 .6 0 1 .2l.8.3s.3 0 .4.2l.5.3.2.2 1 .8h.2c.3.5.7 1 1.5 1.2.5.5 1 .7 1.3.8l1 1c.2.6.6 1 1 1.2l1 1 .4.5c.3.5.5 1 1 1.4 0 .3.2.5.3.6l.7 1v.2l.7 1.5.2.5 1 1.5v.5l.5 1c0 .7.2 1.5.5 2.2 0 .7 0 1.5.4 2.2.2 2.6 2.3 3.4 3 3.7h1.3c1.2 0 2-.7 2.3-1l.2-.2h.3l.2-.3a2.2 2.2 0 0 0 .5-.7l.6-1.4-.3-4.8zM143.7 57c0-.8-.5-1.3-.7-1.6l-.3-.3V55l-.2-.3h-.2l-.2-.4-.3.2h-.2c-.7-.4-1.7-.5-2.7-.5-.7 0-1.4 0-2 .3-.8-.3-1.8-.6-3.2-.5h-.2c-.4-.3-1-.6-2-.6l-1.3-.7-1.7-.3c-.5 0-.8 0-1.3-.3h-.3c-.6-.4-1.3-.6-2-.7a13.3 13.3 0 0 1-.4 0 2.6 2.6 0 0 0-.4-.2c-.4-.4-.8-1-1.5-1.2-.3-.2-.7-.6-1.5-.7a2.3 2.3 0 0 0-.6-.3c-.3-.3-.8-1-1.8-1a4.7 4.7 0 0 0-1-1 2 2 0 0 0-.8-.5 1.7 1.7 0 0 0-.3-.2c-.2-.3-.5-.6-1-.7l-1-1-.8-.5a6 6 0 0 1-.5-.3v-.2c.2 0 .4 0 .7-.2a1.7 1.7 0 0 1 .5 0h.4c.3 0 .8 0 1.6-.3h.3l1.2.3H120c1 .3 2 .4 3.2.3l.4.2c.4.2 1 .6 1.8.7h.3c.6.3 1.4.6 2.5.6l.8.4s.2 0 .3.2l.2.3 1 .3c1 .3 2.3.4 3.7.3l1-.2h.2l1-.2.3-.7 1-1v-1c.3-1 0-1.6-.2-2l-.8-2a3 3 0 0 0-.3-.4v-.8l-1-.5c-1-.5-2.4-1.2-4-1.6l-1.5-.6-1.2-.3c-.3-.2-.7-.3-1.3-.3a6 6 0 0 0-.7-.3h-.3l-.2-.6-.8-.2c-.4 0-.7-.2-1-.3-.4 0-1-.2-1-.3-.4-.2-.7-.4-1-1.2l-.2-.3a2 2 0 0 0-.8-.6l-.7-.8-.4-.2a1.7 1.7 0 0 0-.5-.2h-.2a18.7 18.7 0 0 0-.7-1l-.5-.7h3l4.2.6 1.3.2h.3c.4.2 1 .6 2.2.6h.5c.4.3 1 .5 1.8.4l.4.2.4.4 1.8 1 .2.2c.4.5 1 .7 2 .7.5 0 1-.2 1.5-.5.3 0 .7-.3 1-.6.6-.8.5-1.7.4-2.2v-.4l-1-3.5c-.3-.8-.8-1-1.3-1.2l-.3-.3-1.3-1c-.4 0-.8-.2-1.3-.4-.6 0-1-.2-1.7-.3-.4-.2-.8-.4-1.5-.4a2.4 2.4 0 0 0-1-.6l-1.8-.7h-1c-.6-.2-1-.3-1.8-.3l-1.4-.2h-.7l-.7-.4-.5.2h-1c-.5-.3-1.3-.5-2.3-.3l-.4-.3c-.3 0-1-.4-1.8-.4a6.2 6.2 0 0 0-.4 0c-1.2 0-2.2.3-3 .5-.6 0-1 .2-1.6.3h-.2c-.6 0-1 .3-1.5.5-.5 0-.8.2-1 .4-.8 0-1.3.6-1.5 1l-1.2 1h-.2v4.3c.2 1.2.7 1.8 1 2.3l.2.6.7 1.5.5.2h.2l1 1.5c.2 0 .4.3.6.5l1.3 1.2h.2-.2c-.6 0-1.3.2-2 .4l-1.2.3-1 .5-.8.2v.2a3.5 3.5 0 0 0-1.2.6L103 38l-.8.3-.3 1v1l-.6 2-.3.5.2.5c.2 1 .6 2 1 2.6l.5 1.2v.7l.8.4c.5.2.8.5 1 1l.4.4.4.2c.3 0 .6.3 1 .4l.5.3c.2.4.5.7.7.8l.2.2v.6l1 .5.6.2 1.5 1c.3 0 .4.2.8.4.2 0 .4 0 .7.2l.4.3v.3l1 .3c0 .2.2.3.4.5l.8.4.8.4 1 .3v.2l.4.2.7.5 2 .6c.4.3.8.5 1.3.6h.3l1.6 1c.4 0 .8 0 1.3.3l1 .4 1.4.8c1.4 0 2.8.4 4.2.8l1 .2 1.5.8a8.8 8.8 0 0 0 3-.3c.8.3 1.4.2 2 .2H141v-.4h.8l.3-.4c.4-.2.6-.5.7-.8.2 0 .5-.3.7-.6l.6-1v-.5l.2-.2V59c.4-1 0-1.7-.3-2m311-34.8c0 .4-.5.2-.4.6l.2.2c0 .2-.3.2-.2.4 0 .3.3.2.3.4-.5 0-.3.4-.8.3 0 .4-.7.2-.7.5.2.4.5.7.4 1.2 0 .3-.8 0-.7.6 0 .3.5.2.4.5v.7c0 .3 1 .2.6.8 0 .3-.6 0-.7.4 0 .2-.6 0-.6.3 0 0 .2 0 .2.2v.5c.5 0 .2.4.3.6.4 0 .2.3.8.2 0 .4-.2.6-.4.8l.6.2c.2 0 0 .3.3.4-.2 0-.2 0-.2.2.4 0 .3.3.3.5-.2.4-.7.5-1 1-.3 0-1 .2-1 .5.2 0 0 .2 0 .3 0 .2 0 .2.3.3 0 0 0 .2.3.2 0 .2-.3.3-.3.5 0 0 .2 0 0 0v.4s-.3.2-.3.5c0 .2.4.3.3.7 0 .4-.2.7-.5 1h-1c0 .5.8 0 .7.4-.3 0-.5 0-.5.2-.3 0-.5 0-.5.2 0 .4-.2.7-.3 1 0 .2.3.3.3.4h.4c0 .2.3 0 .3.2-.2 0-.3.2-.7.2 0-.2-.3-.3-.7-.3 0 0 0 .2 0 0l-.5.4s.5 0 .5.3c0 0-.2 0 0 0v.6s-.2 0-.3.3c0 .2-.5 0-.3.4l-.2.2s.2 0 .2.3c-.2 0-.2.2-.2.3v.5a.6.6 0 0 0-.2.7l-.2.6c.3 0 .3 0 .3.2h.4c.2 0 .5 0 .5.2h-.4v.2c-.2 0-.4.2-.3.4-.4 0-.7 0-.7.2s0 .4.2.5c.3.2.3.3.2.4l-.6.2c-.2 0-.3-.3-.5 0 0 0 0 .3.5.3 0-.5.3 0 .7 0 .5-.2.5-.8 1.5-.7.2.2.3.4.2.6h-.5v.7h-.3v.2h-.2c-.3.2-.4 0-.8 0-.2.3-.6.4-1.2.4-.2 0-.2.4-.6.4 0 .3-.6 0-.5.5 0 .2.3.4.6.5.3 0 .4-.2.7 0h.9c0 .4.2.5 0 1h.3c.2 0 .3.2.4.4-.3 0-.3 0-.3.2v.3c-.3 0-.4.2-.5.4-.4 0-.8 0-1 .2 0 .4-.4.6-.4 1h.7c0 .4.3.6.2 1 0 .2.6.2.5.5-.2 0-.5.2-1 0 0 .2 0 0-.2 0 0 0-.2.2-.2 0v.4c0 .2.2.2.4.2h.3c0 .5-.3.5-.2 1 .4 0 .3.3 1 .2l.2-.4c-.2 0-.6 0-.5-.2 0-.3.3-.5.7-.5 0 .2 0 .4-.2.5h.5s0 .2.2.2c0 0 0 .2.2.2v.8c0 .2-.5.2-.4.6v.2c0 .3.4.3.4.5s0 .2.2.2v.4c.4-.3.8-.2.8-.5l-.3-.2V59c.5 0 1 0 1 .5.2 0 0 .3 0 .4 0 .2-.2.2-.2.3v.3h-.2v.3h-.2l-.2 1.3h.6V63.5c0 .2-.3 0-.4.3l.2.2h-.2c-.4 0-.2.4-.5.5 0-.2-.4-.2-.6-.2l-.2.4s-.3 0-.3.2c0 0 0 .3.2.5-.2.2-.8 0-1 .2-.3 0-.5.3-.7.5.5 0 0 .4 0 .4v.7h-1s-.2 0-.2-.2h-.5v.7c-.5 0 .2.2 0 .4l-.6.4h-.4l-.3.2c0 .2.7.3.2.4h-.4c0 .2 0 .3-.2.3 0 0 .2-.3 0-.3-.3 0-.4 0-.5.3-.4 0-.4-.2-1 0 .2.3-.2.4 0 .8 0 0 .2.2 0 .3h.8v.3h.3c.3 0 .2.4.2.5 0 .3-.5.2-.5.4-.3 0-.4 0-.5.2.5 0-.2.4 0 .7.4 0 .4-.2 1 0h.5c0 .4-.3.4 0 .7l-.6.2v.6c.2 0 .3-.2.6 0 0 0 .3 0 .4.2 0 .2 0 .3.3.4h.7c0 .2 0 .5-.2.6-.4 0-.2.5-.5.6.3 0 .2.3.4.4.2 0 .3 0 .3.3 0 0 0 .2-.3 0 0 .3-.2.3-.2.5 0 0 .2 0 .2.3v.2c.3 0 .3 0 .3.3-.3.3-1 .4-1.7.4v.2l-.3.2c-.2 0-.7 0-.7.2 0 .3-.3.4 0 .7-.3 0-.3 0-.3.2 0 0-.3 0-.4.2v.4c-.4.2-1 .2-.8.6-.3 0-.6 0-.5.2-1 0-1.5.3-2.5.2l-.4.2s-.2 0-.2.2l-1.2-.2s-.3 0-.5.2h-.7c0-.2-.7 0-1-.2H434.2h-.5v.3h-.3c-.6.2-.6 0-1.2 0h-.6c0-.2-.3 0-.4-.2-.2 0-.2-.2-.5 0h-2.5-.4c-.2 0-.2.2-.5.2-.2 0-.6 0-.8-.2h-.2s-.3 0-.3.2h-.8c-.6 0-.4-.3-1-.2-.2 0 0 .3-.6.2h-.5-.4-.3c0-.2-.2-.2-.4-.2-.5 0-.4-.2-1 0-.3-.2-.3 0-.7 0-.4 0-.3.4-1 .3l-.6-.2a1 1 0 0 0-.5 0h-.3-.6c-.4 0-.3.3-.8.2-.2-.2-.3-.3-.7-.3h-1.6c-.4 0-1 0-1.2.2 0-.2-.6 0-1 0h-.5c-.3 0-.7 0-1-.2-.4.3-1 0-1.6 0l-1 .2h-1l-1-.2h-1.4l-1 .2h-.4s-.3 0-.3-.2h-.6-1.5l-.8.2c-.2 0-.3-.2-.7 0-.5-.2-.3.2-.8 0-.4 0-.2-.2-.7 0h-1c-.2 0-.2.2-.5 0h-1.7-.7c-.4 0-.3.2-.7 0h-3.1c0-.2-.2-.2-.3-.2-.4 0-.3.3-.8.2-.4-.2-1.4 0-1.8 0h-.5c-.3 0-.4-.3-.6-.2-.7 0-.8-.2-1.4 0h-2.5c-.3 0 0 .4-.5.3-.3 0-.2.3-.7.3 0-.3-.2-.3-.5-.3 0 0 .2-.6-.2-.5h-4c-.7-.2-1.4 0-2.2 0-.2 0-.4 0-.7.2 0-.2-.4 0-.6 0h-1c-.4-.3-1-.2-1.5-.2-.3 0-.8 0-1.2.2-.2 0-.3-.2-.6 0h-1.5c-.2 0-.3 0-.4.2-.5 0-.4-.3-1-.2-.5 0-.4.2-.8 0-.4 0-.4-.3-1-.2H362.5 358h-1.8c-.2 0-.6 0-.7.2-.5 0-.3-.3-.8-.2l-.2.2h-.3-.7c-.4 0-.5-.3-1-.2 0 0-.2.6.2.5 0 .2.2.2.2.3h-.7c0-.3 0-.4-.2-.5-.2 0-.2-.2-.3-.2l-.4-.2c-.6 0-1 0-1.3.2-.2 0-.3-.2-.5 0h-.7c-.4 0-.3-.3-.6-.3 0 .3-.8 0-.7.2-.4 0-.5-.2-1 0h-.5-.5-.3-.5c-.5 0-.3.2-.8 0h-.7c-.2 0-.2 0-.3.2l-1-.2h-.2c0 .2 0 .2-.3.2l-1-.2h-.7c-.3 0-.2-.2-.7 0 0 0 .2 0 .2.2.3 0 0 .3 0 .3-.2.2-.7.2-1.2.2l-.5-.4c-.3 0-.2-.3-.7-.2-.6 0-1 .2-1.5 0-.4.2-.3.5-1 .3-.2 0-.3-.2-.2-.3 0-.2-.3-.3-.6-.3s-.2.4-.8.3c-.8-.2-2 0-2.8 0l-1-.4h-.5s-.2-.2-.2 0c-.5 0-.5-.3-1-.2 0 .3-.8 0-.5.4-.5 0-.8-.3-1.4-.3H323c-.4 0-.2.4-.7.3h-1.5-.5c-.6 0-.7-.2-1-.2l-.6.2c0-.2-.2-.2-.5 0H316c-.3 0-.4-.3-.7-.3h-.6l-.7.2c-.3 0-.5-.4-1-.4h-1c-.2.2-.2 0-.4 0s-.2.2-.5 0h-.4-.3c-.3.2-.4 0-.7 0-.2.3-1 0-1 0-.3.2-.3.5-.8.4-.3 0-.2-.4-.6-.4h-1.6c0 .3-.2.4-.5.4h-.6c0-.2 0-.3-.4-.3-.2 0-.4 0-.4.2h-1c-.3 0-.2-.3-.7-.3-.6 0-1.2 0-1.5-.2-.2 0-.3.2-.7 0-.3.2-.4 0-.7 0 0 0-.3.2-.7 0-.5.2-.4 0-.8 0 0 .2-.4 0-.7 0h-1c-.2 0-.2.3-.5.3h-.4c-.3 0-.4 0-.6-.2l-.6.3h-.5l-.7-.2h-2-.6c-.6 0-1 .2-2 0l-.6.4c0-.2-.3-.2-.5 0l-.7-.4c0 .4-.3 0-.6 0h-1.2-1.2c-.2 0-.3 0-.3.2-.3 0-.6 0-.7.2 0 0 0-.2-.2 0v-.4h-2.1c-.6.2-.4-.2-1 0h-1.8l-1.4-.2c-.6 0-.7.2-1.3 0-.2 0-.2.2-.3.3-.4 0-.4-.3-1-.2 0 .4-.2 0-.5 0s-.3.2-.7 0c-.3.2-.4 0-.7 0-.3 0-.3.2-.6 0h-2.9-1.7-.6c-.3-.2-.5.3-.7 0h-.8c-.5.2-.5 0-1 0h-1.8-.3c-.5.2-.5 0-1 0-.3 0-.3.4-.8.2-.4 0-.4-.3-1-.3v.2h-.3c-.7 0-.6.3-1.2.2-.2 0 0-.4-.3-.4s-.4.2-.7 0h-.5c-.2 0-.3.2-.7 0h-.2-1.3-.8-1.9-.5c-.3 0-.3.2-.6 0h-.8-.8-2.4s-.3 0-.5.3h-.7c-.2 0-.3-.3-.5-.3s-.3.2-.7 0c-.2 0 0-.2-.5 0-.3.2-.5 0-1 0-.3 0-.3.2-.5 0h-1.2c-.4 0-.2.4-.7.4 0 0 0-.2-.4-.2h-1-.5-1.3c0 .2-.6 0-.8 0h-1c0 .2-.2.2-.5 0-.2 0-.2.3-.4.3-.3 0 0-.3-.5-.3-.4.2-1.3 0-2 0 0 .6-.6.6-1 .7-.4 0-.3-.6-.7-.6l-.2.7c0 .3.7.6.4.8h-.2s-.2 0 0 0h-.5s-.2 0-.2-.2c0 0 0 .2-.4.2 0-.4.6-.2.6-.6l-.5-.2c-.2-.2.5-.4 0-.5a1 1 0 0 1-.6-.2s0 .2-.4.3c0 0-.2-.2-.5-.2 0 .2-.2.2-.4.3-.3 0-.5 0-.6.3v.6c-.2-.4-.6-.4-.7-.6 0 0-.2 0-.2-.2.3 0 .2-.2 0-.3h-.7l-1-.3-.6.2c0-.4-.3 0-.6 0-.4 0-.5-.3-1-.2-.2 0 0 .3-.3.4 0 0-.2 0 0 0 0 .2-.2.2-.4.2h-.5c0-.2-.3 0-.4-.2-.4 0-.4-.4-1-.4.2.3-.8 0-.7.3-.4 0-.4-.2-1 0 0 .3-.2-.2-.5 0h-.5-.2v.3h-.6c-.4 0-.3-.2-.5-.2l-1.2.2c-.4 0-.5-.2-.8-.3h-.5-1.9c-.4 0-.7 0-1 .2h-.2c0-.2-.2-.3-.4-.3h-2c-.6 0-.3.3-.8.2-.4 0-.4-.4-1-.4h-3l-1.3-.2c-.6 0-.4.4-1 .3l-.4-.2h-.2c0 .2-.2 0-.3 0h-2.8c-.4 0-.4.2-1 0h-1.4c-.5-.2-.3.2-.8 0h-3c-.4 0-.2.3-.7.2H186l-.4-.2c0 .2-.2 0-.3.2h-.6c-.7 0-1.2 0-1.8-.2-.5 0-1.2 0-1.7.2H178c-.4-.3-1-.3-1.7-.3h-.3c0 .2 0 .3-.3.2 0 .2 0 .4-.3.4l-.2-.4s.2 0 0-.2h-.2v.2h-.7s0 .2-.4.2c0 0-.3 0-.2.3 0 .2-.3 0-.3.2-1 0 .3-.4-.3-.5-.4 0-.5 0-.4.3 0 0-.2 0 0 0 0 .3.2.3.2.5-.3 0-.3.3-.8.2h-.5l.6-.7h-.6c-.2 0-.2-.3-.3-.3-.4 0-.3.4-.8.3-.4 0-.4-.3-.8-.3h-.6s0-.3-.2-.3c-.3 0-.4 0-.6-.2h-.8c-.5 0-.3.3-.8.2-.2-.2-.5-.3-1-.3 0 0-.2 0-.2.2-.4 0-.4-.3-1-.2 0 .2 0 .3-.4.2-.3 0-.5.4-.6 0 .4 0 0-.3-.2-.3-1.3 0-2.4 0-3 .3l-.6-.2v.6c-.6 0-.7-.3-1.3-.2-.5-.2-.5 0-1 0 0 0-.2 0-.3-.2h-1.9v.2c-.2 0 0 .2-.3.2 0-.2-.4-.2-.7-.2 0-.3-.2-.4-.5-.4s-.3.2-.6 0c0 .2-.3 0-.6 0l-.3.4-1.2-.2c-.4.3-1 .3-1.6.2 0 0 .2 0 .2.2-.5 0-.5-.3-1-.4a1.2 1.2 0 0 1-.4 0c-.7 0-1.2-.2-1.7-.3h-.5-.7c0 .2 0 .3-.3.2l-.7-.2c-.2 0 0 0 0 0-.5.2-1 0-1.3 0 0 .2 0 .3-.3.2-.2 0-.3.2-.3.3-.7 0-.6-.5-1.3-.4.2.2.2.4 0 .5h-.3c-.5.2-.7 0-1 0 0-.3-.3-.2-.4-.3a1.2 1.2 0 0 1-.5-.2H137c-.3 0-.5 0-.7.2-.2-.2-.4-.3-.7-.3l-2.8-.2c-.4 0-.7.3-1.4.2 0 .3-.8.2-.8.4-.5 0-.5-.2-1 0h-.2-.5c-.3 0-.3-.3-.7-.4H127c0 .4.2.8-.4.7 0 0-.2 0-.2-.2 0 0-.2 0 0 0-.4-.4.7-.3 0-.5h-.5l-.4.2c-.5 0-.5.3-1 .2-.3 0 0 .4-.5.3h-.5c-.3 0 0 .2-.6 0h-.3c-.2 0-.2-.3-.4-.3-.6 0-.5-.3-1-.2v.2h.4c-.4 0-.2.4-.5.4 0-.2 0-.5-.4-.5-.7 0-1-.2-1.6-.3-.2 0-.2.2-.5.2 0 0-.2 0-.3.2H116h-.7-.7H113.4c-.2 0-.3.2-.7 0-.4 0-.6-.3-1.2-.2-.6 0-.7.3-1.3.3l-1-.2h-.4c-.2 0-.5 0-.5.2-.6 0-1.4 0-2-.2-.6 0-.5.2-1 0h-1c0-.2 0 0 0 0h-.4v.2h-.7c-.5 0-1.4 0-2-.2h-.7c-.5.2-.5 0-1 0 0 0 0 .4-.3.3-.5 0-.4-.5-1-.4h-.6l-.2.2h-.3c-.2 0-.5 0-.5.2H96s0 .5-.7.4c-.2-.3.4-.4 0-.5h-1c-.4 0-.8 0-1-.2 0 0-.2.2-.5.2h-2H89.6 88c0 .2 0 .3-.4 0 0 .3-.3.2-.4.3 0 .2-.2.3-.5.3h-1.2c-.2 0 0 .2-.3.2 0 0 0-.3-.2-.4-.2 0-.2.2 0 .4-.4 0-.4.2-.6.2-.2 0-.2-.4-.6-.4-.2-.3.7-.4 0-.6H82.6s0-.2-.2 0H82c0 .4.4.5.5.7.4 0 .2.6 0 .7-.8 0-.8-1-1.6-1-.7 0-1.6 0-2-.2-.2 0-.4.2-.4.3-.5 0-.4.2-.8.2-.4-.2.2-.4-.6-.4 0 .2.5.2.4.5h-.8-.4s0-.3-.2-.3c0 0 0 .2-.2 0h-.3l-1-.2h-1-.2c-.2 0-.4 0-.3.2-.5 0-.4-.3-1-.2h-.6-2.3c-.2-.2-.8 0-1-.2 0 .2-.3.3-.6.4-.2 0-.2-.4-.6-.3-1 0-1.4.2-2.3 0 0 .3-.6.2-.5.4-.4 0-.3.3-.8.2-.3-.3-.3-.8-.8-.8h-.8c-.5 0-.4.2-1 .2a1.2 1.2 0 0 1-.4 0c-.3 0-.6 0-.6.2a5.5 5.5 0 0 0-1.5 0h-.7l-.4.2s0-.2-.4-.2c0 0-.2 0 0 .2H56v-.4c-.4 0-.4-.2-.7 0 0-.3 0-.5-.2-.5-.4 0-.6-.3-1-.2 0 0-.4 0-.4-.2-.4 0-.5-.2-.7-.3l-.8.2-.3-1.2c-.2-.2-.8 0-1-.2-.6.2-.6-.2-1-.2-.4-.2.3-.4-.2-.5-.3.2-1 0-1.5 0 0 0-.2-.3 0-.4l.2-.2h.3c-.4 0-.2-.6 0-.7-.5 0-1 0-1.4-.2h-1c-.3-.6.3-.5.2-.8-.3 0-.3.3-.8.2-.2 0-.3-.4-.6-.5H45c-.2 0-.5 0-.5-.2.2 0 .2 0 .3-.2h.4l.6-.6c0-.3-.5-.2-.5-.6.4.2.2-.2.5-.2s.2-.3.4-.5c0-.3-.2-.5-.4-.8 0-.2.5 0 .5-.3-.2-.4.2-.4 0-.8 0-.3-.7 0-.7-.5.2 0 .2-.2.2-.3 0 0 0-.2.3-.2 0-.4.4-.3.4-.6 0-.2 0-.3.2-.4 0-.3.3-.5 0-1 .3 0 .6-.2.5-.6.5 0 .7 0 .6-.4H47c0-.3-.2-.2-.3-.4 0-.2-.6-.2-.6-.6.2-.2.7 0 .7-.4 0 0 .2 0 .2-.2.2 0 .4 0 .4-.3-.2 0-.8 0-1-.3.4 0 .2-.3.7-.2 0-.3.6-.2.5-.4h1.1c0-.4-.3-.5-.3-1 .3 0 1 0 1-.4 0 0 0-.2.2-.3-.3 0-.2-.2-.3-.4.3 0 .3 0 .4-.2.3 0 .6 0 .5-.2-.2-.2-.4-.2-.7 0-.3 0-.4-.2-.5-.4.6 0 .6-.5 1.4-.6.3 0 .2-.3.8-.2 0 0 .2 0 .3-.2.2 0 .2 0 .3-.2v-.2h-.3c0-.2.2-.2.2-.3h.2c-.2-.3-.2-.7-.4-.8H51s-.2 0-.2.2c-.2 0-.3.2-.7 0l.4-.2.2-.5h.4s.3 0 .3-.2V58c.3 0 .5 0 .7-.2h.3c.2 0 .2-.3.3-.4H54V57c.6 0 1 0 1.2-.4v-.2c0-.5-.2-.6-.3-1V55h.3c0-.3.4-.3.2-.7 0-.3-1 0-1-.4.3-.3.5-.3.8 0 0-.4.4-.3.4-.6-.3 0-.3-.3-.3-.4.4 0 .3-.4.2-.7 0-.2.6 0 .4-.4a1 1 0 0 0-.6-.4H55a1.3 1.3 0 0 1-.6 0c-.2-.4.2-.4 0-.7.5-.2.8-.4 1-.7-.3-.4-1-.4-1-1 0-.3.3-.5.8-.6.7 0 .6-.5 1.4-.3 0 0 .2 0 .2-.2V48h.3v-.3l-1-1c.3 0 .5-.3.6 0h1c-.2-.3 0-.3 0-.5-.3 0-.3-.3-.3-.5.2 0 .2-.2.3 0h.7c0-.4 0-.5-.4-.6 0-.2-.7 0-.6-.4v-.3c0-.3 0-.3-.2-.5.2 0 .3-.2.3-.3-.2 0-.2-.3-.3-.4 0 0-.2-.2-.2-.5.3 0 .4-.3 1-.2 0-.2.2-.2.4-.2h.3c0-.3-.2-.3-.2-.5-.4 0-.6 0-.8-.3L57 41c-.3 0-.5-.2-.5-.5s.4 0 .7 0c.4 0 .7 0 .7-.2h-.5c0-.2-.2-.3-.4-.3-.3 0-.5-.2-.7-.4-.6 0-1.4-.2-1.3-.8h1.7l.7.2c.5 0 .4-.2 1 0 0 0 .3 0 .4-.2 0-.2-.2-.2-.3-.2 0-.2 0-.4-.2-.4-.3 0-.6-.2-.6-.5 0-.2 0-.2.3-.3h.4L58 37c-.4 0-.6-.2-.6-.5.2 0 .5-.2 1 0H59c-.2-.4 0-.6 0-.7h.3c0-.3.3-.2.3-.3.2 0 .5 0 .5-.2 1 0 1-.6.5-.5 0 0 0-.5-.3-.5h-.5s0-.3-.4-.2H59l-.5-.4h-.7V33c-.3 0-.8 0-.7-.4 0-.3 1 0 .7-.4h.7c.3 0 .6-.5.4-.5l-.5-.3-.4-.2c-.7 0-.6-.4-1.2-.2-.3-.3-.4-.7-1-.7v-.5c-.4 0-.7-.4-.8-.8.3 0 .5.2.5 0 0 0 .2 0 0-.3 0-.2.4-.2.4-.4h-.7c-.2-.3.5-.4.4-.7-.2 0-.3 0-.4-.2 0 0-.3 0-.4-.2h1c0 .4.6.3 1 .3.2-.4-.2-.4-.2-.8h.3c.2 0 .4 0 .4-.2l-1-.5c-.2-.3.2-.3 0-.6-.2 0-.6-.2-.7-.5 0-.3.5-.5.3-1 0-.2-1.2-1.6-1.2-1.8-.3 0-1-.3-1-.4H53s0-.2-.3-.3c-.2-.3.2-.3 0-.7-.5 0-.8-.2-1-.5-.2-.4.6-.2.5-.5-.5 0-.8-.3-1.3-.3h-.6a1.5 1.5 0 0 1-.7 0c0-.2-.2-.3-.3-.4 0 0 .2 0 0 0 .3 0 .5 0 .5-.2 0 0 .5 0 .7-.3v-.3h.2v-.3c0-.3 0-.4-.4-.5h-.2c0-.2 0-.3-.2-.3l-1-.2c0-.2-.2-.5.2-.5 0-.2 0-.5.2-.6-.2-.3-.3-.5-.8-.5V15c-.3 0-.5 0-.5-.3-.3 0-1 0-1-.4V14c0-.3.6 0 .6-.3l-.5-.2c0-.2-.3 0-.4-.3-.2 0-.7 0-.7-.4.2 0 .4-.2.5 0 .3 0 .2-.3.3-.4l.8.2c-.2-.4.3-.3.3-.5.2-.2-.2-.2-.2-.5.3 0 .6 0 .5-.2 0 0 0-.3-.4-.2l-.4-.3c.2 0 0 0 0-.2-.4 0-.4-.3-.8-.4h-.5s0-.3.6-.5h1l.7-.6v-.4H50c0-.2.3-.3.5-.3.4-.2.2-.5.6-.6l1-.3c.4 0 .7-.2 1-.3.4 0 .8 0 1-.2.4 0 .4-.3.6-.5.4 0 1-.3 1.3-.4 0-.2.3-.5.5-.6h1c.3 0 .3-.3.6-.4l1.5-.4c.4 0 .5-.3 1-.5.2 0 .8 0 1-.2L63 3h.6l1-.4s0-.2.2-.3c.2 0 .8 0 1-.2h.6l1-.5h.2c.4-.2 2 0 2.2 0H70.8c1-.2 2.2 0 2.7 0h2.3c-.2-.3.8 0 .6-.2.5 0 .6.2 1 0H84.8c1.5 0 3.2 0 4.4.2.6 0 1.4 0 1.8-.2H95c.7.2 1.2 0 1.8 0h5.2c.3 0 1 .2 1.5 0h1.2a4 4 0 0 1 1 0h.5c.2 0 0 0 0 0 .7-.2 1 .2 1.4 0h3.8c.2 0 .2-.2.5 0 .7 0 2-.3 2.6 0h.2c.2 0 0 0 0 0 .2-.2.5 0 .6 0 1-.2 2-.2 2.7 0H120.8a1.2 1.2 0 0 1 .6 0h.3c0-.2.3 0 .3-.3.6 0 .8-.2 1.5 0 .5-.2.4.2.7.2 0-.4.4 0 .7 0h.6c.3 0 1 0 1 .2.2-.2.3-.2.6-.2h2.5c.2 0 .2-.2.5-.2h.7c1 .2 2.4 0 3.6 0 .2.2.6.2 1 .2.6 0 .4-.4 1-.3 0 .2.6 0 .8 0h1.3l.5.2H143.5s.4 0 .4-.2c1 .3 2.4 0 3.7.2 0 0 .2 0 .3-.2h.3c.6-.2.6 0 1 0H162l.6.2c.3 0 .2-.4.8-.3h2c.7-.3 1 .2 1.5 0H171l.6.2c.4-.2.8-.2 1.4-.3h1.7c.2 0 .5 0 .8.2 0-.2.2-.2.5-.2 1.3 0 2.4.2 3.3 0l.8.2.2-.2h.5c.4.2 1 .2 1.3.3.3 0 .3-.4.8-.3l1 .2.4-.2v.2h.6l1-.3h3c.3 0 .4 0 .7.2 0-.2.3-.2.5-.2.7 0 1.7.2 2 0 .2 0 .5 0 .7.2 0-.2.4-.2.7-.2h2.8c.6 0 .3-.3 1-.2.2 0 0 .3.6.2h1.4c.3 0 .4 0 .7.2.2 0 .2-.2.5-.2.2 0 0 0 .2.2h.5l.6-.2c.3 0 1 .2 1 0 .4-.2.3.2.8.2 0-.2.4-.2.7-.2h1.5c2 0 4.3.2 6 0h2l.8-.2h2.5c.5.2.6.4 1 .4 0 0 0-.3.2-.3s.2-.2.5-.2c.8.2 2 0 3 0 .2.2.4.3.7.2h.5c.2 0 .5 0 .5-.2h.6c.2 0 0 0 0 0H227c.2 0 0 0 0 0h.7c0 .2.3 0 .5 0 .4.2.3 0 1 0h.6c1 .2 2 0 2.8 0 .3.2.6.3 1 .2l1-.2a6 6 0 0 1 1.5 0h2.2c.2 0 .5.2.5 0 .6 0 .5.4 1 .2.5 0 .8 0 .8-.2.5 0 .5.3 1 .4 0-.2.3 0 .6-.2l.6-.2c.2 0 .4.2.7 0h3.3c0-.2.5 0 .7 0h1.8c.8-.2 1.6 0 2.2 0H260.4c.3.2 1.2 0 1.8 0h13.1c.3 0 .3-.2.7-.2.3.2 1 0 1.4.2h1.8c.4 0 .2-.3.7-.2H290c.7 0 1.2.2 1.7 0h.7c0 .2.5 0 .7 0h1.7c.3.2 1 0 1.4.2h1.3c.4 0 .3.2.7 0 0-.2 1 0 1.2-.2H302.5c.4 0 .7.2 1 0h.7c.3 0 .4.2.8 0h1.1c0-.2.7 0 .8 0h.5c.3 0 .3.2.6 0h.6c.2.2.8 0 1 .2H314.2c.4 0 1 0 1.4-.2H320c.2 0 .7 0 1 .2.3 0 .5-.2.8-.3h.3c.2.2.4.2.7.2a22 22 0 0 1 3 0h2c.4 0 .3-.2.8 0h1.9c.2 0 .2-.2.5-.2h7.6c.4 0 .8 0 1 .2h4.7c.3 0 .4-.3.8-.2h2.5c.4-.2.3 0 .8 0h5c.4 0 .8 0 1 .2h1.1c.2 0 .2-.2.5-.2 1 0 2.8-.2 3.6 0h1.7c1 .2 2.3.2 3.3 0H370c.2 0 .2-.2.5 0 0-.2.2 0 .2 0H372.6c.3 0 .4-.2.7 0h2.5c.2-.2.3-.3.7-.2l1.2.2c.5 0 1 0 1.6-.2.4 0 .4.2 1 0h1.4l.6.2c.3-.2.7 0 1 0h1.4c.2 0 .2-.3.5-.2h2.5c.3 0 .2-.2.7-.2 0 .3.4.2.7.3h2c.3 0 .3.2.8 0h6.8l1 .2c.6-.2 1.5 0 2 0h.7c0 .3 0 .4.3.4 0-.2.3-.3.6-.4.4 0 .6 0 .7-.2.5 0 .4-.2.8 0 .6-.2.8 0 1.3 0 0-.2.5 0 .8 0a5.8 5.8 0 0 1 1.6 0c0-.3.4-.3.8-.4.6 0 .4.3 1 .3s1.2 0 1.7-.2c.4 0 .2.5.8.4 0 0 0-.2.3 0 0-.3.4-.3.6-.3h.7l.7.4h.6v.2c.5 0 .7-.3.8-.6.4 0 .6.4.7 0 .6 0 .7.2 1 .3.4-.3 1.3 0 2-.2.3.2.2.5.7.4.5 0 .5-.2 1 0h1.3l.5.2c0-.3.8 0 1 0 0 0 0-.2.4-.2h.6c.3 0 0 .5.7.4.5 0 .7-.2 1-.4.5 0 .8-.2 1.5 0 .2 0 .2.3 0 .6.6 0 .3.3.7.3V2h.5c0 .2 0 .2.2.2 0 0 0 .2.2.2 0 0 0 .2.2.2v.2c.4 0 .6.2.7.3l-.2.4c.3 0 .3.2.4.2h.7c0 .4.3.4.3.7.3 0 .2.2.4.2l.2.4c0 .2-.6 0-.5.4.3 0 .3.2.5 0 .4 0 .4.2.7.2l.4.2c0 .2 0 .4.3.4.2 0 .3.2.7.2 0 .2 0 .4.3.4 0 .4.2.4.2.7-.2.2-.3.3-.3.5 0 0-.3.2-.2.4l1 .7c.7 0 .6.4 1 .4 0 .2 0 .5.5.5s.5-.3 1-.2c0 .2.2.2 0 .4-.2 0 0 .2 0 .4.4 0 .4.3.6.5.3 0 .5 0 .4.3.2 0 .4.2.4.4 0 .3-.7 0-.6.4.4.2.2.7.6.7 0 .5 0 .6.2 1 .2 0 .2.2.5 0 0 .2 0 .3.2.3v.2h.8s0 .3.4.2c0 .2.3 0 .6 0 0 .3 0 .4.3.5 0 0 .2.2.5.2h1.2c0 .2 0 .3.3.3h.4c0 .3 0 .7.3 1H447c0 .3.3.4.7.3 0 .2 0 .3.3.4 0 .2.3.3.4.4-.3 0-.3.2-.6.3 0 0-.8-.2-.5.2h.4c0 .3.2.3.3.4 0 .2.5.2.7.3 0-.3.5-.4 1-.4.2 0 0 .3.6.2h.7c.2.2.4.5 1.2.4 0 .2 0 .3.3.4 0 0 .2 0 .2.2 0 0 0 .3.2.3.4 0 .4.4.8.4s.4.4.8.5c0 .3-.7.2-.5.7.2.2.7.2.6.5M232.2 45.5l1.6.8c.2.2.5.5 1 .6.2 0 .6.5 1 .6l.5 1 .3.2.3.6-.2.2-1.8.6h-.5l-1 .6-1.2-.7h-3.8a2 2 0 0 0-.6-.3 2 2 0 0 0-.5-.3 2.7 2.7 0 0 0-1.7-1 12.6 12.6 0 0 0-1.8-2l-.6-1-.5-1-.6-1.5-.3-1 .2-.8c.6.4 1 .7 1.8 1l.5.2h.4l1 .3 2 1.2c.3 0 .8.4 1.4.6h1.3c.2.2.6.5 1 .6.2 0 .3.2.5.3m53 0l-.3.7-.2.2a3.3 3.3 0 0 0-.8.4 2.5 2.5 0 0 0-1-.5H282.4a5.2 5.2 0 0 0-1.3-.3l-1.4-.6a2.7 2.7 0 0 0-1.2-.3h-3c-.3.2-.6.2-1 .2l-.2-.2c-.4-.5-1-1-1.7-1.3h-.6c-.2 0-.3 0-.6-.3l-1.2-.6-.2-.2-1.4-1a2 2 0 0 0-1.2-.5 2 2 0 0 0-1.2-.6h-.3l-.3-.2-.2-.2a2 2 0 0 0-.4-.6 2 2 0 0 0-.2-.4l-.8-1.2v-1l.3-.2v-.4l1.2-1c.3 0 .6-.2.8-.4h3.4v-.4h3.5c.6-.2 1 0 1.5 0a9.7 9.7 0 0 0 1.3.4h.2l1.6.7 1.3.6c.5 0 .7.2 1.2.5l1 .3c.4.5 1 .7 1.3 1l.8.4.2.2c.2.6.5 1 1 1.4v.2c0 .2 0 .5.2.6v.4c0 .2.2.4.4.6v1l.5 1.3c-.2.3-.4.8-.4 1.6m51.4-2h-.7l-.8.4-1.4.5-1.4 1h-.4c-1 0-2.3 0-3.4.2-1 0-2 .2-3 0a3.7 3.7 0 0 1-.4 0l-1.5-.2a3.2 3.2 0 0 0-.6-.3l-.3-.3h-.3a2.5 2.5 0 0 0-.8-.7l-.4-.3c-.2-.3-.5-.5-1-.7 0-.4-.2-.7-.4-1a2.7 2.7 0 0 0-.3-.7l-.7-1.8a2.8 2.8 0 0 0 0-.5l-.4-.8h1l4-.2c.4 0 .7 0 1 .2 1 .2 2 .4 3.2.4l1 .2c.4.2.8.4 1.2.4l1 .2v.2l1.6.2.5.3h.4c0 .2.3.2.4.3h.2l.4.4h.7l.4.2h.2l1 1c.2 0 .3.2.4.4l-.6.8z" fill="#ffba00" fill-rule="evenodd"/></g></svg>