<svg xmlns="http://www.w3.org/2000/svg" xmlns:i="&amp;ns_ai;" viewBox="0 0 510.4 187.5"><style id="style1">.logo{fill-rule:evenodd;clip-rule:evenodd;fill:#fff}</style><g i:extraneous="self"><path class="logo" d="M336.3 144v-.2h-.6l-.8-.3-1.4-.5-1.5-1h-.2c-1 0-2.4 0-3.5-.2l-3-.2h-.3c-.4.2-.8.4-1.5.4l-.6.3-.3.2h-.3c-.2.2-.5.5-1 .6 0 .2 0 .3-.3.4 0 .2-.4.5-.8.7l-.5 1-.4.8-.7 1.7v.5l-.4.8h6c1-.3 2-.5 3.2-.5.3-.2.6-.3 1-.3.3-.2.7-.3 1.2-.3l1-.2 1.5-.3.6-.2h.5c.2-.2.3-.3.5-.3h.2l.4-.5h.8l.4-.2 1.2-.8c0-.2.2-.4.3-.5 0-.2 0-.4-.4-.8zm-51.2-2c0-.3 0-.5-.2-.6v-.3c-.4 0-.7-.2-.8-.3l-1 .5H282.4c-.3.2-.7.3-1.3.3l-1.4.6c-.3.2-.7.4-1.2.4h-4.2c-.4.5-1 1-1.7 1.4h-.6c-.2 0-.3 0-.6.3s-.7.5-1.2.7l-.2.2-1.5 1c-.3.2-.7.5-1.2.5-.3.3-.7.5-1.2.6v.2h-.3l-.2.3c0 .3-.3.5-.4.6 0 .2 0 .3-.2.5l-.8 1.2v1l.3.2v.3l1.2 1 .8.4h3.4v.4h1l1 .2h1.5c.5 0 1 0 1.5-.2l1.3-.3 1.7-.7 1.4-.6c.4 0 .7 0 1-.3.4 0 .7-.2 1-.3.5-.5 1-.7 1.4-.8l.8-.7.2-.2c.2-.5.5-1 1-1.4v-.2l.2-.6v-.4l.4-.6v-1l.4-1.3c0-.3-.3-.8-.3-1.6zm-52.8 0l1.6-.8c.2-.2.6-.5 1-.6.2-.3.6-.6 1-.8l.5-1 .3-.2c0-.2.2-.4.4-.6v-.2l-2-.6-.4-.2-1-.4-1.2.7-.4.2h-3.3l-.6.2-.4.3c-.4.5-1 1-1.8 1l-1.8 2c-.2.5-.4 1-.6 1l-.5 1-.6 1.5-.2.8v.8h.2l1.6-.8.6-.2h.4l1-.3 2-1.2c.4-.2.8-.5 1.5-.7H230.4l.3-.2 1-.5c0 .2.2 0 .4 0zm222.4 23.3c0-.4-.5-.2-.3-.6l.2-.2c0-.2-.2-.2-.2-.3 0-.3.3-.2.3-.5-.5 0-.3-.3-1-.2 0-.3-.6-.2-.6-.5 0-.4.4-.7.3-1.2 0-.3-.8 0-.7-.6 0-.4.5-.2.4-.6-.2 0-.2-.4-.2-.7.2-.4 1-.3.7-1 0-.2-.7 0-.7-.2 0-.3-.5 0-.5-.3 0 0 .2 0 .2-.2v-.5c.6 0 .3-.4.3-.6.5 0 .3-.3 1-.2 0-.4-.3-.5-.4-.8l.5-.2.2-.3c-.2 0-.2-.2-.2-.3.3 0 .2-.3.2-.5-.2-.5-.7-.6-1-1-.3-.2-1-.2-1-.6.2 0 0-.3 0-.3h.2c0-.2 0-.4.3-.3l-.2-.5s.2 0 0 0v-.4c0-.2-.4-.3-.3-.6 0-.2.4-.3.4-.7 0-.4-.2-.8-.5-1h-1c0-.4 1 0 .8-.3-.2 0-.4 0-.3-.2h-.2s-.3 0-.3-.2c0-.4-.3-.7-.3-1 0-.2.3-.2.3-.3h.3s.3 0 .3-.2c-.2 0-.3-.2-.7 0 0 0-.4.2-.8 0h-.2l-.3-.2s.5 0 .5-.4c0 0-.2 0 0 0v-.6c0-.2-.3-.2-.3-.3 0-.2-.6 0-.4-.5l-.2-.2.2-.3c-.2 0-.2-.2-.2-.3v-.5l-.2-.7-.2-.6s.2 0 .2-.2h.3c.2 0 .5 0 .5-.2h-.3s0-.2-.2-.2c0 0-.2 0-.2-.4-.4 0-.6 0-.7-.2 0-.2 0-.4.2-.5.4-.2.4-.3.2-.4-.2 0-.2-.2-.5 0h-.5c0-.3 0-.5.3-.4 0 .3.4 0 .7 0 .6 0 .6.7 1.5.6.2-.2.3-.4.2-.6h-.3c0-.2 0-.3-.2-.3l.2-.6h-.4v-.3h-1c0-.2-.4-.3-1-.2-.3-.2-.3-.4-.6-.5 0-.2-.7 0-.5-.5 0-.2.3-.4.6-.5h1.5c.2-.4.4-.5.3-1h.2c.2 0 .3-.2.3-.3 0 0-.2 0-.2-.2v-.3c-.2 0-.4-.2-.5-.3h-1c0-.6-.3-.7-.2-1 .3 0 .5 0 .7-.2 0-.3.3-.4.2-.8 0-.3.6-.2.5-.6-.2 0-.5-.2-1 0h-.2s-.2-.2-.2 0v-.3h.3c.3 0 .3-.2.4-.2 0-.3-.3-.3-.2-.7.4 0 .3-.4 1-.3 0 .2 0 .3.2.5-.3 0-.6 0-.5.2 0 .3 0 .4.6.5 0-.2 0-.4-.2-.5h.5v-.2s0-.2.3-.2v-.8c0-.2-.5-.2-.3-.6v-.3c0-.3.3-.2.3-.5 0-.2.2-.2.2-.2s0-.3.2-.3.6 0 .7.3l-.3.2v.3c.6 0 1 0 1-.6.2 0 0-.3 0-.4v-.2s-.2 0-.3-.2v-.2h-.2v-.3l-.2-.2-.2-1.2h.6c0-.4 0-.5.2-.8-.2 0-.2-.2-.2-.3 0-.2-.3 0-.3-.2l.2-.2-.2-.2c-.4 0-.2-.3-.5-.3h-.5s-.2 0-.2-.2h-.2l.3-.7c0-.2-.7 0-1-.2-.2 0-.4-.2-.6-.4.4 0 0-.4 0-.5 0-.2 0-.5-.2-.6h-.8s-.2 0-.2.2h-.5v-.6c-.5 0 .2-.2 0-.5l-.7-.2h-.3c-.2 0-.2-.2-.3-.2 0 0 .7-.2.2-.2h-.3c0-.2 0-.3-.2-.3v.3c-.3 0-.5-.2-.6-.3-.4 0-.4.2-.8 0 0-.3-.3-.4-.2-.8 0 0 .2 0 .2-.2h.7v-.2h.3c.2 0 .2-.4.2-.6s-.5 0-.5-.2c-.3 0-.4 0-.5-.2.5 0-.2-.4 0-.7.4 0 .4.2.8 0h.7c0-.4-.3-.3-.2-.7 0-.3 0-.3-.4-.3v-.6c.2 0 .3.3.7.2 0-.2.3-.2.3-.3 0-.3 0-.4.3-.4h.6c0-.3 0-.6-.2-.7-.4 0-.3-.5-.5-.7 0 0 0-.3.2-.3s.3 0 .3-.3h-.3l-.2-.4.2-.3h.2l.2-.3c-.3-.3-1-.4-1.7-.5 0-.2-.2-.2-.3-.2l-.2-.2s-.7 0-.7-.2c0-.3-.3-.3-.2-.7l-.2-.3h-.3v-.6c-.3 0-.8 0-.8-.4-.3 0-.6 0-.5-.2-1 0-1.5-.3-2.5-.2h-.3c0-.3-.4-.2-.4-.3h-1.2-.5c-.5 0-.7 0-1-.2 0 .3-.5.2-.7.3H434h-.4v-.2h-.3c-.6-.2-.6 0-1.2 0h-.6c0 .2-.3 0-.3.2H428.2h-.2c-.2 0-.2-.2-.5-.2-.2 0-.6 0-.8.2h-.2s-.3 0-.3-.2h-.8c-.5 0-.3.3-.8.2-.3 0-.2-.3-.7-.2h-1-.3c0 .2 0 .2-.3.2s-.3.2-.7 0h-.8c-.4 0-.3-.4-.8-.3l-.7.2-.5-.2h-.3c0 .2-.3.2-.5.2-.4 0-.3-.4-.8-.3-.3.2-.4.4-.8.3h-1.5l-1.2-.2c0 .2-.6 0-.8 0h-.7c-.2 0-.6 0-.8.2-.5-.3-1 0-1.7 0l-1-.2h-1.2l-1 .2H405l-1-.2h-.3c0 .2-.3 0-.3.2h-.5-2c-.3 0-.4-.3-.8-.2-.2 0-.3.2-.7 0-.5.2-.3-.2-.8 0-.3 0-.2.2-.7 0 0-.2-.7 0-1 0h-2.2-.7c-.4 0-.3-.2-.7 0-.6.2-2 0-2.7 0h-.3l-.3.2c-.3 0-.2-.3-.7-.2-.4.2-1.4 0-2 0h-.4l-.6.2h-3.9c-.3 0 0-.4-.5-.3-.3 0-.2-.3-.7-.2h-.5c0 .3.2.7-.2.7h-4.3c-.7.2-1.4 0-2.2 0l-.6-.2c0 .2-.4 0-.7 0h-1c-.2.3-1 .2-1.4.2-.3 0-.8 0-1.2-.2 0 0-.2.2-.6 0H367c-.3 0-.4 0-.4-.2-.5 0-.4.4-1 .2-.5 0-.4-.2-.8 0-.4 0-.3.3-1 .2H358 356.3c-.2 0-.6 0-.7-.2-.5 0-.3.3-1 .2v-.2h-.4-.6c-.4 0-.5.3-1 .2 0-.2-.2-.6.2-.6v-.2h-.4-.2c0 .3 0 .4-.2.4s-.2.2-.3.2l-.5.2H349c-.5-.2-.4 0-.7 0 0-.2-.8.2-.7 0h-1.9c-.2 0-.2-.2-.3-.2 0 .2-.4 0-.5.2-.3 0-.2-.3-.7-.2 0 0-.2.2-.6 0h-1.1-.3-1.4c-.4.2-.3 0-.7 0-.4 0-.3.3-.8.2l.2-.3c.3 0 0-.4 0-.4-.2-.2-.7 0-1.2 0h-.5c-.3 0-.2.4-.7.3-.8 0-1-.3-1.7-.2-.3 0-.3-.3-.8-.2h-.2l-.2.3-.4.2c-.3 0-.3-.3-.8-.2-.7.2-1.8 0-2.7 0-.2.2-.5.3-1 .3h-.4-.2c-.5 0-.5.2-1 0 0-.2-.8.2-.5-.2-.6 0-1 .4-1.5.3-.8 0-1.7-.2-2.7 0-.3 0-.2-.4-.7-.3H321.2h-.4-.5l-1 .2h-.4-3.2-1.4c-.5 0-.6.3-1 .2H311h-.4-1c-.2-.2-1 0-1 0-.3-.2-.3-.4-.8-.3-.3 0 0 .5-.5.4h-1.7c0-.3 0-.4-.5-.3h-.6c0 .2 0 .4-.4.3-.3 0-.4 0-.5-.2-.5.2-.4 0-.8 0s-.3.4-1 .3h-3.5c-.5 0-.5.2-1 0H295.2h-1.4-.5s-.2.2-.6 0c-.5.2-.6 0-1 0-.2 0-.5.2-1 0h-.6c-.6.2-1 0-2 0l-.7-.2c0 .2-.2.2-.4.2l-.5.2c0-.3-.3 0-.6 0h-1.2-1.2c-.2 0-.2 0-.3-.2h-.7-.2s0 .2-.2.2H280h-.4c-.5-.2-.4.2-1 0H277l-1.5.2c-.6 0-.7-.2-1.3 0-.2 0-.2-.2-.3-.3-.5 0-.5.2-1 0 0-.2-.3.2-.6 0H270.3c-.3 0-.8 0-1.2.2 0 0-.2-.2-.6 0-.5-.2-.5 0-1 0 0-.2-.3 0-.7 0H265c-.3 0-.5-.3-.7 0h-.3c-.2 0-.5 0-.5-.2-.4 0-.4.2-1 0h-1.8-.3c-.4 0-.4.2-1 0-.2 0-.2-.2-.7 0-.4 0-.4.3-1 .2v-.2h-.3c-.5 0-.5-.3-1-.2-.3 0 0 .4-.4.4h-1.2c-.2 0-.3-.2-.7 0h-1.6-.3-2-1-.9-.7-.8s-.5.2-.5 0h-1s-.3 0-.5-.2h-.5l-.5.3s-.3-.2-.7 0c-.3 0-.2.2-.7 0-.2-.2-.3 0-1 0h-1.6c-.3 0-.2-.4-.6-.3 0 0-.2.2-.5.2h-1-2c0-.2-.6 0-.8 0h-.8-.5l-.5-.2s-.2.4-.5.3c-.4-.2-1.4 0-2 0 0-.6-.6-.6-1-.7-.4 0-.2.6-.7.6l-.2-.7c0-.3.7-.6.4-.8h-.2s-.2-.2 0-.2h-.5v.3h-.6c-.2.4.6.2.6.6l-.5.2c-.2.2.5.4 0 .5h-1.2-.5-.6c-.3 0-.6-.2-.6-.3v-.3-.2c-.2.2-.6.2-.7.5v.4h-.9l-1 .2-.4-.2c-.2.3-.3 0-.7 0-.6 0-.6.2-1 0-.3 0-.3-.2-.4-.2h-.2l-.3-.2h-.4c0 .2-.3 0-.4.2-.4 0-.4.4-1 .3.2-.3-.8 0-.7-.2-.4 0-.4.2-1 0 0-.2-.3.2-.6 0h-.6v-.2h-.7c-.3 0 0 .3-.4.3s-.6-.2-1.2 0h-.8-.5-3.1-2.5c-.5.2-.3-.2-.8 0-.4 0-.4.3-1 .2h-.4c-.6 0-1.3.2-2 0h-.6c-.4 0-.8.3-1.4.2-.6 0-.4-.4-1-.3H197c-.4 0-1 .2-1.3 0h-.5c-.4.2-.7 0-1 0h-.8l-1.5.2c-.6 0-.4-.3-1-.2-.5 0-1.3 0-2 .2-.4 0-.5-.2-1 0-.3 0-.2-.4-.6-.3H186l-.4.2c0-.2-.3 0-.3-.2h-.7c-.6 0-1.2 0-1.7.2-.6 0-1.3 0-1.8-.2-.2 0-.4.2-.7 0H178c-.4.3-1 .4-1.7.3h-.3c0-.2 0-.2-.3-.2 0-.3 0-.4-.3-.5 0 0-.2 0-.2.2 0 0 .2.2 0 .2v-.2h-.8-.5c0-.2-.3-.3-.2-.4 0-.2-.3 0-.3-.2-1 0 .4.5-.3.6-.4 0-.5 0-.5-.3 0 0-.2-.2 0-.2l.2-.3c-.4 0-.4-.3-1-.2h-.4c.4.2.5.4.6.7h-.5c-.2 0-.2.3-.4.3-.4 0-.3-.4-.8-.3-.3 0-.4.3-.7.3h-.7v.2h-1.4c-.5.2-.3-.2-.8 0l-1 .2-.2-.2c-.4 0-.4.2-1 0h-.4c-.3 0-.5-.4-.7 0 .4 0 0 .3-.2.2-1.2 0-2.3 0-3-.3l-.5.2s-.2-.3 0-.6c-.7 0-.8.2-1.3.2h-1-.4c-.2 0-.4 0-.6.2H155v-.2l-.2-.2c0 .2-.4.2-.7.2 0 .3-.2.4-.6.3h-.5c0-.2-.4 0-.7 0-.2 0-.2-.2-.3-.3-.4 0-.7.2-1.2 0h-1.7s.2 0 .2-.2c-.5 0-.5.3-1 .3h-.4c-.6 0-1 .2-1.6.3h-1.1c0-.2-.2-.2-.4-.2h-.7c-.2 0 0 0 0 0H143h-.3c-.2 0-.2-.2-.3-.3-.6 0-.5.6-1.2.4v-.6h-.4c-.5-.2-.7 0-1 0 0 .3-.3.2-.4.3l-.5.2h-2.6-.7l-2.7.2c-.4 0-.8-.3-1.5-.2 0-.3-.7 0-.8-.3-.5-.2-.5 0-1 0 0 0 0-.2-.2-.2 0 .2-.4 0-.5 0-.2.2-.2.4-.6.5H127c0-.4.2-.8-.4-.7 0 0-.2 0-.2.2 0 0-.2 0 0 0-.4.4.7.3 0 .4h-.4-.3c-.5 0-.5-.4-1-.3-.3-.2 0-.5-.5-.4h-.5c-.3 0-.2-.2-.6 0-.3 0-.3.3-.5.3-.6-.2-.5.2-1 0 0 0 .2 0 .3-.2-.4 0 0-.3-.4-.3 0 .3 0 .6-.4.6-.7 0-1 .3-1.6.3h-.5c0-.3-.4-.2-.4-.3h-2.3H115.3h-1.8c-.2 0-.3-.2-.7 0-.5 0-.7.3-1.3.2-.6 0-.7-.3-1.3-.3h-3.9c-.6.2-.6 0-1 0-.3 0-.7 0-1 .2-.2 0 0 0 0 0l-.4-.2h-.2v-.2h-.3c-.5.2-1.4.2-2 .3h-.7c-.5 0-.5.2-1 0 0 0 0-.3-.3-.2-.5 0-.3.5-1 .5H98l-.2-.2h-1.5c-.2-.2 0-.6-.8-.5-.2.2.4.4 0 .5h-1c-.4 0-.8 0-1 .2 0 0-.2-.2-.5-.2h-3.2-1.5c-.2 0-.3-.2-.5 0 0-.3-.3-.2-.5-.3 0 0-.2-.2-.5-.2h-1.5s0 .2-.2.2 0-.2 0-.3l-.5-.2c-.2.2-.2.4-.6.5-.3.3.5.4 0 .6-.2 0-.4-.2-.8 0h-.7-.2L82 106c0-.3.3-.4.5-.6.4 0 .2-.5 0-.6-.8 0-1 .8-1.6 1h-2c-.2 0-.4 0-.4-.2-.5 0-.4-.2-.8 0-.4 0 .2.3-.6.2 0-.2.5 0 .4-.5h-.8-.4c0 .2 0 .3-.2.3H76h-.4c-.5 0-.5.3-1 .2h-1-.2s-.3 0-.3-.2c-.4 0-.3.3-.8.2h-.7H69c0 .2-.7 0-1 .2 0-.2-.3-.4-.6-.5-.2 0 0 .4-.6.3-1 0-1.4-.2-2.3 0 0-.3-.5-.2-.4-.4-.3 0-.2-.2-.7 0-.3.2-.3.7-.8.7h-.8c-.5 0-.4-.2-.8 0h-.6v-.2h-2.1c-.2 0-.3-.2-.7 0-.2 0-.2-.3-.5-.3 0 0 0 .3-.3.2 0 0-.2 0 0-.2H56v.5h-.5c0 .2 0 .4-.2.4-.4 0-.5.2-1 0 0 .3-.3.2-.4.3l-.7.2c-.2-.2-.4-.3-.8-.2l-.3 1c-.2.3-.8.2-1 .3-.7 0-.6.4-1.2.3-.3.3.4.5 0 .6-.3-.3-1-.2-1.6-.2 0 .2-.2.4 0 .5h.2s.3 0 .3.2c-.5 0-.3.5-.2.6-.4.3-1 .3-1.3.4h-1c-.3.5.4.4.2.8-.3 0-.2-.3-.8-.2l-.7.5H45c-.3 0-.6 0-.6.2.2 0 .2 0 .3.2h.5c.3 0 .5.3.6.5 0 .4-.5.2-.5.6.4 0 0 .4.4.4.3 0 .3.3.4.5 0 .3 0 .4-.2.7 0 .3.5 0 .4.3-.2.4.2.4 0 .8 0 .3-.7 0-.6.5 0 0 .2 0 0 .2l.4.2c-.2.4.4.3.4.6v.2c0 .4.4.6.2 1 .3 0 .5.2.4.6.4 0 .6.3.6.6H47c0 .3-.2.2-.3.3 0 .2-.6 0-.6.5.2.2.7.2.7.5.2 0 .2 0 .3.2.3 0 .4 0 .5.2-.2.2-.8 0-1 .3.4 0 .2.3.7.2 0 .2.5 0 .4.2h1.1c0 .4-.4.5-.3 1 .3 0 1 0 1 .4 0 .2 0 .3.2.3-.3 0-.2.2-.3.4.2 0 .2 0 .3.2.3 0 .6 0 .5.2h-.5c-.3 0-.5.2-.6.3.5.2.6.6 1.3.7.3 0 .2.3.8.2h.4c.2 0 .2.2.3.3l-.2.2v.2c0 .2.4 0 .4.2-.4 0-.3.4-.6.6 0 0-.2 0 0 0-.2 0-.4 0-.4-.2-.2 0-.3-.2-.7 0 0 0 0 .2.3.3l.2.5h.3c.2 0 .4 0 .4.2v.6h.7c0 .2.2.2.4.2s.2 0 .3.2h1.5v.4c.5 0 1 0 1 .3v.3c0 .5-.2.7-.3 1v.2c.2 0 0 .2.3.2 0 .2.4.2.2.6 0 .3-1 0-1 .5h.7c0 .2.4.2.4.5-.3 0-.2.3-.3.5.4 0 .3.4.2.7 0 0 .6 0 .4.3-.2.2-.4.3-.7.3h-1c-.2.5.2.4 0 .8.4 0 .8.3 1 .6-.3.4-1 .4-1 1 0 .2.3.5.8.6.8 0 .7.5 1.6.3v.3h.3v.3c-.2.3-.6.5-.8 1h1.5c-.2 0 0 .2 0 .4-.3 0-.2.3-.3.5h1c0 .3 0 .4-.4.5 0 .4-.5.2-.5.6v.3l-.2.6h.3c-.3 0-.2.4-.3.6-.2 0-.3.3-.3.6.3 0 .4.3 1 .2h.5c.2 0 .2.2.3.3 0 .2-.2.3-.3.5-.3 0-.6 0-.7.2-.3 0-.5.2-.6.3-.4 0-.6 0-.6.3s.4 0 .7 0c.4 0 .6 0 .6.2h-.5c0 .2-.2.3-.4.3-.3 0-.5.2-.7.3-.7 0-1.4.2-1.4.8h1.7l.7-.2c.4 0 .3.2.8 0 .3 0 .4 0 .5.2 0 .2-.2.2-.2.2s0 .3-.2.3c-.3.2-.6.3-.6.7l.3.2h.5c-.3 0-.5.2-.6.3-.4 0-.5.2-.5.5.2 0 .4.2.8 0h.7v.7h.3c0 .3.3.2.3.3h.5c1 0 1 .8.5.7 0 0 0 .4-.3.5h-.5s0 .3-.4.2l-.4.2-.5.2h-.7v.6c-.4 0-.8 0-.7.5 0 .2 1 0 .7.3h.7c.3 0 .5.5.4.6l-.6.2-.4.2c-.5 0-.5.4-1 .2-.4.2-.4.6-1 .7v.4c-.4 0-.8.4-1 .8.4 0 .6-.2.6 0 0 0 .2.2 0 .3 0 .2.3.2.4.3h-.5c-.2.3.4.5.4.7-.2 0-.3 0-.4.2 0 .2-.3 0-.4.2.3 0 .7 0 1-.2 0-.3.6-.2 1-.2.2.4-.3.4-.2.8h.3c.2 0 .4 0 .4.2l-1 .5c-.2.4.2.4 0 .7-.3 0-.7.2-.8.6 0 .2.5.4.3.8 0 .4-1.3 1.8-1.3 2-.3 0-1 .3-1 .5-.2 0-.3-.2-.7 0l-.4.2c-.2.3.2.3 0 .7-.5 0-.8.2-1 .6-.2.4.5.2.4.5-.5 0-.7.3-1.3.3h-1.2c0 .2 0 .3-.2.3 0 0 .2.2 0 .3h.4c.2.2.6.2.8.3v.3h.2s.2 0 0 .2c0 .2 0 .3-.3.3h-.2c0 .2 0 .3-.2.3h-1c-.2.4-.3.7 0 .7l.3.6c-.2.3-.3.5-.8.4v.5c-.3 0-.5 0-.5.2-.3.2-1 0-1 .5v.3c0 .2.6 0 .6.2l-.4.2c0 .2-.3 0-.4.2-.3 0-.8 0-.8.5.2 0 .4.3.5 0 .2 0 0 .3.3.4h.7c-.2.2.3 0 .2.4 0 .3-.3.3-.3.6.3 0 .6 0 .5.2 0 0-.2.3-.5.2 0 .2 0 .2-.2.3.2 0 0 .2 0 .3-.4 0-.4.3-.8.3H46s0 .4.6.7h1l.8.5v.3c.4.2 1 0 1.2.2l.6.3c.3 0 .2.4.5.6.2.2.8.3 1 .3l1 .3c.3 0 .6.2 1 .4.2 0 .3.3.5.4.3.2 1 .3 1.2.5.3 0 .4.2.7.3h1l.7.5 1.3.3c.4.3.5.5 1 .6l1 .3c.6 0 1 .4 1.4.6.2 0 .4 0 .7.2.4 0 .8 0 1 .2.2 0 0 .2.3.3.2 0 .8 0 1 .2l.6.2 1 .4.2.2H75c-.2.2.8-.2.7 0h21.7c.2 0 .5 0 .5.2l2-.2c.6.2.8 0 1.4 0h2.9c.3.2 1 0 1 0h.5c.7.3 1 0 1.3 0 1 .2 2.6 0 4 0 0 0 0 .3.4.2h6.6c.2 0 .4-.2.7 0 .6-.2.6 0 1 0h.4l.6-.2h.3c0 .3.3.2.3.3.7 0 .8.2 1.6 0 .5.2.4 0 .7 0 0 .2.3-.2.6 0h.7c.3-.3.8-.2 1-.3l.6.2h2.9l.6.2c1-.2 2.5 0 3.7 0 .2-.2.6-.2 1-.2.7 0 .4.3 1 .2 0-.2.5 0 .8 0h1.3c.2-.2.3-.2.5-.2h.9s.3 0 .7 0H147.3s.3 0 .3.2c.5 0 .5-.2 1 0h.6c.4 0 1-.2 1.4 0h1c.8 0 1.7-.2 2.5 0H161.8s.3-.3.6-.2c.3 0 .3.3.8.2H165.5c.6.2 1-.2 1.4 0H168.5c0-.2.4 0 .7 0h1l.6-.2 1.3.2h1.7l.8-.2h.5c1.3.2 2.4 0 3.3 0h2.7c.3 0 .3.2.8 0 .6.2.6 0 1 0h1l1 .2h2.9l.6-.2h.5c.8 0 1.8 0 2.2.2 0-.2.4 0 .6-.2 0 .2.4 0 .7 0 .3 0 .7 0 .7.2h1.1c.4 0 .4-.2 1 0 .5-.2.2.2.8 0 .3 0 .3-.2.7 0h1.3l.7-.2h1.9c0 .2.8 0 .8.2.5 0 .4-.3 1-.2 0 .2.3 0 .6 0h1s0 .2.4.2c2 0 4.3-.3 6.2 0H216.3l1-.2v.2h3.5c.2 0 .4-.2.7 0h2.7c.5.2 1 .2 1.4 0h.7c.2.2.4 0 .5 0h.5c.4 0 .4.2 1 0H231.5c.4 0 .6-.2 1 0h5.1c.6 0 .4-.3 1 0h.8l1-.2c0 .2.3 0 .6 0 0 .2.2.3.5.3.2 0 .4-.2.7 0h3.4c0 .2.5 0 .8 0h1.8c.7.2 1.5 0 2 0h6.4c.5 0 .6.2 1 0h1.8c.3-.2 1.2 0 1.8 0H272.3c.5 0 .4.2 1 0h.9l.8.2c.4-.3 1-.2 1.4-.3h1.8c.4 0 .2.3.7.2.6 0 1 0 1.4-.2h2.9l.6.2c.2 0 .4-.2.7 0h4.4c.2 0 .3-.3.5-.2H296.3c.3 0 .3-.3.7-.2.2.3 1 .2 1.3.3h1c.2 0 .4 0 .5-.2.3.2.8 0 1.2 0h3.2l.5.2c0-.2.4 0 .5-.2 0 .3.6 0 .7 0h8.6c.5 0 1.2.2 1.4 0 .3 0 .4.2.8 0h3.3c.4 0 .6 0 1 .2h.3c0-.2.3-.2.5-.2h5.2c.3 0 .3.2.8 0h1.9c.2 0 .2.2.5.2h6.7s.3-.2.5 0c.4 0 .8 0 1-.2.3 0 .4.2.8 0h4c.2 0 .3.3.7.2H351.7c.2 0 .2-.2.5 0 .4 0 .8 0 1-.2h1.1c.2 0 .2.2.5.2 1.2-.2 3 .2 3.7 0h1.6c1-.2 2.4-.2 3.4 0h6.1c0 .2.2 0 .2 0h1.9s.3.2.7 0h2.5c.2 0 .3.3.7.2l1.2-.2c.5 0 1 0 1.6.2.4 0 .4-.2 1 0h1.4l.6-.2c.3.2.7 0 1 0h1.1l.5.2H386.3c.3 0 .2.2.7 0h2.7s.3-.2.8 0H396c.6-.2.6 0 1.2 0 .5 0 .5-.3 1-.2.7.2 1.5 0 2.2 0h.5c0-.3.2-.4.5-.4 0 .2.3.3.5.3h.7c.5 0 .5.3 1 .2H407l1 .2c.5 0 .3-.3 1-.2h1.7s.3-.2 1 0h2.6c0-.2 0-.3.2-.3.4 0 .5.2.7.5.3 0 .6-.3.7 0l.8-.2c.4.2 1.3 0 2 0 .3 0 0-.2.6 0 .5-.2.5 0 1 0 .3-.2 1 0 1.3 0 .3 0 .3-.3.5-.3 0 .3.8 0 1 0 0 0 0 .2.4.2 0-.2.4 0 .7 0 .3-.2 0-.5.7-.4.5 0 .7.3 1 .5.5 0 .8.2 1.5 0 .2 0 .2-.3.2-.6.4 0 .2-.3.5-.3v-.6c.3 0 .3-.2.5-.2h.2v-.3h.3c0-.2 0-.3.2-.3.3 0 .4-.2.5-.3 0 0-.2 0-.2-.2l.4-.2h.8c0-.4.2-.4.2-.7.2 0 .2-.2.3-.2 0-.2.2-.2.2-.3 0-.3-.5 0-.3-.5h1.1c0-.2.2-.3.4-.3 0-.2 0-.4.2-.5.2 0 .3-.2.7 0 0-.4 0-.5.3-.6l.2-.6c-.2-.2-.3-.3-.3-.5s-.3-.3-.2-.6l1-.7c.8 0 .6-.3 1.2-.2 0-.3 0-.6.4-.6.5-.2.5 0 1 0 0-.2.2-.2 0-.4-.3 0-.2-.3-.2-.5.6.2.5-.2.7-.4.3 0 .5 0 .5-.2.2 0 .4 0 .4-.3 0-.2-.8 0-.6-.4.4 0 0-.5.5-.6-.2-.5 0-.7 0-1h.6c0-.2 0-.2.2-.2 0 0 0-.2.2-.2h.7s0-.3.4-.2c0-.2.5 0 .8 0 0-.3 0-.4.4-.4 0-.2.3-.3.5-.3s.3.2.7 0h.5c0-.2 0-.2.3-.2h.3c0-.4.2-.7.4-1h1.2c0-.3.3-.4.7-.3 0-.2 0-.3.2-.3 0-.3.3-.4.3-.6l-.5-.2c0-.3-.8 0-.5-.3 0-.2 0-.2.3-.2l.4-.2c0-.2.5-.2.7-.3 0 .2.4.3.8.3.3 0 .2-.3.7-.2h.7c.2-.3.5-.5 1.2-.5 0-.3 0-.4.3-.4l.2-.2v-.2c.6 0 .6-.3 1-.3.4-.2.5-.5 1-.6 0-.4-.8-.3-.6-.8.8 1 1.3 1 1.2.7zm-311-34.7c0 .7-.4 1.2-.6 1.6 0 0 0 .2-.2.3v.2l-.2.4-.3.2-.2.3h-.4c-.7.2-1.8.4-2.7.4-1 0-1.5-.2-2-.4-1 .3-2 .5-3.4.4h-.2c-.4.3-1 .6-2 .6l-1.2.6-1.8.3c-.5 0-.7 0-1.3.3l-.2.2c-.6.3-1.3.4-2 .6h-.4c0 .2-.3.2-.4.3-.2.3-.6.8-1.4 1-.3.3-.7.6-1.5.7l-.6.2c-.3.2-.8.8-1.8 1l-1 .7-.8.6-.3.2c-.2.3-.5.6-1 .7l-1 1-.8.5-.5.2c0 .2.4.2.6.3h1c.4 0 1 0 1.7.3h.3l1.3-.3h1.7c1-.2 2-.4 3-.2h.5c.4-.3 1-.7 2-.8h.2c.6-.3 1.4-.7 2.5-.6l.7-.4s.2 0 .3-.2v-.3l1-.3c1.3-.4 2.4-.5 3.8-.3l1.2.2v.2h1l.3.8 1 1v1c.2 1 0 1.6-.3 2v.2l-.8 2-.3.2v.8l-1 .5-4 1.6-1.6.5c-.3.3-.7.5-1.2.5-.3.2-.7.3-1.3.3-.4 0-.6.2-.8.3l-.3.2-.3.6-1 .2-1 .2c-.3 0-.8 0-1 .2-.2.2-.5.4-1 1.2v.3l-1 .6c0 .3-.3.6-.6.8l-.3.2h-.2l-.4.2-.8 1-.5.7h2.8l4.3-.6 1.3-.3h.4c.5 0 1-.6 2.2-.5h.5c.5-.2 1.2-.4 2-.3l.3-.3.4-.4 1.7-1 .2-.2c.4-.4 1-.7 2-.7.5 0 1 .2 1.5.4.5 0 .8.3 1 .6.8.7.7 1.6.6 2v.5l-1 3.5c-.3.6-.8 1-1.2 1l-.3.4-1.2 1c-.5 0-1 .2-1.4.4-.6.3-1 .4-1.7.5-.3.2-.8.4-1.4.4l-1 .5-1.8.6c-.4 0-.7 0-1 .2l-1.8.2-1.3.2h-.7l-.5.4h-1.6c-.5 0-1.3.3-2.2.2l-.4.2c-.4.2-1 .4-2 .4h-.3c-1.2 0-2.2-.3-3-.5-.6 0-1-.2-1.7-.3h-.2c-.7 0-1.2-.2-1.5-.4-.5 0-.8-.2-1-.4-1-.2-1.3-.7-1.5-1l-1.2-1-.2-.2v-4.3c.2-1 .6-1.8 1-2.2l.2-.6.7-1.6.4-.3h.2l1-1.5.5-.6c.3-.5.7-1 1.3-1.2l-2-.4-1.3-.3-1-.5-.8-.2v-.2h-.2c-.5-.2-1-.4-1-.6h-.2l-1.6-1-.8-.4-.3-1c0-.2 0-.6-.2-1-.2-.7-.3-1.4-.6-2l-.3-.4v-.5l1-2.5.5-1.2.2-.8.7-.4c.6-.2 1-.5 1.2-1l.3-.4.5-.2c.3 0 .6-.3 1-.4l.5-.2 1-1 .2-.6 1-.5.5-.2 1.5-1c.2 0 .3 0 .7-.3l.7-.3.5-.4v-.3l1-.2.5-.3.7-.5.8-.4c.3-.2.7-.3 1-.3l.5-.5.7-.5 1.8-.6.2-.2 1-.5h.5l1.6-1c.5 0 1-.2 1.4-.4l1-.5 1.4-.8 4.3-.8c.2-.2.5-.2.8-.3l1.6-.8c1-.2 2 0 3 .2.7-.3 1.4-.2 2-.2h2v.4H141l.3.3.7.8c.2 0 .5.3.7.6l.6 1.3v.4l.2.2c1 1.5.4 2.2.2 2.6zM194 140c0 .7-.2 1.2-.3 1.6 0 .3 0 .5-.2.7l-.7 1.4c0 .6-.2 1.2-.6 1.8-.3.7-.4 1.3-.5 2l-.8 1.3h-.2c0 .3-.2.4-.2.5l-1 1.2-.3.6-.5 1c-.2 0-.3.3-.3.4l-.3 1h-.3c-.3.6-.6 1-1 1.2l-.2.3c-.2 0-.3.3-.3.4l-.2.7-.7.5-1.6 1.5c-.2.2-.3.4-.6.5l-.7.6-1.6 1.2-1.6 1-.8.5c-.4.4-1 .6-1.2.7h-.2l-.3.3h-.4c-.2.3-.6.5-1.2.6l-1 .4-1.5.6h-.2c-.3 0-.7.3-1.4.3l-.8.2c-.3 0-.6.3-1 .3l-.4.2h-.3l-1.4.2h-.8c-.4-.2-1-.2-1.5-.2-.7 0-1.4 0-2-.3l-1-.4v-.2c-.7-.2-1-.6-1.3-1l-1-.5v-.2l-1.2-1-.6-.8-.4-.4-1-2c0-.8 0-1.6-.2-2.3v-.4c-.2-1.4 0-2.4.2-3.3.2-.8.3-1.5.2-2.4v-.2c0-.7.3-1.3.5-1.7.2-.3.2-.4.2-.7v-.7l.4-.8c.3-.4.4-.7.4-1v-.6l.3-.4.5-1c0-.3.2-.5.3-.8 0-.4.2-.7.3-1l.7-1.4c0-.5.2-.8.3-1 0-.5.2-.5 0-.8l.7-2 .3-1c-.3-.6-.5-1.4-.5-2.3 0-1.6 1-2.3 1.4-2.6.6-1.2 1.6-1.7 2.3-2l2.5-1c1.2 0 1.8.4 2.3.8 0 0 .2 0 .3.2l.5.3v.3l1 1h.3v1.2c0 1.6-.4 2.7-.7 3.7l-.3 1.2v.5l-.3.2v1l-.4 1.6v1h-.6v.5c0 1-.2 1.6-.5 2l-.3.4c0 .7-.2 1.2-.5 1.5l-.2.4c0 .6-.2 1-.4 1.4 0 .4-.2.7-.4 1 0 .4-.2.7-.3 1l-.6 2.7-.2 1v3.4c.7 0 1.2 0 1.6.3h1.2c.4-.4 1-.6 2-.6l.8-.3c.2 0 .5-.3 1-.3l.3-.2.6-.3.2-.2 1-.8h.3c.4-.5.8-1 1.6-1.2.4-.4 1-.6 1.2-.7l1-1c.2-.7.7-1 1-1.3l1.2-1 .3-.5c.2-.4.5-1 1-1.4l.2-.5.7-1.2.7-1.5v-.5h.2l.8-1.6.3-.5c0-.4.2-.7.4-1 0-.7 0-1.5.4-2.2 0-.7 0-1.5.5-2.2.3-2.6 2.4-3.4 3.2-3.7h.3c.3-.2.6-.2.8-.2 1.4 0 2 .8 2.4 1.2l.2.2h.3v.3l.6.8.7 1.4-1 4.7zm58 17c-.3.7-.8 1.3-1.5 1.6v1h-2.8c-.2.3-.6.4-1 .5 0 .2-.3.4-.5.5-.2 0-.4.3-.6.4-.3.2-.8.4-1.4.4h-1.9c-.5.2-1 .3-1.8.3-1 0-1.6 0-2.2-.4-.6 0-1 0-1.3-.2-.7.2-1.6.3-2.5.2-.4 0-1 0-1.3-.2-1-.2-1.8-.3-3-.2h-.7l-.8-.3h-.9c-.5 0-.8-.2-1-.3l-.4-.2c-.4 0-.7 0-1-.2l-.3-.2c-.7 0-1.2-.2-1.5-.6h-.4c-.5 0-1.2 0-1.8-.3l-1-.3h-1v-.4h-.2l-1-.2-.2-.5-.6-.4-.3-.2v.6h-.6c0 .4-.3.6-.4.8l-.6 1-.8 1.7-.4.5c0 .7-.3 1.3-.5 1.8 0 .3 0 .6-.2 1l-.3 2-.3-.2-.2.4c0 .3-.3.6-.6.8v1h-4.2c-1 0-1.8 0-2.3-.3l-.5-.2-1.3-.2v-1.3c0-.5-.3-.8-.5-1.3l-.2-.6V161l.5-1.6.7-2.6v-1.4l.4-1.2h.4c0-.4.2-.7.3-1l1-1.8c0-.3 0-.5.2-.6 0-.8.4-1.4.6-2l.3-.5.8-1.6.3-.3 1-1.3c.2-.7.5-1.2 1-1.6.2-.7.7-1 1-1.3v-.7h.7l.3-.4 1-1.5.8-.8c.4-.5.8-1 1.3-1.3l.4-1c0-.3.2-.6.4-1-.2-.5-.4-1-.3-2v-.3l1-1.5.3-.4.6-1 1 .2 1.4-.3c.7 0 1.3.2 1.7.7.2 0 .3.2.5.3l.5-.2c.5-.3 1.2-.7 2.2-.7h.7c.3-.3.7-.5 1.2-.5l.4-.7h1c1 .2 1.6 0 2.4-.2.5 0 1-.2 1.4-.3h3.2l.2.3.4-.4 1 .3 1.2.2c.7 0 1.5.2 2.2.5 1 0 1.6.7 2 1l.4.2.3.7 1 1.4v.2l.3.4.7 1.3.4 1.2.2.3.3.4v2.8c0 .7-.3 1.3-.5 1.6l-.7 1.5v1.2l-.7.3v.6l-1 .6c-.3 0-.5.3-.6.6l-.3.5-.5.2c-.3 0-.5.2-.6.5l-1.5 1-1.7.8-1 .5-.3.2c-.3.2-.7.5-1.3.7l-1.2.4-.3.2-.2-.2-1.8 1-.8.3c.3 0 .5 0 .7.2.6 0 1 .3 1.6.3h.2l3.2.5 4 .6c2-.3 3.7-.4 5.6-.2.2 0 .3 0 .5-.2h.4v-.5h1.2c.3-.2.6-.2.8-.2 1.4 0 2 .8 2.4 1v.3l1 .4v.8c.4 1.6-.4 2.4-.8 2.8zm42.6-12.8v1.4l-.5 1 .2.4-.3.7c-.2 0-.2.2-.3.4v.8l-.5 1.2-.5 1-1 2-.4.7-.3.4-.5.3-.2.5-.5.3-1.5 1.6-.5.8h-.5l-1.4.7-.6.3-.2.2-1.6.8h-.4l-.2.3-1 .6-.7.4-1.2.8-1 .3v.4H273c-.6 0-1 0-1.4.2H271c-.6 0-1 0-1.4-.3h-.5c-.5 0-1-.2-1.3-.4-.6 0-1-.2-1.5-.3-.4 0-.4-.2-.6 0h-.7l-.6-.4-.7-.2c-.5 0-1-.2-1.6-.4l-.5-.3-1-.2-1.6-1-.8-.4-.3-.8-.3-.4s0-.2-.2-.3c-.5-.5-1-1-1.2-1.6-.3-.3-.7-.7-.8-1.5v-.2l-.3-1.7v-1c0-1.3 0-2.7.8-3.7v-1l.6-1.7.2-.7.2-.5h.4l.3-.4 1.5-1 .3-.5.3-.2.8-.5c.5-.3 1-.5 1-.8l1.6-1 1.4-.6c.4-.3 1-.6 1.5-.6s1-.3 1.3-.5l1.2-.6 1-.4 1.5-.4c.4-.3 1-.5 1.7-.4.2 0 .5 0 .7-.2.7-.2 1.5-.4 2.6-.4 0 0 .2 0 .3-.2l.4-.3c0-.2.3-.3.4-.4l1-1c.2-.3.6-1 1.3-1.3l1-.8c.4-.3.8-.5 1.4-.5h.4l1-.2h.2c1.6-.2 2.6.3 3.3.7.5 0 1 0 1.2.4l.4.3h.2l.7.5.8.3.2.6.3.2c.3 0 .6.3 1 .5.7.3 1 .8 1.3 1.2l1.2 1.6c.2.4.4 1 .3 1.7l.3.8c0 .7.2 1.2.3 1.8 0 .5.2 1 .3 1.3v.3c0 1-.2 1.5-.4 2zm52 2.5l-1.2 1.8c0 .3-.3.6-.5 1l-1.3 1.3-.2.5-.5.3-1 .5-.7.4-1.4 1c-.7 0-1 .3-1.6.6l-.5.4h-.5l-1 .3-1.4.6-.4.2c-.5.2-1 .4-2 .4h-.8c-.3.2-.8.2-1 .3l-.4.3h-.5c-1.2-.2-2.2 0-3.2 0s-2.4.2-3.7 0c-.2.2-.5.2-.7.3-1 0-2.3.4-4 .3-.8 0-1.4-.2-1.8-.4l-1.5.2-.3.5-.4 1c0 .3-.3.7-.4 1 0 1.2-.3 2.3-.6 3.3 0 .2 0 .5-.2.7 0 .6-.3 1.3-.7 2l-.2.2c-.7.6-1.7.7-2.4.7h-1c-.2.2-.5.2-.8.2-.5 0-.8-.3-1-.4-.6 0-1-.2-1.2-.4h-1l-.2-1c-.4-.5-1-1.4-.6-3 0-.3-.3-.8-.3-1.5v-.2c.2-1.6.6-3.2 1-5 0-.7.3-1.2.5-1.6 0-.4.2-.5.2-.7V152h.4v-.2l.3-.3.7-1.6c0-.2 0-.4.2-.5 0-.2.2-.4.3-.5l.3-.5 1-1.6v-.2s0-.3.2-.3l.8-1.5.3-.3 1-1.3c0-.6.2-1 .4-1.4.2-.4.3-.5.2-1v-.5l.2-.5.4-1 .4-1-.3-.4c-.6-.8-.8-1.8-.6-3l.2-1.4h.8c.3-.3 1-.7 1.8-.7l2-.2c1 0 1.5.5 1.8.7h.8l.7 1h.3c.4-.2 1-.4 1.6-.4l1-.6 1.5-.3c1.4 0 2.5 0 3.5-.4h1.2c1.2.3 2.7.7 4.6.6 1-.3 1.7 0 2.3.8.2 0 .4 0 .5.2.4 0 .7.2 1 .3.8 0 1.4.3 1.8.5.4.2.6.3 1 .2l1.6.8.2.3h.7l.4 1c.5.7 1 1.3 1.8 2l.6.4v.8c0 .3.3.6.5 1 .4.8 1 1.8.8 3.5 0 1-.3 1.6-.5 2zm56.4 1.7v.4l-.3.2v1l-1 1.6c-.4.3-.8.7-1.4 1-.4 0-.8.2-1 .3h-.4l-.5.3h-.5c-1.6 0-3 0-4.6-.5l-8.7-.2h-.3c-.6 0-1 0-1.4-.3h-.2c-.6 0-1.4.3-2.3 0-1 .2-1.7 0-2.3-.2H377c-.8.3-1.7.5-2.7.5h-.8c-2 0-3.4-.2-5-.5h-.2c-.3 0-.6 0-1 .3l-.7.3h-2.2v.2c-.2.3-.3.8-.7 1.2v.3l-.4 1c0 .3 0 .7-.2 1 0 .8-.2 1.5 0 2.3v.4h.2c0 .2.3.2.4.3l1 .7c.5 0 .7.2 1 .3l3.2.3c1.5.2 3 .3 4.6.3l2.3-.4c2.3-.3 4.6-.6 7.4-.5h.8l3.8-.2 1.2-.2h2.4l.4.4c1.8.4 2.2 1.5 2.2 2.4 0 3-2.4 3.6-3.8 4-.2 0-.5 0-.7.2v.2l-.7.3-1 1-1 .3h-.3l-2 .6h-1l-.4.3h-1c-1-.2-2.3-.2-3.5 0H377c-1 .3-2 .3-3 .4-.7 0-1.6 0-2.2.2h-.6c-.5 0-1 0-1.4-.2-1.4-.2-2.8-.4-4.4-.3h-.4c-.6 0-1-.3-1.6-.4l-1.4-.2h-.5l-.5-.2-2-1-1.6-1c-.2 0-.3-.3-.4-.4-.4-.2-.7-.6-1-1h-.5l-.7-.7-.5-.7h-.4l-.3-1.2c-.7-3.2 0-6.5.5-9.4l.5-2.5v-.2c-.2-.3-.6-1-.6-2l-.2-1c0-.8 0-1.4.4-1.8 0-.2 0-.4.2-.6l.5-1h.3l.4-.2h.3c.2-.2.4-.2.5-.2h1.6l.4-.2.7-1c.3-.4.5-.8 1-1v-.2l.8-1.5v-1l1-.5c1.3-.5 2-1 2.3-1.5l1.4-1 .5-.4c0-.3.5-.6 1-.8v-.2l1-.7h.2s.2 0 .3-.2h.4l.3-.3h1c.5-.7 1.3-.8 1.7-1l2-.5h.7l.8-.3h1c.3-.3.7-.3 1-.3h1.3l1-.3h2.5c.3-.2.8-.4 1.4-.3 1 0 1.8 0 2.5.3l1.6.2h.8c.4 0 1 .2 1.4.4.8.2 1.6.3 2.4.7l3.3.2c1 0 1.4.3 1.8.5l.5.2c1 0 1.6.4 2 .6h1.2l.3 1.5c0 .4 0 .7.2 1 .3.8.6 1.8.3 3.3l-.2 1.4h-.3l-.3 1h-1.4c-.6.6-1.4.7-1.8.8h-.3l-.3.4h-.5c-1.5 0-2.4-.4-3-.8 0 0-.3 0-.4-.2h-.3v-.2h-.3l-1.6-.6-.4-.2c-.7 0-1.3-.3-2-.6-1.4 0-2.3-.4-3-.8-.5.2-1.3.5-2 .3-1 0-1.6-.3-2-.4-.4 0-.5-.2-.7 0H379.7l-1.7.4c-.8.3-1.7.6-3 .4 0 .5-.3 1-1 1.4v.5l-1 .2c-.2.2-.6.6-1.2.7v.2c.6 0 1 0 1.6.2h3.7c1 .2 1.6 0 2.3 0l.3-.2c1 0 1.7.2 2 .4h1.5c.2 0 .6-.3 1.2-.3.8 0 1.2.3 1.5.4h1c0-.2.4-.4.6-.4h1.2c.8 0 1.5 0 2 .4h4l.4-.3h.6c1 0 1.5.4 2 .6l1.6-.2h.5c.5 0 1 .3 1.2.5l1.3 1.6c.4.2 1 1 .5 2.4zM145.5 37.7c0-.2-1.2-1.4-1.2-2v-1.2c-.4-.4-.5-1-.6-1.5-.2-.2-.4-.4-.4-.6l-.6-1v-.6c-.8-.3-1-1-1-1.3h-.3c-.4.4-1 .6-1.3.7l-.4.7-.6.7c0 .2-.3.5-.5.7v.3c-.2.4-.5 1.2-1 1.6-.2 1.3-.6 2.3-1 3.2-.3.7-.6 1.4-.7 2 1.5.3 3.8.2 6 0l3-.2c.2-.2.7-.7 1-.7l-.3-1zm145 3.6c-.3-.7-.7-1.6-.7-3-.2 0-.3-.3-.4-.4l-.5-.2-.2-.8c0-.2-.3-.4-.5-.8-1-.5-1.3-1.3-1.7-2l-2.5-.4c-.4 0-.7-.3-1-.4h-.5c-.5.2-1 .2-1.4 0l-1 .2-2.2 1c-.2.4-.6.8-1 1 0 1-.6 1.4-1 1.7l-.3 1.3c0 .7-.3 1-.5 1.3v.2c-.2 0-.2.3-.3.5 0 .4-.4 1-1 1.6l.2 2.7-.8 1c-.2.2-.2.2-.2.5l-.5 1.2c0 .3 0 .6-.3 1 0 1-.3 1.5-.6 2s-.4.8-.2 1.6l-.6 1.3c0 .4-.2.7-.4 1 0 .4-.3.7-.5 1l-.5.8c-.5 1-1 2-1.2 3l.4.2 1 .6c1 0 1.6.4 2 .6.5.3.6.3 1 .2h.5c.5 0 .7 0 1.2-.4l1.2-.7.3-.2c.2 0 .4 0 .7-.3l.2-.2h1.3v-.5l.7.2c1-.2 1.7-.6 2.5-1 1-.5 2-1 3.3-1.2.7-1 1.5-2 2.5-2.8.3-.7.8-1.3 1.5-1.7l.2-.3c.2-.5.4-1.2 1-1.7l.6-2.3.6-3v-2l-.7-1.7zm218.8-7.6h1c.2-.7-.7-.5-.6-1 0-.3.2-.3.2-.5-.2-.4-1-.3-1-.8.2-.2.4-.3.3-.5 0-.5-.8-.3-.8-.6s.5-.4.4-.8c-.2-.3-.7-.3-.7-.5.2 0 .6-.2.4-.7-.3 0-.4-.2-.8 0h-1c0-.2.3-.2.3-.2l.2-.2h.2v-.3h.2v-.3c-.3 0-.3 0-.3-.3s-.3-.3-.2-.5c0-.4.6-.3.4-.8-.3-.2-.4-.4-1-.4 0 0 0-.2-.3 0 0-.3 0-.4-.2-.5h-.8c-.3 0-.2-.4-.4-.5 0-.3.8-.3.6-.8 0-.2-1-.4-.3-.5 0-.4-.6-.4-.6-.7.4 0 .4-.2.7-.3 0-.2.2-.2 0-.4h-.8c-.3-.2-1 0-.7-.5l1.2-.6c-.2-.7.6-.7.6-1.2 0-.4-.2-.7 0-1.2-.3 0-.4-.2-.5-.3 0-.2-.3-.2-.4-.4.3-.6-.2-.7 0-1.2 0 0-.4 0-.5-.3-.3 0-.2-.3-.4-.4 0-.3.7-.2.5-.5l-.2-.3c0-.2.3-.2.2-.4-.2 0-.2 0-.2-.2v-.5h-.5l-.5-.2s.3 0 .2-.3c-.5 0-.8 0-.8-.3.3 0 .5-.2.6-.4.4 0 .4-.3.4-.7h-1s-.2.2-.4 0c-.3 0-.3.3-.7.2v-.3c.4 0 .3-.2.3-.3V9.4s-.4-.2-.5 0c-.2 0-.4 0-.4-.2.3 0 .4-.2.5-.2h1l.4-.4s.4-.3 1-.2c0-.2-.2-.3-.3-.4-.3 0-.2-.3-.2-.5h-.2c-.2 0-.4 0-.4-.2 0-.3 0-.5-.5-.5 0-.2-.3-.3-.4-.5h.3c.2 0 .4 0 .4-.2 0 0 .5 0 .6-.2 0-.5.4-.6.8-.8 0 0 0-.2.3 0 0-.2 0-.4.2-.4 0-.3.6-.2.4-.5-.2-.2-1 0-1-.3v-.4c0-.2.2-.2 0-.3 0-.4-.3-.5-.3-.7l.2-.3h-1c0-.4.5-.4.3-.8-.5 0-.4-.2-1 0 0-.4-.2-.5-.6-.5h-.4-1.8c-.4 0-.5-.3-1-.2-.7 0-1.3 0-1.8-.2 0 0-.2.2-.4 0l-.6.2h-.6-.5c-.3 0-.4-.2-.8 0-1 0-2.4 0-3.3-.2-.4 0-.3.4-.8.3-.3-.2-.7 0-1 0h-.6c-.3 0-.3-.2-.6 0l-1.4.2c-.8-.2-2.4 0-3.3 0H481.5c0-.7-.3-.5-.8-.4h-.2l-8 .4c-.2.2-1 0-1 .3h-9.6s0-.2-.3-.2H451.7h-1.4c-.2.3-.7-.2-1 0 0 0 0 .2-.2.2h-1.6c-.4 0-.5.2-.8 0h-.8c0 .2-.3 0-.6 0 0 .3-.3.2-.6.2-.4 0-.5-.3-1-.3h-.4V.6h-.4l-.8.2-.4-.2H439c-.2 0-.3.2-.4 0h-1.2-.6s-.3.2-.6 0c-1 .2-2 0-3 0-.4 0-.5.3-1 .2-.6 0-1.2 0-1.7-.2 0 .2-.5 0-.8 0h-1.2c-.8 0-2 0-3-.3l-1.5.3h-.8s0 .3-.2.3c0-.2-.2 0-.4 0H419.2c-.4 0-.7-.2-1-.3-.3 0-.5 0-.8.2 0-.3-.3-.4-.6-.4h-1.6s0 .3-.2.3c0-.2-.2-.2-.4 0-.4 0-1-.4-1.4.4h-2c-.2-.8-.6 0-.6-.3-.5 0-.6.2-1.2 0h-1c-.2 0-.2-.4-.2.4h-.6c-.3-.8-.7 0-.8-.3-.3 0-.8 0-.8-.2h-2.4l-.8.2c-.2 0-.5-.2-.6 0-.5 0-.4-.2-1 0H399c-.4-.2-1 0-1.2 0h-1c-1.2-.3-2.2 0-3.3 0h-1.2c-1 0-1.8-.2-2.6-.3-.6.3-1.7.3-2.5.4h-2c-.4 0-.7.2-1 0-.7.2-1 0-1.6 0 0 .2-.3 0-.6 0-.5 0-.6.3-1 .4-.4 0-.5-.3-1-.3 0 .3-.5.2-.8.2h-1.6-.2c-.2 0-.4 0-.4-.2-.6.2-1.4.2-2.2 0-.4 0-.7.5-.8 0-.5 0-.6.3-1 .4 0 0-.2-.2-.4 0 0-.3-.3-.2-.6-.2 0 .2-.2 0-.4 0-.6 0-.6-.2-1-.2 0 0 0 .2-.3 0l-.6.2c-.3-.2-.5-.2-.8 0h-1.1c0-.2-.6 0-1 0-.5 0-.4-.3-1-.2-.3 0-.6.4-.7 0h-1.1s-.2.2-.4 0c0 .2-.3.3-.5.2-1 0-1.7.2-2.4 0-.2 0-.3.2-.7 0-.5.2-.4 0-1 0l-2.4.3c-.8 0-1-.2-1.5 0-1.2 0-2.6 0-3.5-.2 0 .2-.5 0-.8 0h-6.7-.6c-.4 0-.8 0-1-.2-.5 0-.3.3-.7.3H340c-.5 0-1.3.2-1.3 0-.5 0-.6.3-1.2.2-.4 0-.4-.2-.8 0-.5.2-2 0-2.4.2-.3 0-.4-.2-.8 0H331c-.5 0-.5-.3-1-.2-.7 0-.6.2-1 0-.5 0-.4-.3-1-.2 0 .2-.3 0-.3.3-.4 0-.4.2-.8 0-.4 0-.5.2-.7.2-.3 0-.4-.2-.8 0-.7.2-2.2 0-3 0h-2c-.4 0-.7-.2-1-.3 0 .2-.4 0-.7 0 0 .3-.3.2-.6.2-.7 0-.6-.2-1-.3 0 .2-.4.3-.8.3 0 0-.2-.2-.4 0h-.6c-.4-.2-1.5 0-2.2 0-.5 0-.6-.3-1.2-.2-.4 0-.7.4-.8 0-.4 0-.3.4-.8.3h-3c-.5.2-1.6 0-2.4 0-.3.2-1.2 0-1.8 0l-.8.2h-2.8l-1.8.3c-.5 0-.6-.2-1.2 0H292v.2h-2.6c-.8-.2-1.8 0-2.7 0-1 0-2-.2-3 0h-1c-.5 0-.5-.2-1 0-.6-.2-.5 0-1 0H276c-.5 0-.6.2-1.2 0H273.6c-.6.2-.5 0-1 0 0 .2-.5.2-.8.2-.4 0-.5.3-.8.3h-5.5c-.4 0-.5-.3-.8-.3-1 .2-2.4 0-3.7 0-.3.2-1.2 0-1.8 0-.2 0-.2 0-.2-.2h-.6-.4s-.4 0-.4.2h-1.4c-.7 0-1.3 0-1.8.2l-.4-.2h-2.2l-.8.2c-.6-.3-2 0-3 0-.3 0-.6-.3-1-.4 0 .3-.4.3-1 .3-.5-.2-.5 0-1 0h-3c-.2 0-.2-.2-.5 0h-2.8c-.2 0-.2-.2-.5 0h-2c-.3 0-.3.2-.6 0h-2.8-4c-.6 0-1 .2-1.6.3H225c-.6-.2-.6.2-1.2 0h-1.2c-.4 0-.5.4-1 .4h-7.3c-.4 0-.7-.4-1.2-.4h-1.3c0-.2 0-.4-.2-.4 0 0 0 .3-.2.3 0-.3-.7 0-.8 0-.7-.3-1.3-.3-1.8-.3s-.4.7-1 0H206l-1 .2-1 .2h-1.7c0 .2-.5 0-.8 0-1 0-2 .2-3 0H197c-.5.2-1.3 0-1.6 0H191.8c-1 .2-3 0-4.3 0-.3 0-.4.2-.8 0h-2l-.8.2c-.7 0-.6-.2-1 0H181c-.6.2-.8-.3-1.3 0-1-.2-1.5 0-2.2 0 0 .2-.7 0-1 0h-2c-.6 0-.5.2-1 0H168.3c-.8.3-1.2-.2-1.8 0-.7 0-.8.2-1.4 0-.6.2-.5 0-1 0-.3 0-.2.2-.4.3-.3 0-.3-.3-.6-.2h-.2H161.6l-.6-.2h-1.4c-.2 0-.6.2-.6 0-.3 0-.5 0-.6.3-.5-.2-.4 0-1 0-.8 0-1-.3-1.6-.3h-.8c-.6-.2-.8 0-1.2-.3L152 4c-.4-.2-.4-.5-1-.5h-.8c-.2 0-.6.2-.6 0-.2 0-.4 0-.4.3H147.4c-.7-.2-1.6 0-2.4 0l-1 .2h-4.7-.4c0 .2-.3.3-.3.2-.6 0-.5.2-1 .2H136c-.3 0-.7 0-.7-.2H134c-.3 0-.2-.4-.7-.3H130.4s0 .2-.2 0h-.3c-.3 0-.5.3-.8.3H124c-.4 0-.3-.3-.8-.2-.3 0-.4.3-.8.3 0-.4-.4.2-.8 0h-2c-.2 0-.3 0-.4.3h-.8c-.6-.2-1.3-.3-2.2-.3-.4 0-.5-.3-1-.3h-1.8-1.4c-.4.2-1.5 0-2.2 0l-1.6.4c-.8 0-1-.2-1.6 0-.6-.2-.4.3-1 .2-.3-.2-.7 0-1 0h-5.2c-1-.3-1.5 0-2.2 0-.6 0-.5-.2-1 0-.4 0-1 0-1.4.2 0 0-.8-.3-.8 0-.5 0-.4-.2-1 0-1 0-2.3-.2-3.3 0H87c-1.8.2-3.4 0-5.2 0-.5 0-.4-.2-1 0-.5 0-1 0-1.6.2-1 0-2-.2-3.3 0-.5 0-1.3 0-1.7.2-.6-.3-1.8 0-2.6 0-.3 0-.4-.3-.8-.2h-2.3-3s-.4 0-.6.2c-.2 0-.2-.2-.5 0H61.8s-.4 0-.5 0c-.5 0-1 0-1.4.2L58.5 5c0 .2-.5.3-.8.3h-3c-.3 0-.5 0-.5-.2-.4 0-.3.3-1 .2H51.7c-.2-.2-.6 0-.8 0h-.3c-.7 0-1-.2-1.4 0H40c-.2-.2-.6 0-.7 0-.4-.2-.7.3-.8 0-.5 0-.6 0-1 .2 0-.2-.3 0-.6 0s-.4-.3-.7-.2c0 .2-.5 0-.8 0l-.8.2c-.4 0-.3-.4-.8-.3 0 .2-.5.3-.5 0-.8.3-1.8.2-2.6.2-.4 0-.5.2-1 0h-2c-.3 0-.4.3-1 .3h-2-.3c0 .2 0 .3-.4.3-.6 0-.6-.2-1.2 0-1 0-2.2-.2-3 0H19.4c-.8-.3-1.3.2-1.8 0h-1.2c-.4 0-1.2 0-1.6.2-.4 0-.4-.2-.8 0-.2.4-.5 0-1.2 0-.5.2-1.4.2-2 .3C9.6 6.3 9.6 6 9 6c-.4 0-.5.3-1 .3-.4 0-.4-.2-.8 0 0 .3-1-.2-.8.2-.7-.2-.8 0-1.3 0l-1.3.2c-.3 0-.4-.2-.8 0H2c-.2.2-.5.3-1 .3 0 .2-.3.2-.2.4H.2c.2.6-.3.7-.2 1.2.6 0 .8.2.8.3h.8c.2.3.7.5.8.8.5 0 .4.2 1 0 0 .4.2.4.2.6.5 0 .6.2 1 .3 0 .3.8.2 1 .4 0 .4-.6.3-.4.8.2 0 .5 0 .4.3.2 0 .6 0 .6.2-.3.3.5.5 0 .5.2.4-.6.3-.4.7.4 0 .4.4.8.4 0 .4.8 0 .6.5-.4 0-.5 0-.4.4 0 .4.4.3.4.5 0 .3-.6.2-.4.7l.8.8c-.6-.2-.5.2-.8.3l.2 1c0 .2-.4.2-.4.6 0 .3.6.2.4.5 0 .2.2.3.4.2 0 .2 0 .3.2.4-.2.3-.3.7-.2 1.2.3 0 .2.3.2.5 1-.2.8.4 1.6.3 0 .4 0 .5.6.4h.3v.3l-.6-.2c0 .4-.5.4-.8.5 0 .3 0 .5.4.5 0 .3.6.2.4.7l-.2.3c0 .2-.3.2 0 .3 0 .6-.4.7-.2 1 0 .2.2.3.4.2 0 .2.3.2.2.4.2.7-.4 1-.4 1.5-.2 0-.3.2-.4.3-.3 0 0 .4-.4.4-.3 0-.4.2-.8 0-.2.3-.2.6-.6.6l-.2.3c-.3 0-.2.3-.4.4 0 .4.5.5.8.7.2.4 1 .2 1 .8-.3.2-1.4 0-1.2.5 0 .3.2.3.2.5s.3.2.4.4c0 .2-.3.3-.4.5.2 0 .2 0 .2.3-.2.6.7.5.6 1 0 .2-.3.2-.4.4 0 .3-.2.3-.2.5l.2.4c0 .3-.6.2-.4.5.2 0 .7.3.2.3 0 .3.4.4.2.8-.3 0-.4.3-.8.2-.2 0 0 .5-.6.4-.2.6.7.4.6 1-.2 0-.3 0-.4.3 0 0-.3 0-.4.3.7 0 .3.7.2 1 0 .2.3.3.6.4-.2.4.6.3.4.7.4.3.6.8 1 1 0 .7.3 1 .2 1.7.3.2.7.2.8.5.3 0 .6.2.6.5s-.4.3-.3.7c.3 0 0 .2.3.3v1.7c0 .3-.4.2-.2.5h.4c-.2 0-.2.2-.2.4 0 .3.4.3.4.7 0 .4-.5.4-.4.8.3.2.8.2.8.5 0 .2.3.3.2.5.3 0 .4.2.6.3 0 0 0 .2.2 0 .2 0 .3.2.2.4-.3 0-.2-.2-.5 0l-.3.2V53c.2 0 .3 0 .3.2-.2.4.6.3.4.7 0 .5 0 1-.6 1 0 .4.7.3.5.7 0 .3-.2.3-.2.5.4 0 .4.4.6.5-.3.4.5.3.3.7 0 .4 0 1-.2 1 .2 0 .3 0 .3.2s.2.2.4 0c0 .5.4.4.4.6.3.4 1 .4 1 1 0 0-.5 0-.5.2-.3 0-.4.2-.6.3l-.5.8c0 .4-.5.3-.5.8v.7s.5.2.5.5h-1c0 .8 0 1.5.2 2-.2 0-.2 0-.2.3l-.2.3c-.3.2-.6.3-.6.6 0 .6 1 .5 1 1-.3 0-.2.4-.4.5 0 .3-.3.4-.2.6-.2 0 0 .2-.3.3 0 0-.4 0-.6.2 0 .5 1 .4.7 1H10c0 .2-.3 0-.3.3.2 0 .3.2 0 .3-.2.5.3.5.2 1-.6 0-1 .3-2 .3 0 1 1 .8 1 1.2-.6 0-.5.6-.2.8-.4 0-.5.4-.6.7-.3 0-.6.3-.6.4 0 0 .3 0 .2.2.3 0 .4.2.8 0 .3 0 .3.3.6.4 0 .2.5 0 .8 0 0 .2 0 .3.2.2.2 0 .2 0 .2.3 0 .2 0 .4-.2.4h-.6c0 .3.3.4 0 .5-.3 0-.4 0-.4.3s.6.2.4.5c0 .2.3.3.4.5-.3 0 0 .4-.4.4-.3 0-.4.2-.4.4.2.6 1 .8 1.2 1.2 0 .2.3.3.2.5.2 0 .8 0 .6.4 0 .3 0 .4.2.5 0 0 0 .2-.2 0v.4c0 .2-.3 0-.3.4v1.2c0 .2-.8.5-.7 1-.2 0-.4-.3-.4.4h-.4-.2c.2 1-.5.7-.4 1 0 .6 1.3.3 1.2 1 0 .3-.4.2-.4.4.2.4-.4.4-.2.8 0 .4-.7.3-.6.8.3.2.2.8.2 1.2 0 .3.6.2.4.7 0 .5-.5.6-.4 1.3-.4 0-.6 0-.6.4s.8 0 .6.5h.8c0-.2.2-.3.4-.2h1c.3 0 .3-.2.6 0v-.4h2.4c0 .6.4.2.6.3l.8.2h6.4c.3 0 .3-.2.6 0h1.8l.8-.2c.3 0 .4.2.8 0h2.6c.3 0 .4.2.8 0h.4c.6 0 .2-.5.6-.5.3 0 .2.3.4.4.4 0 .3.3.8.2H35.6c.3 0 .3-.2.6 0 .5 0 .8 0 1-.2.4 0 .3.4.8.3 0-.2.3 0 .6 0s.4 0 .8 0h6c.4 0 .5-.2.8 0l2.6-.2c1 .3 1 0 1.8.2.4 0 .4-.2.8 0h.6s.3.2.6 0h.6c.2 0 .5.2.6 0h.6s.4 0 .6-.2h1.2c1.2.3 3.5 0 4.7.3.5-.2 1.5 0 2-.3.5 0 .8.4 1 0 .4 0 .5.2 1 0s1.4 0 2-.2c.3 0 .4.3 1 .3.2 0 .4 0 .7-.2 0 .2.3 0 .6 0 .4 0 .6 0 .8.2 0 0 .3-.3.5-.3h2.2c.5 0 .4.5 1 .4 0-.2.7 0 1 0 .4 0 .5-.3 1-.3.6.3 1.4 0 2.2 0l1.5.3c.8 0 1-.2 1.6 0 .8-.2 1.2 0 1.7 0 0-.2.3 0 .6 0s.3-.3.6-.2H84.8l1 .3c.6 0 1.3 0 2-.2h1.9c-.2.4 1 0 1 .3.7 0 .5-.5 1.3-.4H94l.5.5c.6.2.5-.3 1.2-.2H97c.3 0 .2-.3.7-.2.3 0 .3.2.6 0 .3.2 1 0 1.4 0 1.6-.3 3.2.2 5 0h1.5c.4 0 .7 0 1.2.2.5 0 .6-.2 1.2 0 .7 0 1.8.2 2.4 0 .4 0 .4.3 1 .2.6 0 .8-.3 1.4-.3h3.2c.2 0 .5.2 1 0h1.4c.4 0 1 0 1.4.2 0-.2.2-.3.4-.2 0-.2.3 0 .6 0 .6 0 .8-.3 1.2-.4.4 0 .5.3 1 .3 0-.2 1-.2.8 0 .6 0 .5-.4 1.2-.3h1.4c.3 0 .5 0 .8-.2.3 0 .5 0 .8.2 0-.2.3-.3.6-.3h.8c.4 0 .3-.2.8 0 .6-.2.4.4 1 .3 0 0 .2-.2.4 0h2.6c.6 0 .4-.3.8-.3 0 .3.5.3 1 .3H138.4c.4 0 .3.4.8.3 0-.3.5-.3 1-.3s.6-.2 1-.3c.3 0 .5.2.8.3 0-.2.4 0 .4-.3.3 0 .3-.2.6 0 0 .3 1 0 1 .4h1.4c.8-.2 2.4-.2 3.3 0h.4c.4 0 .5 0 .7-.2.5 0 .4.3 1 .2.2 0 0-.3.6-.3h.8c.2 0 .4.3.7.3s.3-.3.6-.2c0 .4.5.4 1 .4h.8c0-.2.5 0 .5-.3h.6c0-.2.5 0 .5-.3.3 0 .3-.2.6-.3.3 0 .4.2.5.3h.8c.5 0 .4.4 1 .4h1.4c.6 0 .3-.6 1-.5.5 0 0 .5.6.3 0 .4 1 0 .8.3.7 0 .5.5 1 .4 0-.2.4-.2.7 0 0-.3.3-.3.6-.3.2.2.5.2 1 .2.3 0 .5 0 .8.2l.3-.2h.8c.8.8.6-.3 1.3-.2.5 0 .4.4 1 .3h2.2s0 .2.2.2c0 0 .2.2.4 0h1c.2 0 .2-.2.5-.3 0 .2.3 0 .6 0s.4 0 .7 0c.5 0 .4.2 1 0 .4 0 1 0 1.4-.2 0 .2.2.3.5.3.8-.2 1.7 0 2.6 0 .5 0 .7-.2 1-.3 0 .2.4 0 .7 0 .4 0 .4.3.8.2h1.9l.6-.3h.7c.4 0 .5.2.8 0 .5 0 1 0 1.2.2 0-.2.4 0 .4-.3.5 0 .7 0 1-.2l1 .3c1.2 0 2.3 0 3.2.2h1c.4 0 .4.3 1 .2.4 0 .3-.4.8-.3l2.6-.2c.6 0 .8.2 1.4.3.6.2.7 0 1.2 0 0 .2.7 0 1 0h1.4l1.8.2c.4 0 .8-.2 1.2-.4.5.2 1.2.2 1.8.3h.8c.5 0 1 0 1.2-.2H212v.2H212.6c.5 0 .4-.4 1-.3 0 .3.7 0 1 0l1.2.2c.5-.4 1 0 1.8 0h2.2l.8-.2h1.4c.3.2 1 0 1.4 0l3.3-.2c.4 0 .5.3 1 .3h.8l.8-.2c.3 0 .4.2.8 0l1.5-.2H233.3c0 .2.3 0 .6 0s.2.3.5.2c0-.2.5 0 .8 0 .4 0 .3-.5.8-.4 1 0 1.3-.2 2-.3 1.7.7 4.4.3 6.4.5.6 0 .6-.2 1-.3 0 .2.5 0 .8 0 0 .3.6.2.6.4.5 0 1-.2 1.6 0 .2 0 .3-.2.4-.4.3 0 .2-.2.4-.3 0 .2.7 0 1 0 .2.2.7.2 1.2 0h.6c0-.2.4 0 .6-.3.6 0 .5.2 1 0l.8-.2c.5 0 .4-.2 1 0 .6 0 .3.6 1 .5 0-.2.6 0 .6-.3h1c.4 0 .3.2.8.2h1.2s.4-.2.4 0H264l1 .2c.7 0 .5-.5 1.2-.4 0 .2.4 0 .4.3.4 0 .4.3.8.2.8-.2 2 0 2.6-.3H273.4s.2-.2.2 0l.4-.2h4c.2 0 1 0 1 .2h1c.5 0 .6.2 1 0h.7c.5 0 .8.2 1.4 0 1 .2.6-.5 1.5-.3.6 0 1.4 0 2 .3.3 0 .3-.2.6 0 .7 0 .6.2 1 0 0-.3 1.2.2 1-.2h1.9s.2.2.5 0c.5 0 .8.3 1.4.2.5 0 .7-.2 1.3-.3h1.4c.3.2 1.2 0 1.8 0 .3 0 .5 0 .8-.2.3.2.5.2.8 0 .7.2 1.3.3 2 0 0 .2 0 .3.3.2.3 0 .3.2.6 0 0 0 .3-.2.7-.2h2.6c.5 0 .4-.4 1-.4 0 0 .2 0 .2.3 0 0 .2.2.4 0 .3 0 .4.3.7.2.8 0 1-.2 1.6 0 .6 0 .7.3 1.4.2 1.7 0 3.6-.5 5.3 0 1-.2 2 0 2.8 0 .2 0 0-.2.2-.2h4.6c.6 0 .4-.3.8-.3 0 .2.2.2.4.3.2 0 .3-.2.4 0h1c.5.2.4 0 1 0h5.4c.6 0 .5.2 1 .2h6.5c.4 0 .4-.3.8-.3h.6c.2 0 .6 0 .6.2.5 0 .8-.2 1.4 0 .7 0 1 0 1.6-.2 0 .2.3.2.6.2h.8c.6 0 1.3 0 1.6-.2.3.2 1 0 1.4 0l1.4.2c.5-.3 1.6 0 2.4 0 .4-.2.5-.4 1-.4.3 0 .3.2.6 0h.6c.4 0 .5.2.8 0 0-.2 1 0 1.2 0h1.4c.4 0 .3.3.8.2.5 0 .4-.2 1 0h.6c0 .2.3 0 .6 0 1 0 2-.3 3.3-.2.5 0 .4.2 1 0 .3 0 .7.2 1 0h.4c.7.3 1 0 1.4 0 .5.2 1.4 0 2 0 .7.2.5-.3 1-.2.3 0 .6.2 1 0 .7 0 .6.3 1 .2.3 0 .6-.2 1 0 .7 0 .8-.2 1.3-.2l.4.2.6.2h4c.5 0 .6-.4 1-.4h.7c.2 0 .6 0 .6.3h2.4c.8-.7 2.2-.4 3.3-.6h1.5c.2 0 .6 0 .6.2.6-.2.6 0 1.2 0 .5 0 .4-.3 1-.2 1 .2 2.7 0 4 0 .4 0 .4-.2.7-.2h6c.4 0 .4.3.7.3s.2-.3.5-.2c0 .2.3 0 .6 0h.7c.4 0 .4.2 1 0 .6.2.6-.2 1.2-.2h2.3c.7 0 1 .2 1.6 0 .7.4 1.7 0 2.3 0 .4 0 .6.3 1 .2h2.1c.4 0 .7-.3 1.2-.3h2.2c.4 0 .5.2.8 0H423c.6 0 1.3 0 2-.2h3.4c.2 0 .5.2 1 0 .3.2 1 0 1 .2.5 0 .4-.2 1 0h.8c.7-.3 2 0 3 0 .4 0 .5-.3 1-.2.7 0 .7.2 1.3 0h1.2c.5 0 .4-.5 1-.4l.6.2c.2.2.5.2 1 .3.8 0 1.7 0 2-.3.4 0 .5.2 1 0 .2.2.4-.4.5 0h.2c.2 0 .2-.2.2-.2h.5s.6.5.6-.3h1c.7 0 .5.4 1 .4s.5.5 1 .4c.7 0 .7-.3 1.3-.3.8.2 1.2 0 1.8 0 .4 0 .4.2.7.3H454.6c.3 0 .3.2.6 0h.8l1.7-.2c.4.2.6.6 1.2.6h2c.6 0 .3-.5.7-.5.2.2 0 .5.6.4 0-.2.4 0 .4-.3-.2 0-.3 0 0-.2h1.5c.4 0 .5.2 1 0 .4.2.3 0 1 0 0 0 0 .2 0 0 .4 0 .4-.2.7 0 .4 0 .2.4.8.3.8.2.3-.4 1-.3 0 .3.7 0 1 0 0 .2-.3.3 0 .4 0 0 .2 0 .2.2h.4c.7 0 1.5 0 2-.2h2.5c.8.2 1.4 0 2 0h1.6c.3 0 .6.2 1 0h1c.6 0 .7-.2 1-.3.4.2 1.3.2 1.5 0 0-.2.3-.2.2-.4-.2 0-.2-.2-.2-.4 0-.5 0-1-.2-1 .4 0 0-.5.6-.4-.2-.3.5-.2.5-.4.6 0 .4-.3.8-.3.5 0 .2-.5.6-.5.2 0 .3.2.7 0 0 .3.4.2.6 0 .2-.6-1.3 0-1.2-.7.3 0 .4.2.5 0h.2v-.3c0-.2 0-.4-.2-.5-.5 0 .3-.2 0-.5-.6-.3-1-.6-1.4-1 .4 0 .3-.3.5-.4 0 0 .3 0 .2-.3.5 0 .4-.5.4-.8v-.4h-.7c0-.3 0-.4.2-.5h-.6c-.3-.5.2-.7 0-1 0-.4-.5-.3-.3-.6 0-.3 0-.7-.2-.8 0 0 .2 0 0 0 0-.3 0-.4-.2-.5.5 0 .7 0 .6-.4.4 0 .7 0 .7-.3.3 0 .5-.2.8-.3 0-.3-.4-.3-.2-.7 0-.2.2-.2.4-.3 0 0 0-.3-.2-.3 0-.2 0-.3.2-.4 0-.3 0-.7.2-.8-.3 0-.3 0-.3-.3h-.4c-.3-.2-.7-.3-.6-.6 0-.3.5-.3.8-.4.2-.4-.6-.3-.4-.7V71l-.3-.3c0-.3.7-.4.8-.7-.6-.2 0-.5.2-.7.4 0 1.3.3 1.4 0 0 0 0-.2-.3-.2h-.6c0-.4.5-.3.5-.5l.2-.3c.3 0 .2-.2.4-.3 0-.2.3-.3.3-.4 0 0 0-.3.2-.3l.2-.3c.3 0 .2-.2.4-.3v-.5c.3 0 .4-.4.5-.7.4 0 .7-.3 1-.4 0 0 .4 0 .4-.2 0 0 0-.2.3-.3V64h.2c0-.3-.2-.3-.2-.5.7 0 1-.3 1.4-.7.8 0 .8-.6 1.4-.7 0-.6.7-.6.5-1.3.4-.2.8-.3.8-.7-.2-.5.2-.6.2-1l-.4-.8h7-.2c0-.3.2-.4.2-.5-.7 0-1-.2-1-.5.8 0 .3-.5 1-.4-.2-.5-.2-1.2-.2-2 0-.3-.8 0-.6-.4-.2-.4.3-.4.2-.7l-1.6-.3c.2-.2.6-.3.4-.8h-.8c.3-.2.4-.3.4-.5 0 0 .4 0 .6-.2 0-.5.3-.6.2-1 .6 0-.2-1 .4-1 .4 0 .7.4.8 0h.8c.7-.2.7-.8 1.8-.7 0-.3-.3-.3-.8-.3 0-.3-.7-.3-.6-.7.2-.3.7-.5.8-.8.3 0 .3-.2.6-.3 0-.3.5-.3.6-.4 0-.4-.3-.5-.4-.8.3 0 .2-.2.4-.3 0-.2.3-.2.2-.4 0-.2-.3-.2-.2-.6.2 0 .3 0 .3-.3v-.4s.6-.2.6-.5c.4 0 .6 0 .7-.4.6 0 .5-.2 1 0 0-.4-.3-.5-.2-1h1c.4 0 .2-.4.6-.4.3-.4 0-.4 0-.7 0 0 0-.2 0 0V40s0 .3.7 0h.7c0-1-1.3-.7-1-1.6-.5 0-.4.2-1 0-.2 0-.3-.3-.2-.6h-.6c-.2 0-.2-.3-.2-.5 0-.4 1-.2 1.4-.4 0-.3 0-.4.4-.4 0-.2.2-.2.4-.3 0-.6.4-.8.2-1.5h1.4c0-.3-.2-.4-.4-.5 0-.3-1 0-.6-.4v-.3zm-399.6-5l-1 .2h-1l-.5.2c-.4.3-1 .8-2 .8h-9.6l-7-.2c-.3 0-.6.3-1 .5-.4.3-1 .8-1.8 1-.4 1-.8 2-1 3v1h-.3v2H84v2.2h-.5v.2c0 .4-.3.7-.4.8 0 .6 0 1-.2 1.4v.7l-.3.4c0 .2-.2.5-.2 1.3l-.4 1c-.2.6-.3 1-.5 1 .2 2-.3 3.3-.8 4.3 0 1-.2 1.8-.5 2.4-.2.5-.3.8-.3 1.3 0 1.2-.3 2-.6 2.7-.2.5-.3.8-.3 1.3v1h-.3v.3l-.2 1H78v.2c-.2.3-.3.8-.7 1.2 0 1.8-.4 3-.8 4.4-.3 1-.7 2.2-.7 3.5v.7h-.4v1.6l-.2.3s-.2.4 0 1.2l-.5 1c0 .6-.2 1-.4 1.2 0 .6-.2 1-.4 1.3-.2 0-.2.2-.2.3l-1.2 1h-.3l-1 .4v.5l-1.3.2c-2.5 0-4-1-5.5-2h-.3L64 77c-.6-1.5-1-3-.8-5V72l.3-1c.3-.7.5-1.3.4-2v-1c.2-1 .4-1.8.2-3l.4-1.2c0-.5.2-1 .4-1 0-.6 0-1.2.4-1.6 0-1.3.3-2.2.6-3 0-.2 0-.4.2-.6 0-1 .4-1.6.6-2 .3-.4.4-.6.2-1l.4-1.4c0-.5.3-1 .5-1.2 0-.4.2-.7.3-1 0-.6.2-1 .3-1.3v-.4l.6-1.2.3-.5c0-1.2 0-2 .2-3l.2-1.4v-1h.3c0-.5-.2-1 0-1.6l.2-.6h.2c0-.6.3-1 .5-1.2 0-.7.4-1.3.8-1.8 0-.6.2-1 .4-1.4V35c0-.8.4-1.4.6-2l.3-.8c-.3.5-1 .8-2.3.5h-.3c-.4 0-.6 0-1 .3-.6.3-1.3.6-2.5.5-2.5 0-4.5.6-6.6 1l-1 .3c-1.3.3-2.5.8-3.8 1.3-.8.4-1.7.8-2.6 1-.8.7-2 .7-3.3.8h-.6c-.3.3-.7.4-1 .4-.3 0-.5-.2-.7-.3h-.3l-.3-.3-.6-.3-1.3-1-.2-1c-.2-.2-.6-.6-.7-1.2v-.7-.5c0-.6-.3-1.4.3-2v-1.2l.2-.4c.3-.5.7-.6 1-.8 0-.4.3-.8.7-1 .2-.2.4-.3.7-.3 0-.2.2-.3.4-.4.3-.2.7-.3 1-.2.3 0 .6-.4 1-.5H51l.7-.5 1-.7c1 .2 1.5 0 2-.4l1.6-.6c.2-.3.6-.5 1.2-.6.4-.2.8-.6 1.4-.6.3 0 .4 0 .7-.2l1-.4h.2l10-.5 5.6-1 1.8-.3.2-.3c.2-.2.5-.7 1-1l.7-.5v-.7l4-.2h.8c1 0 1.6.4 2 .7v.2l1.3.2-.3.8c.2 0 .5 0 .7.2l4.2-.2c2.2.5 4.6.8 6.8 1l3 .5c.7 0 1.3.2 1.6.4h.8c1.3 0 2.2.3 2.8 1 .2 0 .6 0 1 .2 1 .2 3 .6 3 3v1h-.4v.3l-.2.7-1.7 1zM161 46.3l-.3.7c-.2.3-.5.5-.8.6v.6l-.3.8h-.2v.2l-.2 1h-.2v.3h-1.3c0 1 0 1.5-.3 2-.2.4-.2.6 0 1v1c0 1 0 2.3-.4 3.2.2 1.3 0 2.4 0 3.4-.3 1-.4 2-.2 3.2.2 1.2-.3 2-.6 2.3-.2.4-.3.4-.2.7l.2 1-.6.2v.7c0 .5-.3.8-.4 1v.3c-.5 1-1.2 1.7-2 2.2 0 .2 0 .5-.2.7 0 .2-.4.4-1 .4 0 .2-.3.4-.4.4H150l-1.3-.3h-.2l-1-.2v-.2h-.3v-1c0-.4 0-.4-.3-.4l-1-1.3c0-1-.2-1.7-.6-2.5 0-.3-.3-.6-.4-1V66.7c.2-1 .2-2.4.3-3.7 0-1.5 0-3 .3-4.3.4-2 .3-4.7 0-7.4-.4 0-.7-.2-1-.4H143c-1.3 0-2 .2-3 .5l-.8.2-4.8.2c-.6.4-1.4.5-2 .5h-.8l-.6.2-.7.3c-.7.5-.6.6-.6 1v.3c0 .6-.4 1-.6 1.4-.2.4-.3.5-.3.8l-.5 1c0 .4-.3.8-.7 1v.2l-.2.3c0 .5-.3 1-.4 1.2l-.4.8v.2c-.3.3-.4.5-.4.8 0 .8 0 1.4-.5 1.8 0 .6-.3 1.3-.8 2 0 .4-.3.7-.4 1 .2.5 0 1-.3 1.4 0 1-.7 1.4-1 1.6v.7l-1.2.4c-1 .2-1.8.5-3.2.5-.6.5-1.4.5-1.8.5h-.5l-1 .2-.2-.6h-1l-.4-.5-.8-1.3-.8-1.5V68c-.4-1.7 0-3 0-4l.2-.4c0-.8.3-1.5.5-2s.3-1 .3-1.4v-.4l.2-.3.2-1c0-.5.2-1.2.7-1.8l-.6-1c-.6-1-1.2-2-1-4-.4-1.6.4-2.5 1.2-3 0-1 .6-1.4 1-1.7l.6-1.4c.3 0 .5-.3.8-.4.2 0 .4-.3.6-.4.3-.6 1-.8 1.2-1v-.5l.7-.3c.3-.2.6-.6 1.3-.6l1.2-.5c0-.3.4-.7.8-1l.6-1.3c.4-.8.8-1.5 1-2.4v-.5c.2 0 .3-.5.3-.8 0-.4.2-1 .4-1.3.2-1 .4-1.6 1-2-.2-1.4 0-2.3.3-3 .2-.8.4-1.3.3-2v-.4l.3-1.7c0-1.3.3-2.7 1-3.7l.4-.6h.8c.4-.5 1-1 2-1h2.5s1 0 1.4 0h.5l1.3-.7.4-.3c.4-.8 1.4-1 2-1l.3-.2v-.5h.8l1.5-.3c1 0 2 .3 2.6.5.6 0 1.2.3 2 .3h1l.2.7c.8.2 1.2.5 1.5 1l.5.4.8.4h.3v.4c.5.4.7 1 .8 1.3 0 .3.3.7.5.8l.7 1c0 .3.3.4.4.7l.4.6h.6l.2 1c.2.7.5 1.4 1 2.2l.2.6v.3c.2.3.5.7.6 1.2l.5 1c-.2 1.7.2 3 .6 4.2.4 1.3.8 2.7.8 4.6 0 .3 0 .4 1.3.6h1l.2.6c0 .3.2.5.5.8.4.5 1 1 1 1.8l.3.5v.2c-.5 0-.3.5-1 1zm83.5-25v.3c0 .5 0 1.4-.5 2 0 .5 0 1-.4 1.5 0 .5 0 1.2-.5 1.6 0 .4 0 .7-.2 1 0 .3 0 .7-.3 1v.2c0 .2 0 .3-.2.5l-.4.6v.8l-.5.6V33h-.4v1.2h-.5l-.2.7v.7l-.7.3c-.3 0-.5.4-.6 1.6v.6l-.6.3-.3.5c0 .4-.4 1-1 1.4 0 .8-.5 2-1.6 2.6 0 .4-.2.8-.5 1.2 0 .5-.2 1-.6 1.6 0 .4-.3.7-.4 1v.7l-.5.2c0 .3-.3.6-.7 1l-.8 1.6c-.5 1-1 2-1.2 3v.7l-.7.2v1.1l-.6.4-.4.2v.6h-.5c0 .4-.3.8-.7 1 0 .3-.3.5-.6.8 0 1.3-1.3 1.8-1.8 2-.2 1-1 1.5-1.2 1.8l-.3.2-.2 1h-1c-.4 0-.8.2-1.3.5-.6.2-1.4.6-2.6.6l-1 .4v.6l-4.5.2-.2-.6c-.3 0-.7-.3-1-.8h-.4l-1.4-1.4c-.3-.2-1-.6-1-1.5-.5-.3-1-.7-1-1.4v-.4h-.7v-1.4h-.8v-1l-.3-.2-.2-.7c-.2-1-.5-1.5-1-2.3v-.2c-.3-.4-.7-1-.7-2h-.3v-1c-.3-1-.6-2-1-2.8l-1-2.8c0-.3-.2-.6-.5-1s-.7-1-1-1.8c-.8-.4-1-1.2-1.3-1.7l-.3-.5-.7-1c0-1.5-.7-1.8-1-1.8l-.7-.3v-.5c-.2 0-.5-.3-.7-.7v.7c-.2.6-.3 1.3-.6 1.8.2 1.8-.3 3-.7 4l-.2.7v1.5c0 1-.2 2-.7 3-.3.8-.4 1.8-.5 3v1.2l-.5 1c0 .6 0 1-.4 1.4 0 .6 0 1.5-.5 2 0 1-.3 1.6-.6 2s-.5 1-.4 1.7v.6c-.4 1-.6 2.4-1 3.8-.2 1.7-.5 3.4-1 5h-.2v.2c-1 .8-1.7.8-2.3 1h-.8c-.4.4-1 .8-2.5.7h-1c-.6 0-1.3-.2-2-.5-1 0-2-.5-2.5-1.3-.5-.6-.8-1.5-.8-2.6V66c0-.4-.2-1.6.6-2.2.3-1 .3-2.2 0-3.5l.5-1.2c0-.4.3-.8.5-1 0-.5.3-.8.4-1 0-.7.2-1.2.4-1.5 0-.5 0-1.5.4-2 0-1 .3-1.8.6-2.5l.2-.6c0-1 .3-1.6.6-2 .2-.4.3-.4.2-.7v-.4c0-.6.3-1.2.4-1.7.4-1.6.7-3 .7-5v-1h.4c0-.5.2-1 .4-1 0-.6 0-1 .4-1.5 0-.8 0-1.5.2-2l.2-1c0-1 0-1.5-.2-1.8-.7-.2-1.7-1-1.6-3v-1h1c0-.3.5-1 1.3-1 .2-.4.3-.8.6-1 0-1.2 1-1.8 1.3-2.2.3-.3.4-.4.4-.6v-.8l1-.2h1.4c.2-.4.5-.6.8-.6h1.7c.2-.5.5-.6.7-.7 1-.2 1.8 0 2.2.3.4.2.5.2.8 0h.2c1 0 1.6.3 2.2 1l.2.2v.2h.2c.4 0 1 .3 1.4.8 1 .3 2 .8 2.6 1.8.6.3 1 .7 1.3 1l.8.7 1 1v.4l.3.6c.3 0 .5.2.6.3l1 1.2c0 .3.2.4.5.8.3.3.7.7.8 1.3v.4c0 .3 0 .4.4.8.2.3.5.7.7 1.3 0 .3 0 .4.2.6l.7 1.2c.5.3.7 1 .8 1.2l.8 1.3c0 1.3.3 2 .8 2.8l.3.5c.7 1.4 1 2.7 1.3 4l.6 1.4.8 1.6c.3.3.5.7.6 1l.5.2v.4h.4s.3 0 .4-.2v-1h.7v-.2c.2-.4.4-1.3 1-1.7.3-.2.4-.6.5-1 .3-.8.6-2 1.4-2.6 0-1 .5-1.4.8-1.6l.5-1.3c0-.3.3-.7.7-1 .2-1 .8-1.6 1.2-2h.3l1-1.2c0-.3 0-.7.4-1 0-.7.3-1 .5-1.5l.3-.6v-.5l.6-.3s.2 0 .3-.2c0-.6.2-1 .5-1.4 0-.7.4-1.2.6-1.6l.3-.5.2-1h.3c0-.5.3-.8.4-1 0-.5 0-1 .2-1.4.2-.4.2-.6 0-1 0-1 .3-1.7.4-2 0-.5 0-1 .4-1.4-.2-1.8.4-3 1-4 0-.3.3-.6.4-1l.2-.6h.7c1-.3 1.5-.6 2.3-1l.6-.3h.3c2 .2 4 .6 5.5 1.5l.7.4v.5h.6v1h.2l.2.7c.4 1 0 1.7-.2 2zm58.2 21.5v2c-.2 1.5-.4 3 0 4.7l-.5 1.2v1.6h-.4v1.6h-.4v1.6h-.5v.2l-.3.7h-.3c0 .4-.3.8-.7 1v.2l-1 1-.2.5c0 .3-.2.6-.4 1-.3 1-1 1.5-1.5 2-.5.6-1 1-1 1.5l-.3.5h-.4c-.3.3-.7.7-1.3.7-.4.5-1 .7-1.2.8l-.3.4c-.3.3-.8.5-1 .6h-.2l-.2.4c-.3.4-.8.6-1 .7h-.2l-1.4.7h-.4c-.3.3-.7.6-1.4.7l-.6.4-1.2.7-.3.2c-.2.2-.5.4-1 .5-.3 0-.6.2-.7.3l-1.3.7c-1.6 0-2.8.4-4 .8l-2 .5h-.5c-.6 0-1-.2-1.3-.3-.6 0-1 0-1.5-.4h-.8c-.7 0-1.5 0-2-.5-1 0-1.8-.4-2.5-.6-1-.3-1.6-.6-2.6-.6h-1.3V70c-.8-.3-1.3-.6-1.5-1-.4-.3-.6-.6-.7-.8L259 68h-.4c-.7 0-1-.4-1.2-.6-.7-.4-1-1-1-1.4h-.6l-.2-.8v-1.4l-.7-.8v-.6c0-.5 0-.8.2-1 0-.6 0-1.5.5-2 0-.6 0-1.2.5-1.6 0-.7.4-1.2.6-1.5.2-.3.3-.4.2-.7v-.4c0-.5.4-1 .6-1.3.3-.6.4-.8.3-1.3l.4-1.2.4-.7c0-.4.3-.7.4-1 0-.7.4-1 .5-1.4.3-.5.4-.7.3-1.2l.7-1.3c.3-.2.5-.5.6-1.7V44l.2-.3.3-.8c.2-.6.4-1.3 1-1.8 0-1.7.4-3.4 1-5-.2-1.2.6-1.8 1-2l-.2-.4v-.3l.6-1.2.4-.8.6-3c.5-2.6 1-5.2 2-7.6.2-1 1-1.8 2-2.3l5.2-.4.2.6c.3 0 .7.2 1 .6.2.2.4.5.5 1 .5.3.7.8.8 1l4-.3h2.7c1 0 1.7.4 2.2.7.5.3.6.3 1 .2l1.4.4h1.6v.4h.5l1 1h.3c.4 0 1.2.4 1.6 1l1 1v.3h.3l1.3 1.3c.3.2 1 .6 1 1.5.6.5.7 1 .8 1.4v.2l.8 1c0 .4 0 .5.4 1l.7 1c.2.3.6.7.6 1.4l.5 1c0 2.2.4 3.7 1 5.3l.3 1.3v.2zM380.2 25c0 .7-.2 1-.3 1.4l-.2.4-.5 1.2c0 .2-.2.4-.4.6-.2.8-.8 1.4-2 1.8l-1 1h-1.4c-1.2 0-2-.3-2.8-.7-.5-.3-1-.5-1.5-.5l-3 .2c-2 0-3.6-.2-5.3-.4-.7 0-1.3 0-2-.2-.2 0-.5 0-.7.2-.6.2-1.3.5-2.2.5l-.2.2v.7h-2.5c-.4.2-.8.2-1.2.2-1 0-1.7-.3-2.4-.5l-1.5-.3c-.3 0-.6 0-1 .3-.6.2-1.3.5-2.2.5-.6.4-1.4.5-1.8.5h-.8c-.2 0-.5.4-1 .5v.2l-.2.7h-.4c0 .4-.4.8-.8 1v2.3l-.2.3c-.2.3-.3.5-.3.8 0 .4.2 1.4-.3 2 0 .8-.2 1.3-.4 1.6v.2h2.7c1-.4 2 0 2.4 0 .4.3.6.3 1 .2h1.2l1.4-.2c.5 0 1.3 0 2 .4h1.5l.8-.2c.7 0 1.2.2 1.5.5l3.3.3c3.4.3 7 .6 10.8.4h.5l1.2.2c.8 0 1.5.2 2.3.5h2.2c.8-.2 1.6-.2 2.3-.2 1.2 0 2 .2 2.7.6l.5.4v.5c.5 2.4-.5 4.2-2.7 5-1 1-2.7 1-4.3 1h-2c-.5 0-1 .2-1.3.5-.6.3-1.4.7-2.6.7h-.6c-1 0-1.7.2-2.5.5l-.8.3h-.4c-1-.2-2.3-.3-3.5-.3-1.7 0-3 .2-4 .6h-.2c-.3.2-.6.2-1 .2-.8 0-1.4-.4-1.8-.6-.4-.3-.5-.4-.8-.4h-.2c-.5 0-.8 0-1.2.3-.6.2-1.5.5-2.8.3h-.8v-.4h-2.3c-1.2.3-2.2 0-2.8 0-.5-.2-.8-.3-1.3-.3h-.3c-.8 0-1.2 0-1.8.3l-1.2.3c-.2 0-.5.4-.6 1.5 0 .7-.2 1.2-.3 1.5l-.2.3c0 .6 0 1-.3 1.2 0 1-.7 1.4-1 1.6l-.3 1.4V62h1c.6 0 1 .3 1.2.5l8-.4h1.2c.4-.4 1-.7 2.3-.5h.5c.6 0 1.6 0 2-.2l.2-.3h.4c1-.3 1.8 0 2.4 0 .5.3.7.3 1 .2 2.3-.7 5.2-.8 8-1h1.2v.5h1l.8.4h.4l.4.3s.3 0 .5.2c.6.2 2 .7 2 2.5.6 2-1 2.7-1.4 3h-.3c-1 .8-2.2 1-3.4 1l-.2.2c-.2.4-.6 1-1.4 1.2-.4.3-1 .5-1.4.6-.3 0-.7.2-.8.3l-.3.3h-.7v.5l-7.7.5-2 .5c-1 .3-2 .5-2.8 1l-.4.2h-1.4l-.4-.2-.8.2h-.7c-.3.3-.8.8-1.8.7H338c-2 0-4 0-5 .7h-.7c-2.2 0-3.4 0-5.5.3-.5 0-1 0-1.7.2h-.4l-.4-.3-.5-.2c-.6 0-1.7-.3-2.2-1.3-.4-.2-.7-.5-1-1-.2 0-.4-.3-.5-.5l-.8-1.2.2-1.3c.2-.6.3-1 0-1.8 0-1.2.4-2 .7-2.4.3-.3.4-.4.3-.7v-.3l.2-.5c.7-1.7 1.4-3.3 1.5-5.5v-1h.5V57l.2-1H323.3c0-.3.2-.5.4-.7 0-1 .4-1.6.6-2l.3-.6c0-1-.2-1.7-.6-2.5-.3-1-.8-2-.7-3.7v-.8h.5c0-.8.4-1.3.8-1.5.3-.6.8-1 1.5-1.2l1-1c.4-.3.5-.5.6-.7 0-1 .4-1.6.6-2l.2-.4c-.2-1 0-1.7.4-2v-.3c0-1 .3-1.6.4-1.8 0-.8 0-1.3.4-1.6 0-.5.3-1 .4-1V32l-.2-.7.3-.5c.2 0 .3-.5.3-.8 0-.4.2-1 .4-1.4 0-1 .3-1.6.8-2.2 0-1 .6-1.4 1-1.7l.5-1.4c.4-.2.6-.4.8-1l1.2-.7h.2c.3-.3.7-.7 1.5-.7.3-.3.6-.4.8-.4l21.2-1.7c1.4-.5 3-.6 4.6-.8 2-.2 4.4-.4 5.8-1.2h.4c1-.4 2 0 2.6 0 .3.2.5.3.8.3h.5c1.3-.4 2.2 0 2.8.4.5.2.6.3 1 .3l1.2 1.2.4.5.4.6.8 1.3c0 .4 0 .6.2 1 0 .5.4 1.2.2 2.4zm83.8 8.4c.2 1 0 1.7-.3 2v.5c.2.2.5.7.5 1.6L464 39c-.2.5-.3 1 0 1.7 0 1-.3 1.5-.5 1.8 0 .5 0 1.4-.3 2 0 1.2 0 2.2-.2 3-.2 1-.3 2 0 3.2v.2h-.2c-.8 3.2-1.3 6-1 9.5.4 1.4-.5 2-1 2.4l-.3 1c0 .5 0 1-.3 1.4 0 .8-.3 1.4-.5 1.8v.2c0 .5 0 1.2-.4 1.7l-.5.5-1.4 1h-1c-.4.3-1 .7-2.2.6-.3.2-.6.2-1 .2-.5 0-1-.2-1.3-.3l-.7-.3h-.7l-.4-.6c-1-1.3-1.6-2.8-2.3-4.4l-.2-.3c-.3-1.5 0-2.5.4-3.3.3-.7.5-1.2.3-2v-.4l.2-.5c.4-1.2.8-2.4.6-4 0-1.2.3-2 .6-2.4.2-.4.3-.6 0-1V51c.2-1 .6-2 1-2.8l-.3-3.4.5-3c.4-2 .8-3.8 1-6l-.2.2-1 .6-.4.6v.6l-.6.3c-.6.5-1 1-1.4 1.6l-.2.5-.3.2v.2c0 .4-.2 1.3-1 1.7-.3 1-1 1.6-1.7 2v.4c-.3.5-.6 1.4-1.4 1.8-.5.7-1 1.3-1.6 1.8 0 1.3-1 2-1.7 2.2v.4c-.3.5-.6 1.5-1.6 2 0 .6-.6 1-1 1.3h-.3v.7l-.6.3c-.5.4-1 1-1.3 1.5v.3c-.4.6-1 1.7-2.2 2 0 0-.3 0-.4.2v.5l-.5.2c0 .3-.3.6-.6 1l-1 1-.3.2-1 1v.5l-.4.3-.4.2-.2.6-.5.2-.4.2-1 1-1.2.5c-2 0-3 .4-4.3 1l-.3.2-1.4.2c-1 0-1.7-.4-2.2-.6l-1.2-.4-1-1-.4-.8c-.2-.6-.5-1.4-.4-2.4-.3-.4-.5-1-.5-1.7l-.4-1.3c0-.5-.2-1 0-1.5v-1c-.2-.6-.2-1-.2-1.6v-1.4c-.7-.8-.7-2-.8-3v-1c0-.5 0-.7-.2-1-.2-.5-.4-1-.5-1.7-.2-.8 0-1.5 0-2 .3-.7.4-1 .2-1.8v-.4c0-.5 0-.7-.3-1-.3-.5-.5-1-.6-1.7l-.2-4.6c-.2-.2-.4-.5-.5-1v-1l-.3-.5-.5.5c-.2 1-.8 1.3-1 1.5l-.8 1c-.3 0-.4.3-.7 1-.3.6-.7 1.3-1.4 1.8 0 .5-.5.8-.7 1l-.6 1.3c-.4.2-.6.4-.7.7 0 .8-.6 1.3-1 1.5l.2.3v.5c-.3.8-.8 1.4-1.4 1.8 0 1-.3 1.5-.5 2s-.3.8-.3 1.3v.2c0 .6-.5 1-.7 1.3l-.2.3v.8l-.4.2-.4.7c0 1.3-.3 2.4-.6 3.5-.3 1-.5 2-.5 3.2 0 2.8-1 4.7-2 6.3l-.5.7h-.6l-1.6.4c-1 .4-2 .7-3.7.5h-1V67c-.7 0-1.3.2-1.7 0-.5 0-1-.5-1.2-.7l-.2-.2-1-1v-4c0-2 0-4.2.5-6 0-1.3.5-2.2 1.3-2.7 0-.4.2-.8.5-1.2 0-1 .2-1.8.5-2.4l.3-1.4v-.8h.4V44h.5c0-.5.2-1 .5-1 0-1.2.5-2 .8-2.7l.5-1c0-.8.3-1.5.5-2 .2-.6.4-1 .3-1.7v-.2c.3-1.6.8-3 1.3-4 0-.8.2-1.4.3-1.7v-.4l.2-.3.2-.2c0-.4.2-1 .6-1.3 0-.6.4-1.2 1-1.6 0-.6.4-1.2 1-1.6.6-1 1.6-2 3.6-2.4 2.8 0 4.2 1.3 5 2.6.3-.2.5-.5.6-.8 0-.3.4-1 .8-1.2 0-.5.4-1 .7-1 .2-.5.5-1 1-1.2l.6-.5v-.6l.8-.2c.2 0 .3 0 .5-.3.4-.4 1-1 2-1 1.7 0 2.8.3 3.7.7.3 0 .5.2.8.3h.4l.2.4c.6.8 1.3 1.5 2.2 2l.4.2v.5l1 3 1 3v.2c0 1.4.3 2.5.6 3.7.2.5.4 1 .5 1.8v.2l.4 6.3.6 2.5c.7 2.8 1.4 5.8 1.5 9.3h.6l.3-.4c.2-.3.5-.8 1-1l.5-1 .3-.4h.3c0-.2.2-.4.4-.6l.4-.4h.2l.4-.5.2-.2.6-.4s0-.3.3-.5l.4-.4h.2l.3-.4h.2c0-.2.2-.4.4-.6l.5-.4.4-.5h.2c0-.2.4-.5.8-.7 0-.3.3-.5.6-.8 0-.5.4-1 .7-1.2.3-.6.8-1.5 2-1.8.2-.6.4-1.4 1.2-2 .2-.4.6-.7 1-1l.2-.2V36c.3-1 1-1.6 1.7-2 .7-.7 1-1 1-1.7v-.5l.4-.3c1.2-1 2.2-2 3-3.3l.2-.3.4-.2c.5-.2.7-.6 1-1.3.4-.6.8-1.3 1.5-2 0-.8.5-1.5.8-2l.4-.4c0-.8.4-1.4.6-1.8.2-.3.3-.4.2-.7v-.7l.5-.4 1.4-1 1-1 .8-.5v-.6l1-.3c1-.2 1.8 0 2.2.4.4.2.4.2.6 0l1.4 1 .6.4c.5.3 1.3 1 1.5 2 .4.3.5.7.6 1h.5l.2 1v1h.5v1l.2 1.4c0 1.6 0 3.3.5 4.5l.2.4v.5c.2.5 0 2 .3 4z" /></g></svg>