<svg xmlns="http://www.w3.org/2000/svg" id="Layer_1" viewBox="0 0 510.4 134.9"><path fill="fill:#F4C522" id="Main_Logo_1_" d="M144.3 60.6v1.1c-.3 0-.8.5-.9.7-1.1 0-2.2.1-3.2.2-2.2.2-4.4.3-5.9.1.1-.8.4-1.4.7-2.1.4-.9.8-1.9.9-3.2.6-.5.9-1.2 1-1.6 0-.1.1-.2.1-.3.3-.2.4-.5.5-.7l.6-.8c.1-.1.2-.3.3-.6l.2-.1c.4-.2.9-.4 1.3-.8l.2.1c.1.4.4 1 1 1.3.1.2.1.3.1.5l.6 1.1c.1.2.2.4.4.6 0 .5.2 1.1.6 1.5v1.3c.3.3 1.4 1.5 1.5 1.7zm145.1 3.6c-.3-.7-.7-1.6-.7-2.9-.2-.2-.3-.4-.4-.5l-.5-.1-.1-.8c-.1-.2-.3-.4-.5-.8-.9-.5-1.3-1.3-1.7-2.1-.8-.1-1.5-.2-2.4-.3-.5-.1-.8-.3-1-.4h-.1c-.2 0-.3 0-.5.1-.5.1-.9.1-1.4 0l-.2-.1c-.2.1-.5.2-.8.2h-.1c-.7.3-1.4.7-2.2.9-.2.5-.6.9-1 1.2-.1.9-.6 1.3-.9 1.5l-.4 1.3c0 .7-.3 1.1-.5 1.3v.1l-.1.2c-.1.1-.1.3-.2.5-.1.4-.4 1.1-.9 1.6 0 .9.1 1.8.1 2.7l-.7 1.1c-.2.1-.2.1-.2.4l-.5 1.2c0 .3-.1.6-.3.9 0 1-.3 1.6-.6 2.1s-.4.8-.3 1.6l-.6 1.3v.1c-.1.3-.2.6-.4.9-.1.4-.3.7-.5 1-.1.3-.3.5-.4.8l-.1.1c-.4.9-.8 1.9-1.1 2.9.1.1.2.2.4.2.4.3.7.5 1 .6h.1c.9 0 1.5.4 1.9.6.5.3.6.3 1.1.2h.4c.5.1.7-.1 1.2-.4.3-.2.7-.5 1.2-.7l.3-.1c.3 0 .5-.1.8-.3l.2-.2h.3c.2 0 .5-.1.8-.1h.3l.1-.4.8-.1c.9-.2 1.7-.6 2.5-1 .9-.5 1.9-1 3.3-1.2.7-1.1 1.5-2 2.5-2.8.3-.7.8-1.3 1.5-1.7l.1-.3c.2-.5.4-1.2 1.1-1.7.1-.8.3-1.6.5-2.3.3-1 .5-1.9.6-3l-.1-1.9c-.2-.3-.4-.8-.7-1.4zm219.7-14.6c-.3.7.7.1.6.6.3.1.4.3.4.6-.3.3-.9.2-1.4.2.2.9-.3 1.3-.2 2.2-.2.1-.4.2-.4.4-.3-.1-.4.2-.4.4-.4.2-1.3 0-1.4.6 0 .3 0 .6.2.6.2.1.3.2.6.2-.1.5 0 .8.2 1 .6.2.5-.3 1-.2-.3 1.3 1.1 1 1 2.2-.2.1-.3.2-.6.2-.2 0-.1 0-.1.2-.6.2-.7-.3-.7-.2v.4s.1 0 .1.2c-.1.5.2.4.1 1-.4 0-.2.7-.7.6-.4 0-.5.2-.9.2-.1.6.2.7.2 1.2-.5-.1-.5.4-1 .2 0 .5-.3.8-.8.8.1.5-.6.8-.6.8v.8c0 .2-.1.3-.2.4-.2.6.3.5.2 1 .1.3-.2.3-.2.6-.2 0-.1.4-.4.4.1.4.5.6.4 1.2-.2.2-.6.1-.6.4-.3.1-.3.3-.6.4-.1.5-.6.7-.8 1.2-.1.6.6.5.6 1 .5-.1.9.1.8.6-1.1-.2-1.1.7-1.8 1h-.4v-.2c-.2 0-.2.2-.4.2-.1.6-.4-.2-.8 0-.6 0 .2 1.4-.4 1.4.1.7-.3.8-.2 1.6-.2.2-.6.1-.6.4 0 .3-.2.5-.4.6.1.3.5.2.8.2.2.7-.2.8-.4 1.2.6 0 1.1.2 1.6.4.1.5-.4.4-.2 1-.2.6.7.3.6.8 0 1 0 2 .2 2.7-.7-.1-.3.8-1 .6 0 .6.4.8 1 .8 0 .1-.3.4-.2.6 0-.1.3.2.2.2h.2c.2.3.2.7.4 1 0 .6-.4.8-.2 1.6 0 .6-.5.7-.8 1 .2 1-.6 1-.4 2-.6.2-.6 1-1.4 1-.3.5-.7.9-1.4 1 0 .4.2.4.2.8 0 0-.2.1-.2.2v.6c-.2.1-.4.2-.4.4-.1.2-.4.1-.4.4-.4.2-.6.5-1 .6-.1.5-.2.8-.6 1 0 .4.2.4.2.8-.2 0-.1.4-.4.4 0 .2-.2.2-.2.4-.2 0-.2.2-.2.4s-.2.2-.2.4c-.2.1-.1.4-.4.4 0 .2-.2.2-.2.4 0 .4-.6.2-.4.8 0 .2.4.2.6.2.2 0 .2.2.4.2-.1.7-1 .3-1.4.2-.1.2-.8.7-.2 1-.1.5-.7.5-.8 1 .1.2.2.3.2.6s0 .6.2.6c-.2.6.6.4.4 1-.3.2-.8.2-.8.6 0 .5.3.6.6.8 0 .2.2.2.4.2 0 .2 0 .3.2.4-.2.2-.2.7-.2 1.2-.1.2-.2.3-.2.6.2 0 .2.2.2.4-.2.1-.4.2-.4.4-.2.6.3.5.2 1-.3.1-.5.3-.8.4-.1.3-.4.5-.8.4.1.5-.1.8-.6.8.1.2.2.3.2.6.2 0 .1.2 0 .2.2.2.2.7.2 1.2-.1.5.4.4.4.8 0 .6-.4.8-.2 1.6 0 .2.4.2.6.2-.1.2-.2.3-.2.6 0 .2.4.2.6.2 0 .2.2.2.2.4 0 .5.1 1.2-.4 1.2.1.3-.2.3-.2.6-.2.1-.1.4-.4.4.3.7.8 1.2 1.4 1.6.3.5-.5.7 0 .8.2.2.2.4.2.8v.4c0-.1-.3.2-.2.2-.1 0-.2-.3-.4-.2-.1.9 1.4.2 1.2 1.2-.2.1-.6.3-.6 0-.4.1-.5-.1-.8-.2-.4 0-.1.7-.6.6-.4 0-.3.5-.8.4 0 .4-.7.1-.6.6-.5-.1-.2.6-.6.6.3.3.2.9.2 1.4 0 .3 0 .6.2.6.1.3-.2.3-.2.6-.3.3-1.1.3-1.4 0-.4.1-.5.4-1 .4-.5-.1-.8 0-1 .2-.5.1-.8 0-1-.2-.4 0-.4.2-.8.2s-.4-.2-.8-.2c-.6 0-1.2.4-2 .2-.7-.1-1.5-.3-2.4-.2-.6.2-1.5.2-2 .4 0-.2-.3-.2-.4-.2 0-.2-.1-.2-.2-.2-.3-.1 0-.2 0-.4-.3-.1-1.1.2-1-.2-.7-.1-.3.8-1 .6-.6.2-.4-.5-.8-.6-.3-.1-.4.2-.6.2 0 .2-.2.1-.2 0-.6-.2-.5.3-1 .2-.4.1-.5-.1-.8-.2-.4 0-.4.2-.8.2l-.2-.2h-.4c-.3.1-.2.4 0 .4 0 .2-.4.1-.4.4-.5.1-.4-.3-.6-.5-.4 0-.1.7-.6.7h-2.2c-.6 0-.8-.5-1.2-.7-.6.1-1.1.2-1.6.4-.3 0-.8-.1-.8.2-.3.1-.3-.2-.6-.2-.2 0-.4 0-.4-.2-.2 0-.2.2-.4.2s-.4 0-.4.2c-.2-.2-.5-.2-.8-.2-.3-.1-.3-.3-.6-.4-.7 0-1 .3-1.8.2-.6 0-.6.4-1.2.4-.6.1-.6-.5-1.2-.4-.4 0-.3-.6-.8-.6h-1c0 1.1-.6.2-.6.6-.2-.1-.3-.2-.6-.1 0 0 0 .2-.2.2h-.2c-.1-.6-.3.3-.6.2-.4.1-.5-.1-.8-.2-.5.4-1.3.5-2.2.4-.4 0-.7-.1-.8-.4-.3 0-.5-.1-.6-.4-.6-.1-.5.5-1 .6-.5 0-1 0-1.2.2-.6.1-.6-.3-1.2-.2-.6-.1-.7.2-1.2.2-.9.1-2.2-.2-2.8.2-.4 0-.4-.2-.8-.2-.6-.2-.5.3-1 .2 0-.4-.7-.1-1-.2-.5.1-.8-.1-1-.3-.2 0-.1.3-.4.3H433c-.1 0-.2-.2-.4-.3-.2.2-.5.3-.8.2-.3 0-.7-.3-1-.2-.6.1-1.3.2-1.8.4-.2 0-.4 0-.4-.2-.2 0-.2.1-.2.2-.4 0-.4-.2-.8-.2h-2.2c-.5 0-.8.2-1.2.4-.5 0-1 0-1.2-.2-.2.2-.5.2-.8.2-.4.1-.6-.2-1-.2-.7 0-1.6.3-2.4-.2-.7.3-.9 0-1.6 0h-2.4c-.6 0-.6.5-1.2.4-.7.2-.6-.2-1-.3-.3 0-.6 0-.6.2-.3 0-.6.1-.6-.2-.3-.1-.4.2-.6.2-.3.1-.3-.4-.6-.4h-6.1c-.3 0-.4.4-.6.4-1.4-.1-3 .3-4.1-.1-.6-.2-.5.3-1 .2-.6-.2-.6-.4-1.2-.2 0-.2-.4-.4-.6-.4h-.6c-.4 0-.4.1-.8.2-1.1.2-2.5-.2-3.3 1H390c-.6 0-.4-.3-1-.2 0-.2-.4-.2-.6-.3-.2-.1-.3-.1-.6-.1-.5 0-.6.5-1 .5h-4.1c-.3 0-.3-.4-.6-.4-.2 0-.4-.1-.4-.3-.5 0-.6.3-1.2.2-.5-.1-.8 0-1 .2-.5.1-.4-.4-1-.2-.5.1-.8 0-1-.2-.6-.1-.4.5-1 .4-.7-.1-1.6.1-2-.2-.4-.1-.8.5-1.4.2-.1 0 0-.2-.2-.2-.3 0-.1.1-.2.2-.3.1-.7-.1-1 0-.6.2-.5-.3-1-.2-1.4-.1-2.1.3-3.3.4-.3 0-.6 0-.6-.2-.3 0-.6 0-.6-.2-.6-.2-.5.3-1 .2-.6.1-.4-.4-.8-.4-.5.1-.8.3-1.4.2-.4.1-1.2-.2-1.2.2-.4 0-.4-.2-.8-.2-.3 0-.6 0-.6.2-.3.1-.3-.2-.6-.2-.5 0-.6.3-1 .4-.8.1-2-.2-2.4.2-.5-.1-.8-.3-1.4-.2-.5 0-1.2.1-1.4-.1-.3.3-1 .3-1.6.3h-.8c-.3 0-.6 0-.6-.3-.5.1-.9.2-1.6.2-.7-.1-.9.1-1.4.2 0-.2-.4-.2-.6-.2-.3.1-.3-.1-.6-.1-.4 0-.4.3-.8.3h-5.7c-.4 0-.5.1-.8.1-.5.1-.4-.4-1-.2-.3 0-.7-.1-1 0-.4 0-.4.2-.8.2.1 0-.1-.2-.2-.2h-3.5c-.6-.2-.5.3-1 .2 0-.2-.4-.2-.4 0-.2-.1-.3-.2-.6-.2-.1-.3-.2 0-.4 0-.2-.1-.4-.2-.4-.4-.4 0-.3.5-.8.4-.3 0-.8-.1-.8.2-.3-.3-1.2-.2-1.8-.2.1.1-.2.2-.2.2v-.2c-.1 0-1.5-.1-1.8 0-.1 0 0 .2-.2.2-.9.1-1.9-.1-2.8 0-1.7-.5-3.6.1-5.3.2-.7.1-.8-.4-1.4-.4-.8-.1-.9.3-1.6.2-.4 0-.4-.2-.8-.2-.2 0-.4 0-.4-.2s-.1-.2-.2-.2c-.6-.1-.5.6-1 .6h-2.6c-.4 0-.7.2-.8.4-.3.1-.3-.2-.6-.2-.2 0-.4 0-.4-.2-.6.3-1.2 0-1.8-.2-.3.2-.5.2-.8 0-.3.1-.5.3-.8.4-.6 0-1.5.1-1.8-.2-.2 0-.2.2-.4.2s-.4-.3-1-.2c-.6 0-.8.4-1.4.4-.7.1-.9-.1-1.4-.2-.3.1-.4-.2-.6-.2-.3 0-.6 0-.6-.2-.5 0-.6.3-1.2.2.1.5-1.1-.2-1 .4-.5.1-.4-.4-1-.2-.3-.2-.3-.1-.6 0-.6-.2-1.4-.2-2-.4-.9-.2-.7.7-1.4.6-.7.1-1-.1-1.4-.2-.4-.1-.5.1-.8.2-.4 0-.4-.2-.8-.2-.6-.1-.7.1-1.2.1 0-.4-.7-.3-1-.3h-3c-.4 0-.5 0-.8-.1-.2 0-.2.3-.4.3 0-.2-.2-.1-.2 0-.4.1-.5-.1-.8-.2-.3.3-1 .2-1.6.2-.5.1-.8 0-1-.2-.8.3-1.9.2-2.6.4-.4 0-.4-.2-.8-.2-.1-.2-.4-.1-.4-.4-.7-.1-.5.7-1.2.6-.5.1-.8-.3-1-.4-.1.3-.5 0-.8 0h-2.2c-.3 0-.4.1-.6.1 0-.2-.4-.1-.4-.1h-1.2c-.6 0-.4-.5-.8-.5-.2.2-.5.2-1 .2 0 .3-.6.1-.6.4-.8.1-.4-.8-1-.8-.6-.2-.5.3-1 .2-.5-.1-.8 0-.8.4-.5.1-.4-.4-1-.2-.2.2-.6.1-.6.4-.2.1-.3.2-.6.2-.5 0-1 0-1.2-.2-.3-.1-1 .2-1-.2-.2 0-.1.4-.4.4-.1.2-.2.4-.4.4-.7-.1-1.1.1-1.6.2 0-.3-.6-.1-.6-.4-.3 0-.8.1-.8-.2-.4.1-.4.6-1 .4-2-.3-4.7.3-6.5-.6-.7.1-.9.6-1.8.4-.6-.1-.4.4-.8.4-.3 0-.8-.1-.8.2-.3.1-.4-.2-.6-.2-.3 0-.6 0-.6-.2-.3-.1-.4.2-.6.2-.5 0-.6-.3-1.2-.2-.6 0-1 .2-1.4.4-.4.1-.5-.2-.8-.2-.3 0-.5.2-.8.2h-.8c-.5 0-.6-.3-1-.4-1.3-.1-2.3.1-3.3.4-.5 0-1.2.1-1.4-.2-.2.1-.4-.1-.6 0-.1 0 0 .2-.2.2s-.3-.2-.6-.2c-.4 0-.4.1-.8.2-.7.1-1.3-.1-2.2 0-.8.2-1.4-.4-1.8 0-.5 0-.6-.3-1.2-.2-.3-.1-1 .2-1-.2-.6-.1-.5.5-1 .6h-.4v-.2h-.2v-.2c-.1-.1-.3 0-.4 0 0 0 0-.3-.2-.2-.2.2-.7.2-1.2.2 0 .2-.2.1-.4.2 0 .2-.2.2-.4.2-.6-.1-1.3-.2-1.8-.4-.4.2-.8.3-1.2.5-.6 0-1.5-.3-1.8-.3h-1.4c-.3 0-1.1.3-1-.1-.5 0-.6.4-1.2.2-.6 0-.8-.3-1.4-.4-1 0-1.7.3-2.6.4-.6-.1-.4.4-.8.4-.6.2-.6-.3-1-.4-.2.2-.5.3-1 .2-.9-.2-1.9-.2-3-.2-.5-.1-.8-.2-1.2-.4-.2.2-.5.2-.8.2 0 .2-.4.1-.4.4-.2-.2-.7-.2-1.2-.2-.4 0-.4-.2-.8-.2-.3 0-.6 0-.6-.2-.3.1-.3.3-.6.4-.3 0-.6 0-.6.2-.5-.1-.8-.3-1.4-.2-.4 0-.4-.2-.8-.2-.3 0-.6 0-.6-.2-.4.1-.7.4-1 .6-1-.1-1.9-.5-2.6-.2-.4.1-.4-.1-.4-.4-.5.1-1 .2-1.4.4-.6.2-.5-.3-1-.2-.3-.1-.4.2-.6.2-.3 0-.6 0-.6-.2-.3.1-.3.3-.6.4-.3 0-.8-.1-.8.2-.2 0-.4 0-.4-.2-.2 0-.2-.2-.2-.4-.5 0-.6.3-1.2.2-.3.1-.4-.2-.6-.2-.2 0-.2.2-.4.2-.6.2-.5-.5-1-.5-.7-.1-.5 1.5-1.2.3h-.8s-.2.1-.2.3c-.3-.1-.5-.2-.8-.3-.5.1-.8 0-1-.1-.3 0-.6 0-.6.2-.3 0-.6 0-.6.2-.6.1-.4-.5-1-.4.1-.5-1 .1-.8-.4-.7.3-.1-.5-.6-.4-.8-.1-.4.9-1 .9h-1.4c-.6 0-.5-.7-1-.7-.4 0-.4.2-.8.1-.1-.2-.2-.4-.4-.4-.3.1-.3.3-.6.4 0 .2-.4.1-.4.4-.3 0-.6 0-.6.2-.1.2-.4.1-.4.4-.2 0-.2-.2-.4-.2 0 0-.1.2-.2.2h-.2c-.5 0-1 0-1-.4-.3-.1-.3.3-.6.3-.4 0-.5-.3-.6-.3h-.8c-.5 0-.4.3-.6.5-.6.2-.5-.3-1-.3-.2.1-.3.2-.6.2-.2 0-.4 0-.4.2-.8-.3-2.4-.3-3.3 0-.2-.1-.4.1-.6 0-.1 0 0-.2-.2-.2s-.3.3-.6.2c0-.6-1-.2-1-.8-.3-.1-.3.2-.6.2 0 .2-.4.1-.4.4-.3-.1-.5-.3-.8-.4-.4.1-.5.4-1 .4s-1 0-1 .4c-.6.1-.4-.4-.8-.4-.3-.1-.4.2-.6.2-.5 0-.6-.3-1.2-.2-.5 0-1 0-1-.4-.4 0-.3.5-.8.4-.3.1-.3-.2-.6-.2-.5.1-.8.3-1.4.2-.3 0-.6 0-.6-.2-.2 0-.4 0-.4.2-.6.1-.4-.7-1-.6-.6-.1-.4.2-.8.2h-.8c-.3 0-.6.1-.6.4-.3-.1-.5-.2-.8-.3-.3.1-.5.3-.8.4-.5-.1-.8-.3-1.4-.2-.8-.2-.6.5-1.2.4.1-.3-1-.3-.8 0-.5 0-.6-.3-1-.4-.4.1-.6.5-1.2.4-.3 0-.6 0-.6.2-.2 0-.4 0-.4.2-.5-.1-1-.2-1.4-.4-.2.1-.2.2-.4.2h-.4c-.3.1-.4.1-.6.2-.5.1-.8 0-1-.2-.2.2-.5.3-1 .2-.7-.1-1.3-.3-2.2-.2-.6 0-.8.4-1.4.4-.6.2-.6-.3-1-.4-.6.4-1.7.1-2.4 0-.6-.1-.7.2-1.2.2-.5-.1-.8-.2-1.2-.4-.2.1-.2.2-.4.2h-.4c-.3.1-.4.1-.6.2-1.9.2-3.5-.6-5.1 0-.5 0-1.2.1-1.4-.2-.3.2-.3.1-.6 0-.6-.1-.4.4-.8.4-.5 0-.6-.3-1.2-.2-.8-.2-.6.5-1.2.4-.1-.3-.2-.5-.6-.6-.3-.1-.7 0-1 0-.3 0-.4-.1-.6-.2-.8-.1-.6.8-1.4.8.1-.5-1.1.2-1-.4-.3-.1-.4.2-.6.2-.5-.1-.8-.3-1.4-.2-.6.1-1.3.2-1.8.4-.5-.1-.8-.2-1.2-.4-.3-.1-.3.2-.6.2-.2 0-.2-.2-.4-.2-.3-.1-.3.2-.6.2s-.6 0-.6.2c-.5-.1-.9-.3-1.6-.2-.7 0-.9.3-1.6.2-.6 0-1.2-.2-1.6-.4-.8-.1-1.6.5-2.2 0-.5 0-.6.3-1 .4-.3.1-1.1-.2-1 .2-.6.1-.5-.5-1-.6-.2.1-.2 0-.4 0-.3.1-.9 0-1.2 0h-.6c-.2 0-.4.2-.4.4-.2-.2-.5-.1-.8-.1-.3 0-.6.1-.6-.2-.3.1-.5.3-.8.4-.5 0-.6-.3-1-.4-.6.2-1.3.2-1.8.4-.6.1-.7-.2-1.2-.2-.1.6-.4-.2-.8 0-.7.2-1.7.1-2.2.4-1.2-.5-3.5.1-4.7-.4-.1.1-.5-.1-.6 0v.2c-.3 0-.3-.2-.6-.2-.2.2-.6.1-.6.4-.2-.1-.3-.2-.6-.2-.1.3-.4 0-.6 0-.2.1-.3.2-.6.2-.3.1-.3-.2-.6-.2s-.6 0-.6-.2c-.4 0-.4.2-.8.2-.8-.2-.9 0-1.8-.2-1 .1-1.9.5-2.6.2-.4 0-.4.2-.8.2h-.6c-.2 0-.2-.2-.4-.2-.3 0-.3.2-.6.2-.2 0-1 .1-1.4 0-.2 0-.2-.2-.4-.2-.4 0-.4.2-.8.2-.6.1-1.2-.1-1.8 0-.4.1-.5-.1-.8-.2-.3 0-.6 0-.6.2-.6.1-.4-.4-.8-.4-.2.2-.5.3-1 .2-.3-.1-.4.2-.6.2-.2 0-.4 0-.4.2-.5-.2-1.1-.3-1.8-.2h-.6l-.2-.2c-.4 0-.4.2-.8.2-.6.1-.4-.4-.8-.4-.2-.2-.1-.5-.4-.6-.4.1 0 .9-.6.8-.2 0-.4 0-.4.2-.4.1-.5-.1-.8-.2-.6.2-1.6.2-2.6.2-.4.1-.5-.1-.8-.2-.4 0-.4.1-.8.2-.6.1-1.2-.1-1.8 0-.3 0-.4.2-.6.2-.7.1-1.7-.1-2.4 0-.6-.2-1.4-.2-2.2-.2-.5.2-1.1.3-1.8.2-.4 0-.4-.4-.8-.4-.2-.2-.5.5-.6-.4h-2.4v.4c-.3-.1-.4.2-.6.2 0-.2-.4-.2-.6-.2-.2 0-.2.2-.4.2s-.4 0-.4.2c-.2.2-.5.2-.8.2.2-.6-.7-.3-.6-.8 0-.4.2-.6.6-.6-.1-.9.5-1.1.4-2 .2-.6-.3-.6-.4-1 0-.6.1-1.4-.2-1.8-.1-.6.5-.5.6-1-.1-.6.4-.6.2-1.2 0-.4.6-.2.4-.8.1-.9-1.1-.5-1.2-1.2-.1-.6.6-.2.4-.9.2 0 .2-.1.2-.1H10c0-1.1.2-.6.4-.6-.2-.7.6-1.1.6-1.4v-1.8c0-.5.2-.4.2-.8.2 0 .1-.2.1-.4.2 0 .1-.1.2-.2-.1-.2-.2-.3-.2-.6.1-.5-.4-.4-.6-.6.1-.4-.1-.5-.2-.8-.3-.6-1-.8-1.2-1.6 0-.3.2-.5.4-.6.3 0 .1-.6.4-.6-.1-.3-.3-.5-.4-.8.1-.5-.4-.4-.4-.8 0-.3.2-.5.4-.6.3-.1-.1-.3 0-.6.2-.1.3-.2.6-.2.2 0 .2-.2.2-.4s0-.3-.2-.4c-.2 0-.2-.1-.2-.2-.3 0-.8.1-.8-.2-.3-.1-.3-.3-.6-.4-.4.1-.5-.1-.8-.2.1-.2-.2-.2-.2-.2 0-.2.3-.4.6-.6.1-.5.2-.8.6-1-.4-.9-.5-1.8.1-1.8 0-.6-1-.2-.8-1 .8.1 1.3-.2 1.8-.4.1-.6-.4-.7-.2-1.4.3 0 .2-.4 0-.4 0-.2.4-.1.4-.4.2-.1.3-.2.6-.2.2-.9-.7-.6-.6-1.4.2-.2.6-.1.6-.4.2-.1.1-.4.4-.4-.1-.4.1-.5.2-.8.2-.2.1-.5.4-.6 0-.8-1-.7-1-1.6 0-.5.3-.6.6-.8 0-.2.2-.2.2-.4s0-.3.2-.4c-.2-.8-.3-1.7-.2-2.8.2-.2.5-.3 1-.2.1-.5-.5-.7-.5-.8v-1c0-.7.6-.6.5-1.2.2-.4.4-.7.4-1.2.3-.1.3-.3.6-.4 0-.2.4-.1.4-.4.1-.9-.7-.8-.8-1.4 0-.4-.6-.2-.4-.8-.2 0-.4 0-.4-.2s-.1-.2-.2-.2c.3-.3.2-1 .2-1.6.1-.6-.6-.4-.4-1-.2-.3-.2-.7-.6-.8 0-.4.2-.4.2-.8.2-.6-.6-.4-.4-1 .5-.2.5-.8.6-1.4.2-.6-.6-.4-.4-1 0-.2-.1-.2-.3-.2-.2 0-.1-.2-.1-.2v-1.2c0-.4.3-.2.1-.8.2-.1.2-.2.3-.4.3-.1.3.2.5.2 0-.2-.1-.4-.2-.4-.2 0-.2-.1-.2-.2-.3-.1-.3-.3-.6-.4.1-.4-.1-.5-.2-.8-.1-.4-.5-.4-.8-.6-.1-.6.5-.6.4-1.2 0-.5-.3-.6-.4-1 0-.2 0-.3.2-.4-.1.4-.4.4-.5.4-.1-.5.2-.4.2-.8v-1.8-.8c-.2 0 0-.4-.3-.4-.2-.6.3-.5.3-1s-.3-.6-.6-.8c-.1-.4-.5-.4-.8-.6.1-1-.2-1.5-.2-2.4-.4-.5-.6-1.1-1-1.6.1-.6-.6-.4-.4-1-.3-.1-.5-.3-.6-.6 0-.2.4-1.1-.3-1.2.1-.3.4-.3.4-.6.1-.2.2-.4.4-.4.1-.7-.8-.5-.6-1.4.6.1.4-.4.6-.6.4.1.5-.1.8-.2.1-.6-.2-.7-.2-1.2.5 0 0-.6-.2-.6-.1-.5.4-.4.4-.8s-.2-.4-.2-.8.3-.4.2-.8c.1-.3.4-.3.4-.6.1-.7-.7-.5-.6-1.2 0-.2 0-.4-.2-.4.1-.3.3-.5.4-.8-.1-.3-.4-.3-.4-.6 0-.4-.3-.4-.2-.8-.2-.8.9-.4 1.2-.8.1-.8-.8-.5-1-1-.4-.3-.8-.4-.8-1 .2 0 .1-.4.4-.4 0-.2.2-.2.2-.4.4-.1.4-.5.6-.8.5.4.6.2.9.1.3 0 .1-.6.4-.6.1-.1.2-.3.4-.3 0-.9.6-1.3.4-2.4.1-.3-.2-.3-.2-.6-.2 0-.4 0-.4-.2-.2-.7.2-.8.4-1.2-.3-.1 0-.2 0-.4s.2-.2.2-.4c.2-.6-.3-.6-.4-1-.3-.1-.4-.4-.4-.8.3-.2.8-.2.8-.6.3 0 .5.1.7.3v-.5H10c-.5.1-.7-.1-.6-.6-.8.1-.7-.6-1.6-.4 0-.3.1-.7-.2-.8-.1-.7 0-1.3.2-1.8-.1-.2-.2-.3-.2-.6-.2 0-.4 0-.4-.2.1-.5-.4-.4-.4-.8 0-.5.3-.6.4-1 0-.5-.4-.6-.2-1.2.3-.1.2-.6.8-.4-.2-.5-.5-1-.8-1.4-.2-.6.3-.6.4-1 0-.4-.6-.2-.4-.8-.1-.4 0-.6.4-.6.2-.6-.7-.3-.6-.8-.4-.1-.4-.5-.8-.6-.1-.6.6-.4.4-1 .5 0-.3-.3 0-.8 0-.2-.4-.2-.6-.2.1-.3-.2-.4-.4-.4-.2-.6.3-.6.4-1-.3-.3-1-.1-1-.6-.4-.1-.5-.4-1-.4 0-.3-.2-.4-.2-.8-.6.2-.5-.3-1-.2-.1-.5-.6-.7-.8-1.2h-.6v-.2H.8c0-.1-.2-.6-.8-.4-.1-.7.3-.8.2-1.6.2-.1.3-.2.6-.2 0 .2.2.1.2-.1.5.1.8 0 .8-.4.5.1.8 0 1-.2.4-.1.5.1.8.2.5-.1.8-.3 1.4-.2.5 0 .6-.3 1.2-.2-.1-.5 1 .1.8-.4.4 0 .4.2.8.2.5 0 .6-.3 1-.4.6-.1.6.3 1.2.2.6-.2 1.5-.1 2-.4.7-.2 1 .5 1.2-.2.4 0 .4.2.8.2.5-.2 1.2-.1 1.6-.4.5 0 .6.3 1.2.2.6.3 1-.5 1.8-.2.1 0 0 .2.2.2.1 0 .2-.2.4-.2.7-.1 2 .1 3.1 0 .6-.1.6.3 1.2.2.3.1.4-.2.4-.4.2 0 .4 0 .4-.2.4.3 1.3.1 2 .2.5 0 .6-.3 1-.4.5.2 1.2.2 2 .2.4.1.5-.1.8-.2.9 0 1.9.1 2.6-.2 0 .2.4.2.4 0 .6-.1.4.4.8.4s.4-.2.8-.2c.3 0 .8.1.8-.2.3-.1.4.2.6.2.3 0 .6 0 .6.2.4-.1.5-.4 1-.4.1.6.4-.2.8 0 .1.1.5-.1.6 0v.2h.4v-.2h.6c.4 0 .6.2 1 .2.7.1 1.7.1 2.4 0h.4c.1 0 0-.2.2-.2h2.2c.4 0 .6.2 1 .2l.2-.2c.2 0 .2.2.4.2h.6v-.2c.4 0 .7.4 1.4.2.1 0 0-.2.2-.2s.6-.1.8 0c.1 0 0 .2.2.2s.3-.2.6-.2.4.1.6.2c.6.2.5-.2 1-.2 0 .2.3.2.4.2h3c.3 0 .8-.1.8-.4.3.1.5.2.8.3.4-.2 1-.3 1.4-.5.1.3.2 0 .4 0s.2.2.4.2c1.4.1 1.5-.1 1.8-.1.4 0 .4.2.8.2.1-.1.5.1.6 0v-.3c.3 0 .3.2.6.2.2-.1.6-.1.7-.4.5.2 1.1.3 1.8.2.4-.1.5.1.8.2 0-.2.4-.2.4 0 .6-.2 1.4-.2 2.2-.2.4-.1.5.1.8.2.9.1 2.1-.2 2.6.2.5-.2 1.2-.1 1.6-.4 1.2-.1 2.2.1 3.3.2.6 0 1.1-.2 1.6-.4.6-.2.5.3 1 .2 1.8-.2 3.4.3 5.3 0h.4v-.2c.4 0 .4.2.8.2.3 0 1 .2 1.4 0 .1 0 0-.2.2-.2 1-.1 2.1.1 3.3 0 .6-.2.5.3 1 .2 0-.5.7-.1.8 0 .5-.1 1-.2 1.4-.4.5-.1.4.4 1 .2.7 0 1.3-.4 2.2-.2.1 0 0 .2.2.2.3 0 .7.1 1 0 .2 0 .2-.2.4-.2s.3.2.6.2c0 0 0-.2.2-.2s.6-.1.8 0c.1 0 0 .2.2.2.1 0 .2-.2.4-.2h1.4c.3 0 .7-.1 1 .2.6.1.4-.5 1-.4.8-.1.9.3 1.6.2.6 0 1.2-.2 1.6-.4.7-.1 1.8.2 2.2-.2.4 0 .4.2.8.2 0-.3.6-.3.6 0 .3-.3 1.2-.2 1.8-.2.5 0 .6.3 1 .4 1-.1 1.7.1 2.2.4.2-.2.5 0 .8 0 .1-.2.2-.2.4-.2h1.2c.3 0 .8-.3.8 0 .4.2.7-.7.8-.1.4.1.5-.2.8-.3.6-.1.4.3.8.3H127.1c.2 0 .4-.1.4 0 .3-.1.5-.4.8-.5.2 0 .4 0 .4.2.2 0 .2-.1.2-.2.3-.1.4.2.6.2.2-.2.7-.2 1.2-.2.6.1.7-.2 1.2-.2.6-.1.4.4.8.4.6.1.7 0 1.2 0 0 .2.4.4.6.4H136.3c.5 0 .4-.5 1-.4 0 .2.2 0 .2-.1.2 0 .4-.1.4-.2 1.2.4 3.1.1 4.7.2.5 0 .6-.3 1-.4.8 0 1.7-.1 2.4.2.6.1.7-.2 1.2-.2 0 .2.4.2.6.2 0-.2.2-.4.4-.4 0 .2.4 0 .6 0h.8c.6 0 .6.5 1 .6.6-.2 1.3-.4 1.8-.7.4.2.6.1 1.2.2l.2.2c.3 0 .3-.1.6-.2.7 0 .8.6 1.6.4.6.2.5-.3 1-.2.1-.2.3-.4.6-.4 0 .2.4 0 .6 0h1.4c.3 0 .6.2.6.4.3-.1.5-.2.8-.3.2 0 .4.1.4.2.2 0 .2-.1.2-.2.3-.1.4.2.6.2.2 0 .1-.4.4-.4.5-.1.4.4 1 .2.6.1.7-.4 1.4-.2.6-.2 1 .4 1.8.2h.2c.1 0 .2.2.4.2s.8.1 1 0c.1 0 0-.2.2-.2s.6-.1.8 0c.1 0 0 .2.2.2h.4v-.2c.2-.1.8 0 1.2 0 .2 0 .4 0 .4.2.5.1.4-.4 1-.2.4-.1.5.1.8.2.5 0 .6-.3 1.2-.2.3-.1 1.1.2 1-.2.7.3 1.2-.2 2.2 0 .6-.2.7.5 1.4.2.1 0 0-.2.2-.2.4 0 .4.2.8.2.3 0 .8.1.8-.2.5-.1.4.4 1 .2.4 0 .4-.1.8-.2.7-.1 1.4.1 2 0 .4.1.5-.1.8-.2 1.4-.1 3.2.2 4.3-.2.1.3.5.2.8.2.4 0 .4.2.8.2h.8c.2 0 .3-.2.6-.2s.3.2.6.2c.3.1 1.1.1 1.6 0 .1 0 0-.2.2-.2h.2c.3 0 .7.2 1 .2 1 .1 1.9-.1 3.1 0 .3 0 .8.1.8-.2.4 0 .4.2.8.2s.4-.1.8-.2l1.2-.3c.4 0 .4-.5.8-.5h1.8c.6 1.1.5 0 1 .1.5 0 1.2.1 1.4.3.1-.1.8-.4.8.1.2 0 .2-.3.2-.6.2 0 .2.4.2.6.2-.1.5-.2.8-.2v.2c.1.1.5-.1.6 0 .5.1.8.4 1.2.6h7.3c.5 0 .6-.5 1-.6.6-.1.7.1 1.2.1.6.1.6-.4 1.2-.2.7.1 1.3.3 2.2.2.6-.1 1.1-.3 1.6-.4.7-.1 1.1.1 1.6.2h1.2c.4 0 .4-.2.8-.2 0 0 .1.2.2.2.2 0 .2-.2.2-.2.4 0 .4.2.8.2.5.1 1.1 0 2 0 .3.1.4-.2.6-.2.7-.1 1.7.2 2-.2.3-.1.4.2.6.2.2 0 .2-.2.4-.2.3.2.5.2.8 0 .3-.1.4.2.6.2.2 0 .2-.2.4-.2s.2.2.4.2.2-.2.4-.2c.5.1.9.3 1.6.2.6.1.6-.3 1.2-.2.5 0 1 0 1-.4.3.2.6.3 1 .4.9.1 2.2-.2 2.9.2.4 0 .4-.2.8-.2h1.6c.3 0 .4-.2.6-.2.2 0 .2.2.4.2.5-.2 1.1-.3 1.8-.2.5-.1.8-.3 1.4-.2 0-.2.4-.1.4-.4.2.1.4.2.4 0 .2.1.3.2.6.2 0 .2 0 .4.2.4.6 0 1.5.1 1.8-.2 1.2-.1 2.7.4 3.7 0 .4 0 .4.4.8.4h5.5c.4 0 .4-.5.8-.4.3 0 .8 0 .8-.3.5-.1.4.3 1 .1.4 0 .4-.3.8-.2 0 .2.2.1.4.2 0 .2.1.2.2.2.6.1.7-.2 1.2-.2 0 .2.4.2.6.2.4 0 .4-.2.8-.2.6 0 1.5-.1 1.8.2.2-.2.7-.2 1.2-.2.6.2.5-.3 1-.2.6-.1.6.3 1.2.2.4.1.7-.2 1-.2.9-.1 1.9 0 2.9 0 .9 0 1.9-.1 2.6 0 .4 0 .4.2.8.2.1 0 1.6.2 1.8 0v-.2h.4v.2c.2 0 .8.1 1.2 0 .1 0 0-.2.2-.2h.2c.3 0 .3.2.6.2.6.1 1.4 0 2-.2.6-.1.7.2 1.2.2.7-.1 1.3-.4 1.8-.6.7-.1 1.3.1 1.8.1h1c.4 0 .5-.1.8-.1.6 0 1.5.2 1.8-.2.8-.1 2 .2 2.4-.2.4 0 .4.2.8.2.7.1 1.5-.1 2.2 0 .6.1.4-.4.8-.4.1.6.4-.2.8 0 .6-.1.7.2 1.2.2.7.1 1.8-.2 2.2.2.3.1.4-.2.6-.2.2 0 .4 0 .4.2.4 0 .7-.1.8-.4.4.1.4.6 1 .4.3 0 .6 0 .6-.2.3 0 .6 0 .6-.2.4.2.7.3 1.2.4.9-.2 1 .1 1.8-.2.8.1 2.3.4 3.1 0 .4-.1.5.1.8.2.2-.1.3-.2.6-.2.4 0 .4-.2.8-.2 0-.2.4-.1.4-.4.6-.1.4.4.8.4.5.1.4-.4 1-.2.6-.2.6.3 1 .4.5-.2 1.1-.3 1.8-.2.4.1.5-.1.8-.2.4-.1.5.1.8.2.5-.5 2 .1 2.4-.4.4 0 .4.2.8.2.6.1.7-.3 1.2-.3 0 .4.9.1 1.2.1h1.4c.5 0 .4-.2 1-.1.4 0 .3-.5.8-.3.1.3.5.2.8.2.3 0 .6 0 .6.2.6-.2 1.4-.2 2.2-.2.9.2 2.1.2 3.3.2h1.2c.3 0 .8.1.8-.2.9.3 2.3.2 3.5.2.6-.1.7.4 1.4.2.9-.1 1.7-.2 2.4-.4.6-.2.5.3 1 .2.4.1.5-.1.8-.2.7.3 1.3-.2 2.4 0 .2 0 .4 0 .4-.2.2 0 .4 0 .4-.2.2.1.3.2.6.2 0-.2.2-.2.4-.2.1.6.4-.2.8 0 .5-.1.4.4 1 .2.3 0 .8-.1.8.2.3.1.3-.2.6-.2.2 0 .2.2.4.2.3-.2.5-.2.8 0 .2-.1.3-.2.6-.2.2 0 .4 0 .4-.2.3-.1.4.2.6.2.2.1.4.2.4 0 .3 0 .6 0 .6.2.2 0 .4 0 .4.2.4-.1.5-.4 1-.4.1.6.4-.2.8 0 .8 0 1.7 0 2.2-.2 0 .2.2.2.4.2 0 .2.1.2.2.2.6.1.7-.2 1.2-.2 0 .2.3.2.4.2.3 0 .8.1.8-.2.5 0 .6.3 1 .4.4-.1.5-.4 1-.4.3 0 .6 0 .6-.2.5.1.9.3 1.6.2.3.1.6-.2 1-.2.7-.1 1.5 0 2 .2.8-.2 1.9-.2 2.4-.6.9.1 1.8.2 2.6.4.6.1.7-.2 1.2-.2 1.1.2 2.1-.3 3.3 0l.2.2h.4v-.2c.2-.1.8-.1 1.2 0 .2 0 .2.2.4.2.1 0 .2-.2.4-.2h1.4c.6-.2.5.3 1 .2.1-.4.4 0 .6 0 .4 0 .4-.2.8-.2h1.4c.4 0 .7-.1 1-.2.1.3.5.4.8.5.1.3.5-.7.8.5h.6c0-1.1 0-.6.2-.7.5 0 .6.2 1 .3.6.1.7 0 1.2 0 0 .2.4-.7.6.4h2c.5-1.1 1-.4 1.4-.7.2 0 .4-.1.4.1.2 0 .2-.3.2-.5.4 0 .4-.1.8-.1h.8c.3 0 .6.2.6.4.3-.1.5-.2.8-.3.3.1.6.2 1 .2h1c.4 0 .4.2.8.2.5.1.8 0 1-.2.2 0 .4-.2.4 0 .2 0 .2-.4.2-.4h.8c.6 0 1.1-.3 1.6-.4.8.3 2.1.4 2.9.4h1.2c.3 0 .8.3.8 0 .5.2 1.1.4 1.8.3.4.1.5-.1.8-.1.9-.1 2.1.1 3.1 0 .3.1.3-.2.6-.2s.6 0 .6-.2c.2.2.7.2 1.2.2.1.3.2-.1.4-.1s.2.1.4.1h2.2c.2 0 .4.1.4.3.3-.1.5-.2.8-.3h.4V1c.2 0 .2-.2.4-.2.5 0 .6.3 1 .4.3 0 .6 0 .6-.2.3 0 .6 0 .6-.2.4 0 .4.2.8.2s.4-.2.8-.2c.6-.1.7.2 1.2.2.2 0 .2-.2.4-.2s.2-.2.2-.4c.4-.1.8.6 1 0 .4 0 .4.2.8.2.3 0 .6 0 .6.2.4-.1.7-.2 1.2-.2.4 0 .8.2 1.2.2h2c.3 0 .3-.1.6-.2.8.2 2.5.3 3.3-.1.6.2.6.1 1.2 0 0 .2.4.1.6.2.2 0 .2.3.4.3.4 0 .4-.1.8-.1h7.3c.3 0 .4.1.6.1.3 0 .6-.1.6.1.3-.3 1-.1 1.2-.4 2.7 0 5.3-.2 7.9-.4.2 0 .2-.1.2-.2.5-.1.9-.3.8.8h.8c.2 0 .4-.2.4 0 .8-.3 2.4-.4 3.3-.1.6 0 1-.3 1.4-.4.3-.1.4.2.6.2.2 0 .3-.2.6-.2s.7-.1 1 .2c.6.1.4-.4.8-.4.8.3 2.1.2 3.3.2.4-.1.5.1.8.2.1-.1.5.1.6 0V.3c.3 0 .3.2.6.2.2-.1.3-.2.6-.2.2 0 .4 0 .4-.2.5.2 1.1.4 1.8.3.5 0 .6.5 1 .5h1c.3 0 .8 0 .8-.3.2 0 .2.1.4.1.4 0 .6.1.6.6.6-.2.5.3 1 .2.2.6-.3.5-.2 1 .1.3.5.2.8.2 0 .2-.2.2-.2.4s.3.4.2 1c.3.1 0 .2 0 .4.1.2.2.3.2.6.1.4.8.2.8.6.1.5-.4.4-.4.8-.2 0-.2.2-.2.4-.2 0-.2.1-.2.2-.4.3-.9.4-.8 1.2-.2.2-.6.1-.6.4 0 .2-.2.2-.4.2 0 .2-.1.2-.2.2.1.3.3.5.4.8.4 0 .5.3.4.8 0 .2.2.2.4.2 0 .2.1.2.2.2 0 .3-.1.8.2.8.1.2.2.3.2.6-.5-.1-.8.1-1 .3-.2.1-.4.7-.4.7h-1c-.1 0-.2.2-.4.3 0 .2.3.1.4.1 0 .2-.1.2 0 .2.1-.3.4.1.4 0v1.4c0 .1.1.4-.2.4 0 .2-.1.2-.1.4.3.1.4-.2.7-.2.2 0 .4 0 .4-.2.3.1.4-.2.6-.2.2 0 .2.2.4.2 0 .5 0 1-.4 1-.1.3-.3.5-.6.6.1.3.4.4.8.4.1.3-.2.3-.2.6 0 .2.3.2.5.2s.5.2.5.2v.8c0 .2 0 .3.2.4.1.3-.2.3-.2.6 0 .2.2.2.2.4.1.5-.4.4-.4.8.2.2.1.5.4.6.1.3.4.3.4.6-.1.8.4 1 .2 1.8.1.3.4.3.4.6.1.2.2.4.4.4-.1.8.2 1.1.2 1.8 0 .8-.8.8-.6 1.8-.5.2-1 .5-1.2 1-.1.5.4.4.6.6.2.2.5.2.8.2.2.3.1.3 0 .6-.3.1-.3.3-.6.4.1.5.7.4.6 1-.6.2.2.5.2.8.2.8-.5.7-.6 1.2.2.2.1.5.4.6.1.3.5.2.8.2.1.2.2.3.2.6.2 0 .4 0 .4.2.5 0 .6.3.8.6.2.7-.5.6-.4 1.2-.1.3.2.3.2.6 0 .2 0 .3.2.4v.4h-.2v.4h-.2c-.1.1-.1.3-.2.4-.1.1-.3 0-.2.2.3.2.5.2.8 0 .4-.1.5.1.8.2.2.7-.2.8-.4 1.2.1.4.6.4.6.8.1.6-.3.8-.4 1.2 0 .5.8.3.8.8.1.4-.1.5-.2.8 0 .7.7.6.8 1.2 0 .4-.3.4-.2.8-.1.7.8.5.6 1.4-.2.2-.5.3-1 .2 5.3-.6 5.1-.5 5.1-.1zm-398.9 1.1l.2-.8v-.2h.4v-1c.1-2.5-2.1-2.9-3.1-3-.3-.1-.6-.1-.9-.2-.6-.7-1.5-1.1-2.8-1.1h-.2l-.2.1-.2.1-.2-.1c-.3-.2-.9-.5-1.7-.4-1-.1-1.9-.3-2.9-.4-2.3-.3-4.6-.6-6.7-1.1h-.2l-4.2.2c-.2-.1-.5-.2-.7-.2l.2-.9-1.2-.2-.2-.2c-.3-.3-.9-.8-1.8-.8-.3 0-.6 0-.9.1H79v.7c-.2.1-.4.2-.6.5-.6.3-.9.8-1.1 1.1-.1.1-.2.3-.2.3l-1.8.3c-1.8.3-3.7.6-5.5 1l-10.1.5h-.3c-.4.1-.7.3-.9.4-.3.2-.4.2-.6.2h-.2c-.7 0-1.1.4-1.3.6h-.1c-.6.1-1 .3-1.2.6-.6.1-1 .4-1.5.6-.7.3-1.2.6-2 .5l-1.1.7c-.1.1-.4.3-.8.4h-.3c-.4 0-.8 0-1.1.1-.5.1-.8.4-1 .5-.4 0-.7 0-1.1.1-.2.1-.4.2-.5.4-.3 0-.5.1-.7.2-.4.3-.5.7-.7 1.1-.3.1-.7.3-1 .8l-.2.3.1 1.1-.1.1c-.5.6-.4 1.5-.3 2.2 0 .2.1.5.1.5l-.1.3.1.3c.2.6.5 1 .7 1.3.3.4.4.5.4.8l1.3 1.2c.2 0 .4.1.7.3l.3.2h.3c.2.1.4.3.8.3.2 0 .5 0 .9-.4h.5c1.2 0 2.5-.1 3.3-.8.9-.3 1.8-.6 2.6-.9 1.3-.5 2.5-1 3.9-1.3l.9-.2c2.1-.5 4.1-1 6.6-1.1 1.2.1 1.9-.2 2.5-.5.4-.2.6-.3 1-.3h.3c1.3.2 2-.1 2.5-.4l-.3.9c-.2.5-.5 1.2-.5 2 0 .1-.1.1-.1.3-.2.3-.4.8-.4 1.4-.4.4-.7 1-.8 1.8-.2.3-.4.6-.5 1.2h-.2l-.2.6c-.2.5-.1 1.1 0 1.6H69v1.1c0 .5-.1 1-.2 1.5-.1.8-.3 1.8-.2 2.9-.2.2-.3.4-.3.6l-.5 1.2c0 .1 0 .1-.1.3-.1.3-.4.7-.3 1.4-.1.2-.3.5-.4.9-.2.2-.4.6-.5 1.2l-.4 1.3c.1.5 0 .7-.2 1.1-.3.4-.6 1.1-.6 2-.1.2-.1.4-.2.6-.3.8-.7 1.7-.6 3-.3.4-.4 1-.4 1.5-.2.2-.4.6-.4 1.1l-.5 1.3c.2 1.2 0 2-.2 3l-.2.7v.2c.1.8-.1 1.4-.4 2.1-.1.3-.2.6-.3 1v.3c-.1 1.8.2 3.3.8 4.9l.1.4.3.2c1.4.9 3 1.9 5.5 1.9l1.2-.1v-.5c.4-.1.7-.3 1-.4.2-.1.2-.1.3-.1l1.1-.9c0-.1.1-.2.1-.3.1-.3.3-.7.4-1.3.2-.2.3-.6.4-1.1l.4-1.1c-.1-.8.1-1.1.1-1.2l.2-.3V95v-1.1l.4-.1V93c.1-1.3.4-2.3.7-3.5.4-1.3.8-2.7.8-4.4.4-.4.5-.9.6-1.2v-.2l.1-.1.4.1.2-1v-.2h.4v-1.1c0-.5.1-.9.3-1.3.3-.7.6-1.5.5-2.7 0-.5.2-.8.3-1.3.2-.6.5-1.4.5-2.4.5-1 1-2.3.8-4.2.2-.2.3-.6.4-1.1l.4-1.1c-.1-.8.1-1.1.2-1.2l.3-.4-.1-.5c0-.1 0-.1.1-.3.1-.3.4-.8.3-1.4.1-.2.3-.4.4-.8v-.2h.4l.1-1v-1.1l.4-.1v-.8-1.1l.3-.1.1-.8c.1-1.2.5-2.2.9-3.1.8-.2 1.4-.6 1.9-1 .3-.2.6-.4.9-.5 2.4 0 4.7 0 7 .1 3.2 0 6.3.1 9.5.1 1 0 1.7-.5 2.1-.8l.4-.3h1l1.1-.1 2.1-1.2zm49.9 16.9l.1-.1-.2-.5c-.3-.8-.7-1.4-1.1-1.8-.2-.3-.4-.5-.6-.8l-.3-.5-.9-.2c-1.3-.2-1.3-.3-1.3-.6 0-1.9-.4-3.3-.8-4.6-.4-1.3-.7-2.5-.7-4.2l-.5-1.1c-.1-.6-.3-1-.6-1.2v-.3l-.3-.6c-.4-.7-.7-1.4-.9-2.3l-.2-.9h-.6c-.1-.2-.2-.4-.4-.6-.1-.2-.3-.4-.4-.6l-.7-1.1c-.1-.1-.3-.5-.5-.8-.2-.4-.4-.9-.7-1.3l-.2-.3-.3-.1c-.3-.1-.5-.2-.8-.4-.2-.1-.3-.2-.5-.3-.2-.5-.7-.9-1.5-1.1l-.1-.7h-1.2c-.7 0-1.3-.2-1.9-.4-.7-.2-1.5-.5-2.6-.5-.5 0-1 .1-1.5.2l-.7.1-.1.5c-.1 0-.3.1-.4.1-.5.1-1.4.3-1.9 1.1-.2.1-.3.2-.4.3l-1.3.6c-.1 0-.3.1-.5.2-.5-.2-1-.2-1.4-.2-.4 0-.8 0-1.3.1h-.6c-.2 0-.4-.1-.6-.1-1.1 0-1.7.7-2 1l-.1.2-.8-.1-.4.5c-.8 1-1 2.4-1.1 3.7-.1.6-.2 1.2-.3 1.7v.4c.1.7-.1 1.3-.3 1.9-.3.8-.6 1.7-.5 3-.5.5-.7 1.2-.8 2.1-.2.4-.3.9-.4 1.4-.1.3-.1.7-.2.8l-.2.2v.3c-.1.9-.5 1.6-.9 2.4-.2.4-.4.8-.6 1.3-.5.3-.7.6-.8.9l-1.2.5c-.7 0-1 .4-1.3.6l-.8.3.1.6c-.3.1-.9.4-1.2.9-.2.1-.4.3-.6.4-.3.2-.5.3-.8.4l-.7 1.4c-.3.2-.9.7-.9 1.6-.8.5-1.6 1.5-1.3 3.2-.2 1.9.5 3 1.1 3.9.2.3.4.6.5 1-.5.6-.6 1.3-.7 1.9-.1.3-.1.7-.2.9l-.2.3v.4c0 .5-.1.9-.3 1.3-.2.6-.4 1.2-.5 2l-.1.4c-.2 1-.5 2.2-.2 3.9l.1.3c.3.5.6 1 .8 1.5.3.5.5.9.8 1.4l.3.5.6.1h.5l.1.6 1.1-.2h.5c.4 0 1.3 0 1.8-.5 1.3 0 2.3-.3 3.2-.6l1.3-.4v-.7c.3-.2.9-.7.9-1.6.3-.3.4-.8.4-1.5.1-.2.3-.5.4-1 .6-.6.8-1.4.8-1.9.4-.4.6-1 .5-1.8 0-.3.1-.4.3-.8l.1-.2c.1-.3.2-.5.4-.8.2-.4.4-.7.5-1.2l.1-.2v-.1l.1-.2c.4-.2.6-.6.7-.9l.5-1.1c0-.3 0-.4.3-.8.2-.3.5-.8.6-1.4v-.4c0-.3 0-.4.6-.8l.1-.1c.3-.1.5-.2.7-.3.3-.2.4-.2.6-.2h.9c.5 0 1.3-.1 1.9-.6l4.8-.2.8-.2c.9-.3 1.7-.6 2.9-.5h.1l1.9-.1c.2.2.6.4 1 .4.2 2.8.3 5.6-.1 7.4-.3 1.3-.3 2.8-.3 4.2 0 1.3 0 2.7-.3 3.7l-.1.4.1.3c.1.3.3.6.4.9.4.8.7 1.4.7 2.5l.8 1.1c.2 0 .2.1.2.3l.1 1.1h.3v.2l1 .2h.2l1.4.4h.3c.5 0 .9 0 1.2-.1.2-.1.4-.2.5-.4.4 0 .7-.2.9-.4.2-.2.3-.5.3-.7.7-.5 1.4-1.2 1.8-2.2l.1-.2v-.1c.1-.2.3-.5.4-.9v-.1-.6l.6-.1-.1-1.1c0-.3 0-.4.2-.7.3-.5.8-1.1.6-2.3-.2-1.2-.1-2.1.1-3.1.1-.9.3-2 .1-3.3.5-.9.4-2.1.3-3.1v-1c-.2-.5-.1-.7.1-1.1.2-.4.4-1 .3-1.9 0 0 .1 0 .3-.1l1.1-.1v-.3h.2l.2-1v-.2h.2l.2-.8c.1-.2.1-.4 0-.6.3-.1.6-.3.8-.7.1-.2.1-.4.1-.6 1.1 0 1-.7.9-1zm83.5-25.5l-.2-.7-.3-.1.1-.8-.6-.1v-.6l-.7-.4c-1.6-.8-3.4-1.3-5.5-1.4h-.3l-.6.3c-.7.4-1.4.7-2.3.9l-.7.1-.2.6c-.1.4-.3.7-.5 1.1-.5.9-1 2-.9 3.8-.3.4-.4.8-.4 1.5-.2.3-.6.8-.3 1.8.1.5.1.7-.1 1.1-.1.4-.3.8-.3 1.5-.1.2-.3.5-.4.8v.2h-.3l-.1.9c0 .2-.1.3-.3.5-.2.4-.5.9-.6 1.6-.3.3-.5.8-.5 1.4-.1.1-.2.1-.3.2l-.5.3-.1.5c0 .2-.1.3-.3.5-.2.3-.5.8-.6 1.5-.3.3-.5.8-.6 1l-.9 1.1-.3.2c-.4.3-1 .8-1.1 1.8l-.1.2c-.4.2-.6.6-.7.9l-.5 1.3c-.3.2-.9.7-.9 1.6-.8.7-1.1 1.7-1.4 2.6-.1.4-.3.8-.4 1.1-.8.4-.9 1.3-1 1.7v.2l-.6.1-.1.9c-.1.1-.3.2-.5.3h-.1l-.3-.1-.1-.4-.5-.1v-.1c-.1-.3-.3-.7-.6-1-.3-.4-.6-1-.8-1.7-.2-.4-.4-.9-.6-1.3-.2-1.4-.6-2.7-1.3-4.1l-.3-.4c-.5-.9-.9-1.5-.8-2.8l-.8-1.3c-.1-.3-.3-.9-.9-1.2-.2-.6-.5-.9-.7-1.2-.2-.2-.3-.4-.3-.5-.2-.6-.5-1-.7-1.3-.3-.4-.4-.5-.4-.8v-.4c-.2-.6-.5-1-.7-1.3-.3-.4-.4-.5-.4-.8l-1.1-1.2c-.1-.1-.3-.2-.5-.3l-.3-.6c-.1-.2-.1-.2-.1-.3l-.9-1.1c-.2-.1-.4-.2-.7-.6-.3-.3-.7-.8-1.3-1.1-.6-1-1.6-1.4-2.5-1.8h-.1c-.4-.6-1-.7-1.4-.8h-.1l-.1-.2-.2-.3c-.5-.6-1.2-.8-2.2-.8h-.2c-.4.1-.4.1-.8-.1s-1.2-.5-2.2-.2c-.2.1-.5.2-.7.6h-.3c-.6 0-1.1 0-1.4.1-.3.1-.5.3-.8.5h-.3c-.4 0-.9 0-1.2.1l-.8.2-.1.8c0 .2-.1.3-.5.6-.5.4-1.2 1-1.3 2.1-.3.3-.4.7-.5 1-.8.2-1.2.8-1.4 1.1h-.8l-.1 1c-.1 2.1.8 2.8 1.6 3 .1.3.2.9.2 1.8 0 .3-.1.6-.2.9-.1.6-.3 1.3-.2 2.2-.3.4-.4.9-.4 1.4-.2.2-.4.6-.4 1.1l-.5.1v.9c0 1.9-.3 3.4-.7 5-.1.6-.3 1.2-.4 1.7v.4c0 .3 0 .4-.2.7-.3.4-.7 1-.6 2-.1.2-.1.4-.2.6-.3.7-.5 1.4-.6 2.4-.5.6-.5 1.5-.4 2.1-.2.2-.5.7-.4 1.5-.1.2-.3.5-.4.9-.2.3-.4.6-.5 1.2l-.4 1.2c.2 1.3.1 2.4-.1 3.5-.7.6-.6 1.8-.6 2.3v.5c0 1.1.3 2 .8 2.6.5.8 1.4 1.2 2.6 1.3.6.3 1.2.5 2 .5.3 0 .6 0 .9-.1 1.4.2 2.1-.3 2.5-.6l.2-.1c.2-.1.5-.1.7-.1.6 0 1.5-.1 2.2-.9l.1-.2.1-.2c.6-1.5.9-3.2 1.2-4.8.2-1.4.5-2.6.9-3.8l.1-.3-.1-.3c-.2-.7 0-1 .2-1.6.3-.5.6-1.1.6-2 .5-.6.4-1.5.4-2 .3-.3.5-.8.4-1.5.1-.2.3-.5.4-.9 0-.4.1-.8.1-1.2.1-1.1.2-2.2.5-3 .5-.9.5-2 .6-3 0-.6.1-1.2.2-1.5l.2-.6c.4-1.1.9-2.3.7-4.1.3-.6.4-1.2.5-1.8 0-.2.1-.5.1-.7.2.4.5.7.8.7l-.1.6.8.3c.2.1.8.3.9 1.8l.7 1c.1.1.2.3.2.5.2.5.5 1.3 1.3 1.7.2.8.6 1.4 1 1.8l.6.9c.2 1 .6 1.9.9 2.8.4.9.7 1.8.9 2.9l.1.8.4.1c0 1 .4 1.6.7 2l.1.2c.4.7.7 1.4.9 2.3l.1.7.4.1-.1 1 .7.1V82.2l.6.1v.5c.2.7.6 1.1 1 1.4.1.9.8 1.3 1.1 1.5l1.3 1.3c.1 0 .2 0 .4.1.2.4.7.6 1 .8l.2.6 4.5-.2v-.6c.2-.1.6-.2.8-.4 1.1 0 1.9-.4 2.6-.7.5-.2.9-.4 1.4-.5l.9-.1.1-.9.3-.2c.4-.3 1-.8 1.1-1.8h.1c.5-.2 1.7-.7 1.8-2 .3-.2.5-.5.6-.8.4-.2.6-.6.7-.9l.4-.1.1-.7c0-.1.2-.2.4-.2l.6-.4-.1-.7c0-.3 0-.3.2-.4l.6-.2.1-.6c.2-1.2.7-2.1 1.2-3.1.3-.5.5-1.1.8-1.7.4-.2.6-.6.7-.9l.5-.1v-.8c.1-.2.3-.5.4-.9.4-.4.5-1 .5-1.6.3-.4.5-.8.5-1.1v-.1c1.1-.6 1.4-1.8 1.6-2.6.6-.4.9-1 1.1-1.4.1-.2.2-.4.3-.5l.5-.3.1-.6c.1-1.2.4-1.5.6-1.6l.8-.3-.1-.8c0-.3 0-.4.2-.7l.4.1.2-1.1v-.2h.3l.1-.9v-.8c.2-.1.3-.3.4-.6.1-.3.1-.6 0-.9.1-.1.3-.3.4-.6.1-.2.1-.3.1-.5l.1-.1c.3-.4.3-.8.3-1.1v-.1c.1-.2.2-.5.3-.9.4-.4.5-1.1.5-1.6.3-.4.4-1 .4-1.5.5-.6.4-1.4.4-2l.1-.2c.6-.2.9-.9.6-1.9zm58 23.3l-.1-.2c-.1-.4-.3-.9-.4-1.3-.5-1.6-1-3.1-.9-5.2l-.5-1.1c0-.7-.4-1-.6-1.3-.2-.5-.5-.9-.7-1.2-.3-.4-.4-.5-.4-.8l-.8-1.1V53c-.1-.3-.3-.9-.7-1.3-.1-.9-.8-1.3-1.1-1.5L294 49h-.2l-.2-.3c-.2-.3-.5-.7-1-.9-.4-.7-1.2-1-1.6-1.1l-.2-.1-1-.9h-.5l-.1-.3-.9-.1h-.5l-1.3-.4c-.5.1-.6.1-1.1-.2-.5-.3-1.1-.7-2.2-.6-1.1-.1-1.9-.1-2.6-.1-1.4 0-2.5.1-4.1.4-.1-.3-.3-.8-.7-1.1-.1-.5-.4-.8-.6-1-.2-.4-.6-.6-.9-.7l-.2-.6-5.1.3-.2.1c-1 .4-1.7 1.2-2 2.2-.9 2.3-1.4 5-1.9 7.6-.2 1-.4 2.1-.6 3-.1.3-.2.5-.4.8-.2.3-.4.7-.5 1.2l-.1.3.1.3c-.3.3-1.1.9-.9 2.1-.6 1.6-1 3.3-1.1 5-.5.5-.7 1.2-.9 1.7-.1.3-.2.6-.3.8l-.2.2v.3c-.1 1.2-.4 1.5-.6 1.6l-.7 1.3c.1.6 0 .8-.3 1.2-.2.3-.4.7-.6 1.3v.2c-.1.2-.3.4-.4.9-.2.2-.3.5-.4.7l-.5 1.2c.1.6 0 .8-.3 1.2-.2.3-.4.7-.6 1.3v.4c0 .3 0 .4-.2.7-.2.3-.5.8-.6 1.5-.4.4-.5 1-.5 1.5-.5.6-.4 1.5-.4 2l-.1.1c-.1.2-.3.5-.3 1v.5s.4.5.6.8v.3c0 .3 0 .7.1 1.1l.2.8h.5c.1.3.4 1 1 1.3l.1.1c.2.2.6.5 1.2.5h.3l1.5.6c.1.2.4.5.7.7.2.5.7.8 1.4 1l.1.7h1.2c1 0 1.7.3 2.6.5.7.2 1.4.5 2.4.6.7.4 1.5.5 2.1.5h.8c.4.3.9.5 1.5.4.2.1.6.4 1.2.4.2 0 .3 0 .5-.1.6-.2 1.3-.3 1.9-.5 1.3-.4 2.5-.8 4.1-.8l1.2-.7h.1c.2-.1.4-.2.7-.3.6-.1.9-.3 1.2-.5.2-.1.2-.1.3-.1l1.1-.7h.1l.6-.3c.7 0 1.1-.4 1.4-.6l.2-.1h.2l1.4-.7h.1c.3-.1.8-.3 1.1-.7l.2-.3v-.1h.1c.3-.1.8-.3 1.1-.7l.2-.3v-.1h.1c.3-.1.8-.3 1.1-.7l.1-.1c.7 0 1.1-.4 1.3-.6l.4-.1.2-.5c.2-.5.6-.9 1.1-1.4.6-.6 1.2-1.2 1.6-2.1.2-.3.3-.7.4-1 .1-.2.1-.5.2-.5l.9-1 .1-.2c.4-.2.6-.6.7-.9l.3-.1.1-.7v-.2h.4l.1-1v-.6l.3-.1.1-.9v-.6l.3-.1.1-.9v-.6l.4-1.2c-.3-1.8-.1-3.2 0-4.7.1-.7.1-1.3.1-2h.4zm77-19.9c-.2-.4-.3-.5-.2-.9l-.8-1.3c-.1-.2-.2-.4-.4-.6-.1-.2-.3-.4-.4-.5l-1.3-1.2c-.3 0-.5 0-.8-.3-.6-.3-1.5-.8-2.8-.5-.2 0-.4.1-.5.1-.3 0-.5-.1-.8-.2-.6-.2-1.5-.4-2.6-.2l-.3.1c-1.4.8-3.6 1-5.8 1.2-1.6.2-3.2.3-4.6.7l-21.2 1.7c-.2.1-.5.2-.8.3-.8 0-1.3.4-1.5.6-.1 0-.1.1-.2.1l-1.2.8c-.1.4-.4.7-.8.9l-.6 1.4c-.3.2-.9.7-.9 1.7-.5.5-.7 1.2-.8 2.2-.2.4-.3.9-.4 1.4-.1.3-.2.7-.2.8l-.3.5.2.6.1.2-.1.2c-.1.2-.4.6-.4 1.2-.3.4-.5.9-.4 1.5-.2.3-.6.8-.3 1.8l-.1.2c-.2.3-.6 1-.4 2 0 .1-.1.2-.2.4-.3.4-.7 1-.6 2-.1.2-.3.3-.5.6-.3.3-.7.6-1 1.1-.7.2-1.2.6-1.5 1.2-.4.2-.6.7-.8 1.4l-.4.1-.1.8c-.1 1.7.3 2.8.8 3.7.4.8.6 1.4.6 2.5l-.3.6c-.3.5-.6 1.1-.6 2-.2.2-.3.4-.4.6l-.5.2h-.2l-.2 1v.2h-.4l-.1 1c-.1 2.1-.8 3.7-1.5 5.5l-.2.5v.3c0 .3 0 .4-.2.7-.3.5-.8 1.1-.6 2.4.2.8.1 1.2-.1 1.8-.1.4-.2.8-.2 1.3l.8 1.2c.1.2.3.4.5.6.2.4.6.7 1 .9.5 1 1.6 1.2 2.2 1.3.2 0 .4.1.5.1l.4.4.5-.1c.6-.1 1.2-.1 1.7-.2 2-.3 3.3-.4 5.5-.2h.3l.3-.1c1.2-.6 3.2-.6 5.1-.7.9 0 1.9-.1 2.7-.1 1 .1 1.5-.3 1.8-.6l.2-.1h.5c.3 0 .6-.1.8-.2.1.1.3.1.4.1.3.1.6 0 .9 0h.2l.4.1.4-.3c.7-.5 1.8-.8 2.9-1 .7-.2 1.3-.3 2-.5l7.7-.4v-.5h.7l.3-.3c.1-.1.5-.2.8-.3.4-.1.9-.3 1.4-.6.8-.3 1.2-.8 1.4-1.2l.2-.3c1.3 0 2.6-.1 3.4-.9l.3-.1c.6-.3 2.1-.9 1.5-2.9.1-1.8-1.4-2.3-2.1-2.5-.2-.1-.4-.1-.5-.2l-.4-.2h-.4c-.2 0-.4-.1-.7-.3l-.2-.1h-.8l-.4-.7h-1.2c-2.8.1-5.7.2-7.9.9-.5.1-.7.1-1.1-.1-.5-.2-1.3-.4-2.3-.2l-.4.1-.3.3c-.2.2-1.3.2-1.9.2h-.6c-1.2-.2-1.9.2-2.4.4-.4.2-.6.3-.9.2h-.1l-8.1.4c-.2-.2-.6-.5-1.3-.5-.3 0-.6.1-.9.1V84v-.5l.4-1.4c.3-.2.9-.7.9-1.6.2-.3.3-.6.3-1.1v-.1c0-.1.1-.2.1-.3.1-.3.4-.8.3-1.5.1-1 .3-1.3.6-1.5.4-.1.8-.2 1.1-.3.6-.2 1-.4 1.8-.3h.2c.5-.1.8 0 1.3.2.7.2 1.6.4 2.7.1l1.8-.1h.4l.1.3.8.1c1.4.2 2.2-.1 2.8-.4.4-.2.7-.3 1.2-.3h.2c.3 0 .5 0 .8.3.4.3 1 .6 1.9.6.3 0 .6 0 .9-.1l.2-.1c.9-.4 2.4-.6 4.1-.6 1.2 0 2.5.1 3.5.3l.3.1.8-.3c.8-.3 1.5-.5 2.5-.5h.6c1.2 0 2-.4 2.6-.7.4-.2.8-.4 1.3-.5.6-.1 1.3-.1 2-.1 1.6 0 3.2 0 4.3-.8 2.2-1 3.2-2.7 2.8-5.2l-.1-.5-.5-.3c-.7-.4-1.5-.6-2.7-.6-.8 0-1.6.1-2.3.1-.8.1-1.5.2-2.2.1-.7-.3-1.5-.4-2.2-.5-.4-.1-.8-.1-1.2-.2h-.4c-3.9.2-7.4-.1-10.8-.4l-3.3-.3c-.3-.3-.7-.5-1.5-.5-.3 0-.5 0-.8.1l-1.6.1c-.6-.4-1.4-.4-1.9-.4-.4 0-.9 0-1.3.1-.4 0-.7.1-1.1.1h-.2c-.4.1-.5 0-1-.1-.6-.2-1.4-.5-2.4-.2-.4 0-.7 0-1.1.1-.6 0-1.3.1-1.6 0l.1-.2c.2-.3.4-.8.4-1.5.5-.7.4-1.7.3-2.1 0-.3.1-.5.3-.8l.2-.3v-.4c0-.4-.1-1.4 0-1.9.4-.2.6-.6.8-.9l.4-.1.1-.8.2-.2c.4-.1.7-.3.9-.5h.8c.4 0 1.2 0 1.8-.5.9 0 1.6-.2 2.1-.4.4-.2.7-.3 1.2-.3s1 .2 1.5.4c.7.2 1.5.5 2.5.5.4 0 .8 0 1.2-.1l2.5-.1v-.7c.1-.1.2-.1.3-.2 1 .1 1.7-.2 2.2-.5.3-.1.5-.2.7-.2.7.1 1.3.1 2 .2 1.7.2 3.5.4 5.4.4 1 0 1.9 0 2.9-.2.6 0 1 .3 1.5.5.7.4 1.6.8 2.8.8.4 0 .9-.1 1.3-.2l.9-.8.2-.1c1.1-.3 1.7-.9 1.8-1.8.2-.2.3-.4.4-.6l.5-1.2c0-.1 0-.1.1-.3.1-.3.4-.8.3-1.4.7-1.2.3-1.9 0-2.4zm84.4 6.4l.1-.4-.1-.5c-.5-1.2-.6-2.9-.6-4.5 0-.5 0-1-.1-1.5l-.1-1h-.5v-.3-.7l-.1-1h-.5c-.1-.3-.2-.7-.5-1-.2-1.1-1-1.6-1.5-2-.4-.3-.5-.4-.6-.5l-1.4-.8c-.3.1-.3.1-.6-.1-.4-.2-1.3-.6-2.3-.3l-.9.2v.5c-.2.1-.5.3-.7.6l-1.2.9c-.5.4-.9.7-1.4 1l-.6.4.1.7c0 .3 0 .4-.2.7-.3.4-.7 1-.6 1.9-.1.2-.2.3-.4.5-.4.5-.8 1.1-.9 2-.7.5-1.1 1.3-1.4 1.9-.4.7-.6 1.1-1.1 1.3l-.4.1-.2.3c-.8 1.3-1.8 2.4-3 3.3l-.4.3v.5c0 .7-.4 1-1.1 1.6-.6.5-1.3 1.2-1.7 2.2v.2l-.3.2c-.3.2-.7.5-.9 1.1-.8.4-1 1.3-1.2 1.8v.1c-1.2.3-1.7 1.2-2 1.8-.4.2-.6.6-.7 1.2-.3.2-.5.5-.6.8-.4.2-.6.6-.8.8h-.3l-.3.4-.1.1-.4.4c-.2.2-.3.4-.4.6h-.2l-.3.4-.1.1-.4.4c-.2.2-.3.4-.3.6-.2.1-.4.2-.6.4l-.2.2-.4.4-.1.1-.4.4c-.2.2-.3.4-.4.6h-.2l-.3.4c-.3.3-.4.6-.4.9-.6.3-.9.8-1.1 1.1l-.2.3c-.2 0-.4.1-.6.2-.1-3.5-.9-6.5-1.5-9.3l-.6-2.5-.3-6.3v-.2c-.2-.7-.3-1.3-.5-1.9-.4-1.2-.7-2.3-.7-3.7V50l-.9-2.9-.9-2.9-.1-.5-.4-.2c-.9-.5-1.6-1.1-2.2-2l-.2-.3-.4-.1c-.3-.1-.5-.2-.8-.3-.9-.4-2-.8-3.6-.6-1.1 0-1.7.5-2.1.8-.2.2-.4.3-.5.3l-.9.2v.5c-.2.1-.4.2-.6.5-.5.3-.8.7-1 1.1-.3.3-.6.6-.7 1.1-.5.4-.7.9-.8 1.2-.1.3-.3.6-.5.8-.9-1.3-2.3-2.7-5-2.6h-.1c-2 .4-3 1.4-3.5 2.4-.6.4-1 1-1.2 1.7-.5.4-.8.9-.9 1.6-.4.4-.5.9-.6 1.2v.2l-.2.2-.1.3c0 .1-.1.2-.1.3-.2.4-.4.9-.3 1.7-.5 1.1-1 2.4-1.2 4v.2c.1.7-.1 1.1-.3 1.7-.2.5-.5 1.2-.5 2-.1.3-.3.6-.5 1-.4.7-.8 1.4-.8 2.6-.2.2-.4.6-.5 1.1l-.4.1-.1.9v1.1l-.4.1v.8c0 .5-.2.9-.3 1.4-.2.7-.5 1.4-.5 2.5-.3.4-.4.8-.5 1.1v.2c-.7.5-1.1 1.5-1.2 2.7-.3 1.9-.4 4-.4 6 0 1.3 0 2.7-.1 3.9l1 1.2.2.2c.2.2.6.6 1.1.7.5.1 1.1.1 1.6 0v.4l1.1.1c1.6.1 2.7-.2 3.7-.4.5-.1 1-.3 1.5-.3l.6-.1.4-.7c1-1.7 2.1-3.5 2.2-6.3 0-1.2.3-2.1.5-3.2.3-1.1.6-2.3.6-3.6.2-.2.3-.5.4-.7l.4-.1.1-.8.2-.2c.2-.2.6-.6.7-1.3v-.2c0-.5.1-.9.3-1.3.2-.5.5-1.2.5-2 .6-.5 1.1-1.1 1.3-1.8l.1-.4-.1-.3c.3-.2.9-.6.9-1.5.1-.3.4-.6.7-.7l.6-1.4c.2-.2.6-.4.8-.9.8-.5 1.1-1.2 1.4-1.8.3-.6.4-.9.7-1l.8-1c.3-.2.9-.7.9-1.5.2-.1.3-.3.4-.4l.1-.1c0 .1.1.3.2.5v1c.1.5.4.8.5 1l.2 4.6c0 .7.3 1.2.5 1.6.2.4.3.6.2 1.1v.2l.1.2c.2.7.1 1.1-.1 1.7-.2.5-.4 1.2-.2 2.1 0 .7.3 1.2.5 1.6.2.4.3.6.2 1.1V73.3c0 1.1.1 2.3.7 3.1 0 .6.1 1 .1 1.4 0 .6 0 1.1.1 1.6l.1 1c-.2.5-.1 1 0 1.4v.1l.5 1.4c0 .8.3 1.3.5 1.7-.1 1.1.2 1.8.5 2.5l.3.9 1.1.9c.4 0 .8.2 1.2.4.6.2 1.3.5 2.2.5.4 0 .9-.1 1.4-.2l.3-.1c1.2-.7 2.4-1.2 4.3-1.1l1.1-.5 1-1c0-.1.2-.2.4-.2l.5-.2.1-.6c0-.1.2-.2.4-.2l.6-.3v-.5l.9-1.1.3-.2c.3-.2.7-.5.9-1.1.3-.2.5-.6.6-.9l.6-.2v-.5c.1-.1.3-.2.4-.3 1.3-.2 1.8-1.3 2.1-1.9l.1-.3c.3-.7.8-1.2 1.4-1.5l.5-.3v-.6l.3-.2c.3-.2.8-.7 1-1.4 1-.4 1.3-1.4 1.5-1.9 0-.1.1-.3.1-.4.6-.4 1.5-1 1.7-2.2.6-.5 1.2-1.1 1.5-1.8.9-.4 1.2-1.3 1.3-1.8 0-.1.1-.2.1-.3.8-.5 1.4-1.2 1.8-2 .7-.4.9-1.3 1-1.7v-.2l.3-.1.2-.5c.3-.7.8-1.2 1.4-1.5l.6-.3v-.6c.1-.1.2-.3.3-.6.5-.2.8-.4 1.1-.6l.1-.1c-.1 2.1-.5 4-.9 5.9-.2.9-.4 1.9-.5 2.9v.1l.2 3.3v.1c-.3.8-.7 1.8-.8 2.9v.4c.1.5 0 .7-.2 1.1-.3.5-.7 1.2-.6 2.3.2 1.7-.2 2.9-.6 4.2l-.2.5v.3c.2.9 0 1.4-.3 2.1-.3.8-.7 1.8-.4 3.3l.1.3c.7 1.6 1.4 3.1 2.3 4.5l.4.6h.7c.2 0 .3.1.6.2s.8.3 1.4.3c.3 0 .6 0 .8-.1 1.1.1 1.8-.2 2.3-.5.4-.2.6-.3.9-.2l1.3-.9h.1c.2-.1.4-.2.5-.4.5-.5.4-1.2.3-1.6v-.1l.1-.2c.2-.4.4-1 .4-1.7l.1-.1c.3-.4.4-.9.3-1.3l.4-1.2c.3-.3 1.2-.9.9-2.4-.3-3.6.2-6.3 1-9.4l.1-.2V73c-.2-1.2-.1-2.1.1-3.1.1-.9.3-1.9.2-3.1.4-.6.4-1.5.3-2 .2-.3.6-.8.4-1.8-.2-.8-.1-1.2.1-1.8.1-.4.2-.8.2-1.3.1-.8-.3-1.4-.5-1.7-.1-.1-.1-.2-.1-.2l.1-.2c.2-.4.5-1.1.3-2.1-.5-1.5-.4-2.9-.1-3.8z"/></g></svg>