<svg xmlns="http://www.w3.org/2000/svg" xmlns:i="&amp;ns_ai;" viewBox="0 0 510.4 187.9"><style id="style1">.logo--default{fill-rule:evenodd;clip-rule:evenodd;fill:#f4c522}</style><g class="logo logo--default" i:extraneous="self"><path class="logo" d="M253.2 158l.5.4c0 .2 0 .2-.5.5l-.6.3v.2c-.6.2-1 .5-1 1l-1.3.5-1.3.6h-2.4s-.2 0-.3-.2v-.2l-.5-.2h-.3v-.7h-.7c0-.2 0-.4-.2-.5l-.3-.6c0-.4 0-.6.2-1 0-.2.3-.7.3-1.3.3-.4.5-1 .6-1.5l.4-.3.8-1c0-.3 0-.3.4-.6.2-.2.6-.4.8-.8l.6.6.2.2v.2c0 .4.3.7.5 1l.4.5.2.4h.5c.2 0 .3.2.5.5.3.3.7 1 1.4 1 .4.4 1 .7 1.2 1zm67-21.7h-.2l-1-.3h-.6l-.8-.4h-.6l-.6-.2h-.4c-.3 0-.7 0-1.2-.2 0 0-.3 0-.5-.4-1-.2-1.8-.4-3-.3h-.2c-.2 0-.4 0-.7.3-.2.2-.5.3-1 .4 0 .5-.2 1-.4 1.2-.3.4-.4.6-.3 1v.6c0 .3-.3.6-.5.8-.2.4-.4.6-.4 1 .2 0 .4.3.5.4 0 0 .2 0 .2.2h8c.3-.2.7-.4 1.3-.4.3-.5.8-.7 1.2-1 .2 0 .5 0 .5-.2l.2-.4h.3c0-.2.2-.4.5-.6 0 0 0-.2.2-.3l-.4-1v-.2zm-75-4.7l.5 1c.4.4.5 1 .6 1.2l.5 1c.2.3.7.6.8 1.3l.5 1v.2l.2-.3c0-.4.2-.6.4-1l.2-.6.3-1c0-.7.4-1 .6-1.4l.2-.3v-2l-.3-.5-.4-.6c0-.2-.2-.3-.3-.5-.4 0-.8 0-1-.3l-1-.3h-.6c-.4 0-.6 0-.8.3l-.2.2v2.3l.2.3zM417.4 156c0 .5.5.4.4.8-.3 0-.4.3-.6.5 0 .2 0 .5-.4.5v.5c-.3 0-.2.4-.4.4 0 .2-.2.3-.4.4v.7c-.2 0 0 .4-.3.4 0 .2.2.3 0 .5h.4c.3.2.5.3.5.5s.2.4 0 .5V162.6s0 .2.2.3c.2.4 0 .4 0 .6h.7l.2.2h-.3c0 .4-.3.3-.3.6s-.2 1 .3.8h-.4c0 .2-.3.2-.4.2 0 .3.3.3 0 .6.2.3 0 .3 0 .5v.4c0 .5.4.3.3.7 0 .2-.2.4-.4.5 0 .2-.4.2-.3.5 0 .3.3.2.4.4 0 .6.3.7.4 1 0 .2.3.6 0 .6.3.3.3.8.3 1.4 0 .3.5 0 .6.4 0 .2-.2.2-.4.2 0 0 0 .2-.2.3 0 .3.4 0 .3.5v1.1h-.4c0 .5.3.5.3.8 0 .3.6.3.6.8 0 .2-.3.2-.3.3h-.4c0 .4.6.3 1 .5 0 .3-.5.5 0 .5-.2.3.2.3 0 .6l-1 .3-.2 1c-.5 0-.2.2 0 .5-.4 0-.6.3-.8.4 0 .4-.4.2-.3.6-.2 0-.4.2-.4.4v.6c0 .3-.3.3-.3.5 0 0 0 .2.3.2v.3c.2.2.4.3.4.6-.6 0-.3.6-1 .5 0 .2.4.2.2.5-.2 0 0 .2-.3.2v.4c-.3 0 0 .5 0 .7-.4 0-.6.3-.8.4 0 .3 0 .4-.3.5v.4c-.4 0-.5 0-.6-.3-.3.2-1 0-1.5 0-.3 0 0 .6-.3.7l-1.5-.2c-.4 0-.3.2-.6.2h-.6c-.4.2-.4 0-.7 0h-.6c-.2 0-.6 0-.6.2 0-.2-.5 0-1 0-.3-.2-.4-.2-.8 0 0-.2-.3-.2-.4-.2h-6.1c-.3 0-.3.2-.6 0h-.6c-.2.2-.7 0-1.2 0h-.7c-.4 0-1 0-1.3.3-.4 0-.6-.2-1-.3-.7.2-1.5 0-2.3 0h-.8c-1 0-2 0-3-.2h-.3c-.3 0-.4 0-.4.2-.2-.2-.8 0-1.2 0H382c-.4 0-.5.2-.7.2-.5 0-.7-.2-1.3 0h-.3v-.2h-.3c-.2-.2-.4 0-.6-.2-.4 0-.3.2-.7 0-.2 0-.5 0-.6.2H376c-.4 0-.4.2-.7 0-.3.2-.5 0-.7 0H372.2 368c-.4 0-.5.2-.7.2-.4 0-.3-.2-.7 0-.4-.2-.4 0-.7 0-.2-.2-.2 0-.4 0-.4 0-1.4-.2-1.8 0-1 0-1.6.2-2.6 0h-1.7c-.3-.2-.6 0-1 0-.2 0-1-.2-1.5 0h-.5s-.6-.2-1 0h-3.1-.4l-.4-.2h-.4c-.4-.2-.3 0-.6 0-.5 0-1 .2-1.8 0l-.6.2c-1.2-.3-2.5 0-3.8 0-.3 0-.3.2-.7 0h-2.2c-.4 0-.3-.2-.7 0l-.6-.2h-.6-1.6c-.6.2-1.6 0-2.5 0-.4 0-.3.3-.7.2h-.6c-.2 0-.6 0-.6-.2-.3.2-1 0-1.6 0h-.8c-.5.2-1.2 0-2 0-.3 0-.3.2-.7 0H323c-.3 0-1.3-.2-1.7 0-1.5 0-3 0-4-.2l-1 .2h-.5s0-.2-.3-.2H313h-.3c-.4-.2-.3 0-.7 0 0-.2-.2 0-.4 0H308c-.2 0-.2.2-.5 0-.4.2-.5 0-1 0h-1.1l-.3.2H304h-1.6l-.4-.2h-.3c-.3 0-.7 0-1 .2H295c-.3.2-.2 0-.5 0l-.6-.2h-.7-2.9l-.6.2h-.4-.3c-.3 0-.6 0-.8-.2h-2.7c-.3 0-.3.2-.6 0 0 0-.2.2-.4 0h-1c-.3 0-.4.3-.7.3-.4 0-.5-.2-.7-.3-1 0-1.8 0-2.5.3-.4 0-.4-.2-.7 0-.4-.2-.4 0-.7 0 .2-.3-.7 0-.6-.3-.4 0-.3.2-.7 0h-.6-.3c-.3 0-.3.3-.7 0s-.3 0-.5 0h-1-.2c-.3.2-.8 0-1.3 0-.4.2-.4 0-.7 0-.5 0-.8 0-1.2.3-.3 0-.4-.2-.6-.3h-.7c-.4 0-.3.2-.7 0H266c-.3-.2-1.2-.3-1.5 0-1 0-2.2-.2-3 0h-.3c-.3-.2-1 0-1-.2-.2.2-1 0-1.5 0h-5.3c-.4 0-.4.3-.7.2-.3 0-1 0-1.2-.2h-1.3c-.4 0-.4.2-.7 0h-2.2l-.4.2c-.4 0-.5 0-.5-.2h-1.9-.6c-.3 0-.5 0-.5-.2l-.6.2H237.3c-.2.2-.8 0-.7.2h-.3v-.2H233.6c-.4 0-.3.2-.6.2-.4 0-.8-.2-1.3 0-.3 0-.4-.2-.5-.2H230c-.7 0-1.5-.2-2 0h-1.7c-.4.2-.3 0-.6 0 0-.2-.7 0-1 0v-.2h-.5c-.4 0-1 0-1.3-.2h-.8c-.2 0-.6 0-.6.2l-.6-.3h-1c0 .2 0 .2-.3.2 0 0-.3 0-.3.2-.3 0-.3-.3-.6-.2h-1.1c-.5 0-.8-.2-1.5 0l-.4-.2H212c-.2 0-.3.2-.7 0l-3.5-.2c-.4 0-.6.2-1.2 0H202c0 .2-.7 0-.6.2h-.6c-.5-.2-1 0-1.6 0l-.4-.2h-2.3c-.4 0-.8.2-1.3 0l-.4.2h-1.6c-.3 0-.3-.2-.6 0h-2.4c-.2 0-.3 0-.3-.2h-.5-1c-.4 0-.4-.2-1 0-.5 0-.7.2-1 .3h-1c-.3 0-.7 0-1-.3h-1.7c-.3.2-.4 0-.8 0h-.7c-.5.2-.6-.2-.7.2 0 0-.3 0-.3-.3h-.4c-.4 0-1 .2-1-.2-.3 0-.3.3-.7.2-.4 0-.5-.2-.7-.2H175.5c-.3 0-.4.2-1 0H174c-.5 0-.4.3-.8.2h-1s-.5-.2-.5 0c-.2-.2-1 0-1.3 0H169h-2.8l-1-.2c-.5 0-.4.2-1 0 0 .2 0 .2-.3.2h-.3c-.4 0-1 0-1.3-.3-.4-.2-.3 0-.7 0h-2c-.3-.2-.4 0-.6 0h-.9-4.1c-.3 0-.4 0-.4-.2h-1-1.5c-.3 0-.3.2-.6 0-.5 0-.7 0-1-.2-.3 0-.7.2-1 .4h-1.9c-.4 0-.7 0-1-.2h-.9c-.3 0-.7.2-1 .4H142c0-.3-.7-.2-.7-.5-.2 0-.4.2-.7 0-.3 0-.3.3-.6.2h-.4v-.2s-.3.2-.5 0c0-.2-.3 0-.3-.3-.6 0-.7-.2-1.3 0-.4-.2-.3 0-.6 0l-1 .2h-.6c-.3.2-.4 0-.6 0h-.4c-.3 0-.7-.3-1 0H131c0-.2-.2-.2-.4-.2h-.7c-.5 0-1 0-1.3.2H127c-.3 0-.3-.3-.6-.3-.4 0-.3.3-.7.2 0 0-.2-.3-.4-.2h-1s-.5.2-.6 0h-1.4c-.2 0 0 .2 0 .4h-2.5s-.3 0-.3-.2h-2c-.2 0-.3 0-.3.2l-1.5-.5c-.3 0 0 .2 0 .4s-.2.3-.4.3v-.4-.3h-.6c-.5 0-.5-.2-.8 0h-.5s-.3 0-.3.3h-.7c-.4 0-.3.3-.7.2 0-.2-.2-.3-.6-.2h-.3v-.3c-.6 0-.4.4-1 .2 0-.2-.5 0-.3-.5-.3 0-.4.3-.7.2h-1.5c-.3.2-.4 0-.6 0-.2 0-.5 0-.5.2h-2.2c-.2 0-.4 0-.4-.2-.6 0-.4.3-.8.2v-.4c-.6 0-.7.2-.8.4-.4 0-.3-.2-.6-.2 0 0-.3 0-.3.2h-.4-.3-.3c-.4 0-.7 0-1 .2h-1.8c-.5 0-.5-.5-1-.6-.3 0-.6.3-.8 0-.2 0-.6 0-.5.3-.4 0-.3-.2-.6-.2-.3.2-.5.3-.8.2h-.4c-.5-.2-1 0-1.6 0h-.7c-.4 0-.7 0-1 .2h-.3c-.2 0-.3 0-.3-.2-.5 0-.3.3-.7.2h-2c-.5 0-.4-.3-.7-.4-.4 0-.4.2-.7 0-.7 0-1.2 0-1.6.2 0-.2-.3-.2-.3-.4 0 0 0-.2-.2-.3 0-.3-.4-.4-.4-.7 0-.2 0-.3.3-.4l.4-.2c0-.2 0-.3-.2-.4v-.4-.4-.2-.4-.2-.4-.4s0-.2.2-.2v-.2-.8h.6v-1c.3 0 0-.4.4-.4 0-.2.2-.3.4-.4 0-.3.3-.3 0-.6.4 0 .5-.3.8-.2 0-.2.3-.5.6-.6 0-.3.5-.2.4-.6.3 0 .3-.2.6 0 0-.6.3-.6.3-1h.8c.3 0 0-.4.4-.4 0-.2.2-.3 0-.5.2 0 .2-.2.2-.2.2 0 .2-.3.2-.4v-.7c0-.5-.5-.5-.6-1-.3 0-.4 0-.4-.2h-.4v-.6s0-.2-.3-.2-.2-.2-.4-.2v-1s-.2 0 0-.3c-.3 0-.2-.2-.4-.2v-.4s0-.2-.3-.3c-.2 0-.3-.2-.2-.4h-.6c0-.2 0-.3-.3-.4v-.6c0-.3-.6-.2-.8-.4 0-.4-.4-.3-.4-.6v-.8c.2-.5 0-.6 0-1 .2 0 0-.4.3-.4 0-.4.8 0 .7-.5 0-.3 0-.5-.3-.5 0-.2-.2-.3-.3-.5 0-.8.6-1 .4-2 0-.3-.4 0-.3-.5.2-.3-.2-.3 0-.6v-.2h.2l.6-.2c0-.3.6-.3.4-1 0-.5-.7-.5-1.2-.8 0-.4.3-.4 0-1 .4 0 .2-.4.5-.4 0-.4-.4-.2-.3-.6-.2 0 0-.2-.3-.2 0 0-.2 0-.2-.2v-.5-.2s.2 0 .2-.2v-1c0-.4-.3-.3-.5-.5 0-.2-.2-.3-.3-.5 0-.3.3-.2.4-.4 0-.2-.2-.3 0-.5v-.2c0-.2-.4 0-.4-.2-.2 0 0-.2-.3-.2 0-.2 0-.4.5-.4.2 0 .4-.2.7 0 .4-.3 1-.4 1.5-.5.3 0 .6-.2.7-.5h1.2l.4-.4c.2 0 .3-.2.3-.4 0 0 .3 0 .3-.3 0-.4.4-.5.3-1 .2 0 .2-.2.2-.5.2 0 .3-.3.3-.5l.6-.3h.4s0-.2.3-.2v-.7-.5c.2 0 0-.2 0-.4l1-.8c0-.3.4 0 .4-.4.2 0 .2-.2.2-.2.5 0 .5-.3.8-.3.2-.2 0-.6.3-.7.3 0 .3.2.6 0 0-.2-.4-.2-.2-.5.2 0 0-.2 0-.4.4 0 .7-.3 1-.4 0-.2 0-.3-.3-.4v-.4c0-.3-.4-.3-.5-.6 0-.4.3-.5.2-1 .3 0 .4-.4.7-.5-.2-.5.3-.4.2-1 .5 0 .4-.5 1-.6-.3-.3-.7-.4-.8-.7v-.8-.2h.2l.4-.2v-.5h.2v-.2l.4-.2v-.4-.2h.6s.3 0 .6 0v-.4c.2-.5-.5-.3-.3-1h.3c0-.5-.2-.4 0-.7.5 0 .7-.6 1.4-.8 0-.2.2-.3 0-.5.3 0 .2-.2.4-.2 0-.4.5-.4.3-1 .3 0 .4 0 .5-.3v-1-.6c.4 0 .3-.5.4-.7.2 0 .3-.3.8-.2v-.6-.5s0-.2 0-.3v-.2h.2v-.6s.3 0 .3-.2v-.3c0-.2.4 0 .4-.4v-.8s-.2 0 0-.2c0 0-.4 0-.4-.2h-.4c-.4-.2-.4-.5-.8-.4-.2-.5.5-.4.4-1 0-.3-.2-.3-.3-.5 0-.3.2-.4.4-.5 0-.3-.6 0-.4-.5.3 0 .4-.3.4-.6s.4-.3.4-.6c0-.2-.4 0-.3-.4h-.3v-.2c-.2-.3.2-.3 0-.6v-.5c0-.4-.2-.5-.5-.6l-.2-.4c0-.3-.6-.2-.6-.5-.3 0-.4-.2-.7-.3v-.6h-1.4c.2-.4 0-.5-.2-.7 0-.4.4-.3.4-.6 0 0 0-.2-.2-.2v-.3c-.2 0-.3-.3-.2-.5.3 0 .6-.3 1-.2.3 0 .6-.3 1-.4 0 0 .6 0 .6-.3h1.2c.4-.2.5 0 1 0 .2 0 .6 0 1-.2l1 .2 1.4-.2h1c.4.2.8-.2 1.5 0H114.3c.5 0 1 .3 1.4 0 .3 0 .3.2.6 0 .4.3.6-.3.7 0h.8c0-.2.7 0 1 0v-.2h.5s.8.5 1.3.3h1.5c.3 0 .5 0 .5-.2h.3c.2 0 .3 0 .3.2h.7c.4 0 .5-.3.7-.3.3 0 .7 0 1 .2.5 0 .8-.2 1.2-.4.2 0 .3.2.3.3h.3c.4.2.4 0 .7 0h1.2l2.6.2c.5 0 .2-.4.6-.4h.6c.4 0 .3.4.4.5.3 0 .4-.3 1-.2h2.4c0-.2.2-.2.3-.2h.4s0-.2.3-.2c.4 0 .3.3.7.2v.5c.2-.2.7-.2 1 0 .3 0 .3-.2.6 0h12.2s.5 0 .4-.4c.3 0 .2.4.6.3h1.6c.3 0 .7 0 .7.2.3 0 1-.2 1.3 0 .4 0 .3-.2.6-.2h1.3c.3 0 .8 0 1-.3.2.2.7.2 1 .4h1c.3 0 .2.2.6 0 .4 0 .5.2.7.2h1.1s.3 0 .3-.2h.8c.4 0 .5-.3.7-.5.3 0 .4.3 1 .3H168.2c.2 0 .3 0 .3.2.3-.2 1 0 1.6 0 .2 0 .4 0 .4-.2h1.5c.3 0 .2-.3.6-.2 0 .3.4.2.6.2h.3v.2H176c.3 0 .3-.3.6-.2 0 .3.7 0 .6.2h.5c.4.2.4 0 .7 0h1c.5 0 .7-.2 1.3 0 .4 0 .3-.2.3 0 0 .3.7 0 .6.2h1.1c.3 0 .2-.5.4-.5 0 0 .2-.2 0-.4.5 0 .4.2.7.2 0 0 .2.3 0 .5.4 0 .2-.5.2-.7.2 0 1-.2 1 0s.3.2.3.4h.3c.4 0 .3.5.7.5.3 0 .7-.2 1.2 0l.3-.2h.5v-.2h1.5v.5h1.6c.6 0 .6-.3 1-.2.6 0 .4.3.7.4H198c.3-.2.5.3.6 0h.5s.5 0 .4-.4h1s.3 0 .3.2h1.5c.3 0 .4 0 .4-.2.3 0 .5 0 .6.2.4 0 0-.5.6-.4.3 0 2 0 2 .5h.4c0 .2.2.2 0 0h1c.5.2.5 0 .8 0 .3 0 .6 0 1 .2h.6c.5 0 .7-.4 1-.4 0 .2.2.3.3.5.3 0 .2-.3.6-.2H216.4c.4 0 0-.5 0-.6.2 0 1.7-.3 2-.2h1l1 .8c.4 0 .7 0 1-.2l3 .4c.3 0 .7 0 .6-.6.6 0 .4.4 1 .2l1 .2s.3 0 .3-.2c0 0 .4 0 .4-.2h1.2c0 .3-.3.2-.5.2 0 0-.3 0-.3.2 0 .3.7 0 .6 0 .3-.2.4-.4.7-.3.5 0 .5.2.7.2h.7c.3 0 .3.2.8 0 .5.2.7 0 1 0h1c.4.2 1 0 1.2.2.3-.2.8 0 1.2-.2 0 0 .3 0 .3.2h.4c.2 0 .5 0 .6-.3 0 0 .3 0 .3-.2-.2-.2 0-.2.2-.2v.2c0 .2 0 .2.3.2 0 .2.4 0 .4.2h.6c.4 0 .7-.3 1.3-.2h.2c.2 0 0-.3 0-.5.2-.2.3-.2.5-.2.5-.2 0 .4.4.4.5 0 .8 0 .8-.2h.3c.3 0 .4 0 .4.2.2 0 .4-.2.4-.4.2 0 .3.2.3.4s.5 0 .7 0c.3 0 0 0 0-.3v-.5c1 0 1.3.2 2 0 .2.2.3.4.2.7l1-.2h.5c0-.2 0-.3.3-.3h3.5c.2.3 0 .3 0 .5l-.2.2c.4.4.8 0 1.5 0h.3v-.3h2.2s.2.2 0 .2v.4h3c.6 0 .4-.4 1-.4 0 .2.3.4.6.5.4 0 .4-.2.7 0 .6 0 1.5-.2 2 0h.6c.6-.2 1.5 0 2.2 0 .3-.2 1.3-.3 2-.2h3.5s.3 0 .5 0h2.8s.5 0 .4-.3c0-.2.6 0 .6 0 0 .2.3.2.4.2h.4c.6 0 .5-.2 1 0 .4-.2.3.2.7 0 0 .2.2.2.3.2h.3c.8 0 1.6-.2 2.6 0 .4 0 .8-.3.8 0H283.7c.2 0 .4-.2.7 0h1.3v-.2h1.7l.6-.2c0-.2 1 0 1 .2h1c.3 0 .3.2.8 0 .2 0 .3-.2.3-.4.5 0 .4.2.7.2 0 0 1.6 0 1.6.2.4 0 2-.3 1.5 0 .6 0 1.4.2 1.8 0H301.4c.4.2.3 0 .7 0 .6 0 .5-.4 1-.4 0 0 0 .3.3.4h.3c.5 0 1.4 0 2-.3l.8.3h4.1c0-.3.8 0 .7-.2 0 .2.3.2.6.2 0 0 0 .2.2.2.4 0 .8-.2 1.3 0l.4-.2h1.4c.4 0 .7.2 1 .3h3.6l.6-.2c.4 0 .3.3.7.2h2.5v-.2h.4c.2 0 0 0 0-.3.2 0 .2-.2.2-.2s4 0 4 .6c.8 0 1.2-.2 2 0 .2 0 .2 0 .2-.2v-.2h1.5c.2.2.2.3.4.3h.6v-.5c.8 0 1.4 0 2-.2h1.8c0 .3.2.3.3.5.2 0 0 .3.3.3h.3c.3.2.4 0 .6 0 0 0 .3 0 .3-.2h.6c.4 0 .6-.2.7-.4h.6s.3 0 .3-.3c.2.2.7 0 1 .3h.6c.3 0 .5 0 .6.2.4 0 1-.4 1-.2v.2h1.2c.5.2.8 0 1.2 0 0 0 .2.3 0 .5 0 0 .4 0 .4.2.3 0 .5 0 .6-.2.4 0 .3-.3.4-.4l1-.2.5-.2h.4s0-.2.3-.2.5.4.6 0c.3 0 .3.3.4.5h1.1c.2 0 0 .3.3.3 0 0-.2.2 0 .4.4 0 1 0 1.4-.4h.4c.2 0 .3 0 .3.2h.4c0-.4.4-.2.4-.5.2-.6 1.4 0 1.5.4h.4c0-.3.3-.2.4-.2 0-.3.5-.2.5-.5h2.1c.5-.2.4.3 1 .3v-.2l.8.7c.5 0 .6-.2.7-.4.4 0 .2.6.6.6h1.6s.4-.3 1-.2h.2c0 .2.2.2.3.2h2.3c.2 0 .6-.2.6 0l.6-.2c.4 0 .4.2.7.2h.5c.2-.2.4-.3.4-.5h.7c.3 0 .3 0 .3.2.4 0 .4-.2.7 0 0 0 .2.2.4 0h2.4c0 .2 0 .3.3.3.7 0 1.2-.2 1.6-.4l.6.2s.3-.2.8 0h.3c.2.2.2.3.4.3 1 0 1.4-.2 2.3 0 .2-.2.3-.3.3-.5 0 0 0-.2.3-.2.5 0 .2.4.3.6.2-.2.7 0 1-.2h1c.2 0 .4.4.5 0 .3 0 .5.2.5.4l.4-.2c-.2-.2 0-.2.2-.2.2.2 0 .6.4.6l2-.2c.2 0 4.5-.4 4.4 0l1.3-.2c.3 0 .4 0 .4.2h.4c.5 0 1 .2 1 0 .5 0 .5.3 1 .2.5 0 .2-.5.7-.4 0 0 .3.3.3 0 .5 0 .4.4.7.5h.6c.3 0 .6 0 .6-.3h.5c.2 0 .2 0 .2.2.3-.2 0-.7 0-1h1c0 .2.4.2.4.3l.2.2h.4c.2 0 .6 0 .6.2.3 0 .2-.3.6-.2 0 .2.3 0 .4 0 .5 0 .3.3.7.2.2 0 .5 0 .5.2.3 0 .3-.3.6-.2.5 0 1 .2 1.4 0 .4 0 .5.3.6.5.4 0 .4.2.7 0 .2.3 0 .7.3.8h1v.2c.4 0 .4.4 1 .4 0 0 .2 0 .2.2 0 0 .2.2 0 .4 0 .2-.5 0-1 0 0 .6.5.8 1 1 0 .5-.4.4-.4.7h.5c.5-.2.4 0 .7 0 0 .4-.5.4-.8.3h-.5c-.3 0-.6.3-1 .5.2.6 0 1-.2 1.2 0 0 .3 0 .3.2h.6c0 .3.3.2.3.5.3 0 .5.4.6 0 .3 0 .2.3.6.2v.3h-.4s.2.2 0 .4c.3 0 .2 0 0 0 .2.3.3.4.5.4.2.2.2.3.4.3 0 .2-.3.4-.7.4 0 0 .3 0 .3.2h.3c0 .2.2.3.6.3 0 .3-.3.3-.3.6.5 0 .6-.3 1.2-.2h.6c0 .6-.8.2-1.2.3v.7c0 .2 0 .4-.3.5.2.3 1 0 .8.6 0 .5-.5.3-.7.5 0 .5.3.4 0 .8 0 .2.4.2.5.2h.4c0 .6-.4.7-.2 1.2-.2 0-.5 0-.7.2.2 0 .3.3.3.5 0 .5.2 0 .4 0h.7c0 .2-.2.2-.3.2 0 .2 0 .3-.3.3 0 .3-.4.4-.7.5 0 .3.5.2.4.6-.4 0 0 .5-.6.4-.3 0-.2.3-.6.2-.3 0-.3.3-.4.5-.3 0-.5 0-.6.2l.3.2h.6s.4 0 .4.2v.2h.8v-.2h.5c.4 0 1-.3 1.3 0h-.3v.2h-.7c-.3 0-.3.3-.7.3 0 0-.4.3-.4.5.5 0 .7-.2 1.4 0h.2s0 .2-.3.2c0 .3-.3.2-.4.4 0 .6-.6.7-.7 1l-.7.4v.2l-.2.2c0 .2-.3.2-.3.4v.4h.3l-.2.6-1 .2v1c-.2 0-.3.3-.8.2-.5 0-.6 0-1 .2 0 .2.2.3.4.4v.5c0 .3.4.4.7.5 0 .4-.4.3-.6.5 0 .3.4 0 .4.4s-.2.4-.5.5v.5c-.2 0 0 .2-.3.2 0 .4.3.4 0 .7 0 0-.3 0-.3.3h-.4v.2c-.3.3-.7.4-.8.7 0 .5.5.5.6 1 .2-.3.4.2.3.3-.2 0-.3.3-.5.3v-.4h-.7-.3c-.4 0 0 .6-.3.5 0 0-.3 0-.3.3.4 0 .8.3 1.3.4 0 .5.6.7.4 1.4 0 .2 0 .4.3.5 0 0 .2.3 0 .5.2.2.3.3.5.2-.2.3.3.4.3.6 0 .2.2.2.3.2 0 0 .2.2 0 .4.5 0 .5.2.8 0v.5c.4 0 .3.4 1 .3-.2 0-.3.2-.2.4h-.4c0 .2 0 .3.3.3.2 0 0 .2 0 .2.2.3.6.4.7.7.4 0 .5.2 1 0-.2.6.2.6.5.7v.6c0 .3.7.2.7.5.5 0 .3.3.6.4 0 .3 0 .5-.4.5.2 0 0 .5.4.4 0 .3.3.3.3.5 0 .3 0 .4-.2.6.2.3 0 .6.3.7.4 0 .6 0 .5.4-.2.2-.5.2-.7.3 0 .3.4.4.3.7.2 0 .2.2.4.3v.2c0 .2.6 0 .5.4 0 .3-.4.3-.8.3-.2.2 0 .6-.4.7 3.2 1 3 1 2.6 1zm-4.6-46c0 .4.3.3.4.5 0-.4 0-.5-.4-.4zM103 185.4zm103-78.6h.2v-.2h-.2s-.2 0 0 .2zm13.8 28V133c0-.4-.3-.7-.4-1v-.7l-.7-.2c-.2 0-.3 0-.3-.4v-.6l-.6-.2c-.4 0-.7-.6-1-1.3 0-.2 0-.3-.2-.4l-.3-.4h-.6c0-.2-.3-.3-.5-.4h-.8v-.5h-1-.4c-.2-.5-.6-.7-.8-.8v-.6h-1c-1 .2-1.8 0-2.7 0-1-.3-2-.5-3.3-.3h-.2v.2c-1.3.6-3 1-4.6 1l-1 .3v.3l-1 .6c-.3 0-.7.3-.8 1 0 0 0 .2-.5.2l-.7.6c0 .3-.4.4-1 .7-.4 0-1 .2-1.3.5l-.2.2c-.5.7-1 1.3-1.8 2l-2 2c-.4.4-.6 1-.7 1.3l-.8.7-.2.2h-.6v.7c0 .6-.4 1-.7 1.5l-.5 1c-.5.2-.8.7-1 1v.3l-.3.2c-.2.2-.5.5-.6 1 0 .3-.3.6-.5 1-.2.6-.6 1.2-.7 2l-.5 1.3c-.2.6-.4 1.2-.7 1.6v.3c0 .5-.3 1-.4 1.6l-.5 1.8v6l.7.2v.2c.2.3.3.8.7 1.2 0 .7.6 1 .8 1.3V162.3l.5.3c.4.2.7.6 1 1 .7.6 1.4 1.4 2.7 1.7l.8.5.6.6c.2 1.2 1 2 2.4 2l2.4.5 3.6.8h4.3v-.5h.7l.3.2c.2 0 .6.3 1 .3h1v-.5h1.2v-.5h.6c.7 0 1.2-.2 1.5-.5.4 0 1 0 1.4-.4 1 0 1.4-.4 1.8-.6.2 0 .4-.2.5-.3.4 0 .7-.3 1-.4h1v-.4l.3-1v-.2h.5v-3.5c0-.5-.3-.8-.4-1v-.3c-.2-.6-.6-1-.8-1.2l-.2-.2-.2-.6h-.7c-.2 0-.4 0-.7-.3l-.3-.2h-1c-.3 0-1 0-1.6.6-1 .4-2 .5-3.2.4l-1 .4h-3l-.2.3c0 .2-.3.3-1.2.3h-2.3c-.8-.3-1.6-.5-2.8-.5-.3-.3-.7-.4-1-.5l-.2-.3h-.2l-.7-.5c-.2 0-.3-.2-.5-.3 0-.4-.3-.5-.5-.6 0-.3 0-.5-.3-.7l-.3-.4s0-.3-.2-.4l-.3-.5v-1.4l.2-.2c.3-.3.3-.8.2-1.2l.2-.4c.7-1 1-2.3 1.3-3.5v-.3c.5-.3.7-.8.8-1l.8-1c0-.5.3-.8.5-1l.6-.2v-.7c.3-.3.8-.6.8-1.4.3-.2.8-.5 1-1.2l1.2-1c.3 0 .5-.4.7-.5.8-.3 1.2-.8 1.6-1.3.3-.4.6-.7 1-.8 2-1 3.8-2 6.8-1.7 1.2.4 2 1.2 3 2.6l.4.4h.3c0 .3.4 1.2 1.3 1.3l.6.4v.5h3.2v-.6h.3c.4-.2.7-.3 1-.6l.3-.3v-.4-.4s.4-.6.4-1c1-1 1-2.3 1-3.4zm26.8-28h.4c0-.2.3 0 .3-.2-.3 0-.7 0-.7.2zm30 41l-.7-1c0-.2-.2-.4-.3-.5 0-.3-.2-.5-.4-.8l-.2-.2-1.4-.8c-.8-.5-1.6-1.2-3-1.2h-.5c-.7 0-1 .6-1.2.8l-.7.7v.2c-.3 0-.6.3-1 .7l-.4.3-.6.3h-.2l-.2.3-.4.8s0 .3-.2.4h-.5l-.2.6c0 .3-.3.5-.6.6h-.3l-.3.6c-.2.5-.2.5-.5.5h-.5l-.3.5c-.6 1-1 1.5-2.3 1.5-.4 0-.6-.2-1-.7 0 0 0-.3-.2-.4l-.2-.3h-.3l-.5-.6s-.5-.5-1-.8c-.2-.4-.6-.7-1-1l-.4-.5-.6-1.2-.5-1.2c.3-.3.3-.6.3-.8l.2-.3h.2c.3-.4.4-.7.3-1 .5-.4.8-1 1-1.5 0-.3.2-.5.3-.7l.6-1.3.6-1.4v-.2l.5-.7c.3-.5.7-1 .7-2v-6c-.4-1-.8-1.7-.7-3v-.4l-.5-.2c-.2 0-.3-.6-.3-.8v-.6h-.4c0-.6-.3-1-.4-1v-.5l-.4-.3c-.6-.3-1.3-.5-2-.6h-.7c-.6-.6-1.6-1-3-1.3H244c-.3 0-1 0-1.4.4l-2.3.6s-.4 0-.6.3h-.6s-.3 0-.4.3h-.3c-.4.3-.6.6-.7 1-.2 0-.6 0-.8.4v.2l-.4 2-.3 3v.2c.7 3.3 1.4 6.2 2.7 8.5 0 .4.3.6.5 1 0 .2.2.3 0 .5l.7 1c0 .3.2.8.6 1 0 .6.3 1 .5 1.2l.2.4.2.7h.4l.3.4s0 .2.2.3c0 0-.2 0-.3.2l-.6.2v.5c0 .2 0 .2-.2.3l-.6 1c-.3 0-.4 0-.5.3-.2 0-.4.3-.5.5l-.7.3v.6l-.7 1.6c-.2.5-.5 1-.7 1.8-.2.2-.4.4-.4.7l-.6.6c-.6.2-.7.8-.8 1.2l-.6.2v.8c0 .7 0 1.3-.2 2s-.3 1.7 0 3v.2c.5 1.2 1 2.2 1 3.3l.2.4.4.3c.5.2 1 .7 1.3 1 .6.8 1.4 1.7 2.8 2 .3.4.8.6 1.2.7h.4l1 1h.3l.6.2c0 .2.4.4.8.4v.4h7.2v-.3l.7.3 1-.5.6-.3c.3 0 .5-.4.7-.5.7-.2 1-.6 1.2-1 .5 0 1-.3 1.2-.8l.7-.8c.3 0 .4-.2.6-.4.3 0 .5-.2.6-.3.5 0 1-.4 1-.8.4 0 .6-.2.7-.2 0 .2.4.3.6.3 0 .5.3 1 1 1.6.2.5.6 1 1 1.2.3.3.6.5.7.8l.2.4h.3v.2c0 .3.2.6.5 1h.3l.7.7.2.6h.4c0 .2.2.7.7 1 .4.4 1 .7 2 .8h3.4l.2-.6.2-.2c.2-.2.6-.5.8-1h.3l.2-.7c.3-1 0-2.8-.6-4 0-.2-.2-.3-.4-.5 0-.5-.4-1-1.3-1.2l-.8-1h-.2l-.7-1s-.2-.5-.6-.8c0-.2-.2-.3-.3-.4v-.6h-.5s0-.2-.2-.3c0-.4-.3-.7-.4-1v-.2l-.7-1-.6-.5c.5-.7 1-1.2 1.6-1.7.5 0 1-.2 1-.4l.2-.2h.2l1-.7c.4 0 .8 0 1-.6.2 0 .4-.2.5-.3l.5-.2.5-.2v-.3c.6-.2 1-.5 1-1h.3c1-.5 2.2-1.2 2.2-3 0-1-.6-1.4-1-1.6zm14.3-41h-.2zm40.6 28.5l-.6-.8c0-.3-.2-.6-.4-.8-.3-.6-.8-1-1.5-1.4-.2-.5-.7-1-1.2-1.2-.4-.3-.8-.5-1-.8v-.4h-.6c-1-.2-1.6-.4-1.7-.8l-1-.5c-.6 0-1 0-1.3-.3l-1-.5h-.2c-1.3 0-2.4-.4-3.6-.7l-2.5-.5h-.3c-1 0-2 0-3-.2-1.2-.2-2.5-.3-4-.2h-.3l-.2.2c-.5.3-1.5.4-2.4.6-1 0-2 .2-2.7.5h-.2v.3h-.2l-1 .6-.4.2-.6.2v.6s0 .2-.3.3l-.6.7c0 .8-.6 1.4-1.4 1.7l-.5.8c.2 1.2 0 2-.3 3v.5c-.2 0-.4.2-.4.3-.3.5-.2 1 0 1.6V139.3c-.3.2-.7.7-.6 1.4 0 .6-.4 1-.8 1.5-.5.6-1 1.3-1 2.3v.2c0 1.2 0 2-.3 3l-.2 1.4s0 .2-.2.2c-.4.5-.3 1.3-.3 1.8v.7l-.3.3c-.3.4-.8 1-.7 1.8 0 1.8-.2 3.2-.5 4.6-.3 1.7-.7 3.5-.5 5.7v.7h1v.3c.2.3.4 1 1.2 1.2.4.6 1 1.3 2.4 1.3h.7l.7-.2c.8-.3 1.7-.7 2.2-1.4.8-.3 1-1 1.3-1.4 0-.3 0-.4.2-.5h.4l.3-1c.2-.7.5-1.6.3-3l.4-.8c.3-.5.7-1.2.6-2.2V153c.4-.2.5-.7.5-1l.6-1v-.2l.3-.2v-.3c.2-.8.6-1.3 1.3-1.6h2c1.5 0 3 0 3.8.3.8 0 1.3 0 1.7-.3h.3l.6.3h3.6c1.2-.4 2.5-.5 4-.4l1-.5c.3 0 .5 0 .7-.2.6 0 1-.2 1.3-.4.3-.2.4-.2.7 0l1-.7.4-.2c.6 0 1-.4 1.2-.6l.3-.3c.8-.2 1.2-.7 1.6-1 .4-.3.6-.5 1-.6h.5v-.6c.2-.7.4-.8.5-1h.5v-1.1h.6v-6zm12-28.6zm-198-69V39c-.4 0-1 .5-1 .7-1 0-2.2 0-3.2.2-2.2.2-4.4.3-6 0l.8-2c.4-1 .8-2 1-3.2.5-.5.7-1.2 1-1.6v-.4c.3-.2.4-.5.5-.7l.6-1 .3-.5h.2c.4-.3 1-.5 1.3-1l.3.2c0 .4.4 1 1 1.3v.5l.7 1c0 .2.2.4.4.6 0 .6.2 1.2.6 1.6V36l1.5 1.7zM291 43.3l.2 2c0 1-.3 2-.6 3-.2.6-.4 1.3-.5 2.2-.6.5-.8 1.2-1 1.7v.4c-.8.4-1.3 1-1.6 1.7-1 1-2 1.8-2.5 3-1.5 0-2.5.7-3.4 1-.8.5-1.5 1-2.5 1l-.7.2v.4H276.6l-.2.3-.8.2h-.3l-1.2.8c-.5.3-.7.5-1.2.4h-.3c-.5 0-.6 0-1-.2-.5-.3-1-.6-2-.6-.5 0-.8-.3-1-.6l-.5-.2c.2-1 .6-2 1-3h.2c0-.3.2-.5.4-.8l.5-1 .4-1 .6-1.3c-.2-.7 0-1 .3-1.6.3-.4.6-1 .6-2 .2-.3.3-.7.3-1l.5-1c0-.4 0-.4.2-.5l.7-1-.2-2.8c.6-.5.8-1 1-1.6v-.4l.2-.2c.2-.3.5-.7.5-1.4l.4-1.3c.2-.2.8-.7.8-1.6.4-.2.8-.6 1-1 1-.3 1.6-.7 2.2-1 .4 0 .7 0 1-.2.5.2 1 0 1.5 0h.5c.3 0 .6.3 1 .4 1 0 1.8.2 2.5.3.4.7 1 1.6 1.7 2 0 .5.3.7.5 1v.7h.6c0 .3.2.5.4.6 0 1.3.4 2 .7 3 .4 0 .6.6.7 1.4zm218-9c-.2.5.8 0 .7.4.3 0 .4.2.4.4-.2.2-.8 0-1.3 0 .2.7-.3 1-.2 1.6-.2 0-.4 0-.4.3-.2 0-.3 0-.3.2-.4.2-1.3 0-1.4.4 0 .2 0 .4.2.4h.6c0 .4 0 .6.3.8.6 0 .5-.2 1 0-.3.8 1 .6 1 1.4h-.6c-.2 0 0 0 0 .2-.7 0-1-.2-1 0v.3h.2c-.2.4 0 .4 0 .8-.4 0-.2.4-.7.4h-1c0 .4.3.5.3.8-.5 0-.5.3-1 0 0 .4-.3.6-.8.6 0 .4-.6.6-.6.5v.4c0 .2 0 .2-.2.3-.2.4.3.4.2.7l-.2.4c-.2 0 0 .3-.4.3 0 .4.5.5.4 1-.2 0-.6 0-.6.2-.3 0-.3.2-.6.3 0 .4-.6.5-.8.8 0 .4.5.4.6.7.5 0 1 0 .8.4-1 0-1 .5-1.8.7h-.4c-.2 0-.2.2-.4 0 0 .5-.4 0-.8 0-.6 0 .2 1-.4 1 0 .5-.3.6-.2 1-.2.2-.6.2-.6.4s-.2.3-.4.4c0 .2.5 0 .8 0 .2.6-.2.7-.4 1 .6 0 1 0 1.6.2 0 .3-.4.3-.2.7-.2.4.7.2.6.5 0 .7 0 1.4.2 2-.7-.2-.3.5-1 .3 0 .4.3.6 1 .5 0 0-.3.2-.2.4h.4l.4.8c0 .4-.4.6-.2 1 0 .5-.5.6-.8.8.2.7-.6.7-.4 1.4-.6 0-.6.7-1.4.7-.3.4-.7.7-1.4.8l.2.5h-.2v.5c-.2 0-.4 0-.4.3 0 .2-.4.2-.4.4-.4 0-.6.3-1 .4 0 .3-.2.6-.6.7 0 .2.3.3.2.5-.2 0 0 .3-.4.3 0 0-.2 0-.2.3-.2 0-.2.2-.2.3 0 0-.2 0-.2.2-.2 0 0 .3-.4.3 0 0-.2 0-.2.3s-.6.2-.4.5c0 .2.4 0 .6 0l.4.2c0 .5-1 .2-1.4 0 0 .3-.8.6-.2.8 0 .3-.7.4-.8.7l.2.4s0 .4.2.4c-.2.4.6.3.4.7-.3 0-.8 0-.8.4 0 .2.3.3.6.4h.4c0 .3 0 .3.2.4-.2.2-.2.5-.2.8l-.2.4c.2 0 .2.2.2.3-.2 0-.4 0-.4.3-.2.4.3.4.2.7-.3 0-.5.2-.8.3 0 .2-.4.3-.8.3 0 .3 0 .5-.6.4l.2.4c.2 0 0 0 0 0 .2.3.2.6.2 1 0 .3.4.2.4.4 0 .4-.4.6-.2 1 0 .3.4.2.6.2l-.2.4h.6l.2.4c0 .4 0 .8-.4.8l-.2.4c-.2 0 0 .3-.4.3.3.5.8.8 1.4 1 .3.4-.5.6 0 .6.2 0 .2.3.2.5v.3l-.2.2s-.2-.2-.4 0c0 .5 1.4 0 1.2.7h-.6l-.8-.2c-.4 0 0 .5-.6.4-.4 0-.3.4-.8.3 0 .3-.7 0-.6.4-.5 0-.2.3-.6.3.3.2.2.6.2 1 0 0 0 .3.2.3l-.2.4c-.3.2-1.2.2-1.4 0-.4 0-.5.3-1 .3h-2c-.4 0-.4.2-.8 0h-.8c-.6 0-1.2.3-2 0h-2.4c-.6.2-1.4 0-2 .3h-.4c0-.2 0-.2-.2-.2-.3 0 0 0 0-.3-.3 0-1 .3-1 0-.7 0-.3.6-1 .4-.7 0-.4-.4-.8-.4h-.6c0 .3-.2.2-.2 0-.6 0-.5.3-1 .2h-2.2c-.2 0-.2.2 0 .2 0 .2-.4 0-.4.3-.5 0-.4-.2-.6-.3-.4 0 0 .5-.6.5H466c-.6 0-.8-.5-1.2-.6-.6 0-1 0-1.6.2H459.8c-.3 0-.3-.2-.6-.3-.7 0-1 .2-1.8 0-.6 0-.6.4-1.2.4s-.6-.4-1.2-.3c-.4 0-.3-.4-.8-.4h-1c0 .8-.6.2-.6.4h-.6-.4c0-.3-.3.3-.6.2h-.8c-.5.2-1.3.2-2.2.2-.4 0-.7 0-.8-.3-.3 0-.5 0-.6-.3-.6 0-.5.4-1 .4h-1.2c-.6.2-.6 0-1.2 0H442c-1 .2-2.2 0-2.8.2-.4 0-.4-.2-.8 0-.6-.2-.5 0-1 0 0-.3-.7 0-1 0-.5 0-.8-.2-1-.3-.2 0 0 .2-.4.2h-2l-.4-.2-.8.2c-.3 0-.7-.2-1 0-.6 0-1.3 0-1.8.2-.2 0-.4 0-.4-.2h-3.2c-.5 0-.8.2-1.2.3h-2c-.4.2-.6 0-1 0-.7 0-1.6.2-2.4 0h-4c-.6 0-.6.3-1.2.2-.6 0-.6 0-1-.2-.3 0-.6 0-.6.2h-1.2l-.6-.3h-6c-.4 0-.5.2-.7.2-1.4 0-3 .2-4 0-.7-.2-.6 0-1 0H397c0-.2-.4-.3-.6-.3h-1.4c-1 0-2.5 0-3.3.7h-2c-.6 0-.4-.2-1 0 0-.3-.4-.3-.6-.3h-.6c-.5 0-.6.3-1 .3h-4c-.4 0-.4-.2-.7-.2 0 0-.3 0-.3-.2-.5 0-.6.2-1.2 0-.5 0-.8 0-1 .2-.5 0-.4-.3-1 0-.5 0-.8 0-1-.2-.6 0-.4.4-1 .3h-2c-.4-.2-.7.2-1.4 0h-1.3c-.6 0-.5-.2-1 0-1.4-.2-2 0-3.3.2h-.6c-.3 0-.6 0-.6-.2-.6 0-.5.2-1 0-.6.2-.4-.2-.8-.2-.5 0-.8.2-1.4 0-.4.2-1.2 0-1.2.2-.4 0-.4-.2-.8 0h-1.2c-.5 0-.6 0-1 .2h-11.2-7.7c-.5 0-.6 0-1 .2-.4 0-.3-.3-1-.2h-1.7-3.6c-.6 0-.5.2-1 0h-1c0-.2-.2 0-.4 0s-.4 0-.4-.3c-.4 0-.3.4-.8.3H326.2h-1.8-.2c-1 .2-2 0-2.8 0-1.7-.3-3.6.2-5.3.2-.6 0-.7-.3-1.3-.3-.8 0-1 .2-1.6 0H312l-.3-.3c-.6 0-.5.4-1 .4H308c-.3 0-.6 0-.7.3h-1c-.6 0-1.2 0-1.8-.2-.3.2-.5.2-.8 0-.3 0-.5.2-.8.3-.7 0-1.6.2-2 0 0 0 0 .2-.3 0s-.4 0-1 0-.8.2-1.4.3H297c-.4 0-.5-.2-.7-.2h-.6c-.5 0-.6.2-1.2 0 0 .5-1 0-1 .4-.5 0-.4-.2-1 0-.3-.3-.3-.2-.6 0l-2-.4c-1 0-.8.5-1.5.4H287c-.3-.2-.4 0-.7 0-.4 0-.4-.2-.8 0-.6-.2-.7 0-1.2 0 0-.4-.7-.3-1-.3h-4s0 .3-.3.3c0-.2-.2 0-.2 0H275.4c-.7 0-2 0-2.6.2-.4 0-.4-.2-.8 0 0-.2-.4-.2-.4-.4-.7 0-.5.6-1.2.5-.5 0-.8-.2-1-.3 0 .2-.5 0-.8 0H265.8h-1.6c-.6 0-.4-.3-.8-.3h-1c0 .2-.6 0-.6.3-.8 0-.4-.5-1-.6-.6 0-.5.2-1 0-.5 0-.8 0-.8.4-.5.2-.4 0-1 0-.2 0-.6 0-.6.3H255.6c-.3 0-1 .2-1 0-.2 0 0 .2-.4.2l-.4.3h-1.6s-.6 0-.6-.2h-.8c-.4 0-.4.3-1 .2-2-.2-4.7.2-6.5-.4-.7 0-1 .4-1.8.3-.6 0-.4.3-.8.3H238c-.4 0-.5-.2-1 0-.7 0-1 0-1.5.2H233c-.4 0-.5-.2-1-.3-1.2-.2-2.2 0-3.2.2h-1.4c-.2 0-.4-.2-.6 0h-.2s-.3-.2-.6 0h-3c-.8 0-1.4-.3-1.8 0-.5 0-.6-.2-1.2 0-.3-.2-1 0-1-.2-.6 0-.5.4-1 .4H217.4V92h-.4s0-.2-.2 0h-1.2-.4c0 .2-.2.2-.4.2-.6 0-1.3 0-1.8-.3l-1.2.5-1.8-.2h-1.4c-.3 0-1 .2-1 0-.5 0-.6.2-1.2 0-.6 0-.8 0-1.4-.2-1 0-1.7.3-2.6.4-.6 0-.4.3-.8.3-.6 0-.6-.2-1-.3-.2 0-.5.2-1 0h-3c-.5 0-.8-.2-1.2-.3-.2.2-.5.2-.8.2 0 0-.4 0-.4.3-.2-.2-.7-.2-1.2 0-.4 0-.4-.3-.8-.2h-.6l-.6.2h-2c-.4 0-.4-.2-.8 0-.3 0-.6 0-.6-.2-.4 0-.7.3-1 .4-1 0-2-.4-2.6 0-.3 0-.4-.2-.4-.4-.5 0-1 0-1.4.3-.6 0-.5-.2-1 0H180l-.6.2H178.2c-.2 0-.2-.2-.2-.3-.5 0-.6.2-1.2 0h-1c-.6.2-.5-.3-1-.2-.7 0-.5 1-1.2.2h-.8l-.2.2c-.3 0-.5 0-.8-.2h-1.6c-.3 0-.6 0-.6.2-.6 0-.4-.4-1-.3 0-.4-1 0-.8-.3-.7.3 0-.3-.6-.2-.8 0-.4.6-1 .6h-1.4c-.6 0-.5-.5-1-.5h-.8s-.2-.3-.4-.3c-.3 0-.3.2-.6.3 0 .2-.4 0-.4.3h-.6s-.4.2-.4.4h-.4-.4c-.5 0-1 0-1-.3l-.6.2-.6-.2h-.8c-.5 0-.4.2-.6.3-.6 0-.5-.2-1-.2h-.6c-.2 0-.4 0-.4.2-.8-.2-2.4-.2-3.3 0h-.7-.2s-.2 0-.5 0c0-.4-1 0-1-.5h-.6c-.2.2-.5.2-.5.4-.3 0-.5-.2-.8-.3-.4 0-.5.3-1 .3s-1 0-1 .3c-.6 0-.4-.4-.8-.4H142c-.4 0-1 0-1-.3-.3 0-.2.4-.7.3h-3c-.6 0-.4-.5-1-.4-.6 0-.4.2-.8.2h-.8c-.3 0-.6 0-.6.2-.2 0-.4 0-.7-.2-.3 0-.5.2-.8.3-.5 0-.8-.2-1.4 0-.7-.2-.5.2-1 .2 0-.3-1-.3-1 0-.4 0-.5-.3-1-.4-.3 0-.5.3-1 .3h-1.1c-.6 0-1 0-1.5-.2h-.7l-.6.2h-1-1c-.6 0-1.2-.2-2 0-.7 0-1 0-1.5.2-.6 0-.6-.2-1-.3-.6.2-1.7 0-2.4 0-.5-.2-.6 0-1 0l-1.3-.3h-.8c-.4 0-.5.2-.7.2-2 0-3.5-.5-5 0-.6 0-1.3 0-1.5-.2-.3.2-.3 0-.6 0-.6 0-.4.3-.8.3h-1.2c-.8 0-.6.3-1.2.3 0-.2-.2-.3-.6-.4-.3-.2-.7 0-1 0l-.6-.2c-.8 0-.6.6-1.4.5 0-.4-1 0-1-.3h-2c-.6 0-1.3 0-1.8.3-.5 0-.8-.2-1.2-.3h-1.6c-.3 0-.6 0-.6.2-.5 0-1-.2-1.6 0H85c-.6 0-1 0-1.6-.3-.8 0-1.6.3-2.2 0-.5 0-.6 0-1 .2-.3 0-1-.2-1 0-.6.2-.5-.3-1-.3H76c-.2 0-.4 0-.4.2h-.8c-.3 0-.6 0-.6-.2-.3 0-.5.2-.8.3-.5 0-.6-.2-1-.3l-1.8.3h-1.2c0 .3-.4-.2-.8 0-.7 0-1.7 0-2.2.2-1.2-.3-3.5 0-4.7-.3h-1.1c-.2 0-.6 0-.6.3h-.7-1.7l-.6-.2c-.5 0-.5.2-1 0h-1.7c-1 0-2 .4-2.6 0-.4 0-.4.3-.8.2H43c-.6 0-.4-.3-.8-.3-.2 0-.5.2-1 0l-.6.2h-2.8l-5.3-.7c-.4 0-.4.2-.8 0-.6.2-.4-.2-.8-.2-.2 0 0-.4-.4-.4s0 .7-.6.6H30c-.4.2-.5 0-.8 0-.6.2-1.6 0-2.6 0-.4.2-.5 0-.8 0H25c-.6.2-1.2 0-1.8 0l-.6.2h-2.4c-.6-.2-1.4 0-2.2 0h-1.8c-.4 0-.4-.3-.8-.3-.2 0-.5.3-.6-.3h-2.4v.3h-.6-1l-.4.2h-.8c.2-.3-.7 0-.6-.4 0-.3.2-.4.6-.4 0-.7.5-1 .4-1.5.2-.4-.3-.4-.4-.7 0-.4 0-1-.2-1.2 0-.4.6-.4.6-.7 0-.5.4-.5.2-1 0-.2.6 0 .4-.4 0-.6-1-.4-1.2-.8 0-.4.6 0 .4-.6h.2c0-1 .2-.5.4-.5-.2-.5.6-.8.6-1v-1.2c0-.4.2-.3.2-.5.2 0 0-.2 0-.3h.3l-.2-.5c0-.4-.4-.3-.6-.4 0-.3 0-.4-.2-.5-.3-.4-1-.6-1.2-1 0-.3.2-.4.4-.5.3 0 0-.4.4-.4 0-.2-.2-.3-.3-.5 0-.5-.4-.4-.4-.6s.2-.4.4-.4c.3 0 0-.2 0-.4h.6c.2 0 .2-.3.2-.4 0-.2 0-.2-.2-.3-.2 0-.2-.2-.2-.2h-.7c-.3 0-.3-.3-.6-.4H8c0-.2-.3-.2-.3-.2l.6-.4c0-.3.2-.6.6-.7-.4 0-.5-.7 0-.7 0-.4-1-.2-.7-.7.8 0 1.3 0 1.8-.3.2-.4-.3-.5 0-1 .2 0 0-.2 0-.2s.3 0 .3-.2h.6c0-.7-.8-.5-.7-1 .2-.2.6-.2.6-.4 0 0 0-.3.3-.3 0-.2 0-.3.2-.4.2 0 0-.4.4-.4 0-.6-1-.5-1-1 0-.4.2-.5.5-.6 0 0 .2 0 .2-.3 0-.2 0-.2.2-.3-.3-.5-.3-1.2-.3-2h1c0-.3-.5-.5-.5-.5v-.7c0-.5.6-.4.5-.8.2-.3.4-.5.4-.8.4 0 .4-.2.7-.3 0-.2.4-.2.4-.4.2-.6-.6-.6-.7-1 0-.2-.6 0-.4-.4h-.5l-.2-.2c.3-.2.2-.7.2-1 0-.5-.6-.4-.4-.8 0-.2 0-.5-.5-.5l.2-.5c.2-.4-.6-.3-.4-.7.5 0 .5-.5.6-1 0-.3-.7-.2-.5-.6 0-.3 0-.2-.3-.2-.2 0 0 0 0 0v-1c0-.2.2 0 0-.5.2 0 .2 0 .3-.3h.5l-.2-.2h-.2c-.3 0-.3-.3-.6-.4 0-.3 0-.4-.2-.5 0-.4-.5-.4-.8-.5 0-.4.5-.4.4-.8 0-.3-.3-.4-.4-.7 0-.2 0-.2.2-.3h-.4c-.2-.5.2-.4.2-.6v-1.6c-.2 0 0-.3-.3-.3-.2-.3.3-.2.3-.6 0-.3-.3-.4-.6-.5 0-.4-.5-.4-.8-.5L8.4 43l-1-1.2c.2-.4-.6-.3-.4-.7-.3 0-.5 0-.6-.3 0-.3.5-1-.2-1-.2-.5 0-.5 0-.7.2 0 .3-.2.5-.3 0-.5-.8-.4-.6-1 .6 0 .5-.3.7-.4h.8l-.2-1c.5 0 0-.3-.2-.3 0-.4.5-.3.5-.5s-.3-.3-.2-.5c0-.2.3-.3.2-.5 0-.3.4-.3.5-.5 0-.5-.7-.3-.6-.8 0-.2 0-.2-.2-.3 0-.3.3-.4.4-.6 0-.2-.4-.2-.4-.4s-.3-.3-.2-.5c-.2-.6 1-.3 1.2-.5 0-.5-.8-.3-1-.7-.3-.2-.8-.3-.8-.7.2 0 0-.3.4-.3 0 0 .2 0 .2-.3.4 0 .4-.4.6-.5h.8c.3 0 0-.5.4-.5l.4-.3c0-.6.6-1 .4-1.6 0 0-.2 0-.2-.3H9c-.2-.6.2-.7.4-1-.3 0 0 0 0-.2 0 0 .2 0 .2-.3.2-.4-.3-.4-.4-.7-.3 0-.4-.3-.4-.5.3 0 .8 0 .8-.4.3 0 .5 0 .7.2v-.3H10c-.5 0-.7 0-.6-.4-.8.2-.7-.3-1.6-.2 0-.2 0-.5-.2-.5 0-.5 0-1 .2-1.2 0 0-.2 0-.2-.3h-.4c0-.5-.4-.4-.4-.6 0-.2.3-.3.4-.6 0-.3-.4-.4-.2-.8.3 0 .2-.4.8-.3l-.8-1c-.2-.3.3-.3.4-.6 0-.3-.6-.2-.4-.5 0-.3 0-.4.4-.4.2-.4-.7-.2-.6-.5-.4 0-.4-.4-.8-.4 0-.5.6-.4.4-.8.5 0-.3-.2 0-.5 0-.2-.4 0-.6 0 0-.3-.2-.4-.4-.4-.2-.4.3-.4.4-.7-.3-.2-1 0-1-.4-.4 0-.5-.3-1-.3l-.2-.6c-.6 0-.5-.2-1 0-.3-1-.7-1-1-1.4H1s-.2-.5-.8-.4c0-.5.4-.6.2-1 .2-.2.3-.2.6-.2L1 7c.5 0 .8 0 .8-.3h1c.4-.2.5 0 .8 0 .5 0 .8-.2 1.4 0 .5 0 .6-.3 1.2-.2 0-.4 1 0 .8-.3.4 0 .4.2.8 0 .5 0 .6 0 1-.2.6 0 .6.2 1.2 0s1.5 0 2-.2c.7 0 1 .3 1.2 0h.8c.5 0 1.2 0 1.6-.3.5 0 .6.2 1.2 0 .6.3 1-.3 1.8 0h3.6c.7 0 .7.2 1.3 0 .3.2.4 0 .4-.2h2.3c.5 0 .6-.2 1-.3.5 0 1.2.2 2 0 .4.2.5 0 .8 0h3.1c1.2 0 1 .3 1.4.3s.4-.2.8 0c.3 0 .8 0 .8-.2l.6.2h.6l1-.2c0 .4.4 0 .8 0h1.6l1 .2H49c.4 0 .7.2 1.4 0h2.4c.6 0 .5-.2 1 0h3.4c.4 0 1 0 1-.2h1c.5 0 1 0 1.5-.2 0 .2.2 0 .4 0h.5c.4.2.5 0 .8 0 .4 0 .4.2.8 0 .2 0 .6.2.7 0h.6c.2 0 .6 0 .6-.2.4 0 1 .2 1.7 0l.8.2c0-.2.4 0 .4 0 .5-.2 1.3-.2 2 0 .5-.2.6 0 1 0h2.5c.5 0 1.2 0 1.6-.2h3.4c.6 0 1.2 0 1.6-.2.6 0 .5.2 1 0 1.8 0 3.4.3 5.3 0h.4v.3h.8c.3 0 1 .2 1.4 0h3.4c.6 0 .5.2 1 0 0-.2.7 0 .8 0 .5 0 1 0 1.4-.2.5 0 .4.2 1 0 .7 0 1.3-.2 2.2 0h1.6s.3.2.6 0h4c.6.2.4-.3 1-.2.8 0 1 .2 1.6 0 .6 0 1.2 0 1.6-.2.7 0 1.8.2 2.2 0 .4 0 .4.2.8 0h2.4c.5 0 .6.2 1 .3 1 0 1.7 0 2.2.3h.8l.4-.2h1.2c.3 0 .8-.2.8 0 .4 0 .7-.5.8 0 .4 0 .5-.2.8-.3.6 0 .4.3.8.3h4c.3 0 .5-.3.8-.3H131.8c.6-.2.4.2.8.2h1.2c0 .2.4.2.6.2h1.8c.5 0 .4-.4 1-.2 0 .2.2 0 .2 0 .2 0 .4-.2.4-.3 1.2.2 3 0 4.7 0 .5 0 .6-.2 1-.3h2.4c.5.2.6 0 1 0 0 .2.5 0 .7 0l.4-.2c0 .2.5 0 .7 0h.8c.7 0 .6.4 1 .4l1.8-.6 1.2.2.2.2h.6c.7 0 .8.3 1.6.2.5 0 .4-.2 1 0 0-.3.2-.4.5-.4 0 .2.4 0 .6 0h1.5c.3 0 .6 0 .6.3l1-.3s.3 0 .3.2c.2 0 .2 0 .2-.2h.6c.3 0 .2-.2.5-.2.5 0 .4.2 1 0 .6.2.7 0 1.4 0 .5 0 1 .3 1.7 0h.2s0 .2.3.2h1.2s.6-.2.8 0h2.1c.5 0 .4-.2 1 0 .4-.2.5 0 .8 0 .5 0 .6-.2 1.2 0 .3-.2 1 0 1-.2.7.2 1.2 0 2.2 0 .6-.2.7.3 1.4 0h.3c.4 0 .4.2.8 0 .4 0 1 .2 1 0 .4 0 .3.2 1 0h3.5c1.4 0 3.2 0 4.3-.2 0 .2.5 0 .8 0 .4 0 .4.3.8.2h2s1 0 1.6 0H202l1-.3c.5 0 .5-.3 1-.3h1.7c.6.8.5 0 1 0s1.2 0 1.4.3c.2 0 1-.3 1 0V3c.3 0 .3.2.3.3.2 0 .5-.2.8 0h.7c.5 0 .8.3 1.2.4h7.2c.5 0 .6-.3 1-.4h1.2c.6.2.6-.2 1.2 0h2.2c.6 0 1-.2 1.6-.3H239s.2-.2.4 0h1.6c.6 0 .6-.2 1.2 0 .5 0 1 0 1-.4l1 .3c1 0 2.2-.2 3 0H250.4c.5 0 1-.2 1.8 0 .5 0 .8-.3 1.4-.2 0 0 .4 0 .4-.3.3 0 .5.2.5 0h.6c0 .3 0 .3.3.4.6 0 1.5 0 1.8-.2 1.3 0 2.8.3 3.8 0 .4 0 .4.3.8.3h5.5l1-.2c.2 0 .7 0 .7-.2.5 0 .4.2 1 0H271c.7.2.8 0 1.3 0 0 .2.4 0 .6 0h3.7c.6 0 .5-.2 1 0 .6-.2.6 0 1.2 0h1c.8-.2 1.8 0 2.7 0h5.4v-.2h.3c.2 0 .8.2 1.2 0h.9c.6.2 1.4 0 2 0h1.2c.7 0 1.3-.2 1.8-.3l1.8.2h1.8c.7 0 1.6 0 2-.2H306.3c.6 0 .4-.3.8-.3.2.4.5 0 1 0h1c1 0 2 0 2.3.2l.6-.2h.3c.4 0 .7 0 .8-.2.5 0 .5.4 1 .3.4 0 .7 0 .7-.2h.6c.4 0 .7 0 1.2.2 1-.2 1 0 1.8 0s2.3.2 3 0c.5-.2.6 0 1 0h.5c.4 0 .4-.3.8-.2 0 0 .4 0 .4-.3.6 0 .4.3.8.3.5 0 .4-.2 1 0 .6-.2.6 0 1 .2.5 0 1-.2 1.8 0l.8-.2h.8c.5-.2 2 0 2.4-.2.4 0 .4.2.8 0 .6.2.7 0 1.2 0 0 .2 1 0 1.2 0h1.4c.5 0 .4-.3 1 0 .4 0 .3-.4.8-.3 0 .2.5 0 .8.2H342.6c1 .2 2 0 3.3 0h1c.4 0 1 .2 1 0 .8.2 2.2 0 3.4 0 .6 0 .7.3 1.4.2 1 0 1.7-.2 2.4-.3.6 0 .5.2 1 0 .4.2.5 0 .8 0 .7.2 1.3 0 2.4 0h.4c.2 0 .4 0 .4-.2h1c0 .4.4 0 .8 0 .5 0 .4.2 1 0 .3 0 .8 0 .8.2h1c.3-.2.5-.2.8 0h.6c.2 0 .4 0 .4-.2h.6c.2.2.4.3.4 0 .3 0 .6 0 .6.2h.4l1-.2c0 .4.4 0 .8 0H373.2c.6.2.7 0 1.2 0h.4c.3 0 .8.2.8 0 .5 0 .6.2 1 .3.4 0 .5-.3 1-.3h5.2c.8 0 2 0 2.4-.4 1 0 1.8.2 2.6.3.6.2.7 0 1.2 0 1 .2 2-.2 3.3 0h5c.3 0 1-.2 1.3 0h2.2c.6-.2.5 0 1 0 .2-.2.4 0 .6 0h2.2l1-.2c0 .2.5.3.8.3 0 .3.5-.4.8.4h.6c0-.8 0-.4.2-.5h1c.6.2.7 0 1.2 0 0 .3.4-.4.6.4h2c.5-.8 1-.3 1.4-.5.2 0 .4-.2.4 0 .2 0 .2-.3.2-.4h1.6c.3 0 .6 0 .6.3l.8-.3c.3 0 .6 0 1 .2h2.8c.2 0 .4-.2.4 0 .2 0 .2-.4.2-.4h.8c.6 0 1-.2 1.6-.3.8.2 2 .3 3 .3h1c.4 0 1 .2 1 0l1.7.2h.8c1-.2 2 0 3.2 0l.6-.2H437.6c0 .2.2 0 .4 0h2.6c.2 0 .4 0 .4.2l.8-.2h.8c.5 0 .6.2 1 .3.3 0 .6 0 .6-.2h1.4c.4 0 .4-.2.8 0 .6-.2.7 0 1.2 0h.4l.2-.4c.4 0 .8.4 1 0 .4 0 .4.2.8 0 .3 0 .6 0 .6.2h5c.8 0 2.5 0 3.3-.2h1c0 .2.5 0 .7 0 .2 0 .2.3.4.3H470s.6 0 .6 0c.3 0 1 0 1.2-.2 2.7 0 5.3-.2 8-.3.6 0 1-.3 1 .4h1.1c.8-.2 2.4-.3 3.3 0 .6 0 1-.3 1.4-.4h2.2c.6.2.4-.2.8-.2.8.2 2 0 3.3 0l.8.2h4.1c.5 0 .6.4 1 .4h1c.3 0 .8 0 .8-.2h.4c.4 0 .7.2.6.5.6-.2.5 0 1 0 .2.4-.3.4-.2.7.2.2.6 0 1 0 0 .2-.3.2-.3.4s.3.4.2.8c.2 0 0 0 0 .3v.5c.2.3 1 0 1 .4 0 .3-.5.2-.5.4-.2 0-.2.2-.2.3h-.2c-.3.3-.8.4-.7 1-.2 0-.6 0-.6.2h-.4-.2l.5.6c.4 0 .5.2.4.5 0 .2 0 .2.3.2h.2c0 .3 0 .6.2.6l.2.4c-.6 0-1 0-1 .2-.4 0-.5.5-.5.5h-1-.4c0 .2.3.2.5.2h.4v1s0 .3-.3.3v.3h.6c.2 0 .4 0 .4-.2h1c0 .3 0 .7-.4.7 0 .2-.3.3-.6.4 0 .2.4.3.8.3l-.2.4h.5l.5.2v.5c0 .3 0 .3.2.4l-.2.4s.2 0 .2.3c0 .5-.4.4-.4.6.3 0 .2.4.5.4 0 .2.4.2.4.4-.2.5.3.7 0 1.2.2.2.5.2.5.4l.4.3c-.2.6 0 .8 0 1.2 0 .6-.7.5-.5 1.2-.5 0-1 .3-1.2.7 0 .4.4.3.6.4 0 0 .4.2.7 0 .2.3 0 .3 0 .5-.3 0-.3.2-.6.3.2.3.8.3.7.7-.6 0 .2.4.2.5 0 .5-.6.5-.7.8.2 0 0 .4.4.4 0 .2.5 0 .8 0l.2.5h.4c.6 0 .7.3 1 .5 0 .5-.6.4-.5.8l.2.4s0 .2.2.3v.3h-.3v.3h-.2l-.2.4h-.2c.4.3.6.3 1 0l.7.2c.2.5-.2.6-.4.8 0 .3.6.3.6.5 0 .3-.4.4-.5.7 0 .3.8.2.8.5s0 .4-.2.5c0 .5.8.4 1 .8 0 .2-.3.3-.3.5 0 .5.8.4.6 1-.2 0-.5.2-1 0 1 1 .8 1 .8 1.2zm-397.7-6.4l.2-.8v-.2h.4v-1c0-2.5-2.2-3-3.2-3-.3 0-.6 0-1-.2-.5-.7-1.4-1-2.7-1h-.7c-.3-.2-1-.5-1.7-.4-1 0-2-.3-3-.4l-6.6-1H88v-1l-1-.4-.2-.2c-.3-.3-1-.8-1.8-.8h-1l-3.8.3v.7c-.2 0-.4.2-.6.5-.6.2-1 .7-1 1-.2 0-.3.3-.3.3l-1.8.3-5.5 1-10.2.5h-.3l-1 .5c-.2.2-.3.2-.5.2h-.2c-.7 0-1 .4-1.3.6-.7 0-1 .3-1.3.6-.6 0-1 .3-1.5.5-.7.3-1.2.6-2 .5l-1 .7-1 .4h-.2c-.4 0-.8 0-1 .2-.6 0-1 .4-1 .5h-1.2l-.5.5c-.3 0-.5 0-.7.2-.3.3-.4.7-.6 1-.3.2-.7.4-1 1l-.2.2v1.2c-.5.7-.4 1.5-.3 2.2V34l.8 1.3c.3.4.4.5.4.8l1.3 1.2c.2 0 .4 0 .7.3l.3.2h.3c.2 0 .4.3.8.3.2 0 .6 0 1-.4h.4c1.2 0 2.5-.2 3.3-1 1-.2 1.8-.5 2.6-.8 1.2-.5 2.4-1 3.8-1.3l1-.3c2-.5 4-1 6.5-1 1.2 0 2-.3 2.5-.6l1-.2h.3c1.4.2 2 0 2.6-.4l-.3 1c-.2.4-.5 1-.5 2v.2c-.3.3-.5.8-.5 1.4-.4.4-.7 1-.8 1.8-.3.2-.4.6-.5 1.2h-.2l-.2.6c-.2.5 0 1 0 1.6h-.4v1c0 .6 0 1-.2 1.6 0 .8-.3 1.8-.2 3 0 0-.3.3-.3.5l-.5 1.3v.4c-.2.3-.5.7-.4 1.4l-.4 1c-.2 0-.4.5-.5 1l-.4 1.4c0 .5 0 .7-.2 1-.2.5-.5 1.2-.5 2 0 .3 0 .5-.2.7-.3.8-.7 1.7-.6 3-.3.4-.4 1-.4 1.5-.2.2-.4.6-.4 1l-.5 1.3c.2 1.2 0 2-.2 3l-.3.5v.2c0 .8 0 1.4-.4 2 0 .4-.2.7-.3 1v.4c0 1.8.2 3.3.8 5l.2.2.3.2c1.4 1 3 2 5.5 2l1.2-.2V79c.4 0 .7-.2 1-.3h.2l1-1 .2-.3.4-1.3c.2 0 .3-.5.4-1l.4-1v-1.3l.3-.3V71l.5-.2V70c0-1.3.4-2.3.7-3.5.4-1.3.8-2.7.8-4.5.4-.4.5-1 .6-1.2v-.2h.6l.2-1v-.2h.4v-1c0-.6 0-1 .3-1.4.4-.7.7-1.5.6-2.7 0-.5.2-.8.3-1.3 0-.6.4-1.4.4-2.4.5-1 1-2.3.8-4.2.2-.2.3-.6.4-1L82 44V43l.4-.4V42v-.3c0-.3.4-.8.3-1.4l.4-.8v-.2h.5v-2l.5-.2v-1.7l.4-.2v-.7c.2-1.2.6-2.2 1-3l2-1c.2-.3.5-.5.8-.6h7l9.5.2c1 0 1.7-.6 2-1l.5-.2h2l2-1zm50 17V44l-1.2-1.7c0-.3-.3-.5-.5-.7l-.3-.5h-1c-1.2-.2-1.2-.3-1.2-.6 0-2-.4-3.3-.8-4.6-.4-1.3-.7-2.5-.7-4.2l-.5-1c0-.7-.3-1-.6-1.3V29l-.3-.6c-.3-.7-.6-1.4-.8-2.3l-.2-.8h-.6c0-.2-.2-.4-.4-.6 0-.2-.3-.4-.4-.6l-.7-1-.6-1-.7-1.2-.2-.3h-.3l-.8-.5c-.2 0-.3-.2-.5-.3-.3-.5-.8-1-1.6-1v-.8H145c-.6 0-1.2-.3-1.8-.5-.7-.2-1.5-.5-2.6-.5-.5 0-1 0-1.5.2h-.6v.6h-.5c-.6.2-1.5.4-2 1.2l-.3.3-1.3.6H130c-1 0-1.7.6-2 1h-1l-.3.5c-.8 1-1 2.4-1 3.7l-.4 1.7v.3c0 .7 0 1.3-.3 2s-.6 1.6-.5 3c-.5.4-.7 1-.8 2l-.4 1.4c0 .3 0 .7-.2.8v.5c-.2 1-.6 1.6-1 2.4l-.6 1.3c-.5.3-.7.6-.8 1l-1.2.4c-.7 0-1 .5-1.3.7l-.7.3v.6c-.2 0-.8.4-1 1-.3 0-.5.2-.7.3-.3 0-.5.2-.8.3l-.7 1.4c-.2.2-.8.7-.8 1.6-.8.5-1.6 1.5-1.3 3.2-.3 2 .4 3 1 4 .2.2.4.5.5 1-.5.5-.6 1.2-.7 1.8 0 .3 0 .7-.2 1l-.2.2v.4c0 .4 0 .8-.3 1.2 0 .6-.4 1.2-.4 2v.4c-.3 1-.6 2.2-.3 4v.2l1 1.5.7 1.4.3.5h1v.7l1.2-.3h.5c.5 0 1.4 0 2-.5 1.2 0 2.2-.3 3-.6l1.4-.4v-.7c.3-.2 1-.7 1-1.6.2-.4.3-1 .3-1.6l.4-1c.7-.6 1-1.4 1-2 .3-.3.5-1 .4-1.7 0-.3 0-.4.3-.8v-.3l.5-.8.5-1.3v-.2l.2-.2c.3-.2.5-.6.6-1l.5-1c0-.3 0-.4.4-.8.2-.3.5-.8.6-1.4v-.3c0-.3 0-.4.6-.8v-.2c.4 0 .6-.2.8-.3l.6-.2h1c.4 0 1.2 0 1.8-.6l4.8-.2.8-.2c1-.3 1.7-.6 3-.5h2l1 .3c0 3 .2 5.7-.2 7.5-.3 1.3-.3 2.8-.3 4.2 0 1.3 0 2.7-.4 3.7v.7c0 .4.3.7.4 1 .4.8.7 1.4.7 2.5l.8 1.2c.2 0 .2 0 .2.3v1h.4v.3l1 .2h.3l1.4.4h.3c.4 0 1 0 1.2-.2.2 0 .4-.2.5-.4.4 0 .7-.2 1-.4l.2-.7c.6-.5 1.3-1.2 1.7-2.2v-.2c.2-.2.4-.5.5-1v-.6h.6V67v-.7c.4-.5 1-1 .7-2.3-.2-1.2 0-2 0-3 .2-1 .4-2 .2-3.4.5-1 .4-2 .3-3v-1-1.2c.3-.4.5-1 .4-2h1.3V50h.3l.3-1h.2l.2-1v-.5c.3 0 .6-.3.8-.7 0-.2 0-.4.2-.6.8-.5.6-1 .6-1.5zM244.8 19l-.2-.7h-.3v-1h-.5V17l-.6-.5c-1.6-.8-3.4-1.3-5.5-1.4h-.3l-.6.4-2.3 1h-.7l-.2.6c0 .4-.3.7-.5 1-.4 1-1 2-.8 4-.3.2-.4.7-.4 1.4-.2.3-.6.8-.3 1.8v1c-.2.5-.4 1-.4 1.6l-.3.8v.2h-.3v1l-.4.4c-.2.4-.5 1-.6 1.6-.3.3-.5.8-.5 1.4-.2 0-.3 0-.4.2l-.5.3v.5c0 .2 0 .3-.3.5-.2.3-.5.8-.6 1.5l-.5 1-.8 1-.3.4c-.4.3-1 .8-1 1.8l-.2.2c-.4.2-.6.6-.7 1L223 43c-.3.2-1 .7-1 1.6-.7.7-1 1.7-1.3 2.6 0 .4-.3.8-.4 1-.8.5-1 1.4-1 1.8v.2h-.6v1l-.6.3h-.3V51h-.6v-.2c0-.3-.2-.7-.5-1-.3-.4-.6-1-.8-1.7L215 47c0-1.4-.5-2.7-1.2-4l-.3-.5c-.5-.8-1-1.5-.8-2.8l-.8-1.3c-.2-.3-.4-1-1-1.2-.2-.6-.5-1-.7-1.2l-.3-.5c-.2-.6-.5-1-.7-1.3-.3-.4-.4-.5-.4-.8v-.4l-.8-1.3c-.3-.4-.4-.5-.4-.8l-1-1.2-.6-.3-.3-.6-.2-.3-1-1-.6-.7c-.3-.3-.7-.8-1.3-1-.7-1-1.7-1.5-2.6-2-.5-.5-1-.6-1.5-.7h-.2v-.3l-.3-.3c-.5-.6-1.2-.8-2.2-.8H195.4c-.4-.3-1.2-.6-2.2-.3 0 0-.4.2-.6.6h-1.7c-.3 0-.5.2-.8.4h-1.6l-.8.3v.8c0 .2-.2.3-.6.6-.5.5-1.2 1-1.3 2.2-.3.3-.5.7-.5 1-.8.2-1.2.8-1.4 1h-.8v1c-.2 2.2.7 3 1.5 3l.2 2c0 .2 0 .5-.2.8 0 .6-.3 1.3-.2 2.2-.3.4-.4 1-.4 1.4-.3.2-.5.6-.5 1l-.5.2v1c0 1.8-.3 3.3-.7 5 0 .5-.3 1-.4 1.6v.4c0 .3 0 .4-.3.7-.3.4-.7 1-.6 2v.6c-.4.8-.6 1.5-.7 2.5-.5.6-.5 1.5-.4 2-.3.3-.6.8-.5 1.6 0 .3-.3.6-.4 1l-.4 1.2-.4 1.2c.2 1.3 0 2.4 0 3.5-.8.5-.7 1.7-.7 2.2v.5c0 1 .3 2 .8 2.6.5.8 1.4 1.2 2.6 1.3.5.3 1 .5 1.8.5h1c1.3.2 2-.3 2.4-.6h.2c.2-.2.5-.2.7-.2.7 0 1.6 0 2.3-1l.2-.2c.6-1.5 1-3.2 1.2-4.8.2-1.4.5-2.7 1-3.8V60c-.3-.7 0-1 0-1.6.4-.5.7-1 .7-2 .5-.6.4-1.5.4-2 .3-.3.5-.8.4-1.5l.4-1v-1c.2-1.2.3-2.3.6-3 .5-1 .5-2 .6-3 0-.7 0-1.3.2-1.6l.2-.5c.4-1 1-2.3.7-4l.4-2V36c.3.3.6.6 1 .6l-.2.6.8.3c.2 0 .8.3 1 1.8l.6 1 .3.5c0 .5.4 1.3 1.2 1.7.2.8.6 1.4 1 2l.6.8c.2 1 .6 2 1 2.8l.8 3v.8h.5c0 1 .5 1.7.8 2v.3c.5.8.8 1.5 1 2.4v.7l.5.2v1h.6V60h.5v.5c.2.7.6 1 1 1.4 0 1 .8 1.3 1 1.5l1.4 1.4h.3c.2.5.6.7 1 1l.2.5h4.5v-.7l.8-.4c1 0 2-.5 2.6-.8l1.4-.5h1v-1l.3-.2c.5-.3 1-.8 1.2-1.8.6-.2 1.8-.7 2-2l.5-.8c.4-.3.6-.7.7-1h.4V56l.5-.2.6-.4-.2-.7c0-.4 0-.4.2-.5l.6-.2v-.6c.3-1.2.8-2 1.3-3l.7-1.8.7-1 .5-.2V47l.3-1c.4-.3.5-1 .5-1.5l.5-1v-.2c1-.6 1.4-1.8 1.6-2.6.5-.4.8-1 1-1.4l.3-.5.5-.3V38c.2-1.3.5-1.6.7-1.7l.8-.3v-.8-.7h.5l.2-1h.3v-1.8c.3 0 .4-.3.5-.6v-.8l.4-.6V29h.2c.3-.4.3-.8.3-1v-.2l.3-1c.4-.3.5-1 .5-1.5.3-.4.4-1 .4-1.5.4-.6.3-1.4.3-2v-.2c.4-.7.7-1.4.5-2.4zm58 23.3l-.2-.2c0-.4-.3-1-.4-1.3-.5-1.6-1-3-1-5.2l-.5-1c0-.7-.4-1-.6-1.4 0-.5-.4-1-.6-1.2-.3-.4-.4-.5-.4-.8l-.8-1V30c-.2-.2-.4-.8-.8-1.2 0-1-.8-1.3-1-1.5L295 26h-.2l-.2-.3c-.2-.3-.5-.7-1-1-.4-.6-1.2-1-1.6-1h-.2l-1-1h-.5v-.3h-1.5l-1.3-.5c-.4 0-.6 0-1-.3-.6-.3-1.2-.7-2.3-.6h-2.6c-1.4 0-2.5.2-4 .4-.2-.3-.4-.8-.8-1 0-.6-.4-1-.6-1-.2-.5-.6-.7-1-.8V18l-5.2.3h-.2c-1 .5-1.7 1.3-2 2.3-1 2.3-1.4 5-2 7.6 0 1-.3 2-.5 3 0 .3-.2.5-.4.8-.3.3-.5.7-.6 1.2v.6c-.3.3-1 1-1 2-.5 1.7-1 3.4-1 5-.5.6-.7 1.3-1 1.8 0 .3 0 .6-.2.8l-.2.2v.3c0 1-.4 1.4-.6 1.5l-.7 1.3c0 .6 0 .8-.3 1.2l-.6 1.3v.2l-.4 1c-.2 0-.3.4-.4.6l-.5 1.3c0 .6 0 .8-.3 1.2l-.6 1.3v.4c0 .3 0 .4-.2.7-.2.2-.5.7-.6 1.4-.4.4-.5 1-.5 1.6-.5.6-.4 1.5-.4 2h-.2c0 .3-.3.6-.3 1v.7l.6.8v.3c0 .3 0 .7.2 1l.2 1h.5c0 .2.3 1 1 1.2.2.3.6.6 1.2.6h.3l1.6.3c.2 0 .5.4.8.6.2.5.7.8 1.4 1v.7h1.3c1 0 1.7.3 2.6.6.8 0 1.5.4 2.5.5.7.4 1.5.5 2 .5h.8c.4.3 1 .5 1.5.4.2 0 .6.4 1.2.4h.5l2-.6c1.2-.4 2.4-.8 4-.8l1.2-.7.7-.3c.6 0 1-.3 1.2-.5l.3-.2 1-.7.7-.2c.7 0 1-.4 1.4-.6h.5l1.4-.8c.3 0 .8-.3 1-.7l.3-.3c.4-.2 1-.4 1.2-.8l.2-.3c.4-.2 1-.4 1.2-.8.7 0 1-.5 1.3-.7h.4l.2-.6c0-.5.5-1 1-1.4.6-.6 1.2-1.2 1.6-2l.4-1c0-.3 0-.6.2-.6l1-1V57c.4-.2.6-.6.7-1h.2l.2-.7V55h.4v-1.5h.4v-1.6l.4-.2v-1.5l.5-1.2c-.2-1.7 0-3 0-4.6.2-.7.2-1.3.2-2h.5zm77-20c-.2-.3-.3-.4-.2-.8l-.8-1.3c0-.2-.2-.4-.4-.6 0-.3-.3-.4-.4-.6l-1.3-1.2c-.3 0-.5 0-.8-.3-.7-.3-1.6-.8-3-.5H372c-.6-.3-1.5-.5-2.6-.3h-.3c-1.5.8-3.7 1-6 1.2-1.5.2-3 .3-4.5.7l-21.2 1.6-.8.3c-.8 0-1.3.3-1.5.5h-.2l-1.2 1c0 .3-.4.6-.8.8l-.6 1.4c-.3.2-1 .7-1 1.7-.4.5-.6 1.2-.7 2.2L330 30v.8l-.4.5.2.6v.3c0 .2-.4.6-.4 1.2-.3.4-.5 1-.4 1.5-.2.3-.6.8-.3 2-.3.4-.7 1-.5 2 0 .2 0 .3-.2.5-.3.4-.7 1-.6 2 0 .2-.3.3-.5.6-.4.4-.8.7-1 1.2-.8.2-1.3.6-1.6 1.2-.4.2-.6.7-.8 1.4h-.4v1c-.2 1.7.2 2.8.6 3.7.4.8.6 1.4.6 2.5l-.3.6c-.2.5-.5 1-.5 2l-.4.6-.4.2h-.2l-.2 1v.2h-.4v1c-.2 2-1 3.7-1.6 5.5l-.2.6v.3l-.2.6c-.3.5-.8 1-.6 2.4.2.8 0 1.2 0 1.8-.2.4-.3.8-.3 1.3l.7 1.3c0 .2.3.4.5.6.2.4.6.6 1 .8.5 1 1.6 1.2 2.2 1.3l.5.2.3.4h.6c.5-.2 1-.2 1.6-.3 2-.3 3.3-.4 5.5-.2h.7c1.2-.6 3.2-.6 5-.7h2.8c1 0 1.5-.4 1.8-.7h.7c.3 0 .6-.2.8-.3h.4c.3.2.6 0 1 0l.5.2.4-.3c.8-.5 2-.8 3-1l2-.5 7.7-.4v-.5h.7l.3-.3.8-.3c.4 0 1-.3 1.4-.6.7-.3 1-.8 1.3-1.2l.2-.3c1.3 0 2.6 0 3.4-.8h.2c.6-.4 2-1 1.5-3 0-1.8-1.4-2.3-2-2.5-.3 0-.5 0-.6-.2l-.3-.2h-.4c-.2 0-.4 0-.7-.3h-1v-.5h-1.3c-2.8 0-5.7.2-8 1-.4 0-.6 0-1-.2-.5-.2-1.3-.4-2.3-.2l-.4.2-.3.3c-.2.2-1.3.2-2 .2h-.5c-1.2-.2-2 .2-2.4.4-.4.3-.6.4-1 .3l-8 .4c-.3-.2-.7-.5-1.3-.5h-.8V61l.4-1.4c.3-.2 1-.7 1-1.6l.2-1v-.2-.3c.3-.3.5-.8.4-1.5 0-1 .3-1.3.6-1.5.4 0 .8-.2 1-.3.7-.2 1-.4 2-.3.6-.2 1 0 1.4 0 .7.3 1.6.5 2.7.2h2.2v.2h1c1.3.3 2 0 2.7-.3l1-.2h.3c.3 0 .5 0 .8.3.5.4 1 .7 2 .7h1v-.2c1-.4 2.5-.6 4.2-.6 1.2 0 2.5 0 3.5.2h.3l.8-.2c.8-.3 1.5-.5 2.5-.5h.6c1 0 2-.4 2.5-.7l1.3-.5h2c1.6 0 3.2 0 4.3-1 2.3-1 3.3-2.6 3-5l-.2-.6-.5-.3c-.7-.4-1.5-.6-2.7-.6h-2.3c-.8.2-1.5.3-2.2.2-.6-.3-1.4-.4-2.2-.6-.4 0-.8 0-1.2-.2h-.4c-4 .2-7.4 0-10.8-.4l-3.3-.3c-.2-.3-.6-.5-1.4-.5h-.8l-1.6.2c-.6-.4-1.4-.4-2-.4H347l-1 .2h-1.3c-.6-.3-1.4-.6-2.4-.3h-1c-.7 0-1.4.2-1.7 0 .3-.4.5-1 .5-1.6.6-.6.5-1.6.4-2 0-.3 0-.5.3-.8l.2-.3v-.5c0-.4-.3-1.4 0-2 .3 0 .5-.5.7-.8h.4l.2-.8.2-.3c.5 0 .8-.4 1-.5h.7c.5 0 1.3 0 2-.5.8 0 1.5-.2 2-.5.4-.2.7-.3 1.2-.3s1 0 1.5.3c.7.2 1.5.5 2.5.5h1.2l2.5-.2V31c0-.2 0-.2.2-.3 1 0 1.7-.2 2.2-.5l.7-.2c.8 0 1.4 0 2 .2 1.8.2 3.6.4 5.5.4 1 0 2 0 3-.2.5 0 1 .3 1.4.5.6.3 1.5.7 2.7.7.4 0 1 0 1.4-.2l1-.8h.2c1-.4 1.7-1 1.8-2 .2 0 .3-.3.4-.5l.5-1.2v-.4c0-.3.4-.7.3-1.4 0-1.4-.3-2-.5-2.6zm84.4 6.5v-.8c-.6-1.2-.7-3-.7-4.5v-1.5l-.2-1h-.5v-2h-.6c0-.3-.2-.7-.5-1-.2-1-1-1.6-1.5-2l-.6-.5-1.4-.8-.6-.2c-.4-.2-1.3-.6-2.3-.3l-1 .3v.5l-.6.6-1.2.8-1.4 1-.5.4V19.5c-.4.4-.8 1-.7 2l-.4.4c-.4.5-.8 1-1 2-.6.5-1 1.3-1.3 2-.3.6-.6 1-1 1.2h-.4l-.2.4c-.8 1.3-1.8 2.4-3 3.3l-.4.2v.5c0 .7-.4 1-1 1.6-.7.5-1.4 1.2-1.7 2.2v.2l-.3.2c-.3 0-.7.4-1 1-.7.4-1 1.3-1 1.8-1.3.4-1.8 1.3-2 2-.4 0-.7.5-.8 1-.3.3-.5.6-.6 1-.4 0-.6.5-.8.7h-.3l-.3.4-.5.4-.4.6h-.2l-.2.4-.5.5c-.2 0-.2.3-.3.5-.2 0-.4.2-.6.4h-.2l-.3.5h-.2l-.4.5-.4.6h-.2l-.3.4c-.3.3-.4.6-.4 1-.5.2-.8.7-1 1l-.2.3c-.2 0-.4 0-.6.2-.2-3.5-1-6.5-1.5-9.3l-.6-2.5-.2-6.3v-.2l-.5-2c-.4-1-.7-2.2-.7-3.6v-.3l-1-3-.8-2.8V21l-.5-.2c-1-.5-1.6-1-2.2-2v-.3h-.5l-.8-.4c-1-.3-2-.7-3.6-.5-1 0-1.6.5-2 .8l-.5.3-1 .2v.5l-.5.5c-.5.3-.8.7-1 1-.3.3-.6.7-.7 1.2-.5.4-.7 1-.8 1.2 0 .3-.3.6-.5.8-1-1.3-2.3-2.8-5-2.6-2 .4-3 1.4-3.6 2.4-.6.4-1 1-1.2 1.7-.5.4-.8 1-1 1.6-.3.5-.4 1-.5 1.3v.2l-.2.2v.3l-.2.3c-.2.4-.4 1-.3 1.7-.5 1-1 2.4-1.2 4v.2c0 .7 0 1-.3 1.7-.2.4-.5 1-.5 2l-.5 1c-.4.6-.8 1.3-.8 2.5l-.5 1-.4.2v2h-.5v1L388 48c-.2.7-.5 1.4-.5 2.5l-.5 1v.2c-.7.5-1 1.5-1.2 2.7-.3 2-.4 4-.4 6v4l1 1v.3c.4.2.7.6 1.3.7h1.6v.4h1c1.7.2 2.8 0 3.8-.3.6 0 1-.3 1.6-.3h.6l.4-.8c1-1.7 2-3.6 2.2-6.3 0-1 .3-2 .5-3 .3-1.2.6-2.4.6-3.7l.3-.7h.4v-1h.3c.2-.3.6-.7.7-1.4V49c0-.5 0-1 .3-1.3.2-.5.5-1.2.5-2 .6-.4 1-1 1.3-1.8V43c.3-.2.8-.6 1-1.5 0-.3.3-.6.6-.7l.6-1.4c.2-.2.6-.4.8-1 .8-.4 1-1 1.4-1.7.3-.7.4-1 .7-1l.7-1c.3-.3 1-.8 1-1.6l.3-.4.3.4v1l.6 1V40c0 .7.4 1.2.6 1.6.2.4.3.6.2 1v.3c.3.8.2 1.2 0 1.8-.2.5-.3 1.2-.2 2 0 .8.3 1.3.5 1.7.3.4.4.6.3 1v1c0 1 0 2.3.7 3V55c0 .6 0 1 .2 1.6V59l.6 1.5c0 .8.3 1.3.5 1.7 0 1 .2 1.8.5 2.4l.3 1 1.2.8c.4 0 .8.2 1.2.4.6.2 1.3.5 2.2.5.4 0 1 0 1.4-.2h.3c1.2-.7 2.4-1.2 4.3-1l1-.6 1-1 .5-.2.6-.2v-.6l.5-.2.7-.3v-.6l1-1 .2-.3c.2 0 .6-.5.8-1 .3-.2.5-.6.6-.8l.6-.2v-.5l.4-.3c1.3-.2 1.8-1.3 2-2l.2-.2c.3-.7.8-1.2 1.4-1.5l.5-.3v-.6l.3-.2c.3-.2.8-.7 1-1.4 1-.4 1.4-1.4 1.6-2v-.3c.7-.4 1.6-1 1.8-2.2.6-.5 1.2-1 1.5-1.8 1-.4 1-1.3 1.3-1.8v-.4c1-.5 1.5-1.2 2-2 .6-.4.8-1.3 1-1.7v-.3h.2l.2-.7c.3-.7.8-1.2 1.4-1.5l.6-.3v-.6l.3-.6 1-.6h.2c-.2 2-.6 4-1 5.8l-.5 3 .2 3.3c-.3 1-.7 2-.8 3v.5c0 .5 0 .7-.3 1-.3.6-.7 1.3-.6 2.4.3 1.7 0 3-.5 4.2l-.2.5v.4c.2 1 0 1.4-.3 2-.3 1-.7 2-.4 3.4v.3c.8 1.7 1.5 3.2 2.4 4.6l.4.6h.7c.3 0 .4 0 .7.2s.8.3 1.4.3h1c1 0 1.7-.3 2.2-.6.4 0 .6-.2 1 0l1.2-1c.3 0 .5-.2.6-.4.5-.5.4-1 .3-1.6v-.3c.3-.4.5-1 .5-1.7.4-.5.5-1 .4-1.4l.4-1.2c.3-.3 1.2-1 1-2.4-.4-3.6 0-6.3 1-9.4v-.4c-.2-1.2 0-2 0-3 .2-1 .4-2 .3-3.2.3-.6.3-1.5.2-2 .2-.3.6-.8.4-1.8-.2-.8 0-1.2 0-1.8.2-.4.3-.8.3-1.3 0-.7-.4-1.3-.6-1.6V35c.2-.4.5-1 .3-2-1-1.6-.8-3-.5-4z" /></g></svg>
