<svg xmlns="http://www.w3.org/2000/svg" viewBox="0 0 638.28876 163.11874"><defs><clipPath id="a"><path d="M0 130.5h510.6V0H0v130.5z"/></clipPath></defs><g clip-path="url(#a)" transform="matrix(1.25 0 0 -1.25 0 163.12)"><path d="M178 104.3s-.8 1-.8 1.4v.8c-.4.3-.4.7-.5 1 0 .2-.2.3-.3.5l-.4.7v.3c-.6.3-.7.7-.8 1h-.2c-.2-.3-.6-.4-1-.5 0-.3-.2-.4-.2-.5l-.5-.6c0-.2-.2-.3-.4-.5v-.3c-.2-.3-.4-.8-.8-1 0-1-.4-1.7-.6-2.4l-.5-1.4c1-.3 2.7-.2 4.2 0h2.2c0 .2.5.6.6.6v.7zm221 3c.2-.7 0-1-.2-1.4v-.2-.2c.2-.2.4-.6.3-1.2v-1c0-.3-.2-.6 0-1 0-.8-.2-1.2-.4-1.4 0-.4 0-1-.2-1.4v-2c-.2-.8-.3-1.4-.2-2.3V95c-.5-2.2-1-4-.7-6.5.3-1-.3-1.5-.5-1.7l-.3-.8c0-.3 0-.6-.2-1 0-.5-.2-1-.4-1.2v-.2c0-.3.2-.7 0-1l-.5-.3-1-.7h-.6c-.4-.3-1-.6-1.7-.5h-.5c-.5 0-.8.2-1 .3h-.9l-.4.5-1.6 3v.2c-.3 1 0 1.8.2 2.4.2.5.3.8.2 1.4V89.4c.4 1 .7 1.7.5 3-.2.7 0 1.2.3 1.5.2.2.3.3.2.7v.2c0 .7.3 1.4.5 2v2.4c0 .7.2 1.4.3 2l.6 4-1-.3v-.8l-.5-.2c-.4-.2-.8-.6-1-1v-.4h-.4v-.2c0-.3 0-1-.6-1.2-.3-.5-.7-1-1.2-1.3v-.4c-.2-.3-.4-1-1-1.2l-1-1.3c-.2-.7-1-1.2-1.3-1.4v-.3c-.3-.3-.5-1-1.2-1.3 0-.5-.5-.8-.7-1v-.5l-.5-.2-1-1V91c-.3-.4-.6-1.2-1.6-1.3-.2 0-.3-.2-.3-.2V89h-.4c0-.2-.2-.4-.4-.6l-.8-.7-.2-.2-.6-.7v-.4l-.4-.2-.3-.2v-.4h-.4c0-.2-.2-.3-.2-.3l-.6-.7-.8-.3c-1.3 0-2-.3-3-.8l-1-.2c-.8 0-1.2.2-1.6.4l-1 .2-.6.6c0 .2 0 .4-.2.6-.2.4-.4 1-.3 1.7-.3.2-.5.5-.5 1l-.4 1V93c-.5.5-.5 1.3-.5 2v.7c0 .4 0 .5-.2.8 0 .2-.3.6-.3 1 0 .7 0 1 .2 1.5 0 .4.2.7 0 1.2v1c-.2.3-.4.6-.4 1.2l-.2 3.2s-.3.3-.4.7v1h-.2s0-.2-.2-.3c0-.6-.5-1-.7-1l-.5-.8c-.2 0-.3-.2-.5-.6-.2-.4-.4-1-1-1.3 0-.3-.4-.5-.5-.6l-.4-1c-.2 0-.3-.3-.4-.5 0-.6-.5-1-.7-1v-.5c-.3-.5-.6-1-1-1.3 0-.5-.2-1-.3-1.4-.2-.3-.3-.5-.3-1s-.3-.7-.5-1h-.2v-.6h-.4c0-.2 0-.4-.2-.5 0-1-.3-2-.5-2.6 0-.8-.3-1.4-.3-2.2 0-2-.8-3.3-1.5-4.4l-.4-.5h-.4c-.4 0-.7-.2-1-.3-.7-.2-1.5-.4-2.6-.3h-.7v.3h-1.3c-.3 0-.6.3-.8.5h-.2l-.7 1c.2.8.2 1.7.2 2.6 0 1.6 0 3 .3 4.3 0 1 .3 1.5.8 2 0 .2 0 .5.4.8 0 .8 0 1.4.3 1.8l.2 1v.6h.3v1.4h.3c0 .4.2.7.3 1 0 .7.4 1.2.7 1.7l.3.6c0 .7.2 1.2.4 1.5l.2 1.2v.2c0 1 .5 2 .8 2.7 0 .5 0 1 .3 1.2v.3l.2.2c0 .3 0 .7.4 1 0 .4.3.8.6 1 0 .5.4 1 .8 1.2.4.7 1 1.4 2.4 1.7h.2c1.8 0 2.8-1 3.4-2 0 .3.3.5.4.7 0 .4.2.7.5 1 0 .3.3.6.5.8 0 .2.4.5.7.7 0 .2.2.3.3.4v.2l.6.2.3.2c.3.2.7.6 1.4.6 1.2 0 2 0 2.6-.4 0 0 .3 0 .5-.2h.3l.2-.3c.4-.6 1-1 1.5-1.4l.3-.2v-.3l.7-2 .6-2v-.3c0-1 .3-1.8.6-2.6 0-.4 0-.8.2-1.3l.3-4.5c0-.6.3-1.2.4-1.7.4-2 1-4 1-6.4h.4v.3c.3 0 .5.5 1 .7 0 0 0 .4.2.6l.2.2.4.5.3.3.3.3c.2.3.4.4.5.4 0 0 0 .3.2.4l.3.3.3.3h.2c0 .2 0 .4.3.5l.2.3.3.3h.3c0 .3.2.6.5.7 0 .2.2.4.4.5 0 .4.3.7.5 1 .3.3.6 1 1.4 1v.2c.2.3.4 1 1 1.2 0 .3.4.6.6.7l.2.2c.2 1 .7 1.3 1 1.7.6.4 1 .6 1 1v.4l.2.3c.8.5 1.5 1.3 2 2.2l.2.2h.3c.3.2.5.5.7 1 .3.4.5 1 1 1.3 0 .7.4 1 .7 1.4v.5c0 .6.4 1 .6 1.3v1l.5.3 1 .8.8.6.5.5v.2l.6.2c.6.2 1.2 0 1.5-.2h.5l1-.6s0-.2.3-.4c.4-.2 1-.6 1-1.3.3-.3.4-.6.4-.8h.4l.2-.7v-.7h.4v-.7-1c0-1 0-2.2.5-3l.2-.3v-.3c-.3-.7-.3-1.7-.2-3m-58 5.8c0-.5-.2-.8-.3-1v-.3l-.4-1-.3-.3c0-.6-.5-1-1.2-1.3h-.2l-.6-.5c-.3-.2-.6-.2-1-.2-.8 0-1.4.3-2 .5-.2.2-.5.3-1 .4h-5.7l-1.4.3c-.3 0-.4 0-.6-.2l-1.5-.3h-.3v-.6l-1.8-.2h-1c-.6 0-1.2 0-1.6.2l-1 .3c-.4 0-.6 0-1-.2l-1.4-.2c-.3-.3-1-.4-1.2-.4H315.2l-.6-.4h-.2v-.6h-.3c0-.3-.2-.5-.5-.7V105c-.2-.3-.2-.5-.2-.7 0-.3 0-1-.2-1.4 0-.6 0-1-.2-1.2 0-.2.6 0 1 0h.8c.7 0 1.3 0 1.7-.2H318.7c.3 0 1 0 1.3-.3h1.7c.5 0 .8 0 1-.2h2.3c2.4-.3 4.8-.5 7.5-.4h.3c.2 0 .5 0 .8-.2.5 0 1-.2 1.6-.4h1.5c.5.2 1 .2 1.6.2.8 0 1.4 0 2-.4l.2-.2v-.3c.3-1.8-.3-3-2-3.7-.6-.5-1.8-.5-3-.5h-1.3l-1-.3c-.3-.3-1-.5-1.7-.5h-.5c-.6 0-1-.2-1.7-.4H326c-1 0-2 0-2.8-.3l-.7-.2c-.6 0-1 .3-1.3.5l-.6.2c-.5 0-.7 0-1-.3-.4 0-1-.4-2-.2h-.5v.3h-1.5c-.8-.3-1.4 0-2 0h-1c-.5.2-.8 0-1.2 0-.3-.2-.5-.3-.8-.3-.2 0-.3-.3-.4-1v-1l-.2-.3c0-.4 0-.7-.2-1 0-.5-.5-.8-.7-1l-.4-1V87.4h.7c.4 0 .7 0 .8-.3l5.8.4c.3 0 .4 0 .7.2.3.2.8.4 1.7.3H320v.3h.3c.7.2 1.3 0 1.6 0 .2-.3.4-.3.7-.2 1.5.6 3.5.7 5.5.7h.8v-.2h.5l.3-.2h.8l.3-.3h.2c.5-.3 1.5-.6 1.5-1.8.3-1.4-.7-2-1-2l-.3-.2c-.6-.5-1.5-.6-2.4-.6v-.2c-.3-.2-.5-.6-1-.8l-1-.4-.6-.2-.2-.2h-.4l-.2-.4-5.3-.3-1.4-.4c-1-.2-1.6-.4-2-.7l-.4-.3h-1-.3-1c-.3-.3-.6-.6-1.3-.5h-2c-1.2 0-2.6-.2-3.4-.6h-4.2l-1.2-.3h-.4l-.2.2h-.4c-.4.2-1.2.3-1.5 1-.2 0-.5.3-.7.6 0 .3-.3.4-.3.5l-.6 1c.2.2.2.5.3.8 0 .4.2.7 0 1.3 0 .8.3 1.3.5 1.6 0 .3.2.3 0 .5v.2l.2.2c.5 1.2 1 2.4 1 3.8v.7h.4v.2l.2.6h.5c0 .3.2.4.3.6 0 .6.3 1 .5 1.4 0 0 0 .3.2.4 0 .7-.2 1.2-.4 1.7-.3.7-.7 1.4-.6 2.6v.6h.3c0 .5.3.8.6 1 0 .3.4.6 1 .8 0 .3.4.5.6.7l.3.4c0 .6.2 1 .4 1.3v.3c0 .7.2 1 .4 1.3 0 .7 0 1 .3 1.3 0 .5.2 1 .4 1 0 .5.2.7.3 1v.8c.2 0 .2.4.3.6 0 .3 0 .6.3 1 0 .6.2 1 .5 1.4 0 .7.5 1 .7 1.2l.4 1c.2 0 .4.3.5.6l.8.5h.2c.2.2.5.5 1 .5l.6.2 14.8 1.2 3.2.4c1.4.2 3 .3 4 1h.2c.7 0 1.4 0 1.8-.2H336c.8.2 1.5-.2 2-.4 0-.2.2-.2.4-.2l1-1 .2-.3.3-.4.4-.8c0-.3 0-.4.2-.7.2-.3.4-.8.3-1.6M287 101v-1.5c0-1-.2-2 0-3.3l-.3-.8v-1h-.3V93h-.3V92h-.2v-.6h-.3c0-.2-.3-.5-.5-.7v-.2l-.8-.7v-.3l-.4-.6c-.2-.6-.7-1-1-1.4l-1-1v-.3h-.3c-.2-.3-.5-.5-1-.5-.3-.4-.6-.5-.8-.6l-.2-.3c-.3-.3-.6-.5-.8-.5l-.2-.3c-.2-.3-.5-.4-.8-.5l-1-.5h-.3c0-.2-.4-.4-1-.4l-.4-.2-.8-.6h-.2l-.8-.4c-.2 0-.4 0-.5-.2l-1-.5c-1 0-2-.4-2.7-.6l-1.3-.4h-.4c-.4 0-.7 0-1 .2-.3 0-.7 0-1 .3h-.5c-.4 0-1 0-1.4.3-.6 0-1.2.3-1.6.5-.6.2-1.2.4-1.8.4h-.8v.4c-.6.2-1 .5-1 .8-.3 0-.5.3-.6.5l-1 .2h-.3c-.5 0-.7.2-1 .4-.4.2-.6.6-.6.8h-.4v.6c-.2.3-.2.6-.2.8v.2l-.3.5v.3c0 .3.2.5.3.7 0 .4 0 1 .3 1.4 0 .4 0 .8.3 1 0 .6.3 1 .4 1.2.2.2.2.3.2.5v.2c0 .5.2.8.4 1 .2.4.2.5.2 1l.3.8c.2 0 .3.3.4.4 0 .3.2.5.3.6v.2c0 .4.3.6.4 1 .3.2.4.3.3.7l.5.8s.3.3.4 1v.6c.2 0 .3.3.4.5 0 .4.2.8.6 1.2 0 1.2.3 2.3.7 3.5-.2.8.3 1.2.6 1.4v.4c0 .3.2.6.4.8l.2.6.4 2c.4 2 .7 3.7 1.3 5.3 0 .8.6 1.3 1.3 1.6l3.7.3v-.5c.3 0 .5-.2.7-.5.2 0 .3-.3.4-.7.4-.2.6-.5.6-.7l3 .3c.4 0 1 0 1.7-.2.7 0 1.2-.2 1.5-.4.3-.2.4-.3.8-.2l.8-.3h1v-.4h.5l.6-.6h.2c.2 0 .8-.3 1-.8l.8-.6v-.2h.2l1-1c.2 0 .7-.4.8-1 .3-.3.4-.7.5-1l.7-.8c0-.2 0-.3.2-.5l.4-.8s.4-.4.4-1l.4-.6c0-1.5.2-2.5.6-3.6l.3-1zM247 115.6v-.2c0-.3 0-1-.4-1.3 0-.4 0-.8-.3-1 0-.4 0-1-.2-1.2l-.2-.6c0-.3 0-.6-.3-.8v-.5l-.4-.2v-.6c0-.2-.3-.4-.4-.5v-1.1h-.3v-1l-.4.2c-.3-.2-.3-.3-.3-.5v-.6l-.5-.2s-.3-.3-.4-1v-.5l-.4-.2s0-.2-.2-.3c0-.3-.3-.8-.8-1 0-.6-.3-1.4-1-1.8 0-.3-.2-.6-.4-1 0-.2 0-.7-.4-1l-.2-.6v-.5h-.4c0-.3-.2-.5-.5-.7 0-.4-.3-.8-.5-1.2-.4-.7-.7-1.3-.8-2.2V93l-.5-.2c-.2 0-.2 0-.2-.2V92l-.4-.2-.2-.7h-.3s-.2-.4-.5-.5c0-.2-.2-.4-.4-.6 0-1-1-1.3-1.2-1.5 0-.7-.6-1-.8-1.2l-.2-.2v-.5h-.7l-1-.5c-.4-.2-1-.4-1.7-.5l-.6-.2V85l-3-.3-.3.4c0 .2-.3.3-.5.6h-.3l-1 1c0 .2-.6.4-.7 1-.3.2-.6.5-.7 1v.4h-.4v1h-.4v.7h-.2v.6L220 93c-.2.3-.5.8-.5 1.4h-.3v.6l-.7 2c-.2.6-.5 1.2-.6 2l-.5.6-.7 1.3c-.5.2-.7.7-.8 1l-.2.4-.5.7c0 1.2-.5 1.4-.6 1.4l-.6.2v.5l-.5.6v-.5l-.4-1.2c.2-1.2 0-2-.4-2.8l-.2-.5v-1c0-.7 0-1.4-.5-2-.3-.6-.4-1.3-.5-2v-1c0-.3-.2-.4-.3-.6 0-.5 0-1-.3-1 0-.4 0-1-.4-1.5 0-.6-.2-1-.4-1.4-.2-.3-.3-.5-.2-1v-.5c-.3-.7-.4-1.6-.6-2.6-.2-1.2-.4-2.4-.8-3.4l-.2-.2c-.5-.6-1-.6-1.5-.6h-.6l-.2-.2c-.3 0-.7-.5-1.7-.4h-.6c-.6 0-1 0-1.5.3-.8 0-1.4.4-1.8 1-.4.4-.6 1-.6 1.8v.3c0 .4 0 1.2.5 1.6.2.8.2 1.5 0 2.4l.4.8c0 .4 0 .7.2.8 0 .3.2.5.3.6 0 .6.2 1 .3 1 0 .5 0 1 .3 1.5 0 .7.3 1.2.5 1.7v.4c0 .7.4 1 .6 1.4.2.3.3.3.2.5v.3l.3 1.2c.3 1 .5 2 .5 3.4v.7h.3c0 .3.2.6.3.7 0 .3 0 .7.3 1-.2.6 0 1 0 1.5l.2.6v1.3c-.7.2-1.3.7-1.2 2.2v.7h.6s.4.6 1 .7c0 .2 0 .4.3.7 0 .7.5 1 1 1.4l.2.4v.5h.6c.3.2.6.2 1 .2l.6.2h1.3c0 .3.3.4.4.5.8.2 1.4 0 1.7-.2h.6c.7 0 1.2-.2 1.6-.6v-.3h.2c.2-.2.7-.3 1-.7.6-.3 1.3-.5 1.7-1.2l.8-.8c.2-.2.3-.4.5-.4l.6-.8v-.2l.2-.4s.3 0 .4-.2l.7-.8c0-.2 0-.3.3-.6 0-.2.4-.4.5-1 0-.3.2-.4.4-.6l.4-1 .3-.3.6-.8c.4-.4.5-.8.6-1l.5-1c0-.8.2-1.2.6-1.8v-.3c.6-1 1-2 1-3l.4-.8.6-1.2.4-.7h.4v-.4l.3-.2.4.2v.6h.5v.2c0 .3.2 1 .7 1.2 0 .2 0 .5.2.7.2.6.4 1.3 1 1.8 0 .7.4 1 .6 1.2l.4 1s.2.4.5.6c0 .8.6 1 .8 1.4h.2l.6 1 .4.6c0 .5.3.8.4 1l.3.4v.4l.4.3h.2c0 .5 0 1 .2 1 0 .6.3 1 .5 1.2v.4l.2.5h.2c0 .4.2.6.2.7 0 .4.2.8.3 1v.8c0 .6 0 1 .3 1.2 0 .5 0 .8.2 1 0 1.3.3 2 .6 2.7.2 0 .3.4.4.6v.5l.6.2c.6 0 1 .3 1.6.6l.4.2h.2c1.4 0 2.7-.4 3.8-1l.4-.2v-.4h.4v-.7h.2v-.5c.3-.8 0-1.2 0-1.5m-58-17.3s0-.3-.2-.4c0-.3-.3-.4-.5-.5v-.9h-.2l-.2-.8h-.2v-.2h-.7-.2c0-.7 0-1-.2-1.4 0-.2-.2-.4 0-.7V93v-.4c0-.7 0-1.5-.3-2 .2-1 0-1.8 0-2.5-.2-.6-.2-1.2 0-2 0-.8-.3-1.3-.5-1.6l-.2-.5v-1h-.3v-.3c0-.4-.2-.6-.3-.7v-.2c-.3-.8-.8-1.2-1.2-1.6 0 0 0-.3-.3-.5l-.5-.3c-.2 0-.3-.2-.4-.3h-1l-1 .3h-.2l-.6.2v.2h-.2v.7c0 .2 0 .3-.2.3l-.6.8c0 .7-.2 1.2-.5 1.7l-.4.6v.6l.2 2.6c0 1 0 2 .2 2.8.3 1.3.2 3.2 0 5.2-.3 0-.5 0-.7.3H176c-1 0-1.4-.2-2-.4l-.6-.3H170c-.4-.5-1-.5-1.3-.5h-.5c-.2 0-.3 0-.5-.2 0 0-.3 0-.5-.2-.5-.3-.5-.4-.5-.6V93c0-.5-.2-.8-.4-1-.2-.2-.2-.3-.2-.5l-.2-.8c0-.2-.3-.5-.5-.7l-.2-.3c0-.3 0-.6-.2-.8 0-.3-.2-.5-.3-.7V88c-.2 0-.2-.2-.2-.4 0-.6 0-1-.4-1.2 0-.4-.2-1-.6-1.4 0-.3-.2-.5-.3-.6 0-.5 0-.8-.2-1 0-.7-.4-1-.6-1.2v-.5l-1-.3c-.6-.2-1.2-.4-2.2-.4-.3-.3-1-.4-1.2-.4h-1.1v.3h-.3H155.8l-.3.3c0 .3-.3.6-.5 1l-.6 1v.2c-.3 1.2 0 2 0 2.7v.3l.5 1.4V89l.3.3v.6l.6 1.2-.5.7c-.4.5-.8 1.3-.7 2.6-.2 1.2.4 1.8 1 2.2 0 .6.3 1 .5 1l.5 1c.2 0 .4.2.6.4l.4.2c.2.4.6.6.8.7v.5l.5.2c.3.2.6.4 1 .4l1 .5s.2.4.5.6c0 .4.3.7.4 1 .2.6.4 1 .5 1.7v.2h.2v.6l.4 1c.2.6.3 1 .7 1.5 0 1 0 1.6.3 2 0 .6.3 1 .2 1.5v.2l.2 1.2c.2.8.3 1.8.8 2.5l.3.3h.5c.3.4.7.8 1.5.8h3l.8.5c0 .2.2.2.3.3.3.5 1 .7 1.3.8h.2v.5h.6c.3.2.7.2 1 .2.8 0 1.3-.2 1.8-.3.5-.2.8-.3 1.3-.3h.8v-.3c.5-.2 1-.4 1-.8.2 0 .3-.2.4-.3l.6-.2h.2v-.2c.4-.3.5-.7.7-1 0-.2.2-.5.3-.5l.4-.8.3-.4.3-.4h.4v-.6l.7-1.6.4-.4v-.3c0-.2.3-.4.3-.8l.4-.8c0-1.2.3-2 .6-3 .2-.8.5-1.8.5-3 0-.3 0-.4 1-.5h.6l.2-.4c0-.2.2-.4.4-.6l.7-1.2v-.4c0-.4 0-.8-.3-1.2m-35.5 12h-.8H151.8l-.3-.2c-.3-.2-.8-.6-1.5-.6h-11.6s-.3 0-.5-.2l-1.4-.7c-.3-.7-.6-1.4-.7-2.2v-.5h-.4v-.3-1.1h-.2v-.3-1.2h-.3c0-.3 0-.5-.2-.6 0-.4 0-.8-.2-1V100.8l-.3-.2v-.8l-.4-.8c0-.4-.2-.6-.3-.8 0-1.3-.2-2.2-.6-3 0-.6 0-1-.2-1.5-.2-.3-.3-.6-.3-1 0-.8 0-1.3-.3-1.8l-.2-1v-.8h-.3l-.2-.8h-.3c0-.4-.2-.7-.5-1 0-1.2-.3-2-.5-3-.3-.8-.5-1.6-.5-2.4v-.6h-.3V81v-.7l-.2-.2v-.7l-.4-.8c0-.3 0-.5-.3-.7 0-.4 0-.7-.2-1v-.2l-1-.6-.8-.4v-.3h-.8c-1.8 0-3 .6-4 1.2v.2l-.2.2c-.4 1-.6 2-.5 3.3v.2l.2.7c.2.5.4.8.3 1.4v.6c.3.7.4 1.3.2 2l.3 1c0 .3.2.5.3.7 0 .2 0 .6.3 1 0 .8.2 1.4.4 2 0 0 0 .3.2.4 0 .7.2 1 .4 1.4.2.3.3.4.2.7l.3 1c0 .3.2.6.4.7 0 .3.2.5.3.6 0 .5 0 .8.2 1v.3l.3 1s0 .2.2.3c0 .8 0 1.5.2 2v2h.4v1l.2.5c.2.4.3.7.5.8 0 .5.3 1 .5 1.3 0 .3.2.6.3.8v.2c0 .6.2 1 .4 1.4v.6c-.3-.2-.8-.4-1.6-.2h-.2c-.3 0-.5 0-.7-.2-.4-.2-1-.4-1.8-.3-1.7 0-3-.4-4.5-.8h-.7l-2.6-1-2-.7c-.5-.5-1.4-.5-2.2-.5h-.4c-.2-.3-.5-.3-.6-.3-.3 0-.5 0-.6.2h-.2l-.6.3-1 .8c0 .2 0 .3-.2.5-.2.3-.4.5-.5 1v.8c-.2.5-.3 1 0 1.5l.2.2-.2.7h.2c.2.5.5.6.7.7 0 .2.2.5.5.7l.4.2c0 .2.2.2.4.3h.7l.7.3h1l.5.4.7.5c.6 0 1 0 1.4.3.4 0 .7.3 1 .4l1 .3c.2.2.5.4 1 .4h.5l.6.4.3.2 7 .3 4 .7 1.2.2v.2c.2.3.5.6 1 .8 0 0 0 .2.3.3v.5l2.7.2h.6c.7 0 1-.3 1.3-.5l.2-.2.8-.2v-.6l.4-.2 3 .2c1.4-.4 3-.6 4.7-.8l2-.3c.6 0 1-.2 1.2-.3h.3c1 0 1.7-.3 2-.8.2-.2.4-.2.7-.2.7-.2 2.2-.4 2-2v-1h-.2l-.2-.6-1-.7zm277.2-3.3c.4 0 .6 0 .7.2.3.4-.3.3-.3.7 0 0 .2 0 .2.2-.2.3-.7.3-.7.6 0 0 .2.2 0 .4 0 .2-.4 0-.4.4 0 .2.2.2.2.5s-.4.3-.5.5c.2.2.4.2.3.6l-.5.2c-.3-.2-.4-.2-.6 0-.2 0 0 0 0 0l.2.2v.2h.3v.2c-.2 0-.2 0-.2.2 0 0-.2 0 0 .3-.2.3.3.2.2.6-.2 0-.3.2-.6 0 0 .2-.2.2-.4.2v.3h-.7c-.3 0-.3.3-.4.4 0 0 .6 0 .4.5 0 0-.5.2 0 .3 0 .3-.5.3-.5.5l.4.2v.3h-.7c0 .2-.5 0-.4.3 0 .4.4.5.8.6-.2.5.4.5.4 1 0 .2-.3.3-.2.7 0 0-.2 0-.2.2l-.3.3-.2.8c0 .2-.2.2-.3.3l-.2.2c0 .2.4 0 .3.4v1h-.3c-.2 0-.4 0-.4.2 0 0 .2 0 .2.3-.3 0-.5 0-.6.3 0 0 .3 0 .3.3.3 0 .3.2.3.4h-.3-.4-.4c-.2 0-.2-.2-.5-.2 0 0 .2 0 .2.2.2 0 .2.2.2.2v.7c0-.2-.3 0-.3 0h-.2 1.1s0 .4.3.5c.2 0 .4.2.8 0 0 .3 0 .3-.2.4-.2 0 0 0 0 .3h-.3s-.2 0-.2.2 0 .3-.2.3c0 .2-.2.3-.3.4 0 0 .2 0 0 0 .2 0 .4 0 .4.2 0 0 .2 0 .3.2 0 .4.3.4.6.6 0 0 0 .2.2.2 0 .2.4.2.3.4 0 .2-.6 0-.6.3l-.2.4s.2 0 0 .2c0 .3-.2.4-.2.4l.2.2h-.6c0 .4.3.3 0 .6-.2 0-.2.2-.6 0 0 .3 0 .4-.4.4h-.3H423c-.6 0-1 .2-1.3.3h-.3l-.4-.2h-.4-.5-.4c-.8 0-1.7 0-2.3.2-.3 0-.2-.3-.6-.2h-1.5l-1-.2c-.6.3-1.7.2-2.3 0 0 .2-.2 0-.3 0h-.6c0 .6 0 .5-.5.5-2-.2-3.7-.3-5.6-.3-.3-.2-.8 0-1-.2h-6.5s0 .2-.2.2H390h-1c0-.2-.4 0-.7 0-.3 0-.3-.2-.4-.2-.3 0-.3.2-.8 0H386h-.3H384.5h-1.1-2.3c-.3 0-.7 0-.8.2h-.5l-.4-.2H375.4 374l-2 .3-1-.2h-.7-.2c-.3-.2-.5-.2-.8-.2H368l-.8.2h-.6-1.5v-.2h-.4c-.2 0-.6.3-1-.3h-1.4c0 .6-.4 0-.4.2h-.8l-.7.2c-.2-.2-.2 0-.2-.5h-.3c-.2.6-.5 0-.6.3 0 0-.4 0-.4.2H357c-.4 0-.4-.2-.7-.2-.2 0-.3.2-.4 0-.5 0-.4.2-.8 0h-1-1.8c-1 .2-1.7 0-2.4 0h-.8c-.6 0-1.2 0-1.8.2-.4-.2-1-.2-1.7-.3H342c-.3 0-.4 0-.7-.2-.2 0-.3.2-.7.2h-.5-.2c-.3 0-.4-.2-1 0H337c-.3 0-.5-.3-.6 0-.4 0-.4 0-.7-.2h-.3c0 .2-.2.2-.4.2h-.7H333h-.7H331c-.2.2-.4-.2-.5 0h-.7-.3-.3c-.8 0-1.2-.2-1.7 0l-.6-.2c-.4 0-.4.2-.8 0H321 316h-.5c-.2 0-.5 0-.6.2h-.6c-.4 0-.4-.2-.7-.2H310.4c-.3-.2-1.4 0-1.7-.2-.2 0-.3.2-.6 0H306.4c-.3 0-.2.2-.7 0-.4.2-.4 0-.7 0-.4 0-.3.3-.7.2 0 0-.2 0-.2-.2h-.5c-.2 0-.3 0-.4-.2 0 .2-.2.3-.5.2-.5-.2-1.6 0-2 0H298.3h-.5-1.1-.5-2.4c-.4 0-.5.2-1 0-.2.2-.4-.2-.5 0H288c0-.2-.7 0-1.2 0-.2-.2-.2-.2-.5-.2h-2l-1.3-.2h-14.7-.4c-.4 0-.5-.2-1 0h-1.5-.6c-.3 0-.3-.3-.6-.3h-3.8l-.5.2c-.8-.2-1.8 0-2.7 0-.2-.2-.8 0-1.2 0-.3 0-.4 0-.5.2 0-.3-.2-.2-.3 0 0-.3-.2-.2-.3-.3h-1c-.6 0-1 0-1.3-.2h-4.4c-.3 0-.5 0-.7.2 0-.2-.4-.2-.7-.2-.6 0-.5-.2-1 0-.5-.2-.8 0-1 0h-.4-.3-.3-.9-.7c-.2-.2-1 0-1.4 0l-.5-.2h-5.7c-.7-.2-1.2 0-1.7 0-.4 0-.4-.2-.8 0h-1s-.2-.4-.6-.4h-5l-.8.2h-1v.3c-.2 0 0-.2-.3-.3 0 .3-.5 0-.5 0-.3.2-.7.2-1 .2-.5 0-.4-.5-.8 0H220c-.4 0-.4 0-.7-.2h-.8l-.6-.2h-.6H212 211.2h-.4c-.2 0-.5 0-.6.2-.7-.2-2 0-3 0 0 0-.2-.2-.5-.2h-1.9c-.4-.2-.4 0-.7 0h-1.3c-.5-.2-.6 0-1 0-.7 0-1-.2-1.5 0 0-.2-.5 0-.7 0l-1-.2s0 .2-.4 0c-.5.2-.5 0-.8 0h-1.7c0 .2-.4 0-.6 0h-.8-.5c-.6 0-.8.2-1.3 0-.5.2-.5 0-1 0-.4 0-.3.2-.7 0h-.7H189 187c-.5 0-.4-.2-.8-.2l-1.2.2h-.4c-.6 0-.7 0-1 .2l-1.3-.4c-.2 0-.2.3-.7.3h-.5s-.3-.2-.4 0l-.2-.3H179c-.4.2-1 0-1.6 0h-.7c-1 0-2.4-.2-3.3 0h-.2c0-.2-.2-.2-.2 0-.4 0-.3-.3-.7-.3H171s-.4 0-.4.2h-.8c-.3 0-.2.2-.6 0h-1.8-.3-.3l-.6-.2H163.4c-.3 0-.2.2-.6 0h-.6c0 .3-.2 0-.4 0h-3.9c-.3 0-.4.3-.7.2H156h-2.6c-.3-.2-.6-.2-1-.2H151c-.4 0-.3-.2-.7 0h-1.7-1c-.3-.2-.4 0-.6 0h-.2c-.2-.2-.5 0-.7 0h-1.6c-.4-.2-.4 0-.8 0l-1-.2s-.5.2-.5 0h-4.7c-1.4-.2-2.5 0-3.7 0h-4.1c-.3-.2-.8 0-1-.2-.5.2-1.4 0-2 0-.2 0-.2.2-.5.2h-1.7-2.1-.9c0-.2-.3 0-.4 0-.4-.2-.4 0-.7 0 0 0-.2-.2-.5 0h-.3c-.2 0-.2-.2-.3 0l-1-.3h-.5l-.6-.2h-2s-.3 0-.3.2c-.3 0-.3-.2-.7 0h-1-.6c-.6-.2-.8 0-1 0h-3.7c-.6-.2-1.2-.2-1.7 0h-.6-.7-.4c-.3 0-.5-.3-.6 0-.4 0-.5-.2-.7-.2h-.4c-.2 0-.2.2-.5.2 0-.2-.2 0-.4 0l-.6-.2c-.3 0-.2.2-.6.2h-.2c-.6-.2-1.3 0-2 0 0 0 0-.3-.4-.2h-2.2c-.4 0-1-.2-1.4 0H94c0-.2 0-.3-.3-.3-.5 0-.5.2-1 0-.6 0-1.5.2-2 0h-.3c-.7.3-1 0-1.4 0h-2.5c-.2-.3-.4 0-1 0-.3-.2-1-.2-1.3-.3-.4 0-.4.2-.8 0H82c.2-.2-.6 0-.5-.2h-.8c-.5 0-.7 0-1-.2-.2 0-.3.2-.6 0h-.6s-.2-.2-.6 0v-.4h-.5c0-.5-.3-.5-.2-1 .6.2.7 0 .7 0h.3v-.2h.3c0-.2.4-.3.5-.5.4 0 .3-.2.7 0 0-.3.2-.3.2-.5.3 0 .4 0 .7-.2 0-.2.5 0 .7-.3 0 0-.3 0-.2-.4.2 0 .3 0 .3-.2h.5c-.2-.2.4-.4 0-.4 0-.3-.4-.2-.3-.5h.6c0-.4.5-.2.4-.5-.2 0-.3 0-.3-.3-.2-.3.2-.2.2-.4s-.4 0-.3-.5c.2 0 .3-.4.5-.6-.4 0-.3-.2-.6-.2-.2-.3 0-.3 0-.6l-.2-.5c0-.2.4-.2.3-.4h.4v-.3-.8c.2-.2 0-.4 0-.5.8 0 .7-.3 1.2-.2 0-.2 0-.3.5-.3h.3v-.2h-.5s-.4 0-.6-.2c0 0 0-.3.3-.3 0-.2.4-.2.3-.5l-.2-.2s-.2 0 0-.2c0-.2-.4-.2-.2-.5 0-.2 0-.3.2-.2 0-.2.2-.2.2-.3 0-.5-.3-.7-.3-1.2h-.3c-.2 0 0-.4-.3-.4-.3-.2-.3-.3-.6-.2-.2 0-.2-.4-.5-.4 0 0-.2 0-.2-.2-.2 0 0 0-.3-.2 0-.2.3-.3.6-.4.2-.3 1 0 .8-.5-.2 0-1 0-1-.3 0-.2.3-.2.3-.4 0 0 .3 0 .4-.2l-.3-.3c.2 0 .2 0 .2-.2 0-.3.5-.2.4-.6l-.2-.4-.2-.3.2-.4c0-.3-.4-.2-.3-.5.3 0 .6-.3.2-.3 0-.2.3-.3.2-.5-.2 0-.3-.2-.6 0 0-.2 0-.5-.4-.4-.2-.4.5-.3.4-.7-.2 0-.2 0-.3-.2 0 0-.2 0-.3-.2.5 0 .3-.5.2-.7l.4-.3c0-.3.4-.2.3-.5l.8-.7c0-.4.2-.7 0-1 .3-.2.6-.2.7-.4.2 0 .4-.2.4-.4s-.4-.2-.3-.5c.2 0 0 0 .2-.2v-1.3s-.3 0-.2-.3c0 0 .3 0 .3-.2l.2-.6c0-.3-.3-.3-.3-.6 0 0 .4 0 .5-.3 0 0 .2 0 0-.3l.6-.2h.2l.2-.3H85h-.2v-1c.2-.2.2 0 .2-.2 0-.3.4-.2.3-.5 0-.3 0-.6-.4-.7-.2-.2.3 0 .2-.3l-.2-.4c.3 0 .3-.3.5-.4 0-.4.4-.3.3-.6 0-.2 0-.6-.2-.7h.2c0-.2 0-.2.2-.2 0-.3.3-.2.3-.4 0 0 .7 0 .6-.5 0-.2-.4 0-.4-.2l-.4-.2-.3-.5c0-.3-.5-.2-.5-.5v-.5s.4-.2.4-.4H85v-1.3-.2l-.2-.2c-.2 0-.4 0-.4-.4 0-.5.7-.4.7-.8-.2 0 0-.2-.3-.3 0-.2-.2-.3 0-.5-.3 0-.2 0-.4-.2h-.4c0-.5.6-.4.4-.8h-.4c0-.2-.2-.2-.3-.3V81c-.2-.3 0-.3 0-.6-.3 0-.6-.3-1.2-.2 0-.4.5-.2.6-.5-.4 0-.4-.4-.2-.6-.3 0-.4 0-.4-.3-.2 0-.5-.2-.4-.3 0 0 .2 0 0 0l.7-.2c.3 0 .3-.2.5-.2h.6s0-.2.2-.2c0 0 .2 0 0-.2v-.2h-.4c0-.2.2-.3 0-.3s-.3 0-.3-.2.4 0 .3-.4l.3-.4c-.2 0 0-.2-.2-.2s-.3-.2-.3-.3c0-.4.6-.5.8-.8 0 0 .3-.2.2-.4 0 0 .5 0 .4-.2V74v-.3c0-.2-.3 0-.3-.4v-.7c0-.2-.5-.4-.4-.7 0 0-.3.2-.2-.3H84h-.2c.2-.4-.3-.2-.2-.5 0-.4 1-.2.8-.6 0-.3-.3-.2-.3-.4 0-.3-.3-.3-.2-.5 0-.3-.5-.2-.4-.5.2-.2 0-.6 0-1 .2 0 .5 0 .4-.3 0-.4-.4-.5-.3-1-.3 0-.5 0-.4-.3 0-.2.6 0 .5-.3H84.4c.2 0 .2 0 .3.2h2.6c0-.3.3 0 .4 0l.6-.2H94.5c.2 0 .3 0 .5.2 0 0 .2-.2.5 0 .7 0 1.4-.2 1.8 0 .2 0 .3-.2.6 0h.2c.4 0 0 .3.4.3.2 0 .2-.2.3-.3.2 0 0-.2.4 0 .3-.2.4 0 .6 0h.2c0-.2.2 0 .4 0l1.3-.2.6.2h.7c.2 0 0-.2.5 0h.5s.2-.2.5 0c.5 0 1-.2 1.3 0H107c.3-.2.8-.2 1 0h.6c.2-.2.3 0 .5 0 .3-.2.4 0 .6 0 .6-.2 1.2 0 2 0h2.1c.2 0 .2-.2.4 0h.6s.3-.2.4 0H116.7c.8-.2 2.4 0 3.2 0h1.5c.2 0 .5-.2.5 0H125l.4.2h.5s.3 0 .4-.2c0 0 0 .2.3.2h1.7c.3 0 .2-.3.7-.2 0 .2.5 0 .7 0 .2 0 .3.2.7.2.4-.2 1 0 1.5 0 .3 0 .6 0 1-.2.6 0 .7.2 1.2 0 .5.2.8 0 1 0 0 .2.3 0 .5 0s.2.3.5.2h.7s.4 0 .7-.2c.4.2.8.2 1.3.2h1.4c0-.2.8 0 .7-.2.7 0 .5.4 1 .4h1.2c.3 0 .3-.2.4-.4.5 0 .4.3 1 .2h.7c.3 0 .2.2.6 0h1.3c1 .3 2.3 0 3.6 0h.6s0 .2.2.2c.3 0 .6 0 1-.2.2 0 .3.2.7 0h3.4c.6.2 1 0 1.5 0h2l.3.2 1-.2c.2.2.4.2.6.2l.8.2.7-.2c0 .2.8.2.7 0 .4 0 .3.3.8.2h2.3l.4.2h1.2c.4 0 .3-.3.7-.2h2c.4 0 .3.2.6.2 0-.2.4-.2.7-.2h1.3c.3 0 0-.2.5-.2.2.2.5.2.8.2l.8.2c.2 0 .3 0 .5-.2 0 0 .4 0 .4.2h.4c0-.2.7 0 .7-.3h1c.6.2 1.7 0 2.3 0h.3c.3 0 .4 0 .5.2.3 0 .3-.3.7-.3 0 0 0 .3.4.3h.6l.4-.2.4.2c0-.2.4-.2.7-.2h.5s.2 0 .3.2h.4c0 .2.2.2.3.3l.4.2c.2 0 .2-.2.3-.2h.6c.3 0 .2-.3.7-.3h1c.3 0 0 .5.7.4.3 0 0-.4.4-.2 0-.3.6 0 .5-.2.4 0 .2-.3.6-.2h.5c0 .2.3.2.5.2h.7c.2 0 .4 0 .6-.2v.2h.7c.5-.6.3.2.8 0 .4.2.3-.2.7 0h.7c.5-.2.5 0 1 0v-.2H199.6l.4.2h.8c.4 0 .3-.2.7 0h1.3l2-.2.6.3h.9l1-.2h.5c.2 0 .2.3.4.3h1c.3 0 .6 0 .8-.2 0 0 .3 0 .3.2H211.6c.8 0 1.5 0 2-.2h.8c.3 0 .3-.2.7 0 .3 0 .2.2.6 0l1.8.3h2c0-.2.4 0 .6 0h1c.2 0 .8 0 1.2-.2l1 .3h1.7c.5 0 .8 0 1 .2h.4V67h.4c.4 0 .3.2.7.2 0-.2.5 0 .7 0l1-.2c.2.2.6 0 1 0h4.1l2.2.2.7-.2H239l1 .2H242l.4-.2h.6c.3 0 .2.4.5.3.7 0 .8 0 1.3.2 1.3-.5 3-.2 4.5-.3.6 0 .6 0 .8.2 0-.2.4 0 .6 0 0-.3.4-.2.4-.3.4.2.7.2 1.2.2 0 0 .2 0 .2.2.2 0 .2 0 .3.2 0-.2.5 0 .7 0 .2-.2.5-.2 1-.2h.3c0 .2.3.2.4.3.3 0 .3-.2.6 0h.6c.3 0 .3.2.7 0 .3 0 0-.3.6-.2h.4c.4 0 .6 0 .7.2.3 0 .2-.2.6-.2h3.7s.3-.2.7-.2c.5 0 .3.3.8.3 0-.2.3 0 .3-.2h10.5c.3 0 .5-.2 1 0 .5-.2.4.3 1 .2.4 0 1 0 1.4-.2h.4c.4 0 .4-.2.7 0-.2 0 .7-.2.6 0l1 .2h.3s0-.3.3-.2c.3 0 .5-.2 1 0h3.2c.3 0 .4 0 .6.2h.7c.4 0 .8-.3 1.2 0 0-.2 0-.2.2-.2h3c.2 0 0 .4.6.4 0-.2.2-.3.4-.2h.6c.5-.2.6 0 1 0 .5 0 .6-.3 1-.2 1.2 0 2.6.3 3.7 0h2c.2 0 0 0 .2.2h3.1c.3 0 .2.2.5.2 0-.2 0-.2.3-.2H306.7c.4-.2.3 0 .7 0H311.3c.4 0 .3-.2.7-.2h4.5c.3 0 .3.2.5.2H325.7l.7.2c.2 0 .2-.2.4 0h.4c.2 0 .3-.2.5 0h1.8c.2 0 0-.2.5 0 .4-.2.3 0 .7 0 0-.2.3 0 .5 0 0-.3.2-.2.4-.2l2 .2c.5 0 .4-.2.8 0 .2 0 .5-.2.7 0h.2c.6-.3.8 0 1 0 .4-.2 1 0 1.5 0 .5-.2.3 0 .7 0h.6l.8-.2s.3.2.7 0l1 .2h.2c.2 0 .2-.3.4-.3h2.8c.3 0 .4.3.7.2h1c.4 0 .3-.2.7-.2h1c.5.5 1.5.4 2.2.5h1.3l.8-.2c.3 0 .3.2.7 0h2.7c.2 0 .2.2.5.2h4.2c.2 0 .2-.2.4 0h.4c0-.2.3 0 .5 0h.4c.4 0 .3-.2.8-.2l.8.2h2.9c.5-.2 1.2 0 1.7 0l.7-.2h1.4l.7.2H376c.2.2.4 0 .6 0 .3 0 .5 0 .6.2.2 0 .2-.2.3-.2h.6c.2 0 .2.2.3.2l.7-.2h4c.3 0 .4.2.8 0 .5.2.5 0 1 0h.7c.4.2.3.5.7.4 0 0 .2-.2.5-.2l.5-.2c.7 0 1.3 0 1.6.2h.5c.2 0 .4.3.5 0 .2 0 .2.2.3.2h.5s.4-.4.4.2h.6c.4 0 .3-.3.6-.3l.8-.2c.4 0 .5.3 1 .3h1.6c.2 0 .4 0 .5-.2l.4.2h1.6c.3 0 .7 0 1 .2.4 0 .5-.4 1-.4h1.5c.3 0 0 .4.4.4 0 0 0-.3.3-.3 0 .3.3.2.3.3 0 0-.2.2 0 .2h2.6c.3 0 .2-.3.6-.2.5 0 .2.4.7.3 0-.2.5 0 .7 0 0-.2-.2-.2 0-.3h.2s.2 0 .2-.2l1.5.3h1.7c.5-.2 1 0 1.4 0h2.4l.6.2h1s.2 0 0 .3v1s0 .3.3.3c-.2.2.3 0 .3.3.4 0 .3.2.6.2.2 0 0 .3.3.3.2 0 .3-.2.6 0 0-.3.2-.2.3 0 0 .3-1 0-1 .4H419v.2c0 .2-.2.3-.3.4-.3 0 .2.2 0 .4-.4.2-.8.4-1 .7h.3l.2.4c.3 0 .2.3.2.6v.2h-.5v.3h-.4c0 .5.2.6 0 1 0 0-.3 0-.2.3v.5l-.2.4c.3 0 .4 0 .4.4.3 0 .5 0 .6.3h.5c0 .4-.2.4 0 .6h.2c-.2.2 0 .3-.3.3 0 0 0 .2.2.3-.2.2-.2.4 0 .5 0 .2-.2.2 0 .3h-.4c-.2.2-.5.3-.4.5 0 .2.3.2.5.3 0 .4-.4.3-.3.6v.2c0 .2-.2.2-.2.3 0 .3.4.4.5.6-.4 0 0 .4.2.5.2 0 .8-.2.8.2h-.7c0 .4.4.3.4.5l.2.2h.2c0 .2.2.2.2.3v.2s.2 0 .3.2c.2 0 0 0 .3.2 0 0-.2 0-.2.2.3 0 .4.3.4.5.3 0 .5.2.7.3 0 0 .3 0 .3.2 0 0 .2 0 .3.2v.2h.2v.5c.4.2.7.3 1 .6.4 0 .5.4 1 .5-.2.5.3.5.2 1 .2 0 .5.2.5.5-.2.3 0 .4 0 .7 0 0 0 .4-.2.5h-.2c-.2.2 0 .3 0 .4-.4 0-.6.2-.7.4.5 0 .2.4.6.3V92c0 .3-.6 0-.5.4 0 .3.3.3.2.5h-1c0 .2.3.3.2.6h-.6l.3.4c0 .2.4 0 .5.2 0 .4.3.4.2.8.4 0-.2.6.2.6.2 0 .4-.3.5 0h.6c.6 0 .5.6 1.3.5 0 .3-.2.4-.5.4 0 .2-.5.2-.4.4 0 .3.4.4.5.6l.3.2s.4 0 .5.2c0 .3-.2.4-.3.6h.3c0 .3.2.3 0 .4.2.2 0 .2 0 .5 0 0 .2 0 .2.2v.4c0-.2.4 0 .4.2.3 0 .5.2.5.4h.6c0 .3-.2.4 0 .7h.5c.4 0 .3.3.5.3.2.3 0 .3 0 .5v.5s0-.2.4 0c0 0-.2 0 0 0h.4c0 .7-1 .5-.7 1-.3.2-.3 0-.7 0 0 0-.2.3 0 .5h-.5c-.2 0-.2.2-.2.4s.7.2 1 .3c0 0 0 .2.3.2h.3c-.2.5 0 .6 0 1 .4 0 .8 0 1 .2 0 0 0 .2-.3.3 0 .2-.6 0-.4.2 0 .2.2.2 0 .4M278.8 102c-.3.5-.5 1-.6 2v.4h-.5v.6c-.2 0-.3.3-.4.6-.5.3-.8 1-1 1.4-.6 0-1.2 0-1.8.2-.3 0-.6.2-.7.3h-2c-.5-.4-1-.6-1.6-.8l-.7-.8c0-.6-.4-1-.6-1l-.3-1c.2-.5 0-.8-.2-1v-.2l-.2-.3c0-.3-.3-.8-.7-1v-2l-.5-.8v-.2l-.5-.8c0-.2 0-.5-.2-.7 0-.6-.3-1-.4-1.4-.2-.4-.3-.6-.2-1l-.4-1c0-.3 0-.5-.3-.8l-.3-.7c0-.2-.2-.3-.3-.5-.4-.8-.7-1.4-.8-2.2h.2l.7-.4h.2c.6 0 1-.3 1.3-.4.4-.2.5-.3.8-.2h.3c.3 0 .5 0 .8.3l.8.5h.3c.2 0 .3 0 .5.2l.2.2h.7l.2.3h.5c.7.2 1.2.5 1.7.8.7.3 1.4.7 2.3.8.5 1 1 1.5 1.8 2 .2.6.6 1 1 1.2v.2c.2.3.4 1 .8 1.2 0 .6.3 1 .4 1.6.2.6.4 1.3.4 2v1.3c0 .6 0 1-.3 1.3m-7.7-78v1c-.2.2-.3.5-.3 1-.3-.5-.7-.7-1-.8-.3-.2-.4-.2-.4-.5v-.3h-.2c-.3-.3-.7-.6-1-1.2.3-.3.2-.6.2-1v-.3s.2-.2.2-.5c.2 0 .3 0 .4-.2l.4.2s.4.3.7.3c0 .3 0 .5.2.7v.2h.3s0 .2.2.3c0 .4 0 .6.2.8v.3zm203.3 5.3c0-.7-.6-1-1-1.4h-.2V27h-.4c-.7-.2-1 0-1.5 0-.2.2-.5.3-1 .2-.6 0-1.3-.2-2-.5l-1.7-.7c0-.5 0-.5.2-.5h.3v-.3c0-.2.2-.3.3-.5l.3-.4 1-.5c.3 0 .7-.3 1-.5h.3V23c.2 0 .5 0 .6-.3.5 0 .7-.3.8-.4V22h.3c.5-.6 1-1.3 1.2-2v-.2c.2-.8-.2-1.2-.5-1.5-.2-.3-.3-.4-.3-.7v-.2c-.2-.2-.3-.5-.3-1l-.3-.3s-.2 0-.2-.3l-.3-.4c-.3 0-.5-.2-.7-.4-.4-.4-.8-.7-1.4-.8-.2-.3-.7-.5-1-.5-.2-.2-.5-.2-.6-.2h-.2c0-.2-.3-.3-.6-.3l-3.4.3h-.3c-.2.2-.6.3-.8.7-.3.2-.8.4-.8 1l-.2.2c-.2.3 0 .7 0 1v.7c-.2.8.2 1 .4 1.2v.4h.3c1.2.3 2 0 2.5-.4.5-.2 1-.4 1.7-.4.3 0 .5 0 .6.2.3 0 .5.3.8.3.3 0 .4.3.6.6h-.2c-.2 0-.4 0-.6.3v.2l-.6.6c-.7.5-1.3 1-2 1.2-.5.8-1 1.3-1.7 1.7v.3c0 .3-.3.5-.5.8 0 .3-.3.5-.4.8v3c0 .3 0 .5.2.7h.2c0 .3.2.4.3.5l.5.3.4.4c.2.4.6.5 1 .6l.5.4.5.3h.4c.2.2.4.4 1 .3.4 0 .6.2.6.3l.4.2c.5 0 .8 0 1.2.3l1.5.3 2.2-.3c.5 0 .8 0 1-.2v-.2c.8-.5 1.4-1 1-2.5m-19-3.5l-.2-.3V25h-.3c-.7-.2-1.2 0-1.5 0h-4.7c-.4-.3-.5-.3-.5-.7V24c0-.2 0-.3-.2-.3 0-1 .2-1.8.5-2.6 0-.7 0-1 .2-1.2v-.2c0-.5.3-.7.4-.8v-.3l.2-2c.2-.6.3-1.4 0-2.5v-.2l-.4-.3v-.2h-.3c0-.2-.3-.3-.4-.4-.2-.3-.5-.5-1-.7h-.3c-.7.3-1.6.5-2 1.3-.4.2-.5 1-.6 1.3v.7c.2.2.2.3.2.5l-.3.6-.4.6c-.3 0-.6.3-.7.6-.3 0-.4.3-.4.4h-.3v.4c0 .7-.2 1.4-.3 2l-.2 2.2c0 .7.2 1 .4 1.7 0 .2 0 .4.2.6 0 .2 0 .3.2.4v.5l.4 1c0 .6 0 1-.3 1.3-.2.5-.4 1-.3 1.7v.2h.3l.3.4v.2c.4.3 1 .4 1.4.4h1.3c.5 0 .7 0 .8-.2.3 0 .4-.2.5-.3v-.4c.2 0 .4 0 .5-.2v-.2c1.3 0 2-.3 2.8-.6h1.8l1.2-.3h.3V29l.7-.3.7-.3c.3-.3 1-.6 1-1.4 0-1-.4-1.2-.7-1.5m-17.3 0V24.7h-.3l-1-1v-.2h-.4c-.3 0-.4 0-.6-.5l-.4-.3h-.5l-.4-.3-.5-.2c-.7 0-.8-.3-1-.4l-.2-.2h-.5c-.3-.2-.7-.3-1.3-.2l-.3-.2V21l-.3-.2h-.2c0-.4.2-.6.4-1 .2 0 .4-.4.5-.7.5 0 .6-.4.7-.6l.3-.2V18l.2-.2.3-.3.4-.2.4-.4.4-.4c.3 0 .6 0 .8-.2h.6c.3.3.6 0 .7 0 .4 0 .6-.2.7-.3h.4v-2h-.2v-.2s-.3-.4-.6-.5c-.3-.2-.7-.3-1.3-.2h-.3l-.5-.2-1 .3c-.7.3-1.4.5-2.4.4h-.3v.2c-.2 0-.3.3-1 .4h-.2v.3l-.2.2-.2.4c-.4 0-.6.4-.8.6-.2.3-.4.5-.7.6l-.2.3v.5c-.2 0-.4.3-.4.6l-.2.2s-.4.4-.4.8c-.6.4-1 1-1.4 1.5h-.3c-.5 0-.7.2-1 .4H422.3c-.2 0-.5 0-.7.4-.2 0-.2.3-.3.4l-.3.5c0 .6.2 1.8 1.4 2 .2.2.4.2.6.2l.5.2h.3c0 .2.2.2.4.3l.3 1.2c0 .5.2 1 .3 1.4v.4h.2c0 .2.2.5.5.6v.8h.5l.2.3c.2.3.3.5.6.6 0 .2.3.4.5.5 0 .4.2.6.4.7l.4.3.4.4h.4-.4l.4.4c.3 0 .4 0 .5.3l.4.4.2.3H430.5v.2H433.6c.2 0 .6-.2 1 0l.5-.4h.5V32l.3-.3c0-.2.3-.3.5-.6.3 0 .5-.5.5-.6v-.2l.4-.3c0-.5.2-.8.5-1l.5-1.2c0-1 0-1.7-.2-2.4m-19.8 6.8c-.3-2-.6-4-.7-6.3 0-.2 0-.5-.2-.6v-.8-1l-.4-.5v-.4-.6c0-.6 0-1-.4-1.6V20c.2 0 .4-.4.3-.8V19c-.3-1-.5-1.8-.4-3v-.4h-.4v-.3c0-.2 0-.7-.5-.8-.2-.4-.5-.5-.7-.5h-.2l-.3-.4H413l-.6.5c0 .2 0 .2-.2.2-.3 0-.4 0-.6-.4l-.4-.4c-.3 0-.5 0-.7-.2 0 0-.3-.3-.6-.3h-1.2c-.5.2-.8.3-1.4.2l-.5.4h-.2c-.2 0-.6.2-.7.6l-.6.7c-.4 0-.5.6-.5 1h-.2l-.3.6-.3.2-.3.4c0 .4-.2.6-.4 1-.2.2-.4.6-.5 1.3v.7c-.2 0-.4.3-.4.6v1.7c0 .4.2.6.3.8v.4l.2.5v.3l.2.4v-.2l.4.2c0 .2 0 .5.4.6l1 1 .2.2c.3.4.6.8 1.3 1 .4.5 1 .7 1.6.8H409.3c.2 0 .5 0 .7-.2v-.2c.4 0 .8-.2 1-.5.7 0 1-.5 1.3-1l.5-.4v.4l.4.7v.3c0 .6 0 1.2.3 1.6v.7c-.2.6-.4 1.2-.2 2-.2.5 0 1 0 1.2.2.2.3.3.3.6V35c0 .3 0 .5.2.7-.2.7-.2 1.7-.2 2.8v1c0 .2 0 .4-.2.7 0 .4-.3.8-.3 1.4 0 .3-.2.5-.4.8l-.4.5c-.3 0-.3.3-.4.5 0 0-.3.2-.3.6v1.4h.2c.5.5 1.4.8 2.4.8h1l.3-.4h.4l.2-.2V45c.4-.2.8-.5.7-1 0-.2 0-.3.2-.5 0-.3 0-.4.2-.4l.3-.4c0-1.5.2-2.5.5-3.2v-.2-3.4c.2-1.2.3-2.4.2-3.8m-19-4.4c0-1.6-1.2-2.3-2.3-2.8h-.2c-.8-.2-1.4 0-1.8.3-.3.2-.5.3-1 .3-.7 0-1.2-.5-1.7-1 0 0-.3 0-.5-.2 0-.2 0-.4-.2-.5-.2 0-.3-.2-.3-.5l-.3-.4V23c-.2-.2-.2-.5-.5-.7 0-.8 0-1.7-.2-2.5 0-1-.3-2-.2-3.4l.2-.3h-.3c0-.2-.2-.2-.2-.3v-.2h-.2l-.3-.3v-.5h-.7c-.4-.4-.8-.5-1.2-.5h-.5c-1 0-1.4.8-1.6 1.3 0 .4-.2.6-.5.7h-.3v.4c0 1.6 0 3 .3 4.7 0 1 0 2-.2 2.8l-.3 3c0 .5-.2 1-.3 1.4-.2.7-.4 1.4-.4 2.2l-.2.2c-.2 0-.6 0-.8.3-.6 0-.7.4-.8.7v.2c-.3.8 0 1 .3 1.4v.2c.2.5.7.6 1 .7h.3v.4h2.8v-.2c.3-.5.6-.8 1-1l.2-.4c0-.5 0-.6.6-1h.2v-.8l.4-2.6.2.3h.4c.3 0 .4.2.4.4v.3h.7l.7.2h.4l.2.2.3.3c1 0 1.5 0 2 .3.4 0 .8 0 1 .2l.6-.3h1l.2-.2c0-.2.2-.3.5-.4.2 0 .5 0 .7-.3v-.2l.4-.3c.2-.2.6-.5.5-1.2m-22.3-4l-.4-2-.5-2v-.3h-.2v-.2l-.3-.4h-.3c-.2 0-.3-.2-.3-.5v-.3h-.3s0-.2-.2-.3c0-.2-.2-.3-.4-.4l-.4-.3V17h-.3l-.7-.3-.7-.4c-.3-.4-.8-.5-1.2-.6-.2 0-.4 0-.5-.2h-.2l-.7-.2-.8-.2c-.2 0-.4 0-.6.2h-.3c-1 .3-2 .6-2.4 1.5-.5.2-.8.6-1 1-.3 0-.5.4-1 .6v.3c0 .8-.3 1.4-.6 2l-.2.7V24c0 .2 0 .3.2.4v.3c0 .4 0 1.2.3 1.6 0 .5.2.8.4 1 .3.3.3.4.3.7l.4.4v.3c0 .2.2.6.6.7 0 .3.3.6.5.8l.2.4c0 .4.4.6.6.7l.3.3v.2c0 .2.4.3.5.3l.2.2v.2h.2s.3.3.7.3c0 .2.3.3.5.3.3.3.6.3 1 .3h1.7c.2 0 1 0 1.3-.6.3 0 .4-.4.5-.5h.3l.5-.3c.2 0 .2-.2.3-.2.2 0 .3 0 .4-.2h.3v-.3c.2-.3.4-.5.7-.6h.3v-.4c0-.3 0-.4.2-.4l.3-.6.2-.2V29c.2-.7.2-1.5.3-2.2 0-1 0-1.7.2-2.5V24zM358 21h.2v-.3-.5h-.2v-1.5h-.3v-.3-.3l-.3-.2s-.3-.2-.3-.7V17h-.2c-.2 0-.3-.3-.5-.5s-.4-.5-.8-.6c-.2-.3-.6-.5-1-.6h-.3c-.2-.4-.6-.6-1-.7-.2 0-.3 0-.4-.2l-1-.3s-.2 0-.2-.2l-.6-.3h-1c-.3-.2-.6-.3-1-.3h-.4c-.6 0-1 .3-1.6.5-.7 0-1 .4-1.2.6 0 .3 0 .4-.2.4h-.3v.3c0 .3-.5.4-1 .5-.6.2-1 .4-1 .6-.3 0-.4.2-.6.3l-.2.2v.2c0 .7-.2 1-.5 1l-.3.2v5.1c0 .7.2 1.5 0 1.8v.7c0 .5.2 1 0 1.7.2.5 0 .8 0 1.2v1.6l.2 1V35c0 .8 0 1.5.2 2-.2 1-.3 2.2-.2 3.4l-.2.4c0 .2-.3.5-.3 1v.4h-.4-.4v.3l-.4.3-.3.5-.4.5c0 .6.3 1.3 1 1.6 0 .7.4 1 .8 1 0 .3.3.4.4.4v.3l.4.2c1 0 1.5 0 2-.3l.5-.2c.4-.4.4-1 .4-1.7.4 0 .4-.4.5-.6V44l.4-.3c-.2-1 0-2 .4-2.8v-.3V37c.2-1 .3-2 .2-3.4 0-.7 0-1-.2-1.5v-.5c-.2-.3 0-.4 0-.6 0 0 0-.3.2-.5 0 0 .3 0 .4.2.3 0 .7.4 1.3.4.7.3 1.5.5 2.2.5.8 0 1.3-.3 1.7-.5 0 0 .3 0 .4-.2h.2V31l.5-.2c.3 0 .8-.3 1-.8h.9v-.3l.4-.4h.2V29c.2-.3.5-.6 1-.8h.2v-.4-.3l.2-.5.3-.6.3-.6V25c.3-.2.5-.5.5-1 0-.8 0-1.4-.2-2v-.8-.2m-39 7.7l-.7-.8v-.2h-.2c-.5-.2-1.2-.2-2-.3-.5 0-1 0-1.6-.2V27v-.5c.2-.7 0-1 0-1.3-.2 0-.3-.2-.2-.5v-1c0-1 0-2-.3-2.8-.2-.4 0-.6 0-.8v-.8c0-1-.4-1.7-.8-2.4 0 0 0-.3-.2-.4 0-.6-.3-.8-.5-1v-.2l-.6-.5h-.2v-.2c-.2-.2-.4-.5-1-.5h-.2c-1 0-1.4.5-1.8.8l-.5.5h-.2v.3c0 .7 0 1 .2 1.5 0 .2 0 .4.2.6v.2h.2v.5c0 .2.2.3.3.4h.3l-.4.2v.3c0 .3 0 .8.2 1v.3c-.2.2-.4.6-.2 1 0 .8 0 1.2.3 1.4.2.3.3.5.3 1 0 .7 0 1.4-.2 2h-.4-1.2c-.3-.4-.7-.5-1-.5h-.7v-.3h-1.3-.2c-.5 0-.7.2-.8.3-.7 0-1 .6-1 1 0 0 0 .2-.2.3v.3c0 2 1.7 2.5 3 2.8 0 .2.2.2.3.2h.2v.2s.2 0 .3.2c.3 0 .5 0 .7.2h.3c0 .3.3.4.5.4l.5.2H309.2c.2.6.3 1.3.2 2-.2.3-.2.8-.3 1.2v.7c0 .4-.2.7-.3 1 0 .2-.3.5-.3.8-.3.4-.3.8-.3 1V40h.4v.4h.3c.3.2.5.4.6.7v.3h1.2l.6.3c.3 0 .4-.2.5-.3.8 0 1-.5 1-.7l.2-.2V40c.2 0 .4-.2.4-.5v-.2h.3v-2-.3-.6l.5-1.7V34l.4-1.6c.6 0 1 0 1.4.3l.8.2c.3.3.6.3.7.3h.9c.7 0 1.2 0 1.7-.5.2-.3.4-.6.4-1h.3v-.4c0-1.3-.7-2-1.3-2.7M300.7 26v-1c-.2-.6-.4-1.2-.3-2l-.4-.5c0-.3 0-.7-.5-.8 0-.3-.2-.5-.5-.7 0-.4-.3-.6-.4-.7h-.2V20c0-.2-.2-.4-.4-.5v-.2l-.2-.4h-.3c-.4 0-.5-.2-.7-.5l-.2-.3h-.2l-1.8-.7c-.4 0-.8-.3-1.2-.4h-1c-.5-.3-1-.5-1.8-.5h-.6c-.5 0-.8.3-1 .5-.2 0-.3 0-.4.2h-.2l-.2.3c-.2.4-.3.5-.6.5l-.4.5v.2s-.2 0-.3.3c-.2 0-.3.2-.3.3h-.3v.4c0 .7-.3 1-.6 1l-.2.2v1c0 .5 0 1.2-.2 1.4v.3c0 .2 0 .2-.2.3l-.2.8c-.3.2-.6.5-.7 1v.7h-.3V29.2c-.2 0-.2.3-.3.5 0 .3 0 .7.2 1.2v.7c0 .5 0 1-.2 1.5 0 1-.3 2-.2 3.2v.3h.2c0 .2.2.4.4.5 0 .2.2.3.3.4 0 0 .2 0 .2.2l.5.3c1.3-.2 2.3-.6 3-1l.3-.2v-.3-.5l.2-.5v-.3h-.2v-.5V32c-.2-.7 0-.8.3-1 .3-.3.7-.6.7-1.4V27c0-.5 0-1 .2-1.4 0-.7.2-1.4.5-1.8v-.4c.3-.8.5-1.6 1-2 1 0 1.7.3 2.4.6l.5.2c0 .3.2.6.4.8 0 .2 0 .3.2.4v.7l.3.2.2.6.3.8v3c0 .5 0 1-.2 1.3-.3 1-.6 2.3-.5 4v.2h.3c.5.3.8.6 1 1v.3H298c.8 0 1.2-.4 1.6-.7l.4-.3h.2V34c0-.2 0-.3.2-.5 0-.3.2-.6 0-1.2 0-.4 0-.6-.2-.8v-.4l.2-2.4c0-1 .2-2.2.5-3zM276 23l-.2-.4h-.2v-.2-.3c0-.4-.2-.7-.4-1 0 0-.2-.2-.2-.5l-.2-.4c-.3 0-.5-.3-.6-1l-.2-.2c-.4-.2-.8-.5-1-1h-.2l-.3-.4-.4-.3h-.4l-1.3-.4c-.7 0-1.4-.3-2.2-.3H267v.3h-.2-.6v.3s-.2.2-.5.2h-.2l-.2.3s0 .3-.2.4c-.2.2-.4.5-.5 1-.3.2-.4.6-.4 1l-.2.3h-.3v.3c0 1.4 0 2.5.2 3.6v.7h.2v.2s.3 0 .4.7v.2h.2c.2 0 .3.3.4.8l.2.3.8.8 1 1c0 .2.3.4.5.5.2 0 .3.2.3.3l.3.3c.7 0 1 .3 1 .4l.4.2h.5c0 .2 0 .2.3.3h.2c.7-.4 1.5-.5 2.3-.4h.4v-.3h.8c.3 0 .5-.3.6-.4 0-.2.2-.3.2-.3h.2v-.2c.6-.8.8-2 .7-3.5v-.4c-.2-.3-.2-.3 0-.5v-.4-.6c.2-.2.3-.5.2-1m-18-8.7V14h-.3-.8c-.5 0-1.3 0-1.5.7-.5 0-1 .3-1.3.4l-.4.7c0 .3-.3.4-.3.7v.2l-.2.4v.4c-.2 0-.4.4-.4.7-.2.3-.2.6-.2.7v.2c-.2 0-.3.2-.3.5 0 .5-.2.7-.4.7v.4c0 .7 0 1.2-.2 1.8-.4.3-.6.6-.6 1-.2 0-.3.2-.5.3 0 0-.2 0-.4-.3 0-.2-.3-.5-.7-.6 0-.2-.2-.4-.3-.5-.3-.3-.4-.5-.4-1l-.4-.2-.3-.5c0-.3-.3-.7-.6-1 0-.3-.2-.7-.6-.8 0-.2-.2-.3-.3-.3V18h-.4c-1 0-1.3.3-1.7.6 0 .2-.3.3-.4.3h-.2v.2l-.2.2-.4.5-.2.3h-.4V23l-.2.4v1c.2 0 .2 0 .3.2-.4.3-.4.7-.4 1V29.2c.2.4 0 .6 0 .8l-.2.8c0 .6 0 1 .2 1 0 .2.2.3 0 .4v2c0 .8-.2 1.7-.6 2.3v.2c0 .2 0 .3-.6.4h-.2l-.3.5h-.2c-.2.3-.6.6-.4 1.3 0 .7.3 1.5 1.2 1.6.2.4.6.5 1 .6 0 0 .3 0 .3.2l.3.3h1.6l.6-.4.4-.2c.2 0 .4 0 .5-.3h.2V40c0-.6.2-.7.3-.7h.2V39c0-.6 0-1-.3-1.5-.2-.3-.4-.6-.4-1 0-.3 0-.6.2-1 0-.7.2-1.4 0-2.3.2-.3.3-.6.3-1v-.6c0-.5 0-1 .2-1.3h.2V30v-.6V27l.6.7.3.3.2.2.7.4.6.3h.8l.4.2h.3c.4 0 .6 0 .8-.2h1l.4-.3.5-.4V28h.4v-.5c.3-.5.4-1 .3-2 0 0 .2 0 .2-.3V25h.2c0-.3.3-.5.3-1 .4 0 .5-.5.6-.8l.4-.4h.2v-.4c0-.6.2-1 .4-1.5.2-.7.5-1.4.4-2.3v-.4l.2-.2h.2c.2 0 .2-.4.3-.5l.2-.2h.3v-.4c0-1 0-2-.4-2.7m-19.8 13.4c0-.5-.2-.7-.3-.8-.4-.4-.8-.4-1-.5-.4 0-.7 0-1-.3h-2.3l-.2-.3v-.4-4.9c-.2-.4 0-.6 0-.8 0-.3.3-.6.2-1 0-.5 0-.8-.2-1.2 0-1-.2-1.7 0-2.7l-.2-.2-.2-.5c0-.3 0-.6-.3-1h-.2V13h-.2l-.3-.2h-.3H231c-1 0-1.7 1-1.7 2.3v2c-.2.2-.3.5-.3.8v.5c0 .5 0 1 .2 1.5-.2.5-.2 1.3 0 2v.7l-.2.2c-.3.2-.2.6-.2 1v1.6c-.4 0-.7 0-1-.3l-.6-.3H226c-.3-.2-.6-.3-1-.3-.4-.2-.8-.2-1.2-.2h-1.4c-.6 0-1 .2-1.2.7l-.3.3h-.3v.4c-.3 1.3.5 1.8 1 2.2.4.7 1.2 1 2 1v.2c.3.2.6.2 1 .2l.6.2h.5c0 .2.2.2.4.3 1-.2 1.5 0 2 .3h.2V32c-.3 1-.4 1.7-.2 2.7v.3c-.4 1.2-.7 2.5-.5 4v.5h.4c0 .3.2.7.6.8 0 .3.5.4.6.5h.2l.4.3h2l.3-.2.3-.3c.2-.2.5-.4.6-.7V39h.4V39c0-.7 0-1-.3-1.4l-.2-1c.2-1 .2-2 .2-2.8 0-1 0-2 .3-2.8l.3-.3.4-.2h.4c.2-.2.5-.2.7-.3.4 0 .7 0 1-.3l.7-.3c.6 0 1.7-.4 1.5-1.7m-20.5-3v-.5-.6l.3-1c0-.8 0-1.2-.3-1.5l-.2-.8.2-1c0-.3.3-.8.3-1.4 0-.5 0-.8-.2-1 0 0-.2-.2 0-.3 0-.4-.2-1-.8-1.5-.2-.6-.8-1-1.8-1h-1v.3c0 .2-.2.2-.3.3-.3.4-.6.8-.4 1.6v3c-.2.3-.4.7-.3 1.3-.2.6-.4 1-.5 1.7 0 .7 0 1.2.2 1.6l.2 1.4v.4l-.3.3v.4c-.5.2-1 .7-1 1.4.2 1 .6 1.5 1.3 2l.5.2c.2.3.5.3.6.3h.5v.3h.2c.4 0 .7 0 1-.3.3 0 .5-.2.7-.4 0-.2 0-.2.3-.3l.3-.5V29c.2 0 .5-.3.5-.8.3-.7 0-1-.2-1.5l-.3-.6c.2-.3.2-.7.2-1.2M212 37.2h-.2v.3l-.2.6c0 .2 0 .3.2.5 0 .2.2.6.5.8l.2.2v.2h.3v.4h.3l.2.2h1.2l.6-.4h.4l.3-.2v-.2c0-.2.2-.3.5-.4h.2v-.4l.3-.2v-.2c0-.2.2-.4 0-.6 0-.7-.3-1.2-.8-1.4 0-.2-.2-.3-.3-.3v-.3l-.2-.2h-.7l-.2-.2c-1 0-1.6.5-2 1l-.4.7h-.2v.2zM205.3 19v-.2c0-.3 0-.8-.4-1 0-.4 0-.7-.3-1 0-.2 0-.3-.3-.4 0-.4-.2-.7-.3-1v-.3h-.4v-.2s0-.4-.4-.5l-.2-.2-.4-.3c-.3 0-.4 0-.4-.2v-.3h-.4c-.6 0-.7-.2-.7-.3v-.3h-2c-.3-.3-.6 0-.7 0H197v.3h-1v.2l-.4.3c-.3.2-.6.4-.7.8-.6.2-1 .6-1.2 1-.4.3-.8.7-1 1.2-.4.2-.8.5-1 .8-.2 0-.3-.2-.3-.5v-.3h-.2c0-.3-.2-.5-.5-.6v-.5h-.3c-.7-.6-1.4-1.2-2-2-.8-.2-1-.3-1.2-.6v-.4h-.3c-.5 0-1-.2-1.4-.4h-1.1c-.3.2-.6.3-1 .2h-.6v.2h-.3l-.3.2s-.2 0-.3.2v.2c-.2 0-.2.2-.3.2 0 .2-.2.3-.3.5-.2 0-.3.2-.3.3l-.2.3-.4.8-.3.7-.3.6-.3.5-.2 1c-.2 0-.3.4-.3.7-.2 0-.3.2-.3.3l-.3.5v.8c-.2.2-.3.5-.3.8v.8c-.2 0-.2.2-.2.3l-.2.6v.5c-.2.3-.4.6-.3 1 0 .2-.3.4-.2.7v.2l-.2 2c-.2.3-.3.7-.2 1.2 0 .2-.2.2-.3.3h-.2v.6c-.2.6-.3 1.2-.2 2v.6h.2s0 .2.2.3h.3c0 .3.2.4.3.5h.5c0 .2 0 .2.2.3h.8c.3 0 .5 0 .7-.2 0-.2.2-.2.4 0l.5-.5c0-.2 0-.3.2-.3h.2v-.4c0-.3 0-.6.3-1 0-.3.3-.8.2-1.6 0-.4 0-.7.2-1 0-.4.3-.8.3-1.4 0-.3 0-.7.2-1l.3-1c.2-.5.3-1 .2-1.6v-.3c.2-.2.3-.4.3-.7.2-.2.2-.6.3-1l.2-.6h.3v-.3c.3-.3.6-.5.6-1v-.5h.2v-.3c.4-.6.8-1 1.3-1.3.5 0 .6.2 1 .6 0 0 0 .2.2.3v.2c.2 0 .2.2.2.3v.4h.2l.2.2.3.4c0 1 .3 1.7.5 2.4l.4 1.8v1.5c-.2.5-.3 1-.2 1.8 0 1 0 1.6.3 2.2l.3 1 .2.2c.7 0 1.8.2 3 0h.3V30s0-.2.3-.3c.2-.2.5-.4.5-1h.2c.2-.3 0-.7 0-1.2v-.5c0-.6.2-1 .3-1.5.2-.6.4-1.2.3-2.2.2 0 .3-.3.4-.4l.5-1.2c.3-.4.8-.7 1-1.3.3 0 .5-.5.6-.8l.4-.5h.2v-.2c.2-.2.3-.3.5-.3h.3V18l.3-.3h.3c.2.3.4.4.7.4l.2.2h.2V18h.4v.4l.2.4h.2c0 .4 0 1 .3 1.2l.3 1 .3 1-.3 1.6-.2 1.6c0 .7-.3 1.3-.5 2l-.3.6-.2.5c-.4.7-.7 1.4-1 2.4v.3c-.2.2-.4.5-.4 1-.2 0-.2 0-.2.3 0 0 0 .2.2.3l.3 1s.3 0 .4.2c.3.2.7.4 1.2.3h.3c.8 0 1.2 0 1.4-.5.2 0 .3-.5.4-.7l.4-.5c0-.3 0-.4.2-.6l.2-.4c.4 0 .5-.5.5-.7l.4-.2v-.2l.5-2.2c0-.7.2-1.3.4-2v-.2c0-.6.2-1.2 0-2 .3-.3.4-.8.5-1.2V19.5c.2-.3 0-.6 0-.7m-49-4.2c-.3-.3-.5-.6-1-.8 0-.4-.4-.5-.6-.6h-.2l-.4-.3h-.3-.3l-.4-.2h-.7l-.3-.2-.8-.2c-.4 0-.8-.2-1-.3h-.2-.4c-1.3 0-2.3.2-3.2.4l-1.5.3h-.3v.2c0 .2-.2.2-.5.2h-.2l-.2.2c0 .5-.4.8-.8 1l-.2.4v.2l-.2.3-.2.4h-.3v.3c0 .3-.3.5-.5.8l-.3.5v.2s-.2 0-.3.3c-.2 0-.5.3-.6.8l-.7.4c-.6 0-.8.6-.8.8v.2h-.2v.3c0 1 .3 1.6 1 2 0 .3.4.5.6.6h.3c0 1.6.4 2.7 1 4l.4 1.6v.2h.3s0 .2.2.3c0 .2 0 .3.4.4 0 .2.3.2.4.3v.2h.6c0 .3.2.4.5.5l.4.2.5.4c.3 0 .5 0 .7.2h1c.7 0 1.2 0 1.6-.2.4 0 .8-.3 1.3-.3l.4-.2h.2l.3-.2v-.4l.4-.4h.2v-.2c.2-.4.5-.7 1-1v-.3c0-.2.2-.3.4-.4l.2-.4c0-.4 0-.7.3-1 0-.3 0-.7.2-1l-.2-1c-.2-.2-.2-.3 0-.7l-.4-.5-.4-.5c0-.2-.3-.4-.6-.5 0-.3-.4-.3-.5-.4v-.3l-.4-.5h-.6c-.3-.2-.7-.3-1.2-.3l-.5-.4s-.3 0-.4-.2l-.5-.3c-.8 0-1.4-.3-2-.5h-.3v-.3h.3c0-.2.3-.3.5-.3h.3v-.2l.2-.3c.2-.5.4-.8.7-1 .5 0 .8 0 1-.2h.6c1 0 1.7.3 2.4.7.3 0 .6.3 1 .4l.4.2c.2.3.5.4.6.4h.5v.2h.3c.8 0 1.2-.2 1.6-.4.2 0 .3 0 .5-.2h.4v-.4l.2-.5c0-1-.3-2-1.2-2.5m-19 11.4c-.2 0-.3 0-.3-.2v-.2l-.6-.2-.4-.3V25h-.3l-1.2-.3-1.8-.5v-.3l-.4-.4-.2-.7-.3-.5-.3-.4-.4-.7-.3-3s0-.4-.3-.6c0-.2-.2-.4-.3-.5V17c0-.5-.4-.7-1-.8 0-.2-.3-.5-.6-.5h-.4c-.6 0-1 .3-1 .5l-.4.3h-.3v.3l-.2.2s0 .3-.2.5c-.2 0-.3.3-.3.4l-.3.3c.2 1.8 0 3-.2 4.5-.2 1.2-.3 2.4-.3 3.8 0 .5-.2 1-.4 1.5-.3 1-.7 1.8-.6 3 0 .6.3 1 .5 1v.2l.2.2.5.3.5.3h1.2v-.2h.3l.3-.2v-.2h.2V32c0-.2 0-.3.3-.4l.3-.4s0-.2.2-.3v-.7c.3 0 .3-.2.3-.3l.4-.4-.2-1.8v-.2c.2 0 .4-.2.5-.4.3 0 .4 0 .6.4 0 .2.3.4.6.6 0 .4.5.5.7.5v.2h.2l.5.2h.2l.4.4h4l.2-.3c0-.2.2-.3.3-.3l.4-.5c0-.3.3-.4.3-.7.2-.8-.2-1.2-.4-1.6M121 22.7c0-.3 0-.6-.2-.7 0-.4 0-.8-.4-1-.3-.5-.5-1-1-1.2 0-1-.7-1.6-1.3-2-.2-.3-.5-.6-.6-1h-.4c-.2 0-.2-.2-.3-.2l-.6-.2s0-.2-.2-.2l-.6-.3c-.5 0-.8-.3-1-.4l-.7-.2H112.5c-.7.2-1.3.3-2.2.3l-.4.2h-.6v.2l-.2.3c0 .2-.2.3-.4.3h-.3v.2l-.6.8-.7.8c0 .2 0 .4-.2.5v.3l-.4.6-.4.5c0 1-.2 1.7-.4 2.4l-.4 2v.2c-.3.5-.6 1-.5 2l-.2.3c-.2.4-.4 1-.4 1.6 0 1 .2 1.5.4 2 0 0 0 .3.2.4v.7c0 .6-.2 1.2.2 1.5.2.4.3.5.5.6.2.5.5.8 1 1h2.3v-.3s.2-.3 1-.3l.2-.3c.4-1 .4-3 0-4.2V29c.2-.5.3-1 .2-1.6 0-.8 0-1.2-.3-1.6l-.2-.6c0-.5.2-1 .4-1.4v-.2c.2 0 .2-.3.3-.4.2-.3.4-.6.4-1.2v-.3h.2v-.2c.3-.2.4-.4.5-.8l.3-.3.7-.4c.7 0 1.2.5 1.7 1 .2 0 .4.3.6.4 0 .3.2.5.3.6 0 .3 0 .6.2 1 0 .5.2 1.2.4 1.8-.2.5-.2 1-.2 1.4 0 1-.2 2-.4 3 0 1.3 0 3.4 1.4 4 .3.2 1 .3 1.2 0 .5 0 .8-.2 1-.4.4 0 .7-.3 1-.5l.4-.3h.3v-.4-.3c0-.2.3-.5.2-.8V30 30l.2-.4v-1-5.6zm-21.5 3c0-.3-.5-.4-.8-.5 0 0-.3 0-.3-.2h-.2c-.4 0-.5 0-.7-.3 0 0-.3 0-.4-.2v-.8c-.2-.8-.3-1.6-.7-2.3l.4-1.7V19v-1.3c-.2-.5-.3-1-.3-1.7l-.2-.4c0-.2 0-.5-.3-.7l-.3-.6V14h-.2c0-.2 0-.3-.2-.3-.2-.6-.6-1-1.5-1h-.2H93v.3c-.5.3-1 .7-1 1.7l-.2.2c-.2.4 0 1 .3 1.2v1.3c.2.5 0 1 0 1.3v2.2c0 .3 0 .6.2 1v2h-6.5c-.8 0-1.3.2-1.6.5l-.3.2h-.3v.7h-.3v.5c0 .6.3 1 .5 1.5l.4.4c.3 0 .4.2.6.3l.8.4c.2.2.6.2.8.2h.5l.7.2h1l.6.2H91l1.4-.3c.2.5.2 1.2.2 1.8v5.8c-.2.7-.3 1.3-.2 2.2v.3h.3v.5h.3c0 .2.2.3.4.3l.4.2v.4h2.5V40c.2-.3.6-.5.5-1 0-.2.3-.4.3-.7V38l.3-.4C97 37 97 36 97 35.3c.3-1.8.4-4.3 0-6.2.2 0 .4 0 .6-.2h.5l.5.2h1.1c.5 0 1 0 1.5-.4v-.2c.3-1.5-.3-2.3-1.7-2.6M83 27V21v-1l-.3-.8v-1V17l-.2-.8-.3-.5v-.2c0-.3 0-.5-.2-.7 0 0-.2 0-.3-.2L81 14c-.4 0-.6 0-1-.2h-1.8l-.3.5v.2c-.2.4-.3 1-.2 2 0 1 .2 1.5.4 2v.6c0 1.7.3 3.2.4 4.6 0 1.7.3 3.5.2 5.4v1c-.2 0-.5.3-.5.7-.2.7.2 1 .4 1 .2.2.2.2 0 .4v.6c-.2 0-.2.3-.2.5v1h-.2c0 .8 0 1 .2 1.4V37s0 .2-.2.2v1.2l.3.4v.7h.3v.6l.3.3.3.2c0 .2.3.5.6.6l.4.2 1 .4h.2c.8 0 1.2-.6 1.4-1 .2 0 .3-.3.3-.4l.4-.5-.2-3h-.2c0-.2 0-.3-.2-.4l-.2-.2V36v-1.7c.2-.4.3-.8.3-1.3 0-1.3 0-2.3-.3-3.3-.2-.8 0-1.3 0-1.8v-1zm-10.6-2.6c0-.5-.2-1 0-1.7l-.4-.4s0-.3-.2-.4c0-.3 0-.7-.3-1 0-.3-.3-.6-.4-.7v-.8l-.3-.2c-.5-.3-1-.7-1.3-1.2-.6-.3-1-.7-1.4-1.2l-.3-.2c-.4 0-.6-.2-1-.4 0 0-.2-.3-.5-.4l-.4-.2h-.2c0-.2 0-.3-.2-.3-.3-.2-.6-.3-1-.3H63c-.5 0-1 0-1.4.2-.5 0-.8.3-1 .5h-.4v.5c-.3.3-.5.4-.6.8-.3.2-.3.5-.4.7l-.4.5c0 .5 0 .7-.3.7l-.2.2c0 .8-.4 1.6-.7 2.4v.2c0 1-.3 1.7-.5 2.5v4.5l.3 1.8c0 1.3.3 2.6 1 3.5l.5.2h.4c0 .2.3.3.4.3 0 0 .3 0 .4-.2.5 0 .7 0 .8-.3.3 0 .4 0 .6-.3.4 0 .5-.5.6-.7v-.2l.3-.3V31c0-.2 0-.7-.3-1v-.4c0-.6 0-1.2-.3-1.7v-1.3c.3-1 .4-2.2.4-3.5 0-.3.2-.5.3-.8 0-.4.2-.7.4-1 .2 0 .2-.2.3-.3l.7-1c.3 0 .3.2.5.2l.3.2s.3 0 .4.2h.2v.3h.3c.4 0 .5.4.8.8v.3l.2.3v.3l.4.3h.2l.2.8.2.4v.3l.4.3c.2.3.3.4.2.7v2c-.2.2-.2.5-.2.8-.2.2-.2.6-.2.8-.3.3-.3.7-.3 1v1.3c0 .6.3 1.5 1 1.7h.2c.7 0 1.2 0 1.7-.3v-.2h.2v-.2l.5-.8c.5-.4.6-1 .6-1.3v-1.6l.2-.7c0-.3 0-.5.2-.6.6-.4.6-1 .6-1.4 0-.7 0-1-.2-1.6m-20.3-7V17s-.2 0-.2-.2v-.3h-.3v-.2H51l-.6-.3-1.5-.5-.5-.2c0-.3-.2-.4-.2-.5l-.4-.4c-.2 0-.3 0-.4-.3-.2 0-.4-.4-.8-.4h-.2l-.5-.3c-.6 0-1 0-1.6-.2h-.7s-.2 0-.3.2c-.4 0-1 .2-1.3.4h-.3l-.3.2v.3c-.2 0-.2.2-.3.2H41l-.2.4s-.3 0-.4.3l-.4.4c0 .2 0 .3-.5.4l-.8.7-.7.7c0 .2-.2.3-.4.4l-.3.4v1.2l-.3.6c0 .3-.2.5-.4.7l-.3.6-.3.4-.3.5v.3l-.3.4c0 .6 0 1-.2 1v2.7l.3.4.4 1.3c0 .3 0 .6.4.8v.4l.2.4.3.4c.2 0 .3.3.6.6.2.2.4.5.8.7l.7.8c.4.2.6.4.7.7l.4.2c.7 0 .8.2 1 .3v.2h.2c.6 0 .7.3.8.3l1.6.2c.5.2 1 .3 2 .3h1.7c.8 0 1.2-.3 1.7-.6l.6-.4.3-.5c-.2 0 0-.2 0-.4s.2-.5 0-.8v-.3c0-.4 0-.6-.3-.8 0-.3 0-.4-.3-.5L49 30v-.5l-.6-.3H48l-1.6.2c-.8.2-1.6.3-2.7.2 0 0-.2 0-.3-.2-.7-.3-1.3-.6-1.6-1.2l-.3-.3c-.4-.3-.6-.4-.5-.7l-.4-.4-.3-.5c0-.2 0-.3-.2-.4v-1c.2 0 .3-.2.3-.3l.4-.5v-.4-1.2l.2-.2c0-.3.2-.5.4-.8 0-.3.3-.5.5-.8.3 0 .4-.5.4-.7h.4v-.3h.2l.4-.2v-.2c.5-.2 1 0 2 0 .4.2 1 .3 1.5.3s1 .2 1.2.4c.5.2 1 .4 1.8.4H51V20c0-.2.3-.4.6-.5h.3V19c-.2-.2-.2-.3 0-.5 0-.2.3-.5 0-1m458.2 22h.4v.3c0 .2-.2.2-.2.3-.4 0-.6.2-.6.4h.8c-.2.2-.4.6 0 .7-.3.2-.2.3-.2.4-.3 0-.2.2-.4.3 0 0 .3 0 0 0v.5c-.4 0-1 0-1.2.3l-.2.4h-.4-.2c0 .4.8.3.6.7-.3 0 0 .2-.6.2.3.2-.6 0-.6 0 0 .3-.2.3-.2.4 0 0-.2 0-.2.2h-.2c0 .3.6.2.4.5h-.2s-.2.2-.2 0l.2.4c.2.2-.3.2-.2.4l-1 .2c0 .2-.8 0-1 .2h-1c-.6 0-.8.2-1 .3 0 .2.4 0 .3.3h-.3c-.2 0-.6 0-.6.2-.2 0-.5 0-.7.3 0 0 0 .2-.2.3.4 0 .3.2.3.3 0 0-.5 0-.4.2 0 .2-.4.2-.5.4 0 0 .5 0 .4.3-.5 0-.6 0-.5.2.2.2-.3.2-.4.4 0 0 .7.2 0 .3v.5h.7c.6 0 .4.3 1.2.2-.2 0 0 .3-.4.3 0 .2.3.2.2.3.7 0 1 0 1.4.2.2 0 .3 0 .4.2H504.2c-.3 0-.4.2-.4.3 0 .2.3.2.4.4-.5 0-.6.2-.8.3-.2 0-.2.2-.2.3 0 0-.2 0-.2.3h.6c0 .2.3 0 .4.2h.6c0 .2.4.2.6.2.6 0 1.5 0 1.3.3 0 .3-1 0-1.5 0 0 .2-.3.2-.2.3H504.2v.5c-.3 0-.8 0-1 .2-.2 0-.5.2-.6.4-.6 0-1 0-1.4.2 0 0 0 .2-.2.2 0 0 0 .2-.2.2l-.4.2v.2h-2.2l-1 .2h-3l-1.4.2h-7.4c-.2 0-.3-.2-.6 0h-3H469.6h-.5s0 .2-.4.2-1 0-1.5-.2H460c-.2.2-.5 0-1 0h-4-.8-.4H451.2h-1-5.8c0-.2-.5 0-.6 0h-3.4-.6c-.6 0-.6.2-1 .2-.6 0-1.3 0-2-.2h-3.3c0-.2-1.2 0-1 0-.7 0-.8-.2-1.3-.2h-1.2-4H422.7c-.5.2-.4 0-1 0H420c-.2 0-.3.2-.7 0H407.4h-5c-1.3 0-2.5.2-4 0h-1-1.5c-.5 0-.3.2-1 0h-8.4H375h-.5H370.7c-.4-.2-1-.2-1.4-.2h-6.7-4.7-4.6H345.3h-4.6c-.4 0-.3-.2-1 0l-2.3-.2h-.2c-.5.2-1.6 0-2 0H330h-.6H309.3h-.8c-.6 0-.5-.2-1 0H304 303.4 299h-4.7s-.4 0-.4.2H288c-.6-.2-.8 0-1.2 0 0 0-.4 0-.6-.2h-.6l-1 .2c-.3 0-.4-.2-.8 0h-1.2c-.5-.2-2 0-2.5 0h-1.6c-.5 0-.3-.2-1-.2h-6-.4s-.4 0-.4.2h-3.2c-.8 0-1.5 0-2.2-.2H263h-.4-.5H260.3h-.4l-.6.2s-.4 0-.6.2h-.4c-.7 0-1 0-1.3-.2h-1.7c-.5 0-.7.2-1.3 0-.7.2-.7 0-1.3 0-.6 0-.6.2-1 0h-1-.4l-.4-.2H247 243.8h-7.4H235.2h-1.4c-1.6 0-3.6 0-5.3.2-.3 0-1 0-1.5-.2h-.2-.8-1.5H211.6h-.5-2.7-.3-2.5-2c-1.4 0-3 .2-3.8 0H199.4c-.5.2-.8 0-1 0h-6H191.5 177c-.2 0-.4 0-.5-.2-.2.2-.3 0-.5 0h-1.8c-.4 0-.4.2-1 0-.7 0-1.4 0-2 .2h-.3-8.5-1-.3c0-.2 0-.2-.2-.2h-1.4c-.3.2-.4 0-.4 0l-.6.2h-2.3c-.7 0-1-.3-1.7-.3-.8.2-1.5 0-2.6 0H150.7c-.8.2-1 0-1.5 0-.7 0-1 .3-1.6.2h-1-4H140.2c-.4.2-.3 0-.6 0h-12-1.2c-.4 0-1 0-1.4-.2h-1.8c-.3.2-.6.2-1 .2-1 0-1-.3-2 0H117.3c-.5-.2-.5 0-1 0-.2 0-.6 0-1-.2h-1-.5c0 .3-.5.3-.8.3l-1.4-.2h-1.9c-.3 0-.4.3-.8.3-.7-.2-1.3-.2-2 0h-2.7-1.2l-.3-.2-.5.2-.5-.2h-2c-.4 0-.8.4-.8 0-.6 0-.5-.2-1 0h-.2-4.4c-.3 0-.7 0-.8.2h-.8-.4c-.5 0-1.2 0-1.8-.2h-1.3c-1 .2-1.4 0-2 0-.7 0-1.4 0-2 .2h-.4-.4c-.4 0-.6 0-.8-.2h-3.2c0 .2 0 .2-.2.2h-4.4l-1-.2h-.7-.4l-1.6.2h-.4-.5-1c0-.3-.7 0-1 0h-.5-.4-2.8-.7c0-.2-.4 0-.7 0-.3 0-.4-.2-.5-.2h-.4c0 .2-.8 0-1 .2H60h-2.3c-.4 0-.4.2-1 0h-1.3H52h-.3-.2c-.4 0-.8 0-1.2-.2h-1.6-.4c-.2 0-.6 0-.6.2h-1.2.4l-.4.3h-.4s0-.2-.2-.2c.2-.2-.3 0-.5-.2h-.7c-.5 0-.5.2-1 0 0 .3-1 0-1 .3h-4s0-.2-.4-.2H30 22c-1.2 0-2.4 0-3.6.2h-5c.2-.4-1 0-.8-.2H8.4c-.4 0-.8.2-1 0H7s-.2.2-.2 0c-1.5.2-2.7 0-3.8 0 0 0-.2-.2 0-.4 0-.2-.2-.2-.2-.3V55c.2-.5-.3-.6-.2-1 .3-.6 0-1 .2-1.5 0-.2-.5-.4-.6-.7-.2 0 0-.2-.3-.3 0-.2-.3-.3-.3-.5-.3 0-.8 0-1-.3.2 0-.2 0-.2-.2-.3 0-.3-.2-.5-.2v-1.5c0-.5.5-.7.5-1.2v-1.3c0-.5.4-.6.5-1-.3 0-.2-.2-.3-.3 0-.2-.3-.2-.3-.4-.2-.2-.3-.5-.3-1l1-.7v-.4c.2-.2.8-.3.7-.6.2-.7 0-1 .3-1.8.3-.4.6-.8 1-1 0-.4.4-.4.3-.7.2-.3.5-.3.6-.6 0-.8.3-1.2.5-1.7 0-.3-.2-.4-.4-.5 0-.2-.2-.3 0-.7 0-.5.8-.7 1-1.2-.2 0-.2 0 0-.2l-.2-.4c0-.3-.3-.3 0-.7 0 0-.2-.2-.5-.2H4c0-.2.2-.3 0-.3.2-.4.4-.8.7-1-.3 0-.2-.3-.4-.3s-.2-.2-.5-.2c0-.3-.4-.4-.3-.7 0-.3 0-.6.2-1H4c0-.2 0-.4.2-.4 0-.2.6-.2.5-.5.4 0 .3-.5.7-.5 0-.2.6-.2.5-.6 0-.3-.2-.3 0-.5 0 0 0-.2-.3-.2V26l-.4-.2c-.3 0-.3-.2-.5-.2 0-.4-.3-.5-.3-.8 0 0 0-.2-.2 0v-.4c-.4 0-.4 0-.6-.2.2-.5 0-.8 0-1 0-.2-.5 0-.6-.2 0 0-.3-.2-.3-.4l-1-.6c.3-.4 0-.3 0-.6-.4 0 0-.4-.4-.4.2-.5.2-.8 0-1 0-.4-.4-.4-.5-.7 0 0-.2-.2-.5-.2v-.3c0-.6.4-1 .5-1.4.3-.4 0-.5 0-1 .5 0 .3-.3.5-.5 0 0 .2 0 .2-.3 0 0 .3 0 .3-.3s.2-.5.3-.6c.2-.2 0-.2 0-.3l.2-.2H2l-.4-.2.3-1 .5-.4H3l.3-.3H3c.5-.2.2-.3.3-.6h.3c0-.2-.2-.2 0-.4h.3v-.2c0-.3.2-.5.3-.7 0-.4.7-.6.7-1s-.3-.5-1-.4c0-.2-.2-.3-.5-.2 0 0 0-.2 0 0C3.2 8 3.4 8 3 8c0-.3.5-.4.5-.8 0-.3 0-.7.4-1V6c.3-.4 0-.3 0-.6l.7-.4c0-.3.4-.3.5-.5l1-1c.5 0 .3-.6 1-.5 0-.4.5-.4.6-.7h.6c0-.2.2-.2.2-.3H9c.3 0 .5-.2.6-.4 0 0 .4 0 .5-.2h.2c.2 0 .3-.2.3-.3.4 0 .3-.2.8 0l1.2-.2c.4 0 .5.2 1.2.2l1.6-.2H51.5c.4 0 .3.2 1 0h1l1 .2h.8c0-.2.6 0 .7-.2h4c.6 0 .6-.2 1 0H67c.3 0 0 .2.7.2h1.8c.3 0 .3-.3 1-.3.6 0 .8 0 1.2.2h.5c0 .2.4.2.5.2h.6c.2-.2.3-.3.7-.3.5 0 1 0 1.4.2.5 0 .5-.2.8-.2h1.5l.6.2h2.5c.2 0 .4-.2.7 0H83c.3 0 .3-.3.8-.2H89c0 .2.7-.2.5 0h1.4c.3 0 0 .2.7.2h2c.3 0 .2-.3.7-.2h7.2c2.5 0 5-.2 7.3 0h6.7c.6 0 .3.2 1 0 .6.2.5 0 1 0h2.3c1 0 1.6 0 2.3.2h1.5c.2 0 .4-.2.8 0h.8c.4 0 1 0 1.4-.2l1.3.2h.4c0-.2.2-.2.4-.2h2c.6 0 1.5 0 1.8.2.4-.2.5 0 1.2 0 0-.2.3-.2.5-.2h3.4c.5 0 .7.2 1.4 0 1.3 0 3.6 0 4.5.3l1.2-.2h.6c.7 0 0 .4 1 .3V.7h.5c.6 0 .5-.3 1.2-.2.2 0 .4 0 .3.2h1.1s.2 0 .2-.2h3.5c.4 0 .7 0 .7-.2h2.5l1 .2c.7 0 .8-.2 1.4 0H167c.2 0 0 0 0 0h11.4l2-.3H190.6c.3 0 .3.2.4 0h1c.6 0 .5.2 1 .2h16.4c.4 0 .4-.2 1 0 .2 0 .6 0 .7-.2l.6.2s.5 0 .6-.2H216.6c0 .2.4 0 .7 0h4c.4 0 .4.2.7 0h9.1c.4.2 1.5 0 2.2 0H268.8l2.8.2h.4s.4 0 .4-.2H281.8c0 .2.7 0 .7 0h9.2c.2 0 0 0 0 0H296.4c3.4-.2 6.6.2 9.7 0h12.8c.5 0 .7 0 1.2.2.4-.2 1.4 0 2 0 .7-.2.4 0 1 0h.8s.2-.2.6-.2h7.4c.6-.2 1.4 0 2 0h2.2c.2 0 0 0 0 0H412.4c.2 0 .4 0 .4-.2l.8.2h4.1c.6 0 .6-.2 1 0h17.2c.3-.2.6 0 .7 0h11.3s1 .2.8 0h2.4s.2 0 0 0h1.2l1-.2h.9c.6 0 1 0 1.3.2h2.7l.3.2h1.7c.3-.2.4 0 .7 0 .3 0 .4-.2.8 0 .4-.2 1-.2 1.5-.3 0 .2 0 .3.4.3.3 0 .4 0 .5-.2.2 0 .5 0 .5.2h4.2l2-.2h2.4l1 .2h3.5c.4 0 .6-.2.7 0l.7-.2h2.5c.4.2.7 0 1 0h3.9c0 .2.6 0 .6.2l.6.2c0-.3.5-.2.7-.3 0 0 .2.2.4 0 .2.2.3.2.5.2h.9c.2 0 0 .2 0 .4.6 0 .7.3 1 .4-.6 0 0 .4-.5.3 0 .2-.3.2-.2.5 0 0 .5 0 .7.2 0 .2.3.2.6.3l.3.3h.2s0 .2.2.2h.7c.4.2.4.4.8.4.2 0 .7 0 .7.2.2 0 .5 0 .5.3.2.3-.7 0-.6.4-.3.3-.3.4 0 .6-.4 0-.6.2-.7.3.2 0-.5 0-.3.3h.3l.6.2h.5c.2 0 .4 0 .5.2.2.3-.5.2-.4.5 0 0 .3 0 .2.2.3 0 .4 0 .4.3h-.4v.5s.3 0 .2.3c.5 0 .4.2.8.2V8c.7 0 0 .5.5.4 0 .2-.3.3-.6.3 0 .3 0 .4-.2.6h.7c.5 0 .4.3.8.3 0 .2 0 .4.2.6.6 0 .5.3 1 .4h1.4l.5.2c.2 0 .4 0 .5-.2.3 0 .5 0 .6.2h.8c0-.2.2-.2.2-.3 0 0-.2 0-.2-.2-.5 0-.3-.3-.5-.4.7-.2.2.3 1 .2 0 .2 0 .3.3.3 0 .2 0 .3-.2.4.8 0 0 0 .2.2 0 0 .3 0 .4.2.2 0 .2 0 .2.2 0 0 0 .2-.4.2 0 0 .2 0 .2.3s-.8.2-.8.4c.5 0 .2.3.6.3 0 0 .5 0 .7.2v.3c.5 0 1 .3 1 .6 0 0 0 .2-.2.2 0 .2.3.2.2.4-.3 0-.2.2-.4.2h-.3c0 .3-.7.3-.6.5 0 .2.4.2.3.5 0 0-.2 0 0 0l.2.3c0 .4 0 .7.4 1h-.3s-.2 0-.2.2c.2 0 0 0 .2.3.2 0 .3 0 .3.2h-.5c-.3 0-.3.2-.4.3v.4c-.2 0-.2.2-.3.2-.2 0-.7 0-.6.2h1.3c0 .2.2.3 0 .5.5 0 .6 0 .7.2.4 0 .6 0 .6.2 0 0-.3.2-.2.3 0 0-.3 0-.4.2.2 0 .3.2.2.4 0 0-.3.2-.2.3-.3 0-.3 0 0 .2-.2 0-.5.3-.4.6l1 1c0 .3-.6.2-.4.4 0 .3-.4.3-.2.6h.5c0 .3-.2.4-.7.4h-.4c0 .2-.3.3-.2.4 0 0 .4 0 .6.2 0 0 .2 0 0 0h.5c.4.2.6 0 .8 0 0 .2.4.2.5.3-.3 0-.2.2-.4.3v.2l-.7.4c.5.2 0 .5 0 1 0 0 .4.2.4.4s-.3.4-.2.6c-.2 0-.2 0-.2.3h-.4c0 .2-.2.3-.3.3l.8.2c0 .2.6 0 1 0h.3l.6.2h1c-.3 0-.2.2-.4.3h-.6s-.7-.4-.6 0h.8c.3.5-1 .2-1 .5l.2.3c-.5 0-1 0-1 .3h.8v.3h.2s0 .2.2.2c0 .3 0 .5-.2.7h.4s.4 0 .4.2l.6.3c0 .2-.4.3-.4.5 0 0 .2 0 .2.2 0 0-.3 0-.2.2h.7c.2 0 .3.2.2.3 0 .2.4.2.2.5l.3.2v.4c.2.2-.6 0-.6.3.4 0 .5 0 .4.3.2 0 0 0 0 .2v.5c.4.2 1.2 0 1 .3.2.3-.2.3-.3.4-.7 0 0 .2-.2.4h-.6c0 .2-.7 0-.7.2s0 .3-.4.4c.2.2-.8 0-.7.2h.4c0 .2.2.3.4.3h1.3c0 .2 0 .3-.2.4-.5 0-.3 0-.5.2h1v.5c.2 0 .2.2.5 0 0 .2 0 .3.2.4m-138.6-13c0 .2 0 .2-.3.3 0 .2-.3.3-.4.5h-2.2l-.3-.6-.2-.2c-.2 0-.2-.2-.4-.3 0-.2 0-.5-.3-.7 0-.6 0-1-.2-1.3v-.5c-.2-1.4 0-2.6.2-3.5.2 0 .4 0 .6-.2H369.6v.4h.2l.5.5c.2.2.4.5.7.6 0 .6.3 1 .5 1.5.3.7.6 1.4.6 2.3v.4c-.2.3-.4.6-.4 1M352.8 23c0 .3-.4.7-.3 1.3l-.3.7c-.5.4-.7 1-.7 1.3-.3.2-.5.5-.6.8-.4.5-.5.6-1 .5h-.3l-.4-.3c0-.4-.4-.5-.5-.6h-.2V26l-.2-.3s-.2-.2-.3-.8v-.4h-.2v-.2c0-.3 0-.5-.2-.6 0-.5 0-.8-.3-1v-4.3c.2 0 .4-.3.6-.6.2-.5.3-.6.7-.7h.4c.4 0 .6 0 .8.2.2 0 .5.3.8.3.2.3.5.3.7.4l1 1c0 .2 0 .6.4 1 0 .4 0 .7.2 1v.6c0 .5 0 .7-.2 1m80 6h-.2c0-.5-.4-.6-.6-.7h-.3c0-.5-.5-.6-.7-.7h-.2c-.2-.6-.5-.8-.8-.8 0-.6-.3-1-.4-1V25s.4 0 .6.2c.7.2 1.4.4 2.2.4.2.4.5.5.7.6h.3l.3.7c.2 0 .3.3.3 1.4-.3.2-.8.3-1 .3M410.5 19c0 .7 0 1-.2 1.2v1.1c-.3.3-.5.6-.6 1 0 0 0 .3-.2.4-.2.5-.5.8-1 1h-.3c0-.2-.3-.3-.4-.4 0-.5-.4-.7-.6-.8v-.2l.2-1.4.5-1c.5-.4.6-1 .6-1.2 0 0 .3-.3.3-.6l.3-.4c.4 0 .6-.3.8-.4l.4-.2v.2c.2 0 .2.2.2.5l-.2.6.2.5zm-263 5c.3.3.7.4 1 .5.5.2.6.2.6.6 0 1-.6 1-1.6 1.3h-.3l-.3-.4-.5-1c0-.3-.3-.5-.6-.7v-1c.5 0 1 .3 1.3.4l.4.2" fill="#ffba00" fill-rule="evenodd"/></g></svg>