<svg xmlns="http://www.w3.org/2000/svg" id="Layer_1" xmlns:i="&amp;ns_ai;" viewBox="0 0 510.4 134.9"><style id="style3">.st0{fill:#fff}</style><g id="g7" i:extraneous="self"><path id="Main_Logo_1_" d="M144.3 60.6v1c-.3 0-.8.6-1 .8-1 0-2 0-3 .2-2.3.2-4.5.3-6 0 0-.7.4-1.3.7-2 .4-1 .8-2 1-3.2.5-.5.8-1.2 1-1.6v-.3c.3-.2.4-.5.5-.7l.6-.8c.2 0 .3-.3.4-.6h.2c.4-.3 1-.5 1.3-1v.2c.2.4.5 1 1 1.3.2 0 .2.2.2.4l.6 1c0 .3.2.5.4.7 0 .6.2 1.2.6 1.6V59l1.5 1.6zm145 3.6c-.2-.7-.6-1.6-.6-3-.2 0-.3-.3-.4-.4h-.5v-1c-.2 0-.4-.3-.6-.7-1-.4-1.3-1.2-1.7-2l-2.4-.3c-.4 0-.7-.3-1-.4h-.5c-.5.2-1 .2-1.4 0l-1 .2-2.2 1c-.2.4-.6.8-1 1 0 1-.6 1.4-1 1.6l-.3 1.4c0 .7-.3 1-.5 1.3v.3c-.2 0-.2.3-.3.5 0 .4-.4 1-1 1.6l.2 2.8-.8 1c-.2.2-.2.2-.2.5l-.5 1.2c0 .3 0 .6-.3 1 0 1-.3 1.5-.6 2s-.4.8-.3 1.6l-.6 1.4c0 .4-.2.7-.4 1 0 .4-.3.7-.5 1 0 .3-.3.5-.4.8-.5 1-1 2-1.2 3l.4.2 1 .6c1 0 1.6.4 2 .6.5.3.6.3 1 .2h.5c.6 0 .8 0 1.3-.4l1.2-.7h.3c.3 0 .5-.2.8-.4l.2-.2h1.5v-.4h1l2.4-1c1-.6 2-1 3.3-1.3.6-1 1.4-2 2.4-2.8.3-.7.8-1.3 1.5-1.7v-.3c.2-.5.4-1.2 1-1.7l.6-2.3.6-3v-2c-.3-.2-.5-.7-.8-1.3zm219.8-14.6c-.2.7.8 0 .7.6.3 0 .4.3.4.6-.2.3-.8.2-1.3.2.2 1-.3 1.3-.2 2.2-.2 0-.4.2-.4.4-.2 0-.3.2-.3.4-.4.2-1.3 0-1.4.6 0 .3 0 .6.2.6l.6.2c0 .5 0 .8.3 1 .6.2.5-.3 1-.2-.3 1.3 1 1 1 2.2l-.6.2c-.2 0 0 0 0 .2-.7.2-.8-.3-.8-.2V59.2c0 .5.2.4 0 1-.3 0 0 .7-.6.6l-1 .2c0 .6.3.7.3 1.2-.5 0-.5.4-1 .2 0 .5-.3.8-.8.8 0 .5-.7.8-.7.8v.8c0 .2 0 .3-.2.4 0 .6.4.5.3 1l-.2.6s0 .4-.3.4c0 .4.5.6.4 1.2 0 .2-.5 0-.5.4-.3 0-.3.3-.6.4-.2.5-.7.7-1 1.2 0 .6.7.5.7 1 .5 0 1 0 .8.6-1-.2-1 .7-1.8 1h-.4v-.2l-.4.2c-.2.6-.5-.2-1 0-.5 0 .3 1.4-.3 1.4 0 .7-.3.8-.2 1.6-.2.2-.6 0-.6.4 0 .3-.3.5-.5.6 0 .3.5.2.8.2.2.7-.2.8-.4 1.2.5 0 1 .2 1.5.4 0 .5-.4.4-.2 1-.2.6.7.3.6.8v2.7c-.6 0-.2.8-1 .6 0 .5.5.7 1 .7 0 0-.2.4 0 .6 0 0 .2.2 0 .2h.3l.4 1c0 .6-.4.8-.2 1.6 0 .7-.5.8-.8 1 .2 1-.6 1-.4 2-.6.3-.6 1-1.4 1-.4.6-.8 1-1.5 1l.2 1h-.2v.7c-.2 0-.4.2-.4.4 0 .3-.3.2-.3.5-.4.2-.6.5-1 .6 0 .6-.2 1-.6 1 0 .5.3.5.3 1-.2 0 0 .3-.4.3 0 .2-.3.2-.3.4-.2 0-.2.2-.2.4l-.2.5c-.2 0 0 .4-.4.4 0 0-.3 0-.3.3 0 .4-.6.2-.4.8 0 .3.4.3.6.3 0 0 0 .2.3.2 0 .7-1 .3-1.4.2-.2.2-1 .7-.3 1 0 .5-.7.5-.8 1v.6s0 .6.3.6c-.2.5.6.3.4 1-.3 0-.8 0-.8.5s.2.6.5.8c0 .2.2.2.4.2v1.4c-.2.3-.3.4-.3.7.2 0 .2.2.2.4-.3.2-.5.3-.5.5-.2.6.3.5.2 1-.3 0-.5.3-.8.4-.2.2-.5.4-1 .3.2.5 0 .8-.5.8l.2.7c.2 0 0 .2 0 .2.2 0 .2.6.2 1-.2.6.3.5.3 1s-.4.7-.2 1.5c0 .2.5.2.7.2l-.2.6c0 .2.4.2.6.2 0 .2.3.2.3.4 0 .4 0 1-.4 1 0 .4-.3.4-.3.7-.2 0 0 .4-.4.4.3.8.8 1.3 1.4 1.7.3.5-.5.7 0 .8.2.2.2.4.2.8v.4l-.3.2s-.2-.4-.4-.3c0 1 1.4.2 1.2 1.2-.2 0-.6.2-.6 0-.5 0-.6-.2-1-.3-.3 0 0 .7-.5.6-.4 0-.3.5-.8.4 0 .4-.7 0-.6.6-.4 0 0 .6-.5.6.3.2.2.8.2 1.3 0 .3 0 .6.2.6 0 .2-.3.2-.3.5-.3.3-1 .3-1.4 0-.4 0-.5.4-1 .4-.5-.2-.8 0-1 0-.5.2-.8 0-1 0h-1.6c-.6 0-1.2.3-2 0-.7 0-1.5-.2-2.4 0-.6 0-1.5 0-2 .3 0-.2-.3-.2-.4-.2h-.3c-.3-.2 0-.3 0-.5-.3 0-1 .2-1-.2-.7 0-.3.8-1 .6-.6 0-.4-.6-.8-.7-.4 0-.5.2-.7.2 0 .2-.2 0-.2 0-.5-.2-.4.3-1 .2-.3 0-.4 0-.7-.2l-.8.2-.2-.2h-.4c-.4 0-.3.4 0 .4 0 0-.5 0-.5.3-.5 0-.4-.3-.6-.5-.5 0-.2.7-.7.7H466c-.5 0-.7-.5-1-.7-.7 0-1.2.2-1.7.4-.3 0-.8 0-.8.2l-.6-.2c-.3 0-.5 0-.5-.2l-.4.2s-.3 0-.3.2c-.2-.2-.5-.2-.8-.2-.4 0-.4-.3-.7-.4-.7 0-1 .3-1.8.2-.6 0-.6.4-1.2.4s-.6-.5-1.2-.4c-.3 0-.2-.6-.7-.6h-1c0 1-.6.2-.6.6-.2 0-.3-.2-.6 0h-.3c0-.5-.3.4-.6.3-.3 0-.4 0-.7-.2-.5.5-1.3.6-2.2.5-.3 0-.6 0-.7-.4-.3 0-.5 0-.6-.3-.6 0-.5.5-1 .6-.5 0-1 0-1.2.2-.6 0-.6-.3-1.2-.2l-1.2.2c-.8 0-2-.2-2.7.2l-.8-.2c-.6-.2-.5.3-1 .2 0-.4-.7 0-1-.2-.5 0-.8 0-1-.3-.2 0 0 .3-.4.3h-2l-.4-.3c-.2.2-.5.3-.8.2-.3 0-.7-.3-1-.2-.6 0-1.3.2-1.8.4-.2 0-.4 0-.4-.2-.2 0-.2 0-.2.2l-.8-.2h-2.2c-.5 0-.8.2-1.2.4-.5 0-1 0-1.2-.2-.2.2-.5.2-.8.2l-1-.2c-.7 0-1.6.3-2.4-.2-.7.3-1 0-1.6 0h-2.4c-.6 0-.6.5-1.2.4-.7.2-.6-.2-1-.3-.3 0-.6 0-.6.2-.3 0-.6 0-.6-.2l-.6.2c-.3 0-.3-.4-.6-.4h-6c-.4 0-.5.4-.7.4-1.4 0-3 .3-4 0-.7-.3-.6.2-1 0-.7 0-.7-.3-1.3 0 0-.3-.4-.5-.6-.5h-.6l-.8.2c-1 .2-2.5-.2-3.3 1h-2c-.6 0-.4-.3-1-.2 0-.2-.4-.2-.6-.3-.2-.2-.3-.2-.6-.2-.5 0-.6.5-1 .5h-4c-.4 0-.4-.4-.7-.4 0 0-.3-.2-.3-.4-.5 0-.6.3-1.2.2-.5 0-.8 0-1 .2-.5 0-.4-.4-1-.2-.5 0-.8 0-1-.2-.6 0-.4.5-1 .4-.7 0-1.6 0-2-.2-.4 0-.8.5-1.4.2v-.2c-.4 0-.2 0-.3.2h-1c-.6.2-.5-.3-1-.2-1.4 0-2 .3-3.3.4-.3 0-.6 0-.6-.2-.3 0-.6 0-.6-.2-.6-.2-.5.3-1 .2-.6 0-.4-.4-.8-.4-.5 0-.8.3-1.4.2-.4 0-1.2-.2-1.2.2l-.8-.2c-.3 0-.6 0-.6.2l-.6-.2c-.5 0-.6.3-1 .4-.8 0-2-.2-2.4.2-.5 0-.8-.3-1.4-.2h-1.4c-.3.2-1 .2-1.6.2h-.8c-.3 0-.6 0-.6-.3-.5.2-1 .3-1.6.3-.7 0-1 0-1.4.2 0-.2-.4-.2-.6-.2h-.6l-.8.2H339c-.4.2-.3-.3-1 0-.2 0-.6-.2-1 0h-.7-3.6c-.6-.3-.5.2-1 0h-1c0-.4-.2 0-.4 0-.2-.2-.4-.3-.4-.5-.4 0-.3.5-.8.4-.3 0-.8 0-.8.2-.3-.3-1.2-.2-1.8-.2l-.2.2v-.2h-1.8s0 .2-.2.2h-2.8c-1.7-.5-3.6 0-5.3.2-.6 0-.7-.4-1.3-.4-.8 0-1 .3-1.6.2-.3 0-.3-.2-.7-.2-.2 0-.4 0-.4-.2s-.2-.2-.3-.2c-.6 0-.5.6-1 .6H308c-.3 0-.6.2-.7.4l-.6-.2c-.2 0-.4 0-.4-.2-.6.3-1.2 0-1.8-.2-.3.2-.5.2-.8 0-.3 0-.5.3-.8.4-.7 0-1.6 0-2-.2 0 0 0 .2-.3.2s-.4-.3-1-.2c-.6 0-.8.4-1.4.4-.7 0-1 0-1.4-.2-.4 0-.5-.2-.7-.2-.3 0-.6 0-.6-.2-.5 0-.6.3-1.2.2 0 .5-1-.2-1 .4-.5 0-.4-.4-1-.2-.3-.2-.3 0-.6 0l-2-.4c-1-.2-.8.7-1.5.6-.7 0-1 0-1.4-.2-.3 0-.4 0-.7.2l-.8-.2h-1.2c0-.3-.7-.2-1-.2h-3.8l-.4.2c0-.2 0 0 0 0-.5 0-.6 0-1-.2-.2.3-1 .2-1.5.2s-.8 0-1-.2c-.8.3-2 .2-2.6.4l-1-.2c0-.2-.3 0-.3-.4-.7 0-.5.7-1.2.6-.5 0-.8-.3-1-.4 0 .3-.5 0-.8 0H266h-1.7c-.6 0-.4-.5-.8-.5-.2.3-.5.3-1 .3 0 .3-.6 0-.6.4-1 0-.5-.8-1-.8-.7-.3-.6.2-1 0-.6 0-1 0-1 .5-.4 0-.3-.4-1-.2 0 .2-.5 0-.5.4l-.6.2c-.6 0-1 0-1.3-.3-.3 0-1 .2-1-.2-.2 0 0 .4-.4.4 0 0-.2.3-.4.3-.8 0-1.2 0-1.7.2 0-.3-.6 0-.6-.4-.3 0-.8.2-.8 0-.5 0-.5.5-1 .3-2-.3-4.8.3-6.6-.6-.7 0-1 .6-1.8.4-.6 0-.4.5-.8.5-.3 0-.8 0-.8.2l-.6-.2c-.3 0-.6 0-.6-.2l-.6.2c-.5 0-.6-.3-1.2-.2-.6 0-1 .2-1.4.4l-.8-.2-.8.2h-.8c-.5 0-.6-.3-1-.4-1.3 0-2.3 0-3.3.4-.6 0-1.3 0-1.5-.2h-.6c-.2 0 0 .2-.3.2l-.6-.2-.7.2H223c-.7.2-1.3-.4-1.7 0-.5 0-.6-.3-1.2-.2-.2 0-1 .2-1-.2-.5 0-.4.5-1 .6h-.3v-.3h-.2v-.2h-.4v-.2c-.3.2-.8.2-1.3.2 0 .2-.2 0-.4.2 0 .2-.2.2-.4.2l-2-.5-1 .5c-.7 0-1.6-.3-2-.3h-1.3c-.3 0-1 .3-1 0-.5 0-.6.3-1.2 0-.6 0-.8-.2-1.4-.3-1 0-1.6.3-2.5.4-.6 0-.4.4-.8.4-.6.2-.6-.3-1-.4-.2.2-.5.3-1 .2-1-.2-2-.2-3-.2-.5 0-.8-.2-1.2-.4-.2.2-.5.2-.8.2 0 .2-.4 0-.4.4-.2-.2-.7-.2-1.2-.2-.3 0-.3-.2-.7-.2-.3 0-.6 0-.6-.2-.3 0-.3.3-.6.4-.2 0-.5 0-.5.2-.5 0-.8-.3-1.4-.2-.3 0-.3-.2-.7-.2-.3 0-.6 0-.6-.2-.4 0-.7.4-1 .6-1 0-2-.5-2.6-.2-.3 0-.3 0-.3-.4-.5 0-1 .2-1.4.4-.6.2-.5-.3-1-.2l-.6.2c-.3 0-.6 0-.6-.2-.2 0-.2.3-.5.4-.3 0-.8 0-.8.2-.2 0-.4 0-.4-.2-.2 0-.2-.2-.2-.4-.4 0-.5.3-1 .2-.4 0-.5-.2-.7-.2l-.4.2c-.7.2-.6-.5-1-.5-.8 0-.6 1.5-1.3.3h-.8s-.3 0-.3.3l-.8-.4h-1.7c-.3 0-.6 0-.6.3-.6 0-.4-.6-1-.5 0-.5-1 0-.8-.4-.8.4-.2-.4-.7-.3-.8 0-.4 1-1 1H165c-.7 0-.6-.8-1-.8h-1c0-.2 0-.4-.3-.4s-.3.3-.6.4c0 .2-.3 0-.3.4-.3 0-.6 0-.6.2s-.3 0-.3.4l-.4-.2s0 .2-.2.2c-.6 0-1 0-1-.4-.4 0-.4.3-.7.3-.4 0-.5-.4-.6-.4h-.8c-.6 0-.5.3-.7.5-.6.3-.5-.2-1-.2l-.6.2c-.2 0-.4 0-.4.2-.8-.3-2.4-.3-3.3 0h-.6s0-.2-.2-.2-.3.3-.6.2c0-.6-1-.2-1-.8l-.6.2c0 .2-.4 0-.4.4-.3 0-.5-.3-.8-.4-.4 0-.5.4-1 .4s-1 0-1 .4c-.6 0-.4-.4-.8-.4l-.6.2c-.5 0-.6-.3-1.2-.2-.5 0-1 0-1-.4-.4 0-.3.5-.8.4l-.6-.2c-.5 0-.8.3-1.4.2-.3 0-.6 0-.6-.2-.2 0-.4 0-.4.2-.6 0-.4-.7-1-.6-.6 0-.4.2-.8.2h-.8c-.3 0-.6 0-.6.4-.3 0-.5-.2-.8-.3-.3 0-.5.3-.8.4-.5 0-.8-.2-1.4 0-.8-.3-.6.4-1.2.3 0-.3-1-.3-.8 0-.5 0-.6-.3-1-.4-.4 0-.6.4-1.2.3-.3 0-.6 0-.6.2-.2 0-.4 0-.4.2-.5 0-1-.2-1.4-.4l-.4.2h-.4c-.3 0-.4 0-.6.2-.5 0-.8 0-1-.2-.2.2-.5.3-1 .2-.7 0-1.3-.3-2.2-.2-.6 0-.8.4-1.4.4-.6 0-.6-.4-1-.5-.6.4-1.7 0-2.4 0l-1.2.2c-.5 0-.8-.2-1.2-.4l-.4.2h-.4c-.3 0-.4 0-.6.2-2 .2-3.5-.6-5 0-.6 0-1.3 0-1.5-.2-.4.2-.4 0-.7 0-.6 0-.4.4-.8.4-.5 0-.6-.4-1.2-.3-.8-.2-.6.5-1.2.4 0-.2 0-.4-.5-.5h-1c-.3 0-.4 0-.6-.2-1 0-.7.8-1.5.8 0-.4-1 .3-1-.3l-.6.2c-.6-.2-1-.4-1.5-.3-.6 0-1.3.2-1.8.4-.5 0-.8 0-1.2-.3l-.6.2c-.3 0-.3-.3-.5-.3l-.6.2s-.7 0-.7 0c-.5 0-1-.2-1.6 0-.7 0-1 .2-1.6 0-.5 0-1 0-1.5-.3-.8 0-1.6.5-2.2 0-.5 0-.6.3-1 .4-.3.2-1 0-1 .3-.6 0-.5-.5-1-.6H76s-.3.2-.3.4H75c-.4 0-.7 0-.7-.2-.3 0-.5.3-.8.4-.5 0-.6-.3-1-.4l-1.8.4-1.2-.2c0 .6-.4-.2-.8 0-.7.2-1.7 0-2.2.4-1.2-.5-3.5 0-4.7-.4h-.6v.2l-.6-.2c-.2.2-.6 0-.6.4l-.6-.2c0 .3-.4 0-.6 0l-.6.2-.6-.2s-.6 0-.6-.2l-.8.2c-.8-.2-1 0-1.8-.2-1 0-2 .5-2.6.2l-.8.2h-.6l-.4-.2-.6.2H48l-.4-.2-.8.2H45c-.4 0-.5 0-.8-.2-.3 0-.6 0-.6.2-.6 0-.4-.4-.8-.4-.2.2-.5.3-1 .2l-.6.2c-.2 0-.4 0-.4.2-.5-.2-1-.3-1.8-.2h-.6l-.2-.2-.8.2c-.6 0-.4-.4-.8-.4-.2-.2 0-.5-.4-.6-.4 0 0 1-.6.8-.2 0-.4 0-.4.2-.4 0-.5 0-.8-.2-.6.2-1.6.2-2.6.2-.4 0-.5 0-.8-.2l-.8.2h-1.8l-.6.2h-2.4c-.6-.2-1.4-.2-2.2-.2-.5.2-1 .3-1.8.2-.4 0-.4-.4-.8-.4-.2-.2-.5.5-.6-.4h-2.4v.4l-.6.2c0-.2-.4-.2-.6-.2l-.4.2s-.4 0-.4.2c-.2.2-.5.2-.8.2.2-.6-.7-.3-.6-.8 0-.4.2-.6.6-.6 0-1 .5-1 .4-2 .2-.6-.3-.6-.4-1 0-.6 0-1.4-.2-1.8 0-.6.5-.5.6-1 0-.6.4-.6.2-1.2 0-.4.6-.2.4-.8 0-1-1-.5-1.2-1.2 0-.6.6-.2.4-1h.2H10c0-1 .2-.6.4-.6-.2-.7.6-1 .6-1.4v-1.8c0-.5.2-.4.2-.8.2 0 0-.2 0-.4.3 0 .2 0 .3-.2l-.2-.6c0-.5-.4-.4-.6-.6 0-.4 0-.5-.2-.8-.3-.6-1-.8-1.2-1.6 0-.3.2-.5.4-.6.3 0 0-.6.4-.6 0-.3-.2-.5-.3-.8 0-.5-.4-.4-.4-.8 0-.3.2-.5.4-.6.3 0 0-.3 0-.6l.6-.2c.2 0 .2-.2.2-.4s0-.3-.2-.4c-.2 0-.2 0-.2-.2-.2 0-.7 0-.7-.2-.3 0-.3-.3-.6-.4-.4 0-.5 0-.8-.2 0-.2-.3-.2-.3-.2 0-.2.3-.4.6-.6 0-.5.2-.8.6-1-.5-1-.6-1.8 0-1.8 0-.6-1-.2-.8-1 .8 0 1.3-.2 1.8-.4 0-.6-.4-.7-.2-1.4.3 0 .2-.4 0-.4 0-.2.4 0 .4-.4l.6-.2c.2-1-.7-.6-.6-1.4.2-.2.6 0 .6-.4.2 0 0-.4.4-.4 0-.4 0-.5.2-.8.2-.2 0-.5.4-.6 0-.8-1-.7-1-1.6 0-.5.3-.6.6-.8l.2-.4s0-.3.2-.4c-.2-.8-.3-1.7-.2-2.8.2-.2.5-.3 1-.2 0-.5-.5-.7-.5-.8v-1c0-.7.7-.6.6-1.2.2-.4.4-.7.4-1.2.3 0 .3-.3.6-.4 0-.2.4 0 .4-.4 0-1-.7-.8-.8-1.4 0-.4-.6-.2-.4-.8-.2 0-.4 0-.4-.2s0-.2-.2-.2c.3-.3.2-1 .2-1.6 0-.6-.6-.4-.4-1-.2-.3-.2-.7-.6-.8l.2-.8c.2-.6-.6-.4-.4-1 .5-.2.5-.8.6-1.4.2-.6-.6-.4-.4-1 0-.2 0-.2-.3-.2v-1.4c0-.4.3-.2 0-.8.3 0 .3-.2.4-.4.3 0 .3.2.5.2 0-.2-.2-.4-.3-.4-.2 0-.2 0-.2-.2-.3 0-.3-.3-.6-.4 0-.4-.2-.5-.3-.8 0-.4-.5-.4-.8-.6-.2-.6.4-.6.3-1.2 0-.5-.3-.6-.4-1v-.4c0 .4-.3.4-.4.4 0-.5.2-.4.2-.8v-2.6c-.2 0 0-.4-.3-.4-.2-.6.3-.5.3-1s-.3-.6-.6-.8c0-.4-.5-.4-.8-.6l-.2-2.4-1-1.6c0-.6-.6-.4-.4-1-.3 0-.5-.3-.6-.6 0-.2.4-1-.3-1.2 0-.3.3-.3.3-.6 0-.2.2-.4.4-.4 0-.7-.8-.5-.6-1.4.7 0 .5-.4.7-.6.4 0 .5 0 .8-.2l-.2-1.2c.5 0 0-.6-.2-.6 0-.5.5-.4.5-.8l-.2-.8s.3-.4.2-.8c0-.3.4-.3.4-.6 0-.7-.8-.5-.7-1.2 0-.2 0-.4-.2-.4l.5-.8c0-.3-.4-.3-.4-.6 0-.4-.2-.4 0-.8-.3-.8.8-.4 1-.8.2-.8-.7-.5-1-1-.3-.3-.7-.4-.7-1 .2 0 0-.4.4-.4l.2-.4c.3 0 .3-.5.5-.8.5.4.6.2 1 0 .2 0 0-.5.3-.5 0 0 .2-.3.4-.3 0-1 .6-1.3.4-2.4l-.2-.6c-.2 0-.4 0-.4-.2-.2-.7.2-.8.4-1.2-.3 0 0-.2 0-.4l.2-.4c.2-.6-.3-.6-.4-1-.3 0-.4-.4-.4-.8.3-.2.8-.2.8-.6.3 0 .5 0 .7.3v-.5H10c-.5 0-.7 0-.6-.6-.8 0-.7-.6-1.6-.4 0-.3 0-.7-.2-.8 0-.7 0-1.3.2-1.8l-.2-.6c-.2 0-.4 0-.4-.2 0-.5-.4-.4-.4-.8 0-.5.3-.6.4-1 0-.5-.4-.6-.2-1.2.3 0 .2-.6.8-.4L7 23c-.2-.6.3-.6.4-1 0-.4-.6-.2-.4-.8 0-.4 0-.6.4-.6.2-.6-.7-.3-.6-.8-.4 0-.4-.5-.8-.6 0-.6.6-.4.4-1 .5 0-.3-.3 0-.8 0-.2-.4-.2-.6-.2 0-.3-.2-.4-.4-.4-.2-.6.3-.6.4-1-.3-.3-1 0-1-.6-.4 0-.5-.4-1-.4l-.2-.8c-.6.2-.5-.3-1-.2 0-.5-.6-.7-.8-1.2h-.6v-.2H.8s-.2-.6-.8-.4c0-.7.3-.8.2-1.6l.6-.2c0 .2.2 0 .2 0 .5 0 .8 0 .8-.5.5 0 .8 0 1-.2.4 0 .5 0 .8.2.5 0 .8-.3 1.4-.2.5 0 .6-.3 1.2-.2 0-.5 1 0 .8-.4h.8c.5 0 .6-.2 1-.3.6 0 .6.3 1.2.2.6-.3 1.5-.2 2-.5.7-.2 1 .5 1.2-.2l.8.2c.5-.2 1.2 0 1.6-.4.5 0 .6.4 1.2.3.6.3 1-.5 1.8-.2 0 0 0 .3.2.3l.4-.2c.7 0 2 .2 3 0 .7 0 .7.4 1.3.3.3 0 .4-.2.4-.4 0 0 .3 0 .3-.3.4.3 1.3 0 2 .2.5 0 .6-.4 1-.5.5.2 1.2.2 2 .2.4 0 .5 0 .8-.2 1 0 2 0 2.7-.2 0 .2.4.2.4 0 .7 0 .5.4 1 .4s.3-.2.7-.2c.3 0 .8 0 .8-.2l.6.2c.4 0 .7 0 .7.2.4 0 .5-.4 1-.4 0 .6.4-.2.8 0h.6v.2h.5v-.2h.6l1 .2H44v-.2h2.3l1 .2.2-.2.4.2h.5v-.2c.4 0 .7.4 1.4.2v-.2s.7 0 1 0v.2l.7-.2.6.2c.6.2.5-.2 1-.2 0 .2.3.2.4.2h3c.3 0 .8 0 .8-.4l.8.4 1.4-.5c0 .2.2 0 .4 0h.5c1.4.2 1.5 0 1.8 0l.8.2h.7V7h.6c.2 0 .6 0 .7-.3.5.2 1 .3 1.8.2.4-.2.5 0 .8 0h2.6c.4-.2.5 0 .8 0 1 .2 2 0 2.6.3.5-.2 1.2 0 1.6-.4 1.2-.2 2.2 0 3.3 0 .6 0 1 0 1.6-.3.7-.2.6.3 1 .2 2-.3 3.5.2 5.4 0h.4v-.3l.8.2H89s0-.3.2-.3h3.3c.6-.2.5.3 1 .2 0-.6.7-.2.8 0l1.4-.5c.5 0 .4.4 1 .2.7 0 1.3-.4 2.2-.2v.2h1c.3 0 .3-.2.5-.2l.6.2s0-.2.3-.2.6 0 .8 0c.2 0 0 .2.3.2l.4-.2h1.4c.4 0 .8 0 1 .2.7 0 .5-.5 1-.4 1 0 1 .3 1.7.2.6 0 1.2-.2 1.6-.4.7 0 1.8.3 2.2 0h.8c0-.2.6-.2.6 0 .2-.2 1 0 1.7 0 .5 0 .6.2 1 .3 1 0 1.7 0 2.2.4 0-.2.4 0 .7 0 0-.2.2-.2.4-.2h1.3c.3 0 .8-.3.8 0 .5.2.8-.7 1 0 .3 0 .4-.3.7-.4.6 0 .4.4.8.4h4.1c.3 0 .5-.4.8-.5H129c.2-.2.3 0 .5 0h1.2c.6 0 .7-.3 1.2-.3s.3.4.7.4c.6.2.7 0 1.2 0 0 .3.3.5.5.5h1.8c.5 0 .4-.5 1-.4 0 .3.2 0 .2 0 .2 0 .4 0 .4-.2 1 .4 3 0 4.6.2.5 0 .6-.3 1-.4.8 0 1.7 0 2.4.2l1.2-.2c0 .2.4.2.6.2 0-.2.2-.4.4-.4 0 .2.4 0 .6 0h.8c.6 0 .6.5 1 .6l1.8-.7c.4.2.6 0 1.2.2l.2.2.6-.2c.7 0 .8.6 1.6.4.6 0 .5-.4 1-.3 0-.2.3-.4.6-.4 0 .2.4 0 .6 0h1.4c.3 0 .6.2.6.4.3 0 .5-.2.8-.3.2 0 .4 0 .4.2.2 0 .2 0 .2-.2l.6.2c.2 0 0-.4.4-.4.5 0 .4.4 1 .2.6 0 .7-.4 1.4-.2.6-.2 1 .4 1.8.2h.2l.4.2h1s0-.2.2-.2.6 0 .8 0c0 0 0 .2.2.2h.4v-.2h1.2c.2 0 .4 0 .4.2.5 0 .4-.4 1-.2.4 0 .5 0 .8.2.5 0 .6-.3 1.2-.2.3 0 1 .2 1-.2.7.3 1.2-.2 2.2 0 .6-.2.7.5 1.4.2 0 0 0-.2.2-.2l.8.2c.3 0 .8 0 .8-.2.5 0 .4.4 1 .2l.8-.2h2c.4 0 .5 0 .8-.2 1.4 0 3.2.2 4.3-.2 0 .3.4.2.7.2l.8.2h.8l.6-.2.5.2h1.6c.2 0 0-.2.3-.2h.2l1 .2h3c.4 0 1 0 1-.2.3 0 .3.2.7.2l.8-.2 1.2-.3c.4 0 .4-.5.8-.5h1.8c.6 1 .5 0 1 0s1.2.2 1.4.4c0 0 .8-.4.8 0 .2 0 .2-.2.2-.5.2 0 .2.5.2.7l.8-.2v.2h.6c.5 0 .8.4 1.2.6h7.3c.5 0 .6-.5 1-.6h1.2c.6.2.6-.3 1.2 0 .7 0 1.3.2 2.2 0l1.5-.3c.7 0 1 0 1.6.2h1.3l.8-.2.3.2c.2 0 .2-.2.2-.2l.8.2h2l.6-.2c.6 0 1.6.2 2-.2l.5.2.4-.2c.2.2.4.2.7 0l.6.2.4-.2.4.2.5-.2c.5 0 1 .3 1.6.2.7 0 .7-.3 1.3-.2.5 0 1 0 1-.4l1 .4c1 0 2.2-.2 3 .2.3 0 .3-.2.7-.2h1.6l.6-.2.4.2c.5-.2 1-.3 1.8-.2.5 0 .8-.3 1.4-.2 0-.2.4 0 .4-.4.2 0 .4.2.4 0l.6.2c0 .2 0 .4.2.4.6 0 1.5 0 1.8-.2 1.2 0 2.7.4 3.7 0 .3 0 .3.4.7.4h5.5c.4 0 .4-.5.8-.4.3 0 .8 0 .8-.3.5 0 .4.3 1 0 .4 0 .4-.2.8 0h.4c0 .3 0 .3.2.3l1.2-.2c0 .2.4.2.6.2l.8-.2c.6 0 1.5 0 1.8.2.2-.2.7-.2 1.2-.2.6.2.5-.3 1-.2.6 0 .6.3 1.2.2l1-.2h5.5l.8.2s1.6.2 1.8 0v-.2h.5v.2h1.2s0-.2.2-.2c.4 0 .4.2.7.2.6 0 1.4 0 2-.2l1.2.2c.6 0 1.2-.4 1.7-.6H299.3c.6 0 1.5.2 1.8-.2 1 0 2 .2 2.5-.2l.8.2h2.2c.6 0 .4-.4.8-.4 0 .6.4-.2.8 0 .7 0 .8.2 1.3.2.7 0 1.8-.2 2.2.2l.6-.2c.3 0 .5 0 .5.2.4 0 .7 0 .8-.4.4 0 .4.6 1 .4.3 0 .6 0 .6-.2.2 0 .5 0 .5-.2l1.2.4c1-.2 1 0 1.8-.2.8 0 2.3.4 3 0 .5 0 .6 0 1 .2 0 0 .2-.2.5-.2l.8-.2c0-.2.4 0 .4-.4.6 0 .4.4.8.4.5 0 .4-.4 1-.2.6-.2.6.3 1 .4.5-.2 1-.3 1.8-.2.4 0 .5 0 .8-.2.4 0 .5 0 .8.2.5-.5 2 0 2.4-.4l.8.2c.6 0 .7-.3 1.2-.3 0 .3 1 0 1.2 0h1.4c.5 0 .4-.2 1 0 .4 0 .3-.6.8-.4 0 .3.5.2.8.2.3 0 .6 0 .6.2.6-.2 1.4-.2 2.2-.2 1 .2 2 .2 3.3.2h1.3c.3 0 .8 0 .8-.2 1 .3 2.4.2 3.6.2.6 0 .7.4 1.4.2 1 0 1.7-.2 2.4-.4.6-.2.5.3 1 .2.4 0 .5 0 .8-.2.7.3 1.3-.2 2.4 0 .2 0 .4 0 .4-.2.2 0 .4 0 .4-.2l.6.2c0-.2.2-.2.4-.2 0 .6.4-.2.8 0 .5 0 .4.4 1 .2.3 0 .8 0 .8.2l.6-.2.4.2c.3-.2.5-.2.8 0l.6-.2c.2 0 .4 0 .4-.2l.6.2c.2 0 .4.2.4 0 .3 0 .6 0 .6.2.2 0 .4 0 .4.2.4 0 .5-.4 1-.4 0 .6.4-.2.8 0 .8 0 1.7 0 2.2-.2 0 .2.2.2.4.2 0 .2 0 .2.2.2l1.2-.2c0 .2.3.2.4.2.3 0 .8 0 .8-.2.5 0 .6.3 1 .4.4 0 .5-.4 1-.4.3 0 .6 0 .6-.2.5 0 1 .3 1.6.2l1-.2c.7 0 1.5 0 2 .2.8-.2 2-.2 2.4-.6 1 0 1.8.2 2.6.4l1.2-.2c1 .2 2-.3 3.3 0l.2.2h.4v-.2h1.3l.4.2.4-.2h1.5c.6-.2.5.3 1 .2 0-.4.4 0 .6 0l1-.2h1.3c.4 0 .7 0 1-.2 0 .3.5.4.8.5.2.3.6-.7 1 .5h.5c0-1 0-.6.2-.7.5 0 .6.2 1 .3h1.2c0 .2.3-.7.5.4h2c.5-1 1-.4 1.4-.7h.3c.2 0 .2-.2.2-.4l.8-.2h.8c.4 0 .7.2.7.4.3 0 .5-.2.8-.3h2c.4 0 .4.3.8.3.5 0 .8 0 1-.2h.4c.2 0 .2-.3.2-.3h.7c.6 0 1-.3 1.6-.4.8.3 2 .4 3 .4h1c.4 0 1 .3 1 0 .4.2 1 .4 1.7.3h.8c1-.2 2 0 3 0 .4 0 .4-.3.7-.3s.6 0 .6-.2c.3.2.8.2 1.3.2 0 .3.2 0 .4 0H436.4c.2 0 .4 0 .4.3.3 0 .5-.2.8-.3h.4V1s0-.2.3-.2c.5 0 .6.3 1 .4.3 0 .6 0 .6-.2.2 0 .5 0 .5-.2l.8.2.8-.2c.7 0 .8.2 1.3.2l.4-.2.2-.4c.3 0 .7.6 1 0 .3 0 .3.2.7.2.3 0 .6 0 .6.2l1.2-.2 1.2.2h2l.6-.2c.8.2 2.5.3 3.3 0H456.4c.2 0 .2.4.4.4h9.2c.4-.2 1 0 1.3-.3 2.7 0 5.3-.2 8-.4V0c.6 0 1-.2 1 1h.7c.2 0 .4-.3.4 0 .8-.4 2.4-.5 3.3-.2.6 0 1-.3 1.4-.4.4 0 .5.2.7.2l.6-.2s.7 0 1 .2c.6 0 .4-.4.8-.4 1 .3 2.2.2 3.4.2.4 0 .5 0 .8.2h.6V.3l.6.2.6-.2c.2 0 .4 0 .4-.2.5.3 1 .5 1.8.4.5 0 .6.5 1 .5h1c.3 0 .8 0 .8-.4h.4c.4 0 .6.2.6.7.6-.2.5.3 1 .2.2.6-.3.5-.2 1 0 .3.5.2.8.2l-.2.4s.3.5.2 1c.3.2 0 .3 0 .5l.2.6c0 .5.8.3.8.7 0 .5-.4.4-.4.8-.2 0-.2.2-.2.4h-.2c-.4.4-1 .5-.8 1.3-.2.2-.6 0-.6.4 0 .2-.2.2-.4.2h-.2c0 .4.3.6.4 1 .4 0 .5.2.4.7 0 .2.2.2.4.2h.2c0 .4 0 1 .2 1 0 0 .2.2.2.5-.5 0-.8 0-1 .3-.2 0-.4.7-.4.7h-1l-.4.3c0 .2.3 0 .4 0v.3c0-.2.4.2.4 0v1.5s0 .4-.2.4v.3l.6-.2h.4c.3 0 .4-.3.6-.3l.4.2c0 .4 0 1-.4 1 0 .2-.3.4-.6.5 0 .3.4.4.8.4 0 .2-.2.2-.2.5 0 .2.3.2.5.2l.5.2v.7c0 .2 0 .3.2.4 0 .4-.2.4-.2.7l.2.4c0 .6-.4.5-.4 1 .2 0 0 .4.4.5 0 .3.4.3.4.6 0 1 .4 1 .2 2 0 .2.4.2.4.5 0 .2.2.4.4.4l.2 1.7c0 .8-.8.8-.6 1.8-.5.2-1 .5-1.2 1 0 .5.4.4.6.6.2.3.5.3.8.3.2.3 0 .3 0 .6-.3 0-.3.2-.6.3 0 .5.7.4.6 1-.6.2.2.5.2.8.2 1-.5.8-.6 1.3.2.2 0 .5.4.6 0 .2.5 0 .8 0l.2.7c.2 0 .4 0 .4.2.5 0 .6.2.8.5.2.7-.5.6-.4 1.2l.2.6c0 .2 0 .3.2.4v.4h-.2v.5h-.2s0 .3-.2.4h-.2c.3.3.5.3.8 0 .4 0 .5.2.8.3.2.7-.2.8-.4 1.2 0 .4.6.4.6.8 0 .6-.3.8-.4 1.2 0 .5.8.3.8.8 0 .4 0 .5-.2.8 0 .8.7.7.8 1.3 0 .4-.3.4-.2.8 0 .8.8.6.6 1.5-.2.2-.5.3-1 .2 5.3-.6 5-.5 5 0zm-398.8 1l.2-.7v-.3h.4v-1c0-2.5-2-3-3-3-.4 0-.7 0-1-.2-.6-.7-1.5-1-2.8-1h-.8c-.3-.2-1-.5-1.7-.4l-3-.3-6.6-1h-5.2l.2-1-1.2-.2-.2-.2c-.3-.3-1-.8-1.8-.8H79v.8c-.2 0-.4.2-.6.5-.6.3-1 .8-1 1l-.3.4-1.7.3-5.5 1-10 .5h-.4c-.4 0-.7.3-1 .4-.2.2-.3.2-.5.2h-.3c-.7 0-1 .4-1.3.6-.7 0-1 .3-1.3.6-.5 0-1 .4-1.4.6-.7.3-1.2.6-2 .5l-1 .6-1 .4h-1.2c-.6.2-1 .5-1 .6H46l-.5.5c-.3 0-.5.2-.7.3-.4.3-.5.7-.7 1-.3.2-.7.4-1 1l-.2.2.2 1v.2c-.6.6-.5 1.5-.4 2.2v1l.8 1.3c.3.4.4.5.4.8l1.3 1.3c.2 0 .4 0 .7.3l.3.2h.3c.2 0 .4.3.8.3.2 0 .5 0 1-.3h.4c1.2 0 2.5 0 3.3-.8l2.7-1c1.3-.5 2.5-1 4-1.3l.8-.2c2-.5 4-1 6.6-1 1.3 0 2-.3 2.6-.6.4-.3.6-.4 1-.4h.3c1.2.2 2 0 2.4-.4l-.3 1c0 .4-.4 1-.4 2v.2c-.3.3-.5.8-.5 1.4-.3.4-.6 1-.7 1.8-.2.3-.4.6-.5 1.2h-.2l-.2.6c-.2.5 0 1 0 1.6H69v1c0 .6 0 1-.2 1.6 0 .8-.3 1.8-.2 3-.2 0-.3.3-.3.5l-.5 1.3v.3c-.2.3-.5.7-.4 1.4l-.4 1c-.2 0-.4.5-.5 1l-.4 1.4c.2.5 0 .7 0 1-.4.5-.7 1.2-.7 2 0 .3 0 .5-.2.7-.2 1-.6 1.8-.5 3-.3.5-.4 1-.4 1.6 0 .2-.3.6-.3 1l-.5 1.4c.2 1.2 0 2-.2 3l-.2.7v.2c0 .7 0 1.3-.4 2l-.3 1v.3c0 1.8.3 3.3 1 5v.3l.3.2c1.4 1 3 2 5.5 2l1.2-.2v-.5c.4 0 .7-.2 1-.3h.3l1-1 .2-.3.4-1.3.3-1 .4-1v-1.3l.3-.3V94l.4-.2V93c0-1.3.4-2.3.7-3.5.5-1.3 1-2.7 1-4.4.3-.3.4-.8.5-1v-.3h.5l.2-1v-.2h.4v-1c0-.6 0-1 .3-1.4.2-.6.5-1.4.4-2.6 0-.5.2-.8.3-1.3.2-.5.5-1.3.5-2.3.5-1 1-2.3.8-4.2.2-.2.3-.6.4-1l.4-1.2c0-.8 0-1 .2-1.2l.3-.3v-.5-.3c0-.4.4-1 .3-1.5l.4-.8v-.2h.4v-2l.5-.2v-2h.2v-.8c.2-1.2.6-2.2 1-3l2-1c.2-.3.5-.5.8-.6h16.5c1 0 1.7-.4 2-.7l.5-.3h2l2.2-1.3zm50 17l-.2-.6c-.3-.8-.7-1.4-1-1.8l-.7-.8-.3-.5-1-.3c-1.2-.2-1.2-.3-1.2-.6 0-1.8-.4-3.2-.8-4.5-.4-1.3-.7-2.5-.7-4.2l-.5-1c0-.7-.3-1-.6-1.3v-.3l-.3-.6c-.5-.6-.8-1.3-1-2.2l-.2-1h-.6l-.4-.5c0-.2-.3-.4-.4-.6l-.7-1-.5-1-.7-1.2-.2-.3h-.3l-.8-.5c-.2 0-.3-.2-.5-.3-.2-.5-.7-1-1.5-1v-.8h-1.3c-.8 0-1.4-.2-2-.4-.7-.2-1.5-.5-2.6-.5-.5 0-1 0-1.5.2h-.8v.5h-.5c-.5.2-1.4.4-2 1.2l-.3.3-1.3.6-.4.2c-.5-.2-1-.2-1.4-.2h-2.6c-1 0-1.7.7-2 1v.2h-1l-.3.4c-.8 1-1 2.4-1 3.7l-.4 1.6v.4c0 .7 0 1.3-.3 2s-.6 1.6-.5 3c-.5.4-.7 1-.8 2l-.4 1.4c0 .3 0 .7-.2.8l-.2.2v.3c0 1-.5 1.6-1 2.4 0 .5-.3 1-.5 1.4-.4.3-.6.6-.7 1l-1.2.4c-.6 0-1 .4-1.2.6l-.8.3v.6c-.2 0-.8.4-1 1-.3 0-.5.2-.7.3l-.8.4-.7 1.4c-.3.2-1 .7-1 1.6-.7.5-1.5 1.5-1.2 3.2-.2 2 .5 3 1 4 .3.2.5.5.6 1-.5.5-.6 1.2-.7 1.8 0 .3 0 .7-.2 1l-.2.2v.4c0 .5 0 1-.2 1.3-.2.5-.4 1-.5 2v.3c-.3 1-.6 2.2-.3 4v.2l1 1.5.7 1.4.3.5h1.1l.2.6 1-.2h.6c.4 0 1.3 0 1.8-.5 1.3 0 2.3-.4 3.2-.7l1.3-.4V92c.4-.2 1-.7 1-1.6.3-.3.4-.8.4-1.5 0 0 .3-.4.4-1 .6-.5.8-1.3.8-1.8.4-.4.6-1 .5-1.8 0-.3.2-.4.4-.8v-.2l.5-.8c0-.4.3-.7.4-1.2v-.2l.2-.3c.4-.3.6-.7.7-1l.5-1c0-.4 0-.5.3-1 .3-.2.6-.7.7-1.3v-.4c0-.3 0-.4.6-.8l.8-.4h1.7c.4 0 1.2-.2 1.8-.7l4.8-.2h.8c1-.4 1.8-.7 3-.6h2c.2 0 .6.3 1 .3.2 2.8.3 5.6 0 7.4-.4 1.4-.4 3-.4 4.3 0 1.3 0 2.7-.3 3.7v.7c0 .3.3.6.4 1 .4.7.7 1.3.7 2.4l.8 1.2c.2 0 .2 0 .2.3v1h.4v.3l1 .2h.2l1.4.4h1.5c0-.2.3-.3.4-.5.4 0 .7-.3 1-.5l.2-.7c.7-.5 1.4-1.2 1.8-2.2v-.2l.5-1v-.7h.5v-1.2-.7c.4-.5 1-1 .7-2.3-.2-1.2 0-2 0-3 .2-1 .4-2 .2-3.4.5-.8.4-2 .3-3v-1c-.2-.5 0-.7 0-1 .3-.5.5-1 .4-2h.4l1-.2v-.3h.3l.2-1v-.2l.3-.8V70c.3-.2.6-.4.8-.8.2-.2.2-.4.2-.6 1 0 1-.7 1-1zM243.5 42l-.2-.6h-.3l.2-1h-.6v-.6l-.7-.4c-1.7-.8-3.5-1.3-5.6-1.4h-.3l-.5.3-2.3 1h-.7l-.2.6c0 .3-.3.6-.5 1-.5 1-1 2-1 3.8-.2.4-.3.8-.3 1.5-.2.3-.6.8-.3 1.8v1.2c-.2.4-.4.8-.4 1.5l-.4.8v.2h-.3v1s0 .2-.3.4c-.2.5-.5 1-.6 1.7-.2.3-.4.8-.4 1.4 0 .2-.2.2-.3.3l-.5.3v.5c0 .3-.2.4-.4.6-.2.3-.5.8-.6 1.5l-.6 1-1 1.2-.2.2c-.4.3-1 .8-1 1.8l-.2.2c-.4.2-.6.6-.7 1l-.4 1.2c-.3.2-1 .7-1 1.6-.7.7-1 1.7-1.3 2.6 0 .4-.3.8-.4 1-1 .5-1 1.4-1 1.8v.2h-.7v1l-.6.3h-.4v-.4h-.6v-.2c0-.3-.3-.7-.6-1l-.7-1.7-.6-1.3c-.2-1.4-.6-2.7-1.3-4l-.3-.5c-.4-1-.8-1.6-.7-3l-.8-1.2c0-.3-.3-1-1-1.2 0-.6-.4-1-.6-1.2-.3-.2-.4-.4-.4-.5-.2-.7-.5-1-.7-1.4-.4-.4-.5-.5-.5-.8v-.4c-.2-.6-.5-1-.7-1.3-.3-.3-.4-.4-.4-.7l-1-1.2c-.2 0-.4 0-.6-.2l-.3-.6V51l-1-1.2c-.2 0-.4-.2-.7-.6-.3-.3-.7-.8-1.3-1-.6-1-1.6-1.5-2.5-2-.5-.5-1-.6-1.5-.7l-.2-.2-.2-.3c-.4-.6-1-.8-2-.8h-1.1s-1.3-.6-2.3-.3c-.2 0-.5 0-.7.5h-1.7l-.8.6h-.3c-.4 0-1 0-1.2.2l-.8.2v.8c0 .2-.2.3-.6.6-.5.4-1.2 1-1.3 2l-.5 1c-.8.3-1.2 1-1.4 1.2h-.8v1c-.2 2 .7 2.8 1.5 3 .2.3.3 1 .3 1.8 0 .3 0 .6-.2 1 0 .5-.2 1.2 0 2-.4.5-.5 1-.5 1.5-.2.2-.4.6-.4 1l-.4.2v1c0 1.8-.3 3.3-.7 5l-.5 1.6v.5c0 .3 0 .4-.2.7-.3.4-.7 1-.6 2 0 .2 0 .4-.2.6-.3.7-.5 1.4-.6 2.4-.6.6-.6 1.5-.5 2-.2.3-.5.8-.4 1.6l-.3 1c-.2.2-.4.5-.5 1l-.4 1.3c.2 1.4 0 2.5 0 3.6-.8.6-.7 1.8-.7 2.3v.4c0 1 .4 2 1 2.6.4.8 1.3 1.2 2.5 1.3.6.3 1.2.5 2 .5h1c1.3 0 2-.4 2.4-.7h.8c.6 0 1.5-.2 2.2-1v-.2l.2-.2c.6-1.5 1-3.2 1.2-4.8.2-1.4.5-2.6 1-3.8v-.6c-.3-.7 0-1 0-1.6.4-.5.7-1 .7-2 .6-.6.5-1.5.5-2 .3-.3.5-.8.4-1.5l.3-1v-1c.2-1.2.3-2.3.6-3 .4-1 .4-2 .5-3 0-.7 0-1.3.2-1.6l.2-.6c.3-1 .8-2.2.6-4 .3-.6.4-1.2.5-1.8l.2-.7c.2.4.5.7.8.7v.6l.7.3c.2.2.8.4 1 2l.6 1 .2.4c.2.5.5 1.3 1.3 1.7.2 1 .6 1.5 1 2l.6.8c.2 1 .6 2 1 2.8.3 1 .6 1.8.8 3v.7h.5c0 1 .4 1.7.7 2v.3c.5.7.8 1.4 1 2.3v.6h.5l-.2 1 .7.2v1.4h.6v.6c.3.7.7 1 1 1.4.2 1 1 1.3 1.2 1.5l1.3 1.3h.4c0 .5.6.7 1 1v.5l4.6-.2v-.6l.8-.4c1 0 2-.4 2.6-.7l1.4-.5h1v-1h.3c.4-.4 1-1 1-2h.2c.4 0 1.6-.6 1.7-2 .3 0 .5-.4.6-.7.4-.2.6-.6.7-1h.4v-.7l.5-.2.5-.4v-.7-.4l.7-.3V76c.3-1 .8-2 1.3-3l.8-1.7c.4-.2.6-.6.7-1h.5v-.8l.4-1c.3-.3.4-1 .4-1.5l.5-1v-.2c1-.6 1.3-1.8 1.5-2.6.6-.4 1-1 1-1.4l.4-.5.4-.3v-.6c.2-1.2.5-1.5.7-1.6l1-.3-.2-.8c0-.3 0-.4.2-.7h.4l.2-1v-.2h.3V54c.2 0 .3-.2.4-.5v-1s.3-.2.4-.5v-.5h.2c.3-.5.3-1 .3-1.2l.3-1c.4-.4.5-1 .5-1.6.4-.4.5-1 .5-1.5.5-.6.4-1.4.4-2V44c.6-.2 1-1 .6-2zm58 23.4v-.2L301 64c-.4-1.7-1-3.2-.8-5.3l-.5-1c0-.8-.4-1-.6-1.4 0-.5-.4-1-.6-1.2-.3-.3-.4-.4-.4-.7l-.8-1V53c0-.3-.3-1-.7-1.3 0-1-.8-1.3-1-1.5L294 49h-.2l-.2-.3c-.2-.3-.5-.7-1-1-.4-.6-1.2-1-1.6-1h-.2l-1-1h-.5v-.3h-1.5l-1.3-.5c-.5 0-.6 0-1-.3-.6-.3-1.2-.7-2.3-.6h-2.6c-1.4 0-2.5 0-4 .4-.2-.3-.4-.8-.8-1 0-.6-.4-1-.6-1-.2-.5-.6-.7-1-.8V41l-5.2.3h-.2c-1 .5-1.7 1.3-2 2.3-1 2.3-1.4 5-2 7.6 0 1-.3 2-.5 3 0 .3-.2.5-.4.8-.3.3-.5.7-.6 1.2v.6c-.3.3-1 1-1 2-.5 1.7-1 3.4-1 5-.5.6-.7 1.3-1 1.8 0 .3 0 .6-.2.8l-.2.2v.3c0 1-.4 1.4-.6 1.5l-.7 1.3c0 .6 0 .8-.3 1.2l-.6 1.3v.2c0 .2-.3.4-.4 1-.2 0-.3.4-.4.6l-.5 1.3c0 .6 0 .8-.3 1.2l-.6 1.3v.4c0 .3 0 .4-.2.7-.2.2-.5.7-.6 1.4-.4.4-.5 1-.5 1.5-.5.5-.4 1.4-.4 2h-.2c0 .2-.3.5-.3 1v.5l.6.8v.3c0 .3 0 .7.2 1l.2 1h.5c0 .2.3 1 1 1.2.2.3.6.6 1.2.6h.3l1.5.6c0 .2.4.5.7.7.2.5.7.8 1.4 1l.2.7h1.2c1 0 1.7.3 2.6.5.7 0 1.4.4 2.4.5.7.4 1.5.5 2 .5h1c.3.3.8.5 1.4.4.2 0 .6.4 1.2.4h.5c.6-.3 1.3-.4 2-.6 1.2-.4 2.4-.8 4-.8l1.2-.7c.3 0 .5-.2.8-.3.6 0 1-.3 1.2-.5l.3-.2 1-.7h.2l.6-.2c.7 0 1-.4 1.4-.6h.4l1.4-.8c.4 0 1-.3 1.2-.7l.2-.3c.4-.2 1-.4 1.2-.8l.2-.3c.4-.2 1-.4 1.2-.8.8 0 1.2-.5 1.4-.7h.4l.2-.6c.2-.5.6-1 1-1.4.7-.6 1.3-1.2 1.7-2l.4-1 .3-.6 1-1V80c.4-.2.6-.6.7-1h.3V78h.5v-1.5h.4v-1.6l.4-.2v-1.5l.5-1.2c-.2-1.7 0-3 0-4.6.2-.7.2-1.3.2-2h.4zm77-20c-.2-.3-.3-.4-.2-.8l-.8-1.3c0-.2-.2-.4-.4-.6 0-.2-.3-.4-.4-.5l-1.3-1.2c-.3 0-.5 0-.8-.3-.6-.3-1.5-.8-2.8-.5h-1.4c-.6-.3-1.5-.5-2.6-.3h-.3c-1.4.8-3.6 1-5.8 1.2-1.7.2-3.3.3-4.7.7L336 43.5l-.7.3c-.8 0-1.3.3-1.5.5h-.2l-1.2 1c0 .3-.4.6-.8.8l-.6 1.4c-.3.2-1 .7-1 1.7-.4.5-.6 1.2-.7 2.2L329 53l-.3.8-.3.5.2.6v.3c0 .2-.4.6-.4 1.2-.3.4-.5 1-.4 1.5-.2.3-.6.8-.3 1.8v.2c-.3.3-.7 1-.5 2l-.2.4c-.3.4-.7 1-.6 2 0 .2-.3.3-.5.6l-1 1c-.7.3-1.2.7-1.5 1.3-.4.2-.6.7-.8 1.4h-.4v1c-.2 1.6.2 2.7.7 3.6.4.8.6 1.4.6 2.5l-.3.6c-.3.5-.6 1-.6 2l-.4.6-.5.2h-.2l-.2 1v.2h-.3v1c-.2 2-1 3.7-1.6 5.5v.7c0 .3 0 .4-.3.7-.3.5-.8 1-.6 2.4.3.8.2 1.2 0 1.8l-.2 1.3.8 1c0 .3.3.5.5.7l1 1c.6 1 1.7 1 2.3 1.2h.5l.4.4h.5l1.7-.3c2-.2 3.3-.3 5.5 0h.2l.3-.2c1.2-.6 3.2-.6 5-.7h2.8c1 0 1.5-.3 1.8-.6h.8c.3 0 .6-.2.8-.3 0 .2.3.2.4.2h1.5l.4-.2c.6-.5 1.7-.8 2.8-1l2-.5 7.7-.4v-.4h.7l.3-.3.8-.3c.4 0 1-.3 1.4-.6.8-.3 1.2-.8 1.4-1.2l.3-.3c1.3 0 2.6-.2 3.4-1h.3c.6-.4 2-1 1.5-3 0-1.8-1.4-2.3-2-2.5-.3 0-.5 0-.6-.2l-.5-.2h-.4l-.6-.2h-1l-.4-.8h-1.2c-2.8 0-5.7.2-8 1-.4 0-.6 0-1-.2-.5-.2-1.3-.4-2.3-.2h-.4l-.2.4c-.2.2-1.3.2-2 .2h-.5c-1.2-.2-2 .2-2.4.4-.5.2-.7.3-1 .2l-8.2.4c-.2-.2-.6-.5-1.3-.5h-1v-1.2l.5-1.4c.3 0 1-.6 1-1.5l.2-1v-.2-.3c.2-.3.5-.8.4-1.5 0-1 .3-1.3.6-1.5.4 0 .8-.2 1-.3.7-.2 1-.4 2-.3.6 0 1 0 1.4.2.7.2 1.6.4 2.7 0h2.3v.3h1c1.3.2 2 0 2.7-.4.4-.2.7-.3 1.2-.3h.2c.3 0 .5 0 .8.3.4.3 1 .6 2 .6h.8l.2-.2c1-.4 2.4-.6 4-.6 1.3 0 2.6 0 3.6.3h.3l.8-.2c1-.3 1.6-.5 2.6-.5h.6c1.2 0 2-.4 2.6-.7l1.3-.5h2c1.7 0 3.3 0 4.4-1 2.2-1 3.2-2.6 2.8-5V67l-.6-.3c-.7-.5-1.5-.7-2.7-.7h-2.4c-.8.2-1.5.3-2.2.2-.7-.3-1.5-.4-2.2-.5-.4 0-.8 0-1.2-.2h-.4c-4 .2-7.4 0-10.8-.4l-3.3-.3c-.3-.2-.7-.4-1.5-.4h-.8l-1.6.2c-.6-.4-1.4-.4-2-.4h-1.2l-1 .2H343c-.5-.3-1.3-.6-2.3-.3h-1c-.7 0-1.4.2-1.7 0 .3-.4.5-1 .5-1.6.5-.7.4-1.7.3-2 0-.4 0-.6.3-1l.3-.2V59v-1.8c.4-.2.6-.6.8-1h.5v-.8l.3-.2c.4 0 .7-.3 1-.5h.7c.4 0 1.2 0 1.8-.5 1 0 1.6-.2 2-.4.5-.2.8-.3 1.3-.3s1 .2 1.5.4c.8 0 1.6.4 2.6.4h1.2l2.5-.2v-.7s.2 0 .3-.2c1 0 1.7-.2 2.2-.5l.7-.2c.7 0 1.3 0 2 .2 1.7.2 3.5.4 5.4.4 1 0 1.8 0 2.8-.2.6 0 1 .3 1.5.5.7.4 1.6.8 2.8.8.5 0 1 0 1.4-.2l1-.7c1.2-.4 1.8-1 2-2l.3-.5.5-1.2v-.3c.2-.3.5-.8.4-1.4.7-1.3.3-2 0-2.5zM463 52v-1c-.5-1.2-.6-3-.6-4.5V45l-.2-1h-.5v-2h-.6c0-.3 0-.7-.4-1-.2-1-1-1.6-1.5-2l-.5-.5-1.4-.8h-.5c-.4-.3-1.3-.7-2.3-.4l-1 .2v.5l-.6.6-1.2 1-1.4 1-.6.3V42.2c-.4.4-.8 1-.7 2l-.4.4c-.4.5-.8 1-1 2-.6.5-1 1.3-1.3 2-.4.6-.6 1-1 1.2h-.5l-.2.3c-.8 1.3-1.8 2.4-3 3.3l-.4.3v.4c0 .7-.5 1-1.2 1.6-.6.5-1.3 1.2-1.7 2.2v.2l-.2.2c-.3.2-.7.5-1 1-.7.5-1 1.4-1 2-1.3.3-1.8 1.2-2 1.8-.5.2-.7.6-.8 1.2-.3.2-.5.5-.6.8-.4.2-.6.6-.8.8h-.3l-.3.4-.5.5-.4.7-.4.4v.2l-.5.4-.2.6c-.2 0-.4.2-.6.4l-.2.2-.4.4-.5.5-.3.6h-.2l-.3.4c-.3.3-.4.6-.4 1-.6.2-1 .7-1 1l-.3.3c-.2 0-.4 0-.6.2-.2-3.5-1-6.5-1.6-9.3l-.6-2.6-.3-6.3-.5-2c-.4-1.2-.7-2.3-.7-3.7V50l-1-3-.8-2.8v-.5l-.5-.2c-1-.5-1.6-1-2.2-2l-.2-.3h-.4l-.8-.4c-1-.4-2-.8-3.6-.6-1 0-1.7.5-2 .8l-.6.3-1 .2v.5l-.5.5c-.5.3-.8.7-1 1-.3.4-.6.7-.7 1.2-.5.4-.7 1-.8 1.2 0 .2-.3.5-.5.7-1-1.3-2.3-2.7-5-2.6-2 .5-3 1.5-3.6 2.5-.5.4-1 1-1 1.7-.6.4-1 1-1 1.6-.4.4-.5 1-.6 1.2v.2l-.2.2v.3l-.2.3c-.2.4-.4 1-.3 1.7-.5 1-1 2.4-1.2 4v.2c0 .6 0 1-.3 1.6-.2.5-.5 1.2-.5 2 0 .3-.3.6-.5 1-.4.7-.8 1.4-.8 2.6l-.5 1-.5.2v2h-.5v1l-.3 1.3c-.2.7-.5 1.4-.5 2.5l-.5 1v.3c-.7.5-1 1.5-1.2 2.7-.3 2-.4 4-.4 6v4l1 1 .2.3c.2.2.6.6 1 .7h1.7v.4h1c1.6.2 2.7 0 3.7-.3l1.5-.3h.6l.4-.8c1-1.7 2-3.5 2.2-6.3 0-1.3.3-2.2.5-3.3.2-1 .5-2.3.5-3.6.2 0 .3-.4.4-.6h.3v-1h.3c.2-.3.6-.7.7-1.4v-.2c0-.5 0-1 .3-1.3.2-.5.5-1.2.5-2 .7-.5 1.2-1 1.4-1.8V66c.3-.2 1-.6 1-1.5 0-.3.3-.6.6-.7l.6-1.4c.2-.2.6-.4.8-1 .8-.4 1-1 1.4-1.7.3-.6.4-1 .7-1l.8-1c.3-.2 1-.7 1-1.5l.3-.4.3.4v1c0 .5.3.8.4 1l.2 4.6c0 .7.3 1.2.5 1.6.3.4.4.6.3 1v.5c.3.6.2 1 0 1.6-.2.5-.4 1.2-.2 2 0 .8.4 1.3.6 1.7.2.4.3.6.2 1v1c0 1 0 2.3.7 3V78c0 .6 0 1 .2 1.6v2.4l.6 1.5c0 .8.3 1.3.5 1.7 0 1 .2 1.8.5 2.5l.3 1 1 .8c.5 0 1 .2 1.3.4.5.2 1.2.5 2 .5.5 0 1 0 1.5-.2h.3c1.2-.8 2.4-1.3 4.3-1.2l1.2-.5 1-1 .4-.2h.5l.2-.7.4-.2.6-.2v-.5l1-1 .2-.3c.3-.2.7-.5 1-1l.5-1 .5-.2v-.5l.4-.3c1.2-.2 1.7-1.3 2-2V79c.4-.7 1-1.2 1.5-1.5l.5-.3v-.6l.3-.2c.3-.2.8-.7 1-1.4 1-.4 1.3-1.4 1.5-2v-.3c.7-.4 1.6-1 1.8-2.2.6-.5 1.2-1 1.5-1.8 1-.4 1.3-1.3 1.4-1.8v-.3c1-.5 1.5-1.2 2-2 .6-.4.8-1.3 1-1.7v-.2h.2l.2-.6c.3-.8.8-1.3 1.4-1.6l.6-.3v-.5l.3-.6 1.2-.7c0 2-.4 4-.8 5.8l-.5 3v3.4c-.2 1-.6 2-.7 3v.4c0 .5 0 .7-.2 1-.2.6-.6 1.3-.5 2.4.2 1.7-.2 3-.6 4.2l-.3.5v.2c.2 1 0 1.4-.3 2-.3 1-.7 2-.4 3.4v.3c.8 1.5 1.5 3 2.4 4.4l.4.6h.7l.6.2s1 .3 1.5.3h.8c1 0 1.8-.3 2.3-.6.4-.3.6-.4 1-.3l1.2-1c.3 0 .5 0 .6-.3.5-.5.4-1.2.3-1.6v-.3c.3-.4.5-1 .5-1.7.4-.5.5-1 .4-1.4l.4-1.2c.3-.3 1.2-1 1-2.4-.4-3.6 0-6.3 1-9.4V73c-.2-1.2 0-2 0-3 .2-1 .4-2 .3-3.2.4-.6.4-1.5.3-2 .2-.3.6-.8.4-1.8-.2-.8 0-1.2 0-1.8.2-.4.3-.8.3-1.3 0-1-.3-1.5-.5-1.8v-.4c.2-.4.5-1 .3-2-.4-1.6-.3-3 0-4z" class="st0"/></g></svg>