<svg xmlns="http://www.w3.org/2000/svg" id="Layer_1" xmlns:i="&amp;#38;ns_ai;" viewBox="0 0 510.4 188.2">
  <style id="style1">
      .logo--default{fill-rule:evenodd;clip-rule:evenodd;fill:#f4c522}
  </style>
  <g id="g3" i:extraneous="self" class="logo logo--default">
    <path id="path6" fill="#f4c522" fill-rule="evenodd" d="M250.7 187h-.4.4zm69-36.4h.3-.3zm-107.5-15c-5.4-1.3-9.6 3.2-10.6 8 .6 1.3 5-1.8 7-2.5 1-1.4 2.7-2.6 3.2-4.4 1 .5.3-.7.4-1zm241.4 20.7c-3.6-1.7-1.8-2.2-2.8-4.6-.8-.7 3-1.6-.4-2.6-2.2-1.2 1-3.3.5-3.3-2.5-1.7-2.5-3.8-2-3.4-.4-2-3.4-2.7-1-4.6-.6-1 1.7-3.2-.2-5 2.2-.4-.8-2 1-2.8 0-2 3.5-2.8 1.5-5.8 2.7-1.3-2.7-4 0-4.7.8-1.6.4-3.8-1.8-5 2.5-1 .3-3.5-.6-4-1.5-2-3.7-2.4-8-2.7h-28.3c-3.5-.6-7 0-10.8-.2H385c-3.6.6-7.5 0-11.3.2-7.3-.4-14.5 0-21.6-.2-4.2.4-8.5 0-12.8 0-5.6 0-11.3 0-16.8-.4-5 .4-10 .4-15 0-2.8.6-5.8-.5-8.8.4h-24.2c-6.2 0-12.8-.3-19-.2-4.3.4-8.6-.2-12.8 0h-15.7c-6.4.5-12.7-.3-19 .2-4.6-.5-8.5-.4-13-.2-4.5 0-8.7.4-13 0-2.7.4-6.5-.6-10.2 0h-11.3c-5.5-.4-10.7-.2-16 0-3.3-.3-6.6-.5-9.8-.3-6.6.4-13 .2-19.4 0h-23c-5.7 0-11.6-.2-17.3 0-4-.4-8 0-12.3 0-3.7-.7-8.2.3-12.2 0-4 0-8.3-.2-12.2.7-3.2 1-4.4.6-3 2.7.4 1.2 1 2.5 1 4.3-.7.8.4 2-1 3 .8 1.7.4 3.4 1.4 5-.4 2.2-1.6 3.8-.8 5.8-.2 1-.8 3.5.8 4-1.3 1.6-.4 3-1.4 5-2 2 1 5.7 3 7 1.5 1.8-2.7 2.2-.6 4-1.5 1.7-.5 3.5-1.2 5 2 .8 3.4 1.3 4.3 3 .8 1.5 2 2.8 2.4 4.8-.3 2 1.6 1.6 2 3.6 1.2 1.5 3 2.7 4 4.8 1.4 1.6.8 3.5 2 4.6-.4 2.6 4.8 1.6 4.6 5 2 1 3 3 5 4.7-.4 2.5 2.7 1.6 4.4 1.6 2.3-1 4.7.4 7.3.3 1.7 1 4.2-1.8 4 0 3.4 1 6.3-1.4 9.8 0 7.5.8 15.3.5 22.8.6 1.6-2.2 3.8 0 7 0 4.8-.2 9.5.4 14.2 0 3.4 0 6.8.5 8.5-1.3 3.6-.5-.4 2.2 4.7 1.2 2.4 0 5.6.6 7.5-.5 1-.6 3.4 1 5 .4 2.5.8 6-.6 8 .2l7.7-.2c3-.2 6.3.6 8.7-.2 2.2-.5 4.6.7 7 0 3-.2 5.6.2 8.7-.4 3-.4 5.4 1 8.3 0 4 0 8 .8 11.6.2 2 .7 4 0 5.5 0 2.2.7 4 0 6 .5-1.7-.6 4.5.5 6 .4 4.6 0 9.5-.2 13.7-.8 3.3.4 7 1.8 10.4.6 4.6 0 9-.4 13.8 0 3.6-.4 7-.4 10.7 0 4 .3 7.7-1 11.3.6 2.8 0 4.3-1.5 7.4-.4 3-.5 6.6.4 10-.3 3.5-.8 2.7-1 5 .2 1.6-.4 3.3-.8 6.7 0 3-.7 6.3.7 9.3-.3 2.5 2 4.8-1.5 6.8 0 2 .3 4-.3 6.8.2 2.7-.7 5.8.3 8.5-.3 2.5.3 6.6.5 8 0 3.3 0 6.8.3 9.6.3 2.6-.3 5.5-.4 8.5 0 3.5 0 6-.5 9.6.2 4.5.4 9.8-1.2 12 0 2.8-.6 6.4.7 9-.4 3.4 2 8 0 12 1 2.8 0 6.2-1 9 .2 2.4-.4 6.7.5 7.2-1.8 0-2 1.6-3.5-.4-5.4 1.7-.4 2.4-2.3 2.7-4-2-1-.5-2.8-1.2-3.5 3.8-1.6-2.2-2.8.6-3.8-.6-2.5 3-3.4 1-5.7 2.5-.8.5-4.5 2.5-5 2.7 0-2.6-3 2.7-2 2-.2 4.6.4 6.4-.5zM146.8 135c-2.6 2.6-6.5.5-9.7 1.2-3.3.8-8.8-.7-8 4.4-1.6 3-1.2 7.8-2.6 10.5-1.7 4-2.5 8.7-3.8 13 0 3.8-3.4 5.7-7 4.8-4.6-.2-2.4-6-3-8.6 1.3-3.6 2.5-7.7 4.4-11.3 1-4.5 4.6-12.8-3-9.8-3.4.8-7 1.3-10.6 1.5-3.3-3-1-9.5 3.5-10 5.4-1.3 11.4-1 17-2.2l11.5-.6c4.5 0 9.2-.7 13.2.5 2.2 2.4 1.7 5.7-2 6.5zm36.8-.3c-.5 3.2-1.8 6.3-3 9.3-.6 4.8-3.7 8.8-6.7 12.4-2 1.4-2.6 3.8-5.3 4-2 1.4-4.8 2.4-7.3 2.4-3.2.2-6 .4-8-2.3-4-2.7-2.5-7.8-2.5-12 .8-3.8 2.5-7.4 3.5-11 1.7-3.3 2-9 6.8-9.5 4.2.4 5 4.4 3.5 7.8-.6 3.8-2.7 7-3.5 11-1.2 1.8-1.8 8.8 2 5.6 3.5-1.2 5.5-4.6 7.5-7 1.4-4.6 4-8.7 4.3-13.5.2-3.3 2.8-5.8 6-5.6 3.3-.7 3.3 4.2 3.4 6.5.4 1-1 1-.8 1.7zm42.6 25.4c-1.8 3.5-5.2 3.3-8.5 3.4-3-.5-6-.4-8.4-2.6-2.6-.7-4.3-3-6.8-4.2-1.7-.4-4.7-5.5-5.3-2.2-1.4 3.3-2.5 6.7-3.3 10.3-2 2-6.6 3.4-8.8 1.7-1.6-2.6-1.3-7 0-9.2.8-4.5 2.5-8.3 4.2-12.3 1.8-3 3-6.3 5-9.3 1.5-3.5 0-9.6 4.5-11 4-1 4.8 4 8.3 2.2 4-1 8.8-1 12.5 1.6 3.2 2.6 4.2 9 1.4 12.7-1.6 3-4.8 4.7-6.4 7.6-5 .7-1.3 2.7.6 3.7 3.3 2.7 8 0 11.2 3 1.3 1 .6 3.4-.4 4.4zm53.7-25.8c-3 2.3-6.5 4.2-10 5.6-3.4.8-6.2 2.5-9.5 3.8-1.4 1-8.5 2-4.8 3.6 2.2 2.2 6.5 1.7 8.6 4 2.8-.2 5.3 1.7 6.8 3.2.8 2.2.8 5.4-.4 7.4-.4 2-4 1-5.7.8-2.8-1.4-5.5-1.8-7.7-4l-10.4-5c-2.4-3.8-4-1-5 2.4 0 3-2.2 6-2.8 8.8-4.6 6-10.5-2.4-8-7.6 1-4.8 3-9.2 4-14 2-4.2 2-10.3 4-14.5 6.2-4.3 10.5 2 8.4 7.8-1 4.7 8.4-2 11.3-2.4 1.4-.6 2.7-2.2 5-1.7 2-1.3 5.4-1 6.8-3.3 2.3-2.4 6-2 8.8 0 .7.8.7 4.3.3 5.2zm55 14.2c-2.4 2.7-6.7.2-9.4 2.6-4.2.6-7.6-.6-11.7.2-3.8-.6-7.2.2-11 .5-2.4 0-5 0-7.5.5 1.3 3 5.4 3.5 8.2 4.2 5 1 10.3-1 15.3-1.2 5.4-4 8 3.6 3.2 6.4-2.8 4-10 2.2-14.3 4.3-6-.2-12-.4-16.7-4-2.3-1.8-5.5-3.8-6-6.6 0-3 0-6 .5-9 1.5-2.4 3.8-5.2 5.3-8 2-3 5.3-6 8.2-8.5 5-4 11.8-3.8 17.7-5.2 4-1 7.4 2.8 5.5 6.7-2.8 5.2-10 3-14.5 5-1.6.4-7.6 4.5-5 4.8 3.4 0 6.6.4 10 .2 5 .2 10 1.2 15.2 1 3 1 11.5.3 7 6zm54.7-16.2c-1.2 4.8-5.5 8-7.8 12-1.8 2-2.7 3.8-4.5 5.2-1.7 3.7-5.2 6.2-8 9.2-1.4 2.5-3 4.6-4.5 6.8-1.8 2-3 4.7-5 7-2.6 1.7-8 .2-9-2.4.3-3.4.3-9.3 4.6-9.8 2.4-1.4 3-4 4.4-6.3 3.5-2.2.4-3.6-2-4.8-3.4-1-4.5-5.3-8.2-6.2-2.2-2.8-5.7-6.2-5-10.2-.5-3.3 3.2-6.3 6.2-5.5 3.5.8 2.6 5.8 5.2 7.7 2 3.2 6 5 8.7 6.8 2.4 2 5.7 1.7 7.3-1.3 1.5-2.5 3.8-4.4 5.6-7 1.6-2.3 3-6 6.2-7 3 0 5 3 5.5 5.7zM145.5 37.7c-1.8-2-2-9.2-5.4-7.5-3.4 4.2-6.7 12.6 2.5 9.2 1 0 4 0 3-1.7zm145 3.6c-1-5-5-9-10.4-7.7-4.3 1-5 6.4-6 10-.8 3.2-2.4 6.6-3.3 10-3.6 3.8-1.8 8.8 3.6 7 4-2.6 9.2-1.6 12.3-6 3.6-3 5.8-8.7 4-13.3zm218.8-7.6c2-.5-1.6-3.6-.7-5-1.5-.6-1-1-.7-3-2.7-.7-2.8-2.5-2.2-4-3-.3 2.6-4-1.5-6.2 1.4-1.8-2.4-2.8-.5-3.7-2 0-1.3-1.3-2.6-2.5 5-.3-.2-2.6 2.4-4 2.8-1-.7-3-.2-4-2.5-.7-5.6-1-8.2-.8-4.6-.3-9 .3-13.6.4-3-1.3-8.3.4-12 0-6.6-.2-13 0-19.3-.3-2 .5-4.7.5-7 .3-2-.8-5.8-.2-8.6-.3-4.3.3-9-.8-13 .3-3 0-6-1-8.5.4-3-.5-4.8.2-7.2-.6-6.4.4-12.4-.2-18.8.3-4.3 0-8 .3-12.4 0-2.5.5-5 0-7.7 0-5.6 0-12 .6-18 .4-6-.2-12 .2-18 .5-3.8-1-8 .5-11.8-.3-3 0-6.7-.3-10 .2-8-.2-15.8.8-23.8.4-5 .4-10.2-.3-15 .6-4 .2-7.5-.5-11.3-.3-2.8-.4-7.3.6-10.8.2-3.2-.2-6.7 0-10 0-5.8.3-11.7-.3-17.4.7-3 0-7 .4-9.3-.8-2 .8-5-.8-7.6.4-9.6.2-19.3 0-28.7.3h-11.5c-2.2 0-4.8-.2-7.3.2-4-.8-7.5 0-11.5-.3-4 0-8 1.3-11.7.2-3.5 0-7.3.5-10.8.2-3.7 1-7.5-.7-11.3 0-6 .5-12 .3-18 .5-8 0-16.3.2-24.5.4-3.4-.2-6.8.6-10.3 0-3.2.8-6.6-.2-9.7.2H38c-4 .2-8-.2-12 .3-3.7.4-8 0-12 .4-3.4.3-7 0-10.3.7C0 6-.7 9.2 3 9.7c1.5 1 3.7 2 2.8 3.5 2.2 1.2.8 3 1.2 4.8-.2 1.7.6 4 3 4-2 0-.7 2.7-.4 4.4-.5 2.3-5.3 2.6-1.4 4.4-2.7.6 1 3.4-1 5 1 1.5-1.8 2.2-.8 4C7 42 10 44 9.8 46.7c0 2-.2 3.5 1.8 4.6-1.4.4.5 2.8-.5 4 1.4 1.3.6 3.5 3 4.5-2.5 2.2-1.8 3.8-2.7 6.2.2 1.2-.6 3.4-1.2 4.2-1.4 2-1 2.5-2.2 4.8 3.6.3 1.7 1 1.8 2.6-1 2 3 2.8 1.3 5-.8 2.2-2.4 3-1.2 4.6 0 1.8-2 6 .2 5.7 2.3-.6 4.3-.3 6.8.2 4.5 0 9 0 13.5-.2 1.5 0 5 .4 7.3.2 5.5.3 11.3-.3 16.8 0 4-.5 8.8.2 13-.2 2.7-.5 5.5.2 8.3-.3 4.6.4 9 0 13.6.2 2.6-.3 5.2 0 8-.3 4.8 0 10-.2 14.7.3 4-.5 8.2 0 12-.5 2.8 0 5.7-.7 8.2-.2 3-.2 5.7.5 8.5 0 2.7-.4 5.3.6 8.4 0 2.5-.4 5 .6 7-.2 2-.6 4.7.4 6.3 0 2 .5 5 .6 7 0 2.5.7 4.3.5 7 .3 4 0 8.2-.2 12.4 0 4.7 0 9.7 0 14.4-.2 3.2.4 6.8-.3 9.5.2 4-.8 8.8.2 13-.5 3.3.6 6.6 0 9.7 0 4.4-1 9.3.4 13.5-.4 2.3.2 5.3-1.3 7.6-.3 2.4-.5 5 .2 7.6 0 2.8.2 6.2 0 9.4 0 3.5-.6 7.5.7 11-.3 3.4.5 6.4 0 9.8 0 3.4 0 6.6 0 10-.2 4-.4 8.7.3 13 0 3.2.2 6-.3 9 0 6.2-.2 12.6.4 19 0 3.5.4 7.5-.3 11-.2h11c4 0 7.8-.4 11.6 0 2.7-.3 5.3.4 7.8-.3 4.2-1 8.2.6 12.3-.4 3.7-.2 7 .6 10.6 0 4 .2 8 .2 12 0 2.8 0 6.2-.5 9-.2 4.5 0 8.6-.2 12.8 0 2-.5 3.8-.7 6.2-.2 3.4 0 6.6 0 10 .4 2.5 0 2.7-1 5.2-.7 2 0 3.7-.5 5.2.3 4-1 9 .6 12.6-1-1.6-2.4 3-2.4 3.5-3-.2-.3-2-2.6-1-3.7-.2-1.3-3-4.2-.6-5 2.5-1.3.2-4 .8-4.7-1.2-3 2-2.2 1.6-4 1-2 3-3.3 4.3-4.7 3.8-.8 1.7-6 5.4-5 2.5 0 5.7.3 4-1.3 2-3.4-3.6-3.4-1-5.8-.4-2.5 6-1 2.6-3.3 3-1 1-4 3.4-5 1.8-1 2.4-3 3.6-3.6-4-1.7-1.7-2.7.4-4.7 2-.4-1.4-.6 0-1zm-399.6-5c-4.8 1.2-9.8 1.7-15 1.2-5-1.4-10.6 1-10.3 6.4-.4 2.8-1.6 5-2 8-1.6 4.8-2.2 11-3.7 15.4-1.7 2.6-2.4 7.4-3 11.2-1 2-.3 6-3 7.6-2.3 2.6-9.4.7-9.3-3.7 0-5 1-10 2-14.7 1.3-4.4 2.3-8.6 4-12.8-.3-5.3 2-8.5 3.2-13.5 1.7-3.8-7.7.8-10.4.2-5 .8-9.4 3.7-14.2 4-3.2-1-5-5-3.6-7.8 1-4 6.2-4 9.5-5.4 3.6-2 7.5-3.3 11.8-3 4.3-.2 9-.5 12.8-2 1.4-3 5.8-3 8.5-1.5 1.2 1.3 3.5 1.3 6 1 5 1.4 10.6.8 15 3 4.3-.3 5.4 5 1.7 6.3zM161 46.3c-1.7 1.3-.7 4.7-3.3 4.4-1 5.4 0 11.3-1.7 16.5 0 2.5-2.5 7.6-6.2 7-3.3 0-3-3.5-4.3-6-1-5.3 1.2-11.2.3-16.8-3.5-1-7 1-10.8.6-3.8 0-6.2 1.8-7 5.7-2.6 3.7-3 8.7-5 12.5-2.2 1.2-6.7 2.5-8.6 1.4-4-2.5-2.5-8.3-1.3-12 .8-4.8-2.3-11 3-14.4 2.2-3 7.5-3 7.4-8.2 2.4-4.8 1.6-10.8 4.2-15.6 2.7-2 7.4.3 10-2.8 3.3-2 9-1 11.4 1.8 2.6 2.3 4.5 5.2 5.7 8.4 3 3.6.5 11.4 5 12.7 1.2 1.5 3.4 3.3 1.2 5zm83.5-25c-.4 4.2-2.7 7.8-3 11.8-1 1.5-1.8 3.5-3 5.5-3.2 4-4 8.4-7 12.5-.7 3-1.8 4.6-3.7 6.6-2.6 3.6-4.4 7-9.7 7.4-1 1.3-5 1.2-6-.7-2.2-1.8-3.5-4.5-4.4-6.2-1-2.6-3-6.5-3.8-10-1.2-4.2-4.6-8.2-6.3-11.4-2.5 1.8-2.5 11.4-4 16-1.5 5.5-2.2 11-4 16.6-4 3.4-13.7 2.4-11.6-4.7.6-5 2.5-10 3.5-15 1.8-4.5 1.4-9.4 3-13.6 1.2-4-4-7.6 1.4-10 1-4.4 6-4.5 9.5-4.7 3.8.7 7.3 3.4 10 6.3 3 3 4 7 6.6 10.4 2.5 4 2.7 9.6 5.8 12.8 2.2.3 3.2-6 5.3-8 1.2-3.4 4.4-5.5 5-9 2.3-3 3.3-6.7 3.8-10.4-.7-5.8 4.6-10.4 10.2-7.5 2.3.7 3.2 2.8 2.5 5.3zm58.2 21.5c-.3 3.5 0 7.4-1 10.5-.3 2-1.2 3.5-3 5.2-1 3.5-4 5.8-6.7 7.5-2.8 2.2-6.4 3.3-9.7 5-4 1.7-8.2 2.4-12.3 1.2-5-.4-7.5-2.7-11.3-4.3-3.5-1-4.2-5.5-3-8.6 1.5-4 2.6-7.7 4.5-11.5 2-4.4 3-9.4 4.7-13.7 2.4-4.7.6-13.3 6.3-15.5 4-1.7 5.4 2 7.8 3 4-1 8.4.3 11.8 1.4 2.7 1 4.8 3.5 7 5.5 1.7 3.8 4.6 7.2 4.4 11.6.6 1.2.4 2 .5 2.4zM380.2 25c-.4 4.8-5.6 8.3-10 5-5.4.2-11-.6-15.4 1.4-4.3-.4-10.3-1.2-13.2 2-.6 3-4.6 10.5 2 8 4 .7 8 0 12 1 6.2.6 12.5.4 18.6 1 10-2.8 4.3 10.3-2.5 7.3-5 1.6-9.8 2.2-15 1.8-4 .6-8.2.2-12.2.2-5.2-1.4-9 .5-9.2 6-3 3 1.3 4 4 3.4 4 0 7.5-.7 11.2-1 4-.3 8.8-1 13.2-1 3.3.3 8.2 5 2.7 7.2-3.7.2-6 4-9.5 3.7-4 0-7.8 0-11 2-4.6 0-9.2 1-13.7 1.6-4.8 0-10.6 1.8-13-3.8-.6-4.8 2.5-9 2.7-13.7 3-2.2 2.5-7 1.3-10.8 2.4-3.7 6.3-7.3 6-12.5 1.2-3.3 1.3-7.3 3.6-10.4 3-4.3 9-3 13.4-3.7 8.2-.6 16.5-1.2 24.5-3 3.7 0 8.2 1.3 9 5.7l.2 1.2V25zm83.8 8.4c.2 5.8-1 11.6-1 17.6-2 5-.4 10-2.8 14.6.3 4.8-5 6.6-9 5.2-4.7-3.7-2.8-9.7-1.7-14.6 0-3.8 2.2-7.4 1.4-11.4 1.4-5.6 2-11.7-2.3-4.8-2.3 4-6 7.6-8.3 11.7-2.6 2.5-4.8 6-7.5 8-2 1.7-3 4.2-5 5.4-3.2 2.6-8.8 4-12.3 1.2-1.3-3.4-2-7-2-10.7-1-4.3-1.7-8.6-1.4-13-1.5-2.7-.2-6.6-1.8-9-2 3.3-5 6.2-6.7 9.7-1.8 3.2-3 7.3-4.5 10.6-1.6 4 0 12-5.3 13-3.2 1-8.5 1-9-3-.8-6.2 1.4-12.3 3.4-17.6 0-3.6 3-6.8 3-10.7 1.3-4.8 2.4-10.3 7-13.2 4.2-1.7 7 4.7 8.7-1.6 2.6-3.8 9.3-3.6 12 .5 2 4 2.8 9.2 3.6 13.8-.3 5.8 2.2 11.2 2.3 17 2-1.7 3.3-4.3 5.4-6.2 2.3-2 3.7-4.8 6.2-6.6 2.5-3.6 4.7-7.3 8-10.4 3-2.8 5-7.2 6.3-10.7 2.5-2 5-4.8 8.4-2 2.8 2.5 3.6 4.8 4 8 .2 3.3 1 6 .6 9.4z" clip-rule="evenodd"/>
  </g>
</svg>
