<svg xmlns="http://www.w3.org/2000/svg" id="Tandem_Fryslan" xmlns:i="&amp;ns_ai;" viewBox="0 0 510.2 187.5">
  <style id="style3">
    .logo--default{fill-rule:evenodd;clip-rule:evenodd;fill:#f4c522;}
  </style>
  <g class="logo logo--default" id="g7" fill="#f4c522" i:extraneous="self">
    <path id="Fryslan" d="M459.3 109.6c-2.4-2-7-3-11.7-3-7 .2-14.2-.5-21.2-.2-12 .3-24 0-36 0H355l-13.4-.2c-5 .4-10.3-.4-15 0-4.8.2-9.6-.5-14.4 0-5.5 0-11-.4-16.4.2-5.4-.6-10.8.4-16-.2-4.5.4-9.2-.2-13.8 0-5 .3-10.3.2-15.4.2-4.8.2-9.7-.4-14.4 0-5-.2-10.8 0-16-.2-6-.2-12 .3-18 0-6.4.3-13 0-19.6 0-5.3 0-10.4-.4-15.5.2-5.6-.6-10.6 0-16.3 0-3.4-.3-6-.4-9-.2-2.6-1-5 .5-8 0-3.5.4-8.5-1-10 0l-9.7-.2c-3.5 0-8.3.4-12.3.3-6-.3-12 0-18-.3-4 .2-8 0-11.7 0-4.7.6-9.5 0-14.2.8-3.5 0-7 .7-10.3.4-1 1.3-1.5 4.5.6 6.6.3 3 7.6 1.8 6.2 6 1.2.8-1.2 2 .2 2 3.3.7.2 3 0 5-3 .2 3.5 3.8 0 4.6 1.2 2.3 1.5 2.4 3.6 5.5-.4 2.4-.5 3.4-4 2.8 5.6 2.3-5.3 2.8 0 6.6.7 1.2-2.7 5.2-4.8 6-1.4 2 1.6 1.4-1.5 3-.7 1.6 5 2.4 2.3 4-.8 1.6-2.6 3.8-1.8 5.2 2 0 .7 2.4.3 3.4-2.5 2.6-.8 4.2-.3 6.8 0 3.8-2.6 5-1 7.7-.7 4 5 4 8.8 3.3 7 .2 14.5.3 21.6 0 2.5 1.3 5.2-.2 8 0 6.3 0 12.6 0 19 .2 3.7 0 7-.3 11 0 5-.4 10.7 0 16-.2 4 .4 8 .2 12 0 6 .2 11.7.3 17.5 0 4.7.3 9.5-.2 14 .2 4.5-.6 9 0 13.6-.2 9.2.2 18.3.2 27.6.2 9 0 18 0 26.7-.3 4.7.6 10-.3 15 0 5.2.3 10.6 0 15.6.4 5.2-.4 10.3.2 15.6 0 3.8 0 8 0 11.2.2 5.2-.8 10.6 0 16-.4 5.4.6 10.8-.2 16.4 0H364c3.4.4 7.6.4 11.3.5 6-1.3 12.6 0 18.7-.6 6.6.2 13 0 19.4 0 5.2 0 11-.2 16.4 0 5 0 9.8-.2 14.7 0 3-.6 12.5 1.6 10.7-2-2-2.6-1.4-5.6-2.4-8.4-.7-2-.3-5 1-5-1.2-2-.8-3.8-3-5.3-.6-1.7-2-5-3.6-6.4-2-1.6 3-3.7.3-6.3.3-2.3 3.7-3 2.4-6-.8-.8-2.4-2.6-.5-3.5-.6-1.5 0-3.3-.3-5.3-2.2-3 0-3-.8-6 1.3-2.3 0-5.5 3-6.7 2.4 1.8 3.2-1.5 3.6-2.8 1.6 1-.8-1.7.7-2.2-2.4-1.4-1.7-3.8-1-5 .5-2.4 1.8-3.4 3.8-4.6 1 .8 3.2.8.8-.6zm-315 38.8c-4.6 3.7-10.4 2.3-16 3.3-3.7.8-8 .5-11.7-1-1 2-2 7-2.3 10.5 1.5 4-2.5 5.2-5.6 5-5.6.6-2.7-6.3-2.6-9.7 2-5.8 2-13 4.4-18.3 0-3.6-4-5.6-2.5-9.7 2.8-2.7 7-1.3 10-1.3 3.6.5 7.3 0 10.8-.4 3.4-.6 7.3-.7 10.7 0 2.2 1 3.2 3.3 2.7 5.8-.2 2.8-3.6 2-6 1.7-4 1-8.5-.3-12.2 1.4-4.4-1-6.7 1-6.5 5 4 4.2 12.7 1.7 18.5 2 4.6-1.4 12.6-1.4 8.3 5.7zM188 160c0 2.2-.3 5.2-3.5 4.3-4-.3-7-3-9.6-5.8-3-3.5-6.6-6.8-11.6-6-5-.6-4.8 7-6.2 10.7 0 4-6 5-8.6 2.7 0-3.8 0-7.6 1-11 .8-3 0-5.7 1.4-8.3.8-3.8 2-7.5 5-10.2 1.5-1.7 2.5-4.3 5.4-3.8 2.8-.7 5-3 8-4 3.3-1.7 8.4-2.3 11.7-1.2 2 2 5 5 4.4 8.2 0 3 0 6.7-2.7 8.5-1.5 2.6-7 4.2-2.5 6.3 1.8 1.5 3 4.5 5.6 5 2 .7 4.3 1.7 2.3 4.6zm37.7-27.6c-.8 4.7-2 9.3-4.2 13.3-1 4.3-3.2 8.2-5.5 12-1.8 1.7-1.5 6.3-4.4 6.8-5 1.7-9.4-3.8-5-8.2 1.2-2.5 3-4.8.8-6.8-3.3-2.8-6-6.8-8-11-1.2-3.2-2.2-9.3 2.3-10.5 3.3 0 4.7 3.5 5.7 6 .8 1.7 1 4 2.6 5.3 1.4 1.2 2.4 4.5 3.8 3 1.4-4.2 4-8 3.7-12.8 1.3-2.5 5.4-4 6.8-.7 1 .3.8 2.5 1.4 3.6zm45 3.3c-3 5.6-8.6 0-13 0-3.3-.4-6.5-1-10 0-6 0-6.7 5.8 0 5.3 3.8 1.5 8.7 2 12.2 3.8 2.2 1 4 2.5 5.2 4.6 1 3.8.2 9-3 11.2-3.3 2-6 3.2-9.8 4.2-3.7.7-8.5-.6-12.5-1.7-3.8 0-7-7.4-2-8 5.4 0 11.8 4 16.5.2 6.7-2.8-3-4.7-6-5.5-3-2-7.8-.8-10.4-3.4-1-1.5-3-2.8-3-5.3-.5-2.6 0-5 .5-7.6 1.6-1.7 3.8-3 6-3.7 1.4-1 4.4-.2 6.3-1 3 0 6-.4 9-.2 3.3-.4 6 1.5 9 1.4 1.7 1.8 5.4 1.7 5 5.7zm36.6 25.6c-2.5 4.4-7.6 1-11.3 2.5-3.5 1.4-6.4 2-10.2 1.8-3.7 1-10.4.2-11.2-3.7.7-4.7 3-9.4 4.3-13.4 1.2-4 3-7.7 3.2-12 1.3-2.8 7-3.5 7.8.2 1 4.3-1.4 8.4-2.3 12.5-.5 3.2-5.3 9 .6 8 4 .3 8-2.2 12-1.5 3 .2 10 .7 7 5.5zM325 127c0-3 3-4 3.8-6.4 1.5-3.4 4-6.3 8-5.2 2.7-.3 4 2.7 6.8 2 1.6 1.4 3.7 2.5 5 4.3 3.4 2.7 1 10-3.8 9-3.4-.5-7-8.2-9.8-3.7-1.3 3-4.3 7.4-8 5-1.8-1-2.8-3-2-5zm28.5 24.7c-.8 4.8-8.7-.5-5.8 6 .7 2.7 1.5 7.8-2 8.7-2.3.4-5.4 0-6-2.8-1.2-2.4.4-11.2-3.8-7.6-4 .3-9.7 1.5-10 6.5-1.2 2 .2 5-1.5 6.6-5 2.3-10.7-.3-7.3-6.5.5-3 1.6-6 2.2-9 1.3-2.6 1.4-5.5 3-8 2.2-3 1-8.3 5.8-9.2 2.3-2.3 5.5-3.8 9-4.2 4.3-.4 5.6 3.6 7 6.8 2 2.3 0 8.8 3.7 8.6 3-.2 6.3.5 5.5 4.3zm48.2-15.2c-.8 4-2 8-3.6 11.7-.8 3-1.5 5.6-1.4 8.6-.5 2.3-2 4.2-1.8 6.5-2.8 1.5-8 5-9.5.4-3-3.2-3.7-8.4-7.2-11.3-1.2-4.8-5.4-8.2-5.5-.8-2.8 4.8 3.6 16-4.3 16.5-4.7 2.7-6-3-5.2-6.8-.2-4.6 1.7-8.7 1.8-13.3 1.5-4.4 2.5-9.2 3.2-13.7 5-3.8 6.5 3.8 11 4 2 2 3.7 4 5.2 6.3 1.3 3.2 2.8 5.5 4.8 8 1-2.8 2.2-5.7 2.3-9 1-2.6 2-5.4 1.4-8.2.5-2.5 2.3-4.7 5-5 3.7 0 5.7 2.5 4 6zm-64.3 9c2.5 2.8-8 4.2-7 2 .2-2.7 6-9.8 6.6-4v.3l.4 1.6zM177.2 136c0 4-4.2 6.4-7.6 7.2-3.2.5-8.5 0-4-4 3.2-1 5-3 8.4-3.3 1.5.2 2.3 0 3.2.2z"/>
    <path id="Tandem_Europe_1_" fill-rule="evenodd" d="M145.4 37.7c-2-2-2-9.5-5.6-7.4-2.8 4-7 12 1.8 9.2 1.2-.3 5 .3 3.8-1.8zm145 3.6c-1-4.8-5-9-10.3-7.7-4.3 1-5 6.5-6.2 10-.6 3.3-2.3 6.7-3 10-3.7 4-1.7 9 3.6 7 4-2.4 9.4-2.2 12.4-6.3 3.2-3 6-8.7 3.6-13zm218.8-7.6c2-.5-1.6-3.6-.7-5-1.5-.6-1-1-.7-3-2.6-.6-2.6-2.4-2.2-3.7-2.7-.7 2.5-3.8-1.2-6.3.7-1.7-1.8-3-1.2-3.7 0-1-2-.5-1.8-2.6 1.2-.2 3.2-1.7.8-3.2 2.3-1 2.8-2 1.4-4-.3-2-4.4-1.2-7-2-3.4.5-7.2 0-10.7.6-5 0-9-.6-14 .2-7 0-13.7-.2-20.5 0-2.3-.3-4.6 0-7 .2-2.2-1-5-.5-7.8-.6-4.8.8-10-1-14.6.4-3 0-5.8-1-8.3.4-3-.5-4.8.2-7.2-.6-7.8.4-15.4-.2-23.3.3-3.3.5-7-.3-10.3.4-2.7-.5-5.8 0-8.5-.3-6.4.8-13.2.4-19.8.5-4.8-.6-10.2.7-15 0-3.6.3-7.8.4-11.3.3-3-.2-6.7 0-10 0-7.7.2-15.3 1-23 .6-5.2.3-10.4-.3-15.4.6-3.7 0-7.2-.4-10.8-.3-3-.4-7.4.6-11 .2h-12c-4.7.2-9.5 0-14 .5-3.5.3-7.8.5-10.5-.5-1.6.8-4.6-.6-6.7.2-7.6.7-15.4 0-23 .4h-18.2c-2.4 0-5.3.3-8 0-3.8 0-7.3 0-11.3.3-4-.3-8 1-11.8 0-3 0-6 .7-9.3 0-3.3 1-7 0-10.4 0-5.6.3-11 .8-16.6.5-6.7.6-13.6 0-20.5.4C71.6 5 67 4.3 63 5c-3.6-.2-7 .7-10.7 0-4.7.2-10 0-14.5.2-3.5.3-7.3-.3-11 .3-4 .3-8.4 0-12.7.4-3.3.3-6.7 0-10 .6-3.4-.5-5.7 2-2 3.2 2.2.6 4 1.8 3.7 3.3 1.3 1.2 1.2 3 1 4.5 0 2 .4 4.2 2.8 4.5-1-.3-1 2.5-.2 4-1.3 2.6-3.6 3.6-2.2 5-.8 1.3 1.3 3.2-.2 4.7 1 1.6-1.8 2.3-.8 4C7 42 9.8 44 9.8 46.5c0 2-.3 3.8 1.8 5-1.4.3.5 2.6-.5 3.7 1.4 1.5.6 3.6 3 4.6-2.4 2.4-2 4-2.7 6.4 0 1.3-.3 3.5-1.4 4.3C9 72.3 8 73.3 8 75.3c4 .3 0 1.3 1.8 3-1.7 1.7 3 2.6 1 5-1.5 2-2 2-1.2 4-1 1.4-.5 4.4-.6 5.2 2 .3 4-1 6.2 0 5 .3 10 0 15 0 1.4 0 5 .4 7.2.2 5.5.3 11.3-.3 16.8 0 4.3-.3 9 0 13.5 0 2.8-1 5.7 0 8.7-.4H90c2.4 0 5.3.2 8 0 5.6-.5 11 .3 16.6 0 3.6 0 7 0 10.4-.3 2.7 0 5.3-.8 7.8-.2 3.2-.2 6.2.2 9.2 0 2.3-.3 5.4.3 8.2 0 2-.6 4.4.8 6.3-.6 2 .5 4.5 0 6.2.2 2.4.6 5.2 0 7.6.3 2.6.2 5 0 7.8-.3 3.5.7 7.2-.3 10.8.2 4.7 0 9.8 0 14.5-.2 3 .3 6.7-.5 9.4 0 4-.7 8.8.3 13-.4 3.3.6 6.6 0 9.7 0 4.4-1 9.3.4 13.5-.4 3 .2 7.3 0 10.5 0 2.2 0 4.8.3 7.3.2 3 .3 6.3 0 9.8 0 3.6-.7 7.8.8 11.5-.2 3.5.5 6.4 0 10 0 3.2 0 6.3 0 9.5-.2 3.5-.5 7 .5 10.8 0 4 .5 8-.4 11.5 0 6.3-.2 12.7.4 19 0 3.6.4 7.6-.3 11.2-.2h11c3.6 0 7.4-.5 11 0 2.8 0 5-.3 7.6 0 4-1.7 8.4.5 12.6-.7 3.4-.2 6.6.4 9.7.2 4.2-.5 8.5.4 12.7-.3 3.2 0 6.5-.4 9.7 0 4.6-.2 8.7-.3 13-.2 2-.8 4 0 6.5-.2 3.2.3 6.3 0 9.7.5 2.3 0 2.6-1 5.3-.8 2.7-.2 4 .5 6.7.2 3-.6 9 1 10.4-1.2-1.2-2.5 5.7-2 3-2.8 1-1-2-2.6-.5-4.5-1.6-1-2-4.3.5-5 1-1.8-.5-2.8-.3-4 0-3 1.6-1.6 2.2-4 1.5-2.3 3-4 5.7-5.5 2.5-2.2-.5-4.7.8-5.3 0-4-4-3-1.2-6.6 1.8-.7 4-.6 2.6-2.5 2.6-1 .5-4 3.2-5 1.5-.7 3.3-2.6 3-3.4-4-1.3-.5-3 1.5-4.4-3-2 1.6 0 2.5-1zm-399.6-5c-4.8 1.2-9.8 1.7-15 1.2-5-1.4-10.6 1-10.2 6.4-.4 2.3-1.2 4.3-2 6.7-1.3 5.4-2 11.8-3.7 16.4-1.5 2.6-2.4 7.2-3 11-1 2-.4 5.8-2.6 7.7-2.3 3-9.5 1.4-9.7-3 0-5 1-10 2.2-14.7 1.2-4.3 2.2-8.6 4-12.8 0-5 1-8 3-12.4 2.8-5.7-7 0-10.3-.8-5 .8-9.4 3.7-14.2 4-3.3-.8-5-5-3.6-7.8.6-4 5.6-3.4 8.4-5.3 3.8-.8 7.2-3.4 11.4-3 4.7-.3 10-.4 14.3-2 1.4-3 5.8-3 8.5-1.6 1.2 1.4 3.5 1.4 6 1 5 1.5 10.6 1 15 3 4.2-.3 5.5 5.2 1.7 6.4zM161 46.3c-1 2.5-2.2 4-3.4 5.5-1 5-.2 11-1.6 15.8-.6 2.2-2.7 7.2-6.4 6.4-3 0-3-2.5-3.8-4.8-2.3-5.5 1-12-.2-18-3.5-1-7 1-10.8.7-3.3 0-6.2 1-6.6 5-2.3 3.5-3.3 7.8-4.7 11.8-1 3-6.5 3.4-8.8 3-3.6-1.2-3.7-7-2.3-10.3 2.7-5.2-2.7-10.7 2.4-15.2 1.8-3.3 5.8-3 7.5-6.6 2.2-5 3-10.5 4-16 1-4.5 6.2-2.6 9.4-4 2.7-3 7.8-2.3 11-1 3 1.3 4.5 5.3 6.7 7.3 2 4.7 3.3 9.6 4 14.8 2 .2 5.7 3.3 3.5 5.4zm83.5-25c-.4 4.2-2.7 7.8-3 11.8-1 1.5-1.8 3.5-3 5.5-3.2 4-4 8.5-7 12.6-.8 3-1.8 4.6-3.7 6.6-2.6 3.6-4.4 7-9.7 7.4-1 1.3-5 1.2-6-.7-1.8-2-4-4-4-6.3-1.6-1.7-3-5.8-3.7-8.7-1.3-4.6-4.4-9.3-6.8-12.7-2 .6-2.7 10.8-3.7 15-1.8 5.6-2.5 11.4-4.2 17.2-3.8 3.2-13.2 3-12-4 1-4.8 2.2-9.6 3.6-14.5 1.6-4 1.2-9 3-12.6 2.7-4.7-4.4-9 1.6-11.7 1-4.6 6-4.5 9.6-4.7 3.8.7 7.3 3.4 10 6.3 3 2.8 4 6.7 6.3 9.8 2.5 4 3 9.7 6 13.4 2 .6 3.2-5.3 4.7-7.5 1.7-3 4.3-5.5 5.5-9 1.6-2.6 2.7-5.6 3.6-8.6.3-4.2.5-10.5 6-10.7 4.3 0 8.6 2 7 6.3zm58 21.5c0 3.7 0 7.5-1 10.8-.3 1.8-1.3 3.3-3 5-1 4-4.3 5.6-7.2 7.8-2.4 1.8-5.6 3-8.5 4.3-3.7 1.6-8 3-12 1.6-5-.5-8.4-2.2-12-4.4-3-.4-4.5-4-3.7-6.6 1-4 2.3-7.7 4-11.4 1.2-4.3 3.6-8 4.2-12.5 2.5-5.5 2.8-12 5.4-17.8 2-1.4 6.2-2.2 7.7 0 2.3 4 8.8.5 12.8 3 2.5.2 4.5 2.5 6.4 4 2.7 2.6 4 6.2 5.8 9.5 0 2.3.7 4.5 1.4 6.7zM380.2 25c-.2 5-5.5 8.4-9.8 5.2-5.5 0-11.2-.7-15.5 1.3-4 0-10.4-1.6-12.8 2-1 1.6-5 9.8 0 8 4.4.6 9 0 13 1 6 1 12 .2 18 1.3 5.4-2.6 10.2 3.4 4 6.4L362.4 53c-5.5 0-10.4 0-15.6.4-3.2-.4-7.6-1.3-10.7.4.6 2.8-4 7.2-1.4 8.3 3.2 1 7 .3 10.3 0 4.6-1.2 9-.5 13.7-1.5 3.5-.4 6.6 0 9.4 2.5 1.3 5.6-6.7 5-9.7 7.7-1.2 1.2-4.6.4-6.6.8-3.4.3-6.4 2.2-9.8 2-5.8 1-12.3 1.6-18 1.6-5.2-.7-6.2-6.4-4-10.3 1.5-3 .8-7.2 3-9 3.5-4-3.4-10 2.7-12.8 2.7-3.3 3-8.3 3.8-12 1-4.4 3-10.2 8.3-10.5 11-1 22-1.2 32.7-3.7 3.8 0 8.3 1.4 9 5.7l.4 1V25zm84 8.4c0 5.7-1 11.5-1.2 17.5-1.8 4.8-.3 10-2.7 14.5.4 4.8-5 6.7-9 5.2-4.7-3.7-2.8-9.7-1.7-14.6 0-3.7 2.2-7.3 1.4-11.3.6-4 3-11.8-1.5-6-2.4 3.8-5.4 7.8-8.5 11.3-2 3.5-5 6.4-7.6 9.2-1.8 1.4-3 4-4.6 5.4-3.3 2.4-8.4 4-12.2 2-2-2.4-2.2-6.3-2.6-9.4-.2-4.6-2-9-1.3-13.7-1.2-3-.5-6.5-1.6-9.5-1.3 0-4.3 5-5.8 7-2.4 3.3-3.5 7.2-5 11-2.6 4-.6 11-4.8 14.6-3.5.8-7 1.4-9.7-1-2-5.5 0-12 2-17.2.5-3.6 2-6.4 3.2-10.2 1.4-5.4 2-11.4 6.4-15.4 5-3 8 4.2 10.5-2.6 2.5-3.8 9-2.6 11.7 1 2 6 3.5 12.4 3.4 18.8 2 4 .8 16.4 5.3 8.3l5.8-6c2.4-3.8 6-6.7 8-10.7 3.4-3.3 6.8-7 8.3-11.7.7-2.4 3.8-5 6.3-5.3 3 1 6 3.4 6 6.4 1.5 3 1.4 8.7 1.6 12.4z" clip-rule="evenodd"/>
  </g>
</svg>
