<svg xmlns="http://www.w3.org/2000/svg" viewBox="0 0 637.95752 234.89626"><defs><clipPath id="a"><path d="M0 188h510.4V0H0v188z"/></clipPath></defs><g clip-path="url(#a)" transform="matrix(1.25 0 0 -1.25 0 234.9)"><path d="M464.2 159v.8c-.6 1-.6 3-.7 4.5a33.3 33.3 0 0 1 0 1.5v1h-.6v.2c0 .3 0 .5-.2.7v1h-.6c0 .3-.2.7-.5 1-.2 1-1 1.7-1.5 2l-.6.5-1.4.8h-.6a3 3 0 0 1-2.4.3l-.8-.2v-.4a1.8 1.8 0 0 1-.7-.6l-1.2-1-1.4-1-.5-.3v-.8c.2-.3 0-.4 0-.8-.4-.4-.8-1-.7-2l-.4-.4c-.4-.5-.8-1-1-2-.6-.6-1-1.3-1.4-2-.4-.7-.6-1-1-1.3h-.5l-.2-.5a12.6 12.6 0 0 0-3-3.3l-.4-.3v-.5c0-.8-.5-1-1-1.7-.7-.5-1.5-1.2-1.8-2.2l-.3-.4c-.4-.2-.8-.5-1-1-.8-.5-1-1.3-1.2-1.8-1.2-.3-1.7-1.3-2-2a1.8 1.8 0 0 1-.7-1 2.6 2.6 0 0 1-.5-.8c-.5-.2-.7-.6-.8-1h-.4l-.3-.3-.5-.5a2 2 0 0 1-.3-.6h-.3l-.4-.4-.5-.5a1.2 1.2 0 0 1-.2-.6 2 2 0 0 1-.6-.3v-.2l-.5-.4-.4-.4a2 2 0 0 1-.4-.6h-.3l-.4-.4-.4-1c-.7-.2-1-.6-1.2-1l-.2-.2a1.5 1.5 0 0 1-.6-.2c0 3.5-.8 6.5-1.5 9.3l-.6 2.5-.4 6.3v.2a23.2 23.2 0 0 1-.6 2c-.3 1-.7 2.2-.7 3.6v.4l-1 3-.8 2.8-.2.5-.4.2a5.8 5.8 0 0 0-2.3 2l-.2.2-.4.2s-.4 0-.6.2c-1 .4-2 .8-3.7.6-1 0-1.7-.5-2-.8l-.6-.4-.8-.2v-.5l-.6-.5c-.5-.3-.8-.7-1-1a1.7 1.7 0 0 1-.7-1.3c-.5-.3-.7-.8-1-1.2a3.5 3.5 0 0 0-.4-.8c-1 1.3-2.3 2.7-5 2.6-2-.2-3-1.3-3.6-2.3a2.4 2.4 0 0 1-1.2-1.7 2.4 2.4 0 0 1-1-1.5c-.3-.4-.4-1-.5-1.2v-.2l-.3-.2v-.3-.3c-.3-.4-.6-1-.5-1.8-.5-1-1-2.4-1.2-4v-.2c0-.7 0-1-.3-1.7-.2-.6-.5-1.2-.5-2 0-.4-.3-.7-.5-1-.3-.6-.8-1.4-.8-2.6-.2-.3-.4-.7-.4-1.2h-.4v-1a8.2 8.2 0 0 1 0-.8v-.2h-.5v-1c0-.5-.2-1-.4-1.4-.3-.7-.6-1.5-.5-2.6l-.4-1v-.2c-.8-.5-1.2-1.5-1.2-2.7-.4-2-.4-4-.4-6.2V123l1-1.3c.3-.4.7-.7 1.2-.8.5-.3 1-.2 1.6 0v-.5h1c1.7-.2 2.8 0 3.8.4.5 0 1 0 1.5.2h.6l.5.8c1 1.7 2.2 3.6 2.2 6.3 0 1.2.3 2.2.6 3.2.2 1 .5 2.3.6 3.7 0 .2.3.4.4.6h.4v1h.2c.3.3.6.7.8 1.3v.4c0 .5 0 .8.3 1.3.2.5.5 1.2.5 2a3.6 3.6 0 0 1 1.3 1.8V144c.3.2 1 .7 1 1.5 0 .3.3.6.7.7l.6 1.4c.2 0 .6.4.8 1 .8.4 1 1 1.4 1.7.3.7.5 1 .7 1l1 1c0 .2.8.6.8 1.5.2 0 .3.3.4.4l.3-.4v-.2-.8a2.5 2.5 0 0 1 .5-1l.3-4.6c0-.8.2-1.3.4-1.6.2-.4.3-.6.2-1V144c.2-.7 0-1 0-1.7-.2-.5-.4-1.2-.3-2 0-.8.4-1.3.6-1.6.2-.5.3-.7.2-1.2v-.3-.7c0-1 0-2.2.6-3v-1.5a26.4 26.4 0 0 1 .2-1.7v-1-1.4l.7-1.5c0-.7.3-1.3.5-1.6 0-1 .2-1.8.5-2.4a5.5 5.5 0 0 0 .2-1l1-.8c.5 0 1-.2 1.3-.3.6-.3 1.3-.6 2.3-.6h1.4l.3.2c1.2.6 2.3 1.2 4.2 1l1 .6 1 1s.3 0 .5.2l.4.2v.6l.4.2.5.3v.6l1 1 .2.2 1 1 .5 1h.5v.6c.2 0 .3 0 .4.3 1.4.3 2 1.3 2.2 2v.3a3.3 3.3 0 0 0 1.5 1.5l.6.3v.7l.2.2c.3.2.8.6 1 1.3 1 .4 1.4 1.4 1.5 2a7 7 0 0 0 0 .3c.7.4 1.7 1 1.8 2.2a5.4 5.4 0 0 1 1.5 1.8c1 .4 1.2 1.3 1.4 1.8v.4a5.5 5.5 0 0 1 2 2c.6.4.8 1.2 1 1.6v.2h.3l.2.6a3.2 3.2 0 0 0 1.3 1.5l.6.4v.7l.2.6c.5 0 .8.4 1 .6 0-2.2-.3-4-.7-6l-.5-3v-3.3c-.3-1-.6-2-.7-3v-.3c0-.6 0-.8-.2-1.2-.2-.5-.6-1.2-.5-2.3.2-1.8-.2-3-.6-4.3l-.3-.6c.2-1 0-1.6-.3-2.3-.2-.8-.6-1.8-.4-3.3v-.3c.8-1.5 1.5-3 2.4-4.3l.4-.6H452l1.5-.3h1c1 0 1.7.3 2.2.5.4.2.6.3 1 .3l1.2 1s.3 0 .5.3c.5.5.4 1 .3 1.6v.2c.2.5.4 1 .5 1.8.4.5.4 1 .4 1.4l.3 1.2c.4.3 1.3 1 1 2.4-.4 3.5 0 6.2 1 9.4v.4c-.3 1.2-.2 2 0 3 0 1 .2 2 0 3.2.6.6.5 1.5.5 2 .2.3.6 1 .3 1.8v2c.2.2.3.6.4 1.2 0 .8-.3 1.3-.5 1.6v.5c.2.4.5 1 .3 2-.2 2-.2 3.5.2 4.4m-84.4 6.3c-.2.4-.3.5-.3 1l-.7 1.2a2.2 2.2 0 0 1-.5.6c0 .3-.2.5-.3.6l-1.3 1.3-1 .2c-.4.3-1.3.8-2.7.5a2.3 2.3 0 0 0-.5 0h-.8c-.6.3-1.5.5-2.6.3h-.2c-1.4-1-3.6-1-5.8-1.3l-4.6-.7-21-1.7a2.3 2.3 0 0 1-1-.3c-.7 0-1.2-.4-1.4-.6h-.3l-1.2-1a1.3 1.3 0 0 0-.8-.8l-.6-1.3c-.3-.3-1-.8-1-1.7-.4-.6-.6-1.3-.7-2.2l-.4-1.4-.4-.8-.3-.5.2-.5v-.5c-.2-.3-.4-.6-.5-1.2-.3-.3-.5-.8-.4-1.5-.2-.2-.6-.8-.4-1.8-.3-.5-.7-1-.4-2 0-.2 0-.3-.2-.5-.3-.4-.7-1-.6-2 0-.2-.3-.3-.6-.6-.3 0-.7-.5-1-1a2.3 2.3 0 0 1-1.4-1.2c-.4-.2-.7-.6-.8-1.3h-.3l-.2-1c-.2-1.7.3-2.8.7-3.7.4-.8.7-1.4.6-2.5 0-.2 0-.4-.2-.6-.3-.5-.6-1-.6-2a2.2 2.2 0 0 1-.4-.7h-.5v-.2h-.2v-1l-.2-.2h-.3v-1c-.2-2-1-3.7-1.6-5.5l-.3-.3v-.3c0-.3 0-.4-.2-.7-.3-.5-.7-1.2-.6-2.4 0-.8 0-1.3-.2-2a7.2 7.2 0 0 1-.2-1.2l.8-1c0-.3.2-.5.5-.7 0-.4.5-.7.8-1 .5-1 1.7-1 2.2-1.2h.6l.3-.4h.5l1.6.3c2.2.2 3.4.3 5.6 0h.3l.2.2c1.2.5 3.2.6 5 .6 1 0 2 0 2.8.2 1 0 1.5.3 1.8.5l.2.2h3.2l.4.2c.7.4 1.8.7 3 1 .6 0 1.3.3 2 .5l7.6.4v.4h.8l.4.3.8.3c.4 0 1 .3 1.3.6.8.2 1.2.8 1.4 1.2v.3c1.4 0 2.7 0 3.6 1h.2c.6.3 2 1 1.6 3 0 1.8-1.4 2.3-2 2.5-.3 0-.5 0-.6.2l-.4.2h-.4l-.8.2h-.4a3 3 0 0 1-.4 0h-.2v.6h-1.3c-3-.2-5.8-.3-8-1h-1c-.7.3-1.4.5-2.4.3h-.4l-.2-.2c-.2-.2-1.3-.3-2-.3a14.5 14.5 0 0 1-.5 0c-1.2.2-2-.2-2.4-.4l-1-.2-8-.4c-.3.3-.7.5-1.4.5a4.5 4.5 0 0 1-.8-.2V127l.3 1.4c.4.3 1 .7 1 1.6.3.3.4.6.4 1V131.7c.3.3.5.7.5 1.5 0 1 .2 1.4.4 1.5.4 0 .8.3 1 .4.7 0 1.2.3 2 .2h.2c.5 0 .8 0 1.3-.2.6-.2 1.5-.4 2.6 0h2.3v-.3h.7c1.4-.4 2.2 0 3 .2l1 .2h.2l.8-.2c.4-.3 1-.7 2-.7.2 0 .5 0 .8.2h.2c1 .4 2.4.7 4 .7 1.3 0 2.6 0 3.7-.3l.2-.2 1 .3c.7.3 1.4.6 2.3.6h.6c1.3 0 2 .3 2.7.7.4.2.8.4 1.3.4h2c1.6 0 3.3 0 4.3 1 2.2 1 3 2.7 2.7 5.2v.4l-.5.3c-.7.4-1.5.6-2.7.6-.7 0-1.5 0-2.3-.2H372c-.7.3-1.5.4-2.3.5l-1.2.3h-.4c-3.7-.2-7.2 0-10.7.4l-3.3.3c-.3.3-.7.5-1.4.5H350.2c-.6.2-1.3.3-2 .3H346l-.3-.2c-.4 0-.5 0-1 .3-.5.2-1.4.4-2.4.2h-1c-.7 0-1.4-.2-1.7 0 .3.4.5 1 .5 1.6.6.8.5 1.8.4 2.2 0 .3 0 .5.3.8l.2.3-.2.4v2c.4.2.6.6.8 1h.4v.7h.3l1 .6h.7c.5 0 1.3.2 1.8.6 1 0 1.6.2 2.2.5l1 .3c.7 0 1 0 1.6-.3.7-.2 1.5-.5 2.5-.5h1.3l2.5.2v.8s.2 0 .3.2c1 0 1.8.2 2.3.4l.8.4 2-.2c1.8-.2 3.5-.4 5.5-.4h3c.5 0 1-.2 1.4-.4.6-.4 1.5-.8 2.8-.8h1.3l1 1h.2c1 .3 1.7 1 1.7 1.7l.3.6.5 1v.5c.2.3.4.7.4 1.4.2 1-.2 1.8-.4 2.3m-77-20l-.2.2c0 .5-.2 1-.4 1.3-.5 1.6-1 3-.8 5.2l-.6 1c0 .8-.4 1-.6 1.4l-.7 1.2c-.3.3-.3.5-.3.8l-.8 1v.3c-.2.3-.4 1-.8 1.3-.2 1-.8 1.3-1 1.5l-1.5 1.3-.3.3c-.2.3-.5.7-1 1-.4.7-1.2 1-1.6 1v.2l-1.2 1a6 6 0 0 1-.3 0h-.2v.2h-1-.5l-1.3.5c-.5-.2-.6-.2-1 0-.6.4-1.2.8-2.3.7h-2.6c-1.3 0-2.5 0-4-.3-.2.3-.4.8-.8 1-.2.6-.4 1-.7 1 0 .4-.5.6-.8.7v.7l-5.2-.3h-.2c-1-.5-1.7-1.3-2-2.2-1-2.3-1.4-5-2-7.6 0-1-.2-2-.4-3 0-.3-.3-.5-.4-.8l-.5-1.2v-.7c-.4-.4-1.2-1-1-2.2a19.6 19.6 0 0 1-1-5c-.6-.5-.8-1-1-1.6 0-.3-.2-.6-.3-.8v-.3l-.2-.2c0-1.2-.4-1.4-.6-1.5l-.7-1.3c0-.6 0-.8-.3-1.3-.2-.3-.4-.7-.5-1.3h-.2v-.2a2.3 2.3 0 0 1-.4-.8 2.2 2.2 0 0 1-.4-.7l-.5-1.3c0-.5 0-.7-.3-1.2-.2-.3-.4-.7-.5-1.3v-.5c0-.3 0-.4-.3-.7-.2-.4-.5-.8-.6-1.5-.4-.4-.5-1-.5-1.6-.4-.6-.4-1.4-.3-2a2.5 2.5 0 0 1-.4-1v-.6l.5-.7v-.3c0-.3 0-.7.2-1l.2-1h.5c0-.2.3-1 1-1.2.2-.4.6-.7 1.2-.7l.3.2 1.7-.4c0-.2.3-.4.7-.6 0-.5.6-1 1.3-1v-.7h1.3c1 0 1.7-.3 2.5-.6s1.6-.6 2.5-.7c.7-.4 1.5-.4 2-.4h1c.2-.4.7-.6 1.4-.5 0-.2.5-.4 1-.4h.7l1.8.6c1.3.4 2.5.8 4 .8l1.3.7v.2c.3 0 .6 0 .8.3.5 0 1 .3 1.2.4h.3l1.2.8c.3 0 .5.2.7.3.6.2 1 .5 1.3.7h.4l1.4.8h.2c.3 0 .7.3 1 .7l.3.2v.2c.4 0 1 .2 1.2.6l.2.3c.3.2.8.4 1 .8h.2c.7.2 1 .5 1.4.8l.4.2.2.5c.2.5.7 1 1.2 1.4.5.7 1.2 1.3 1.6 2.2l.4 1v.4l1 1 .2.3c.4 0 .6.5.7.8h.4V132.8h.5v1.6h.4v1.5h.4v1.5l.5 1.2c-.2 1.8 0 3.2 0 4.7l.2 2v.2zm-58 23.4l-.2.7h-.3v1h-.6v.6l-.6.4c-1.5.8-3.3 1.2-5.4 1.3h-.3l-.6-.2c-.7-.4-1.4-.8-2.2-1h-.7l-.2-.7c0-.3-.3-.7-.5-1-.4-1-1-2-.8-3.8-.3-.4-.4-1-.4-1.5-.2-.3-.5-1-.3-2v-1c-.2-.3-.4-.8-.4-1.4l-.3-.8-.3-.2-.2-.8-.2-.6c-.3-.3-.6-.8-.6-1.6-.4-.3-.6-.8-.5-1.4a5 5 0 0 0-.4-.2l-.5-.3v-.4s0-.3-.3-.5c-.2-.3-.5-.8-.6-1.4l-.4-1-1-1v-.4c-.5-.3-1.2-.8-1.3-1.8v-.2c-.5-.2-.7-.6-.8-1l-.5-1.3c-.3-.3-1-.8-1-1.7-.8-.7-1-1.8-1.4-2.6 0-.4-.3-.8-.4-1-.8-.5-1-1.4-1-1.8v-.3h-.6v-1c-.2 0-.4 0-.6-.2h-.3v.5h-.6v.2c0 .3-.2.7-.5 1-.3.4-.6 1-.8 1.7l-.6 1.2c0 1.4-.5 2.6-1.2 4l-.3.5c-.5.8-1 1.5-.8 2.8l-.7 1.2c0 .3-.4 1-1 1.3 0 .5-.4 1-.6 1.2-.2.2-.3.3-.3.5 0 .6-.4 1-.7 1.3-.2.4-.3.5-.3.8v.2c-.2.7-.5 1-.8 1.4-.2.4-.3.5-.3.8l-1.2 1.2-.6.3c0 .2-.2.4-.3.5l-.2.4-1 1-.6.7c-.3.3-.7.8-1.3 1-.7 1-1.7 1.5-2.6 1.8v.2c-.4.5-1 .7-1.4.8l-.2.2-.3.2c-.5.6-1.2 1-2 .8h-1.1c-.4.3-1.2.6-2.2.3-.2 0-.5-.2-.7-.6H190.8l-.8-.6h-1.6l-.8-.2v-.8c0-.2-.2-.3-.6-.6-.5-.4-1.2-1-1.3-2-.3-.3-.5-.7-.6-1-.7-.2-1-.8-1.3-1l-.8-.2-.2-1c0-2 1-2.8 1.6-3l.2-1.8c0-.3 0-.6-.2-1-.2-.5-.3-1.2-.3-2l-.2-1.5-.5-1-.4-.2v-.8c0-2-.4-3.4-.8-5 0-.6-.3-1-.4-1.7v-.4l-.2-.6c-.3-.5-.7-1-.7-2 0-.3-.2-.5-.3-.6-.2-.7-.5-1.5-.6-2.5-.4-.6-.3-1.5-.3-2-.2-.3-.5-.8-.4-1.5l-.4-1c-.3-.2-.5-.5-.6-1l-.4-1.2c.2-1.3 0-2.4 0-3.6-1-.6-.8-1.7-.7-2.2v-.5c0-1.2.3-2 .8-2.7.6-.8 1.5-1.2 2.7-1.3a4 4 0 0 1 2-.5h1c1.3 0 2 .4 2.4.7h.3c.2 0 .4 0 .7.2.6 0 1.5 0 2.3.8l.2.3c.6 1.5 1 3.2 1.2 4.8.2 1.4.4 2.7.8 3.8l.2.3v.4c-.3.8-.2 1 0 1.7.4.4.7 1 .7 2 .5.6.4 1.5.4 2 .3.4.5.8.4 1.5.2.2.4.5.4 1 0 .3 0 .7.2 1 0 1.2.2 2.3.5 3 .5 1 .5 2 .6 3v1.5l.3.7c.4 1 1 2.3.7 4 .3.6.4 1.3.5 2v.6c.4-.5.7-.7 1-.8v-.6l.7-.3c.3 0 1-.3 1-1.8l.7-1v-.6c.3-.6.6-1.4 1.4-1.8.2-.7.6-1.3 1-1.8l.5-1c0-1 .5-2 .8-2.7l1-3v-.7h.4c0-1 .4-1.6.7-2v-.3l1-2.3v-.7h.4v-1h.6V128h.6V127.5c.2-.8.6-1.2 1-1.5 0-.7.8-1 1-1.3l1.4-1.4a1 1 0 0 0 .4 0c.3-.5.7-.7 1-.8v-.6h4.6v.7l1 .4c1 .2 1.8.5 2.4.8.5.3 1 .5 1.4.5h1v1l.2.3c.4.3 1 .8 1.2 1.8.6.2 1.7.7 1.8 2 .3.2.5.5.6.8.4.2.6.6.7 1h.4v.7c.2 0 .4 0 .5.2l.7.3-.2.8c0 .2 0 .3.2.3l.6.3v.5c.3 1.2.8 2 1.3 3.2 0 .5.4 1 .7 1.7.3.2.5.6.6 1h.5v.8c.2.2.4.5.5 1 .3.4.4 1 .4 1.5l.5 1v.2c1 .6 1.5 1.7 1.6 2.5.7.4 1 1 1.2 1.4l.2.4.5.3v.6c.2 1.2.5 1.5.7 1.6l.8.2v1.5h.6l.2 1v.2h.3l.2.8v.7l.4.7v.8l.2.6v.5l.2.2c.4.4.4.8.4 1v.2l.3 1c.5.3.6 1 .6 1.5.4.3.4 1 .4 1.4.5.6.5 1.4.4 2v.2c.3.4.6 1 .4 2m-83.6-25.4v.7c-.3.7-.8 1.2-1.2 1.7l-.5.8-.3.4h-.8c-1.3.3-1.3.4-1.3.7 0 2-.3 3.3-.7 4.6-.4 1.3-.7 2.5-.7 4.2l-.5 1c0 .7-.2 1-.5 1.4v.2l-.3.6c-.3.7-.7 1.4-.8 2.3l-.2 1h-.6c0 .2-.2.4-.4.6 0 .2-.3.4-.4.6l-.7 1-.3 1c-.2.3-.4.8-.8 1.2l-.3.2h-.3l-.8.5-.6.4c-.2.5-.7.8-1.4 1v.7h-1.3c-.7 0-1.3.2-2 .4-.6.2-1.4.5-2.5.5l-1.5-.3h-.7v-.6h-.5c-.4 0-1.3-.3-1.8-1a2.7 2.7 0 0 1-.4-.4l-1.3-.7a3 3 0 0 1-.4-.2h-2.6-.5a3 3 0 0 1-.7 0c-1.2 0-1.7-.6-2-1h-.8l-.4-.5c-.8-1-1-2.4-1.2-3.8 0-.6 0-1-.2-1.6v-.5c0-.8-.2-1.3-.4-2-.3-.7-.6-1.6-.5-3-.4-.4-.7-1.2-.8-2-.3-.5-.4-1-.5-1.4 0-.2 0-.6-.2-.8l-.2-.2v-.3c0-1-.4-1.6-.8-2.4l-.6-1.3c-.5-.3-.7-.7-1-1l-1-.4c-.8 0-1-.4-1.4-.6l-.8-.3v-.6c-.3 0-.8-.3-1-1a10 10 0 0 1-.8-.2l-.7-.5-.8-1.4c-.3-.3-1-.8-1-1.7-.7-.5-1.5-1.4-1.3-3-.2-2 .5-3.2 1-4l.6-1c-.5-.6-.6-1.3-.7-2l-.4-.7-.2-.4v-.3c0-.6-.2-1-.4-1.5s-.4-1.2-.4-2v-.4c-.4-1-.6-2.2-.3-3.8v-.3l1-1.6.7-1.4.3-.6H114.4v-.6l1.2.2h.5c.5 0 1.3 0 2 .5 1.2 0 2.2.3 3 .6l1.4.6v.7c.2.2 1 .7 1 1.6.2.3.3.7.3 1.4l.3 1c.6.6.8 1.3.8 2 .5.3.7 1 .6 1.7 0 .4 0 .5.3 1 0 .4.2.6.3 1l.6 1v.6c.4.2.7.6.8 1l.5 1c0 .3 0 .5.2.8.2.4.5.8.6 1.4l.2.2c0 .5 0 .5.5 1h.2c.2 0 .4.2.5.3.4.3.4.2.6.2h1c.5 0 1.3 0 2 .6l4.7.4 1 .2c.8.3 1.6.5 2.8.4h2l1-.3c0-2.8.3-5.6 0-7.4-.4-1.3-.4-2.8-.4-4.2 0-1.2 0-2.6-.2-3.6v-.7l.5-1c.4-.7.7-1.4.6-2.4l.8-1.2c.2 0 .2 0 .2-.2v-1h.4v-.3l1-.3h.2l1.5-.4h1.5a1 1 0 0 1 .6.5c.5 0 .8.3 1 .4.2.2.2.5.3.7.7.6 1.3 1.2 1.7 2.3v.2c.2 0 .4.4.5 1v.5l.6.2v1c0 .3 0 .4.2.7.3.5.7 1.2.6 2.4-.2 1.2 0 2 0 3 .2 1 .4 2 .2 3.4.5 1 .4 2 .3 3v1.1c-.2.5-.2.7 0 1 .2.5.4 1 .3 2h1.3v.4h.2l.2 1v.2h.3l.2.7v.6l.7.7.2.7c.4.5.3 1.2.2 1.5m-50 17l.3.8.4.2v1c0 2.5-2 3-3 3l-1 .2c-.6.8-1.5 1-2.8 1.2h-.4c0-.2-.2-.2-.2-.2h-.2c-.3.3-1 .7-1.7.5l-3 .3-6.7 1h-4.3a3 3 0 0 1-.7 0l.2 1-1.2.3-.2.2c-.3.3-1 .8-1.8.8-.3 0-.6 0-1-.2l-3.8-.2v-.7a2 2 0 0 1-.6-.5c-.6-.3-1-.7-1-1l-.3-.3-1.8-.3-5.5-1-10.2-.6h-.3c-.3 0-.6-.3-.8-.4l-.6-.2c-.8 0-1.2-.4-1.5-.6-.7 0-1-.3-1.3-.6l-1.4-.6c-.7-.3-1.2-.5-2-.5l-1.2-.8-.8-.4h-1.3a3 3 0 0 1-1-.5c-.5 0-.8 0-1.2-.2a1 1 0 0 1-.5-.3 1.3 1.3 0 0 1-.7-.3c-.3-.2-.4-.7-.5-1-.3-.2-.8-.4-1-.8l-.2-.3V157c-.6-.6-.5-1.4-.4-2v-1.3c.2-.6.5-1 .7-1.3.3-.4.4-.5.4-.8l1.4-1c.3 0 .4-.2.7-.4l.4-.2h.3l.8-.2c.2 0 .5 0 1 .3h.4c1 .2 2.4.2 3.2 1 1 .2 1.8.5 2.6.8 1.3.5 2.5 1 4 1.3l.8.3c2 .6 4 1 6.6 1.2 1.2-.2 2 .2 2.5.4l1 .2h.2c1.2-.2 2 0 2.4.3 0-.3 0-.5-.3-.8 0-.6-.3-1.2-.4-2a1.5 1.5 0 0 0 0-.3c-.2-.3-.4-.8-.4-1.4-.4-.5-.7-1-.8-1.8-.2-.3-.4-.6-.5-1.2h-.3l-.2-.7c-.2-.5 0-1 0-1.6H70v-1.2-1.5c-.2-.8-.4-1.8-.2-3a2.3 2.3 0 0 1-.4-.5l-.5-1.2-.2-.3c0-.3-.3-.8-.3-1.4l-.4-1-.4-1-.4-1.4c0-.5 0-.6-.2-1-.3-.5-.7-1-.6-2l-.2-.6c-.4-1-.7-1.8-.7-3-.3-.5-.4-1-.4-1.5l-.3-1-.4-1.2c.2-1.2 0-2-.2-3v-.7c0-1-.2-1.5-.4-2.2a14 14 0 0 1-.4-1v-.2c0-1.8.2-3.4.8-5v-.3l.4-.2c1.4-.7 3-1.7 5.6-1.7h1.2v.5c.4 0 .7.3 1 .4 0 .2 0 .2.2.2l1.2 1a1.6 1.6 0 0 0 0 .2c.3.3.5.7.5 1.3.3.2.4.5.5 1l.4 1c-.2 1 0 1.2 0 1.3l.3.3v1.3h.3v1c0 1.2.5 2.3.8 3.4.4 1.3.8 2.7.8 4.5.4.3.5.7.6 1v.2h.5l.3 1v.2h.5v1c0 .6.2 1 .4 1.5s.6 1.4.4 2.6c0 .4.2.8.4 1.2.2.7.5 1.4.4 2.4.6 1 1 2.3 1 4.2l.3 1 .3 1.2v1.2l.5.4v.5c-.2 0-.2 0 0 .3 0 .3.3.8.3 1.4l.5.8v.2h.4v2.1h.3v2h.4v1c.2 1 .6 2 1 3 .8.2 1.4.6 2 1l.8.5h7c3.2 0 6.3-.2 9.5 0 1 0 1.7.3 2 .6l.6.4h1.9l1.8 1zm398-6.5c-.4-.5.6 0 .5-.4.2 0 .4-.2.4-.5h-1.3c0-.7-.3-1-.2-1.6-.2 0-.4 0-.4-.3-.3 0-.3-.2-.3-.3-.5-.2-1.4 0-1.5-.4 0-.2 0-.4.2-.4l.6-.3c0-.3 0-.5.3-.7l1 .2c-.3-1 1-.7 1-1.5h-.6c-.3 0 0-.2-.2-.3-.5 0-.7.2-.7.2v-.5c0 .2 0 0 0 0 0-.3.4-.3.2-.7-.4 0-.2-.4-.7-.4l-.8-.2c-.2-.4.2-.5.2-.8-.5 0-.5-.3-1-.2 0-.3-.3-.5-.8-.5 0-.4-.7-.6-.7-.5v-.6s0-.2-.3-.3c0-.4.3-.4.2-.7 0-.3-.2-.3-.2-.4-.2-.2 0-.4-.4-.4 0-.3.5-.4.4-.8-.2 0-.6 0-.6-.3-.3 0-.3-.2-.6-.3l-.8-.8c0-.4.5-.4.6-.7.5 0 .8 0 .8-.4-1.2.2-1-.5-1.8-.7h-.5v.2s0-.2-.3-.2c0-.4-.4.2-.8 0-.7 0 0-1-.5-1 .2-.4-.3-.5-.2-1-.2 0-.5 0-.6-.3 0-.2 0-.3-.4-.4 0-.3.5-.2.8-.2.3-.5 0-.6-.3-.8a7.5 7.5 0 0 0 1.6-.3c0-.3-.3-.3-.2-.7 0-.4.8-.2.7-.5 0-.7 0-1.4.2-2-.8.2-.3-.5-1-.3 0-.4.3-.6 1-.6 0 0-.4-.2-.3-.4h.2c.3-.3.3-.6.6-.8 0-.4-.4-.6-.3-1 0-.5-.4-.6-.8-.8.2-.6-.6-.6-.4-1.3-.5 0-.5-.7-1.3-.7-.3-.3-.7-.6-1.4-.7l.2-.6h-.2v-.6c-.2 0-.4 0-.4-.2-.2-.2-.5 0-.5-.3-.4 0-.6-.3-1-.4 0-.4-.3-.7-.7-.8 0-.2.3-.3.2-.5-.2 0 0-.3-.4-.3 0 0-.2 0-.2-.3h-.2l-.2-.4c-.2 0 0-.3-.4-.3 0 0-.2 0-.2-.2s-.6 0-.4-.5c0-.2.4 0 .6 0 .2-.2.2-.3.4-.3 0-.4-1-.2-1.4 0 0-.3-.8-.6-.2-.8 0-.3-.7-.3-.8-.7l.2-.4c0-.2 0-.4.2-.4-.2-.5.5-.3.4-.8-.3 0-.8 0-.8-.4 0-.3.3-.4.6-.5h.4c0-.3 0-.4.2-.4-.2-.3-.2-.6-.2-1 0 0-.2 0-.2-.3.2 0 0-.2.2-.3-.2 0-.4 0-.4-.3-.2-.3.3-.2.2-.6l-.8-.2c0-.3-.4-.3-.8-.3 0-.5 0-.7-.7-.6.3-.2.4-.3.4-.5.2 0 0-.2 0-.2.2-.2.2-.5.2-.8-.2-.4.4-.3.4-.5 0-.5-.4-.6-.2-1 0-.3.3-.2.6-.3l-.2-.4h.6l.2-.4c0-.3 0-.8-.4-.8l-.2-.4c-.3 0-.2-.3-.4-.3.3-.6.8-1 1.4-1.2.3-.3-.5-.5 0-.5l.2-.5v-.3l-.2-.2-.4.2c0-.6 1.4-.2 1.2-.8-.2 0-.6-.2-.6 0h-.8c-.4 0-.2-.3-.6-.3-.4 0-.3-.4-.8-.3 0 0-.7 0-.7-.3-.4 0-.2-.4-.6-.4.4-.2.3-.6.3-1 0 0 0-.3.2-.3 0-.3-.2-.3-.2-.5-.2-.2-1-.2-1.4 0l-1-.2c-.6 0-1 0-1-.2-.6 0-1 .2-1 .3l-1-.2c-.3.2-.4.3-.8.3-.6 0-1.2-.3-2-.2-.8.2-1.5.3-2.4.3-.6-.2-1.5 0-2-.3h-.5c0 .3 0 .3-.2.3s0 0 0 .2c-.2 0-1 0-1 .2-.6 0-.2-.6-1-.4-.6 0-.4.3-.7.4-.4 0-.4 0-.7-.2h-.2c-.5.2-.5 0-1 0-.4-.2-.5 0-.8 0h-1-.4c-.3 0-.2-.2 0-.2 0-.2-.4 0-.4-.3-.6 0-.4.2-.6.3-.4 0-.2-.4-.6-.4h-2.3c-.6 0-.8.2-1.2.3-.5 0-1 0-1.5-.2-.4 0-.8.2-1 0h-.5c-.2 0-.3.2-.4.3l-.4-.2c-.2.2-.3 0-.4 0h-.8c-.3.2-.3.4-.6.4-.7 0-1-.2-1.8 0-.6 0-.7-.4-1.3-.4-.6 0-.6.4-1.2.3-.3 0 0 .3-.7.3h-1c0-.7-.6 0-.6-.3H450.8c-.2.2-.4-.4-.7-.3h-.8c-.4 0-1.3-.2-2.2 0h-.8c-.4 0-.5.2-.6.4-.7 0-.6-.4-1-.4h-1.3c-.6-.2-.6 0-1.2 0h-1c-1-.2-2.3 0-3-.3l-.8.2c-.5 0-.5-.3-1-.3 0 .3-.7 0-1 .2-.5-.2-.8 0-1 0H433h-.5-1.8c-.6 0-1.3 0-1.8-.3-.4 0-.5 0-.5.2-.2 0-.2-.2-.2-.3l-.8.2h-2.3c-.5 0-.8-.3-1.2-.4h-3c-.7 0-1.7 0-2.5.3-.7-.3-1 0-1.6 0h-2.6c-.6 0-.6-.5-1.2-.4-.6 0-.6 0-1 .2-.3 0-.6 0-.6-.2h-.6c-.4.2-.4 0-.6 0-.4 0-.4.3-.7.3h-6.2c-.3 0-.3-.4-.6-.4-1.3 0-3-.2-4 0-.6.2-.6-.2-1 0h-1.3c0 .2-.3.3-.6.3h-.5l-.8-.2c-1-.2-2.5 0-3.3-.7H390c-.6 0-.4.3-1 .2 0 .2-.4.2-.6.2h-.6c-.5 0-.7-.3-1-.3h-4c-.5 0-.5.3-.7.3-.2 0-.3 0-.3.2-.5 0-.6-.2-1.3 0-.4 0-.7 0-1-.2-.5 0-.4.3-1 .2h-1c-.6.2-.4-.3-1-.2-.7 0-1.7 0-2 .2-.5 0-.8-.4-1.5-.2-.2 0 0 .2-.3.2s0 0-.2-.2h-1c-.6 0-.5.2-1 .2-1.4 0-2.2-.2-3.3-.3h-.6c-.3 0-.6 0-.6.3-.6 0-.5-.2-1-.2-.6 0-.4.3-.8.3-.5 0-.8-.2-1.5 0-.3-.2-1.2 0-1.2-.3l-.8.2c-.3 0-.6 0-.6-.2l-.5.2c-.5 0-.7-.3-1-.3h-9.9c-.7 0-1 0-1.4-.2 0 .2-.3.2-.6.2h-7.1c-.4 0-.5 0-.8-.2-.5 0-.4.3-1 .2h-1.8-3.7c-.6 0-.5-.2-1 0h-.4a1.3 1.3 0 0 1-.6 0c0 .2-.2 0-.5 0 0 0-.3 0-.4.3-.3 0 0-.4-.7-.3H325.5h-2c-1-.2-2 0-3 0-1.6.2-3.5-.2-5.2-.3-.7-.2-.8.2-1.4.2-1 0-1-.2-1.8 0-.3-.2-.4 0-.8 0h-.4c0 .2 0 .3-.2.3-.6 0-.5-.4-1-.4h-2.6c-.4 0-.7 0-1-.2h-.5c-.2 0-.3.2-.4.3-.6 0-1.2 0-1.8.2-.3-.2-.5-.2-.8 0-.3 0-.5-.2-.8-.3-.8 0-1.6-.2-2 0h-1.4l-1.4-.2h-1.4c-.4 0-.4.3-.7.3 0 0-.4 0-.5.2-.4 0-.6-.2-1.2 0 0-.5-1 0-1-.4-.5 0-.4.2-1 0-.3.3-.3.2-.6 0-.6.3-1.5.2-2 .4-1 0-.7-.5-1.5-.4h-1.4c-.4.2-.6 0-.8 0h-.8c-.7.2-.8 0-1.3 0 0 .4-.8.3-1 .3h-4-.4-3.6c-.8 0-2 0-2.7-.2h-.8c0 .3-.4.2-.4.4-.6 0-.4-.5-1-.4-.6 0-1 .2-1 .3H264c0 .2-.4 0-.4 0h-1.2c-.6 0-.4.4-.8.4h-1c0-.3-.7 0-.7-.4-.6 0-.3.6-1 .6-.5 0-.4-.2-1 0-.4 0-.7-.2-.7-.4-.5 0-.5.2-1 0h-.6a1.3 1.3 0 0 0-.7-.3h-1.2c-.3 0-1 0-1 .2-.2 0 0-.3-.4-.3 0-.2-.2-.3-.4-.4h-1.6s-.6 0-.6.2h-1c-.3 0-.2-.3-1-.2-2 .3-4.6-.2-6.4.5-.7 0-1-.3-1.8-.2-.6 0-.4-.3-.8-.3h-1c-.2-.2-.2 0-.5 0h-.6c-.3.2-.3 0-.6 0-.4 0-.5.2-1 0-.7.2-1 0-1.5 0-.5-.2-.6 0-.8 0h-1-1.7c-1.3.2-2.3 0-3.2 0-.6 0-1.2-.2-1.5 0h-.6-1.8c-.6-.2-1.3 0-2.2 0-.8-.3-1.3.2-1.8 0h-2.2c-.7.2-.6-.2-1-.3h-.4v.2h-.3c0 .2 0 0-.3 0 0 0 0 .3-.2.3-.2-.2-.7-.2-1.2-.2h-.4c0-.3-.3-.2-.5-.3l-1.8.3c-.4 0-.8-.2-1.2-.4l-2 .3h-1.3c-.3 0-1-.2-1 0H204l-1.5.2c-1 0-1.7-.2-2.6-.3-.7 0-.5-.2-1-.2-.6 0-.6.2-1 .2h-4c-.5 0-1 .2-1.2.3h-1c0-.3-.3-.2-.3-.4-.2.3-.7.3-1.2.2l-.8.2h-.6c-.4 0-.4 0-.7-.2h-2.1l-.8.2h-.6c-.4 0-.6-.2-1-.3-1 .2-2 .5-2.6.2-.4 0-.4.2-.4.3-.5 0-1 0-1.5-.3l-1 .2-.6-.2c-.3 0-.6 0-.6.2-.2 0-.2-.3-.5-.3s-.8.2-.8 0h-.4c-.2 0-.2.3-.2.4l-1.2-.2-.6.2h-.4c-.6-.3-.5.2-1 .2-.7 0-.5-1-1.2-.3H167c-.2 0-.5 0-.5-.2-.6 0-.4.5-1 .4 0 .4-1 0-.8.3-.8-.2-.2.3-.6.3-.7 0-.4-.7-1-.7h-1.4c-.6 0-.5.5-1 .5h-.8l-.4.2-.6-.2c0-.2-.4 0-.4-.3h-.7c0-.3-.4-.2-.4-.4 0 0-.2.3-.4.3 0 0 0-.2-.3-.2h-.2c-.5 0-1 0-1 .4l-.6-.2h-1.5c-.6 0-.4 0-.6-.2-.7 0-.7.3-1.2.2a1.3 1.3 0 0 0-.6 0c-.2 0-.3 0-.4-.2-.8.2-2.4.2-3.2 0h-.6H146c.2.4-1 0-1 .5h-.5c0-.3-.4-.2-.4-.4l-.7.4c-.4 0-.5-.3-1-.3s-1 0-1-.2c-.6 0-.4.3-1 .3-.2.2-.2 0-.5 0-.4 0-.6.2-1.2 0-.5 0-1 0-1 .4-.4 0-.3-.4-.8-.3-.3 0-.4.3-.6.3-.5 0-.8-.3-1.5-.2-.2 0-.5 0-.6.3 0 0-.2 0-.3-.2-.6 0-.4.6-1 .5-.5 0-.4-.2-.8-.2h-1c-.2 0-.5 0-.5-.2l-.8.3-1-.3c-.3 0-.6.2-1.3 0-.7.3-.6-.2-1.2 0 0 0-1 0-.8-.2-.5 0-.6.3-1 .3-.5 0-.6-.2-1.3-.2h-.5c-.2 0-.3 0-.4-.2-.3 0-1 0-1.3.2h-.4-.4a3 3 0 0 1-.7-.2h-2c-.8 0-1.4.2-2.3 0-.6 0-1 0-1.4-.2-.7 0-.7.3-1 .3-.7-.3-1.8 0-2.5 0H107a3 3 0 0 1-.8 0c-1.8-.3-3.5.3-5 0-.6 0-1.2-.2-1.5 0H99c-.4 0-.3-.3-.7-.3-.5 0-.6.3-1.2.2-.7 0-.5-.4-1-.3l-.7.4h-1.7c-.8.2-.6-.4-1.4-.4 0 .4-1 0-1 .3l-.6-.2c-.5 0-.8.3-1.5.2-.5 0-1.2 0-1.7-.3-.5 0-.8.2-1.2.3l-.5-.2-.4.2c-.3 0-.3-.2-.5-.2H82c-.6 0-.8-.2-1.6 0a7.5 7.5 0 0 0-1.6.2c-.8 0-1.6-.4-2.3 0-.5 0-.6-.2-1-.3-.3 0-1 .2-1 0-.6-.2-.5.2-1 .3h-2.2a.4.4 0 0 1-.4-.3h-.8c-.3 0-.6 0-.6.2-.3 0-.5-.2-.8-.3l-1 .2c-.6 0-1.3 0-2-.2h-1c-.2-.3-.5.2-1 0-.6 0-1.6 0-2-.2-1.3.4-3.6 0-4.8.3h-1.2c-.2 0-.6 0-.6-.3a1.3 1.3 0 0 1-.7.2c0-.3-.3 0-.6 0a1.2 1.2 0 0 0-.7-.2l-.6.2H49.6c-1 0-2-.3-2.7 0L46 95h-.6l-.4.2c-.3 0-.4 0-.6-.2H43l-.5.2-.8-.2H40c-.5 0-.6 0-1 .2-.2 0-.5 0-.5-.2-.6 0-.4.3-.8.3-.3 0-.6-.2-1 0-.4 0-.4-.3-.7-.3H33.2l-.2.2-.8-.2c-.6 0-.5.3-1 .3 0 0 0 .4-.3.4-.5 0 0-.6-.7-.5-.2 0-.3 0-.4-.2-.5 0-.6 0-1 .2-.5-.2-1.5-.2-2.5-.2-.5 0-.6 0-1 .2L25 95h-2.4c-.7-.2-1.7 0-2.5 0h-2.3a6.8 6.8 0 0 0-1.8 0l-1 .2s-.5-.3-.5.3H12v-.3l-.6-.2c0 .2-.3.2-.6.2l-.4-.2H10c-.2-.2-.5-.2-.8-.2.2.4-.7.2-.6.5 0 .3 0 .4.6.4 0 .7.4.8.4 1.4.2.5-.3.5-.4.8 0 .4 0 1-.2 1.2 0 .4.5.3.6.7-.2.4.3.4.2.8 0 .2.6 0 .4.5 0 .6-1 .4-1.2.8 0 .5.6.2.4.7H10c0 .8.2.5.4.5-.2.5.6.8.6 1v1.2c0 .4.2.3.2.6.2 0 0 0 0 .2.3 0 .3 0 .3.2 0 0-.3.2-.3.4.2.3-.4.2-.6.4 0 .3 0 .3-.2.5-.3.4-1 .6-1.2 1 0 .3 0 .5.4.5.3 0 0 .4.4.4 0 .2-.3.4-.4.6 0 .3-.4.2-.4.5 0 .2 0 .4.4.4.3 0 0 0 0 .3l.6.2c.2 0 .2 0 .2.2s0 .3-.2.3H10c-.3.2-.8 0-.8.3l-.6.2c-.5 0-.6 0-.8.2h-.2c0 .3.3.4.6.5 0 .3.2.6.6.7-.3 0-.4.7.2.7 0 .4-1 .2-.8.7.8 0 1.3 0 1.8.3 0 .4-.4.5-.2 1 .2 0 .2.2 0 .2 0 0 .4 0 .4.2h.6c.2.7-.7.5-.6 1 .2.2.6 0 .6.3.2 0 0 .3.4.3 0 .3.2.4.2.5.2 0 0 .4.4.4 0 .6-1 .5-1 1s.3.5.6.7c0 0 .2 0 .2.2s0 .3.2.3c-.2.5-.2 1-.2 1.8.3 0 .5.2 1 0 0 .5-.5.7-.5.7v.7c0 .5.7.4.6.8.2.2.4.5.4.8.3 0 .4.2.6.3 0 .2.5.2.5.3.2.6-.6.6-.7 1 0 .3-.6.2-.5.5-.2 0-.3 0-.4.2h-.2c.3.3.2.8.2 1.2.2.4-.5.3-.4.7-.2 0-.2.4-.6.4 0 .3.3.3.2.6.2.4-.5.2-.4.6.5.2.6.6.6 1 .2.4-.5.3-.4.7H11v1c0 .3.2.2 0 .6.3 0 .3 0 .4.2.3 0 .2-.2.5-.2 0 .2-.2.3-.3.3h-.3c-.2.2-.3.4-.6.4 0 .3 0 .4-.2.5 0 .3-.5.3-.8.5 0 .4.4.4.4.8 0 .3-.3.4-.4.6 0 .3 0 .4.2.4l-.4.2c-.2.3.2.2.2.5v1.9h-.3c-.2.5.3.5.2.8 0 .4-.3.4-.5.6 0 .2-.6.2-1 .4.3.6 0 1 0 1.6l-1 1c0 .5-.6.3-.5.8-.3 0-.5.2-.6.4.2.3.6.8 0 1 0 0 .3 0 .3.3l.4.2c0 .5-.8.3-.6 1 .7-.2.5.2.7.4h1c0 .5-.4.6-.4 1 .5 0 0 .3-.2.3 0 .3.5.2.6.5 0 .2-.3.2-.3.5 0 .2.3.3.3.5s.3.2.4.4c0 .4-.8.3-.7.8 0 0 0 .2-.2.2l.6.6c0 .2-.4.2-.5.4.2.2 0 .3 0 .5-.2.6 1 .3 1.2.6 0 .6-1 .4-1 .7-.4.2-1 .3-1 .7.4 0 .3.3.5.3 0 0 .2 0 .2.3.4 0 .3.3.6.5h.8c.3.2 0 .5.4.6 0 .2.2.3.4.3 0 .6.6 1 .4 1.7l-.2.4H9c-.2.6.2.7.4 1-.3 0 0 0 0 .2 0 0 .2 0 .2.3.2.3-.3.3-.4.5-.3 0-.4.3-.4.6.2.2.7.2.8.5.3 0 .5 0 .7-.2v.3a.6.6 0 0 0-.3 0c-.5 0-.7 0-.6.4-.8 0-.7.5-1.6.3 0 .2 0 .5-.2.5a2 2 0 0 0 .2 1.3c-.2.2-.3.3-.2.5H7c.3.5-.3.4-.3.6 0 .5.4.6.4.8 0 .3-.2.4 0 .8.3 0 0 .5.8.3l-1 1c0 .3.5.3.5.5 0 .3-.5.2-.4.6 0 .4 0 .5.3.5.2.4-.6.2-.6.5-.4 0-.4.4-.8.4-.2.5.5.3.3.7.6 0-.2.3 0 .7h-.6c0 .3 0 .4-.4.4-.2.5.3.5.4.7-.2.2-1 0-1 .5l-1 .2c0 .3-.3.3-.2.6-.6 0-.5.2-1 0-.2.5-.6.6-1 1H1s-.2.5-.8.3c0 .5.4.6.2 1 .2.2.4.3.6.2 0 .3.2.3.2.5.5 0 .8 0 1 .2.3 0 .6 0 1 .2.3 0 .4 0 .7-.2l1.4.2c.6 0 .7.2 1.3 0 0 .5 1 0 1 .4.2 0 .3-.2.7-.2.5 0 .6.2 1 .3.6 0 .6-.3 1.2-.2.7 0 1.5 0 2 .2.8.2 1-.3 1.3.2l.8-.2c.4.2 1.2 0 1.6.3.4 0 .5-.2 1 0 .7-.3 1.2.2 2 0h3.6c.6 0 .6-.2 1.2 0 .4-.2.4 0 .5 0 .2 0 .3.2.4.3.3-.3 1.3 0 2-.2.5 0 .6.3 1 .3h2c.5-.2.6 0 1 0h2.9c.6.2.4 0 .8 0h1.8c.2.2.2 0 .5 0h.6c.4 0 .5.2 1 0 0-.3.4.3.8 0 .2 0 .6.2.7 0h.4c.3.2.6.2.7 0h4.1a49.2 49.2 0 0 0 2.2 0h1.3c0 .2.2 0 .4 0h.6c.4.2.7 0 1.4 0h.2c0 .2.5.2.7 0h.2s.2.2.5 0h.7c.5 0 .5.2 1 0h3.4c.4 0 .8 0 .8.3l1-.2 1.3.3H64.5c.2 0 .6 0 .7.3a6.3 6.3 0 0 1 1.8-.2c.4.2.5 0 .8 0 0 .2.4 0 .4 0h2.3c.4.2.5 0 .8 0H75.4c1.3.2 2.3 0 3.3 0a7 7 0 0 1 1.6.3c.6 0 .6-.2 1-.2 1.8.3 3.4 0 5.3 0h.4v.3l.8-.2h1.4s0 .2.2.3h3.2c.6 0 .6-.2 1-.2 0 .5.7.2 1 0 .3.2 1 .2 1.3.4.4 0 .3-.3 1 0 .6 0 1.2.2 2.2 0h.2c.3-.2.7-.2 1 0h.4s.3-.2.6 0h1s0-.2.2 0h2.8c.7-.3.5.2 1 0 .8.2 1 0 1.7 0s1.3 0 1.7.3c.8 0 1.8-.2 2.3 0h1.4c.3.2 1.2 0 1.8 0 .5 0 .7 0 1-.2 1 0 1.7 0 2.3-.2H121c.3 0 .7.3.8 0 .3 0 .6.6.8.2.4 0 .5 0 .8.2.5 0 .4-.3.8-.3h4c.3 0 .5.3.8.3h2.5l1.2.2c.6 0 .5-.3 1-.3h1c0-.2.4-.3.7-.3h1.8c.5 0 .5.4 1 .3 0-.2.2 0 .2 0 .3 0 .4 0 .4.2 1.3-.4 3.2-.2 4.7-.2.5 0 .7.2 1 .3h2.5c.6-.2.7 0 1.2 0h.6l.4.2h1.6c.5 0 .5-.3 1-.4l1.7.5c.4-.2.6 0 1.2-.2h.7c.7 0 .8-.3 1.7-.2.5 0 .5.2 1 0 0 .3.2.4.6.4 0-.2.4 0 .6 0h1.4c.3 0 .6 0 .6-.3h1c0 .2.2 0 .3 0h.7c.2 0 0 .2.4.2s.3-.2 1 0c.5-.2.6 0 1.3 0 .7 0 1-.3 2 0h.5c.2-.2.7-.2 1 0H173c.5-.2.5 0 1 0h2c.4 0 1.2-.2 1 0 .8 0 1.3.2 2.4 0 .5.3.7-.2 1.4 0h.2c.3.2.4 0 .8 0h.8c.5.2.5 0 1 0h.8c.7.2 1.4 0 2 0 .5 0 .6.2 1 .3h5l.8-.2h.8l.6.2c.4 0 .4 0 .6-.2h1.7v.2h.3c.3 0 .7 0 1-.2h3c.4 0 .8 0 .8.2l1-.2.8.2c.4 0 .8 0 1.2.2.4 0 .4.3.8.3h1.8c.6-.8.6 0 1 0 .6 0 1.2 0 1.5-.3.2 0 1 .3 1 0v.3c.3 0 .3-.2.3-.4l.8.2v-.2h.7c.5 0 1-.3 1.3-.4h7.3c.5 0 .6.4 1 .4h1.2c.6 0 .6.2 1.2 0h2.3c.6 0 1 .2 1.6.3l1.6-.2h5.9c.8 0 1.8 0 2.2.2H241.8c.5 0 1-.2 1.7 0 .6-.2.6 0 1.2 0 .5 0 1 0 1 .3l1-.3c1 0 2.2.2 3 0h3.3a6.3 6.3 0 0 0 2 .2c.3 0 .6.2 1.3 0 0 .2.4.2.4.4.2 0 .4-.2.4 0l.7-.2s0-.2.2-.2h1.8c1.2 0 2.7-.2 3.6 0l.8-.2h5.5c.4 0 .5.3.8.3.4 0 .8 0 1 .2.4 0 .3-.2 1 0h1.1c0-.2 0-.2.2-.2H275.6c.4 0 .5.2 1 0 .5 0 1.3.2 1.7 0 .2.2.7.2 1.2 0 .6 0 .5.3 1 .3.6 0 .6-.3 1.2-.2l1 .2h5.6l.8-.2h2v.2h.3v-.2h1.2s0 .2.2.2h.2c.3 0 .3 0 .5-.2.7 0 1.4 0 2 .2.7 0 .8-.2 1.3-.2.7 0 1.3.3 1.8.5l2-.2h1.7c.6 0 1.5 0 1.8.2H309.7c.6 0 .4.3.8.3.2-.5.5 0 1 0l1-.2c.8 0 2 .2 2.3 0h1c.4 0 .7 0 1 .3.2 0 .2-.4 1-.3h.5c.3 0 .6 0 .6.3.4-.2.7-.3 1.2-.3h1.8c1 0 2.4-.2 3 0 .5.2.6 0 1 0h.5c.4 0 .5.3.8.3.2 0 .5 0 .5.2.6 0 .5-.2 1-.2.3 0 .3.2 1 0 .5.2.5 0 1-.2.4.2 1 .3 1.7.3h1.8c.3.3 1.8 0 2.3.2h.8c.7-.2 1 0 1.3 0 0-.2 1 0 1.3 0h1.4c.5 0 .4.2 1 0 .4 0 .3.4.8.3h.8c.3 0 .6 0 .6-.3.6.2 1.4.2 2.3.2 1-.2 2 0 3.2 0h1.3c.3 0 .7-.2.8 0 .8-.3 2.3 0 3.4-.2.7 0 .7-.2 1.5 0 .8 0 1.6 0 2.4.2.7 0 .6-.2 1-.2.5 0 .7 0 1 .2.6-.3 1.3 0 2.4 0h.4c.2 0 .3 0 .4.2l.6-.2h.4c0-.3.4.3.8 0 .5.2.5 0 1 0h1c.2-.2.2 0 .5 0h2.1c.3.2.3 0 .6 0 .2 0 .4-.2.4 0h.6c.3 0 .4-.2.4-.3.4 0 .5.3 1 .3.2-.4.5 0 1 0h2.7c.6-.2.8 0 1.2 0h.4c.4 0 .8-.2 1 0 .4 0 .5-.2 1-.3.3 0 .4.3 1 .3h3.1c.8.2 1.7 0 2.2 0 .8 0 2 0 2.4.4 1 0 1.8-.2 2.7-.3.6-.2.7 0 1.2 0 1 0 2 .3 3.2 0h4c.6.2.6 0 1 0 .2.2.4 0 .6 0h2.3l1 .2c0-.2.5-.3.8-.3 0-.3.5.3.8-.4h.6v.4c.7 0 .8 0 1.2-.2h1.2s.4.5.6-.2h2c.5.7 1 .3 1.5.4h.4v.3h1.7c.3 0 .6 0 .6-.2.3 0 .5.2.8.3l1-.2h3c.2 0 .3.2.4 0 .2 0 .2.4.2.4h.8l1.6.2c1-.2 2-.2 3-.2h1c.4 0 1-.3 1 0 .4-.2 1-.3 1.8-.3l.8.2h3c.4 0 .4.2.6.2h1.9c.2-.2.2 0 .5 0h2.4c.4 0 .5 0 .5-.3l.8.4h.5v-.2s0 .2.4.2c.5 0 .6-.3 1-.3.3 0 .5 0 .6.2.3 0 .6 0 .6.2l.8-.2.8.2 1.2-.2.5.2c.2 0 0 0 .2.2.2 0 .7-.4 1 0h.7c.3 0 .6 0 .6-.2H456.4c.7 0 2.5 0 3.2.2.6-.2.7 0 1.3 0 0-.2.2 0 .5 0 0-.2.2-.3.4-.3h9.2c.3 0 1 0 1.3.2 2.7 0 5.3 0 8 .2v.2c.6 0 1 0 1-.6h1.1c1 .2 2.5.2 3.3 0 .5 0 1 .2 1.3.3h2.2c.5-.2.4.2.8.2.8-.3 2-.2 3.2-.2.5 0 .6 0 1-.2h.5v.2c.4 0 .4-.2.7-.2l.6.2h.4c.5 0 1-.2 1.8 0 .5 0 .7-.4 1-.4h1c.4 0 .8 0 1 .2h.3c.4 0 .6-.2.6-.5.6.2.5 0 1 0 .2-.4-.3-.4-.2-.7 0-.2.5 0 .8-.2h-.2c0-.3.4-.4.2-.8.3 0 0 0 0-.3l.2-.5c0-.3.8 0 .8-.4.2-.3-.4-.2-.4-.4-.2 0 0-.2-.2-.3 0 0-.2 0-.2-.2-.4 0-1-.2-.8-.7-.2 0-.5 0-.6-.2h-.4c0-.2 0-.2-.2-.2 0-.2.3-.4.4-.6.4 0 .5-.2.4-.5h.4c0-.2 0-.3.2-.3 0-.2 0-.5.2-.5l.2-.5c-.5 0-.8 0-1-.2-.2 0-.4-.5-.4-.5h-1l-.4-.2h.4v-.2c0 .2.4 0 .4 0v-1s0-.2-.2-.2v-.3h.5c.3 0 .4 0 .5.2h1c0-.4 0-.7-.4-.7 0-.2-.3-.3-.6-.4 0-.2.4-.2.8-.2l-.2-.4h.5a3.2 3.2 0 0 0 .3-.3v-.4c0-.2 0-.3.2-.3 0-.2-.2-.2-.3-.4l.2-.4c.2-.3-.4-.2-.4-.5.2 0 0-.3.4-.3 0-.2.4-.2.4-.4 0-.5.4-.7.2-1.2 0 0 .4 0 .4-.3 0-.2.2-.3.5-.3-.3-.6 0-.8 0-1.2 0-.6-.8-.6-.6-1.3-.5-.2-1-.4-1.2-.7 0-.4.4-.3.6-.4.2-.2.5-.3 1-.3v-.4c-.4 0-.5-.2-.8-.3 0-.3.7-.2.7-.6-.7-.2.2-.4.2-.6 0-.5-.6-.5-.8-.8.2 0 .2-.4.5-.4 0-.2.5 0 .8 0l.2-.5h.4c.6 0 .7-.3 1-.5 0-.5-.6-.4-.5-.8l.2-.4c0-.2 0-.2.2-.3v-.2h-.3v-.3h-.2l-.2-.3h-.2c.4-.3.6-.3 1 0 .3 0 .4-.2.7-.3.2-.5-.2-.6-.4-1 0-.2.5 0 .6-.4 0-.5-.4-.6-.5-.8 0-.4.8-.2.8-.6 0-.3 0-.3-.2-.5 0-.5.8-.5 1-.8 0-.4-.3-.4-.3-.7 0-.5.8-.3.6-1h-1l-.2-.6m-218-9l.2-1.8c0-1.2-.3-2-.6-3l-.5-2.4c-.6-.4-.8-1.2-1-1.6v-.3a3.7 3.7 0 0 1-1.6-1.7c-1-.8-2-1.7-2.5-2.8-1.5-.2-2.5-.7-3.5-1.2-.8-.4-1.5-.8-2.5-1l-.7-.2v-.3H276.6l-.2-.3-.8-.4h-.3l-1.2-.7c-.5-.2-.7-.3-1.2-.3h-.3c-.5 0-.6 0-1 .2-.5.2-1 .5-2 .5l-1.2.6c0 .2-.2.3-.3.3.2 1 .6 2 1 3l.5 1 .4 1c.3.2.4.6.5.8v.2l.6 1.4c0 .7 0 1 .4 1.6.2.5.6 1 .6 2l.3 1 .5 1.2c0 .3 0 .3.2.3l.7 1.2v2.6c.5.4.7 1 .8 1.5l.2.7.2.2c0 .2.4.7.4 1.4l.4 1.2c.3.3 1 .8 1 1.6.4.3.7.7 1 1.2.8.2 1.5.6 2.2 1h2.5l.5.2a2.5 2.5 0 0 1 1-.5c1 0 1.8 0 2.5-.2.4-.7 1-1.6 1.8-2 0-.4.3-.7.4-.8l.2-1h.4l.4-.5c0-1.3.4-2.2.7-3 .3-.5.5-1 .6-1.8m-145.5 5.5v-1c-.3 0-.8-.6-1-.8-1 0-2 0-3-.2-2.3-.2-4.5-.3-6 0 0 .7.3 1.3.6 2 .5 1 1 2 1 3.2.6.5 1 1.2 1 1.7v.4c.4.2.6.5.7.7l.6 1 .4.5h.2c.2.3.7.5 1.2 1 .3-.5.5-1.2 1.2-1.5a1 1 0 0 0 0-.5l.7-1 .6-.6c0-.6.2-1.2.6-1.6V152c0-.4 1-1.6 1.3-1.8zm198-69l.2.3-.2-.2zm-12-28.5l-.5 1c0 .2-.3.5-.5.7-.3.7-.8 1-1.5 1.4l-1.3 1.2c-.4.3-.8.5-1 .8v.5h-.6c-1 0-1.4.4-1.6.7l-1 .5c-.5 0-1 0-1.3.3l-1 .5h-.2c-1.3 0-2.4.4-3.6.6-.8 0-1.6.3-2.5.5h-.2c-1 0-2 0-3 .2-1.2.2-2.5.3-4 .2l-.4-.2c-.5-.4-1.5-.5-2.5-.6-1 0-2-.3-2.6-.6h-.5v-.3h-.2l-1-.6s0-.2-.3-.3l-.6-.2v-.6s0-.2-.3-.3l-.5-.7c0-.8-.6-1.4-1.4-1.7l-.4-1c0-1.2 0-2-.3-3v-.5a1.3 1.3 0 0 1-.4-.3c-.5-.5-.4-1-.4-1.6v-1.3c-.2-.3-.5-.7-.5-1.5 0-.5-.3-1-.6-1.4-.5-.6-1-1.3-1-2.4h-.2v-.2c.2-1.2 0-2 0-3l-.4-1.4a1.5 1.5 0 0 1-.2-.2c-.5-.6-.4-1.3-.3-2v-.5c0-.2 0-.3-.3-.5-.3-.3-.7-1-.7-1.8 0-1.7-.2-3-.4-4.5-.5-1.8-.8-3.6-.6-6v-.6h1V22c.2-.2.5-1 1.2-1 .5-.7 1-1.4 2.5-1.4h.6l.7.3c.8.2 1.7.5 2.2 1.3.8.3 1 1 1.3 1.4 0 .4.2.5.3.5h.5l.3 1c.2.8.5 1.7.4 3 0 .3 0 .6.3 1 .3.5.7 1.2.6 2v4.3c.5.3.6.8.6 1.2.3.3.5.6.6 1l.3.2v.3c0 .8.5 1.3 1.3 1.6h2c1.4 0 2.8 0 3.7-.4.8-.2 1.3 0 1.7.2h.2l.7-.3h3.7c1.3.4 2.5.5 4 .4l1 .4c.3 0 .5.2.7.3.6 0 1 .2 1.3.3.3.2.4.2.7 0l1 .7.4.2c.5 0 .8.3 1 .5l.4.2c.8.2 1.2.6 1.6 1 .3.3.4.5.7.5l.6.2.2.6c0 .7.3.8.4 1h.5v.5c.2.2.2.3.2.5h.4v6.7zM291 81.2h-.2zm-14.4-41l-.8 1v.5l-.6.8v.2h-.4l-1.2.8c-.8.6-1.7 1.2-3 1.2h-.5c-.7 0-1-.5-1.2-.7l-.8-.8-.2-.2c-.2 0-.6-.4-.8-.8l-.4-.3-.7-.4h-.3l-.2-.3-.4-.8V40h-.5l-.2-.4c0-.3-.3-.5-.6-.7l-.3-.2-.3-.4c-.2-.5-.2-.6-.5-.5h-.5l-.3-.5c-.6-1-1-1.6-2.2-1.6-.5 0-.6 0-1 .7l-.3.4v.3h-.4l-.5.6-1 .7c-.3.5-.6.8-1 1l-.4.5-.7 1.2-.5 1.2a1 1 0 0 1 .4.8l.3.3v.2c.5 0 .5.5.5.8.5.4.7 1 1 1.5 0 .3 0 .6.3.7v.2l.5 1.2.6 1.3v.3l.5.8c.2.5.6 1 .7 2v5.4l-.2.5c-.3 1-.6 1.7-.6 3v.4l-.6.4c-.2 0-.3.5-.3.8v.6h-.3c0 .6-.3 1-.4 1v.4l-.4.2-2 .6h-.8c-.7.7-1.7 1.2-3 1.3H244c-.4 0-1 0-1.5-.4l-2.3-.6c-.2 0-.5 0-.7-.3a1.5 1.5 0 0 1-.6 0 .8.8 0 0 1-.5-.2h-.3l-.2-.2c-.4-.2-.5-.5-.6-.8-.2 0-.6-.2-.8-.6V64l-.2-.2c0-.7-.2-1.3-.3-2l-.3-3v-.2c.7-3.2 1.4-6 2.8-8.4 0-.4.3-.7.4-1l.2-.6.5-.8v-.2c0-.2.3-.7.7-1 0-.6.3-1 .5-1.2V45l.3-.7h.4s0-.3.3-.4c0-.3.2-.4.3-.5 0 0-.2 0-.3-.2l-.5-.2v-.5c0-.2 0-.2-.2-.3l-.6-1a1.2 1.2 0 0 1-.5-.3 2.2 2.2 0 0 1-.6-.5v-.2h-.7v-.7L238 38c-.3-.5-.6-1-.8-1.8a1.4 1.4 0 0 1-.4-.7 2 2 0 0 1-.5-.6c-.6-.4-.7-1-.8-1.4l-.6-.2v-.8c.2-.7 0-1.3 0-2-.2-.8-.4-1.7-.2-3v-.2c.6-1.2 1-2.2 1-3.3l.2-.3h.4c.5-.4 1-.8 1.3-1.3.6-.7 1.4-1.6 2.8-2 .3-.3.8-.4 1-.5l.5-.3 1-.7h.3c0-.2.3-.3.5-.4.2-.2.5-.3 1-.4v-.4h7l.2.4.5-.3 1 .4a1.4 1.4 0 0 1 .6.4c.4 0 .6.4.7.5.7.2 1 .6 1.2 1 .4 0 1 .3 1 .8.5.3.7.6.8.8.2 0 .4.2.5.4.3 0 .5.2.6.3.4 0 .8.4 1 .8.3 0 .5 0 .7.2.2-.2.5-.3.7-.3 0-.5.3-1.2 1-1.6.2-.5.6-1 1-1.2l.7-.8.2-.4h.3c0-.4.2-.7.5-1h.2V18c.4 0 .6-.3.8-.6l.2-.6h.4c0-.3.3-.8.8-1 .4-.5 1-.8 2-.8h3.4v.7l.3.2c.4 0 .8.4 1 1h.3v.5c.4 1 .2 3-.5 4a2.3 2.3 0 0 1-.5.5c0 .5-.4 1-1.3 1.2-.2.5-.6.7-.8 1h-.2l-.7.8c0 .3-.2.7-.6 1l-.3.3v.6h-.5a1.8 1.8 0 0 1-.3.2c0 .5-.3.7-.4 1s0 0 0 .3l-.6 1-.5.4a6.7 6.7 0 0 0 1.6 1.6c.5 0 1 .3 1 .4h.4l1 .7c.4 0 .8.3 1 .7.3 0 .4.2.6.3l.6.3.5.2v.3c.5.2 1 .5 1 1h.2c1 .4 2.2 1 2 3 .3 1-.3 1.6-.6 1.8m-30 41h.5s.3 0 .4.2c-.4 0-.8 0-.8-.3m-26.8-28V55c0 .5-.3 1-.4 1V56.8l-.7.2s-.2 0-.2.4v.6l-.6.2c-.6.2-.8.6-1 1.3l-.4.5-.3.4h-.5a1 1 0 0 1-.5.4h-.8v.5h-1a1 1 0 0 0-.3 0c-.2.6-.7.8-1 .8v.7h-.8c-1-.3-2 0-2.7 0-1 .3-2 .5-3.3.3h-.2c-1.3-.7-3-1-4.6-1.2l-1-.2v-.3l-1-.6c-.3 0-.7-.4-.8-1h-.5l-1-.7c0-.3-.2-.5-1-.7l-1.2-.7v-.2c-.5-.7-1.2-1.3-2-2l-1.8-2c-.5-.3-.7-1-.8-1.2l-.8-.7-.2-.2-.6-.2v-.5c0-.6-.3-1-.6-1.5a8 8 0 0 1-.5-1c-.6-.2-.8-.7-1-1v-.3s-.2 0-.3-.2c-.2-.2-.5-.5-.6-1 0-.3-.3-.6-.5-1-.4-.5-.7-1-1-2l-.3-1.2c-.2-.6-.4-1.2-.7-1.6l-.2-.3c0-.6 0-1-.3-1.7a22.2 22.2 0 0 1-.4-1.8v-6.2h.6v-.3c0-.3 0-.8.5-1.2 0-.7.6-1 1-1.3l-.2-.8.6-.3 1-1c.6-.7 1.4-1.5 2.6-1.7a1.4 1.4 0 0 1 1-.5c0-.3.3-.4.5-.6.3-1.2 1.2-2 2.5-2l2.5-.6 3.6-.7h4.3v.3h1c.2-.2.6-.4 1-.4h1v.3H206.2v.5h.6c.7 0 1.2.2 1.6.4.4 0 1 0 1.4.4 1 0 1.4.3 1.8.6.2 0 .4.2.5.3.6 0 1 .3 1 .4h1v.2h.3l.2.8v.2h.5v3.5c0 .5-.3.8-.4 1v.3c0 .7-.5 1-.7 1.3l-.3.2-.3.6h-.6c-.3 0-.5.2-.8.4l-.2.2h-1c-.3 0-1 0-1.6-.6-1-.3-2-.4-3.2-.3l-1-.5h-2.9l-.2-.2s-.3-.2-1-.2h-2.5c-.7.3-1.6.6-2.7.5-.3.3-.7.4-1 .5h-.2v.2h-.3a4.4 4.4 0 0 0-.6.4c-.2 0-.3.2-.5.3h-.2a1 1 0 0 1-.6.6c0 .2 0 .4-.3.6l-.4.2v.5l-.3.5V35c.4.4.4 1 .3 1.4l.3.4c.6 1 1 2.3 1.2 3.5v.3c.5.3.6.8.7 1l.7 1c0 .5 0 .8.3 1l.7.2-.2.7c.3.3.8.6 1 1.4.2.2.7.6.8 1.3.5 0 1 .5 1.3.8l.7.6c.8.3 1.2.8 1.6 1.3.3.4.5.7 1 .8 1.8 1 3.7 2 6.7 1.7 1-.4 2-1.3 3-2.6l.3-.5.3.2c0-.4.4-1.3 1.4-1.4l.5-.3V47h3.3v.6h.2c.3 0 .7.2 1 .6l.2.3v.7c0 .3.3.5.3 1 .6.8.5 2 .5 3m-14 28h.4v.3s-.2 0-.2-.2c0 0-.2 0 0 0M103 2.5v.2-.2zM412.8 78c0-.5.3-.4.4-.5 0 .3 0 .4-.4.4m4.6-46.2c0-.4.6-.3.5-.7a1.3 1.3 0 0 1-.7-.4c0-.2 0-.5-.4-.5v-.4c-.5 0-.3-.4-.6-.4a.7.7 0 0 0-.4-.4v-.6c-.2 0 0-.4-.3-.4v-.3c.3 0 .4 0 .4-.2a.7.7 0 0 0 .6-.3v-.2s.2-.3 0-.3v-.3c0-.2 0-.3-.2-.5 0 0 .2 0 .2-.2v-.3s0-.2.3-.2c-.2-.2 0-.2 0-.3v-.5s.6 0 .6.2V24h-.2c0-.4-.2-.3-.3-.5.2-.3 0-1 .4-.8h-.4c0-.2-.2-.2-.3-.2 0-.3.3-.3.2-.6 0-.4-.2-.5-.3-.6l.2-.4c-.2 0-.3 0-.3-.2 0-.4.4-.3.3-.7 0 0 0-.3-.3-.4 0-.2-.4 0-.3-.5 0-.2.3 0 .5-.2-.3-.6.2-.6.3-1 0 0 .2-.5-.2-.5.4-.3.5-.8.4-1.4 0-.4.6-.2.6-.5 0-.2 0-.2-.3-.2V15c-.2-.3.3-.2.2-.6v-.6c0-.2-.3-.2-.3-.4h-.3c0-.5.4-.5.3-.8 0-.4.6-.3.6-.8 0 0-.2 0-.3-.2 0 0-.2 0-.3-.2.2-.2.7-.2 1-.3 0-.2-.5-.4 0-.4 0-.3.2-.3 0-.6-.2-.2-.5-.4-1-.4 0-.3-.2-.5 0-1-.6 0-.3-.2-.3-.5-.3 0-.4-.2-.7-.3 0-.4-.4-.2-.3-.6a.7.7 0 0 1-.4-.3V6c.2-.2-.2 0-.2-.4l.3-.2c0-.2.2-.3.3-.3 0 0 .3-.2.3-.5-.6 0-.3-.6-1-.5 0-.3.4-.3.2-.6 0 0 0-.3-.3-.3V3c-.3 0 0-.5 0-.7-.4 0-.6 0-.8-.2 0-.3 0-.4-.3-.4V1 .8c-.4 0-.5.2-.6.3h-1.5c-.3 0-.2-.4-.4-.6l-1.6.2c-.4 0-.3-.2-.6-.2h-.5c-.5-.2-.4 0-.8 0h-.6c-.3 0-.6 0-.6-.3-.2.3-.7.3-1 .3h-1-.4c0 .2-.2.2-.3.2h-4.5c-.2 0-.3 0-.3-.2h-1c-.4.2-.3 0-.7 0h-1.9c-.4 0-.5.2-.7.2-.4-.2-1-.2-1.3-.4-.5.2-.7.4-1 .4-.7-.2-1.6 0-2.4 0h-.7c-1 0-2 0-3 .2h-.4c-.3 0-.4 0-.4-.2-.2.2-.7 0-1.2 0H382c-.4 0-.5-.2-.6-.2-.5 0-.8.2-1.4 0h-.3v.2h-.2c-.3.2-.5 0-.6.2-.5 0-.5-.2-1 0-.2 0-.4 0-.6-.2h-.6H376c-.3 0-.4-.2-.6 0-.4-.2-.5 0-.8 0h-2.3-.3-3.9c-.4 0-.5-.2-.7-.3-.3 0-.3.4-.7.3-.4 0-.4-.2-.7-.2-.2.3-.3 0-.4 0-.4.3-1.4.4-1.8 0-1 .2-1.6 0-2.6 0h-.4c-.2 0-.3.2-.3.3-.5-.2-.6-.2-1 0-.3 0-.7-.2-1 0h-1.6-.2c-.2-.2-.2 0-.4 0h-1c-.7-.2-1.3 0-2 0h-.4l-.6-.2c0 .3-.2.3-.4.3h-.4c-.3 0-.5 0-.5.2-.3 0-.2-.2-.5-.2-.5.2-1 0-1.7 0h-.6c-1.2.2-2.5-.2-3.8 0-.4 0-.3-.4-.7-.3-.4 0-.6 0-.8.2h-1.5c-.4 0-.4.2-.8 0-.3 0-.4.2-.5.2H338c-.7-.2-1.7 0-2.5 0-.4 0-.3-.4-.8-.2h-.5c-.3 0-.6 0-.6.2-.3-.2-1 0-1.6 0h-.9c-.5-.2-1 0-2 0-.3 0-.3-.2-.7 0-.3-.2-.5 0-.7 0H323c-.5 0-1.5.2-1.8 0-1.5 0-3 0-4 .2L316 .4h-.4s0 .2-.3.2c-.6 0-1.4 0-1.7.2l-.6-.2c-.3 0-.3.2-.5.2-.3 0-.3-.3-.7-.2 0 .2-.2 0-.4 0h-.3v.2l-.4-.2H307.2c-.5-.2-.6 0-1 0h-.6-.5s-.2 0-.3-.2h-1.2-1.6c-.3 0-.3.2-.5.2 0 0-.2 0-.3.2-.2-.2-.7-.2-1-.3h-3c-.2.2-.3 0-.5 0h-2c-.3-.2-.2 0-.5 0s-.4.2-.6.3c-.3 0-.4 0-.6-.2 0 .2 0 0-.2 0H289c-.5 0-.8 0-1 .2h-1.5l-.6-.2c-.4 0-.6 0-.8.2-.2 0-.3-.2-.6 0 0 0-.2-.2-.4 0h-.6c-.2-.2-.4-.2-.4 0-.3 0-.4-.3-.8-.3-.3 0-.4.2-.7.3-1 0-1.8 0-2.5-.3-.4 0-.4.2-.7.2-.4 0-.4-.2-.7-.2 0 .4-.8 0-.8.3-.3 0-.3-.3-.7 0h-.6c-.2-.2-.4-.2-.4 0-.4 0-.3-.3-.8 0H273l-.2-.2h-1.3c-.4 0-.4.2-.7.2a4.3 4.3 0 0 1-1.2-.3c-.4 0-.5.2-.8.3l-.4-.2c-.2 0-.3 0-.3.2-.2 0-.2-.3-.6-.2-.4 0-.5.2-.7.3H264c-1 0-2.3 0-3-.2h-.5c-.2.2-.8 0-1 .2-.2-.2-1 0-1.5 0h-5.2c-.4 0-.4-.3-.8-.2-.3 0-.8 0-1 .2h-1.4c-.5 0-.4-.2-.8 0h-2.1c-.2 0-.4 0-.4-.2-.3 0-.4 0-.4.2H244h-.3c-.2.2-.2 0-.3 0-.3 0-.5 0-.6.3-.2 0-.3-.2-.5-.3H237h-.3c-.2-.2-.8 0-.7-.2h-.5V1s-.2.2-.4 0c-.3.2-.5 0-.6 0H233c-.5 0-.4-.2-.7-.2a3.8 3.8 0 0 1-1.3 0l-.4.2H229c-.6 0-1.4.3-1.8 0H225.4c-.4-.2-.2 0-.5 0-.3.3-1 0-1 0v.3l-.6-.2-1.3.4h-.6c-.3 0-.6 0-.6-.3l-.6.4c-.2-.2-.5-.2-1 0a.7.7 0 0 0-.3-.3h-2.2c-.5 0-.8.2-1.4 0-.3 0-.3.3-.5.3H213L213 1c-.3 0-.7.3-1.3.3-.2 0-.3 0-.3-.2-.2 0-.2.3-.4.3s-.3-.3-.7-.2c-1.2.3-2.3.4-3.6.4-.3 0-.6-.2-1 0H203c0-.2-.2 0-.3 0h-2c-.2-.2-.7 0-.7-.3l-.6.3H198 195.4a3.5 3.5 0 0 0-1.3 0l-.4-.2c-.2.2-.3 0-.3 0-.2.2-1 0-1.3 0-.3 0-.3.3-.6.3-.4 0-.8 0-1-.2-.4.3-.4.2-1 0-.3 0-.5 0-.5.3h-.4-.4-1.2c-.4 0-.4.2-1 .2-.4 0-.6-.3-1-.4h-1c-.2.2-.7.3-1 .4 0 0-.7-.2-.7 0h-.8c-.5-.2-.6 0-1 0h-.5c-.5-.2-.6.2-.7-.3l-.3.4h-.5c-.3 0-.8-.2-.8.2-.4 0-.4-.2-.8 0-.4 0-.5 0-.8.2-.5 0-.8 0-1.2-.2h-.6s-.2 0-.2.2l-1-.2c0 .2 0 0-.2 0h-.5c-.3 0-.3-.2-.7 0-.4-.2-.5 0-1 0H169l-.7-.2h-.6c-.2 0-.5.2-.6 0l-.4.2c-.4-.2-1 0-1.6 0-.5 0-.7 0-1 .2l-1-.2h-.4c-.2 0-.2 0-.3-.2-.4.2-1 .2-1.3.4-.3 0-.3-.3-.7-.2-.4 0-1 0-1 .2-.5-.2-.7-.2-1 0-.4 0-.5 0-.7-.2h-.5-.4c-.2 0-.5 0-.7.2l-1.3-.2h-2c-.2 0-.3 0-.3.2h-.3-.9a.8.8 0 0 1-.4 0s-.2 0-.3.2h-.7c-.3 0-.3-.3-.6-.2-.4 0-.7 0-1 .2l-1-.3c-.5 0-1 0-1.3-.2-.3 0-.5 0-.6.3h-.8c-.3.2-.4 0-.6 0h-.4c-.3 0-.7 0-1-.3h-1.8c0 .3-.7.2-.7.5h-.8c-.3 0-.4-.3-.6-.2h-.5-.2-.5c0 .3-.4 0-.4.4-.7 0-.8.2-1.4 0-.4.2-.3-.2-.6-.2h-1c-.2 0-.4 0-.6-.2h-1c-.3 0-.8.3-1 0h-.2V2l-.6.2c-.3 0-.5 0-.7-.2H127c-.3 0-.3.2-.6.3-.5 0-.3-.4-.8-.3 0 .2 0 .3-.4.3h-1s-.5-.3-.6 0h-1.4c-.2 0-.2-.3-.2-.4-.8 0-1.5 0-2-.2h-.5c0 .2-.3.2-.3.4h-1c-.4 0-.3-.2-.7 0-.2 0-.3 0-.3-.2h-.3c-.5 0-1 .2-1.6.4-.2 0 0-.2 0-.4l-.4-.2V2.4h-.6c-.6 0-.5.2-1 0 0 .2 0 0-.3 0 0 0-.2 0-.2-.2h-.7c-.4 0-.2-.4-.7-.3 0 0-.2.2-.6.2h-.2v.3c-.5 0-.4-.4-1-.2 0 .2-.4 0-.2.5-.3 0-.4-.3-.7-.3H107c-.2-.2-.3 0-.5 0 0 0-.4 0-.4-.2h-1.8-.3c-.3 0-.5 0-.6.2-.4 0-.2-.3-.7-.2v.4c-.6 0-.7-.2-1-.4-.3 0-.2.2-.5.2 0 0-.2 0-.3-.2h-.5-.4-.2c-.4 0-.7 0-1-.3-.2 0-.2.2-.5.2h-1c-.7 0-.6.4-1 .5-.5 0-.8-.4-1 0 0 0-.4 0-.3-.3-.4 0-.3.2-.6.3-.2-.2-.4-.2-.8-.2l-.4.2h-1.6c-.2 0-.3 0-.3-.2H91c-.3 0-.7 0-1-.2h-.3c-.2 0-.3 0-.3.2-.4 0-.3-.3-.7-.2h-2c-.5 0-.5.3-.8.4-.5 0-.5-.2-.8-.2h-1.5s-.2 0-.3.3c0 0 0 .2-.3.2 0 .3-.3.4-.3.8 0 .2 0 .3.3.3.2.2.2.4.4.4 0 .2 0 .3-.3.4v.8l.3.3c0 .2-.2.2-.2.3.2.2.3.2.3.4s-.2.2-.2.3c0 .2.3.3.3.4V7.7s.2 0 0 .3v.5h.7v1c.3 0 0 .4.5.3 0 .2.2.4.4.4-.2.3.2.3 0 .6.3 0 .4.3.8.3 0 .3.2.6.5.7 0 .3.6.2.5.6l.6.2c0 .4.3.4.3.8h.7c.3 0 0 .4.4.4l.2.5v.2c.2 0 .3 0 .3.2v.2h.3v.6c0 .5-.6.5-.8 1v.2h-.4c-.2 0-.2.3-.4.3v.4l-.3.3c-.2 0 0 .2-.3.2v.8l-.2.4s0 .2-.3.2v.4c-.2 0-.2.3-.4.4v.3h-.7c0 .2-.2.4-.4.4v.4c0 .3-.5.2-.7.4 0 .4-.5.3-.5.6-.2.4 0 .4 0 .7.2.6 0 .7 0 1 .2.2 0 .5.2.5 0 .4.7 0 .6.5 0 .3 0 .5-.3.5 0 .2-.2.3-.3.5 0 .8.5 1 .3 2 0 .2-.4 0-.3.5 0 .3-.2.2 0 .6v.3c.2 0 .2 0 .2.2h.5c0 .4.5.4.4 1-.2.5-.8.6-1.3.8 0 .4.3.5.2 1 .2 0 0 .4.3.4 0 .4-.4.2-.3.6 0 0 0 .3-.3.3v1s.2 0 .2.2V36c0 .3-.4.3-.5.4 0 .2-.3.3-.3.5s.3.2.4.3c0 .2-.2.2 0 .5v.4s-.4 0-.4.2c-.2 0 0 .2-.3.2 0 .2 0 .4.5.4 0 0 .3.2.7 0 .4.3 1 .4 1.4.5.3 0 .7.2.8.5.5 0 .7.2 1 0 .3.2.4.4.6.4.2 0 .3 0 .3.4 0 0 .2 0 .3.2 0 .3.3.4.3 1 0 0 .2 0 0 .4.3 0 .4.2.4.5h.6c0 .2.2.2.3.2l.3.2V44.7c.2 0 0 .2.2.4l.8.7c0 .3.5.2.5.4.2 0 .2.3.2.3s.2 0 .2.2l.7.2c.3.2.2.6.4.8l.6-.2c0 .3-.3.3-.2.7.2 0 0 .3.2.5.3 0 .6.2.8.3 0 .2 0 .4-.2.4v.4c0 .3-.4.3-.5.6 0 .4.4.5.3 1 .3 0 .4.4.7.5-.2.5.4.4.3 1 .4 0 .4.5 1 .6l-1 .7v.8c.3 0 .2 0 .3.2v.2h.6v.6h.3v.2c.2 0 .2.3.4.3 0 .2-.3.2-.3.4 0 0 .2 0 .2.2 0 0 .2-.2.5-.2h.6c0 .3 0 .5.2.5 0 .4-.6.3-.4.8 0 .4 0 .4.3.4.2.3 0 .3 0 .6.6.2.7.7 1.4 1 0 0 .2 0 0 .4.3 0 .2.2.4.2 0 .4.5.4.3 1 .5 0 .6 0 .7.3 0 .3 0 .4-.2.7 0 .3.3.4.2.8.3 0 .3.4.4.7.5 0 .6.2 1 0v1.3h.2c0 .2-.2.2-.2.3.2 0 0 .2.2.3v.7c.2 0 .4 0 .4.2v.2c0 .3.4.3.4.5V68.8s-.4 0-.4.3l-.4.2c-.3 0-.3.3-.8.2 0 .6.5.4.5 1 0 .3-.4.3-.4.5s.2.3.4.4c0 .3-.6 0-.4.5.3 0 .4.3.4.5 0 .3.4.3.4.5 0 .3-.4 0-.4.4h-.3v.3c-.2.3 0 .2 0 .6 0 .2 0 .3.2.5 0 .3-.5.4-.7.6 0 .3 0 .3-.2.5 0 .2-.4 0-.5.4l-.7.4c0 .2 0 .4.2.6h-1.5c0 .5-.2.6-.3.8 0 .4.4.4.4.7 0 .3 0 .3-.2.4-.2 0-.2.3-.2.5h1l1 .5c0 .2.6 0 .6.4.5-.2 1 0 1.2 0h4.4c.5.2.7 0 1 0 .4 0 .8.2 1.5 0h.8c.3 0 1 .2 1.4 0h2.5c.5 0 1-.2 1.5 0h.5c.4-.2.7.3.8 0h1c0 .3.5 0 .7.2.3.2.3 0 .6 0s1-.3 1.3-.2h1.6c.2 0 .4 0 .4.2h.3c.2 0 .3 0 .3-.2h.6c.4 0 .4.3.7.3.3 0 .7 0 1-.2l1 .5c.4 0 .4 0 .4-.3h.4c.5-.2.4 0 .8 0h1.1c1 0 1.8 0 2.7-.2.4 0 .2.4.6.3h.5c.4 0 .3-.2.5-.3.3 0 .4.3 1 .2h2.3c0 .3.2.2.3.3 0 0 .3 0 .3.2h.2c.5.2.3-.2.8 0V81c0 .3.6.3.8 0 .4 0 .4.3.8.2h.5c.6-.2 1 0 1.6 0l.4-.2h8.7c.3 0 .4.2.8 0 .2.2.6 0 .5.5.3 0 .2-.4.6-.3.6.2.7 0 1.3 0h.2c.4 0 .7 0 .7-.2.2 0 1 .2 1.2 0 .4 0 .3.2.6.2h1.3c.4 0 1 0 1 .3l1.2-.4h.6s.2 0 .2.2c.3 0 .2-.3.6-.2.3 0 .4 0 .6-.2.2 0 .8.2.7 0h.4c0 .2.3 0 .3.3h.8c.4 0 .6.4.7.6.4 0 .6-.4 1-.4H168.8s.2 0 .2-.2c.3.2 1 0 1.6 0 .2 0 .4 0 .4.2h1.6c.4 0 .2.4.6.3 0-.2.4 0 .6-.2h.3c0-.2 0-.2.2-.2h.7c.2 0 .5.2.6 0h.3c.2 0 .3 0 .4.2.2 0 .3.2.5 0-.2-.2.6.2.5 0 .3 0 .6 0 .6-.2h1.9c.4 0 .6.3 1.2.2h.3c0-.5.7 0 .6-.4.3 0 .3.2.5.2 0 0 0-.2.3-.2 0 0 0 .2.3.2.4 0 .2.3.5.3 0 .3.2.3.2.5.4 0 .3-.2.6-.2V81c.4 0 .2.6.2.8.3 0 1 .2 1 0l.4-.3h.2c.3 0 .3-.5.7-.5h1l.3.2H189v.3h1.4v-.4c.5 0 .8 0 1 .2h.6c.5 0 .5.2 1 0 .5.2.3-.2.6-.2h2.9c.2 0 .3 0 .3-.2l.6.2H199.2c.2.2.4-.3.5 0h.6c.2 0 .6 0 .5.3h1c.2 0 .4 0 .4-.2h1.5c.2 0 .4.2.4.3.4 0 .6 0 .7-.2.4 0 0 .6.6.5.3 0 2 0 2-.4h.5c0-.2 0 0 0 0h2c.2 0 .5 0 .8-.2.2 0 .7.2.7 0 .5 0 .7.4 1 .4 0-.2.2-.3.3-.5.3 0 .2.4.6.3l.4-.2.3.2.4-.2s0 .2.3.2l.4-.2c.3 0 .3 0 .5.2.3 0 .4 0 .6-.2l1 .2h.7c.4 0 0 .5 0 .6l2 .2c.3 0 .6.2 1 0 .2 0 .8-.6 1-.7.4 0 .8.2 1 .3 1-.2 2.2 0 3-.3.3 0 .8 0 .6.6.5 0 .4-.4 1-.3.4 0 .5 0 .8-.2l.5.3c.2 0 .4 0 .5.3h1c.2-.3 0-.3-.3-.3 0 0-.3 0-.3-.2s.7 0 .6.2c.3 0 .4.3.7.3.5 0 .5-.2.8-.3h.7c.4.2.4-.2 1 0 .3-.2.5 0 1 0H235c.5-.2 1 0 1.3-.2.3 0 .8 0 1 .2.2 0 .4 0 .4-.2.3 0 .3-.2.5-.2.3 0 .6.2.7.4 0 0 .2 0 .2.2 0 .3 0 .3.3.3 0 0 0-.2-.2-.3 0 0 .2-.2.5-.2 0-.2.4 0 .4-.2h.8c.3 0 .7.3 1.3.2h.3v.5h.5c.7.3.2-.3.6-.3.3 0 .7 0 .7.3h.3c.2 0 .3-.2.3-.3 0 0 .3.2.3.4.2 0 .3 0 .3-.4h.6c.3 0 0 .2 0 .3l.2.4c.8.2 1.2 0 2 0 0-.2.2-.4 0-.7.7 0 1 .2 1.2.3h.6c0 .2 0 .3.3.3h3c.2 0 .3 0 .5-.2v-.3c-.2 0-.2-.2-.2-.3.3-.4.7 0 1.3 0h.4l.2.4h.3s.4 0 .4.2c.4 0 .7-.2 1.2 0 0-.2.2-.3 0-.3 0-.2 0-.3.2-.4h3c.6 0 .4.5 1 .4a1.2 1.2 0 0 1 .6-.4h.7c.6 0 1.5.2 2 0h3c.3.2 1.3.3 2 .2h2.7s.3-.2.4 0H276.8c.4 0 .3.2.3 0h.3c.2 0 .6 0 .5.2 0 .2.6.2.6 0s.2-.2.4-.2h.4c.5 0 .5.2 1 0 .4.2.2-.2.7 0V81c.3 0 .3-.2.4-.2.8.2 1.6.3 2.7.3.5 0 1 .3 1 0h2.9v.2h.2c.2-.2.2 0 .4 0h1l.6.2c0 .2 1 0 1-.2.3 0 .7-.2 1 0 .3 0 .3-.2.8 0 .2 0 .2 0 .3.4.4 0 .3-.3.6-.3 0 0 1.4 0 1.5-.2.3.2 1.8.4 1.4 0 .5 0 1.3-.2 1.7 0 1 0 2.4 0 3.2.2h.3c.2 0 .4 0 .5-.2h.8c.4 0 .4.2.8 0 .5 0 .3.5 1 .4V81h.4c.6.2 1.4 0 2 .3.3 0 .5 0 .8-.2l.4.2H312.2c.2-.2.2 0 .4 0h.3c0 .2.8-.2.7 0h.6s0-.2.3-.3h1.3l.4.2h1.4c.5 0 .7 0 1-.3.2 0 .5 0 .5-.2 0 0 .3.2.6 0 0 .2.4 0 .4.3H322.3c.4 0 .5 0 .8.2.5 0 .4-.4.8-.3h2.5v.2c.3 0 .3-.2.4 0 .2 0 .2 0 .2.2v.3s4 0 4-.6c.8 0 1.3.3 2.2.2 0 .3.2.3.2.4.3 0 1.2 0 1.4-.2 0 0 0-.2.3-.2h.6c0 .3.2.3.2.5.7 0 1.3 0 1.7.2h.6c.3 0 .4 0 .4-.2 0 0 .3 0 .3.3h.6c0-.3.2-.3.3-.6 0 0 0-.2.3-.2h.2c.3-.2.4 0 .5 0 0 0 .3 0 .3.2h.6l.6.5h.6s.3 0 .3.2c.3-.2.8 0 1-.3h.7c.3 0 .5 0 .6-.3.4 0 1 .4 1 .2-.2-.2 0-.3 0-.3h1.2c.5-.2.8 0 1 0 .3 0 .3-.3.3-.5 0 0 .3 0 .3-.3.4 0 .6 0 .7.2.4 0 .2.3.4.4h1l.6.3h.3v.2c.4 0 .6-.4.7 0 .3 0 .3-.3.5-.5h.4c.2 0 .6-.2.6 0 .2 0 0-.4.3-.4l-.2-.4c.5 0 1.2 0 1.5.3h.4c.2 0 .3 0 .3-.2.2 0 .2.2.3.2 0 .3.5 0 .5.4.2.6 1.4-.2 1.4-.4h.5c0 .3.2.2.4.2 0 .3.4.3.4.5h2.1c.6 0 .5-.4 1-.3v.2l.8-.8c.5 0 .6 0 .8.4.3 0 .2-.5.6-.5h1.5c.5 0 .5.3 1 .3h.2c0-.2 0-.2.2-.2H369c0 .2.2.2.2.2H373c.2 0 .4.2.5.4h.3v.2h.6c.2 0 .2-.2.3-.4.4 0 .3.2.7.2 0-.2.2-.3.4-.3.7 0 1.3.2 2 .3 0-.2.4 0 .4-.3 0 0 0-.2.3-.2a4 4 0 0 1 1.6.4h1.6s.2 0 .2-.2c0 0 0-.2.3-.3 1 0 1.5.2 2.4 0 .2 0 .3.2.3.4l.3.3c.5 0 .2-.4.3-.6.2.2.7 0 1 .3h1c.2 0 .4-.4.5 0 .2 0 .4-.2.4-.4l.5.2c0 .2 0 .2.3.2.2 0 0-.6.4-.6.7 0 1.2.2 2 .3.2 0 4.5.5 4.4.2h1.9c.2 0 .2-.2.4-.3h1l1-.2c.5 0 .2.5.7.4 0-.2.2-.3.3 0 .4 0 .3-.5.7-.5h.6c.3 0 .5 0 .5.2h.6c.2 0 0 0 .2-.2.5 0 .2.5.3.8.3 0 .7 0 1-.2 0 0 .2 0 .2-.2V81c.3 0 .5 0 .6-.2h.6c.2 0 0 .2.5 0h.4c.4.2.3-.2.7 0 .4 0 .7 0 .7-.4l.6.2a3.7 3.7 0 0 1 1.3-.2c.4 0 .5 0 .6-.3.4.2.4 0 .7 0 0-.2 0-.6.2-.8l1 .3V79c.3 0 .4-.4 1-.3 0 0 .2 0 .2-.2V78h-1c.2-.5.5-.8 1-1 0-.4-.4-.4-.4-.7h.4c.5 0 .4-.2.7-.2 0-.2-.2-.2-.6-.2H413.8c-.3 0-.6-.3-1-.4.2-.6 0-1-.2-1.3h.8c0-.5.3-.4.3-.6.3 0 .5-.4.6 0 .3 0 .2-.4.6-.3v-.3h-.3v-.3c.3 0 .2 0 0 0 .2-.3.3-.4.6-.4 0 0 0-.2.3-.3-.2-.2-.3-.4-.8-.3 0-.2.3 0 .3-.3h.4c0-.2.3-.3.6-.2 0-.4-.2-.4-.2-.7.6 0 .7.4 1.2.3h.5s.2 0 .3-.2c0-.4-1 0-1.2 0v-.7c0-.2 0-.4-.3-.5 0-.3.8 0 .7-.6 0-.5-.5-.3-.7-.5 0-.5.2-.4 0-.8 0-.2.3-.2.4-.2h.5c0-.6-.3-.7-.2-1.2-.2-.2-.5 0-.7-.3v-.5c.2-.3.4.2.6.2.2 0 .4 0 .6-.2h-.3v-.2c-.2 0-.3-.2-.4-.3-.2-.3-.6-.3-1-.5.2-.3.7-.2.6-.6-.4 0 0-.5-.6-.4-.3 0-.2-.3-.6-.2-.3 0-.3-.3-.4-.5h-.6l.3-.4h.6s.3 0 .3-.2V61l.4.2h.4l.2.2c.2 0 .4 0 .4-.2.4 0 1 .4 1.3.2 0-.2 0 0-.3-.2h-.7c-.3 0-.3-.4-.7-.3l-.5-.8 1.6.2.2-.3h-.3c0-.3-.3-.3-.5-.4 0-.5-.4-.6-.6-1-.2 0-.5 0-.7-.2V58h-.3c0-.3-.2-.3-.3-.5.2 0 0-.3 0-.4h.3l-.2-.5-1-.2v-1c-.2 0-.3-.3-.8-.3s-.6 0-1-.2c0-.2.3-.4.4-.4V54c0-.4.5-.5.8-.6 0-.4-.4-.3-.6-.5 0-.4.4-.2.4-.5s-.3-.3-.6-.3v-.5s0-.3-.3-.3c0-.4.3-.3.2-.7a.7.7 0 0 1-.4-.4h-.2c0-.2 0-.2-.2-.2 0-.3-.6-.4-.7-.7-.2-.5.4-.5.5-1 .2.3.4-.2.3-.2h-.2s0-.2-.4-.2v.4h-.7-.3c-.4 0 0-.6-.3-.5 0-.2-.2-.2-.3-.4a9.4 9.4 0 0 1 1.3-.3c0-.6.6-.7.5-1.4 0 0 0-.4.3-.4v-.5l.5-.2c-.2-.4.4-.4.3-.7 0-.2.2-.2.3-.2v-.4c.5 0 .5-.2.8 0v-.5c.4 0 .3-.5 1-.3-.2 0-.3-.2-.3-.4h-.4c.2-.3.2-.4.4-.4s0-.2 0-.2c0-.4.6-.5.7-.8.6 0 .6-.3 1-.2 0-.5.3-.5.6-.6V39c0-.2.7 0 .7-.4.5 0 .3-.3.6-.3 0-.4-.2-.6-.5-.5 0-.2 0-.5.4-.4l.2-.4c0-.3-.2-.4-.3-.6 0-.2 0-.5.2-.6.3 0 .5 0 .4-.4-.2 0-.5 0-.7-.2 0-.3.3-.4.2-.8 0 0 0-.2.3-.2V34c0-.3.6-.2.6-.5s-.2-.4-.7-.3c-.2-.2 0-.7-.4-.8 0-.4-.3-.5-.5-.6M245.2 56.4c.2-.3.5-.6.5-1.2.4-.3.6-.8.6-1V54l.6-1c.2-.2.6-.5.7-1.2.4-.4.5-.8.5-1 0 0 .2 0 .2.2 0 .3.2.6.4.8l.2.7c0 .3.2.6.4 1 0 .6.3 1 .5 1.4V57l-.2.5-.4.7h-.2c0 .2-.2.3-.3.5-.6 0-1 0-1.2.2l-1 .3a4 4 0 0 1-.5 0c-.5 0-.7 0-1-.2V59h-.3v-2.3s0-.2.2-.3m75-4.8h-.2l-1 .3h-.6l-.8.3h-.6l-.6.2h-.4c-.3 0-.8 0-1.2.2a.8.8 0 0 0-.5.4c-1 .3-2 .6-3 .5h-.2c-.3 0-.4 0-.7-.3l-1-.4c0-.5-.2-1-.4-1.2-.3-.4-.4-.6-.3-1V50c0-.3-.3-.5-.5-.8-.2-.3-.4-.6-.4-1 .2 0 .4-.2.5-.3 0-.2.2-.3.2-.3h8c.3.2.7.4 1.3.4.4.6 1 .8 1.2 1l.6.3.2.4h.3a1.6 1.6 0 0 0 .6.5c0 .2 0 .3.2.3v.2c-.3.2-.4.5-.5.7v.2zm-67-21.7l.5-.4c0-.2 0-.3-.5-.5l-.6-.3v-.2c-.6 0-1-.4-1-1-.5 0-1-.3-1.3-.5l-1.2-.6h-2.3a2 2 0 0 1-.4.2v.2l-.5.3-.2.2v.6h-.7c-.2 0-.3.3-.3.5l-.3.6c0 .2 0 .4.2.7 0 .4.3.8.2 1.5.4.3.6.8.7 1.3 0 .2.2.3.3.4h.2l.7 1c0 .2 0 .2.4.5l1 .8c0-.3.3-.5.5-.6l.2-.2v-.2l.5-1c.2 0 .3-.3.4-.5v-.4h.6c0-.2.2-.3.4-.5.3-.5.7-1 1.4-1.2.3-.5 1-.8 1.2-1" fill="#ffba00"/></g></svg>