<svg xmlns="http://www.w3.org/2000/svg" viewBox="0 0 637.95874 235.3875"><defs><clipPath id="a"><path d="M0 188.3h510.4V0H0v188.3z"/></clipPath></defs><g clip-path="url(#a)" transform="matrix(1.25 0 0 -1.25 0 235.39)"><path d="M464 155c.2-1 0-1.7-.3-2v-.4-.2c.2-.3.6-.8.5-1.7l-.2-1.2c-.2-.7-.3-1 0-2 0-.8-.3-1.4-.5-1.7 0-.5 0-1.4-.4-2 .2-1.2 0-2.2 0-3-.2-1-.3-2 0-3.2v-.4c-1-3.2-1.4-6-1-9.5.3-1.4-.6-2-1-2.3l-.3-1.2c0-.5 0-1-.4-1.4 0-.8-.3-1.3-.4-1.8l-.2-.2c0-.5.2-1-.3-1.6a4 4 0 0 0-.6-.4l-1.4-1-1-.2c-.4-.2-1-.6-2.2-.4a3.8 3.8 0 0 0-.8 0c-.7 0-1 0-1.5.2H451l-.4.6c-1 1.4-1.6 3-2.3 4.5v.3c-.2 1.5.2 2.5.5 3.3.2.8.4 1.4.3 2.3v.8c.5 1.4 1 2.6.7 4.3 0 1 .3 1.8.6 2.3.3.4.4.6.3 1v.4c0 1.2.4 2 .8 3v3.4c0 1 .3 2 .5 3 .4 2 .7 3.8.8 6-.3-.3-.6-.6-1-.7l-.4-.6v-.5l-.7-.4a3.3 3.3 0 0 1-1.4-1.4l-.3-.6h-.4v-.2c0-.4-.3-1.2-1-1.7a5.5 5.5 0 0 0-1.8-2v-.2c-.3-.5-.6-1.4-1.5-1.8a5.4 5.4 0 0 0-1.5-1.8c0-1.2-1-2-1.7-2.2v-.4c-.3-.5-.6-1.5-1.6-2-.2-.6-.7-1-1-1.3l-.3-.2v-.5l-.7-.3a3.3 3.3 0 0 1-1.4-1.5l-.2-.3c-.3-.7-.8-1.7-2.2-2a2 2 0 0 0-.4-.2v-.5l-.5-.2c0-.2-.3-.6-.6-.8-.2-.6-.6-1-.8-1l-.3-.4-1-1v-.6l-.6-.3-.4-.2v-.6l-.5-.2c-.2 0-.4-.2-.4-.3l-1-.8-1-.5c-2 0-3-.5-4.3-1l-.3-.2a5.3 5.3 0 0 0-1.3-.2c-1 0-1.6.3-2.2.5-.4.2-.8.4-1.2.4l-1 1-.3.8c-.3.6-.5 1.4-.5 2.4a3.2 3.2 0 0 0-.5 1.7l-.6 1.5c0 .5-.2 1 0 1.5v1c-.2.6-.2 1-.2 1.7a42.6 42.6 0 0 1 0 1.4c-.7 1-.7 2-.7 3.2V138c0 .5 0 .7-.2 1-.2.4-.5 1-.5 1.7s.2 1.4.3 2c.2.5.3 1 0 1.6v.5c.2.6 0 .8 0 1-.3.5-.5 1-.5 1.8l-.3 4.6c0 .2-.4.5-.5 1v1l-.2.5v-.2a4 4 0 0 0-.5-.4c0-1-.7-1.3-1-1.5l-.8-1-.7-1c-.3-.7-.6-1.4-1.4-2-.2-.4-.6-.7-.8-.8l-.6-1.4c-.4 0-.6-.4-.7-.7 0-.7-.7-1.2-1-1.4v-.7a3.6 3.6 0 0 0-1.3-2c0-.7-.3-1.4-.5-2-.2-.4-.3-.7-.3-1.2v-.3c-.2-.6-.5-1-.8-1.2v-.2l-.2-.7h-.4c0-.3-.3-.5-.4-.7 0-1.4-.4-2.6-.6-3.7-.3-1-.5-2-.6-3.3 0-2.8-1-4.6-2-6.3l-.6-.7h-.5l-1.4-.4c-1-.3-2-.6-3.7-.4h-1v.3h-.2c-.5 0-1-.2-1.6 0-.5 0-1 .4-1 .7h-.3l-1 1.4v3.8c0 2 0 4.2.4 6 0 1.3.4 2.2 1.2 2.8 0 .4.2 1 .5 1.2 0 1 .3 2 .6 2.6l.3 1.4v.8l.4.2v.2a6 6 0 0 0 0 .8v1h.4c0 .5.2 1 .4 1 0 1.3.5 2 .8 2.7.2.2.4.5.5 1 0 .7.3 1.3.5 2 .2.4.4 1 .3 1.5v.2c.2 1.7.7 3 1.2 4 0 1 .2 1.5.4 2v.4l.3.3v.2c0 .3.2.8.6 1.2 0 .5.3 1 .8 1.4a2.4 2.4 0 0 0 1.2 1.7c.5 1 1.5 2.2 3.5 2.5 2.8 0 4.2-1.3 5-2.6.3 0 .5.4.6.7.3.4.5 1 1 1.2 0 .5.3.8.6 1 .2.5.5 1 1 1.2l.6.5v.5l1 .2.4.4c.4.3 1 .8 2 .8 1.8.2 2.8-.2 3.8-.6l.7-.2.5-.2.3-.3a5.7 5.7 0 0 1 2-2l.5-.2.2-.4 1-3 .8-2.8v-.3c0-1.4.4-2.5.7-3.7l.6-2 .3-6.4c0-.8.3-1.7.5-2.5.7-3 1.4-6 1.5-9.4l.7.2v.2c.3.4.6.8 1.2 1 0 .4 0 .7.3 1l.4.4h.2c0 .2 0 .4.3.6l.3.4.5.5h.2c.2.3.4.4.6.5l.3.6.5.5.4.5h.2c0 .2 0 .4.3.6l.4.4.3.5h.4c0 .3.3.7.8 1l.6.7c.2.5.4 1 .8 1 .3.7.8 1.7 2 2 .2.5.4 1.3 1.2 1.8.2.5.6.8 1 1l.2.3v.2c.3 1 1 1.7 1.7 2.2.5.6 1 1 1 1.6v.5l.4.3a12.5 12.5 0 0 1 3 3.4l.2.4h.3c.4.3.6.7 1 1.4.4.6.8 1.4 1.5 2 0 1 .5 1.5 1 2l.3.5c0 1 .3 1.5.6 2 .2.3.3.4.2.6v.8l.5.4 1.5 1 1.2 1 .7.6v.5l.8.2a3 3 0 0 0 2.4-.2c.3-.2.4-.2.6 0l1.4-1s.2 0 .6-.4c.5-.2 1.3-.8 1.5-2 .3-.2.4-.6.5-.8h.5v-1c.2-.3.2-.5.2-.8v-.2h.4v-1-1.5c.2-1.6.2-3.4.7-4.5l.3-.4v-.5c-.4-1-.5-2.3-.3-4.3m-83.8 8.3c0-.6 0-1-.3-1.4l-.2-.4-.5-1.2a2.4 2.4 0 0 0-.3-.7c0-.8-.7-1.4-1.8-1.7h-.2l-1-1a6.5 6.5 0 0 0-1.2 0c-1.3 0-2 .4-2.8.8-.6.3-1 .5-1.6.5a27.5 27.5 0 0 0-3 0c-1.8 0-3.6 0-5.3.3-.6 0-1.2 0-2 .2l-.6-.3c-.6-.2-1.3-.5-2.3-.4a2.2 2.2 0 0 0-.2 0v-1h-2.5a6.5 6.5 0 0 0-1.2 0c-1 0-1.7.2-2.3.4l-1.6.4-1-.3c-.5-.2-1.2-.5-2-.5-.7-.4-1.5-.5-2-.5h-.8a2.2 2.2 0 0 0-1-.5v-.2l-.2-.7h-.4c0-.3-.3-.7-.8-1V151.4c-.3-.3-.4-.5-.4-.8 0-.4.2-1.4-.3-2 0-.8 0-1.3-.3-1.6v-.2h2.5c1.2.3 2 0 2.6 0 .4-.3.6-.3 1-.3h1.2c.5.2 1 .2 1.4.2.5 0 1.2 0 2-.4h2.2c.7 0 1 0 1.4-.4l3.4-.4c3.4-.3 7-.6 10.8-.4h.3l1.2-.3c.8-.2 1.6-.3 2.3-.6h2.2l2.3.3c1.2 0 2-.2 2.7-.6l.5-.2v-.5c.4-2.5-.5-4.3-2.7-5.2-1-.7-2.7-.8-4.3-.8h-2c-.6 0-1-.3-1.4-.5-.6-.4-1.4-.8-2.6-.8a7.6 7.6 0 0 1-.7 0c-1 0-1.6-.3-2.4-.5l-.8-.3h-.3c-1 .3-2.4.4-3.6.4-1.8 0-3.3-.3-4.2-.7h-.2a4 4 0 0 0-1-.3c-.8 0-1.4.4-1.8.7-.4.2-.5.3-1 .2-.5 0-.8 0-1.2-.3-.7-.2-1.5-.6-3-.3h-.6v.4h-2.4c-1-.4-2-.2-2.7 0l-1.4.2h-.3c-.7 0-1.2 0-1.8-.3a7.2 7.2 0 0 0-1-.4c-.3-.2-.5-.5-.6-1.5 0-.8-.3-1.2-.5-1.5a1.8 1.8 0 0 1 0-.3v-.2c0-.5-.2-.8-.4-1 0-1-.6-1.4-1-1.7l-.3-1.3v-1.3h1c.6 0 1 0 1.2-.4l8 .4c.5 0 .7 0 1 .3.6.2 1.3.6 2.5.4h.6c.7 0 1.8 0 2 .2l.2.3h.4c1 .2 1.8 0 2.3-.2.4-.2.6-.2 1 0 2.2.6 5 .7 8 .8l1 .2.2-.5h1.1c.3-.3.4-.4.7-.4h.4l.4-.2h.5c.7-.3 2.2-.8 2-2.6.6-2-1-2.7-1.4-3h-.4c-1-1-2.2-1-3.5-1v-.2c-.3-.4-.7-1-1.4-1.2l-1.4-.6c-.3 0-.7-.2-.8-.3l-.3-.2h-.6v-.5l-8-.4c-.5-.3-1.2-.5-2-.7-1-.2-2-.5-2.8-1l-.3-.2h-1.5l-.4.2a1.6 1.6 0 0 0-.8-.2h-.3a1 1 0 0 1-.3 0h-.2c-.3-.3-.8-.7-1.7-.6-.8 0-1.8 0-2.7-.2-2 0-4 0-5-.6l-.4-.2h-.4c-2.2.3-3.4.2-5.4 0-.5-.2-1-.2-1.7-.3h-.6l-.4.4h-.6c-.5.2-1.7.4-2 1.4-.5.2-1 .5-1 1-.3 0-.5.3-.6.5l-.8 1.3.3 1.2v2c-.2 1 .2 1.8.5 2.3.3.4.3.5.3.8v.8c.8 1.8 1.5 3.4 1.6 5.5v1h.5v1.2h.4l.4.2.4.7c0 1 .4 1.6.6 2l.3.7c.2 1 0 1.7-.4 2.5-.5 1-1 2-.8 3.7v.8h.4c.2.8.4 1.2.8 1.4.3.7.8 1 1.5 1.2.3.5.6 1 1 1l.5.7c0 1 .3 1.7.6 2 0 .3.2.4.2.5-.2 1 0 1.6.4 2-.2 1 .2 1.7.4 2 0 .7 0 1.2.4 1.5 0 .6.3 1 .5 1.2v.4l-.2.5.3.6c.2.2.2.5.3 1 0 .3 0 .8.3 1.2 0 1 .4 1.6.8 2.2 0 1 .8 1.4 1 1.6l.7 1.4c.4.2.7.5.8 1l1.2.7h.3c.2.3.7.7 1.5.7l.8.3 21 1.7 4.7.7c2.2.3 4.4.5 5.8 1.3h.3c1.2.3 2 0 2.7 0 .3-.2.6-.3 1-.3h.4c1.4.4 2.3 0 3-.4.2-.3.4-.3.7-.3l1.3-1.3.3-.5c.3-.2.4-.4.5-.6l.8-1.3c0-.5 0-.6.2-1 .3-.5.6-1.2.4-2.4m-77.5-17.7v-2c-.3-1.5-.4-3 0-4.7l-.5-1.3a5 5 0 0 0 0-.6v-.7h-.5v-1.7h-.4v-1.3h-.4l-.2-.3v-.7h-.4c-.2-.4-.4-.8-.8-1v-.2l-1-1a18.4 18.4 0 0 1-.2-.4 4.5 4.5 0 0 0-.4-1c-.4-1-1-1.5-1.6-2-.5-.6-1-1-1-1.5l-.4-.4h-.4c-.2-.4-.6-.7-1.3-.8-.5-.5-1-.7-1.3-.8l-.3-.4c-.3-.3-.8-.5-1-.6h-.2v-.2l-.2-.2c-.3-.4-.8-.6-1-.7h-.2l-1.3-.8a1 1 0 0 1-.2 0h-.2c-.2-.3-.6-.6-1.3-.7a3.3 3.3 0 0 0-.7-.3l-1.2-.7-.2-.2c-.2 0-.6-.4-1.2-.4-.2-.3-.4-.4-.6-.4l-1.4-.8c-1.6 0-2.8-.4-4-.7-.7 0-1.3-.3-2-.5a2.7 2.7 0 0 0-.4 0c-.7 0-1 .2-1.3.4-.7-.2-1.2 0-1.6.3h-.8c-.6 0-1.4 0-2 .4l-2.4.7c-1 .3-1.6.5-2.6.5h-1.2v.6c-.8 0-1.2.5-1.5 1a2.3 2.3 0 0 0-.8.6l-1.6.4h-.3c-.7 0-1 .2-1.3.5v.2c-.7.3-1 1-1 1.3h-.5l-.3.8v1.4l-.6.8v.5c0 .5.2.8.3 1 0 .7 0 1.6.4 2 0 .7 0 1.3.4 1.7 0 .7.4 1.2.6 1.5.3.3.3.4.3.7v.3c0 .6.4 1 .6 1.3.2.5.3.7.2 1.2l.5 1.3c0 .3.2.5.4.8 0 .4.3.7.4.8v.3l.6 1c.3.6.4.8.3 1.4l.7 1.3c.3 0 .5.3.7 1.6v.2l.3.3.3.8c0 .5.3 1 .8 1.6.2 1.8.6 3.4 1.2 5-.2 1.3.5 2 1 2l-.2.5v.3l.6 1.2.4.8.6 3c.5 2.6 1 5.3 2 7.6.2 1 1 1.7 2 2.2l5 .3.3-.5c.3 0 .6-.3 1-.6 0-.3.4-.6.5-1 .4-.4.6-1 .7-1.2 1.6.3 2.8.4 4.2.4h2.6c1 0 1.7-.4 2-.7.6-.3.8-.3 1.2-.2l1.3-.4H289.4l.8-.2v-.3h.7l1-1c.5 0 1.3-.4 1.7-1l1-1 .3-.3 1.5-1.3c.3-.3 1-.7 1-1.6.6-.4.8-1 1-1.3l.7-1.2c0-.3 0-.4.3-.8.3-.3.6-.7.7-1.2.3-.2.6-.6.6-1.3l.6-1c0-2.2.4-3.7 1-5.3 0-.4 0-.8.3-1.3v-.4zM244.5 167v-.2c0-.6 0-1.4-.4-2 0-.5 0-1-.4-1.5 0-.6 0-1.2-.5-1.6 0-.4 0-.7-.2-1 0-.3 0-.7-.3-1v-.2l-.2-.5a1 1 0 0 0-.4-.6v-.8a1.2 1.2 0 0 0-.5-.7V155h-.4l-.2-1.2h-.4c-.2-.2-.2-.3-.2-.6v-.8l-.7-.3c-.3 0-.6-.4-.7-1.6v-.6l-.5-.2-.3-.5c-.2-.4-.5-1-1-1.4-.3-1-.6-2-1.7-2.7 0-.4-.2-.8-.6-1.2 0-.4 0-1-.4-1.5a2.3 2.3 0 0 0-.4-1v-.7h-.6c-.2-.4-.4-.8-.7-1a22 22 0 0 0-.8-1.8c-.6-1-1-2-1.3-3v-.7l-.7-.3c-.2 0-.2 0-.2-.3v-.8l-.5-.4c-.2 0-.4-.2-.4-.3l-.2-.7h-.4c0-.4-.4-.8-.7-1a2.6 2.6 0 0 0-.6-.8c0-1.3-1.2-1.8-1.7-2-.2-1-1-1.5-1.2-1.8l-.2-.2v-1h-1c-.5 0-1-.3-1.4-.6-.6-.3-1.4-.7-2.5-.7l-1-.4v-.5l-4.4-.2-.2.5c-.3.2-.7.4-1 .8a1 1 0 0 1-.3 0l-1.3 1.4c-.3.3-1 .7-1 1.5-.5.3-1 .7-1 1.4v.5h-.7v1.5h-.6v1h-.3v.8c-.2 1-.6 1.6-1 2.3v.3c-.4.5-.7 1-.8 2h-.4v1l-1 2.8-1 2.8c0 .4-.2.7-.4 1-.3.5-.7 1-1 1.8-.7.4-1 1.2-1.2 1.7 0 .2-.2.5-.3.5l-.8 1c0 1.6-.7 1.8-1 2l-.7.2v.6c-.3 0-.6.3-.8.8 0-.2 0-.5-.2-.7 0-.6-.2-1.3-.5-1.8.2-2-.3-3.2-.7-4.2l-.2-.7v-1.4c0-1-.2-2-.7-3-.3-.7-.4-1.8-.5-3v-1a2 2 0 0 0-.5-1c0-.6-.2-1-.5-1.5 0-.4 0-1.3-.4-2 0-.8-.3-1.5-.5-2-.4-.5-.6-.8-.4-1.5V128c-.4-1-.6-2.4-1-3.8-.2-1.6-.5-3.3-1-4.8h-.2v-.3c-1-1-1.7-1-2.4-1a3.4 3.4 0 0 1-.7 0h-.2c-.3-.4-1-1-2.4-.7a6 6 0 0 0-1 0c-.6 0-1.2 0-1.8.4-1.3 0-2 .5-2.6 1.3-.6.7-.8 1.5-1 2.7v.5c0 .5 0 1.6.7 2.2.2 1.2.2 2.3 0 3.6l.4 1c0 .7.3 1 .5 1.3 0 .4.2.7.3 1 0 .6.3 1 .4 1.4 0 .5 0 1.5.5 2 0 1 .3 1.8.5 2.5l.3.6c0 1 .3 1.5.6 2 .2.3.3.4.2.7v.4l.4 1.6c.4 1.6.8 3 .7 5v1h.4c0 .5.2 1 .4 1 0 .6 0 1 .4 1.5 0 1 0 1.7.2 2.3l.2 1c0 .8 0 1.4-.2 1.7-.7.2-1.7 1-1.5 3v1h.8c.2.4.5 1 1.4 1.2 0 .3.2.7.5 1 .2 1 1 1.6 1.3 2 .4.3.5.4.5.6l.2.8h.7c.4.2.8.2 1.2.2h.4l.8.5h1.7c.2.4.5.6.7.6 1 .2 1.8 0 2.2-.3.4-.2.5-.2 1 0 1 0 1.7-.3 2.2-1h.2v-.3h.2c.4 0 1-.3 1.4-1 1-.2 2-.7 2.5-1.7.5-.3 1-.7 1.2-1 .3-.4.5-.6.7-.6l.8-1v-.4c.2 0 .3-.3.4-.5.3 0 .5 0 .6-.2l1-1.2c0-.3.2-.4.5-.8.2-.3.5-.7.7-1.3v-.3c0-.3 0-.4.4-.8.2-.3.5-.7.7-1.3l.4-.4c.2-.3.5-.7.7-1.3.7-.3 1-1 1-1.2l.8-1c-.2-1.4.2-2 .8-3l.2-.3c.7-1.5 1-2.8 1.3-4l.7-1.4c.3-.7.5-1.3.8-1.7.3-.3.5-.7.6-1l.6-.2v-.4h.4c.2 0 .5 0 .5.2v1h.7c0 .5.3 1.4 1 1.8l.4 1c.3 1 .7 2 1.5 2.7 0 1 .7 1.4 1 1.6l.5 1.4c0 .3.3.7.7 1h.2c0 1 .7 1.6 1 2l.4.2.8 1 .5 1c.2.6.5 1 .8 1.5l.2.5v.5l.6.3s.2 0 .3.2c0 .6 0 1 .4 1.4 0 .8.4 1.3.6 1.6 0 .3.2.4.3.6v.8h.4v.2c0 .4.3.7.4 1 0 .5.3 1 .4 1.3.2.4.3.5 0 1 0 1 .3 1.6.4 2 0 .5.2 1 .4 1.4 0 1.7.5 2.8 1 3.7 0 .5.3.8.4 1.2l.2.7h.7c.8 0 1.5.5 2.3 1h.8c2 0 4-.4 5.5-1.2l.8-.4v-.6h.6v-1h.2l.2-.7c.3-1 0-1.6-.3-2M161 142l-.3-.6c0-.4-.4-.6-.7-.7a1.7 1.7 0 0 0 0-.6l-.3-.7h-.2v-.2l-.3-1h-.2v-.2h-1.4c0-1 0-1.6-.3-2 0-.4-.2-.6 0-1v-.4-.7c0-1 .2-2.2-.3-3 .2-1.4 0-2.5 0-3.5-.3-1-.4-1.8-.2-3s-.3-2-.6-2.4c-.2-.3-.3-.4-.2-.7v-1h-.4v-.8a2 2 0 0 0-.5-.8h.2v-.3c-.5-1-1.2-1.6-2-2.2a1.2 1.2 0 0 0-.2-.7 1.3 1.3 0 0 0-1-.3 1 1 0 0 0-.4-.4c-.4-.2-.8-.2-1.2 0h-.3l-1.3.3h-.3l-1 .3h-.2l-.2 1.2c0 .2 0 .3-.2.3l-.8 1.2c0 1-.3 1.7-.7 2.5 0 .3-.3.5-.4.8l-.2.4v.3c.3 1 .3 2.5.3 3.8 0 1.4 0 3 .4 4.2.4 1.8.3 4.6 0 7.4l-1 .5h-1.8c-1.3 0-2-.2-3-.5l-.8-.2-5-.3c-.4-.5-1.3-.5-1.8-.6h-.8c-.2 0-.3 0-.6-.3l-.7-.3h-.2c-.7-.5-.7-.5-.6-1v-.2c0-.6-.4-1-.6-1.4-.3-.3-.3-.5-.3-.8l-.5-1c0-.4-.3-.8-.7-1v-.5l-.6-1.2-.4-.8v-.2c-.3-.4-.4-.5-.4-.8.2-.8 0-1.4-.4-1.8 0-.6-.3-1.3-1-2a2.2 2.2 0 0 0-.3-1c0-.6-.2-1-.5-1.4 0-1-.6-1.4-1-1.6v-.8l-1.2-.5c-1-.3-2-.6-3.2-.6-.5-.5-1.3-.6-1.7-.6h-.5l-1-.2-.3.6h-.2H113.4l-.3.6-.7 1.4-1 1.5v.3c-.3 1.6 0 2.8.2 4v.3c0 .7.4 1.4.6 2 .3.4.4.8.4 1.3v.3l.2.4.3.8c0 .6 0 1.3.6 2 0 .2-.3.5-.6 1-.5.7-1.2 1.8-1 3.8-.3 1.7.5 2.6 1.3 3 0 1 .6 1.5 1 1.7l.6 1.4c.2 0 .4.3.7.5l.6.3c.3.6 1 .8 1.2 1v.6l.7.3c.3.3.7.6 1.3.7l1.3.5c0 .2.4.6.8 1l.6 1.2c.4.8.8 1.5 1 2.4V151.7c.2.2.3.6.4 1l.4 1.2c0 1 .3 1.7.8 2.2-.2 1.3 0 2.2.4 3 .2.6.4 1 .4 2v.3l.3 1.6c0 1.3.2 2.6 1 3.7l.4.5h.8c.4.4 1 1 2 1H134.7l1.2.8c.2 0 .3.2.5.3.4.8 1.3 1 1.8 1l.5.2v.5h.8c.6.2 1 .3 1.6.3 1 0 1.7-.3 2.4-.5s1.2-.3 2-.3h1l.2-.7c.8-.2 1.3-.5 1.5-1 .3 0 .4-.2.6-.3l.8-.4h.3l.2-.2.7-1.3c0-.3.3-.8.5-.8l.6-1.2.4-.5.4-.6h.6l.2-1c.2-.8.5-1.5 1-2.2l.2-.6v-.3c.2-.3.5-.7.5-1.3l.7-1c0-1.8.2-3 .6-4.3.4-1.3.8-2.7.8-4.6 0-.2 0-.3 1.4-.5l.8-.2.3-.4c0-.4.4-.6.6-1 .5-.4 1-1 1.2-1.7l.2-.5v-.2c0-.3 0-1-.5-1.5m-51.3 17.5h-1a7 7 0 0 0-.8 0h-.4v-.2l-.4-.3c-.4-.3-1-.7-2-.8h-9.6l-7 .2-1-.5c-.4-.5-1-1-2-1-.3-1-.7-2-.8-3.3v-.7h-.4v-.4a6 6 0 0 0 0-.8v-.8H84v-.4-1.8h-.4v-.2c0-.4-.3-.6-.5-.8.2-.6 0-1-.2-1.4v-.7l-.3-.4s-.2-.4-.2-1.2l-.4-1c-.2-.6-.3-1-.5-1.2.2-2-.3-3.2-.8-4.2 0-1-.2-1.8-.5-2.4L80 134c0-1.3-.3-2-.6-2.8 0-.4-.3-.8-.3-1.3v-1l-.3-.2v-.2l-.3-1H78v-.2c-.2-.3-.3-.8-.7-1 0-2-.4-3.3-.8-4.6-.4-1-.7-2.2-.8-3.5v-.8h-.4v-.4a8.2 8.2 0 0 0 0-.7v-.3l-.2-.3v-1.2l-.5-1c0-.6-.2-1-.4-1.2 0-.6 0-1-.2-1.3l-.2-.3-1-1H72c-.2-.2-.5-.4-1-.5v-.5H70c-2.5 0-4 1-5.5 1.8l-.3.2-.2.4c-.6 1.6-.8 3.2-.8 5v.2l.4 1c.3.7.5 1.3.4 2v.3l.2.7c.2 1 .4 1.8 0 3l.6 1.2c0 .5.2.8.4 1 0 .6 0 1 .4 1.6 0 1.2.3 2 .6 3l.2.5c0 1 .4 1.6.6 2 .3.4.4.6.3 1l.4 1.4c0 .4.2.8.5 1 0 .5.2.7.3 1 0 .6.2 1 .4 1.3v.4l.5 1.2a2.2 2.2 0 0 0 .3.5c0 1 0 2 .2 3v1.4l.2 1h.4c0 .6-.2 1.2 0 1.7l.2.6c.2.6.4 1 .7 1.3 0 .7.3 1.3.7 1.8 0 .6.2 1 .4 1.4v.2c0 1 .4 1.5.6 2 0 .4.2.6.3 1-.5-.3-1.3-.7-2.5-.4h-.3c-.4 0-.6 0-1-.3-.6-.3-1.3-.6-2.5-.4-2.5-.2-4.5-.7-6.6-1.3l-1-.2c-1.2-.3-2.5-.8-3.7-1.3l-2.7-1c-1-.6-2-.7-3.4-.7h-.6a1.3 1.3 0 0 0-1-.4l-.7.4h-.2l-.3.2c-.3.2-.5.2-.7.2L45 152l-.2.8c-.3.3-.6.7-.7 1.3V155.4c0 .7-.3 1.5.3 2.2v1.2l.2.3c.3.4.7.6 1 .7 0 .4.3.8.7 1 .2.3.4.4.7.4 0 .3.2.4.4.5h1c.3.3.6.5 1 .6.4.2.7.2 1 .2h.4c.4 0 .7.3.8.4l1 .7c1 0 1.5.2 2.2.5l1.5.6c.2.2.6.5 1.2.6.3.2.7.6 1.4.6h.7c.2.3.5.4 1 .5v.2l10.4.5 5.6 1 1.8.3v.3c.3.4.7.8 1.3 1 0 .3.3.5.5.6v.6l4 .2.8.2c1 0 1.5-.6 1.8-1h.2l1.2-.2-.2-1c.2 0 .5 0 .7-.2l4.2.2c2.2-.5 4.5-.8 6.8-1l3-.5c.8 0 1.3-.2 1.7-.4v-.2h.4v.2h.3c1.2 0 2.2-.5 2.7-1.2.3 0 .6 0 1-.2 1 0 3-.5 3-3v-1h-.5v-.2l-.2-1-1.6-1zm399.6-5c.5 0 .8 0 1 .2.2.6-.7.5-.6 1 0 .2.3.3.2.5-.2.4-1 .4-1 .8.2.2.4.3.3.6 0 .3-.8.2-.8.5 0 .4.5.5.4 1 0 .2-.6.2-.7.5.2.2.6.3.4.8-.3 0-.4.2-.8 0h-1c0 .3.2.2.3.3l.2.2h.2v.3h.2v.4c-.3 0-.3 0-.3.3 0 0-.3.2-.2.4 0 .5.6.4.4 1-.3 0-.4.3-1 .3h-.3c0 .3 0 .4-.2.5-.3 0-.8 0-.8.2-.3 0-.3.3-.5.4.2.3.8.3.7.8 0 .2-1 .4-.3.5 0 .5-.6.4-.7.7.3 0 .4.2.7.3 0 .2.2.2 0 .4-.4 0-.7 0-1 .2 0 .2-.6 0-.5.4.3.4.7.6 1.3.7-.3.7.6.7.6 1.2s-.3.7 0 1.3c-.4 0-.5 0-.5.2s-.4.3-.5.4c.2.6-.3.7-.2 1.3 0 .2-.3.2-.4.4-.3 0-.2.4-.4.5 0 .2.6 0 .4.5v1.5h-.5c-.3.2-.6 0-.6.3 0 .2.3.2.2.4-.4 0-.7 0-.8.3.3 0 .5.2.6.4.5 0 .4.2.4.5l-.4.2-.6-.2h-.5c-.2 0-.3-.3-.6-.2v.2c.4 0 .3.3.3.3v1h-.4c-.2 0-.4 0-.4.2l.4.2h1s.2.4.4.4c.2.2.6.3 1 .2 0 .2 0 .3-.2.5-.3 0-.2.3-.2.5h-.2c0 .2-.4 0-.4.3 0 .4 0 .6-.4.6 0 .2-.3.4-.4.6h.2c.2 0 .4 0 .4.2s.4.2.6.3c0 .5.4.6.8.8 0 0 0 .2.2 0 0 .3 0 .4.2.4 0 .2.6 0 .4.5 0 .2-.7 0-.8.4 0 0 0 .2-.2.3 0 0 .3.2 0 .2.2.5-.2.6-.2.7 0 .2.2.2.2.3h-.8c0 .5.4.4.2.8-.5 0-.4.2-1 0 0 .4-.2.5-.6.5h-.4-1.8c-.4 0-.6.3-1 .3-.8 0-1.4.2-2 .3 0 0 0-.2-.3-.2a1.3 1.3 0 0 1-.6 0h-.6-.5c-.3 0-.4.2-.8 0-1.2.2-2.5 0-3.3.3-.4 0-.3-.4-.8-.3-.4.2-.7 0-1 0h-1.4l-1.4-.2c-1 .2-2.5 0-3.3 0h-1.3c0 .7-.2.5-.8.5 0 0 0-.2-.2-.2-2.6 0-5.2 0-8-.2-.2-.2-1 0-1.2-.2H462c-.3 0-.4.2-.5.2-.3 0-.6 0-.6.2-.7-.2-.8-.2-1.3 0-.8-.3-2.5-.3-3.3 0-.3-.2-.3-.3-.6-.3h-2l-1.3.2-1.2-.3c0 .2-.3.2-.6.2-.4-.2-.5 0-.8 0-.3-.4-.8 0-1 0-.2 0 0-.3-.3-.3h-3.3-.6c0-.3-.3-.3-.6-.3-.4 0-.5.3-1 .3h-.9c-.3 0-.5 0-.8-.2 0 0 0 .2-.4.2h-2.5c-.2 0-.3-.2-.4 0-.4 0-1 0-1 .2-.2-.3-.5-.3-.8-.3h-.6c-1-.2-2 0-3 0-.3 0-.4-.3-.8-.2-.8 0-1.4 0-2 .2 0-.2-.4 0-.7 0h-1c-1 0-2 0-3 .3-.5 0-1-.3-1.6-.3h-.8s0-.3-.2-.3c0 .2-.2 0-.4 0h-2.8c-.5 0-.8.2-1 .3-.4 0-.6-.2-1-.3 0 .2-.2.3-.5.3H415v-.3h-.5c-.4 0-1 .3-1.5-.5h-2c-.2.7-.6 0-.6.2h-1.2l-1 .2c-.2 0-.3.3-.3-.5h-.7c-.3.7-.7 0-.8.3-.3 0-.7 0-.8.3-.3 0-.6 0-1-.2h-2.2c-.3 0-.5.2-.7 0-.4 0-.4.2-1 0H396.8c-1.2.2-2.2 0-3.3 0-.5 0-.6-.2-1.2 0-1 0-1.8 0-2.7.2-.5-.3-1.6-.3-2.4-.4-.5 0-1.4.2-2 0h-2.7-.6c-.6 0-.7-.2-1-.3l-1 .2c-.2-.2-.6 0-1-.2 0 0-.4 0-.4.2-.4 0-.6-.3-1.2-.2 0 0-.2 0-.2.2h-2.6c-.4 0-.7-.4-.8 0-.6 0-.7-.2-1-.3h-.5c0 .2-.3.2-.6.2 0-.2-.2 0-.4 0-.3 0-.3.2-.6 0h-.4c-.3 0-.5 0-.6-.2-.3.2-.5.2-.8 0-.3 0-.4.2-.5.2-.3 0-.3-.2-.7-.2 0 .2-.4.2-.8.2-.5 0-.5.2-1 0-.4.2-.7-.3-.8 0h-1-.4l-.4-.2c-1 .2-1.8-.2-2.5 0-.3 0-.5-.2-1 0-.4 0-.3.2-1 0l-2.3-.2c-.8 0-.8.2-1.5 0-1 .2-2.6 0-3.4.3H344.2h-.6c-.3 0-.7 0-.8.2-.5 0-.4-.2-.8-.2h-2.5c-.3 0-1-.3-1.2 0-.4 0-.6-.3-1.2-.2h-.7c-.5-.2-2 .2-2.4-.2l-1 .2c-.2 0-.3-.2-.8-.2a6.4 6.4 0 0 1-1.8 0c-.4 0-.4.3-1 .2-.6 0-.6-.2-1-.2s-.3.4-1 .3c0-.3-.2-.2-.3-.4h-.7l-.6-.2c-.3 0-.4.2-.8 0-1-.2-2.4 0-3.2 0H320c-.5 0-.8 0-1.2.2h-.6c0-.3-.3-.3-.6-.2-.7-.2-.7.2-1 .2l-1-.2H314.8c-.4.2-1.5 0-2.2 0-.5 0-.6.3-1.2.2-.4.2-.7-.4-1 0-.3 0 0-.3-.7-.2h-3c-.5-.2-1.7 0-2.5 0-.2-.2-1 0-1.7 0-.3-.2-.4-.2-.8-.2h-3l-1.7-.4-1.2.2c-.7-.2-1.4-.3-2-.2l-.7.2h-.3c-.2 0 0-.2-.2-.2h-1.2v.2h-.4v-.2h-2c-.3 0-.4 0-.7.2h-5.5l-1-.2c-.7 0-.7.2-1.3.2-.5 0-.4-.3-1-.2H275.6c-.2 0-.5-.2-.6 0-.5 0-.6-.2-1.2 0H273.2c-.4.2-.5 0-.8 0h-1-1c-.2 0-.3-.4-.7-.4h-5.5c-.3 0-.4.3-.8.3-1-.3-2.4 0-3.6 0-.4-.3-1.2 0-2-.2v.3a1.3 1.3 0 0 0-.7.2c0-.2 0 0-.3 0 0-.2-.3-.2-.4-.3-.7 0-1 0-1.4-.2a6.5 6.5 0 0 1-2 0h-2.6c-.4 0-.5-.3-.8-.2-.7.3-2 0-3 0l-1 .4c0-.3-.4-.3-1-.3-.5 0-.5-.2-1 0-.8-.2-1.3 0-1.8 0H238.2c-.4-.2-1.4 0-2 0-.3 0-.3-.3-.7-.3-1 .2-1.5 0-2 0-.4.2-.5.3-.8.3 0 0 0-.2-.2-.2l-.2.3c-.4 0-.5 0-.8-.2-.4 0-.8.2-1.3 0-.4.2-1 .3-1.6.3-.6 0-1-.2-1.6-.3h-2.3c-.6.2-.6-.2-1.2 0h-1.2c-.4 0-.5-.4-1-.4H214c-.4 0-.8.4-1.3.4h-.6c-.2.2-.5 0-.7 0 0 .2 0 .4-.2.4v-.3c0 .4-.8 0-1 0-.2.3-.8.3-1.3.3s-.5-.7-1 0h-2c-.3 0-.3-.2-.7-.2h-1.2l-.8-.3-.8.2c0-.3-.5-.3-1-.3h-3l-1 .2c-.3 0-.3-.3-.3-.3H195c-.2 0-.2.2-.6.2-.3 0-.4-.2-.6-.3h-.8l-.8.2c-.3 0-.8-.2-.8 0-1-.3-3 0-4.3 0-.3-.2-.4-.3-.8-.3h-3c-.4-.2-.4 0-1 0 0-.2-.4 0-.7 0h-1c-.7-.3-1 .2-1.4 0-1 0-1.6-.2-2.3 0 .2-.3-.6 0-1 0l-1-.2c-.4 0-.5.2-1 0-.5.2-.5 0-1 0H168.2c-1-.2-1.2.2-2 0-.6.2-.7 0-1.3 0-.7-.2-.6.2-1 0-.4 0-.3 0-.5-.2l-.6.2s-.2-.2-.3 0h-.4c-.3 0-.6 0-1-.2 0 .2-.2.3-.5.3h-1.4c-.2 0-.6-.2-.6 0-.4 0-.5 0-.6-.3-.5 0-.5-.2-1 0-1-.2-1 .2-1.7.2-.2 0-.2-.2-.6-.2l-.3.2c-.6 0-.8 0-1.2.2-.6-.3-1.2-.3-1.8-.5-.4 0-.4.4-1 .4h-1s-.4-.2-.5 0c0 0-.4 0-.4-.3-.2 0-.6 0-.6.2-.5 0-.6-.3-1.2-.2-.7.2-1.7 0-2.5.2-.3 0-.5-.3-1-.3-1.5 0-3.4-.2-4.7 0h-.4s0-.3-.2 0c-.5 0-.5-.4-1-.4h-1.8c-.3 0-.6 0-.6.3h-1.2c-.5 0-.3.4-1 .3-.3 0-.5-.2-1 0-.6 0-1 0-1.3-.3l-.6.2s0-.2-.2-.2c0 0-.2.2-.4 0-.2 0-.4 0-.7-.2H124c-.4 0-.3.4-.8.2-.3 0-.4-.2-.8 0-.2.3-.5-.3-1-.2 0 .2-.3 0-.7 0H119.2c-.3 0-.6 0-.8-.2-.6.3-1.3.4-2.2.3l-1 .2h-2-.5c-.4-.2-.5 0-.8 0-.5-.3-1.5 0-2.3 0a7.8 7.8 0 0 0-1.6-.4c-.6 0-.8.2-1.5 0-.6.2-.4-.3-1-.2-.3.2-.8.2-1 .2H103l-.4-.2c-.2 0 0 .2-.2.2h-.8c-.2 0-.2-.2-.2-.2l-.6.2-.4-.2h-1c-.2 0-.2.2-.2.2l-2.3-.2c-.7 0-.6.2-1 .2l-1.5-.3c-.2 0-.8.4-.8 0-.5 0-.5.3-1 0-1.2 0-2.4.2-3.3 0H86.5c-2-.2-3.5 0-5.3 0-.4 0-.4.3-1 0h-4.9c-.4-.2-1 0-1.6-.3-.5.3-1.8 0-2.6.2-.2 0-.3.2-.7 0H68h-.4c-.3 0-.4.2-.8 0a7 7 0 0 0-1.8.2s-.5 0-.7-.2h-.6H61.2h-.3c-.5 0-1 0-1.4-.2h-1H54.3c-.5 0-.5-.2-1 0H51.6h-1.1c-.7-.2-1 0-1.4 0H47a44 44 0 0 1-2.2 0h-.2-.4a17 17 0 0 0-2.4 0h-2-.6c-.3.2-.6-.4-.7 0l-1-.2h-.6c-.3 0-.3.3-.6.2 0-.2-.4 0-.8 0l-.8-.2c-.4 0-.2.3-.8.2h-.4c-.7-.2-1.8 0-2.6 0-.3 0-.4-.3-1-.2h-2c-.3 0-.4-.2-1-.2s-1.6 0-2 .2c0 0 0-.2-.4-.2 0 0 0-.3-.4-.2-.6 0-.6.2-1.2 0-1 0-2.3.2-3 0H19c-.8.3-1.3-.2-2 0h-1c-.5 0-1.3 0-1.7-.2l-.8.2c-.2-.5-.5 0-1.3-.2-.5-.2-1.4 0-2-.2-.6 0-.6.2-1.2 0l-1-.2-1 .2c.3-.4-.8 0-.7-.3-.6 0-.7-.3-1.2-.2-.5 0-.8 0-1.3-.2l-.8.2c-.4-.2-.7-.2-1-.2-.2-.2-.5-.3-1-.3 0 0-.2 0-.2-.4a1.3 1.3 0 0 1-.6-.2c.2-.5-.3-.6-.2-1 .6 0 .8-.3.8-.4h.9c.2-.4.6-.5.8-1 .5 0 .4-.2 1 0l.2-.6c.5 0 .6-.2 1-.3 0-.3.8-.2 1-.4 0 0-.6 0-.4-.5.3 0 .5 0 .4-.3.3 0 .6 0 .6-.2-.3-.3.6-.5 0-.5.2-.4-.5-.3-.4-.7.3 0 .3-.3.7-.4 0-.3.8 0 .7-.5-.4 0-.5-.3-.5-.5-.2-.4.3-.3.4-.6 0-.3-.6-.3-.5-.8.3-.2.5-.6.8-1-.7.2-.5 0-1-.2 0-.4.3-.5.3-.8 0-.3-.3-.3-.3-.7 0-.2.6 0 .4-.5l.6-.2.2-.4a2 2 0 0 1-.2-1.2c.3 0 0-.3.2-.5 1 0 .8-.4 1.6-.3 0-.3 0-.5.6-.4a.6.6 0 0 1 .3 0v-.3l-.7.2c0-.4-.6-.4-.8-.5 0-.3 0-.5.4-.6 0-.3.6-.3.4-.8 0 0-.2 0-.2-.2s-.3-.3 0-.3c-.2-.3-.6-.4-.4-.8 0-.2.2-.3.4-.3 0 0 .2 0 .2-.4.2-.7-.4-1-.4-1.6-.2 0-.3-.2-.4-.3-.4 0 0-.3-.4-.4-.3 0-.4-.2-.8 0-.3-.3-.2-.6-.7-.7 0 0-.2 0-.3-.2-.2 0 0-.2-.4-.2 0-.4.5-.5.8-.7.3-.2 1.3 0 1.2-.6-.3-.2-1.4 0-1.3-.5 0-.3.2-.4 0-.6l.6-.4-.5-.6c.3 0 .4 0 .4-.3-.2-.3.7-.2.6-.7 0-.2-.4-.2-.4-.4 0-.3-.3-.4-.2-.6l.2-.6c0-.2-.6 0-.5-.5.4 0 1-.4.4-.4 0-.4.3-.5.2-1h-1c0-.2 0-.6-.5-.5 0-.6.8-.4.7-1-.2 0-.3 0-.4-.2 0-.2-.3-.2-.4-.4.6-.2.2-.8 0-1l.7-.5c0-.4.6-.2.4-.6.5-.5.8-1 1.2-1.2 0-.6.3-1 .2-1.7.2 0 .7 0 .8-.3.3 0 .6-.2.5-.5 0-.3-.4-.3-.2-.7.3 0 0-.2.3-.3v-1.7c0-.3-.4-.2-.2-.6 0 0 .4 0 .4-.2-.2 0-.2 0-.2-.3 0-.2.4-.3.4-.6 0-.5-.5-.6-.4-1 .3 0 .8 0 .8-.4 0-.2.3-.2.2-.5.3 0 .4 0 .6-.2h.3l.2-.4c-.4 0-.3.2-.6 0H11c.2-.5 0-.4 0-.7v-.8-.2c.3 0 .4 0 .4-.2 0-.4.6-.2.4-.6 0-.4 0-1-.6-1 0-.4.6-.2.4-.7l-.2-.5c.4 0 .4-.4.6-.5 0-.5.6-.3.4-.7 0-.4.2-1-.2-1 .2 0 .3 0 .2-.3h.4c0-.5.5-.4.5-.6 0-.4 1-.4.8-1 0-.2-.3 0-.4-.2-.2 0-.3-.3-.6-.3 0-.3-.2-.6-.4-.8 0-.5-.5-.3-.5-.8v-.7c0-.2.6-.4.6-.7h-1c0-.8 0-1.5.2-2 0 0-.2 0-.2-.3l-.2-.2c-.3-.2-.6-.3-.6-.6 0-.6 1-.5 1-1-.3 0-.2-.4-.4-.5 0-.2-.3-.2-.2-.5-.2 0-.2-.3-.4-.3 0-.3-.4-.3-.6-.4 0-.5.8-.3.6-1a1.2 1.2 0 0 1-.6 0c0-.2-.4-.2-.4-.3.2 0 .3-.3 0-.3-.2-.5.3-.5.2-1-.5 0-1-.3-1.8-.2-.2-.5.8-.3.8-.7-.6 0-.5-.5-.2-.7-.4 0-.6-.4-.6-.7-.3 0-.7-.3-.6-.4h.2c.2-.2.3-.3.8-.3.3 0 .3-.3.6-.3 0-.2.5-.2.8-.2h.2c.2 0 .2-.2.2-.4 0 0 0-.2-.2-.2a1.4 1.4 0 0 1-.6 0c0-.3.3-.4 0-.5-.3 0-.4-.2-.4-.4 0-.4.5-.3.4-.7 0-.2.3-.3.4-.5-.3 0 0-.4-.4-.4-.3 0-.4-.2-.4-.4.2-.5 1-.7 1.2-1 0-.3.3-.4.2-.6.2-.2.8 0 .6-.4 0-.2.2-.3.3-.5h-.2v-.4s-.3 0-.3-.4v-1.2c0-.3-.8-.5-.6-1-.2 0-.4.3-.4-.5h-.4s0-.2-.2-.2c.2-.5-.5-.2-.4-.6 0-.5 1.3-.2 1.2-.8.2-.4-.4-.3-.4-.6 0-.4-.4-.3-.2-.8 0-.3-.7-.2-.6-.7.3-.2 0-.7.2-1.2 0 0 .6 0 .4-.5 0-.6-.5-.8-.4-1.4-.5 0-.7 0-.6-.3 0-.4.8 0 .6-.6.3 0 .6.2.8.3h.4c.2 0 .2.2.4.3.3 0 .6 0 .6-.2l.6.2v.2h2.5c0-.6.4 0 .6-.3l1-.2a6.7 6.7 0 0 1 1.7 0H23c.6.2 1.3 0 2 0 .2.2.3.2.7.3l.8-.2c1 0 2 0 2.6.2l1-.2s0 .2.4.2c.5 0 0 .5.6.5.2 0 .2-.2.4-.3.4 0 .2-.4.8-.3l.8.2.2-.2H36c.3 0 .3.2.7.2h1c.4 0 .2-.3.8-.2 0 .2.3.2.6.2l1-.2h1.8l.8.2.4-.2h1.4l.6.2c.2 0 .3 0 .4-.2h.6l.8.2c.8-.3 1.7 0 2.7 0h3.3c.3 0 .3-.2.7-.2.2 0 .4 0 .6.2.2 0 .4-.3.6 0 .3 0 .4 0 .6-.2 0 .2.4.2.6.3H57c1.2-.3 3.5 0 4.7-.3.6.2 1.6.2 2.2.3.3 0 .6-.4.8 0 .4 0 .6-.2 1.2 0h2.8c.3 0 .5 0 .8.2 0-.3.4-.2.6-.2h1a.4.4 0 0 0 .3.2h2.3c.5 0 .4-.5 1-.4 0 .3.7 0 1 0 .4.2.6.4 1 .4.7-.4 1.5 0 2.3 0 .5-.2 1-.3 1.6-.3.8 0 1 .2 1.7 0 .7.2 1 0 1.6 0 0 .2.2.2.5 0 .3 0 .3.3.6.3s.4 0 .5-.2l.6.2c.5 0 1-.3 1.4-.3.5.2 1.2.2 1.8.3.6 0 1 0 1.4-.2l.6.2c0-.4 1 0 1-.3.8 0 .7.6 1.5.5h1.6c.4-.2.4-.3.6-.5.5 0 .4.4 1 .3.7 0 1-.2 1.3-.2.4 0 .3.4 1 .3h1.9c1.6.4 3.2-.2 5 0h1l.4.2 1.2-.2c.4 0 .5.2 1 0 .8 0 2-.2 2.6 0 .4 0 .4-.3 1-.2.6 0 1 .3 1.4.3 1 .2 1.6 0 2.3 0h2.9l.4.2c.4 0 1 0 1.5-.2h.4c0 .3.3.3.6.2.6 0 .8.2 1.2.3.4 0 .5-.3 1-.2 0 .2 1 .2.8 0 .7 0 .5.4 1.2.2h1.5c.2 0 .4 0 .7.2.3 0 .5 0 .8-.2 0 .2.3.2.6.2h1c.3 0 .2.3.7.2.7 0 .4-.6 1-.5 0 0 .2.2.5.2 0-.2.3-.2.6-.2.6 0 1 0 1.4.2l.6-.2c.6 0 .4.3.8.3 0-.3.5-.3 1-.3h1.8c.4 0 .2-.4.8-.3 0 .3.5.3 1 .3s.6.2 1 .3c.3 0 .5-.2.8-.3 0 .2.5 0 .5.3.3 0 .3.2.7 0 0-.3 1 0 1-.4h1.4c.8.2 2.4.2 3.3 0h.3c.2 0 .4 0 .6.2.4 0 .3-.3 1-.2 0 .2 0 .3.5.3h1.9c0-.2.6-.2 1-.2h.3l.2.2.4-.2c0 .2.3 0 .4.3h.6c0 .3.3.2.4.4l.6.2c.2 0 .3 0 .4-.2h.8c.5 0 .4-.5 1-.5h1.5c.6 0 .3.8 1 .7.6 0 0-.5.7-.3 0-.3 1 .2.8-.2.6 0 .4-.4 1-.3 0 .2.4.2.6.2H170.7c.7-.7.5.3 1.2.3.5 0 .5-.5 1-.3h2.1s0-.2.3-.2H176.5c.3 0 .4.2.6.3.2-.2.4-.2.7 0h.6c.5 0 .5-.3 1 0h1.5s0-.2.4 0l2.6-.3c.4 0 .6.3 1 .4 0-.2.4-.2.7-.2.4 0 .4-.2.8 0 .6 0 1-.2 1.4-.3 0 .2.3.2.6.2l.6.2c0-.2.3-.2.5-.2.4 0 .5-.2 1 0 .4 0 .8 0 1-.3 0 .2.4 0 .5.3h2c1 0 2.2 0 3-.3.5 0 1 0 1 .2.5 0 .5-.4 1-.3.5 0 .4.4 1 .3l2.6.2c.5 0 .8-.3 1.4-.3h1.2c0-.2.7 0 1 0h3.3c.4 0 .8 0 1.2.2.5-.2 1.2-.3 1.8-.3h.4s.3 0 .4.2H215.2v-.2H215.8c.5 0 .4.3 1 .3 0-.2.7 0 1 0 .7 0 .8-.2 1.3-.2.5.3 1-.2 2 0H224.7c0 .2.4 0 .6 0h1.4c1 .2 2 .3 3.3.3l1-.2h2.5c.5 0 .8.3 1.4.3.6.2.7 0 1.2 0h1.2l.6-.2c0 .2.5 0 .8 0 .4 0 .3.5.8.4 1 0 1.2.2 1.8.3 2-.6 4.5-.2 6.6-.4.6 0 .6.3 1 .3 0-.2.5 0 .8 0 0-.3.6-.2.6-.4h1.6c.3 0 .3.2.4.3.3 0 .2.3.4.3 0-.3.8 0 1 0 .3-.3.8-.3 1.3-.3.4 0 .5 0 .7.2 0 .2.4 0 .6.2.6.2.5-.2 1 0l.8.2c.6-.2.6 0 1.2 0 .5 0 .2-.6 1-.5 0 .2.5 0 .6.2h1c.4 0 .3-.2.8-.2h1.2s.4 0 .4 0h2.7c.4 0 .8-.2 1 0 0 0 .5-.3 1-.3.6 0 .4.5 1.2.4 0-.2.3 0 .4-.3h.8c.8 0 2 0 2.6.2l1-.2c.6 0 1.4 0 1.7.2.2 0 .4-.2.8 0h4.6c.3 0 1 0 1-.2h2.8c.5 0 .8-.2 1.5 0 .7-.2.5.4 1.4.3.6 0 1.4 0 2-.3.3 0 .4.2.6 0 .6 0 .5-.2 1 0 0 .3 1-.2 1 .2h1.9l.6-.2c.5 0 .8-.2 1.4 0 .6 0 1 0 1.4.2.7 0 1-.2 1-.2.3 0 .3.2.5.2.4-.3 1.3 0 2-.2l.7.3c.3-.2.5-.2.8 0 .6-.2 1.2-.3 2 0 0-.2 0-.3.3-.3h.6l.8.2h2.6c.5 0 .4.5 1 .4.2 0 .3 0 .3-.3h.5c.4 0 .4-.3.8-.2.7 0 1 .2 1.6 0 .6 0 .6-.3 1.3-.2 1.7 0 3.7.5 5.3.2h3c.4.2 1.8 0 2 0 .8 0 1.6.2 2 0 0 .2.4 0 .8 0 .5 0 .4.4.8.4 0-.3.2-.3.4-.4.2 0 .3.2.4 0h1c.5-.2.5 0 1 0h5.5c.6 0 .5-.2 1-.2h6.6c.4 0 .5.3 1 .3h.5c.2 0 .6 0 .6-.2.6 0 1 .2 1.5 0 .7 0 1.2 0 1.6.2.2-.2.5-.2.8-.2h.8c.6 0 1.3 0 1.6.2.3-.2 1 0 1.4 0l1.5-.2c.5.2 1.7 0 2.5 0 .4.2.5.4 1 .4.3 0 .3-.3.6-.3.2.2.4.2.7.2.4 0 .5-.3.8-.3 0 .3 1 0 1.3.2.6-.2 1 0 1.4 0 .4 0 .2-.4.8-.3.5 0 .4.3 1 .2 0-.3.3-.3.6-.3h.6c1.2 0 2 .3 3.3.2.5 0 .4-.4 1-.3h1c.2 0 0 .2.2.2.3 0 0-.2.2-.3.6-.2 1 .2 1.4.2.4-.4 1.3-.2 2-.3.6 0 .4.4 1 .3.3 0 .6-.2 1 0 .6 0 .6-.3 1-.3.3 0 .6.2 1 0 .7 0 .8.3 1.3.3 0-.2.2-.3.4-.2.4 0 .4-.3.7-.3h4c.5 0 .6.4 1 .4s.6 0 .7-.2c.3 0 .6 0 .6-.2h2.5c.8.7 2 .4 3.2.6h1.4c.4 0 .7 0 .8-.2.6.2.6 0 1.2 0 .5 0 .4.2 1 0 1-.2 2.7 0 4 0 .3 0 .4.3.7.3h6.1c.2 0 .3-.3.6-.3l.6.2c0-.2.3-.2.6-.2 0 .2.3.2.6.2.4 0 .4-.3 1-.2.7 0 .6.3 1.3.3h2.4c.6 0 .8-.2 1.5 0 1-.4 1.8-.2 2.5-.2h3c.4 0 .8.3 1.3.3h2.2c.4 0 .5-.2.8 0h.2s.2-.2.4 0h1.8c.3.2.6 0 1 0 .3 0 .6 0 .8.2l.4-.2h.8c.3 0 .2.2.4.2.3 0 .6-.3 1-.2.3 0 1 0 1-.2.5 0 .5.4 1 .3l1-.2c.5.4 1.8.2 2.7.3.4 0 .5.2 1.2 0 .6.2.6 0 1.2 0h1.2c.5.2.4.6 1 .5l.6-.2c.2-.2.5-.3.8-.3 1 0 1.8 0 2.3.3l.8-.2c.4 0 .6.6.7.2h.2v.2h.7s.6-.5.6.3h1c.6 0 .5-.3 1-.3s.5-.4 1-.3c.7 0 .7.3 1.3.3h2.5c.4 0 .7-.2 1-.3 0 0 0 .2.3.2h.8l.7-.2c0 .2.5 0 .8 0 .5.3 1 .3 1.6.4.6-.2.7-.5 1.4-.5h2.2c.5 0 .2.5.6.5.2-.2 0-.5.6-.4 0 .2.4 0 .4.3-.2 0-.2.2 0 .3h.4l.2-.2 1 .2s.2-.2.7-.2c.5 0 .4.3 1 .2 0 0 .2-.2.2 0h.6c.4 0 .2-.4.8-.3 1-.2.4.5 1 .4 0-.2 1 0 1.2 0 0-.2-.3-.2 0-.3h.2c0-.2.4 0 .4-.3.6.2 1.4 0 2 .3h2.4c.8-.3 1.5 0 2 0h1c.3-.2.3 0 .7 0 0 0 .4-.2 1 0h1c.4 0 .6.2 1 .3.2-.2 1-.2 1.4 0l.2.4c-.3 0-.2.2-.2.4 0 .3 0 .8-.2 1 .4 0 0 .4.6.3 0 .4.6.3.6.5.6 0 .4.3.8.3.5 0 .2.4.6.4.3 0 .4-.2.8 0 0-.3.5-.2.6 0 .2.5-1.3 0-1.2.7.2 0 .3-.3.4-.2 0 0 .3.2.2 0v.4c0 .2 0 .4-.2.5-.5 0 .3.2 0 .6-.6.2-1 .6-1.4 1 .3 0 .2.3.4.3 0 .2.3.2.2.4.5 0 .4.5.4.8 0 .2 0 .2-.2.3-.2 0-.6 0-.6.2s0 .3.2.4c-.2 0-.6 0-.6.2-.2.5.3.6.2 1 0 .3-.5.2-.4.6 0 .3 0 .7-.2.8 0 0 .2 0 0 .2 0 0 0 .3-.2.4.5 0 .7.2.6.5.5 0 .8 0 .8.3.3 0 .5.2.8.3 0 .2-.3.2-.2.5 0 .2.3.2.4.3 0 0 0 .3-.2.3 0 .3 0 .4.2.5 0 .3 0 .6.2.8 0 0-.2 0-.2.3h-.4c-.3.2-.6.3-.6.7 0 .2.6.2.8.4.2.4-.5.2-.4.6-.2 0-.2.3-.2.4 0 .2 0 .3-.2.4.2.5.7.5.8.8-.6.2.2.5.2.7.5 0 1.4-.3 1.5 0l-.3.3h-.7c0 .5.5.4.5.7l.2.2c.2 0 0 .3.4.3l.3.3s0 .2.2.2c0 .2 0 .2.2.3.2 0 .2.3.4.3v.6c.3 0 .4.4.5.7.4 0 .6.3 1 .4 0 .2.4 0 .4.3 0 0 0 .2.3.3v.4h.2c0 .4-.2.4-.2.6.8 0 1 .4 1.5.7.7 0 .8.6 1.4.7-.2.7.6.7.4 1.4.3.2.8.3.8.7-.2.5.2.7.2 1l-.4.8h-.4c0 .3.2.5.2.5-.7 0-1 .2-1 .6.7-.2.3.5 1 .4-.2.5-.3 1.2-.2 2 0 .2-.8 0-.6.4-.2.4.3.4.2.7a7.5 7.5 0 0 1-1.6.4c0 .2.5.3.4.8h-1c.4.2.6.3.6.5s.4.2.6.3c-.2.5.3.6.2 1 .5 0-.2 1 .4 1 .4.2.7-.4.8 0l.4.2v-.2h.4c.7.2.7 1 1.8.7 0 .4-.2.5-.8.4 0 .5-.7.4-.6.8.2.3.7.5.8.8.3 0 .4.3.6.3 0 0 .5 0 .6.2 0 .4-.2.5-.4.8.3 0 .2.2.5.3 0 0 .3 0 .3.4 0 .3-.4.3-.2.6.2 0 .3.2.3.3v.6s.7 0 .6.5c.4 0 .7.2.7.5.6 0 .5.2 1 .2 0 .3-.3.4-.2.8h1c.3 0 .2.5.5.5.2.4 0 .4 0 .7 0 0-.2.2-.2 0v.6s.2-.3.8-.2v.2h.7c.2 1-1.3.7-1 1.6-.5 0-.4-.3-1 0-.2 0-.3.2-.2.5-.2 0-.3.2-.5.3-.2 0-.2.2-.2.4 0 .4 1 .2 1.4.4 0 .2 0 .4.4.4l.5.2c0 .6.4 1 .2 1.5.6 0 1.2 0 1.5.3 0 .2-.2.3-.5.4 0 .3-1 0-.6.4 0 .3.4.4.3.6M290.5 147c-.3.7-.7 1.6-.7 3a2 2 0 0 0-.4.4h-.5l-.2 1c-.2 0-.4.3-.5.7-1 .6-1.3 1.5-1.7 2.2-.8 0-1.6 0-2.5.3-.4 0-.7.3-1 .4h-.5c-.5-.2-1-.2-1.4-.2a2.4 2.4 0 0 0-1 0c-.6-.4-1.4-.8-2.2-1a3.6 3.6 0 0 0-1-1.2c0-1-.7-1.3-1-1.6l-.4-1.3c0-.7-.3-1-.5-1.3v-.2l-.2-.2-.2-.5c-.2-.4-.4-1-1-1.6V143l-.6-1c-.2 0-.2-.2-.2-.5l-.5-1a2 2 0 0 0-.3-1c0-1-.3-1.7-.6-2.2-.3-.5-.5-.8-.3-1.6l-.5-1.4c0-.3 0-.7-.4-1 0-.4-.2-.7-.3-1l-.4-.8v-.2c-.4-1-1-1.8-1-3h.3c.3-.4.6-.6 1-.7 1 0 1.6-.4 2-.7.5-.3.7-.3 1-.2h.3c.6 0 .8 0 1.3.5l1.2.7h.4c.2 0 .3 0 .6.4h.3l.2.2H278v.4l1 .2c.8 0 1.6.5 2.4 1 1 .4 2 1 3.3 1.2a11 11 0 0 0 2.4 2.7 3.6 3.6 0 0 0 1.5 1.7v.3c.2.5.4 1.2 1 1.7l.6 2.3.6 3v1.8c0 1-.4 1.4-.6 2m-145 3.6c-.2.2-1.3 1.4-1.4 2v1.2c-.4.4-.6 1-.6 1.5-.2 0-.4.4-.4.5l-.7 1a1 1 0 0 1 0 .6c-.8.3-1 1-1 1.3h-.2l-1.4-.7h-.3c0-.4-.3-.5-.4-.7l-.6-.8a2 2 0 0 0-.5-.7 3.7 3.7 0 0 1-.2-.4c0-.4-.3-1-1-1.6 0-1.3-.5-2.3-.8-3.2-.3-.7-.6-1.4-.7-2 1.5-.3 3.8-.2 6 0 1 0 2 0 3 .2.2.2.7.7 1 .7v1zM415.7 35c0-.2 0-.4-.2-.5a2.7 2.7 0 0 0-.3-1L414 32s0-.2-.2-.2c-.4-.3-1-.7-2-.7l-1.2-.2h-.3c-.8 0-1.4 0-1.8.3h-2.7l-.5.3-1.2.5h-3.7c-.5 0-.8 0-1 .2l-2.2.4c-1 0-1.6.3-2 .5h-1c-1 .2-1.5 0-2.3 0-.7-.2-1.6-.3-2.6-.3h-1.5c-1.4.2-3 .3-4.3.6-.4-.2-1-.7-2.2-.6h-.7a2.5 2.5 0 0 0-.4-.7v-.5c0-.6-.2-1-.4-1.5v-.2l.6-1.3 1-.2c.7 0 1.5-.2 2.3-.5h.3c1.4.3 2.8.5 4.5.3a8.8 8.8 0 0 1 1 0l2 .3c.5 0 1 0 1.4.2h5.4c.7 0 1.5 0 2 .2l.4.2 1.3-.3c1.2 0 2.3-.3 3.6-.2 1 .2 1.8 0 2.2-.2h.2l1.8-.8a2 2 0 0 0 .5-.6l1-1.8c0-2-1.2-3.2-2-3.8l-1-1-.2-.2-1-.3c0-.2 0-.2-.2-.3a5 5 0 0 0-1-.5h-.4c-1.3-.2-2.3 0-3.3.2-1 0-2 .2-2.5.3a53 53 0 0 0-2.6-.3c-1.6 0-3-.2-4.3-.6h-8.4a1.8 1.8 0 0 0-.8-.4h-.3c-.5 0-.8 0-1 .3h-2.5c-1.2-.2-2 0-3 0-.3.2-.7.3-1 .3h-1.4l-.3 1c0 .2-.4.3-.5.3l-1 .5-.2.5-.7 1-.2.5c-.5.6-1 1.3-1.2 2.5-.2.3-.3 1-.4 1.6a3.2 3.2 0 0 0-.3 1.4v1.3c0 .8 0 1.3.3 1.8v.5c0 1 .2 1.5.4 2l.3 1.3c.2.8.3 1.5.3 2.4l.5 1.7 1 1 1 1.5.3.4.3.2v1h.5c0 .2.3.3.5.4.2.4.6.8 1 1 .3 1.3 1 2 1.6 2.4.3.3.6.5.7.8l.4.8h.5c0 .3.3.6.6 1 .2 0 .3.3.4.4 0 .2.3.4.3.5l1.4 1 .2.6.3.2c.2.2.5.4 1 .5l.6.5.8.4 1.5 1c.5 0 1 0 1.6.2l1.2.3 1 .4 1 .5a3.7 3.7 0 0 0 1.6.4h.2c.3.3.7.4 1.3.5h6c1.5 0 2.4-.4 3.3-.8 0 0 .3 0 .4-.2 2.2 0 4.2 0 6-.3.8 0 1.4-.4 1.8-.6l2-1 .4-.7h.7v-1.5c.4-1 0-2 0-2.4l-.2-.6-1-2a2 2 0 0 0-1-.8l-.5-1-5-.2-.5.3c-.2.2-.6.3-1 .4-.3.3-.6.4-1 .6-.5 0-1 .2-1.8.4-1 0-1.8.3-2.7.7a3 3 0 0 0-1.2-.3 3 3 0 0 0-1.2.3h-.3c-.4-.2-1-.6-2-.6H393a2.2 2.2 0 0 0-1-.6 2.6 2.6 0 0 0-1-.5 2 2 0 0 0-.3-.4 2 2 0 0 0-1-1 2 2 0 0 0-.4-.2l-1-1-.2-.3V43h4.8l.4-.3h5.3c.2-.2.4-.2.5-.2l.5.3h.6l1.5-.4c.8-.2 1.6-.4 2.5-.3h.3l.2-.2c.3 0 .6 0 1-.2 1-.2 1.8-.4 3-.4.8.2 1.6 0 2-.2h.4a2.3 2.3 0 0 0 1.7-.7l1.3-.8.6-.6 1-2c.2-.5.5-1.2.2-2m-55.4 16c-.2-.5-.3-.8-.2-1.2l-.8-1.8a2 2 0 0 0-.8-.8 3.3 3.3 0 0 0-.6-.7 2 2 0 0 0-.8-.8l-.8-.7a2.2 2.2 0 0 0-.4-.6l-1-2.5-.6-1a31.3 31.3 0 0 1-1.2-3.8l-.3-1h-.5V36a2.4 2.4 0 0 0-.3-.5 3.8 3.8 0 0 0-.5-1l-.2-.3-.7-1.8a2.6 2.6 0 0 0-.2-.5c0-1-.5-1.4-.7-1.7l-1-1.6a3.3 3.3 0 0 0-.4-.8l-.2-.4-.4-.2-1.5-1.5a14.5 14.5 0 0 1-1-.4 21.4 21.4 0 0 0-1.3-.3c-.7-.4-1.5-.8-2.7-.8a5.8 5.8 0 0 0-.8 0c-1.5 0-2.3 1.2-2.6 1.7a2 2 0 0 0-.6 1l-.3.3-.5.7-.6 1v.3h-.3l-.4 1-.4 1.4c-.2.3-.2.7-.2 1h-.3l-.2 1c-.3 0-.5.4-.7 1h-.2c-.2.5-.6 1-.8 1.7a2 2 0 0 0-.2.4 2 2 0 0 0-.5 1c-.3.2-.4.6-.5 1v.4c-.3.2-.5.5-.6.8l-.4.8a2 2 0 0 0-.2.4 1.7 1.7 0 0 0-.3.4l-.3.6-.3.4-.3.4-.6 1.5c-.6.4-1 1-1 1.4l-.8-1.4V44l-.4-.2a3.6 3.6 0 0 0-.3-.7c-.3-1.4-.6-2.7-1-3.8l-.5-1.7V37h-.2v-.6l-.6-1.8c0-1.3-.5-2-.8-2.6l-.7-1.2h-6.5a2.6 2.6 0 0 0-1.2.7l-1 1.6c-.4.6-.7 1.3-.4 2.3v.3l.3.2V37l.3.5v.4l.6 1.7v.2c0 1.2.4 2.3.6 3.3l.5 2 .7 1.4c0 .3.2.4.3.5v.2l.2.4.8 1.6c0 .3 0 .6.3 1 0 .4.2.7.4 1l.2.5.7 1c.2.7.5 1.2.7 1.5v.2l.2.2v.2l.8 1.5c0 .4 0 .7.3 1l.4 1c0 .4.2.8.4 1 0 .3.2.5.3.6.3.6.6 1 .8 1l.2 1.3 3 1 2.8-1 .3-1v-.2c.4-.2 1-.7 1.4-1.7.3-.4.4-1 .4-1.7v-1.3c.4-.3.7-.5 1-1 .2 0 .4-.4.5-.7l.2-.3c.2 0 .4-.3.6-.5.5-.3.8-.7 1-1l1-.3v-.7c.2-.2.5-.5.6-.8l.5-.5c.5-.4.7-1 .8-1.5l.4-.6a3.7 3.7 0 0 0 .5-1l.8-1.8.2-.2.7-1 .2-.4c.3-.3.7-.8 1-1.5l.7-1.3c0-.2 0-.4.2-.6l.6-1.5c.2 0 .3-.2.3-.4.2 0 .4-.4.5-.8l.2-.4v.2c.2.5.3 1 .6 1.2 0 .5.3 1 .6 1.2 0 1 .5 1.8.8 2.4l.2.4.5 1s0 .2.2.3v.4l.6 1c.2.8.7 1.4 1 2l.3.4v.3a2.2 2.2 0 0 0 .5 1c0 .3.2.6.3.7l.6 1.6.8 1.6c0 .2.3.4.4.5l.6 1.2c.2.8.8 1.4 1.7 1.7.2 0 1.3.4 2.5.4.7 0 1.4-.2 2-.4.8-.2 1.3-.5 1.7-1 .2 0 .4-.3.6-.5l1-1.6c.2-1.5 0-2.4-.4-3M303 57.4h-.2c0-1 0-1.5-.3-1.8v-.2l-.7-2-.2-.2c0-.8-.2-1.4-.3-1.8v-1l-.7-1.7a3 3 0 0 0-.4-1.4c0-.8-.3-1.4-.5-1.8 0-.4-.2-.5-.2-.7V44a14.8 14.8 0 0 0-1.2-2c0-2-.5-3-1-4.3 0-1.2-.2-2.2-.4-3-.3-.7-.4-1.3-.4-2 0-1-.4-1.6-.6-2V30l-.4-.6V29c-.3-.4-.6-1.2-1.4-1.7-.7-.6-1.7-.6-2.4-.6h-.8a10 10 0 0 1-1 0l-1.8.5-1 1-1 1.8.3 3 .3 3 .2 1v.2h.2v.2c0 1 0 1.4.4 1.8v.8c.2.4.3.7.2 1l.5 2 .3 1h.2v.3l.4.7.3 1v.3c0 .6 0 1 .3 1.5 0 .2 0 .3.2.4 0 .3.3.5.5.6 0 .4 0 .6.2 1 0 .4.2 1 .5 1.6l.6 2.2.7 2.7.2.7v.7l.3.3v.2c0 .8.4 1.3.5 1.7.2.2.2.4.2.5v.8l.7.5.8.4.5.7v.5l1.4.3h1.2c1 0 1.7-.2 2.2-.4l.7-.3h1.3l.2-1.3c0-.5.2-1 .4-1.4v-.5c.4-1 0-2 0-2.3m-32-11c-.2-1.4-.7-2.3-1-3-.2 0-.3-.3-.4-.5 0-.6-.2-1-.3-1.4 0-2-.4-3.6-.8-5 0-.4 0-.7-.2-1a2.5 2.5 0 0 0-.4-1.7c0-1-.4-1.6-.7-2 0-.8 0-1.4-.2-2v-1.8l-.8-.3-.6-1a2 2 0 0 0-.5-.3 2.4 2.4 0 0 0-1-1l-1.8-.4a2.3 2.3 0 0 0-.7.3c-1.4 0-2 .4-2.5 1-.2 0-.5.3-.7.7h-.7V29c0 1 .2 1.6.4 2.2.2.5.3.7.2 1.2l.3 2v.5l.6.8v.2c0 1.4.3 2.6.5 3.7 0 .7.3 1.4.3 2.2h-1l-.3.2a2 2 0 0 0-1.4-.4c-.4 0-1 .3-1.2.4h-3c-.5-.2-1-.4-1.8-.4-.4-.2-.8-.6-1.4-.8a3 3 0 0 1-1-1c0-.3-.3-.6-.5-.8V39l-.6-1.8-.8-1a3 3 0 0 0-.3-.6l-.7-1.5a3.5 3.5 0 0 0-.3-1v-.2l-.4-1.8-.2-.8-.5-.2c0-.6-.4-1-.6-1.4v-.2l-.4-1H242.7a2 2 0 0 0-.2-.6v-1l-1.4-.3h-.8c-1-.3-2-.5-3.3-.3a2.3 2.3 0 0 0-.8.3 2.2 2.2 0 0 0-1.5.7 2.7 2.7 0 0 0-.4.4h-1v5l.6.3v.5l.2.4c0 .4.2.7.4 1 0 .8.3 1.2.6 1.6v.3s.2.8.7 1.4c0 .6.3 1 .6 1.3 0 1 .5 1.7.8 2.4v.2c0 1 .6 1.8 1 2.3v.6l.7 2h.2c0 1 .4 1.4.8 1.8 0 .5.3 1 .4 1.4l.4 1.2c0 .6.3 1 .7 1.4 0 .4.2.6.3.8 0 .4 0 .7.3 1v4.7l1 .4.5.5c.4 1 1.4 1.5 1.8 1.7h.2l.5.4h.8c.7 0 1.3-.2 1.7-.4.8 0 1.2-.4 1.5-.8.2 0 .4-.3.6-.4l.5.2c.6.5 1 .7 1.6 1l.5.7h1l1 .3v.3l1 .3 1 .2 1 .3.3.3h.5c1.4 0 2.4-.3 3.3-.6l1.4-.4h.8l.4-.7c.4-.6.8-1 1.5-1.5l.7-.4V59l.6-1.6c.3-.6.7-1.3.8-2.3.3-.2.5-.6.5-1.2.2-.3.3-.7.4-1.3V52c0-.3.3-1 .3-1.6V50h.6v-1c.5-.5 1.2-1.2 1-2.6m-47.2-20.6l-.2-.5-.5-.3c-.5-.4-1.2-.5-1.8-.6-.3 0-.8-.2-1-.4l-.3-.2h-.6c-1 0-1.6 0-2 .2-.6 0-.8.2-1.2 0l-2 .7-1.6.6c-.5 0-.8.3-1 .4l-1.6.6-1.6 1c-.4.2-.8.5-1 .8a2 2 0 0 0-1 .6l-1.4 1.2-1 .4-.2.2-1.4 1a2 2 0 0 0-.4.4l-.7.6a2.3 2.3 0 0 0-1 .6h-.3l-.5.8c-.4.6-1 1-1.5 1.5l-.5.3-.2.5-1.3.6v.4c-.5 0-1 .3-1.3.5-.4 0-.5.2-.7.2a3 3 0 0 0-.4-.7l-.3-.6a2 2 0 0 0 0-.4l-.3-1.3c-.2-.8-.4-1.4-.4-2.3V32l-.2-.5c-.2-.4-.4-1-.5-1.7l-.4-1.4a3.5 3.5 0 0 0-.3-1.2v-.7c0-1-.7-1.5-1-1.8l-1-1.2-1-.2a4.7 4.7 0 0 0-1 0c-.6 0-1 0-1.5.2-.3.2-.4.2-.6 0h-.4c-1.4 0-2 1-2.4 1.5l-1 .3-.2 1.2c0 1.8 0 3.2.4 4.4.2 1 .3 1.8.3 3l.4 2v.3l.4.7v.4l.4.7c0 .5.2 1 .4 1.2l.2.5v.2l.7 1.8.3 1v.5l.3.3c0 .5 0 1 .5 1.5 0 .3.2.5.4.8v.6c.4.4.6 1.2.7 2l.2.6c0 .3.2.6.4 1l.2.2v.4h.2c0 .4.2.6.3.8 0 .5.3 1 .4 1.2v.4l.4 1.8v.5l.3.3c0 .8.3 1.4.4 1.8v1.2l.2.5.5 1 .6 1 .4 1h1c.2 0 .3 0 .6.3.4 0 1 .4 1.8.4h.4c1.2 0 2-.5 2.4-1h.3l.3-.2.3-.3c.4-.3.6-.7.7-1h.2l1 1v.3h1.5c1 0 1.4.2 2.2.4l.6.2h.4c.6-.2 1 0 1.6 0l1.4.3c1 0 1.8-.3 2.4-.5l1-.2h.3c.6-.2 1-.5 1.3-.7l.7-.2 1.6-1.3.5-.8.7-1.5.3-.8c.3-.3.6-.7.7-1.3V53v-.3V50s-.3-.8-.3-.3a4 4 0 0 1 0-.4v-.6l-1-2a3.2 3.2 0 0 0-.5-.5v-.5l-.7-.3c0-.4-.4-1-1-1.2-.3-.7-.7-1-1-1.4l-.6-.8-.4-1.3h-1.3c-.5 0-.6 0-.8-.4l-.4-.8h-.5v-.2c.5-.3 1-.6 1-1 .5-.2 1-.5 1.5-1 .7-.2 1.3-.6 1.7-1h.3l1.5-1h.3l1.4-.8.2-.2c.4 0 .7-.3 1-.6.2 0 .3 0 .4-.2l.5-.3 1.6-.7c1.4 0 2.5-.4 3.3-.8l1-.5v-1c0-1.5 0-3-.5-4.4m-45.3 32c0-1.4-.6-2.5-1-3.3-.3-.7-.5-1-.6-1.8l-.3-1-1-.4s-.2 0-.3-.2h-.3a3.3 3.3 0 0 0-1-1c-.2-.5-.6-.8-1-1l-.2-.4-.4-1h-1.2l-.3-.2a4.4 4.4 0 0 0-1-.7 3 3 0 0 0-1-.6v-.4l-1-.3-1-.3c-.3 0-.7 0-.8-.2a3 3 0 0 0-.4-.2l-.7-.4a4 4 0 0 0-.7-.5 3 3 0 0 0-.7-.5l-1.5-1v-.4h-1l-1.2-.3c-.5 0-.8-.2-1.3-.4l-.7-.2h-.7l1.6-.8 1-.5.2-.2c.3 0 .7-.3 1.2-.5.6-.2 1.2-.4 1.8-.8l1.3-.8c.6-.2 1-.5 1.6-1h.2c.4 0 1 0 1.6-.4.4 0 .6-.3.8-.4h1.4l.2-1c.2 0 .3 0 .4-.2 1.2-.3 1.6-1.4 1.7-1.8v-.2l.4-.5V31c-.3-1.2-.8-2-1.3-2.7a6.8 6.8 0 0 1-.2-.6l-.5-.8H166a4.3 4.3 0 0 0-.3-.2c-.4 0-.8.2-1 .4a1.7 1.7 0 0 0-.4.3l-.4.2a1.7 1.7 0 0 0-.4.2l-4 .4-1 .3v.4c0 .2-.2.2-.3.3l-1.4.7c-.3 0-.5.2-.6.3l-1 .3v.3c-.5 0-1 0-1.6.4l-.8.4v.4a4 4 0 0 0-1 .6c-.8 0-1.4.4-2 .6-1 0-1.7.7-2 1l-1.4-.3v.8h-.2a5.5 5.5 0 0 0-.4-1c0-.4 0-.7-.2-1l.2-1.2v-.2l-.7-1.8a3.5 3.5 0 0 0-.3-.3c0-.3-.2-.6-.3-.8a2 2 0 0 0-.5-1.2c-.3-1-1.2-1.6-1.6-2h-.6V25c-.4 0-1-.6-2-.6h-.2c-1 0-1.5.5-2 .7h-.5l-.5.6c-.3.2-.4.4-.5.6l-.7.2v1.2h-.4V29c0 3.3.5 6 1.3 8 0 .8.2 1.3.4 1.7 0 .2 0 .3.2.5 0 .6 0 1 .4 1.6l.4 2v1c0 1.3.8 2 1.2 2.3l.2.4.7 1.6.4 1v.3l.7 1.8.5 1c0 1.4.6 2.5 1 3.5l.6 5.4h.2c0 .5.4 1 .6 1l.2 1 1.3.2h1c3 0 4-1.3 4.4-2.4l.2-.3v-.3c0-.3.4-.7.5-1.3v-.6-.8l.5-.5-.2-1c-.2-.7-.2-1.7-.3-2.7 0-1 0-2-.3-3 0-.7-.3-1.3-.5-1.7.2 0 .5 0 .7.2.3 0 .8 0 1 .2l.3.3h.5c.4 0 .6 0 1 .2l.5.2c.5.3 1 .4 1.3.5l.3.6h1l1.3.7c.6.4 1.5 1 2.8 1l.3.2.8.5.8.3.4.2.8.5c.3 0 .6.3 1 .4.2 0 .4.3.5.4.3.4.7.8 1.2 1 0 .4.3 1 .7 1.4 0 .4.3.7.5 1v1c-.3.8-.4 1.8 0 3l.4.6.6.2.5.3c.7.4 1.6 1 3 .8 2 0 2.8-1 3.2-1.5l.2-.2.8-.3.3-1c.2-.8.5-1.7 1-2.7V58zM126 50l-.2-.7h-.2c0-.6 0-1-.4-1.6 0-.3-.4-.7-.7-1a3.6 3.6 0 0 0-.5-1l-.6-2a2 2 0 0 0-.2-.4 2.3 2.3 0 0 0-.6-.8 2.2 2.2 0 0 0-.6-1.3l-.8-1.5c0-.4-.4-.7-.6-1l-.2-.3-.2-.3-.3-1h-.4c0-.2-.2-.3-.3-.4l-.8-1.2a2 2 0 0 0-.8-.8 3 3 0 0 0-.5-.5 2.2 2.2 0 0 0-.6-.8l-1-1-.2-.2c-.2-.3-.5-.7-1-1-.3-.4-.8-1-1.8-1.5-.4-.5-.8-1-1.2-1.2l-1-1-.3-.7-.6-.2c-1-.3-1.4-.5-1.6-.8l-.4-1h-1l-.3-.5h-1l-.3-.3a3.4 3.4 0 0 0-.8-.4l-.2-1h-1.4l-.2-.4-.6-.2a2 2 0 0 0-.5-.4v-.6h-.7v-.4h-.6v-.2H98c-.6 0-1 0-1.8-.2-.7-.2-1.6-.5-2.7-.5h-1L91 20v.2h-.5l-.3.7c-.6.3-1 .7-1.2 1l-1.2 1.5c-.3.3-.4.6-.5 1a2.8 2.8 0 0 0-.3.5l-.7 1.8-.2.7L86 29a2.6 2.6 0 0 0-.2.7V31l-.3.2v.6c-.2 1 .2 2 .4 2.4l.2.6c-.3 1 0 1.8 0 2.3.2.5.3.7.2 1v.4a30 30 0 0 0 1 6c0 1 .2 2 .4 2.4l.2.5c0 .8.2 1.4.4 1.7 0 1 0 1.6.5 2 0 .3.2.6.3.8l.2.8v.4c0 1 .2 1.4.4 2 .2.2.2.3.2.5l.5 1.8.2.4.7.2c.4.4.8 1 1.6 1.2.2.3.7.7 1.4.8h.5c1.4.2 2.2-.3 2.8-.6h.3l1-.5v-.7c.4-.3 1-.8 1-1.5l.2-.3c.2-.2.4-.5.5-1h.4V50l-.6-.2a2 2 0 0 0-.6-.8 2.4 2.4 0 0 0-1-1h-.4v-.4H98c-.2-.8-.5-1.2-.7-1.5v-.3l-.2-.4a2 2 0 0 0 0-.3v-.7a6.6 6.6 0 0 0-.4-1c0-2-.4-3.6-1-5V36l-.3-1.4V34c-.2-.3-.3-.8-.3-1.3s0-1-.2-1.5c.2-.4.5-1 .6-1.8V29c.2 0 .3 0 .4.2l.8.3.2.2 1.7 1 .4.2c.4.4 1 .7 1.3.8l1.5 1h.2c.3.4.7.6 1 .7l.6.5.7.8.5.3.5.3h.3c0 .2.2.3.3.3v.4l1 .3v.2c.3.3.5.6 1 .8v.4l1 .3a2.6 2.6 0 0 0 1.5 1.6l.4.4v.3l.2.2 1 2c.2.4.5.8 1 1v.2l.3.3c0 .5.2 1 .3 1v1l.8.3c0 1 .3 1.6.5 2.3 0 1 .4 1.8.7 2.3 0 1.5.5 2.6.8 3.5.2 1.3.8 2.2 1.3 3l.4.5h.6c.3 0 .5.2.7.3.6.3 1.3.6 2.3.6l1-.2 1.2-.2v-.2h.6l.4-.8c0-.2.3-.4.4-.6.5-.7 1.2-1.6 1.2-3.2v-4h-.6zM482.3 6v.6c.2 0 .2.2.2.3.2.2 1 .2 1 .7l-.7 1.7c0 .2-.3.3-.3.5h.3v.4s-.3.3-.7.2c0 .2 0 .3-.4.3l-.7.8c0 .2.4.3.3.7 0 0-.6 0-.7.2 0 .2.3.2.5.2v.3c0 .4-1 .2-.8.7 0 .4-.3.5-.3 1 0 0 .4 0 .4.3.3 0 .2.3.5.3 0 .4-.5.4-.4 1 0 .3 1 .2.8.6v1.3c-.3.3-.7.5-1.2.7 0 .2-.4.2-.5.4 0 .2-.5 0-.5.3-.5 0-.6.4-1.2.5 0 .3-.7.3-1 .7h-.8a.5.5 0 0 1-.3 0h-.6v.2h-.2v.2s-.4 0-.5.3c.2.4-.2.7-.4 1 0 .2-.7 0-.7.3l-.5.2c0 .4-.8.2-1 .6-.2.3 0 .7 0 1-.3.2-.7.2-.8.4v.5c-.4 0-.2.4-.7.3 0 .3-.7.2-.5.6.7-.2.6 0 1.2 0s.5.3 1 .3c0 .8-1 1-1.2 1.6h.4c.3.2.2.4.3.6-.4 0-.2.3-.3.5-.2.2 0 .4-.4.4l-.7.7c-.3 0-.2.3-.3.4h-.2l-.5.4s-.2.3-.5.3c0 .2-.4.2-.4.4v.5h-.5c0 .2-.2.2-.3.2 0 .2-.5.2-.5.4 0 .3.3.3.2.6-.3 0-.5.2-.4.4.2.3 1 .4.7 1 .3 0 .3.2.7.3 0 0 0 .3.2.3 0 .5-.7.6-.7 1 .3.6-.2.7 0 1.2v.3c-.3 0-.3 0-.3.2-.4 0-.7 0-.7.2 0 .4 1 .2 1 .7 0 .3-.2 1 0 1 0 0 0 .3-.3.3s-.2.2-.3.3c0 .3.7.2.5.6v.8l2.3.6c0 .4-.4.3-.3.7.5 0 .8 0 .7.4-.3.3-.3.7-1 .8.3.6-.6.5-.4 1-.5 0-.8.3-1.2.4 0 .3-.7.2-.6.6.2.2.2.4.5.5.2 0 .4.2.4.5-.3 0-.2.3-.3.5v.7s0 .3-.3.3l-.3.3c-.3 0-.8 0-1 .4-.4 0-.5.3-1 .3 0 .4-.6.3-.6.6.3.2 1.3 0 1 .5-.4.7-1.8.7-2.2 1.2-.7 0-.6.4-1 .5-.2.3-1 .2-1 .5.6 0 0 .7 1 .7-.3.4.6.2.3.8 0 .5-1 .3-.8.8 0 .3.5.4.5.7-.7 0-.7.4-1 .6-.2 0 0 .2-.4.2v.4c-.5 0-.8.3-1.2.4 0 .3-.4.4-.6.7 0 .4-1 .2-1 .6l-.2.4h-.7c-.2.7-.2.7 0 1.2 0 .2-.5.4-.7.6 0 .3.5.4.5.7-.7 0-.5.3-.7.5-.2.3.3.3.2.7a9.6 9.6 0 0 0-2 .2.7.7 0 0 0 0 .7c-.5 0-.7.3-.8.5-.2 0-.4.2-.5.4-.3 0-.5.2-.5.4-.2.2-.2.6-.5.7.3.2.3.4 0 .6.3.2.5.3.5.5-.3 0-.2.3-.2.4v.6h-.3c0 .2.3.2.3.3h.7l.2.5s-.2 0-.2.3h.2v.2c.2.2-.2 0-.2.2v.3h-.2c0 .3-.4.3-.5.4 0 0-.3 0-.3.2-.2 0-.4 0-.4-.2v.3h.5c.3 0 .7 0 .8.3.3 0 .8 0 1 .4.7.2.6.8.6 1.4-1 .3-2.8.2-3.2.8-.2.4.4.4.3.7h-.6c-.3 0-.2.3-.3.4H453c1 0 .7-.4 1.4-.3.3.3.3.4 0 .6-.3 0-.5.2-.5.5v1c-.2 0-.2.2-.2.3-.3 0-.4 0-.5.2.2.3-.5.2-.5.5-.7 0-1.2.3-2 .3 0 .2-.6 0-.6.3a1.6 1.6 0 0 1-.8 0c-.7 0-.4.5-1 .4-1.7 0-3.4 0-5 .3-1.4 0-3.4 0-4.6-.2 0 .3-.3.3-.5.3h-.6c-.4 0-.3.4-1 .3-.7 0-.8.2-1.6 0-.5 0-1.4 0-2-.2.2.3-.7 0-1 .2h-1.2c-.8 0-2 0-2.4-.2-.4 0-.4.4-1.2.3-.7 0-.8-.2-1.6 0-.3 0-.7-.2-1 0h-.7-.4c-.6-.2-.7 0-1 0H414c-.6 0-.5.3-1.2 0-.5.2-1 0-1.2 0-.2 0-.6.2-1 0h-2.1c-.3 0-.5-.2-1.2 0a9.8 9.8 0 0 1-2 0h-5.6c-.5 0-1 .3-2 0 0 0 .2 0 0 0h-.6c-.5.2-.6 0-1 0h-4.9-2l-1.4.3c-.6 0-1 0-1.2-.2-.3.2-.6.2-1 0-.3.3-1.3.2-2 .2-.6 0-.6-.3-1.2-.2H379c-1 0-1 .2-2 0-.8.2-.7-.2-1.5 0H374c-.2 0-.8 0-.8-.2h-2c-1 .2-2.2 0-4 0h-1c-.2 0-.8 0-.8.2h-1.7c-.7-.2-1.5 0-2.3 0h-2.2-.8s-2.6.2-2.8 0h-.7c-3-.2-6 0-9.4 0-1 0-2 0-3 .2-.6 0-1-.3-1.8-.2h-.2c-.2 0-.5.2-1.2 0-.5 0-.5-.2-1.2 0H331c-.3 0-.5 0-.5.2-.8-.2-2.2 0-3.6-.2-.6.2-.6-.2-1.3 0H321a29.8 29.8 0 0 0-4.5 0h-3.8c-1 0-2.5 0-3.5.2 0-.2-.6 0-1-.2h-1-.6a1.6 1.6 0 0 0-.7 0h-2.2c-1-.2-3 0-4.3 0-.5 0-.7-.3-1.4-.2-1.7 0-3.8 0-5.3.4-.5 0-.7-.4-1.5-.3H281c-1.5-.2-2.3 0-4 0-.5 0-1-.2-1.8 0-.8-.2-.8.2-1.7 0-.8.3-1 0-1.6 0h-4.4c-.8.2-2 .3-2.8 0h-.7c0 .2-1.4.2-1.6 0h-6.9c-.5 0-.6-.3-1.2-.3 0 .2-.6 0-1 .2h-.6c-1 0-1.2.3-2 .2-.7 0-2 0-2.5-.2-.5.2-1.6 0-2.4 0a10.8 10.8 0 0 0-2.7 0h-.5-4.8c-.8.2-2 0-3 0h-.4H233.3h-1.9c-1 .2-2 0-3 0 0 .2-.7 0-1 0-.5.2-.6.4-1.2.4h-1c0 .2-.4 0-.4 0-.8 0-.8.2-1.5 0H221s-.2.2-.6 0h-1c-.6 0-1.5 0-2-.3-.3 0-.7 0-.8.3h-1c-.6.2-.6 0-1.3 0-.5 0-.6.3-1.2.3l-1-.2c0 .3-.3.2-.6.3-.4-.3-1.5 0-2.3-.2h-2.5c-.6 0-.5.2-1.2 0-1 .2-1 0-2 0h-.4v.4a1.6 1.6 0 0 1-.8 0c-1 0-1 .3-2 .3-.7 0-1.2 0-1.8-.2 0 .4-.8 0-1 .2h-1.6c-.5 0-.5-.3-1-.2h-3.2c-2.7-.4-6.4-.2-9.7-.2-.6 0-1 .2-1.7 0-1 .2-1 0-1.7 0H175c-.5 0-.4-.3-1-.2h-2.2c-.7.3-1.7.3-2.6.3-.6 0-.5.2-1.2 0-.7 0-1.6.2-2 0-.2 0-1.5.3-1.8 0h-1-.4c-.7 0-2.2-.2-2.8 0h-1c-.7.3-1.8 0-2.6 0h-2c.2 0 0 0 0 0H151c-.7 0-.7.2-1.4 0h-1.2c-.3 0-1 0-1 .2-.7 0-.5-.4-1.3-.2-1.7 0-3.8-.2-4.8.2 0-.3-.8 0-1 0-.4-.2-.7-.2-1-.2h-4.9c-1.2 0-2.4.2-3.8 0h-.8-.5s-1.6.2-2 0h-4.3H120c-.6 0-.6-.2-1-.2-.7.3-1.3.4-2 .4-.8 0-1-.2-2 0-.8-.2-1 0-1.8 0H109.3c-.8.2-.5-.3-1.4 0a8.3 8.3 0 0 0-2.2 0c0-.2-.5 0-1 0a1.7 1.7 0 0 0-.6-.3c-.3.2-.6.3-1.2.3-.7 0-.6.2-1.2 0h-1c-.8.3-2 0-3 0a18.8 18.8 0 0 0-2.3 0h-3.5H89.6c-.7.2-.7 0-1.4 0H87c-1.3.2-2.7 0-3.8.2h-4.9s-.2-.2-.3 0h-5.4-1a1.6 1.6 0 0 1-.7.2c-.5-.3-1.6 0-2.4-.2-.6 0-.5-.2-1.2 0h-2.6c-.8 0-2 0-2.4-.2 0 .2-.5.2-1 .2 0-.3-.7 0-1 0-.5 0-1 0-1-.2h-1H54.2c-.6 0-1 0-1.4-.2-.2.4-.5 0-.8 0 0 .3-.2.2-.4.3h-.3-.7c0-.2-.3 0-.4-.2-.4 0-.8.2-1.2 0h-2.2c-.2 0-.3-.2-.7-.2h-2.8c-.6 0-.6-.3-1-.2 0 .3-1 0-1.5 0 0 .3-.4.2-.7.2h-.7c-.3 0-.2-.5-.5-.7-.4 0-.5 0-.5-.4.4 0 0-.2 0-.4.2-.2.4-.4.8-.5h.5v-.4c0-.6-1.2-.4-1-1.2.3-.2 1.2 0 1.3-.5-.4-.2-1.3 0-1.5-.4-.2 0 0-.2-.4-.2-.3 0-.4-.2-.4-.4s.3 0 .5-.2h.3c.2-.2.3-.3.3-.5 0-.3 0-.6.2-.7l-.7-1 .6-.7c.2 0 .2-.2.2-.3 0 0 .3 0 .3-.3h-.7c-.2 0 0-.3-.2-.4.4 0 .3-.3 0-.3 0-.4.8-.3.6-.8.2 0 0-.3.5-.3.2-.2.3-.3.3-.5.5-.2 1.3-.2 1.4-.6v-.6c.6 0 .6-.5 1.2-.6 0-.3 0-.7.8-.7h1c0 .3 0 .4.3.4v-.6h-.5c-.2-.2-.2-.5-.7-.5 0-.7.3-.8 0-1.4 0-.3-.3-.5-.7-.5 0-.3 0-.4-.3-.5.2-.4.2-.4 0-.8 0-.4-.3-.5-.3-.8.6-.2 1-.4 1.2-.7-.3 0-.2-.3-.5-.3V61c.8 0 .6-.6.6-1l.7-.2c.2 0 .2 0 .2-.2-.6 0-.4-.3-.7-.5h.5c.4 0 .7-.2 1-.4 0-.3-.7-.2-.8-.4V58c.8-.2 1.3.4 1.7 0 .2-.7.2-.8 0-1.5 0-.2.2-.3.5-.3v-.6c.2 0 .2-.2.2-.4v-.4c0-.4-.2-.6 0-1l.8-1.7c-.7.2-.4-.3-1-.2H45c0-.3 0-.3-.2-.4-.2-.4.3-.4.4-.7 0-.3-.4-.3-.2-.7-.2 0-.7-.2-.7 0a1.6 1.6 0 0 0-.7 0c0-.5 0-.8-.3-1-.5 0-1 0-1.4-.2 0-.3-.4-.4-.4-.7 0-.3.7 0 .8-.4.3 0 .5-.2.7-.4.4 0 .5-.3.5-.5.2-.2.7 0 .7-.3s-.5-.4-.4-.7c-.5 0-.5-.4-.5-.7-.6 0-1 0-1-.4-.3 0-.5-.3-1-.3 0-.4-.3-.5-.4-.7 0-.4-.4-.4-.3-.7-.2-.2-.5-.3-1-.3 0 0 0-.2-.4-.2 0-.3-.3-.3-.2-.6-.3 0 0-.5-.4-.5 0-.3.2-.4.5-.4 0 0 .5 0 .5-.2-.2-.5 1-.2.7-.7-.4 0-.7 0-.7-.2s-.4-.2-.4-.4-.2 0-.4-.2h-.3l-.2-.7c-.6 0-.5-.3-1-.4-.3 0-.6-.3-.8-.6-.3 0-1 0-1.2-.3 0-.2 0-.7-.2-.8-.7-.2 0-.5 0-.8l-1-.2c.2-.4-.4-.3-.2-.7-.3-.2-1-.2-1.2-.3v-1c1.4.4 3 .5 4 0 0-.2-.3-.4 0-.4 0-.2.5-.2.5-.4-.7 0 0-.7-.5-.6-.2 0-.3-.3-.3-.6-.2 0-.2 0-.2-.2s-.3-.2-.3-.3V30l1-.2c0-.2.7 0 .7-.2.3-.5-.4-.5-.5-.7 0-.2-.3-.3-.3-.4-.2-.4-.7-.6-.7-1-.2 0-.2-.2-.3-.3h-.2c0-.4-.3-.4-.2-.7-.2-.3-.5-.5-.5-1-.5 0-.8-.3-1.2-.4.2-.6-.3-.7-.2-1.2-.4 0-.6 0-.7-.3-.5 0-.6 0-1-.2.2-.4-.4-.4-.2-.8.3-.2.3-.5.2-.8-.3-.3-1-.3-1-.7-.5 0-.6-.2-1-.3 0-.2 0-.4-.3-.4 0-.2 0-.4-.3-.4 0-.3-.3-.5-.3-1 0 0-1 0-.7-.4-.2-.5.4-.5.2-1 0-.2-.5 0-.5-.3 0 0-.2 0-.2-.3.4 0 0-.4.7-.4.4 0 .6 0 .7-.3v-.8h.4c0-.3 0-.3.2-.3 0 0 .5 0 .5-.3h-.6c-.3-.2-.2-.4-.3-.6-.5 0-.2-.5-.6-.7-.4 0-.7-.3-1-.4-.2-.3-1.3 0-1-.6v-.2c.3 0 .4 0 .4-.2.3 0 .2-.2.2-.4 0-.5 1-.3 1-.6v-1.2c0-.2.6-.2.4-.7 0-.5-.4-.6-.4-1 .2-.2 0-.5.4-.5.2 0 .3-.2.3-.4-.2 0-.7-.3-.7 0l-.8-.2h-.7l-.2-.5c0-.6.6-.5 1-.7-.2-.4.2-.5.2-.8 0-.2-.4-.2-.7-.2l-.5-.3c.3-.6-.8-.4-.7-1l.2-.4s0-.2-.2-.2v-1c1 .2 1.7 0 2.4-.2 0 .2.4.2.7.2h1c.6 0 .6.2 1.3 0 .8-.2 2 0 3 0 0 0 .3-.4 1-.3 1 .2 1.3.5 2.4.4.6 0 .5-.3 1-.3h1c.4 0 .6.2 1.3 0 .8 0 2 0 2.4.2.5 0 .4-.3 1-.2h3.7c.6 0 .7.2 1.5 0 .7.2.7 0 1.4 0 1 0 1.6 0 2.2-.2 0 .3.8 0 1 .2h2.8c.6 0 .5.2 1.2 0 1.3 0 2 .2 3.3 0H64c0-.2.6-.2.6 0h.7c.6-.2 1.3-.2 2-.2h.6V2h3.6l1.2-.2h4.5l.2.2c.7 0 1.4 0 2.2-.2h3c.6.2 1.7.2 3 .2l.6-.2h.5c.5 0 1.4 0 1.8.2l.8-.2s.3.2.7.2c.5-.3 1.6 0 2.4-.2.5-.2 1.4 0 2-.3.4.2 1.3.2 1.8.3h9.6c.4-.2 1.3 0 2.2 0 .7-.2.8.2 1.5.2 0-.3.4 0 .4-.2h2.5c.4 0 .6-.3 1.2-.3 3.3.2 6.8 0 10 0h.6s0 .2.2.2h.3c.3 0 0 0 .2-.2.6 0 2.3 0 3 .2l1-.2c.2 0 .7.3.7 0h2.4a8.6 8.6 0 0 1 2.2 0c.8-.2 1 0 1.4.2 0-.2.3 0 .5-.2h.6c0 .3 1.4-.2 1.4.2l.7-.2c0 .2.5.2.5 0 .7.2.7.2 1.4 0h1.7c.4 0 .5-.3 1-.2h3.1c.6.2 1.8 0 2.3.4.7-.3 2.3 0 3.3-.2.6 0 .4.3 1 .3 0-.2.3 0 .6 0h.5v-.3h4.1c1 0 2 0 3-.2h4.6c.5 0 1 0 1.7-.2l3.3.3 2.8-.2c.8 0 1.4.4 2.4.3 0 0 0-.2.2-.2s.3.2.5.3h1.6c.8 0 .8-.2 1.3-.2.7 0 .6.3 1.2.3.5 0 .3-.4 1-.3h3.3c.8.3 1 0 1.8.3.7-.3 2 0 3-.2H194.5l.7.3c1-.3 2.4 0 3.5-.2h1c.5 0 .4.2 1 0h1.3c.3-.2.8.2 1 0h.4c1 .3 3.3.2 4.7 0h2s1.6.2 1.7 0h4.2c.7 0 1 .2 1.6.3.3-.2 1-.2 1.6-.2.8.2.7 0 1.5 0h2.3c.5 0 1.3-.2 2 0h.6a6.7 6.7 0 0 1 1.4 0h.7c.7-.2 1.6 0 2.4 0h1.8c.5 0 .8.2 1.6 0 .4.2.4 0 .7 0 .4 0 .5 0 .6-.2 2 .3 4.6 0 6.8.2l1.5.3c.3-.3 1.4 0 2.2-.2h7.7c.7.2 1 0 1.4 0 .4 0 .5.2 1 0 .4 0 .3-.3 1-.2 0 .2.3.2.6.2h1c.5 0 .5.2 1 0h2.3c.5 0 .5.4 1.2.3h6.6c1.3.2 3 0 3.8.5 0-.2.6 0 1 0 .4-.2.4 0 .7 0h1.7c.7 0 .4-.5 1-.4a9.3 9.3 0 0 0 3 .3c-.3-.2-.3-.4 0-.6a8.6 8.6 0 0 0 2 0h2c.5 0 1 .3 2 0h.8c.3.2 1 0 1.4 0 .8.2.7 0 1.4 0 1 .2 2.2 0 3 .3.5 0 .2.4.6.4.3-.2.8-.2 1.4-.2.6 0 .5.3 1 .3 0-.3.5-.3 1-.3.3-.3-.5-.4.4-.4h2c.2.2.3.5 1 .5 0-.2.3 0 .7 0 0 0 .4 0 .4-.2.4 0 .6 0 .7.2h1c.4 0 0-.4.5-.4 0 .3.3.2.3 0h1.2c0 .3.2.4.4.4 0-.3.6-.4 1 0 .4-.2.4-.5 1.2-.4 1 0 2.3 0 3.3-.2l.8.2.2-.2h.5c.5.3 2 .2 3.3.2h.5V.8l3.5.2 2.2-.2c.4 0 .5.3 1 .3 0 .3.4.2.6.3 0 0 0 .2.2.2.8 0 1 .3 1.7.2.4 0 .8 0 1-.3.4 0 .2-.4 1-.3a8.6 8.6 0 0 0 2 0h1.4s.3.2.6 0c.5 0 .7-.2 1.5-.2 1.3 0 2 .2 3 .3.6 0 1 0 1.5-.2.3.2.7.2 1.2.2h1c.4 0 .6.3 1 .3l1-.2c0 .3.3.2.6.3 0-.2.4-.2.4 0h.7c.2-.2.4-.2.8 0 .4 0 .3-.4 1-.3l1.3-.2c.2.5.5 0 1 0 .2 0 0 .2.2.3h.5c.3 0 .4.3.7.3 1 0 2 0 3 .2h1.8l1 .2h.5l.2-.2c.2 0 .2.2.5.2h1.6c0-.2.7 0 .7-.3.2 0 .2-.2.3-.3h.4c.4 0 1 .2 1 0h.7L362 1h4.1c.8 0 1.6 0 2.2-.2 3.3 0 6.5-.2 9.5 0h1.2c.2 0 0 0 0 0s3.4-.2 3.7 0c.7.2 2.2 0 3.3 0l1.4-.2c.7 0 .7.3 1.4.3 0-.3.8 0 1.2 0 0-.3.6-.3 1-.3.7 0 .7.3 1.6.2l1.6-.2 1.2.2c.3-.3 1.2-.2 2-.2.5 0 .4.3.8.3h1.2c0 .3 1 .3 1.4.4.5 0 1 0 1.4-.2 0 .2.3 0 .5 0 0 0 .5 0 .5-.2h1.4c.4 0 .4-.2.7-.2h.5c.7-.2.7.2 1.4.2.3-.2.8-.2 1.4-.2.6 0 .5.3 1.2.2h5.9c.2 0 .2.2.5.2 0 0-.3 0-.3-.2 0 0 .2 0 .2-.2.4 0 .4 0 .4.3h.8c.7 0 .4-.4 1-.3h2l2 .2c0 .4 1.7-.2 1.3.4 0 .2.3.3.2.4h3.4l4.2.3 4.7-.2c-.2 0-.3-.3-.3-.5l1-.2.4-.2c.4 0 .7 0 .7-.2l.6-.3c0 .3.6.3 1 .3h1l.6-.2c.3.2.4 0 .5 0h2c0 .4 0 .8.6.8.5 0 1 0 1.2.2.2-.2.2-.6 1-.6s1 0 1.6-.3c0 .3.5.3.8.3h.7c.7 0 .8.3 1.4.3h1.5c.3.2.2 0 .3 0 .2 0 .5.2 1.2 0 0 0 .7 0 .7-.2h.4c0-.2.2-.3.4-.3 0 .3.2.2.2 0h.7c.3 0 .4.2.5.3h.5c-.2.2-.6.3-1 .3s-.6 0-.7.2c-.5.2-.8.4-.7 1h1.3c-.2-.8.4-1 .7-1.2.6 0 1.2 0 1.4-.2.5 0 .8 0 1-.3.7 0 .7.5 1.4.4H464c.4 0 0 .4.6.4 0-.3.8-.2 1.4-.2h1.2c.7 0 .7.3 1.2.4 0-.4.8-.2 1-.4.2 0 .6 0 .6.2h.7c0-.2.6 0 1 0-.3-.7.8-.5 1-.8h2l1.2.4h1.3l1 .2c.2 0 .5-.3 1-.2.2.2.8.2 1.3.2.7 0 .7-.2 1.2-.2h1c.3.2.5 1.3-.3 1.3 0 .4-1 .5-.7 1-.3.2-.7.3-.7.7.2.3-.6 0-.6.4.5 0 .2.5 1 .4 0 .3.6.2.4.6v.8c.4 0 0 .4.5.4M260.7 51l-1 1.6v.3h-.3l-.6 1-.3.4H257a2.7 2.7 0 0 0-.3-.3l-1.6-.7-.5-.3-.3-.2h-.2c-.4-.5-1-1.3-2-1.6l-1.5-1.5c-.2 0-.3-.2-.4-.3.5 0 1 0 1.4.2.5 0 1 .2 1.4.3h.4l.4-.2c1.3-.4 2.5-.6 4-.5h1l.4-.4s.4-.2 1-.2h.8c0 .3.2.7 0 1.3v1m-54.4 1.6h-2.6a2.7 2.7 0 0 0-.7-.3 1.8 1.8 0 0 0-.7-.5 2 2 0 0 0-1.3-.5h-.3a3 3 0 0 0-1-.3 3 3 0 0 0-1-.6v-1h-.6a2.6 2.6 0 0 0-.2-.4l-.8-1v-.2a3 3 0 0 0-.5-.7v-.3l2-.2 2-.2c.6.3 1.2.6 2 .7l.5.4 1.5 1.3c.2.3.6.7 1.3 1l.3.2.4.4.3.6.2 1.2a3.6 3.6 0 0 0-.4.4h-.2z" fill="#F4C522" fill-rule="evenodd"/></g></svg>