<svg xmlns="http://www.w3.org/2000/svg" viewBox="0 0 637.95874 235.245"><defs><clipPath id="a"><path d="M0 188.2h510.4V0H0v188.2z"/></clipPath></defs><g clip-path="url(#a)" transform="matrix(1.25 0 0 -1.25 0 235.25)"><path d="M464 154.8c.2-1 0-1.6-.3-2v-.3-.2c.2-.3.6-.8.5-1.7 0-.5-.2-1-.3-1.3-.2-.6-.3-1-.2-1.8.3-1 0-1.5-.3-1.8 0-.5 0-1.4-.4-2 .2-1.2 0-2.2 0-3-.2-1-.3-2 0-3.2v-.4c-1-3-1.4-5.8-1-9.4.3-1.4-.6-2-1-2.3l-.3-1.2c0-.4 0-1-.4-1.3 0-.8-.3-1.3-.4-1.8l-.2-.3c0-.5.2-1.2-.3-1.6a3.2 3.2 0 0 0-.6-.3l-1.4-1-1-.2c-.4-.2-1-.6-2.2-.5a3.7 3.7 0 0 0-.8 0c-.7 0-1 0-1.5.3H451l-.4.6c-1 1.3-1.6 2.8-2.3 4.4v.3c-.2 1.5.2 2.5.5 3.3.2.7.4 1.2.3 2v.9c.5 1.2 1 2.5.7 4.2 0 1 .3 1.8.6 2.3.3.4.4.5.3 1v.4c0 1 .4 2 .8 3v3.3c0 1 .3 2 .5 3 .4 2 .7 3.8.8 6-.3-.3-.6-.6-1-.7l-.4-.6v-.6l-.7-.4a3.3 3.3 0 0 1-1.4-1.5l-.3-.6h-.4v-.3c0-.4-.3-1.3-1-1.7a5.5 5.5 0 0 0-1.8-2v-.3c-.3-.5-.6-1.4-1.5-1.8a5.4 5.4 0 0 0-1.5-2c0-1.2-1-1.8-1.7-2v-.5c-.2-.5-.6-1.5-1.6-2-.2-.6-.7-1-1-1.3l-.3-.2v-.6l-.7-.3a3.3 3.3 0 0 1-1.4-1.5l-.2-.2c-.3-.7-.8-1.7-2.2-2a2.2 2.2 0 0 0-.4-.2v-.4l-.5-.2c0-.3-.3-.6-.6-.8-.2-.6-.6-1-.8-1l-.3-.4-1-1v-.6l-.6-.3-.4-.2v-.5l-.5-.2c-.2 0-.4-.2-.4-.3l-1-1-1-.4c-2 0-3-.5-4.3-1l-.3-.2a5.4 5.4 0 0 0-1.3-.2c-1 0-1.6.3-2.2.5-.4.2-.8.4-1.2.4l-1 1-.3 1c-.3.5-.5 1.2-.5 2.3a3.3 3.3 0 0 0-.5 1.7l-.6 1.4c0 .5-.2 1 0 1.5v1c-.2.5-.2 1-.2 1.5v1.5c-.7.8-.7 2-.7 3v1.1c0 .6 0 .8-.2 1-.2.5-.5 1-.5 1.8s.2 1.5.3 2c.2.6.3 1 0 1.7v.5c.2.5 0 .6 0 1-.3.4-.5 1-.5 1.6l-.3 4.6c0 .3-.4.6-.5 1v1l-.2.6-.5-.5c0-1-.7-1.3-1-1.6l-.7-1c-.3 0-.5-.3-.8-1-.3-.5-.6-1.2-1.4-1.7-.2-.5-.6-.8-.8-1l-.6-1.3c-.4-.2-.6-.4-.7-.7 0-1-.7-1.3-1-1.5v-.7c-.2-.7-.7-1.4-1.3-1.8 0-1-.3-1.5-.5-2l-.3-1.4v-.2c-.2-.6-.5-1-.8-1.3l-.2-.8h-.4a2.2 2.2 0 0 0-.4-.8c0-1.4-.4-2.5-.6-3.6-.3-1-.5-2-.6-3.2 0-2.8-1-4.7-2-6.3l-.6-.8h-.5c-.4 0-1-.2-1.4-.4-1 0-2-.4-3.7-.3h-1v.5h-.2c-.5 0-1-.2-1.6 0-.5 0-1 .4-1 .6l-.3.2-1 1.2v4c0 2 0 4 .4 6 0 1.2.4 2 1.2 2.7 0 .3.2.7.5 1 0 1.2.3 2 .6 2.7l.3 1.4v1h.4v.3a6.4 6.4 0 0 0 0 .8v1h.4c0 .6.2 1 .4 1.2 0 1 .5 2 1 2.6l.3 1c0 .8.3 1.4.5 2 .2.5.4 1 .3 1.6v.2c.2 1.7.7 3 1.2 4 0 1 .2 1.5.4 2v.5l.3.4c0 .4.2 1 .6 1.3 0 .7.3 1.2.8 1.6a2.4 2.4 0 0 0 1.2 1.7c.5 1 1.5 2 3.5 2.4 2.8 0 4.2-1.3 5-2.6.3.2.5.5.6.8.3.3.5.8 1 1.2 0 .5.3 1 .7 1.2 0 .4.4.8 1 1 0 .3.4.5.6.6v.5l.8.3.6.3c.4.4 1 1 2 1 1.8 0 2.8-.3 3.8-.7l.7-.4h.5l.3-.4a5.8 5.8 0 0 1 2-2l.5-.2.2-.5 1-3 .8-2.8v-.3c0-1.5.4-2.6.7-3.7l.6-2 .3-6.4a112.2 112.2 0 0 1 .5-2.5c.7-3 1.4-5.8 1.5-9.3.2 0 .4 0 .6.2l.2.2c.2.2.5.7 1 1l.5 1 .4.2h.2c0 .3 0 .5.3.7l.3.3.5.5.2.2.6.4.3.6.5.3v.2l.4.4h.2s0 .3.3.5l.4.4.3.4h.4c0 .3.3.6.8 1l.6.6c.2.6.4 1 .8 1.2.3.6.8 1.5 2 1.8.2.6.4 1.4 1.2 1.8.2.6.6 1 1 1l.2.3v.4c.3 1 1 1.7 1.7 2.2.5.6 1 1 1 1.6v.5l.4.3a12.5 12.5 0 0 1 3 3.3l.2.4h.3c.4.3.6.7 1 1.4s.8 1.5 1.5 2c0 1 .6 1.6 1 2l.3.6c0 1 .3 1.5.6 2 .2.2.3.3.2.6v.7l.5.3 1.5 1 1.2 1 .7.6v.4l.8.2a3 3 0 0 0 2.4-.2c.3-.2.4-.2.6 0l1.4-1 .6-.4c.5-.4 1.3-1 1.5-2 .3-.3.4-.7.5-1h.5v-1c.2-.2.2-.4.2-.7v-.2h.4v-1-1.5c.2-1.5.2-3.3.7-4.4l.3-.3v-.5c-.4-1-.5-2.4-.3-4.4m-83.8 8.4c0-.7 0-1-.3-1.4l-.2-.4-.5-1.2a2.3 2.3 0 0 0-.3-.6c0-.8-.7-1.4-1.8-1.8h-.2l-1-.8a6.2 6.2 0 0 0-1.2 0c-1.3 0-2 .3-2.8.7l-1.6.5a26.7 26.7 0 0 0-3-.2c-1.8 0-3.6.2-5.3.4l-2 .3-.6-.3c-.6-.2-1.3-.5-2.3-.4a2 2 0 0 0-.2-.2v-.8h-2.5a6.3 6.3 0 0 0-1.2-.2c-1 0-1.7.2-2.4.5l-1.5.3c-.3 0-.6 0-1-.3-.5-.2-1.2-.4-2-.4-.7-.6-1.5-.6-2-.6a3.3 3.3 0 0 1-.4 0h-.4a2.2 2.2 0 0 0-1-.6l-.2-1h-.4c0-.3-.4-.7-.8-1v-2.5c-.3-.3-.4-.5-.4-.8 0-.5.2-1.5-.3-2 0-.8 0-1.3-.3-1.6v-.4h2.5c1.2.4 2 .2 2.6 0 .4-.2.6-.3 1-.2h1.2l1.4.2c.5 0 1.2 0 2-.4h2.2c.7 0 1 0 1.4-.4 1.2 0 2.3-.2 3.4-.3 3.4-.3 7-.6 10.8-.4h.3a11.8 11.8 0 0 1 1.2-.2c.8 0 1.6-.2 2.3-.5h2.2l2.3.3c1.2 0 2-.2 2.7-.6l.5-.3v-.5c.4-2.6-.5-4.3-2.8-5.3-1-1-2.8-1-4.3-1h-2c-.6 0-1-.2-1.4-.5-.6-.3-1.4-.7-2.6-.7h-.7c-1 0-1.6-.2-2.4-.5l-.8-.2h-.3a20.6 20.6 0 0 1-3.6.4c-1.8 0-3.3-.2-4.2-.6h-.2l-1-.2c-.8 0-1.4.4-1.8.6-.4.3-.5.4-1 .3-.5 0-.8 0-1.2-.3-.7-.2-1.5-.6-3-.4l-.7.2v.2h-2.4c-1-.3-2 0-2.7 0-.6.2-1 .3-1.4.2h-.3c-.7 0-1.2 0-1.8-.2a8 8 0 0 0-1-.4c-.3 0-.5-.4-.6-1.5 0-.7-.3-1-.5-1.4v-.5c0-.6-.2-1-.4-1.2 0-1-.6-1.4-1-1.6l-.3-1.4V126l1 .2c.6 0 1-.3 1.2-.5l8 .4c.5 0 .7 0 1 .3.6.3 1.3.7 2.5.5h.6c.7 0 1.8 0 2 .2l.2.4h.4c1 .2 1.8 0 2.3-.2.4-.2.6-.2 1 0 2.2.6 5 .7 8 .8h1l.2-.4h.8l.3-.2c.3-.2.4-.2.7-.2h.4l.4-.2.5-.2c.7-.2 2.2-.7 2-2.5.6-2-1-2.7-1.4-3h-.4c-1-1-2.2-1-3.5-1v-.2c-.3-.3-.7-1-1.4-1-.5-.4-1-.6-1.4-.7-.3 0-.7-.2-.8-.4l-.3-.3h-.6l-.2-.6-7.7-.2c-.6-.3-1.3-.4-2-.6-1-.2-2.2-.5-3-1l-.3-.3h-1.4-.4a1.5 1.5 0 0 0-.8 0h-.4a1 1 0 0 1-.2 0l-.2-.2c-.3-.2-.8-.6-1.7-.5l-2.7-.2c-2 0-4 0-5-.5l-.4-.2h-.4c-2.2.3-3.4.2-5.5 0-.4-.2-1-.3-1.5-.3h-.6l-.4.3h-.6c-.5.2-1.7.3-2.2 1.4-.3.2-.7.4-1 1a2 2 0 0 0-.4.5l-.8 1.2.2 1.3c.2.6.3 1 0 1.8 0 1.3.4 2 .7 2.4.3.3.3.4.3.6v.8c.8 1.7 1.5 3.4 1.6 5.5v1h.5v1h.4l.4.3c0 .2.2.4.4.6 0 1 .4 1.5.6 2l.3.6c.2 1 0 1.7-.5 2.5-.4 1-.8 2-.7 3.8v1h.4c0 .7.4 1 .8 1.3a2.3 2.3 0 0 0 1.5 1.3c.2.5.6 1 1 1l.5.7c0 1 .3 1.6.6 2 0 .2 0 .3.2.4-.2 1 0 1.6.4 2-.2 1 .2 1.7.4 2 0 .7 0 1.2.4 1.5 0 .5.3.8.5 1v.5l-.2.5.3.5.3.8c0 .5 0 1 .3 1.4 0 1 .3 1.6.8 2 0 1 .7 1.6 1 1.8l.7 1.4c.4 0 .7.4.8.8l1.2.8h.3c.2.3.7.6 1.5.7.3 0 .6.2.8.3l21 1.7 4.7.6c2.2.2 4.4.4 5.8 1.2h.3c1.2.3 2 0 2.7 0l.8-.3h.6c1.4.3 2.3-.2 2.8-.5.4-.3.6-.4 1-.3l1.2-1.3.3-.6c.3-.2.4-.4.5-.6l.8-1.3.2-1c.3-.4.6-1 .4-2.3m-77.5-17.7a38 38 0 0 0 0-2c-.3-1.5-.4-3-.2-4.7l-.4-1.2a7 7 0 0 0 0-.6v-1h-.3v-1.5h-.4a5.8 5.8 0 0 0 0-.5v-1h-.4l-.2-.2v-.6h-.5c0-.4-.3-.8-.7-1v-.2l-1-1a27 27 0 0 1-.2-.6c0-.3-.2-.6-.4-1-.4-.8-1-1.5-1.6-2-.5-.5-1-1-1-1.4l-.4-.5-.4-.2c-.3-.2-.7-.5-1.3-.6h-.2c-.2-.5-.6-.7-1-.8v-.2l-.3-.3c-.3-.4-.8-.5-1-.7h-.2l-.2-.3-1-.7h-.2l-1.3-.8a1.5 1.5 0 0 1-.2 0h-.2c-.2-.2-.7-.6-1.4-.6a4 4 0 0 0-.7-.3l-1.2-.7h-.2c-.3-.3-.6-.5-1.2-.5a4.2 4.2 0 0 0-.6-.3l-1.4-.8c-1.6 0-2.8-.4-4-.8l-2-.6a2.4 2.4 0 0 0-.5 0c-.5 0-1 .2-1 .4-.8 0-1.2 0-1.6.4a12.8 12.8 0 0 0-.8 0c-.6 0-1.4 0-2 .4-1 0-1.8.4-2.4.6-1 .3-1.6.6-2.6.6h-1.2v.6c-.8.2-1.3.6-1.5 1-.5.2-.7.5-.8.7l-1.7.4h-.3c-.6 0-1 .3-1.2.6-.7.4-1 1-1 1.4h-.6l-.2.8v1.4l-.6.7v.6c0 .4.2.7.3 1 0 .5 0 1.4.4 2 0 .5 0 1 .4 1.6 0 .7.4 1 .6 1.5.3.4.3.5.3.8v.4c0 .5.3 1 .5 1.3.3.5.4.7.3 1.2l.5 1.3c0 .2.2.4.4.6 0 .5.3.7.4 1l.6 1.4c.3.5.4.7.3 1.3l.7 1.2c.3.2.5.4.6 1.6v.4l.3.3.3.7c0 .6.3 1.2.8 1.7.2 1.8.5 3.5 1 5 0 1.3.7 2 1 2.2v.7l.6 1 .4 1 .6 3c.4 2.5 1 5 1.8 7.5.4 1 1 1.7 2 2l.2.2 5 .3.3-.6c.2 0 .6-.3 1-.6 0-.2.4-.5.5-1 .4-.3.6-.8.7-1l4 .3h2.7c1 0 1.7-.3 2.2-.6.5-.3.6-.3 1-.2l1.4-.4h1.5v-.4h.5l1-1h.3c.5-.2 1.3-.4 1.7-1l1-1 .3-.3 1.5-1.2c.3-.2 1-.6 1-1.5.6-.4.7-1 .8-1.3v-.2l1-1c0-.4 0-.6.2-1 .3-.2.5-.6.7-1 .2-.4.6-.8.6-1.4l.6-1c0-2.2.3-3.7 1-5.3 0-.3 0-.7.3-1.2v-.3zm-58.2 21.3v-.2c0-.5 0-1.4-.5-2 0-.4 0-1-.4-1.4 0-.6 0-1.2-.5-1.6 0-.4 0-.7-.2-1 0-.3 0-.8-.3-1v-.3a1.6 1.6 0 0 0-.2-.4 1.2 1.2 0 0 0-.4-.7 2.2 2.2 0 0 0 0-.8 1.3 1.3 0 0 0-.5-.7v-.7l-.2-.8h-.2v-.2l-.2-1h-.4c-.2-.3-.2-.4-.2-.7v-.8l-.7-.4c-.3 0-.6-.2-.7-1.4v-.6l-.6-.3-.2-.5c-.2-.4-.5-1-1-1.4-.3-.8-.6-2-1.7-2.6 0-.4-.2-.8-.6-1.2 0-.5 0-1-.4-1.6 0-.4-.3-.7-.4-1v-.7l-.7-.2c0-.2-.3-.6-.6-1l-.8-1.6c-.6-1-1-2-1.3-3.2v-.6l-.7-.3c-.2-.2-.2-.2-.2-.5v-.7l-.6-.3-.3-.3-.2-.7h-.4c-.2-.4-.4-.8-.8-1a2.6 2.6 0 0 0-.5-.8c0-1.3-1.2-1.8-1.8-2 0-1-.8-1.6-1-1.8l-.4-.4v-1h-1c-.5 0-1-.2-1.4-.5-.6-.2-1.4-.6-2.5-.6l-1-.4v-.6l-4.5-.2v.5c-.4.2-.8.4-1 .8a1 1 0 0 1-.4 0l-1.3 1.4c-.3 0-1 .5-1 1.4-.5.3-1 .7-1 1.4v.6h-.7v1.5h-.7v1h-.2v.7c-.2 1-.6 1.6-1 2.3v.2c-.4.4-.8 1-.8 2h-.4v1l-1 2.8-1 2.7c0 .4-.2.6-.4 1-.4.5-.8 1-1 1.8-.8.4-1 1.2-1.3 1.7v.5l-1 1c0 1.6-.5 1.8-.7 2l-1 .2.2.5c-.3 0-.6.3-.8.8a8.7 8.7 0 0 1-.2-.7c0-.6-.2-1.3-.5-2 .2-1.6-.3-3-.7-4l-.2-.6v-1.5c-.2-1-.2-2-.7-3-.3-.7-.4-1.8-.5-3v-1a2 2 0 0 0-.6-1c0-.7 0-1.2-.4-1.5 0-.5 0-1.4-.4-2 0-1-.3-1.6-.6-2-.2-.6-.4-1-.2-1.6v-.7c-.4-1-.7-2.4-1-3.8-.2-1.7-.5-3.4-1-5h-.2v-.2c-1-.8-1.7-.8-2.4-1H186c-.3-.3-1-.8-2.4-.6a5.7 5.7 0 0 0-1 0c-.6 0-1.3 0-1.8.4-1.3 0-2 .5-2.6 1.3-.6.5-.8 1.4-1 2.5v.6c0 .6 0 1.7.7 2.3 0 1 .2 2.3 0 3.5l.4 1.2c0 .6.3 1 .5 1.2 0 .4.2.7.3.8 0 .8.3 1.3.4 1.5 0 .6 0 1.5.5 2 0 1 .3 2 .5 2.5l.3.6c0 1 .3 1.6.6 2 .2.4.3.5.2.8v.2l.4 2c.4 1.5.8 3 .7 5v.8h.4c0 .6.2 1 .4 1.2 0 .5 0 1 .4 1.4 0 1 0 1.6.2 2.2l.2 1c0 .7 0 1.4-.2 1.7-.7 0-1.7.8-1.5 3v1h.8c0 .3.5 1 1.4 1 0 .3.2.7.5 1 0 1 1 1.7 1.3 2 .4.4.5.5.5.7l.2.7.7.2h1.6c.2.3.5.5.8.6h1.7c.2.4.5.5.7.6 1 .3 1.8 0 2.2-.2.4-.2.5-.2 1 0 1 0 1.7-.3 2.2-1h.2v-.3h.2c.3 0 1-.3 1.4-1 1-.3 2-.7 2.5-1.7.5-.3 1-.7 1.2-1 .3-.4.5-.6.7-.6l.8-1.2v-.3c.2 0 .3-.3.4-.5a2.4 2.4 0 0 0 .6-.3l1-1.2c0-.3.2-.4.5-.8.2-.3.5-.7.7-1.3v-.2c0-.4 0-.6.4-1 .2-.2.5-.6.7-1.2 0-.2.2-.3.4-.5.2-.3.5-.7.7-1.3.7-.3 1-1 1-1.2l.8-1.2c-.2-1.4.2-2 .7-2.8l.3-.4c.7-1.5 1-2.8 1.3-4.2l.7-1.3.8-1.5c.3-.3.5-.7.6-1l.6-.2v-.4l.4-.2c.2 0 .5.2.5.3v1h.7v.2c0 .4.3 1.3 1 1.7.2.2.3.6.4 1 .3.8.7 1.8 1.4 2.6 0 1 .7 1.4 1 1.6l.5 1.4c0 .3.3.6.7 1h.2c0 1 .7 1.6 1 2h.3l1 1.2c0 .3 0 .7.4 1 .2.7.5 1.2.7 1.5l.3.6v.4l.6.3s.2 0 .3.2c0 .5 0 1 .4 1.3 0 .7.4 1.2.6 1.6l.3.4v1h.4c0 .5.3.8.4 1 0 .6.3 1 .4 1.4.2.4.2.6 0 1 0 1 .3 1.7.4 2 0 .6.2 1 .4 1.4 0 1.8.4 3 1 3.8 0 .4.3.7.4 1l.2.7.7.2c.8 0 1.5.4 2.3.7l.6.3h.2c2 0 4-.5 5.5-1.3l.8-.4v-.6h.6v-1h.2l.2-.7c.3-1 0-1.7-.3-2.2M161 142a1.4 1.4 0 0 0-.3-.7c0-.4-.4-.6-.7-.7a1.8 1.8 0 0 0 0-.6l-.3-.8h-.2v-.2l-.3-1h-.2v-.3h-1.4c0-1 0-1.6-.3-2 0-.4-.2-.6 0-1.2v-.2-.7c0-1 .2-2.2-.3-3 .2-1.5 0-2.5 0-3.5-.3-1-.4-1.7-.2-3 .2-1-.3-1.8-.6-2.3-.2-.3-.3-.4-.2-.7v-1l-.4-.2a4.3 4.3 0 0 0 0-.5v-.2a2 2 0 0 0-.5-.7v-.4c-.3-1-1-1.7-1.7-2.3 0-.2 0-.5-.3-.7-.2-.2-.4-.4-1-.4a1 1 0 0 0-.4-.4c-.4-.2-.8-.2-1.3-.2h-.2l-1.4.5h-.2l-1 .2v.3h-.3v1c0 .3 0 .3-.2.4l-.8 1c0 1.2-.3 2-.7 2.7 0 .3-.3.6-.4 1l-.3.3v.3c.4 1 .4 2.4.4 3.8s0 3 .4 4c.4 2 .3 4.8 0 7.6-.4 0-.7.2-1 .4h-1.8c-1.3 0-2-.2-3-.5l-.8-.4-5-.2c-.4-.5-1.3-.6-1.8-.6a4 4 0 0 1-.5 0h-.3l-.6-.2-.7-.3h-.2c-.7-.5-.7-.6-.6-1v-.2c0-.5-.4-1-.6-1.3-.3-.4-.3-.5-.3-.8l-.5-1.2c0-.3-.3-.7-.7-1v-.4l-.6-1.2-.4-.8v-.3c-.3-.2-.4-.4-.4-.6.2-1 0-1.4-.4-1.8 0-.6-.3-1.4-1-2 0-.4-.2-.7-.3-1 0-.6-.2-1-.5-1.4 0-1-.6-1.4-1-1.7v-.7l-1.2-.4c-1-.3-2-.6-3.2-.6-.5-.5-1.3-.5-1.7-.5h-.5l-1.2-.2v.7h-.3-1l-.2.6-.7 1.3-1 1.5v.5c-.3 1.6 0 2.8.2 3.8v.5c0 .8.4 1.4.6 2 .3.5.4.8.4 1.3v.5l.2.3.3 1c0 .4 0 1.2.6 1.8l-.6 1c-.5.8-1.2 2-1 3.8-.3 1.8.5 2.7 1.3 3.2 0 1 .6 1.4 1 1.6l.6 1.4.7.4.6.4c.3.6 1 .8 1.2 1v.5l.7.2c.3.3.7.6 1.3.7l1.3.4c0 .2.3.6.8 1l.6 1.2c.4.8.8 1.5 1 2.4v.5c.2.2.3.6.3 1 0 .3.2.8.5 1.2 0 1 .3 1.6.8 2.2-.2 1.2 0 2 .4 3 .2.5.4 1 .4 1.8v.2l.3 1.8c0 1.3.2 2.7 1 3.7l.4.5h.8v.2c.4.3 1 1 2 1h4.3l1.3.7s.3 0 .5.2c.4.7 1.3 1 1.8 1 .2 0 .4 0 .5.2v.5h.8l1.5.2c1 0 2-.3 2.6-.5.7-.2 1.2-.4 2-.4h1l.2-.6c.8-.2 1.2-.5 1.5-1l.6-.3.8-.4h.3l.2-.3.7-1.3c0-.3.3-.8.4-.8l.8-1.2.4-.6a2 2 0 0 0 .4-.5h.6l.2-1c.2-.8.5-1.5 1-2.2l.2-.6v-.3c.2 0 .5-.5.5-1l.7-1.2c0-1.7.2-3 .6-4.2.4-1.3.8-2.7.8-4.6 0-.3 0-.4 1.4-.6l.8-.2.3-.5c0-.2.3-.4.6-.7.5-.5 1-1 1.2-1.8l.2-.5v-.2c0-.4 0-1-.5-1.5m-51.3 17.4h-2.2v-.2l-.4-.3c-.4-.4-1-1-2-1-3.4 0-6.5 0-9.7.2h-7c-.3 0-.5-.3-.8-.5-.5-.3-1-.7-2-1-.4-1-.8-2-1-3v-.8l-.3-.2v-.3-1.6l-.4-.2v-.3-1.8h-.4v-.2c0-.4-.3-.7-.5-.8.2-.6 0-1-.2-1.4v-1l-.3-.4s-.2-.3-.2-1l-.4-1.3-.5-1c.2-2-.3-3.2-.8-4.2 0-1-.2-1.8-.5-2.4-.2-.3-.3-.7-.3-1.2 0-1.2-.3-2-.6-2.7-.2-.4-.3-.7-.3-1.2v-1h-.3v-.3l-.3-1H78v-.2l-.7-1.2c0-1.6-.4-3-.8-4.3-.4-1-.7-2.2-.8-3.5v-.8h-.4v-.4-1.1l-.2-.4v-1.2l-.5-1c0-.6-.2-1-.4-1.2 0-.6 0-1-.2-1.3 0-.3-.2-.4-.2-.4l-1-1H72c-.2-.2-.5-.4-1-.5v-.4H70c-2.5 0-4 1-5.5 1.8l-.4.2v.4c-.6 1.5-.8 3-.8 4.8v.3l.4 1c.3.8.5 1.3.4 2.2l.2 1c.2.8.3 1.6 0 2.8l.5 1.3c0 .5.3.8.5 1 0 .5 0 1 .4 1.5 0 1.3.3 2.2.6 3l.2.6c0 1 .4 1.6.6 2 .3.4.4.6.3 1l.4 1.4c0 .5.2 1 .4 1l.5 1c0 .7.2 1 .4 1.4v.4l.5 1.2s0 .4.3.5c0 1.2 0 2 .2 3v1.5l.2 1h.4c0 .7-.2 1.2 0 1.8l.2.6c.2.6.4 1 .7 1.3 0 .7.3 1.3.7 1.7 0 .7.2 1 .4 1.4v.3c0 .8.4 1.4.6 2l.3.8c-.5-.3-1.3-.6-2.5-.4a2.4 2.4 0 0 1-.3 0c-.4 0-.6 0-1-.2-.6-.3-1.3-.6-2.5-.5-2.5 0-4.5-.6-6.6-1l-1-.3c-1.3-.3-2.5-.8-3.7-1.3a45 45 0 0 0-2.7-.8c-1-.8-2-.8-3.4-.8a10 10 0 0 1-.6 0 1.3 1.3 0 0 0-1-.4l-.7.3h-.5l-.7.4L45 152l-.2.7c-.3.3-.6.7-.8 1.3v1.2c-.2.6-.3 1.5.2 2v1.2l.3.4c.3.5.7.7 1 .8 0 .4.3.8.7 1 .2.2.4.3.7.3 0 .2.2.3.4.4h1c.3.3.6.5 1 .6h1.4l.8.5 1 .7c1 0 1.5.2 2.2.5l1.4.6c.3.2.7.4 1.3.5.3.3.7.6 1.4.7h.7c.2.2.5.4 1 .5l10.4.6 5.6 1 1.8.3v.2c.3.3.7.8 1.2 1l.6.6v.7l4 .2h.8c1 0 1.5-.4 1.8-.7l.2-.2 1.2-.2-.2-1a2.8 2.8 0 0 0 .7 0H93l6.8-1c1 0 2-.3 3-.4.7 0 1.3-.2 1.7-.4h.7c1.2 0 2.2-.4 2.7-1 .3-.2.6-.2 1-.3 1-.2 3-.6 3-3v-1h-.5v-.3l-.2-.8-1.6-1zm399.6-5c.5 0 .8 0 1 .2.2.6-.7.5-.6 1 0 .2.3.3.2.5-.2.5-1 .4-1 1 .2 0 .4.2.3.5 0 .3-.8.2-.8.5s.5.4.4.8c-.2.3-.6.3-.7.6.2.2.6.3.4.8-.3 0-.4.2-.8 0h-1c0 .2.2.2.3.3l.2.2h.2v.3h.2v.3c-.3 0-.3 0-.3.2s-.3.2-.2.4c0 .4.6.3.4.8-.3.2-.4.4-1 .4h-.3c0 .3 0 .4-.2.5h-.8c-.3.2-.3.4-.5.6.2.3.8.2.7.8 0 .2-1 .5-.3.6 0 .4-.6.4-.7.7.3 0 .4.2.7.3 0 .2.2.2 0 .4h-1c0 .2-.6 0-.5.5.3.3.7.5 1.3.7-.3.7.6.7.6 1.2s-.3.7 0 1.2c-.4 0-.5.2-.5.3 0 0-.4 0-.5.3.2.6-.3.7-.2 1.2 0 .2-.3.3-.4.4-.3 0-.2.2-.4.3 0 .3.6.2.4.6v1.4h-.5c-.3.2-.6 0-.6.2s.3.2.2.5c-.5 0-.8 0-.8.3.3 0 .5.2.6.4.5 0 .4.4.4.7l-.4.2-.6-.2h-.5c-.2 0-.3-.3-.6-.3v.4c.4 0 .3.3.3.3v1h-.8l.4.3h1s.2.5.4.5.5.3 1 .2c0 .2 0 .3-.2.4-.3.2-.2.5-.2.7h-.2s-.4 0-.4.2c0 .3 0 .5-.4.5 0 .2-.3.3-.4.5 0 0 .2 0 .2.2h.4c0 .3.4.3.6.4 0 .5.4.6.8.8 0 0 0 .2.2 0 0 .2 0 .4.2.4 0 .3.6.2.4.5 0 .3-.7.2-.8.5 0 0 0 .3-.2.4 0 0 .3.2 0 .2.2.4-.2.6-.2.7l.2.4h-.8c0 .4.4.4.2.8-.5 0-.4.2-1 0 0 .4-.2.5-.6.5h-.4-1.8c-.4 0-.6.3-1 .2h-2-.3a1.3 1.3 0 0 1-.6 0h-.6c0-.2-.4 0-.5 0h-4c-.5 0-.4-.2-1 0h-2.3c-.4 0-.8-.3-1.4-.3-1 .2-2.5 0-3.4 0H481.4c0 .7-.3.5-.8.4h-.2c-2.6 0-5.2-.3-8-.3-.2-.2-1 0-1.2-.3 0 .2-.3 0-.6 0-.2 0-.2.2-.6.2h-8.6c-.3 0-.6 0-.6.2h-1.4c-.7-.2-2.5-.2-3.2 0l-.6-.2h-3.3a7 7 0 0 1-1.2 0c0 .2-.3 0-.6 0-.4 0-.5.3-.8.3-.3-.5-.8 0-1 0-.2-.2 0-.4-.3-.4H447c-.4 0-.4-.2-.8 0-.4-.2-.4 0-.8 0 0-.2-.3 0-.6 0 0-.3-.3-.3-.6-.3-.4 0-.5.3-1 .3h-.9c-.3 0-.5 0-.8-.2 0 0 0 .2-.4.2h-2.5c-.2 0-.3-.2-.4 0H437h-.6c-.2 0-.2-.2-.6 0-1-.2-2 0-3 0-.3 0-.4-.3-.8-.2-.8 0-1.4 0-2 .2 0-.2-.4 0-.7 0h-1c-1 0-2 0-3 .3-.5-.2-1-.4-1.6-.4h-.8s0-.3-.2-.3h-3.2l-1 .2c-.4 0-.6 0-1-.2 0 .2-.2.3-.5.3H415v-.4h-.5c-.4 0-1 .4-1.5-.4h-2c-.2.8-.6 0-.6.3h-1.2c-.4.2-.5.3-1 .3-.2 0-.3.3-.2-.5h-.7c-.3.8-.7.2-.8.3-.3.2-.7.3-.8.5-.3 0-.6 0-1-.2H401.8c-.4-.2-.4 0-1 0H396.8c-1.2.2-2.2 0-3.3 0-.5 0-.6-.2-1.2 0-1 0-1.8 0-2.7.2-.5-.3-1.6-.3-2.4-.4-.5.2-1.4.2-2 .2-.4 0-.8-.2-1 0-.8-.2-1.2 0-1.7 0 0-.2-.3-.2-.6 0-.6 0-.7-.4-1-.4-.5 0-.6.3-1 .3h-1-.4c-.4 0-.6-.2-1.2 0h-.2s-.4 0-.4.2c-.6-.2-1.4-.2-2.2 0-.4 0-.7-.5-.8 0-.6 0-.7-.4-1-.4 0 0-.2.2-.5 0 0 .3-.3.3-.6.3h-.4l-.6.2s-.2-.2-.4 0a1.3 1.3 0 0 1-.6-.3h-2-.8c-.5 0-.5.3-1 .2-.4 0-.7-.4-.8 0h-.4a1.4 1.4 0 0 0-.6 0s-.2-.2-.4 0c0-.2-.2-.3-.4-.3-1 0-1.8-.3-2.5 0-.3 0-.5-.3-1-.2-.4 0-.3.3-1 0h-2.3c-.8-.2-.8 0-1.5 0-1 0-2.6 0-3.4.2 0-.2-.5-.2-.8-.2h-1.3c-1 0-2.3 0-3.2.2-1 0-1.7 0-2.3-.2 0 .2-.3.2-.6.2h-.8c-.5.2-.4 0-.8 0-.6 0-.5-.2-1-.2h-1.4c-.4 0-1.2-.2-1.3 0-.4 0-.6-.2-1.2 0-.3-.2-.3 0-.7 0-.5-.3-2 0-2.4-.3l-1 .2c-.2 0-.3-.2-.8-.2a6.2 6.2 0 0 1-1.8 0c-.4 0-.4.3-1 .2-.6 0-.5-.2-1-.2-.4 0-.3.4-1 .3 0-.2-.2 0-.3-.3h-.7l-.6-.2c-.3 0-.4.2-.8 0-1-.2-2.3 0-3.2 0H320c-.5 0-.8 0-1.2.2h-.6c0-.3-.3-.3-.6-.2-.7-.2-.7.2-1 .2-.2-.2-.5-.2-1-.2H314.8c-.4.2-1.5 0-2.2 0-.5 0-.6.3-1.2.2-.4.2-.7-.4-.8 0-.5 0-.3-.3-1-.2h-3c-.4-.2-1.6 0-2.4 0-.2-.2-1 0-1.7 0-.3-.2-.4-.2-.8-.2h-1l-2 .2c-.4-.2-1-.4-1.7-.5-.5 0-.6.3-1.2.2-.7-.3-1.4-.4-2-.3l-.7.2h-.3c-.2-.2 0-.3-.2-.3h-1.2v.2h-.4v-.3h-2c-.3 0-.4 0-.7.2h-5.5l-1-.3c-.7 0-.7.3-1.3 0-.5.2-.4 0-1 0h-4-.5c-.4 0-.6-.2-1.2 0h-.2-.4c-.4.2-.4 0-.8 0h-1-.8c-.4 0-.5-.4-1-.4h-5.4c-.3 0-.4.3-.8.3-1-.3-2.4 0-3.6 0-.4-.2-1.2 0-2-.2v.3h-.7-.3-.4c-.7 0-1-.2-1.4-.3a6.8 6.8 0 0 1-2 0h-2.6c-.4 0-.4-.3-.8-.2-.6.3-2 0-3 0l-1 .4c0-.3-.4-.3-1-.3-.5 0-.5-.2-1 0-.8-.2-1.3 0-1.7 0H238c-.4-.2-1.4 0-2 0-.3 0-.3-.3-.7-.3h-2l-.8.2s0-.2-.2-.2l-.2.2c-.4 0-.5 0-.8-.2h-1.2l-1.7.2-1.6-.3c-1-.2-1.5 0-2.2 0-.7 0-.6-.3-1.3-.2-.4 0-.6.2-1.2 0-.4 0-.5-.3-1-.3H214c-.4 0-.8.4-1.3.4 0 0-.5-.2-.6 0h-.7s0 .3-.2.3c0 0 .2-.3 0-.4 0 .3-.8 0-1 0-.2.2-.8.2-1.3.2s-.5-.7-1 0h-2c-.3 0-.3-.2-.7-.2l-1.2-.2c-.4 0-.5 0-.8-.2l-.8.2c0-.2-.5-.2-.8-.2h-3l-1 .2h-.3v-.2H195c-.2 0-.2.2-.6.2-.3 0-.4 0-.6-.2h-.8l-.8.2h-.8c-1-.2-3 0-4.3 0l-.8-.2h-3c-.4-.2-.4 0-1 0 0-.2-.4 0-.7 0h-1c-.7-.3-1 .2-1.4 0-1 0-1.6-.2-2.3 0 .2-.3-.6 0-1 0l-1-.2c-.4 0-.5.2-1 0-.5.2-.5 0-1 0H171c-.2.2-.6 0-.8 0h-1.8c-.8-.2-1.2.2-2 0-.6.2-.6 0-1.3 0-.7 0-.6.2-1 0-.4 0-.3 0-.5-.2l-.6.2s-.2-.2-.3 0h-.4c-.3 0-.5 0-.8-.2 0 .2-.4.3-.7.3h-1.4c-.2 0-.6-.2-.6 0-.3 0-.5 0-.6-.3-.5 0-.4-.2-1 0-1-.2-1 .2-1.6.2-.3 0-.3-.2-.7-.2l-.3.2c-.6 0-.8 0-1.2.2l-1.8-.5c-.4.2-.4.5-1 .5H149s-.4 0-.4-.3c-.2 0-.5 0-.6.2-.5 0-.6-.3-1.2-.2-.7.2-1.6.2-2.4.2-.4 0-.5-.3-1-.3-1.6 0-3.5 0-4.7.2l-.5-.2s-.2-.2-.2 0c-.6 0-.6-.3-1-.3h-2s-.5 0-.5.3h-1.2c-.4 0-.3.3-.8.2-.5 0-.6-.2-1.3 0-.5 0-1 0-1.2-.2h-.6-.2-.4l-.7-.3H124c-.4 0-.3.4-.8.3-.3 0-.4-.3-.8-.2-.2.4-.5-.2-.8 0h-2c-.3 0-.4 0-.5-.2h-.8c-.6.2-1.3.3-2.2.2-.4 0-.5.3-1 .3-.7 0-1.5.2-2 0H112c-.4-.2-1.5 0-2.2 0a7.3 7.3 0 0 0-1.7-.3c-.6 0-.7.2-1.5 0-.6.2-.4-.2-1 0H103h-.4c-.2-.2 0 0-.2 0h-.8-.2c-.3-.2-.4 0-.6 0h-.4c-.3-.2-.7-.2-1 0h-.2c-1 .2-1.5 0-2.3 0-.6-.3-.6 0-1 0l-1.5-.3s-.8.3-.8 0c-.5 0-.5.3-1 .2h-3.3c-.2 0 0-.2-.2-.2h-1.4c-.4 0-.5 0-.8.2v-.2h-.5c-1.8-.2-3.5.2-5.2 0-.5 0-.5.3-1 .2a7.2 7.2 0 0 0-1.7-.3c-1 0-2 .2-3.2 0-.4 0-1.2 0-1.7-.2-.5.4-1.8.2-2.6.3-.2 0-.3.2-.7 0H68s-.3.2-.4 0c-.3 0-.4.2-.8 0a6.3 6.3 0 0 0-1.8.3c0-.2-.5-.2-.6-.3h-.6-2.6-.3c-.5 0-1 0-1.4-.2l-.8.3c0-.2-.5-.3-1-.3h-3-.3c-.5.2-.5 0-1 0h-.7c-.2.2-.4 0-.6 0h-.3c0 .2-.6.2-.8 0h-.3c-.7 0-1 .2-1.4 0H47c-.7.2-1.5.2-2.2 0h-.2-.4a16.4 16.4 0 0 0-2.4 0h-1c-.2 0-.5.2-.7 0h-.3c0 .2-.5 0-.6 0-.3.3-.6-.3-.7 0-.5.2-.6 0-1 0h-.6c-.3 0-.3.2-.6 0h-1.6c-.4 0-.2.2-.8 0h-3c-.3 0-.4-.2-.8 0-.8-.2-1.6 0-2 0-.5 0-.6-.3-1-.3-.8 0-1.8 0-2 .2-.2-.2-.3-.3-.6-.3 0 0 0-.3-.4-.2-.6 0-.6.2-1.2 0-1 0-2.3.2-3 0H19c-.8.3-1.3-.2-2 0h-1c-.5 0-1.3 0-1.7-.2l-.8.2c-.2-.5-.5 0-1.3-.2-.5-.2-1.3 0-2-.2-.6 0-.6.3-1.2.2-.4 0-.5-.3-1-.3h-.8c0-.3-1 .2-1-.2h-1c-.7 0-1-.2-1.5-.3l-.8.2c-.4-.2-.7-.2-1-.2-.2-.2-.5-.3-1-.3 0 0-.2 0-.2-.4a1.3 1.3 0 0 1-.6 0c.2-.6-.3-.7-.2-1.2.6 0 .8-.2.8-.3h.9c.2-.4.6-.5.8-1 .5.2.4-.2 1 0l.2-.6c.5 0 .6-.2 1-.3 0-.3.8-.2 1-.4 0-.2-.6-.2-.4-.6.3 0 .5 0 .4-.3h.6c-.2-.4.6-.6 0-.6.2-.4-.5-.3-.4-.7.3 0 .3-.3.7-.4 0-.3.8 0 .7-.5-.4 0-.5-.2-.5-.4-.2-.4.4-.3.4-.6 0-.2-.6-.2-.5-.6l.8-1c-.7.2-.5-.2-1-.3 0-.5.4-.6.4-1 0 0-.5-.2-.5-.6 0-.2.6 0 .5-.5 0-.2 0-.3.4-.2 0-.2 0-.3.2-.4a2 2 0 0 1-.2-1.3c.3 0 0-.2.2-.4 1 .2.8-.4 1.6-.3 0-.3 0-.5.6-.4a.7.7 0 0 1 .3 0v-.4l-.7.2c0-.3-.6-.3-.8-.4 0-.3 0-.5.4-.6 0-.2.6-.2.4-.7h-.2c0-.3-.3-.3 0-.4-.2-.2-.6-.3-.4-.8 0 0 0-.2.4 0l.2-.6c.2-.7-.4-1-.4-1.6-.2 0-.3 0-.4-.3-.4 0 0-.3-.4-.4-.3 0-.4-.3-.8-.2-.3-.2-.2-.5-.7-.5 0-.2-.2-.2-.3-.3-.2 0 0-.3-.4-.3 0-.4.5-.5.8-.7.3-.3 1.3 0 1.2-.6-.3-.3-1.4 0-1.3-.6 0-.2.2-.3 0-.5l.6-.4-.5-.7c.3 0 .4 0 .4-.3-.2-.4.7-.3.6-.8 0-.2-.4-.2-.4-.4s-.3-.3-.2-.5l.2-.6c0-.2-.6 0-.5-.5.4 0 .8-.4.4-.4 0-.3.3-.4.2-.8-.3 0-.4-.2-1-.2 0 0 0-.5-.5-.4 0-.6.8-.4.7-1-.2 0-.3 0-.4-.2 0-.2-.3-.2-.4-.4.6 0 .2-.6 0-1l.7-.4c0-.4.6-.2.4-.6.5-.4.8-.8 1.2-1 0-.7.3-1 .2-1.7.2 0 .7 0 .8-.4.3 0 .6-.2.5-.5 0-.2-.4-.2-.2-.6.3 0 0-.2.3-.2V140.4c0-.3-.4-.2-.2-.6h.4c-.2 0-.2-.2-.2-.4s.4-.3.4-.6c0-.4-.5-.5-.4-1 .3 0 .8 0 .8-.3 0 0 .3-.2.2-.5.3 0 .4-.2.6-.3h.3l.2-.4c-.4 0-.3.2-.6.2 0-.2 0-.3-.3-.3.2-.4 0-.3 0-.6v-.8c.3 0 .4 0 .4-.2 0-.5.6-.3.4-.7 0-.5 0-1-.6-1 0-.5.6-.3.4-.8l-.2-.5c.4 0 .4-.4.6-.5 0-.5.6-.3.4-.7 0-.4.2-1-.2-1 .2 0 .3 0 .2-.2l.4-.2c0-.2.4 0 .5-.4 0-.4 1-.4.8-1 0 0-.3 0-.3-.2-.3 0-.4-.3-.7-.3l-.4-.7c0-.5-.5-.3-.5-.8v-.7s.6-.3.6-.6h-1c0-.8 0-1.4.2-2 0 0-.2 0-.2-.3 0-.2 0-.2-.2-.3-.3-.2-.6-.2-.6-.6 0-.5 1-.4 1-1-.3 0-.2-.3-.4-.4 0-.2-.3-.2-.2-.5-.3 0-.2-.2-.4-.2 0-.2-.4 0-.6-.3 0-.5.8-.3.6-1a1.2 1.2 0 0 1-.6 0c0-.2-.4-.2-.4-.3.2 0 .2-.3 0-.3-.2-.6.3-.6.2-1-.5-.2-1-.4-1.8-.3-.2-.5.7-.3.8-.7-.6 0-.5-.6-.2-.8-.4 0-.6-.4-.6-.7-.3 0-.7-.3-.6-.4h.2c.2 0 .3-.2.8-.2l.6-.2c0-.2.5-.2.8-.2h.2c.2 0 .2-.2.2-.4 0 0 0-.2-.2-.2a1.3 1.3 0 0 1-.6-.2c0-.2.3-.3 0-.4-.3 0-.4-.2-.4-.4 0-.3.5-.2.4-.5 0-.2.3-.4.4-.6-.3 0 0-.4-.4-.4-.3 0-.4-.2-.4-.4.2-.6 1-.8 1.2-1.2 0-.2.3-.2.2-.5.2-.2.8 0 .6-.4 0-.3.2-.4.3-.5 0 0 0-.2-.2-.2v-.2c0-.2-.3 0-.3-.5v-1.2c0-.3-.8-.5-.6-1-.2 0-.4.3-.4-.4h-.4s0-.2-.2-.2c.2-.6-.5-.3-.4-.7 0-.3 1.3 0 1.2-.7 0-.4-.4-.3-.4-.5 0-.5-.4-.4-.2-1 0-.2-.7 0-.6-.5.3-.3 0-.8.2-1.3 0-.2.6-.2.4-.6 0-.6-.5-.8-.4-1.4-.5 0-.7 0-.6-.4 0-.4.8 0 .6-.5.3 0 .6 0 .8.2 0 0 .2.2.4 0 .2 0 .2.2.4.3.2 0 .6 0 .6-.2l.6.2v.2h2.5c0-.5.4 0 .6-.2.5 0 .5-.3 1-.3a6.8 6.8 0 0 1 1.7 0c1 0 1.7.2 2.3 0h2.4c.3 0 .3.2.6 0 .6.2 1.3 0 2 0 .2.2.3.2.7.3l.8-.2c1 0 2 0 2.6.2l1-.2s0 .2.4.2c.5 0 0 .5.6.5.2 0 .2-.3.4-.4.4 0 .2-.4.8-.3l.8.2.2-.2H36c.3 0 .3.2.7.2h1c.4 0 .2-.3.8-.2 0 .2.3.2.6.2l1-.2h1.7l1 .2.3-.2h1.4l.6.2.4-.2h.6l.8.2c.8-.3 1.7 0 2.7 0h3.3c.3 0 .3-.2.7-.2.2 0 .4 0 .6.2.2 0 .4-.3.6 0 .3 0 .4 0 .6-.2 0 .2.4.2.6.3H57c1.2-.3 3.5 0 4.7-.3.6.2 1.6.2 2.2.3.3 0 .6-.4.8 0 .4 0 .6-.2 1.2 0 .5 0 1.2 0 1.8.2.4 0 .5-.3 1-.3.3 0 .5.2.8.3 0-.2.4 0 .7 0 .3 0 .6 0 .8-.2 0 0 .2.3.5.3h.6c.4 0 1-.2 1.3 0 .2 0 .2-.2.4 0 .5-.2.4-.6 1-.5 0 .3.7 0 1 0 .4.2.6.4 1 .4.7-.5 1.5 0 2.3 0 .5-.2 1-.4 1.6-.4l1.7.2c.7 0 1 0 1.6-.2 0 .2.2.2.5.2H86.2c.5 0 1 0 1.3-.2.5.2 1.2.2 2 .3l1.3-.2h.6c0-.3 1 .2 1-.2.8 0 .7.6 1.5.6l.6-.2h1c.4 0 .4-.2.6-.4.5 0 .4.4 1 .3.7 0 1-.3 1.3-.2.4 0 .3.3 1 .2h.5c.2-.2.8 0 1.4 0 1.6.3 3.2-.2 5 0h1l.4.2c.4 0 .7-.3 1.2-.3h1c.8 0 2-.3 2.6 0 .4 0 .4-.4 1-.2l1.4.2H120.2c.2 0 .3 0 .4.2.4-.2 1-.2 1.5-.3h.4c0 .2.3.2.6.2l1.2.2 1-.2c0 .2 1 .2.8 0 .7 0 .5.4 1.2.3.7 0 1 0 1.5-.2.2 0 .4.3.7.3.3 0 .5 0 .8-.2 0 .2.3.3.6.3h1c.3 0 .2.2.7 0 .7.2.4-.4 1-.3 0 0 .2.2.5.2 0-.2.3-.2.6-.2.6 0 1 0 1.4.2l.6-.2c.6 0 .4.3.8.3 0-.3.5-.3 1-.3h1.8c.4 0 .2-.3.8-.2 0 .3.5.3 1 .2.5 0 .6.2 1 .3.3 0 .5-.2.8-.3 0 .2.5.2.5.3.3 0 .3.2.7 0 0-.3 1 0 1-.4h1.4c.8.2 2.4.2 3.3 0h.3l.6.2c.4 0 .3-.3 1-.2 0 .2 0 .4.5.4h.8l.6-.2c.2 0 .2.2.5.2 0-.3.6-.3 1-.3h.3l.2.2.4-.2c0 .2.3.2.4.3 0 .2.3 0 .6 0 0 .3.3.3.4.4.3 0 .3.3.6.4.2 0 .3-.2.4-.3l.8.2c.5 0 .4-.5 1-.5h1.5c.6 0 .3.7 1 .6.6 0 0-.5.7-.3 0-.4 1 0 .8-.3.6 0 .4-.4 1-.3 0 .2.4.2.6.2.2 0 .5.2.8 0h2.8c.7-.7.5.4 1.2.3.5 0 .5-.5 1-.4h2.1s0-.2.3-.2H176.5c.3 0 .4.3.6.3H178.4c.5 0 .5-.2 1 0h1.5s0-.2.4 0l2.6-.3c.4.2.6.4 1 .4h.7l.8-.2c.6 0 1 0 1.4-.2 0 .2.3.2.6.2l.6.2h.5l.8-.2c.5 0 1 0 1.3-.2 0 .2.3.2.4.3h2c1 0 2.2 0 3-.3.5 0 .8 0 1 .2.5 0 .5-.4 1-.3.5 0 .4.4 1 .3l2.6.3c.5-.2.8-.4 1.4-.4l1.2.2c0-.3.7 0 1 0h1.5c.3 0 1-.3 1.8-.3l1.2.3c.5 0 1.2 0 1.8-.2h.4s.3 0 .3.2c.6 0 1 0 1.3.2.2 0 0 0 .2-.2H215.4v-.2h.4c.5 0 .4.4 1 .4 0-.3.7 0 1-.2h1.2c.5.2 1-.2 2 0H226.7l3.2.2c.4 0 .6-.3 1-.3h1c.2 0 .3.2.7 0h.8c.5 0 .8.3 1.4.3l1-.2.8.2c0-.2.3-.2.6-.2h1.4c.4 0 .3.4.8.3 1 0 1.2.3 1.8.4 2-.6 4.5-.2 6.6-.4.6 0 .6.2 1 .3 0-.3.5-.2.8-.2 0 0 .5 0 .6-.2l1.6.2c.3 0 .3 0 .4.3.3 0 .2.2.4.2 0-.3.8 0 1 0 .3-.3.8-.3 1.3-.2h.7c0 .3.4.2.6.4.6 0 .5-.2 1-.2 0 .3.4.3.8.3.6 0 .6.2 1.2 0 .5 0 .2-.5 1-.4 0 .2.5 0 .6.2h1c.4 0 .3-.2.8-.2h1.2s.4 0 .4 0h2.9c.4 0 .8-.2 1 0 0 0 .4-.3 1-.3s.4.6 1 .5c0-.2.5 0 .5-.2l1-.2c.7.3 1.8.2 2.5.4.2 0 .6-.2 1 0 .6 0 1.4-.2 1.7 0 .2 0 .3-.2.8 0h4.6c.2 0 1 0 1-.2h2.8c.5 0 .8-.2 1.4 0 .8 0 .6.5 1.5.3.6 0 1.4 0 2-.3.3 0 .3.2.6 0 .6.2.5 0 1 0 0 .3 1-.2 1 .2h1.9l.6-.2c.5 0 .8-.2 1.4 0l1.4.2c.7 0 1 0 1-.2.3 0 .3.2.5.2.4-.2 1.3 0 2-.2l.7.3h.8c.6 0 1.2-.3 2 0 0-.2 0-.3.3-.2.2 0 .2-.2.6-.2 0 .3.4.4.8.4h2.6c.5 0 .4.5 1 .4.2 0 .3 0 .3-.2h.5l.8-.2c.7 0 1 .2 1.6 0 .5 0 .6-.2 1.3-.2 1.7 0 3.7.5 5.3.2h3c.4.2 1.8 0 2 0 .8 0 1.6.2 2 0 0 .2.4 0 .8 0 .5 0 .4.4.8.4 0-.2.2-.2.4-.3.2 0 .3.2.4 0h1c.5-.2.4 0 1 0h5.5c.6 0 .5-.2 1-.2h6.5c.4 0 .5.3 1 .3h.5c.2 0 .6 0 .6-.2.6 0 .8.2 1.5 0 .7 0 1 0 1.6.2.2-.2.5-.2.7-.2h1c.4 0 1.2 0 1.5.2.3-.2 1 0 1.4 0l1.4-.2c.5.2 1.7 0 2.5 0 .4.2.5.4 1 .4l.6-.2c0 .2.4.2.7.2l.8-.2c0 .3 1 0 1.3.2h1.4c.4 0 .2-.2.8-.2.5 0 .4.3 1 .2 0-.2.3-.2.6 0 0-.3.3-.3.6-.3 1 0 2 .4 3.3.3.5 0 .4-.3 1-.2h1s0 .2.2.2h.2c.6-.3 1 0 1.4 0 .3-.3 1.3 0 2 0 .6-.2.4.2 1 0h1c.6 0 .6-.2 1-.2.3.2.6.2 1 .2H382.2c.4 0 .4-.4.7-.4h4c.5 0 .6.4 1 .4h.7c.2 0 .6 0 .6-.3h2.5c.8.7 2 .5 3.2.6l.8.2h.6c.4 0 .7 0 .7-.3.6 0 .7 0 1.3-.2.5 0 .4.3 1 .2 1-.3 2.7 0 4 0 .3 0 .3.2.7.2h6.1c.2 0 .3-.3.6-.3H412.2c.4 0 .4-.2 1 0 .7-.2.6.2 1.3.2h2.4c.6 0 .8-.2 1.5 0 1-.4 1.8 0 2.5 0 .4 0 .6-.3 1-.3h2l1.2.2h3.3s.2-.2.4 0h1.7c.4.2.7 0 1 0 .4 0 .7 0 1 .2l.3-.2h.8c.3 0 .2.2.4.2l1-.2c.3 0 1 .2 1 0 .5-.2.5 0 1 0 .4 0 .5-.2 1 0h2.7c.4 0 .5.2 1 0 .8.2.7 0 1.4 0h1.2c.5.2.4.6 1 .5l.6-.2c0-.2.4-.3.8-.3 1 0 1.8 0 2.3.3l.8-.2c.4 0 .6.6.7.2h.2v.2a1.3 1.3 0 0 0 .7 0s.6-.5.6.3h1c.6 0 .4-.4.8-.4.8 0 .7-.4 1.4-.3.6 0 .6.3 1.2.3h2.4c.4 0 .7-.2.8-.3 0 0 .2.2.5.2h.8l.7-.2c0 .2.5 0 .8 0 .5.3 1 .3 1.6.4.6 0 .7-.5 1.3-.5h2.3c.5 0 .2.5.6.5.2-.2 0-.5.6-.4 0 .2.4.2.4.3-.2 0-.2.2 0 .3h.4l.2-.3.8.2c.3-.2.4-.3.8-.3.5 0 .5.3 1 .2 0-.2.2-.3.3 0h.6c.4 0 0-.5.8-.4 1 0 .4.5 1 .4 0-.3.8 0 1 0 .2-.3-.2-.3 0-.4h.3c.2-.2.4 0 .4-.3.6.2 1.5.2 2 .3h2.5c.8-.3 1.4 0 2 0h1c.3-.2.3 0 .7 0 0 0 .4-.2 1 0h1c.4 0 .5.2 1 .3.2-.3 1-.3 1.4 0 0 0 .2 0 .2.3-.3 0-.3.2-.2.4 0 .3 0 .8-.2 1 .3 0 0 .4.6.3 0 .4.6.2.6.5.5 0 .4.2.8.2.5 0 .2.4.6.4h.8c0-.2.5 0 .6 0 .2.7-1.3.2-1.2.8.2 0 .3-.2.4 0 0-.2.3 0 .2 0v.3c0 .3 0 .5-.2.6-.5 0 .3.3 0 .6-.6.2-1 .6-1.4 1 .3 0 .2.3.4.3 0 .2.3.2.2.4.5 0 .4.4.4.7 0 .2-.2.2-.2.3h-.6c0 .3 0 .5.2.6h-.6c-.2.6.2.7.2 1.2 0 .2-.6.2-.4.5 0 .4 0 .7-.2.8 0 0 .2.2 0 .3 0 .2 0 .3-.2.4.5 0 .6.2.6.5.4 0 .8 0 .8.3.3 0 .5.2.8.3 0 .3-.4.3-.2.6 0 .2.2.3.4.3 0 0 0 .3-.2.3 0 .2 0 .3.2.4 0 .3 0 .6.2.8 0 0-.2 0-.2.3h-.4c-.3.2-.6.3-.6.7 0 .2.5.2.8.4.2.4-.5.2-.4.6-.2 0-.2.3-.2.5l-.2.4c0 .4.7.4.8.7-.6.2.2.6.2.7.5 0 1.3-.3 1.4.2h-.4c-.2 0-.5 0-.6.2 0 .4.4.3.4.6 0 0 .2 0 .2.2.3 0 .2.3.4.3 0 0 .2 0 .2.2 0 0 0 .2.3.3l.2.2c.2 0 0 .3.4.3 0 .3-.2.3 0 .5.3 0 .4.4.5.7.4 0 .6.3 1 .4 0 .2.3.2.4.3l.3.2v.4h.2c0 .4-.2.4-.2.7.7 0 1 .3 1.4.6.8 0 .8.5 1.4.6 0 .7.7.7.6 1.4.3 0 .8.2.8.6-.2.6.2.7.2 1l-.4.8h-.4c0 .3 0 .5.2.6-.7 0-1 0-1 .5.7 0 .3.5 1 .4-.2.5-.3 1-.2 1.8 0 .4-.8 0-.7.5 0 .4.4.4.4.7-.5.2-1 .3-1.7.3.2.2.6.3.4.8-.2 0-.6 0-.7.2.3 0 .4.2.4.5 0 0 .5 0 .6.2 0 .4.4.5.2 1 .6 0 0 1 .4 1 .3 0 .6-.4.8 0h.8c.7 0 .7.8 1.8.6 0 .4-.3.5-.8.4 0 .4-.7.3-.6.7.2.3.7.5.8.8.3 0 .3.3.6.3 0 .2.4.2.6.3 0 .5-.3.6-.4 1 .3 0 .2 0 .4.2 0 0 .3.2.2.4 0 .3-.3.3 0 .7v.8s.7.3.7.6c.4 0 .6.2.6.6.6-.2.6 0 1 0 0 .4-.3.5 0 1h.7c.5 0 .3.4.7.4.2.4 0 .4 0 .7l-.2.2v.4s.2-.4.8-.3v.2a1.3 1.3 0 0 1 .7 0c0 .8-1.3.6-1 1.5-.5 0-.5-.3-1 0-.2 0-.3.2-.2.5-.2 0-.4 0-.5.2-.3 0-.3.2-.3.4.2.4 1 .2 1.5.4 0 .2 0 .3.4.3l.5.2c0 .7.4 1 .2 1.5.5 0 1.2 0 1.4.2 0 .2 0 .3-.3.4 0 .3-1 0-.6.4 0 .2.3.3.3.5M290.5 147c-.3.6-.7 1.5-.7 2.8l-.4.5h-.5l-.2 1c-.2 0-.4.3-.5.7-1 .5-1.4 1.4-1.8 2l-2.4.4c-.4 0-.7.3-1 .4H281a2.2 2.2 0 0 0-1-.2l-2.3-1a3.5 3.5 0 0 0-1-1c0-1-.6-1.4-1-1.6l-.3-1.4c0-.7-.3-1-.5-1.3v-.2h-.3c0-.2 0-.4-.2-.6 0-.4-.4-1-1-1.5l.2-2.8-.7-1.2c-.2 0-.2 0-.2-.3l-.5-1.2c0-.3 0-.6-.4-1 0-1-.4-1.6-.7-2-.2-.6-.4-1-.2-1.6l-.5-1.5c0-.3-.2-.7-.4-1a7 7 0 0 0-.4-1c0-.3-.2-.5-.3-.8-.5-1-1-2-1-3 0-.2 0-.2.2-.3l1-.6h.2c1 0 1.5-.3 2-.6.4-.3.5-.3 1-.2h.2c.6 0 .8 0 1.3.4l1.2.7h.3c.3 0 .5.2.8.5h.2l.3.2h1.2v.4l.8.3c1 0 1.7.5 2.5 1 1 .4 2 1 3.4 1.2a11 11 0 0 0 2.4 2.8 3.6 3.6 0 0 0 1.5 1.6v.2c0 .5.4 1.3 1 1.7l.6 2.2.6 3v1.8l-.7 2m-145 3.5c-.2.2-1.3 1.4-1.3 2v1.2c-.5.4-.6 1-.6 1.5a2 2 0 0 0-.5.5l-.5 1v.6c-.8.3-1 1-1.2 1.3l-.2.2c-.3-.5-.8-.7-1-1h-.3l-.4-.6-.6-.8a2 2 0 0 0-.6-.7 5.6 5.6 0 0 1 0-.3c0-.5-.4-1.2-1-1.7 0-1.3-.5-2.3-1-3.2l-.6-2c1.5-.3 3.8-.2 6 0a80.4 80.4 0 0 0 3.2.2c0 .2.6.7 1 .7v1h-.2zM389.7 56c0-1-.4-1.6-.8-2-.2-.8-.6-1.3-1-1.6a3.3 3.3 0 0 0-1-1c0-.5-.3-1-.6-1a3.3 3.3 0 0 0-.6-1 2.2 2.2 0 0 0-.6-.8l-1-1-.3-.5-.8-1c0-.3-.3-.6-.6-.8a2.2 2.2 0 0 0-.5-1l-.7-1-.8-.8-.2-.7-1-.4a2.6 2.6 0 0 0-.5-1v-.6l-1-.4a4.2 4.2 0 0 1-.3-.3 6 6 0 0 0-.6-.7l-.6-1.3-1-1.7h-.2c-.2-.4-.5-.7-1-1l-.7-1h-.2l-1.3-1s-.2 0-.5-.6c-.3-.4-.8-1-1.5-1.4a2.4 2.4 0 0 0-.6-.8 2.5 2.5 0 0 0-1-1.2 3 3 0 0 0 0-.3l-.3-1h-.2l-.6-.7a6.4 6.4 0 0 0-.5-.6l-.3-.5-.2-1-.8-.2a5.3 5.3 0 0 1-.3-.5l-.3-1h-.5V22l-.6-1.3-.4-.5h-.4a4.2 4.2 0 0 1-.2-.6l-.2-.4-.7-1.3-.6-.8v-.2c-.2-.7-.5-1.2-1-1.4l-2-1h-1a2.5 2.5 0 0 0-.7.2H355.7c-.2 0-1 0-1.6.6-.4 0-.8.3-1.2.5l-1.3.6-.8.3-.3 1c0 1.4 0 2.5.4 3.4.2.3.3.6.3 1v.3l.3.3.5 1.5.7 1.6.5 1h.8l2.5 1 .6 1c.3.6.8 1 1 1.3l.2 1h.3l1 1v.2c.3.3.4.6.4 1v.7l.7.5c.4.2.8.6 1 1l.3.7-1 .2-1.3 1-1.7.6-.5.3-1.3.6h-.3l-.4 1c-.2.4-.6.8-1.2 1.3-.4.2-.8.6-1.2 1-.5.2-1 .5-1.2 1a2.8 2.8 0 0 0-.6.3c-.8.2-1.2.5-1.6.8l-.2.3-.7.2-.3.7-.7 1-1 2c-.6.5-1 1.2-1.3 1.6 0 .2 0 .3-.2.5l-.4.8c0 .4 0 .6-.2 1v.3l.3 4 .6 1.3.8.6c.3.3.6.8 1.3 1 .2 0 .6.4 1 .4a2.3 2.3 0 0 0 1.2.4l2.3-.8c.7-.4 1-1 1-1.4v-.2c.3-.3.5-.6.6-1v-.3l.7-1.7.4-1 .2-.2V54c.5-.2 1-.5 1.2-1 .3-.3.6-.7.8-1.3.3-.3.6-.5.8-1h.4c0-.2.3-.4.4-.4h.3a4.7 4.7 0 0 0 1.7-1.3c.7-.2 1-.7 1.3-1 .4 0 .7-.3 1-.4l1.4-.8h.7l.2-.6c.5-.2 1-.4 1-.6l1.6-.6 2-.2c.2.4.6.8 1.3 1l1 1 1 1.5.5 1h.3l.6.8 1.3 1.6v.3a8.3 8.3 0 0 0 2 2l.3.5s0 .2.2.3l.3 1 .4.2c0 .3.3.6.6.7.2.4.5.6.8.8v.3l.3.2c0 .4.2.8.5 1l1.2 1.6s.2 0 .3.2c.3 0 .6.3 1 .4l.3.2h.3c3 0 4-2.3 4.7-3.6 0-.3.3-.5.4-.8l.3-.5V56zM335 39.8a1.8 1.8 0 0 0-.6-.6 1.8 1.8 0 0 0-1-.6H330a2.5 2.5 0 0 0-1 0 2 2 0 0 0-.5 0h-.5c-.5-.8-1.3-1.2-2.2-1.2h-4a35 35 0 0 0-1.7 0c-.5 0-1.3-.3-2 0 0 0-.2 0-.3.2h-3.2a3 3 0 0 0-1.3-.4h-1.8c-1 .3-1.7.4-2.6.2h-.7c-.4-.3-1-.7-2-.7h-3.7a2 2 0 0 0-.6 0 4 4 0 0 0-2 0l-2.7-.2-1.4-.3h-.2l.2-.5.6-1 .3-.2s.2 0 .3-.2c.7-.2 1.3-.6 1.6-1 .4 0 .5-.2.6-.2l1.8-.3s.3 0 .5-.2h.2l1-.5c1.5 0 2.8 0 4-.3h.6c.8 0 1.5 0 2 .2 1.4 0 2.6.2 3.7.4h.3c.8 0 1.4.2 2 .4 1 .2 2.2.5 3.7.4h.2c.2.3.8.7 1.7.7.3 0 .8.3 1.3.3a2 2 0 0 0 1.3-.5v-.2c.3 0 .4 0 .6-.2l.6-.4.2-.8c.5-2.6-1-3.8-2-4.4l-.2-.2c0-.4-.3-.7-.5-1a2 2 0 0 0-.7-1v-.4L320 25l-1.5-.5c-1.3-.4-3-.8-5-.7 0 0-.3 0-.5-.2-.5-.3-1.3-.6-2.3-.5a21.2 21.2 0 0 0-1.3-.2 11.5 11.5 0 0 1-1.3-.4h-1.9c-1.3.2-2.6.3-4 .2h-.4c-.5 0-1 0-1.2.3-.2-.2-.2 0-.3 0-.8-.2-1.5 0-2 .4h-1.3l-1.8.7a2.6 2.6 0 0 0-.7.4c-.4 0-.8.4-1.2.7l-1.3 1-.6.3-1.4 1-.5.5-1 1-.3.3-.4.2-1.3 1.5c-.2.2-.4.5-.5 1h-.3V33c-.2.8 0 1.4.2 1.8v.3l-.3 1v.9c.3.6.4 1.3.3 2.2l.4 1.7v.8h.3v.6l.5.3.7 1.3 1 1.2.6 1c0 .3.3.6.5 1l1 1.3.2.2v.2l.8 1.3v.5l.8.5c.6.4 1 1 1.5 1.4.5.6 1 1.2 1.7 1.7l.7 1c0 .4.4.8.8 1 .4.7 1 1 1.3 1l1.6 1.2s.2 0 .3.2l1.5 1h.4l1.6 1h1c.5.3 1 .5 1.7.6l.8.3h1.4l1.2.4h.4c.6 0 1 0 1.5.2s1 .3 1.8.3c1 0 1.5.2 2.2.5l.5.2h3.3c.8-.2 1.3-.5 1.6-.8l.3-.3.7-.2.3-1c.2-.8.5-1.7.4-3 0-1-.6-1.8-1-2.2v-.2l-.3-.5-.4-.4a3.8 3.8 0 0 0-1-.5l-1.5-.7-1.5-.3c-.8-.3-1.8-.5-3-.5-2.8-.2-5.3-.8-8-2h-.2l-.4-.4c-.2 0-.4-.2-.6-.4a2 2 0 0 0-.8-.6 2.3 2.3 0 0 0-.3-.3l-.2-.2-1-1a3 3 0 0 0-.3-.3 3 3 0 0 0-.3-.6h2.3c1 .2 1.8 0 2.2-.2h6.5l5-.3c2.2 0 4.5-.2 6.7-.6h3.5c1 0 1.6-.3 2.2-.5.2 0 .5 0 .7-.2.2 0 .8 0 1.4-.5l.4.2h.4c1 .2 1.5 0 2-.2l1-.5v-1c.4-1.6-.4-2.6-1-3M279.8 54l-.5-.6a2.3 2.3 0 0 0-.7-.5l-1.4-1-1-.5-1.3-.7-.4-.2c-.3-.3-.7-.5-1.3-.7a2.2 2.2 0 0 0-.4-.3 2 2 0 0 0-.8-.5h-.2l-1.8-.8h-.8c-.2-.2-.4-.2-.7-.3-.3 0-.5 0-.7-.3-.7-.5-1.7-1-3.3-1v-.2a2.3 2.3 0 0 0-.8-.5l-1.8-.7s-.2 0-.3-.2h-.3l-2-.7c-.4-.2-.8-.4-1.5-.4a4.8 4.8 0 0 0-.7-.4c-.3-.3-.6-.5-1-.6l-2-.8h-.3a2 2 0 0 0 .4-.4l.2-.2v-.3l1.2-.4v-.4l.4-.3c.8 0 1.4-.4 2-.6.5-.3 1-.5 1.6-.5l1.6-.5 1-.3v-.2l1-.7a3.6 3.6 0 0 0 .8-.4c1 0 1.6-.2 2.2-.4l.8-.2h1l.2-.6 1.5-1 1.4-.5v-1.6l.5-1.8c0-.4-.2-.8-.3-1 0-.4-.2-.5 0-.8l-.4-1.8v-.6l-.7-.3-.2-1h-5l-.4.3c-.5 0-.8.3-1 .6l-1.5.5-1 .2-1 .6-1 .3v.3l-1 .5-1 .8c-.7.2-1 .6-1.5.8l-.2.2-1 .5-.7.4c-.7 0-1.2.4-1.5.6l-2 1c-.2 0-1 .4-1.3 1l-.6.3c-.4 0-.8.3-1 .4l-.6.3-.2.3-1 1h-.2v.3c-.3 0-.5.3-.6.4a3 3 0 0 0-1 .6v-1l-1-1.7a2.2 2.2 0 0 0-.2-.5 2.2 2.2 0 0 0-.5-1.3v-.8c0-.7-.2-1.5-.4-2.2a3 3 0 0 0-.4-1l-.7-1.5a2.2 2.2 0 0 0-.5-.4l-.2-.7-.5-2-.3-1-1.2-1c-.3-.4-1-1-2-1h-.4c-1.8 0-4 .8-4.6 4.2-.2 1.5 0 2.5 0 3.4l.2 2v1c.3.3.4 1 .5 1.7.3.7.4 1.7.8 2.5 0 .5.3 1 .4 1.3l.2.6v.3l.5 1v.3l.5 1.8v.2l.6 2.2.4 1c.2 1.7.8 3 1.4 4 .2 1.7.5 3.4 1 5v.4c.3.4.4 1.4.5 2.2 0 .6 0 1.3.3 2v.6l.7.4 1 .4c0 .2.4.4 1 .5 1.4.3 3.4 0 4.5-.3l1-.2.3-1c.4-.8.5-1.7.7-2.5 0-.4 0-.8.2-1.2 0-1-.2-1.8-.3-2.2 0-1 0-1.6-.4-2.3a35.4 35.4 0 0 1 0-.6c-.2 0-.2-.2-.2-.3h1c0 .2.4.3.8.4h.3c.4.4 1 .8 1.7.8h.6l2.8 1.2a19 19 0 0 0 3 1l1 .4h.3l.3.3c0 .2.3.3.5.4l.2.4h1.2l.3.5.5.2.5.3.2.4h2.4l.3.5h.2l.8.3 1.8.3h.2c.2.2.4.4.8.5l1 .5h.4l.4.4c.2.3.5.5 1 .6v.3l1 .8h.2v.2h.3v.2l.5.3.4.3h1c1.7.3 2.7-.4 3.5-.8l.8-.4 1.2-.3V56c.2-.5 0-1.3-.6-2M226 28l-.3-.4-1.7-1.7a2.5 2.5 0 0 0-1-.5v-.3L222 25c-1-.3-2 0-2.4 0l-.4.2h-.7c-.4-.2-1-.5-2-.4-1 0-1.5.4-2 .6l-1.6.3h-1.4v.3l-1 .7c-.5 0-.8.3-1 .6 0 0-.2 0-.3.2l-.4.2-.7.2-.2.2h-1l-.2.6-1.8 1a2.3 2.3 0 0 0-.4.4 3.2 3.2 0 0 0-1 1h-.3l-.3.3-.8.2v.3l-1.3.7a2 2 0 0 0-1 1h-.2c-.8.4-1.4 1-1.8 1.5l-.3-.2-.3-.4a2.7 2.7 0 0 1 0-.3l-.6-1.7V32l-.4-.3a3.7 3.7 0 0 0-.3-.8 3 3 0 0 0-.2-1v-.5h-.3a3.3 3.3 0 0 0-.3-.7 3.7 3.7 0 0 0-.3-1.4c0-.7-.2-1.2-.4-1.5 0-1-.4-2-.7-2.5l-.4-.6-.3-.4c-1-.6-2-1-3-1l-1-.4a2.5 2.5 0 0 0-1.4-.3h-.4c-.5 0-1 0-1.2.2h-.8l-.5.6c-1 1.3-1 2.8-1 4 0 .7 0 1 .2 1.4V29l.2 1.4h.4v.2l.4.6c0 .3 0 .7.3 1 0 1.5.5 2.7 1 3.8 0 1 .3 1.5.5 2l.5 1.2h.2c0 .2 0 .4.2.5 0 .4 0 .8.2 1.2 0 .3 0 .7.4 1v.3l.5 1 1 1.2v.6l.4.6c.2.4.4 1 .8 1.4 0 .3.3.6.5.8l.7 1.6s0 .2.2.3l.7 1.3c0 .3.2.6.4 1l.5.8c0 1 .4 1.7.6 2v.2l.2 1c.2.4.2.5 0 .8v.6l.3.5.3 1.3c0 .8.2 1.7.6 2.5l.4.8h.5c.4.5 1 1 1.7 1.2h.3l3.6-.5 1-1a3.8 3.8 0 0 0 .2-.8c.2 0 .3-.3.4-.5.4 0 .8.3 1.4.3.3.2.8.3 1.5.4H207.7c.3 0 .5.2.8.3h5.4c.8 0 1.3 0 1.8-.3l.8-.2 2-1a2.2 2.2 0 0 0 1.2-.6h.6l.4-1.2s0-.2.2-.3l.2-.4c.3 0 .5-.5.6-1 .2-.2.4-.5.4-1 .4-.8.8-1.8.8-3.3 0-1.5-.6-2.6-1-3.4-.2-.6-.5-1-.6-1.7l-.6-1.2-1-1.2c-.3-.4-.7-.8-1.2-1a2 2 0 0 0-.3-.4c0-.3-.3-.7-.8-1-.4-.6-1-1-1.3-1.4l-1-1-.4-.8-1-.2c-.3 0-.6-.2-1-.6l-.3-.2a2 2 0 0 0-.5-.5h.3l.2-.7 1.4-.6 1-.2V36l1.2-.5a2 2 0 0 0 .4-.3c.8-.2 1.5-.5 2-.8h4.2c.7 0 1.2 0 1.5-.2l2-.7 1-1v-1c.4-1.8-.3-2.8-.8-3.4m-42.6 25.5c0-1-.3-1.6-.5-2v-.7l-.6-2a2.7 2.7 0 0 0-.3-.8l-.5-1.7-.6-1h-.2c0-.8-.2-1.3-.4-2l-.2-1.3-.7-1.5a2.2 2.2 0 0 0-.2-.5v-.2l-.3-.4v-.2c-.2-.4-.3-1-.7-1.5l-.5-.6a3 3 0 0 0-.5-.6 2.3 2.3 0 0 0-.5-.8l-1-1.3a1.2 1.2 0 0 1-.5-.6l-.3-.5-.4-.3a1.2 1.2 0 0 1-.6-.6l-.2-.5-.5-.4a1.2 1.2 0 0 1-.6-.6l-.2-.5-.5-.2a1.2 1.2 0 0 1-.5-.6l-.4-.8-.8-.2c-.4 0-.8-.3-1.3-.5l-1-1-1.4-.3c-.4 0-.8-.2-1.3-.4L164 26h-.2l-.4-.3-7.3-.2-.3 1h-.3c-.5.2-1.3.6-1.8 1.4-.4.2-1 .6-1.2 1.2 0 .2-.3.3-.4.5l-.8 1h-.3l-.2 1.6c0 3 0 6 .2 8.7l.5 1.4c0 .2.2.3.3.4v.4l.7 1.5v.2l.3 1.2c0 .7.4 1.2.6 1.5l.6 2 .2 1 .5.7.4 1 .3.7c0 .5.2.8.3 1v.6l.3.5c0 .3 0 .5.3.7 0 1 .5 1.7.8 2l.3.3c.6 1.3 1.8 2.2 3.3 2.4h.5c1.7 0 2.5-1 3-1.5v-.3l1.2-.3v-3.8c.2-1-.2-1.6-.5-2l-.4-1.6v-1h-.3l-.3-1-.2-.4-.6-1.4c-.2-.6-.4-1-.7-1.3 0-.6-.3-1-.4-1.4-.2-.8-.6-1.3-.8-1.6 0-1-.3-1.6-.5-2 0-.7-.2-1.2-.3-1.6v-1-2-.8l.2-.2c0-.2 0-.3.2-.4H161.7l1 .6 1.7.7c.2 0 .3 0 .5.2 0 .2.3.5.6.7l.7.6c.3 1 1 1.2 1.5 1.4l1 1s0 .3.2.5c0 .3.3.6.4 1l.4.8h.5c0 .2.2.4.3.5l.6 1.2c0 1 .5 1.7 1 2v1l.6 1.8c0 1 .5 1.5 1 2 0 0 0 .3.2.5 0 1 .3 1.5.5 2v.2c0 .5.2 1 .4 1.2v.4c-.2.7 0 1.3.2 1.7l.6 2.4 1.5 1.4c.4.4.8.6 1.3.6.2.2.6.3 1 .4h3l.5-1.2c.4-.5.8-1 .8-2.2v-.8l.4-.4v-.7c0-1-.2-1.6-.4-2.2l-.2-.8m-36.8-.3l-.8-1h-2l-.3-.4h-.3a4 4 0 0 0-1-.2c-.8 0-1.5.4-1.8.6-1-.2-2-.4-3.3-.3-.5 0-.7 0-1.2-.2l-1.5-.3H133l-1.6-.4a12.7 12.7 0 0 0-.6 0h-.5a7.3 7.3 0 0 1-.5 0 3 3 0 0 0-.3-.5l-.5-3V47h-.4v-.2a2 2 0 0 0-.2-1c0-1.2-.3-2.2-.6-3-.3-1-.5-1.6-.4-2.6l-.3-1.7v-1h-.5v-.7l-.2-1h-.3a2.2 2.2 0 0 0-.4-1l-.6-1.3-.3-.6v-1.2c-.3-.8-.4-1.7-.8-2.6 0-.3 0-.6-.2-1-.2-.6-.3-1.3-.3-2 0-.8-.3-1.5-.8-2l-.2-.3-.3-1.5V22a2.5 2.5 0 0 0-.8-1.2v-.5l-.8-.4c-1.2-.4-2.4-.7-3.6-.7-1.2 0-2.3.2-3.2.6l-.8.3-.2.8v1l-.4.6v.8c0 .5.2.8.3 1h.2c0 .3 0 .4-.2.7 0 .5-.4 1.2-.3 2.2l.2 1.3.3.5a2.4 2.4 0 0 0 .3 1.3v.2l.2.5.3.6c.3.6.6 1 .6 1.7v.7l.7 1.3.5 1c0 1 .4 1.4.7 1.8.2.7.4 1 .7 1.5.3 1.8.7 3.8 1.4 5.6 0 1 .2 1.5.4 2l.2.8s0 2-.2 2c-1-.3-2-.3-2.8-.3h-1c-.3 0-.6 0-1-.2l-1.5-.5h-1.5l-1.2-.3h-.5c0-.2-.2-.2-.3-.3l-5.8-.4a2.5 2.5 0 0 0-.5.6l-1 1v2.4c0 .6.2 1 0 1.6l.7 1.6c.2.3.5 1 1 1.3.7.7 1.4 1 2 1.2.3.2.6.4 1 .4l1.5.3h.8c.4.2 1 .4 1.6.4h3.4c1.4.3 3 .5 4.4.6 1.8 0 3.6.3 5 .6H124c1.8 0 3.3 0 5 .4h4.3c.3.3.6.4 1 .4h.6l.6-.2h1.4c.7.3 1.6.4 2.5.4 1 0 1.6 0 2-.3h.8c.5 0 1 0 1.7-.3.4.2 1 .6 1.8.6.5 0 1 0 1.2-.3.4 0 .7-.4 1-.6h.5v-.6c.3 0 .5-.3.6-.4.5-.4.8-1 .8-1.8V57c0-1 0-3.2-3-3.8M453.6 32c0 .2-.3.3-.6.4l-.6.5a9 9 0 0 0-1 .4h-.6v.8h.8c.3.3 0 .7.2 1 0 .2-.3.3-.6.2 0 .2 0 .2-.2.3V36.6c0 .2-.6.4-.7.7h1c0-.3.2 0 .5 0 .2 0 .4.2.4.6v.3s-.6.2-.7.4c-.4 0-.4-.2-.8 0 0 0-.2 0-.2.4-.4 0-.6.2-.6.3.2 0 0 .2 0 .4s-.4.3-.4.6c0 .2.2.2.2.5v.5s.4 0 .4.3a.5.5 0 0 0 .3.2s-.5.5 0 .5c.4 0 .2-.5 1-.4-.2 0 0 .2-.4.2 0 0 0 .3-.3.3 0 .3-.5.3-.6.6 0 .2 0 .5-.5.5.2.4-.3.4-.4.7.2.4-.2.4 0 .8-.3 0-.4 0-.3.2h-.4c0 .3-.6.3-.5.6.6 0 1.5-.4 1.7 0-.3.2-.4.3-.8.2 0 .2-.6 0-.7.3.2.3.3.6.3 1 0 .2-.4.2-.5.4-.2 0-.3.2-.4.5-.5 0-.3.2-.6.3-.5 0-.3.3-.5.4.3 0 .8.2.8.5v.5c0 .3.7.2.6.5 0 .2-.5.2-.5.3v.6s1.3 0 1.3.3c-.2 0-.8 0-.7.3 0 .3.4.3.2.7 0 .2-.2.2-.2.5.2.2.6.3.4.7.4 0 .8 0 .7.5-.3.5-1.2.5-1.3 1h.2c0 .2.2.3.4.3 0 .2.5 0 .8 0 0 .5-.3.6-.6.7 0 .5-.8.3-.7.8.4 0 0 .4.5.3 0 .4 1.5 0 .3.5v.4c-.5 0-.3.3-.3.6 0 .4.5.3.5.5.4 0 .4.4.8.4l.2.4c.4 0 .5 0 .6.2 0 .3.7.2.5.5-.4.4-.4 1-.6 1.4v1.2c.3.4-.2.4 0 .7.4 0 1 .4 1 .8s-.2.5-.5.6c.2.4-.5.3-.4.7 0 .3.2.7 0 .8v.6c-.2 0-.4.2-.5.4-.2 0-.8 0-.6.4v.2c.2 0 .5 0 .5.2h.4c.2 0 .4 0 .3.3.3.2.2.3 0 .4 0 0 0 .2-.2.3-.2.2 0 .6 0 1 0 .2.7 0 .5.4 0 .6-1 .7-1.2 1 0 .4.7.3.6.7-.6 0-.6.5-1 .5-.5.2-1 .3-1 .7.7 0 1 0 1.3.2-.2.7.4 1 .4 1.4-.4 0-.7.3-1 .4-.2.3-.7.3-1 .6h.4c.2.2.5 0 .5.3.2 0 .3.2.2.5v.2c-.3.2-.7.2-1.2.2 0 0-.3 0-.3.4v.7h-1l-1-.3c0 .3.5.5.6 1h-1.3c0 .2-.3.3-.6.4 0 .4-.5.3-.7.5 0-.2-.3-.2-.6 0-.3-.2-.4-.3-1-.3l-1.3.2h-.4c-.3 0-.6 0-.7.2H428c-.7-.2-.7.2-1.3 0h-4.3c-.3.2-.6 0-1 0 0 .2-.2.3-.5.2-1-.3-3.2 0-4-.2-.3 0-.6.2-1 0h-3l-1.2.2h-1c-.3 0-.8 0-1 .2-.2-.4-.5 0-1 0 0 0 0-.2-.3-.2h-.5c-.8-.2-1 0-1.8 0h-1c0-.3-.2-.4-.7-.3l-1.4.2s-.3 0-.3.2c-.5-.2-.7-.3-1.3-.3-.4 0-.5 0-.8.2-.3-.2-.4-.2-1-.3h-2s-.2 0-.3.2h-1v-.3l-2 .2c-.6 0-.8-.3-1-.3l-.6.2c0-.2-.2-.3-.4-.3h-.6c-1.3-.2-2.2 0-3 .2-1 0-1.7 0-2.2-.3-.3 0-.3.2-.6 0h-2c0-.2-.8 0-1.2-.2-1.2 0-1.7 0-2.5.2l-1-.2c0 .2-.2 0-.5 0h-6.2c-.4 0-.5.3-.8.3-.7-.2-1.4 0-2 0h-.3c-.4.2-1.2 0-1.5 0h-.8c-.5.2-1.4 0-2 0h-.5a13.7 13.7 0 0 0-2 0H360.3c-.4.2-2.3 0-2.3 0h-.8c0-.2-1.3 0-1.4 0h-.2c-.4.2-1.3 0-1.7 0H352c-.2 0 0 0 0 0H349.3l-2.5-.2H343.5c-.5.7-1.8.2-2.3 0l-3.3.3h-2.7a126.3 126.3 0 0 0-4.4 0h-2.5c-.6-.3-1.2 0-1.6 0h-3c-.3 0-.4.3-.7.3H321c-.2 0-.4-.2-.4 0-.4 0-.6-.3-1-.3h-7.2c-.3 0-.3.2-.7 0h-.8c-.7 0-1 .2-1.4.3 0-.2-.5 0-1 0h-1c-.3 0-.4-.3-.7-.3 0 .2-.4 0-.6 0-.2 0-.2.3-.6.3-.2 0-.4-.7-.8 0H300c-.5 0-.4-.4-1-.3h-2.3a6.7 6.7 0 0 1-1.6 0H290.7c-.6.3-1.3 0-1.6 0h-3.7c-.6.2-.5 0-1 0 0 .2-.5 0-.8 0-.3.2-1 0-1 .2-1-.2-2 0-3-.2H275.6c0 .2-.5 0-.6 0h-.5c0 .2 0 .2-.4.2-.3 0-.2-.3-1-.2h-1c-.4 0-.7 0-.8.3-.6 0-.4-.3-1.2-.2-1.4 0-2.4.2-3.5.3H262s-.2 0 0 0H258.3h-.4c-.3 0-.8 0-1 .2l-3.8-.4c-.3 0-.4.3-.8.2h-1.7c-.4 0-.5 0-.8.2-.2-.2-.4 0-.7 0H247h-.4a1.4 1.4 0 0 0-.7.2c-.2-.2-.5-.2-1-.3-1 0-1.5-.2-2.6 0h-.2c-.2 0-.4 0-.4.2-.5-.2-1.3 0-1.7-.3 0 .2-.8.2-1.3.2h-7.3-2.4c-.5 0-.3.3-1 .2a7.7 7.7 0 0 0-1.5-.4c-1.4 0-3 0-4 .2 0-.2-.3 0-.6 0h-2.4-1.6H213.3h-.8c-.6-.2-.6 0-1 0h-2.7c-.2 0-.4-.3-.8-.2-.5 0-.4.2-1 0-.5.2-.5 0-1 0-.7.3-2.2 0-3.2 0 0 .3 0 .3-.2.4 0 0 0 .3-.4.2h-.4c-.3 0-.2-.3-.4-.3h-4c-1 0-2.3 0-3.5-.2-.4 0-.3.3-1 .2l-1.2-.2c-1 0-1.8 0-2.2-.2H180c.3 0 .4 0 .4.2h-.2c-.2.2-.2 0-.2 0h-.8l-1.5.3h-.6c-.3 0-1 0-1.3-.2-.5.3-1.7 0-2.5.2l-.6-.2H171h-.5c0 .2-.4 0-.4.3-.6 0-.3-.4-1-.3-.2 0-.3.2-.6 0h-.6-1.6s0 .2-.5.2c-.7 0-1.3 0-1.8.2-.6 0-1.4-.2-1.8-.4-.4 0-.5.3-1 .3h-8c-.3.2-.4.4-1 .4-1 0-2 0-3-.3-.2 0-.3.2-.7 0h-.4c-.2 0-.2-.2-.5 0-1.2 0-2.5-.2-3.5 0h-2s-.5 0-.5.2c-.5 0-.5-.3-1-.2l-2 .2h-1.8l-1.2-.3h-.5s0 .2-.4 0c-.6 0-.5.3-1 .3-.6 0-.8-.2-1-.2-.3 0-.3.2-.7.2 0 0-.2-.2-.5-.2h-3.2c-.7-.3-1.7 0-2.3 0-.6-.2-1.4 0-1.7 0h-.5-.2-4.7l-1 .2H114l-1-.2c-.2 0-.3.2-.8.2h-4.7c-.3 0-.4-.3-1-.2-2 .3-5.5-.2-7.7.2-.3 0-.6-.2-1 0-.5-.2-.5 0-1 0H95h-2.8c-3.2 0-6 .2-9.2 0H80c-.2.2-1 0-1 .2-.4 0-.4-.2-1 0-.6-.2-.5 0-1 0 0-.2-.5-.2-.8-.2h-1c-.5 0-.3.4-1 .3 0-.2-.4 0-.7 0-.3 0-.4-.3-1-.2-.5 0-.5.3-1 .2H70h-.7l-.8-.2c0 .3-1.3-.2-1.3.2H66h-.6c-1-.2-2.3 0-3-.2 0 0-.5.4-.5 0-.5 0-.7.3-1.2.3h-.6l-.8-.2c-.8.2-1 0-2 .2-.4 0-.4-.2-1 0-.5-.2-.5 0-1 0H55c-.3 0-.3-.3-.6-.2H48.8c-.8.2-2 0-2.7 0H43c-.3 0-.5-.2-.8-.3-.3 0-.4.2-1 0h-2c-.2 0-.3-.2-.8 0 0-.3-.2-.4-.6-.4h-.2c-.2 0-.4 0-.4-.2-.3 0-.4 0-.6-.2-.8 0-.8-.3-1.3-.3h-.7c-.5 0-.8 0-.8-.2.3 0 0-.3.2-.5.6 0 1 0 1.2-.3-.3-.2-.3-.5-.5-.7h.2v-.2c-.2 0-.2-.2-.5-.3 0-.4.8-.3.8-.7V77s.2 0 .3-.2c0 0-.5-.2-.4-.5.2 0 .4 0 .3-.2v-.4l.2-.5s-.3 0-.2-.4c.3 0 .2-.2.2-.4.3 0 .4 0 .4-.4 0 0-.3-.2-.7-.2 0 0 0-.2-.2 0V73c-.3-.4.3-.4.3-.5v-.2h.2v-.3c0-.2-.4-.4-.4-.5h.3c-.2-.2-.4-.3-.4-.5-.4 0-.5-.2-.5-.5-.2-.4.3-.4.4-.6-1 0-.6-.2-.5-.5 0-.3.8 0 .8-.4.4 0 .6-.2.6-.5l-.7-.8c.3 0 .2-.2.2-.3-.5-.2-.5-.5-.6-1 0 0 .4 0 .5-.2l.4-.3c-.4-.3-1-.4-1-.8.5-.4.5-.6.3-1 0-.3.6-.3.4-.6-.5 0-.7-.5-.8-1-.3-.2.3 0 .3-.4l-.6-.2c-.3 0-.4-.2-.4-.4s.3-.3.6-.4l.4-.5c-.4 0 0-.3-.4-.3.3-.4-.5 0-.3-.5 0-.3.3-.5.3-.5V59c0-.5 0-.5-.3-1h.2v-.5c-.2 0 0-.3 0-.5v-.2c0-.2.4-.2.3-.4.3 0 .6 0 .6-.2a.6.6 0 0 0-.3-.6l-.2-.2c-.3 0-.2-.2-.4-.3 0-.2.3-.3.3-.6-.3 0-.2-.2-.4-.3 0-.2.2-.3.3-.5-.2 0-.2 0-.2-.2s-.2-.2 0-.4c.3-.5-.3-.8 0-1.5 0-.2-.7 0-.5-.5 0-.2 0-.3.2-.4-.5 0-.5-.3-.8-.5 0-.4-.8-.2-.6-.7 0-.5.7-.5.5-1 .4-.2.8-.5 1-.8 0-.2.2-.3.3-.4-.2-.7.3-1.3.2-2 .3-.2.8-.2 1-.3l.5-.5c.5 0 .6-.2.8-.4 0-.3.5-.4.4-.8 0-.2-.3-.2-.4-.3-.6 0-.4-.3-.8-.3v-.2l-.5-.2v-.2h-.2v-.3c0-.4.7-.4 1-.7 0-.3-.7-.2-.5-.5h.2c0-.3-.2-.3-.2-.3v-.5c-.2 0-.3 0-.2-.2 0-.2-.3-.2-.3-.4 0-.5-.4-.5-.4-.8 0-.3.2-.3 0-.5 0 0 0-.3-.3-.3 0-.2 0-.3-.2-.4.3 0 .2-.2.4-.2 0-.2.2-.2 0-.4 0-.3.5-.2.6-.5-.5-.2-.8-.5-1-.8.5 0 .4-.4 1-.3-.2-.5.5-.3.4-.7h1.6c0-.3 0-.5.2-.6.2-.4-.2-.6-.2-.7h.2c.3 0 .3-.3.4 0h.7c.2-.2 0-.6 0-1 0-.3.8-.2.7-.6-.4-.2-.2-.8-.2-1.2.5 0 1-.2 1-.4 0-.3.4-.3.4-.5s-.4-.2-.3-.5c0-.2.6-.2.4-.5 0-.2.2-.3.4-.4 0-.4-.4-.3-.3-.7 0-.2.7 0 .6-.5 0 0-.3-.2-.3-.4.2-.3.6-.3.5-.7 0-.2-.2-.2-.4-.2h1c0-.7 0-.5.2-.6.6 0 .4-.4.6-.6-.2 0-.3-.3-.2-.6 0-.2.4 0 .4-.2l.2-.8c.3 0 .5 0 .5-.4h.3s.4 0 .4-.2h.2c0-.2.3 0 .3-.3 0-.2 0-.3.3-.3 0-.2.3-.4.3-.4V21s0-.3.2-.3c0-.6.8-.8.8-1.3v-.6s.5-.2.6-.4c.5 0 .6-.2.8-.3.2-.2.4-.6.4-1 0-.2-.3-.3-.2-.7-.6 0-.4-.6-.6-1h.4l.6-.2c0-.2.6 0 .5-.4.3 0 .7-.2.7-.5-.2-.3-.8-.2-.8-.7v-.6h.3c0-.2.2 0 .2-.3.3 0 .6 0 .6-.2V12s.6 0 .6-.2.4-.3.5-.5h.8c.4-.2.5 0 .6 0l.5-2.2c.4 0 .7-.2.8-.6.6 0 1-.2 1-.5V7s0-.2 1.2-.3v-.5L58 6c-.2-.4.3-.3 0-.8.5 0 1-.2 1-.5l.6-.3c0-.2.2-.2.2-.5s.5-.2.4-.5c0-.5-.4-1-.2-1h1v-.4h1l.5-.3c.7 0 .6.4 1.2.5h1c.3 0 .2.2.4.3.2-.4.8-.2 1.3-.2h.3c.3 0 .4-.2.4-.2v.6h.5c0 .2.2.4.4.4 0-.2.2-.3.5-.4.2 0 .3 0 .3-.3a.8.8 0 0 0 .5-.2l2.5.2v-.4s.4.3.6 0c.7 0 .3.3 1 .2l1.3-.3c.3 0 .4.2.8 0h.2s.2.2.4 0c.2.4.7.4.8.6-.2.2-.2.2 0 .4 0 0 0 .2.2 0 0 0 .3 0 .2-.4a.6.6 0 0 1 .2-.6c.8 0 .6.4 1.4.3l.4-.2s0-.2.3-.3h3c-.2.4.2.5.3.7 0 0 .2 0 .2.3h1.4c0-.2.3-.3.7-.3.4 0 .5.2 1 0h.3c.3 0 .8 0 .8-.2.8 0 1-.3 1.8-.2h.6c0-.3.6-.2.6-.3h1.5l.6-.2c1 0 2.2 0 2.8.2l.4-.2h2.3L98 1h3.6l1 .2h.7c.6 0 1.3-.2 2 0H106c-.2-.3 1 0 .8-.2 1 .2 2.8 0 4.2 0 0 .3.2.3.2.5h-.2V2h.6c0 .2 0 .2.2.2 0 0 0 .3.2.3.4 0 .4-.4.6-.5.2 0 .4 0 .4-.2 0 0 0-.2.2-.3l2-.2c.4 0 .4 0 .5-.2.6.2 1 0 1.4 0h3c.5 0 .4.3 1 .2h.3c.3 0 .3-.3.7-.2h1c.3 0 .3.2.6 0h.6c.3 0 .4.2 1 0h3.4c.3 0 .8 0 1 .2 0-.2.5 0 1 0h1c.8 0 2.2-.2 2.8 0 .3 0 .4-.3.8-.2h1.3s0 .2.5.2c.3 0 .4-.2.8 0 0 .2 1-.2 1 .2-.5 0-.3.3-.4.4.4 0 .7 0 1 .2v.4h2.6c-.4 0-.3-.5-.5-.5h-.6l.5-1c.5.2.8 0 1.3 0 .8 0 1.4 0 2 .2H152.5c.4.3 0 .3.2.5.5 0 0 .6.7.5 0-.2 0-.4.2-.5.3 0 .7 0 .6-.2.5 0 .4-.3 1 0 .4-.2.4-.5 1-.5.2 0 .3.2.3.4h.8c.7.2.3-.4 1-.3.4 0 .7 0 1 .2-.2-.2.6 0 1 0H163c.3 0 .4-.2.8 0 0 0 .7 0 .6.3.6 0 .7.2 1 .2 0-.2.2-.2.3-.4h.2s.3 0 .3-.2c.6 0 1.4 0 1.7.2 0-.2.5 0 .8 0 .4-.2.7 0 .8 0h1.8s.3-.2.8 0h.5c.6 0 0 .5 1 .4v-.2s.3 0 .3-.2h1.2c.5-.2.5 0 1 0h2c.7-.2.6 0 1 0 0 0 .5-.2 1 0 .5-.2.2.2.6.2 0 0 .3-.3.6-.3 0 .3.4.2.5.2h1c0 .7.2.3.5.3l.8.2h.5c0-.3.3-.2.4-.3.7 0 1-.2 1.4-.3 0 .2.2.2.4.2 0-.2.5 0 .7-.2h.7c0 .3.4.2.6.4.4 0 .4-.2.7-.2 0 .2.6.2.7 0 .3.2 1 0 1.6.2.4 0 .5.3 1.3.2.2 0 0-.2.4-.2 0-.2.3-.2.6-.2.7 0 .2.4.8.3h2.2c.4 0 .3.3.8.2H202.8v-.2H203.4c1-.2 2.3 0 3-.3 0 .2.4.2.5.3 0 0 .2.2.6.2l2.2-.2c.5 0 .5.2 1 0h1c.3-.2.6-.2 1-.2h4.1c.2 0 .2-.2.5-.2 0 .3.4.2.4.4h.6c0-.3.4 0 .8 0 0-.2 0-.3.6-.3s.4.5 1 .4c.6 0 1.4 0 1.7-.2l.4.2s.2.2.5.2c0-.2.3-.3.4 0-.2 0-.3 0 0 0h.8s0 .2.2 0h.4c.3 0 .3-.3.6-.2.6 0 .6-.2 1-.2.3 0 .4.2 1 .2 0 0 .2.3.5.3 0-.2.7 0 .6-.3 0-.3.8 0 .7-.4h1c-.3.4 1 0 .7.4h-.6c-.3 0-.5 0-.4.3.7.3 1.2-.4 1.8-.6.2.5.5 0 1 0 .2 0 .2.3.5.2.3 0 .4.2.7.3l.7-.4.7.2V1h.2c.2-.2.3 0 .4-.3 2.3.4 5 0 7.4 0l2.3.4h1.2l.2.2H249.2c.5 0 .4.2 1 .2h.3c.6.2.4 0 1 0s.4-.4 1-.3c.3.2.8.2 1 .3.4 0 .7-.3 1-.4h.3c.3 0 .6 0 .7-.3l1.2-.2h4c.3 0 .5.4 1 .4 1 0 1-.2 2 0 .6-.2.7 0 1 0 .5 0 .6-.2 1 0h.5c.3 0 .3.2.7 0 .4.2.3 0 1 0 .4 0 .7 0 1 .2 0-.2.7 0 1 0h2c.4-.2 1.4-.2 2-.2.4 0 .5-.2 1 0h2.8c.4 0 .6.3 1 .4.5 0 .8-.2 1.3-.3 1 .2 2 0 2.4.3 0-.2.3-.3.6-.3s1 .2 1 0c.6 0 .5.2 1 .2h1c.2 0 .7 0 .8-.2.6 0 .4.2 1.2 0h2.3c0 .2.7 0 .8 0h.7s.3.2.7.2c.7 0 1 .2 1.4.3.3 0 .4-.2.6-.3.5 0 .8 0 1-.2l1 .2a2.8 2.8 0 0 0 1-.6c1 0 1-.3 1.8-.2H300.4c0 .8.4.3.5.5 0 0 0 .2.3.2h.4c0-.2.2-.2.4-.2 0 .2.5 0 .5.2.2 0 .3.2.4 0-.3 0-.2 0 0-.2h.3c.6 0 1-.2 1.5-.3 1 0 1.3.3 2.3.2h.5s0 .2.2.2c0-.2.4-.3.8-.2H310.2c.4-.2.4 0 .8 0h.2c.2-.2.4 0 .6 0h2.8l.5.2h1.6c.2 0 .3.2.4.3h.6c.8 0 1 .2 1.3.4h1a61.2 61.2 0 0 0 0-.3c-1 0-.5-.3-.2-.3.2.3.4 0 .8 0s.2-.4.6-.4c.2.2.4.4 1 .4 0-.2.3-.3 0-.4 0-.2.5 0 .8 0 .3.3-.6 0-.4.4.3 0 .2.2.4.2.7 0 1-.2 1.7 0 .4-.2 1-.5 1.2-.2 0-.3.4-.5.6-.7h2.2c.5 0 .4.5 1 .4.7 0 .8-.2 1.5 0 .6-.2.7 0 1.3 0h.6c.3-.2.4-.3.8-.3l1 .2c.3 0 0 .2.7 0h.4c0-.2.4-.2.7-.2.7 0 .6.3 1 .4 0-.2.6-.2 1-.2 0 0 .2-.3.5-.3s.4.5.6-.2h1.3c0 .7.2.3.3.4 0 0 0 .3.2.4h1.2c.5 0 .8.2 1.3 0 0 .3 0 .5.4.5 0-.5 0-.8.4-.8 0 .2.5.2.4 0 .8 0 1.2-.3 2-.3.2.2-1 .2-.3.4.3 0 0-.4.7-.3.7.2 1 0 1.5 0 .4.2.4 0 .8 0h.4c.3 0 .3.3.6.2.5 0 .5-.5 1.3-.3.4 0 .3.2 1 0 0 .4.6.4.8.5 0-.4.6-.3.8-.4 0 .2.3.2.6.2l.8-.2h2c0 .2.6 0 1 .2h.3l.6.2c0-.3.7-.2.8-.4h2.2c.6 0 .6.3 1 .2.6 0 .7-.2 1.3 0 .4 0 .3-.4 1-.3.7 0 1-.3 1.7-.3.3.3-.5.5 0 .5H372c0-.3.2-.3.6-.3.4 0 .4-.3.8-.3s.5.3 1 .3h3.3c-.3-.2.3 0 .5-.3 0 .4.4 0 .8 0 .2 0 .3.2.4.3h.8c.3 0 0 .3.7.2.3-.2 1 0 1.6 0 .2 0 .3 0 .2-.2 0 0 .2-.2.5 0 .4 0 .2.2.8 0 .4 0 .2-.2.8 0 .6 0 .8-.3 1.3-.3 0 0 0 .2.5.2.4 0 .2-.5.8-.4.6 0 .5-.2 1 0h.7c.5 0 1 .3 1.6.5h1s.2.2.5.2c0 0 .4-.2.3-.5l1.4.2c0-.2.4-.3.6-.3l1-.2h1.3c.3 0 .4.3 1 .2H403c.5 0 .7-.3 1.3-.2.5 0 .7.3 1 .4.7-.2 1 0 1.2 0h.3s-.5 0-.5.2h2c.2 0 0-.4.4-.6.3 0 .4.2.8 0 0 .4.3.4.8.4.4 0 .2-.5.8-.4h3.5c.2 0 .4.2.8 0H416c.6-.2.7 0 1.4 0 0 0 0 .2.2.3h.2s.3 0 .4-.3c0-.2.7 0 .6-.3h3.7c.8.2 1 0 1.5 0h.2c.6.3.8 0 1.2 0h1.5l2.2-.2h.4c0-.2.3-.2.6-.2.8 0 .8.3 1.5.3h.6l.8.2h3.2c.4 0 .5-.3.8-.3.6 0 .7 0 1 .2 0-.3 1-.2 1-.4.5 0 .6.3 1.2.2h.6l.6-.2c.4.2 1 0 1.5 0v.2h.7c0 .2.2.3.4.3h1l.6.3h.8l-.2 1h.2l.2.3-.2.6c.3 0 .2.3.4.4-.2.3.3.3.2.6-.2 0-.2.2-.2.4-.3 0-.4 0-.4.4.2 0 .4 0 .4.3.5 0 .2.4.6.4 0 .5-.4.8-.4 1.2-.6.2-.7.7-1 1l.6.2h.8c0 .5-.6.4-.4 1 .7 0 .5.3 1.2.2l-.2.4h.2c.3.4 0 .7-.2 1 .4 0 .5.2.4.5.6 0 .7 0 .6.5.2.4-.7 0-.7.5v.5s0 .2-.3.2c0 .2-.3 0-.4.3 0 0 .3 0 .2.3 0 .3-.5.2-.4.5.3 0 .3.3.4.4 0 .3.6.2.4.5-.6 0-.6.2-.8.4.2 0 .3 0 .2.2.3 0 .3.2.2.4.8 0 .7.4 1.3.5 0 .4.5.5.3 1-1.2 0-2 .4-2 1 0 .2.2.2 0 .4h1.2c0 .5-.3.7-.5 1 0 .2.6 0 .5.5-.2.6.3 1 .2 1.6.3 0 .5.2.4.4.7 0 1 .3 1.3.4 0 .3 0 .4-.4.5 0 .3 0 .6-.3.8.3 0 .4.2.4.4v.4c0 .2-.3.2-.4.4l1 .2c-.3.4 0 .4 0 .8v1l.5.2c.4 0 .4.2.4.4l-.2.8.2.4h-.2v.6c.2 0 .2-.2.2.5h.6s0 .2.2.3c0 .2-.3 0 0 0 .6 0 1.4 0 1.2.5 0 .4-1 0-1 .3 0 .4.4.3.2.7 0 .2-.4.3-.4.6.5.2 1.5 0 1.4.6M212.2 52.6h-1c-.7 0-1.5 0-2.3-.2h-1.2l-1-.7-1.3-.6-1-1c-.3-.7-.7-1.3-1.4-1.8a3.2 3.2 0 0 0-.4-1 3 3 0 0 0-.3-1V46a5 5 0 0 0-.5-1s0-.2-.2-.3v-.5h-.2a3.3 3.3 0 0 0-.2-.6h.5a19.3 19.3 0 0 0 2.5.8l.6.3v.5h1.3l1.3 1c.3.2.7.4 1 .4h.3c0 .2.2.2.4.3v.7l.8.4v.3l.6.3.6 1.2v.3h.4l.3 1h.5v1.2zm107.5-15h0M250.7 1a2.8 2.8 0 0 0-.4 0h.4zM294 38z" fill="#F4C522"/></g></svg>