<svg xmlns:i="&amp;ns_ai;" xmlns="http://www.w3.org/2000/svg" viewBox="0 0 510.6 130.5" id="Layer_1"><style id="style1">.logo{fill-rule:evenodd;clip-rule:evenodd;fill:#f4c522}</style><g i:extraneous="self"><path class="logo" d="M147.7 106.6c.2-.4.6-.5 1-.6.4-.2.5-.2.4-.6 0-.8-.5-1-1.4-1.2h-.3c0 .2-.2.3-.3.4l-.5.8c0 .4-.4.6-.6.8v1c.5 0 1-.3 1.3-.5h.4zm263 4.8c0-.6-.2-1-.3-1V109c-.4-.2-.5-.6-.6-1 0 0 0-.3-.2-.4-.2-.5-.5-.8-1-1h-.4c0 .3-.3.4-.4.5 0 .5-.3.7-.5.8v.3l.2 1.3c.4.3.5.8.5 1 .4.4.5 1 .5 1.2 0 0 .3.3.3.5.2 0 .3.3.4.4.4 0 .6.3.8.5l.3.2v-.2c.2-.2.3-.3.2-.5v-1.4zm22.2-9.6h-.3c-.2.3-.5.5-.7.5h-.2c-.2.6-.5.7-.8.8l-.2.2c0 .5-.5.6-.8.7 0 .5-.3.8-.4 1v.3s.4 0 .6-.2c.7 0 1.4-.3 2.2-.4.2-.4.5-.5.7-.5h.3l.4-.6c.2 0 .3-.2.3-1.3l-1-.2zm-80.2 6c-.2-.4-.4-.8-.3-1.4l-.3-.6v-.2c-.6-.3-.7-.8-.7-1.2-.3-.2-.5-.5-.6-.8-.4-.5-.5-.6-1-.5h-.3c0 .3-.3.3-.4.4 0 .4-.3.5-.5.6v.3l-.3.5s-.3 0-.3.8v.3h-.3c0 .5-.3.6-.3.7 0 .5 0 .8-.2 1v.2l-.2 3.8.7.7c.3.4.4.6.8.6l.4.2c.3 0 .5 0 .7-.2 0 0 .4-.3.7-.3l.6-.4h.2c.2-.5.4-.7.8-1l.5-1c0-.4 0-.7.2-1 0 0 .2-.3 0-.6v-.2c0-.3 0-.5-.2-.8zm18.8-3.8l-.2-.3-.5-.5h-2.2c0 .3-.2.5-.3.6v.2h-.2l-.2.4v.8c0 .5-.2 1-.3 1.2v.5c-.2 1.3 0 2.5.3 3.3 0 0 .4 0 .5.2h.8c.5 0 .5 0 .5-.2v-.3h.3l.6-.5.7-.6c0-.7.3-1.2.5-1.6.3-.7.6-1.4.6-2.2 0 0 0-.2-.2-.3-.4-.2-.6-.5-.6-1zm138.6-13h.4v-.4l-.2-.3c-.4 0-.6 0-.6-.2h.8c-.2 0-.4-.5 0-.7-.3 0-.2-.2-.2-.3-.3 0-.2-.2-.4-.2 0 0 .3 0 0-.2v-.4c-.4 0-1 0-1.2-.3-.2-.2-.3-.3-.2-.5h-.4l-.2-.3c0-.3.8-.2.6-.5-.4 0 0-.3-.6-.2.3-.3-.7 0-.6-.2l-.2-.3c-.2 0-.2 0-.2-.2s-.2 0-.2-.2.5 0 .4-.3h-.2-.2c0-.2.2-.3.2-.3 0-.2-.3-.2-.2-.5l-1-.2c0-.2-1 0-1-.2h-1c-.7 0-.8-.2-1.2-.3 0-.2.5 0 .4-.3h-.4l-.6-.2c-.3 0-.6-.2-.8-.3 0-.2 0-.3-.2-.4.3 0 .2-.2.2-.3 0-.2-.5 0-.4-.3.2-.2-.3-.2-.4-.4 0-.2.5 0 .4-.3-.3 0-.5 0-.4-.3.2-.2-.3-.2-.4-.4-.2 0 .6-.3 0-.3-.2 0-.2-.3-.2-.5 0 0 .2 0 .2-.2h.6c.6 0 .4-.3 1.2-.3 0 0 0-.3-.2-.3l.2-.3c.6 0 1 0 1.4-.2.2 0 .3 0 .4-.2h.2c.2 0 .4 0 .4-.2h-.4c0-.3.3-.3.4-.4-.5 0-.6-.2-.8-.4-.2 0-.2 0-.2-.2s-.2-.2-.2-.3h.6c0-.2.3-.2.4-.3h.6c0-.2.4-.2.6-.3.6 0 1.5.2 1.4 0-.2-.4-1-.2-1.6-.2 0 0-.3 0-.2-.2h-.2c-.2 0-.4 0-.4-.2V75h-1l-.6-.5-1.4-.2s0-.2-.2-.2h-.2c0-.2-.2-.2-.4-.2v-.2h-2.2c-.4 0-.5-.3-1-.3h-3s-.8-.2-1.4 0h-3.6l-.8-.2h-1l-1.6.2h-1c-.4 0-.4-.2-1-.2H482c0 .2-.4 0-.6 0h-12.2-.4c0-.2 0-.3-.4-.3-.5 0-1.2 0-1.6.2 0-.2-.2-.2-.4-.2h-6.8s-.4.2-.8 0c-1 0-1.5 0-2.2.2h-1c-.6 0-.5-.2-1-.2h-.4l-.4.2h-.4H451.6l-.8-.2c0 .2-.7 0-1 0 0 0-.2.2-.2 0h-.8l-.8.2h-4.6-3.4c0-.2-.4-.2-.6-.3H433c0 .2-1 0-1 .2-.6-.2-.7 0-1.2 0h-1.2-4-1.4c-1 0-1.5 0-2.2-.2H418.6c-.7 0-1.8 0-2.6.2-.4 0-.8-.2-1.4 0h-8-9.2c-.3 0-.7 0-1 .2H395.2c-.6 0-.5-.2-1.2-.2-1.3 0-2.2 0-3.2.2H383c-1-.2-1.7 0-2.6 0-.7 0-1.6-.2-2 0h-3.8c-.3 0-.5-.2-.8-.3h-.4H369.4c-.4.2-1 .2-1.4.3H361.2 358.8c-.6-.2-2 0-2.4 0s-.3 0-.2 0h-4.4-.8c-.4 0-.5-.2-1 0h-6.2H340c-.3.2-.5.2-.8 0-.5 0-.4.2-1 .2h-2.6c-.6-.2-1.7 0-2.2 0h-4.8-.6-4.9c-.6.2-.8 0-1.5 0H311.2h-3.5c.2 0-1-.2-.8 0-.6 0-.5.2-1 .2-.4 0-.4-.2-1-.2H302h-.3c0-.2-.8 0-1 0-.6-.2-.6 0-1.2 0H297 293c-.3 0-.3-.2-.5-.2h-1.9c-.3 0-.5 0-.6-.2-.4 0-1 .2-1 0l-2.6.2h-1.2-.6H282.2h-3.7-2.6c-1.7.2-2.8 0-4.3 0h-11.5H258.4h-1c0-.2-.4-.2-.6-.2h-.4c-.7 0-1 0-1.4.2h-1.6l-1.2-.2h-1.4c-.5.2-.5 0-1 0h-.4l-.6.2h-.4l-.4.2h-2.8-.4c-.5-.2-.4 0-1 0h-9.6H224.8h-.2-2.4c0 .2-.8 0-1.2 0H212.8c-.4 0-.7 0-1.2.2h-8.1-.4l-.3-.2h-1.2c-1.3 0-3-.2-3.8 0H197c-.4-.2-.7 0-1 0H190c-.3 0-.5 0-.7.2 0 0-.3 0-.3-.2h-20.1-.4-8.4-6.3l-1.7.2c-.8-.3-1.5 0-2.7-.2H148c-.8 0-1 .2-1.6 0-.7 0-1-.2-1.5 0h-2.2l-1.8-.2c-.3 0-.6 0-1 .2h-1.6c-.3 0-.7 0-.8-.2-.5 0-.4.2-.6.2h-2c-.5 0-.7-.2-1.3 0-.8-.2-1 0-1.6 0H125.3h-4.6l-1-.2c-.7 0-.8.3-1.8 0-.3.2-.6.2-1 .2H115c-.6 0-.6-.2-1-.2h-1l-1 .2h-.6c0-.3-.5-.2-.8-.3-.5 0-.8.3-1.3.3H108h-.6l-.8-.2c-.6.3-1.3.3-2 0-.4.2-1 .2-1.5 0h-1.3c0 .2-.7 0-1.2 0-.2 0-.3 0-.4.2h-.4-1.8c-.2 0-.5 0-.5.2-.3 0-.7-.4-.8 0-.6 0-.5.2-1 0h-.6c-1 0-1.8.2-3 0-.3 0-.5 0-.8.2-.4 0-.8 0-1-.2h-.5s0 .2-.2.2h-3.6c-1-.2-1.5 0-2 0-.7 0-1.4 0-2.2-.2h-9.3l-.8.2H70c-.5 0-.8-.2-1.5 0H68h-.5-1c0 .3-.7 0-1 0 0 0-.3 0-.4.2h-.3c0-.2-.2-.2-.4-.2H61c0 .3-.4.2-.7.2h-1-1c-.2-.2-.5 0-.7 0h-1.4-.8l-1-.2c-.3 0-1 0-1.3.2h-8.7s.3 0 .3-.2-.2-.2-.3-.2h-.4v.2c0 .2-.5 0-.6.2h-1.8c0-.2-1 0-.8-.2h-4c-.3 0-.3 0-.5.2h-5.4c-.6.2-1.5.2-2.6 0v.2h-8.4l-3.6-.3h-5c.2.3-1 0-.7.2-1-.2-1.6-.2-2.3 0l-2-.2H4.5h-4c0 .3-.2.3 0 .6 0 0-.2 0-.2.2s0 .2 0 .2c.2.5-.2.7-.2 1 .3.6 0 1 .2 1.5 0 .2-.5.4-.6.7-.3 0-.2.2-.3.3 0 .2-.2.3-.3.5-.2 0-.7 0-1 .3 0 .3-.2.2-.2.3-.3 0-.3.2-.5.2V81s.5.7.5 1.2v1.3s.4.6.4 1c-.3 0 0 .2-.3.3 0 .2-.2.2-.2.3l-.3 1c.2.3.6.5.8 1h.3c0 .3.7.4.5.7.3.7 0 1 .4 1.8l1 1c0 .4.4.4.3.7 0 .2.5.3.5.6 0 .6.4 1 .6 1.6 0 .3-.2.4-.4.4 0 .3-.2.3 0 .7 0 .7.7.8 1 1.3-.2 0-.3 0-.2.2v.4c0 .3-.3.3 0 .7 0 .2-.3.3-.6.3h-.2v.3c0 .4.3.8.6 1-.2 0 0 .3-.3.3h-.5c0 .3-.5.4-.4.8 0 .3 0 .6.2.8l.3.2s0 .2.3.3c0 .3.6.3.5.6.5 0 .3.4.8.4 0 .2.6.2.5.6v.5c0 .2 0 .2-.3.2v.2c0 .2-.2.3-.4.3-.3 0-.3.2-.5.2l-.2.7h-.2v.3c-.4 0-.4.2-.6.2.2.5 0 .8 0 1 0 .3-.5.2-.6.3-.3 0-.4.2-.5.3-.3.3-.6.5-1 .6.2.3-.2.3 0 .6-.4 0 0 .4-.4.4.2.4.2.8 0 1 0 .4-.4.4-.5.6 0 0 0 .2-.4.2v.5c0 .6.3.8.5 1.3.4.5 0 .6.2 1 .4 0 .2.3.4.5 0 0 .2 0 .2.2s.3.2.3.4c0 .4.3.6.5.7v.2s0 .2-.2.2c0 0 0 .2-.3.2l.3 1.2c.3 0 .5 0 .7.2h.4l.4.3c0 .2-.4.2-.4.3.6 0 .3.2.4.5 0 0 .2 0 .3.2v.2h.4v.2l.4.7c0 .6.7.8.7 1.3 0 .2-.3.4-1 .3 0 0-.2.2-.5.2H.8v.3c0 .5.4.5.3 1 .2.2.2.6.5.7 0 0-.2.3 0 .6s-.2.3 0 .6l.7.3c0 .3.4.3.5.5l1 1c.5 0 .3.6.8.5 0 .4.6.3.7.6.3 0 .4 0 .6.2H6s.4 0 .4.2c.3 0 .5 0 .6.3 0 .2.3.2.5.2.3 0 .3.2.3.2.4 0 .3.2.8.2h7.2c.6.2.8 0 1.4 0h1c.7 0 1.8.2 2.2 0h.4c.4.2 1.8 0 2 0H26.5l.6.2h6.4L36 130H53.7c.6 0 .5-.2 1-.2h1c0 .2.4 0 .5.2.7 0 .8 0 1.2-.2 0 .2.5.2 1 0h2l1 .2h6.1c.4 0 .2-.3.7-.3h.3c.3 0 .4 0 .5-.2l.8.2s.4.2 1 0H72c0-.2.2-.2.4-.2 0 0 .4 0 .5-.2 0 0 .2.2.5.2l.6.2c.6 0 1 0 1.6-.2.5 0 .4.2.8.2H78l.4-.2h1.4c.3 0 .4 0 .6.2h5.8c1 0 2 0 2.7.2 0-.4.7 0 .5-.2h1.3c.4 0 .2-.2.7-.2h2c.3 0 .2.3.7.3l1.5-.2H97c.7.2.6 0 1.2 0h3c2.5 0 5 .2 7.4 0h6.7c.6 0 .4-.2 1-.2s.5.2 1 0c.3 0 .6 0 1 .2h.6c.4 0 .4-.2.7-.2H134l.8.2h2.7l1.3-.2c1.4 0 3.7 0 4.6-.2l1.2.2h.5c.7 0 0-.4 1-.3v.2h.5c.6 0 .5.2 1.2 0h.3c.3 0 .4 0 .5-.2h.6s.2 0 .2.2h.4c.6 0 1 0 1.3.2h7.1c.5 0 1.7-.2 2.3 0h1.1l.7-.2h.6l1 .2H170.6c.3-.2.7 0 .8 0h.2s0-.2.2 0h.3c.6 0 .7-.2 1-.2h.7l.8.2H178.5l2 .2c.3 0 .6 0 .7-.2h.7l.8.2h3c.6.2.6 0 1.2 0h4.1c.2 0 .3-.2.4 0h1c.5 0 .4-.2.8-.2h6.6c.5-.2.4 0 .8 0h6.2s.4 0 .4.2c.5 0 1 0 1.5-.2 0 .2.7 0 1 0 .4 0 .4.2 1 .2h3.2c.2 0 .8 0 1 .2h.5c.3 0 1 0 1.2-.2H224l1 .2h6.6c.4-.2 1.5 0 2.3 0h19c1 0 2.5.2 3 0h.8c1.2.2 2.5 0 3.6 0h6.7l.4.2c.2 0 .5 0 .8-.2h5.7c0 .2.6 0 .8 0l.8.2h4c0-.2.6 0 .7 0h2.5c0-.2.7 0 .8 0h4.2c1 0 2.5 0 3.4.2h2.3c.6 0 1.4-.2 1.7 0h.4c.3 0 .3-.2.5-.2h.8l.8.2c3.5 0 6.7-.3 9.8 0h12.8l1.2-.2h2c.7.2.4 0 1 0h.8l.6.2h2c1.5 0 3 0 4.3.2H349.8s0-.2.2-.2c0 .2.2.2.6.2h18.1c0-.2.6 0 .7 0h19c1 0 2 .2 2.6 0H394c.6 0 .5.2 1 .2.6 0 1 0 1.6-.2s.5 0 1 0h1.6c.5.2.5 0 1 0 0 .2.6 0 1 0 0 .2.4.2 1 .2H421c.5 0 .4.2 1 .2H438.7c.4.2.6 0 .8 0h5c.4 0 .8 0 1-.2.7 0 1.2.2 2 0 .4 0 .3.3.8.3.2 0 .7 0 1-.2.4.3 1 0 1.4 0 0 .3 1 0 .8.3h3.7s.5.2 1 0H461s.2 0 .2-.2.2 0 .4 0h3.2c.4.2 1 0 1.5.2 0 0 0-.2.4-.2 0 0 .2 0 .3.2h4.7c.8 0 1.3 0 2 .2h2.4l1-.2h3.5c.4 0 .6.2.7 0l.8.2h2.5c.5-.2.8 0 1 0h4s.4 0 .5-.2l.6-.2c0 .2.6.2 1 .3h.3c0-.2.2-.2.4-.2 0 .2.2.2.4.2h.7c.3 0 .2-.2.2-.4.3 0 .5-.2.7-.4-.5 0 0-.4-.4-.3 0 0-.3 0-.2-.4.2-.2.6-.2 1-.2 0-.2.2-.2.5-.3h.2s0-.2.2-.2v-.2c.4 0 .6 0 1-.2.3 0 .3-.2.7-.2.2 0 .7 0 .8-.2.3 0 .6 0 .6-.3.3-.3-.6 0-.5-.4-.2-.2-.2-.3 0-.5-.3 0-.5 0-.6-.2 0-.2-.6 0-.5-.4l.4-.2h.5c0-.2.3-.2.6-.2h.7c.2-.4-.6-.3-.4-.6 0 0 .2 0 .2-.2.2 0 .4 0 .4-.2s-.3 0-.5-.2v-.4s.3 0 .2-.3c.5 0 .4-.3.8-.3 0-.2 0-.3.2-.4.5 0-.2-.4.4-.4 0-.3-.2-.3-.5-.4 0-.2 0-.4-.2-.5h.8c.6 0 .5-.3 1-.3-.2-.3 0-.4 0-.6.6 0 .5-.2 1-.3h1.4c.3 0 .3-.2.6-.3 0 0 .3 0 .4.2.3 0 .5 0 .6-.2h.8c0 .2.2.2.2.3l-.2.2c-.5 0-.3.2-.6.3.7 0 .2-.4 1-.3 0-.2 0-.3.4-.3 0-.2 0-.3-.2-.4.8 0 0-.2.2-.3 0 0 .3 0 .4-.2.2 0 .2 0 .2-.2s0-.2-.4-.2l.2-.3s-.7 0-.8-.2c.5 0 .2-.3.6-.3 0-.2.5-.2.8-.2v-.4c.5-.2 1-.4 1-.6v-.2s0-.2-.2-.2c0-.2.3-.2.2-.4h-.4c0-.2-.3-.2-.4-.3 0-.2-.7 0-.6-.4 0-.3.3-.3.2-.6 0 0-.2 0 0 0 0-.2.2-.2.2-.3 0-.2 0-.5.4-.7 0 0-.2 0-.2-.2s-.2 0-.2 0c.3 0 .2-.3.2-.4.2 0 .4 0 .4-.2h-.6c-.3 0-.2-.3-.4-.3v-.3c-.3 0-.2-.2-.4-.2s-.7 0-.6-.2h1.2c.2-.2.2-.3.2-.5.3 0 .5 0 .6-.2.4 0 .6 0 .6-.2 0 0-.3 0-.2-.3h-.4c.2-.2.2-.3.2-.5 0 0-.3 0-.2-.3-.3 0-.2-.2 0-.2-.2-.2-.5-.3-.4-.6l1-1c0-.3-.5-.2-.4-.5 0-.3-.4-.4-.2-.6h.6c0-.3-.3-.4-.8-.4-.2 0-.3 0-.4-.2 0 0-.3 0-.2-.3 0 0 .4 0 .6-.2h.2s.4 0 .4-.2c.3 0 .6 0 .8.2 0 0 .3 0 .4-.2-.3 0-.2 0-.4-.2 0 0 0-.2-.2-.2 0-.2-.4-.3-.6-.4.5-.3 0-.6 0-1 0-.2.4-.3.4-.5s-.3-.3-.2-.6h-.2l-.4-.3s0-.2-.2-.2c.3 0 .5 0 .8-.2.2-.2.6 0 1 0h.4l.6-.2h1c-.3 0-.2-.2-.4-.3h-.6s-.7.3-.6 0c0 0 0-.2.4-.2h.4c.3-.4-1 0-1-.4 0 0 .2 0 .2-.2-.5 0-1 0-1-.2.5 0 .4-.2.8-.2v-.2h.2s0-.2.2-.2c0-.3 0-.5-.2-.7h.4l.4-.2c.2 0 .2-.2.6-.2 0-.2-.4-.3-.4-.5 0 0 .2 0 .2-.2s-.2 0-.2 0c.3 0 .3-.2.6-.3h.2l.2-.3c0-.2.4-.3.2-.5 0-.2.2-.2.4-.3v-.4c.2-.2-.6 0-.6-.3.3 0 .4 0 .4-.3l-.2-.2h.2v-.6c.3-.2 1 0 1-.4.2-.2-.3-.2-.4-.4-.7 0 0 0-.2-.4h-.6c0-.2-.5 0-.6-.2 0 0 0-.3-.4-.3.3-.3-.7 0-.6-.2h.4c0-.2.2-.2.4-.3.6 0 .4-.2 1.2-.2 0 0 0-.2-.2-.3-.5 0-.4-.2-.6-.2.6 0 .6 0 1-.2v-.3h.6c-4.6-.2-4.5-.3-4.4-.4zm-458 22l-.2.4h-.2V114h-.3v.2H51s-.3.3-.6.3l-1.5.5-.5.2-.2.4-.4.5c-.2 0-.3.2-.4.4-.2.2-.4.5-.8.6h-.3l-.5.3c-.7 0-1.2 0-1.7.2H43.7h-.3c-.4 0-1-.2-1.3-.5h-.6v-.4H41v-.2c-.2 0-.2-.2-.2-.3h-.4v-.2l-.4-.4c0-.2-.2-.3-.5-.4-.3 0-.6-.3-.8-.7l-.7-.6c-.2-.2-.3-.4-.5-.4l-.3-.5v-1l-.3-.8-.5-.7c0-.2-.3-.4-.4-.6 0-.3 0-.3-.2-.3l-.3-.4v-.4l-.3-.4c0-.6 0-1-.2-1v-.2c-.2-.6 0-1 0-1.4v-1.1l.2-.4.4-1.3c0-.3.2-.6.5-.7 0-.2.2-.3.3-.4v-.3l.4-.4.7-.7.8-.7c.2-.4.5-.6.7-.8l.5-.7h.3c.6 0 .7-.3.8-.4v-.2h.3c.5 0 .6-.3.7-.3h1.7c.5-.3 1-.4 2-.4h1.7c1 0 1.3.3 1.7.6.2 0 .4.3.7.3l.2.5v.5l.3.8v.3-.6c0 .3 0 .5-.2.7 0 .3 0 .4-.3.6 0 0-.2 0-.3.2v.5l-.7.2h-.3c-.6 0-1 0-1.6-.2l-2.7-.2c-.2 0-.3 0-.4.2-.7.3-1.4.6-1.6 1.2l-.4.2c-.4.2-.5.3-.5.6l-.3.4s-.2 0-.3.4c0 0 0 .3-.2.4v1l.2.3.3.4v1.5h.2v.2c0 .3.2.6.4 1l.5.7c.3 0 .4.5.5.7v.3h.5v.2H43.6v.3c.5.2 1.2 0 2 0l1.6-.2c.5 0 1-.2 1.3-.4.5-.2 1-.5 1.8-.5H51.2v.3c.2.3.4.5.7.6h.2v.4c-.2.3 0 .4 0 .5v1.6zm20.2-7c0 .6-.2 1 0 1.7l-.4.4v.5c-.2.3-.2.6-.5.8 0 .4-.2.6-.4.8v.8h-.3c-.5.4-1 .8-1.3 1.3v.2H69c-.5.4-1 .8-1.3 1.3l-.5.2c-.4 0-.6.2-1 .4 0 .2-.2.4-.5.5l-.4.2h-.2v.2H65c-.2.2-.5.4-1 .4H63c-.5 0-1 0-1.4-.3-.5.2-.8-.2-1-.4H60v-.5c-.3 0-.5-.3-.6-.7-.3-.2-.4-.5-.4-.6v-.2l-.4-.3c0-.6-.2-.7-.3-.8H58v-.3c0-.7-.3-1.4-.7-2.3v-.2c0-1-.2-1.7-.4-2.5l-.2-.2v-4.3l.4-2c.2-1.2.3-2.5 1-3.4h.7c0-.2.2-.3.3-.3 0 0 .3 0 .4.2.4 0 .7 0 .8.2.2 0 .4 0 .5.3.4 0 .5.5.6.7v.2l.4.4v1.4c0 .3 0 .8-.3 1v.5c0 .6 0 1.3-.3 1.7 0 .4 0 .8.2 1.2.2 1 .3 2.2.3 3.5 0 .3 0 .6.2 1 0 .3.3.7.4 1l.2.2c.2.5.4.8.7 1 .2 0 .3 0 .4-.2h.2c0-.2.3-.3.4-.3h.2v-.3h.2c.4-.2.5-.6.8-1v-.3h.2c0-.2 0-.3.2-.3l.3-.3c.2-.3.3-.5.3-1l.3-.3.4-.4.2-.7v-2c-.2-.3-.2-.7-.2-1-.3 0-.3-.5-.3-.7-.2-.2-.2-.6-.2-.8V99c0-.5.3-1.4 1-1.6h.2c.7 0 1.2 0 1.7.4v.2h.2v.2c.2.2.4.4.4.8.5.4.5 1 .5 1.3v1.6s0 .4.2.6c0 .2 0 .4.2.5.6.5.6 1.2.7 1.5.7.7.6 1 .4 1.6zm10.7-2.6v5.9c0 .4 0 .8-.2 1.2v3l-.3.8c0 .3-.2.4-.3.5v.2c0 .2 0 .5-.3.7h-.4v.2l-.5.4h-.8c-.3.2-.6.3-1 .3-.3 0-.5 0-.7-.2h-.2c0-.3-.2-.4-.2-.5v-.2c-.2-.4-.3-1-.3-2 0-.8.2-1.4.4-2 .2 0 .2-.3.3-.5 0-1.6 0-3 .2-4.6 0-1.8.3-3.6.2-5.6v-1c-.2 0-.5-.2-.5-.6-.2-.7.2-1 .5-1 .2-.2.2-.2 0-.4V98 97c0-.4 0-.8-.2-1h-.2c0-.7 0-1 .2-1.4V94c-.2 0-.2-.5-.2-.7V92l.3-.5v-.7h.2v-.5l.3-.3c.2 0 .3 0 .4-.2 0-.2.3-.4.6-.5l.4-.3 1-.3h.2c.8 0 1.2.5 1.4 1 .2 0 .3.3.3.4l.3.5v3.2h-.2s0 .3-.2.4V96l.3 1.5c0 1.3 0 2.3-.3 3.3 0 .8 0 1.3.2 1.8l-.3.8zm16.5 1.3c-.2.4-.6.5-.8.6 0 0-.3 0-.3.2H98c-.3 0-.4.2-.6.3l-.4.2v.8c-.2.8-.3 1.6-.7 2.2l.4 1.8v.6c0 .6 0 1-.2 1.4 0 .5-.2 1 0 1.6l-.3.4c0 .2 0 .6-.3.7 0 .2 0 .4-.2.4l-.2.2s0 .2-.2.3c-.3.4-.7 1-1.5 1h-.3c-.2 0-.3 0-.4-.2v-.3c-.5-.2-1-.6-1-1.6v-.2c-.3-.4 0-1 .2-1.2v-1.3-1.3c-.2-.3-.2-.6-.2-1s0-.8.2-1.2v-3h-6.3c-.8.2-1.3-.2-1.6-.4 0 0-.2 0-.3-.2H84v-.8H84v-.5l.6-1.6.5-.4.5-.2.8-.2c.2-.2.6-.2.8-.2h.7l.6-.3h1c.2-.2.4-.3.8-.3.8 0 1.4 0 2 .2l1.2.2c.2-.4.2-1 0-1.7V95v-1c0-.7-.2-1.4 0-2.3v-.5l.2-.2h.3s.2 0 .3-.2l.4-.2v-.3h2.4v.4c.3.2.6.5.5 1l.2.7v.2l.2.5c-.7.6-.7 1.4-.7 2.2.3 1.8.4 4.3 0 6.2.2 0 .4 0 .6.4h.5l.5-.3h1.2c.6 0 1.2 0 1.6.4.2 1.6-.4 2.4-1.8 2.7zm21.6 3c0 .3 0 .6-.2.8 0 .3 0 .7-.4 1-.3.4-.6 1-1 1.2-.2 1-.8 1.6-1.3 2-.2.3-.5.5-.7 1h-.4c-.2 0-.3 0-.4.2h-.6c0 .2-.3.3-.3.3l-.5.3c-.5 0-.8 0-1.2.3h-1.4c-.7 0-1.3-.3-2.2-.2l-.4-.2h-.2l-.4-.2v-.2l-.3-.3c0-.3 0-.4-.3-.4h-.2v-.2l-.6-.8c-.3-.3-.5-.5-.6-.8l-.2-.5v-.2h-.2c-.3-.2-.3-.4-.4-.5v-.2l-.4-.4c0-1-.2-1.7-.4-2.5 0-.6-.3-1.2-.4-2 0 0 0-.2-.2-.3-.2-.5-.4-1-.4-2 0 0 0-.2-.2-.3-.2-.5-.4-1-.4-1.7 0-.8.2-1.4.4-2 0 0 0-.2.2-.3v-.7c0-.5-.2-1 .2-1.4v-.2h.2c0-.2.2-.4.3-.5.2-.4.5-.7 1-.8h2.3v.2s.2.3 1 .3l.2.2c.4 1 .4 3.2 0 4.3v.8c.2.4.3 1 .2 1.6 0 .7 0 1-.3 1.4l-.4.7c0 .6.2 1 .4 1.4v.2l.3.5c.2.4.4.7.4 1.2l.2.3v.2c.2.2.4.4.4.8l.4.3.6.4c.8 0 1.2-.5 1.8-1l.6-.5c0-.3.2-.5.3-.6.2-.2.2-.4.2-.7 0-.7.2-1.3.4-2V104l-.5-3c0-1.4 0-3.5 1.5-4 .3-.2 1-.4 1.3 0 .5 0 .7 0 .8.3.5 0 .8.3 1 .6.3 0 .4 0 .5.2h.4v.7c.2 0 .3.3.3.7v.7l.3.4v1c0 2 0 3.7.2 5.2v.8zm16.3-3.4l-.2.3v.2c-.2 0-.4.2-.5.3l-.4.4v.2l-1.3.4c-.6 0-1.3.3-1.8.5 0 0 0 .2-.2.2l-.3.3-.2.7-.4.4c-.2 0-.3.2-.4.5 0 .2-.2.6-.5.8l-.2 3s0 .5-.3.6c0 0 0 .3-.2.3v.2c-.3.5-.6.7-1 .8-.2.2-.4.5-.8.5h-.4c-.5 0-.8-.4-1-.6 0-.2-.2-.3-.3-.3l-.2-.2v-.2s-.2 0-.3-.2-.3-.2-.3-.5c-.3-.2-.3-.4-.4-.5l-.3-.4c.2-1.6 0-3-.2-4.4l-.2-3.8c0-.5-.3-1-.5-1.5-.3-.8-.6-1.6-.6-2.8 0-.7.3-1 .5-1V98h.2c.2-.3.4-.3.5-.4l.5-.4h1.2v.2h.5v.3h.2v.3c0 .3.2.4.4.4l.2.4v.4c.2 0 .3.3.3.5 0 0 .2 0 .2.2l.3.4v2l.5.5c.3 0 .4 0 .6-.3l.7-.6c0-.3.5-.4.7-.5h.2v-.2l.6-.3h.2l.4-.4h4l.2.3.3.2.3.5v.2l.3.5c0 1-.5 1.4-.7 1.8zm19 11.4c0 .3-.3.6-.7.8 0 .4-.5.5-.7.6l-.3.2-.3.3h-.8l-.4.3h-.8v.2h-.2c-.2.2-.5.2-.8.3-.4 0-.8.2-1 .3h-.7c-1.2 0-2.2-.2-3-.4l-1.6-.3-.2-.3c0-.2-.2-.3-.4-.3h-.2v-.2l-1-1-.2-.3v-.3l-.3-.3-.2-.4h-.2v-.3l-.5-.7c0-.2-.3-.4-.4-.6 0-.2 0-.3-.2-.4-.2-.2-.5-.4-.6-.8v-.2c-.2 0-.5 0-.7-.3-.7 0-.8-.5-1-.8v-.6c0-1 .2-1.6.8-2 0-.3.5-.5.8-.6.3 0 .3 0 .3-.2 0-1.5.4-2.7.8-3.8l.6-1.7.3-.2.2-.2.4-.3c0-.2.3-.2.4-.3v-.2h.3c.2 0 .2-.2.3-.3s.2-.3.5-.3c0-.2.3-.2.4-.3l.5-.4h.8c.2-.2.4-.3.8-.3h.2c.7 0 1 .2 1.6.3.5 0 1 .3 1.4.3h.4s.2 0 .2.2h.4v.3l.2.2c0 .2.2.3.3.3l.2.2c.2.4.5.7 1 1v.3c0 .3.2.4.4.4l.3.3v1c.2.3.4.6.4 1 0 .5 0 .7-.2 1 0 0-.2.3 0 .7l-.3.5-.5.6c0 .3-.3.5-.5.6l-.6.4h-.2v.3l-.3.5h-.6c-.3.2-.7.3-1.2.3 0 .3-.3.4-.5.5 0 .2-.3.2-.4.3l-.4.3c-1 0-1.4.4-2 .6h-.3v.3H147.7v.3l.2.3c0 .4.2.7.5 1 .5-.2 1 0 1 0l.6.2c1 0 1.8-.4 2.5-.8.3 0 .6-.3 1-.4 0-.2.3-.3.4-.3 0-.3.3-.3.4-.3h.5v-.3h.2c.7 0 1.2.2 1.6.4 0 .2.3.2.5.3h.3v.5l.3.4c-.5 1-.7 2-1.6 2.5zm49-4c0 .3 0 .8-.3 1 0 .4 0 .7-.3 1 0 .2-.2.3-.3.4 0 .5-.2.7-.4 1 0 0-.2 0-.2.3v.2h-.3l-.4.5v.2l-.5.4c-.3 0-.4 0-.4.3v.2h-.3c-.6 0-.7.2-.8.3l-.2.2h-2c-.2.3-.5 0-.6 0H197v-.4h-1l-.2-.2-.4-.2c-.3 0-.6-.3-.7-.8-.4-.3-.8-.6-1-1-.5-.4-.8-.7-1-1.2-.5-.2-.8-.5-1-1l-.3.6v.3h-.3c0 .2 0 .5-.3.6v.4h-.3l-2 2h-.2c-.6 0-1 .2-1 .6l-.2.2h-.2c-.5 0-1 .2-1.4.4h-.3c-.3 0-.5 0-.7-.2-.3 0-.6-.2-1 0h-.6v-.3h-.5v-.2h-.2l-.2-.2c0-.2-.2-.2-.3-.3l-.3-.5c-.2 0-.2-.3-.3-.4h-.3v-.2l-.5-.8-.3-.7c-.3 0-.4-.3-.4-.4 0 0-.3-.2-.3-.5 0 0-.3-.4-.3-.8l-.3-.7-.2-.3-.3-.5v-.8c-.2-.3-.3-.6-.3-1l-.2-.3v-.3l-.2-.3-.2-.4v-.5c-.2 0-.4-.4-.3-1v-.7l-.3-2.2c-.2-.2-.3-.6-.3-1 0-.2 0-.2-.2-.3h-.3l-.2-.6c0-.5-.3-1-.2-2v-.4h.3v-.4h.4c0-.3.2-.5.3-.6h.4c0-.2.2-.3.3-.3h.8c.4 0 .7 0 .8.3h.4l.5.5c0 .4 0 .5.3.5h.3v.4c0 .2 0 .5.2.8.2.4.4 1 .3 1.7 0 .4 0 .7.2 1 .2.4.3.8.3 1.4l.2 1 .3 1c.3.4.4 1 .3 1.6 0 0 0 .2.2.3 0 0 .2.2.2.5.2.3.2.6.3 1 .2.2.2.4.2.6v.2h.2v.4c.3.2.6.4.6 1 .2 0 .2.3.2.4l.2.3c.3.5.7 1 1 1.2.6 0 .8-.2 1-.6l.3-.4h.2v-.7h.3v-.2h.2v-.2s0-.3.3-.4c0-1 .3-1.6.5-2.3l.4-2v-1.4c-.2-.5-.3-1-.2-1.7 0-1 0-1.7.3-2.3l.3-1 .2-.2c.7-.3 1.7-.3 3-.3h.2v.3l.3.3c.2.2.5.4.6 1h.2c.2.3.2.7 0 1v.6c0 .6.2 1 .4 1.4.2.6.4 1.3.3 2.2l.2.6.5 1.2c.5.3 1 .7 1 1.3.4.3.6.7.7 1 0 .2.2.3.4.4h.2v.3c.2.2.3.3.5.3h.2v.2l.3.3.4-.2.6-.3h.4v.2h.4v-.3l.2-.5h.2v-.2c0-.3 0-1 .3-1l.2-1 .3-1c0-.7 0-1.2-.3-1.7l-.3-1.6c0-.8-.3-1.3-.5-2-.2 0-.3-.4-.4-.6l-.2-.5c-.3-.8-.7-1.5-.8-2.5l-.2-.4s-.3-.4-.3-.7V98v-.4l.4-1 .4-.2c.2-.2.6-.4 1-.3h.4c.7 0 1.2.3 1.3.7.4 0 .5.5.5.7v.2l.4.4c0 .3 0 .4.2.6l.2.4c.4 0 .5.5.6.7v.2h.4v.2c0 .7.3 1.5.4 2.2 0 .6.2 1.3.4 2v.2c.2.6.4 1 .3 2l.2 1c0 .3 0 .6.2.8v2.4c.3.4 0 .7 0 .8zm6.6-18.4l-.3-.4v-.7-.4c.2-.4.3-.7.6-1l.3-.2v-.2h.2v-.3h1.6l.6.2s.2 0 .3.2h.2v.2l.6.3h.3v.5h.2v.2c.2.2.3.4.2.7 0 .6-.4 1-.8 1.4l-.3.4v.2l-.2.2h-.7l-.2.2c-1 0-1.6-.5-2-1 0-.2-.3-.4-.4-.6l-.2-.2zm5.7 12.3v1.2c0 .4.2.7.3 1 0 .7-.2 1.2-.3 1.5 0 .3-.2.5-.3.8 0 .4 0 .7.2 1l.3 1.5c0 .6-.2 1-.3 1v.3c0 .2-.2 1-.7 1.3-.2.7-1 1-2 1h-.8l-.3-.4c-.3-.3-.7-.7-.5-1.6v-2.2-.8c-.2-.3-.3-.7-.2-1.3-.2-.6-.4-1-.5-1.7 0-.7 0-1.2.2-1.6 0-.4.2-.8 0-1.4v-.5-.3c-.2-.2 0-.3 0-.5-.5-.2-1-.7-1-1.4.2-.8.6-1.5 1.3-1.8 0-.2.4-.3.5-.3.2-.3.4-.3.5-.3h.5v-.3h.3c.5 0 .8 0 1 .3.3 0 .5.2.7.4l.4.2.4.5v.2c.3.2.6.4.6 1s0 1-.3 1.4l-.2.6c.2.6.2 1 .2 1.4zm20.5-2.8c0 .5-.2.7-.4.8l-1 .4c-.2 0-.5 0-.7.3h-1.6c-.2 0-.6 0-.8.2h-.2v5.2c-.2.4 0 .5 0 .8 0 .3.3.6.2 1v1.2c-.2 1-.4 1.7-.3 2.7v.2l-.3.6c0 .3 0 .6-.4 1h-.2v.2h-.2c0 .2-.2.3-.3.3h-1.1c-1.2 0-1.7-.8-1.8-2.2v-1.8c-.2-.3-.2-.6-.2-1v-.4c0-.6 0-1 .2-1.5-.2-.6-.2-1.3-.2-2v-.8c-.3-.4-.3-.7-.2-1v-1.5c-.5 0-.8 0-1.2.2h-.5c-.5 0-.8 0-1.2.2l-1 .2c-.2.2-.7.3-1 .3h-1.5c-.6 0-1-.2-1.2-.7 0 0 0-.3-.2-.4h-.3v-.3c-.3-1.4.5-2 1-2.2.4-.7 1.2-1 2-1v-.2c.3-.2.6-.3 1-.2l.6-.3h.6c0-.2.3-.2.4-.3h.2c1 0 1.4 0 2-.4v-1.8c0-.8-.2-1.6 0-2.6l-.2-.4c-.3-1.2-.6-2.5-.4-4v-.4h.3c0-.3 0-.6.4-.7 0-.3.5-.4.7-.5h.3l.4-.4h2l.3.3c0 .2 0 .3.2.4.2 0 .4.3.5.7l.2.5v.2h.3v.4c0 .8-.2 1.2-.3 1.5-.2.3-.3.6-.3 1 .3.5.3 1.5.3 2.4 0 1 0 2 .2 2.7.2 0 .3.2.4.3l.3.2h.5c0 .2.3.3.5.3.3 0 .6.2.8.4h.8c.7.2 1.8.5 1.6 1.8zm20 13.4l-.2.3h-1.2c-.3 0-1 0-1.4-.6l-1.3-.6-.3-.5v-.3l-.3-.6-.3-.5v-.3c0-.2-.3-.4-.2-.8l-.2-.5v-.2c-.2-.2-.3-.4-.3-.7 0-.4-.2-.6-.3-.6l-.2-.4c0-.7 0-1.2-.2-1.8-.3-.3-.5-.6-.6-1l-.4-.4c-.2 0-.3.2-.4.4-.2.2-.4.5-.7.6 0 .2-.2.3-.3.5-.2.3-.4.5-.4.8l-.2.5c-.2 0-.3.3-.4.6 0 .4-.3.8-.6 1 0 .4-.3.7-.7 1-.2 0-.4 0-.5.2v.3h-.3c-1 0-1.3-.3-1.7-.6l-.5-.4h-.2v-.3l-.2-.2s-.3 0-.3-.4c-.2 0-.2-.3-.3-.4h-.3v-2.6l-.3-.4v-1l.2-.3c-.2-.3-.2-.8-.2-1V101c.2-.4 0-.5 0-.8l-.2-.7c0-.6 0-1 .2-1v-.3-2c-.2-.8-.2-1.7-.6-2.3v-.2c0-.2 0-.2-.6-.4h-.3l-.4-.5v-.2c-.3 0-.7-.4-.5-1v-.3c.2-.6.4-1.4 1.3-1.5.2-.4.6-.5 1-.6 0 0 .3 0 .3-.2l.4-.3h1.6l.7.3s0 .2.4.3c.2 0 .4 0 .5.3v.2c0 .6.4.7.4.8h.2v.3c0 .8 0 1.3-.3 1.7l-.3 1v1c.2.7.3 1.4.2 2.3.2.3.2.6.2 1V100h.2v3.2c.3 0 .5-.3.7-.6 0 0 0-.2.2-.3h.2l.6-.5c.2 0 .4-.3.6-.4h.2c.2 0 .3 0 .5-.2 0 0 .2 0 .3-.2h.3c.4 0 .6 0 .8.2.3 0 .4.2.8 0l.5.3c.2 0 .5.2.6.4v.2h.5v.7c.2.4.4 1 .3 1.8.2 0 .2.3.2.4v.2h.3c.2.3.4.5.4.8.3.2.4.6.5 1 0 0 0 .3.2.3h.3v.4c0 .5.2 1 .4 1.4.2.6.5 1.2.4 2.2 0 0 0 .3.2.4v.2h.2l.4.6v.2h.4v.4c.5 1 .4 2 0 2.8zm17.7-8.6l-.2.3h-.2v.3c0 .5-.2.8-.4 1l-.2.6-.3.3c-.3 0-.5.4-.6 1v.3c-.5.3-.8.6-1 1l-.2.2c-.3 0-.3.2-.3.3l-.5.4-.2.2h-.3c-.5 0-1 0-1.3.2-.7 0-1.4.3-2.3.3h-1.4v-.2h-.7l-.2-.2c0-.2 0-.3-.4-.3h-.3v-.2l-.3-.4c-.2-.3-.5-.6-.5-1-.3-.3-.4-.7-.5-1v-.4h-.4v-.4c0-1.3 0-2.4.2-3.5V105.4h.3s.3-.2.3-1l.3-.2s.3-.2.3-.8l.2-.3c.3 0 .6-.3.8-.6.3-.3.5-.6 1-.8 0-.3.2-.5.4-.6.2 0 .2-.2.3-.3l.4-.3c.6 0 .7-.2.8-.3h.4l.4-.2s.3 0 .4-.2h.2c.7.3 1.5.4 2.3.3h.3v.2h1c.2 0 .4.3.5.4.2 0 .2.2.3.2h.2v.2c.6 1 .8 2 .7 3.5v.4c-.2.2-.2.2 0 .4v1c.7.3.8.6.7 1.2zm24.7-3v.7c-.2.7-.4 1.3-.3 2.2l-.4.5c0 .3-.2.6-.5.7 0 .3-.2.5-.5.7 0 .5-.3.6-.5.8v.2l-.5.6s-.2 0-.2.2v.4h-.5c-.4 0-.4 0-.7.5l-.2.4h-.2c-.7 0-1.3.4-2 .6l-1 .4-1 .2c-.5 0-1 .3-1.8.3h-.6c-.5 0-.8-.3-1-.5l-.4-.2h-.2l-.2-.3c-.2-.4-.3-.5-.6-.5l-.5-.5-.2-.2-.2-.3-.2-.4h-.3v-.2c0-.6 0-1-.4-1l-.2-.2v-1.2-1.4h-.2v-.3-.3c-.2-.2-.4-.4-.3-.8-.4-.2-.7-.5-.8-1v-.6h-.2v-1.5-1.3c-.3 0-.4-.4-.4-.5 0-.3 0-.7.2-1.2v-.8-1.5c-.3-1-.4-2-.4-3.2v-.3h.2c0-.2.2-.5.4-.6l.3-.2s.2 0 .2-.2l.5-.3c1.3.3 2.3.7 3 1.2h.4v.4c-.2 0 0 .2 0 .4 0 0 0 .3.2.4v.4h-.2v3.3c0 .5 0 .7.4 1 .3 0 .7.5.7 1.2v2.7l.2 1.4c0 .7.2 1.4.5 1.8l.2.3c.2.8.4 1.6 1 2 1 0 1.6-.3 2.3-.6.2 0 .3 0 .5-.2 0-.2 0-.6.3-.7 0-.2 0-.3.2-.4v-.5h.4l.4-.7c0-.3 0-.5.3-.8v-3l-.3-1.3c-.3-1.2-.6-2.5-.5-4v-.3c.5-.3.8-.6 1-1v-.2h1.7c.8 0 1.2.3 1.6.6l.4.3.2.2v.7c0 .2.3.5 0 1v1c-.2 0-.2 0-.2.3.2.7.2 1.5.3 2.3.2 1 .2 2 .6 2.8v.2zm18.3-2.8l-.7.8h-.3c-.6.2-1.3.3-2 .3h-1.7V104c.2.6 0 1 0 1-.2.3-.3.4-.2.6v1c0 1 0 2-.2 2.8v.7c.2.3.3.6.3 1 0 1-.5 1.6-.8 2.3 0 0 0 .3-.2.4 0 .6-.3.8-.5 1-.2 0-.2 0 0 .3l-.6.5h-.2c-.2.3-.4.6-1 .6h-.3c-1 0-1.4-.3-1.8-.7l-.5-.4-.2-.2v-.2c0-.7 0-1 .2-1.5v-.7h.3v-.5l.2-.4h.4-.3v-.4c0-.3 0-.8.3-1v-.3c-.2-.3-.4-.6-.2-1.2 0-.7.2-1 .4-1.3.2-.3.3-.4.2-.8v-2h-1.7c-.3.3-.7.3-1 .4h-.7v.2h-1.7c-.4 0-.7 0-.8-.3-.7 0-1-.6-1-1 0 0 0-.2-.2-.2v-.2c0-2 1.6-2.5 3-2.8l.3-.2h.2v-.2h.3l.8-.3h.3c.2-.4.5-.4.6-.4 0 0 .2-.2.5-.2h1c.2-.5.3-1.2.2-2l-.4-1c0-.3 0-.6-.2-.8 0-.4 0-.7-.2-1l-.3-.8c-.2-.2-.2-.7-.2-1v-1.8h.2v-.4h.3c.3-.2.5-.4.6-.7v-.3h1.3l.5-.3h.4c1 0 1 .6 1 1h.2v.4c.2 0 .3.3.3.6v.2h.3v2.9c0 .7.2 1.4.4 1.8v.7l.4 1.6h1.4c.3-.2.5-.3.8-.3.3-.3.6-.3.7-.3h1c.8 0 1.3 0 1.8.4.2.3.4.6.4 1l.2.4c0 1.2-.6 2-1.2 2.6zm39 7.7h.2v.8l-.3.2v1.4h-.4v.6h-.2c0 .2-.3.3-.3 1v.2h-.2c-.2 0-.3.3-.5.5s-.4.5-.7.6l-1 .5s-.2 0-.3.2c-.2.4-.6.5-1 .6-.2 0-.4 0-.5.2-.2 0-.5.3-1 .3l-.2.2-.5.3h-1c-.3.2-.6.3-1 .3h-.4c-.6 0-1-.3-1.5-.5-.6 0-1-.3-1-.5l-.4-.3h-.2v-.2c-.2-.3-.5-.5-1.2-.6-.5 0-.8-.4-1-.6-.2 0-.3-.2-.5-.3h-.2v-.3c0-.6-.2-1-.6-1l-.4-.2v-5c0-.8.2-1.6 0-2v-.5c0-.5.2-1 0-1.8v-.2c.2-.5 0-.8 0-1 0-.3 0-.5-.2-.8v-1c.2-.3.2-.6.3-1v-4.2c0-.7 0-1.4.3-2-.2-1-.3-2.2-.2-3.3 0 0 0-.2-.2-.3-.2-.4-.4-.7-.3-1.2v-.3h-1V88c-.2-.3-.3-.3-.4-.3l-.3-.6-.3-.5c0-.6.3-1.3.8-1.7 0-.7.6-1 1-1 0-.3.2-.4.3-.4v-.4h.3c1 0 1.5 0 2 .2h.5v.2c.5.4.5 1 .5 1.7.3.2.3.5.4.7v.3l.4.4c0 1.2 0 2 .5 3h.2v3.5c.2 1 .3 2 .2 3.4 0 .6 0 1-.2 1.4v.5c-.2.2 0 .3 0 .5l.2.5c.2 0 .3 0 .5-.3l1-.5c1-.3 1.6-.5 2.4-.5.7 0 1.2.2 1.6.4 0 .2.3.2.5.3h.2v.3l.5.2c.3 0 .8.3 1 .8h.8v.3l.4.2h.2v.2l1 1h.2v.6c.2 0 .3.3.3.5.3.2.3.4.3.6v.2l.3.5c0 .4 0 .5.2.8.2.3.4.6.3 1 .2 1 0 1.4 0 2-.2.3-.2.6-.3 1h.3zm18.7-3l-.5 2c0 .7-.2 1.3-.4 2v.3h-.3v.2l-.4.3-.2.3c-.2 0-.3.2-.3.4v.3h-.3s0 .2-.2.3l-.5.3s-.3 0-.4.2v.2l-1 .5s-.4 0-.6.3c-.3.4-.7.5-1 .6h-.7v.2h-.7c-.3.2-.6.3-1 .3h-.6l-.3-.2c-.8-.2-2-.5-2.3-1.5-.4-.2-.7-.6-1-1-.2-.2-.4-.5-.7-.6l-.2-.3c0-1-.3-1.4-.5-2l-.3-.7v-2.7c0-.2 0-.4.2-.5v-.2c0-.5 0-1.3.4-1.6 0-.5.2-.8.4-1l.2-.7.4-.4c.2-.3.3-.7.6-1 0-.2.3-.5.5-.7l.3-.4c0-.5.4-.7.6-.8.2 0 .2-.2.3-.3v-.2c.2-.3.4-.3.5-.4h.2V98c.3 0 .5-.3 1-.3 0-.2.3-.2.4-.2h.2c.2-.3.6-.4 1-.4h.7c.3 0 .7.2 1 0 0 0 .8.2 1.2.7.3 0 .4.3.5.4v.2h.2l.4.2h.2c.2 0 .3 0 .4.2h.4v.4c.2.3.4.5.7.6h.4v.4c0 .3 0 .4.3.4l.3.4.2.2v.2l.2 2.2c0 .8 0 1.7.3 2.5v.4zm22.4-4c0 1.6-1 2.2-2 2.7h-.2c-.8.2-1.4 0-1.8-.3-.3-.3-.5-.4-1-.4-.7 0-1.2.4-1.7.8-.2 0-.3.2-.5.4 0 .2-.2.4-.3.5l-.2.6-.4.3-.2.2c0 .2 0 .5-.4.7 0 1 0 1.8-.2 2.6 0 1-.3 2.2-.2 3.5v.4h-.3v.2l-.3.2c-.3 0-.3.2-.3.3v.4l-.4-.2-.2.2c-.3.2-.7.4-1.2.4h-.5c-1 0-1.2-.7-1.5-1.3l-.5-.6h-.3v-.4c0-1.6 0-3.2.4-4.8 0-1 0-1.8-.2-2.6 0-1-.3-2-.2-3 0-.6-.2-1-.3-1.5 0-.6-.3-1.3-.3-2v-.2h-.2c-.2 0-.5 0-.7-.3-.6 0-.7-.5-.8-.8v-.2h-.2v-.2c-.2-.8.2-1 .4-1.3l.2-.2c0-.5.6-.6.8-.7h.3v-.3h3v.2c.2.3.5.6 1 .8v.4c0 .6.2.7.7 1h.2v1l.5 2.5v-.2l.2-.3h.3c.3 0 .4 0 .4-.3v-.4h.6c0-.2.3-.3.6-.3 0 0 .3 0 .4-.2h.2l.4-.3c.8 0 1.3 0 2-.3l1-.2.5.3h1.2v.2c0 .2.3.3.6.4l.7.5v.3s.2 0 .3.3c.2.5.6.8.5 1.5zm19.2-4.4c-.3 2-.6 4-.6 6.4 0 .4 0 .6-.2.7v1c0 .2-.2.5 0 1l-.4.6V108.5c0 .6 0 1-.3 1.5v.5s.4.4.3 1c-.2 1-.4 2-.3 3v.5h-.4v.2c0 .2 0 .7-.5 1 0 .2-.5.3-.7.4l-.5.4H413c-.3 0-.4-.3-.6-.4 0 0 0-.2-.2-.2-.3 0-.4 0-.6.5l-.5.2c-.2 0-.3 0-.5.2-.2 0-.4.3-.7.3-.4 0-.7 0-1-.2-.5 0-1-.2-1.4 0l-.5-.5h-.2c-.2 0-.6-.2-.7-.6l-.6-.8c-.4-.2-.5-.7-.5-1v-.2c-.3 0-.4-.3-.4-.5 0 0 0-.3-.3-.3l-.3-.4c0-.4-.2-.6-.3-1-.2-.2-.5-.6-.5-1.3-.2-.2-.2-.4-.2-.6v-.2c-.2 0-.3-.3-.3-.6V108c0-.5 0-.8.2-1v-.3l.2-.5V105.6h.3l.2-.2c0-.2.2-.5.4-.6.4-.4.7-.8 1.2-1v-.2c.3-.4.7-1 1.4-1 .3-.6 1-.8 1.6-.8h1s.4 0 .6.2c.4.2.8.3 1 .7.7 0 1 .5 1.3 1 .3 0 .4.3.6.4v-.3l.4-.7v-.3c0-.6 0-1.2.3-1.7v-.7c-.2-.6-.3-1-.2-2 0-.5 0-.8.3-1 0-.3.2-.5 0-.8v-1c0-.4 0-.6.3-.8-.2-.8-.2-1.7-.2-2.8v-1c0-.3 0-.5-.2-.8-.2-.4-.3-.8-.3-1.4l-.6-.8-.4-.6c-.2 0-.3-.4-.3-.5-.2-.2-.3-.3-.3-.7V85h.2c.5-.4 1.4-.8 2.4-.8h1l.2.4h.4v.4s.2 0 .3.3c0 .2.5.4.5 1 0 .2 0 .4.2.5 0 .3.2.4.3.4l.3.4c0 1.4.2 2.4.5 3V94.3c.4 1.2.5 2.4.4 3.8zm19.8 7v.8h-.3l-1 1v.2h-.3c-.3 0-.4 0-.6.5l-.5.3h-.4l-.5.3-.5.4c-.6 0-.7.2-.8.3v.2H432.2l-1.3.2-.2.2v.2h-.3l-.2.2c0 .3.2.5.4.8l.5.8c.4 0 .5.5.6.7v.3h.4v.2l.2.2.3.3c.2 0 .4 0 .4.2h.2l.4.4s.3 0 .4.3h.8c.2.2.4.3.6.2.3-.4.6-.2.7 0H437v.2h.4v2l-.2.2c0 .2-.2.5-.5.6-.3.2-.7.3-1.3.3h-.4l-.5.3-1-.2c-.7-.2-1.4-.4-2.4-.3h-.2v-.3s-.2-.3-1-.3h-.2v-.3s-.2 0-.3-.2-.3-.2-.3-.5c-.4-.2-.6-.5-.8-.7-.2-.3-.4-.5-.7-.6h-.2v-.3c-.2 0-.2-.2-.3-.4l-.3-.6v-.2c-.3-.2-.6-.4-.6-1-.5-.3-1-.8-1.3-1.4h-.3c-.4 0-.7 0-.8-.3h-.2l-.7.2h-.2c-.2-.2-.5-.3-.6-.6-.3 0-.3-.3-.4-.4l-.3-.4c0-.6 0-1.8 1.3-2l.6-.3.5-.3h.3c0-.2.2-.2.4-.3l.3-1.3c0-.5.2-1 .3-1.4v-.3h.2l.4-.5v-.9h.4s.2 0 .3-.2c0-.2.3-.4.6-.5 0-.3 0-.4.3-.6 0-.3.2-.5.4-.6 0-.2.3-.2.4-.3 0-.2.3-.3.3-.4h.4-.4l.4-.4c.3 0 .4 0 .4-.3l.5-.3.2-.3h.7v-.3h2l.7-.2c.4.2.7.3 1.2.2l.4.2h.4v.4s0 .2.3.3l.5.5c.4 0 .5.5.5.7v.2l.4.3c0 .5.2.7.5 1 .2.4.5.7.6 1.2.5 1.2.4 2 .2 2.7zm17.3 0c-.2 0-.3.2-.3.3v.3h-.4c-.7 0-1 0-1.5-.2h-4.5c-.4.3-.5.4-.5.7v.6l-.3.2c0 1 .2 1.8.5 2.6v.2c0 .6 0 1 .2 1v.2c0 .7.3.8.4 1h.2v2.3c.2.7.3 1.5.2 2.5v.2h-.2l-.3.4v.3h-.2l-.5.4-1 .5h-.3c-.8-.3-1.6-.5-2-1.3-.5-.4-.6-1-.6-1.5v-1.3l-.2-.6c0-.3-.2-.5-.3-.6-.2 0-.5-.3-.7-.6-.2 0-.2-.3-.3-.4h-.3v-.4c0-.7 0-1.3-.2-2l-.3-2c0-.8.2-1.3.4-1.8l.3-.6c0-.2 0-.3.2-.4v-.2s0-.3.2-.4l.2-1c0-.6 0-1-.3-1.3s-.4-1-.3-1.8v-.2h.2l.3-.4v-.2c.3-.3 1-.4 1.3-.4h1.3c.4 0 .6 0 .6.2.3 0 .5 0 .6.3v.3c.2 0 .4 0 .5.2v.2c1.2 0 2 .3 2.7.6.8 0 1.3 0 1.8.2l1 .2h.3l.3.2c0 .2.3.3.6.4l.6.4c.5.2 1 .5 1 1.3.4 1 0 1.2-.3 1.5zm19-3.6c0 .8-.6 1.2-1 1.4 0 0-.2 0-.3.2v.2h-.4c-.7.2-1 0-1.5 0-.2-.2-.5-.3-1-.2-.6 0-1.3.2-2 .5-.7 0-1.2.3-1.7.6 0 .6 0 .6.2.6h.2v.2l.3.5.2.5 1 .5 1 .6h.4v.3c.2 0 .5 0 .6.3.4 0 .6.3.7.5v.2h.2v.2c.5.6 1 1.3 1.2 2 0 1-.2 1.4-.5 1.7-.3.3-.4.5-.4.8v.2c-.2.2-.3.4-.3.8l-.3.4c-.2 0-.3.2-.3.4l-.3.4c-.3 0-.5.2-.8.4-.3.3-.7.5-1.3.6-.3.4-.8.5-1 .5l-.7.3h-.2c0 .2-.3.3-.6.3l-3.4-.3h-.2c-.2-.2-.6-.3-.8-.6-.3 0-.8-.4-1-1-.2-.4-.2-.8 0-1.2v-.5c-.3-.7 0-1 .3-1v-.4h.4c1.3-.3 2 0 2.5.4.5.2 1 .5 1.7.4.3 0 .4 0 .6-.2s.4-.3.7-.3c.2 0 .4-.2.6-.5l-.7-.4c-.2-.3-.4-.5-.7-.6-.7-.5-1.3-1-2-1.2-.5-.7-1-1.2-1.6-1.7h-.2v-.3c0-.4 0-.6-.4-1l-.4-.5v-3.2c0-.2 0-.5.3-.7h.3c0-.2 0-.4.2-.5.2-.2.3-.2.5-.2s.3-.2.4-.3c.2-.4.6-.5 1-.7.4 0 .5-.2.6-.4l.5-.3h.4c.2-.2.4-.4.8-.3.5 0 .7-.2.7-.3l.4-.2c.6 0 1 0 1.4-.2s1-.3 1.5-.3l2 .3c.5 0 .8 0 1 .2v.3c1 .6 1.6 1.2 1.3 2.6zM271 106.6v-.8c-.2-.3-.3-.6-.3-1-.3.4-.7.6-1 .7-.3.2-.4.2-.4.5v.3h-.2l-1 1.2c.3.3.3.6.2 1v.3l.3.5s.3 0 .4.2l.2-.2c.2 0 .4-.3.7-.3 0-.3 0-.5.2-.7v-.2h.3l.2-.2c0-.4 0-.7.2-.8v-.4zm7.7-78c-.2-.4-.5-1-.5-2l-.3-.3h-.5v-.6c-.2 0-.3-.3-.4-.6-.5-.2-.8-.8-1-1.3-.6 0-1.2 0-1.8-.2-.3 0-.6-.2-.7-.3h-2.1c-.6.3-1 .6-1.7.7l-.7.7c0 .6-.5 1-.7 1l-.3 1c0 .5-.2.8-.3 1l-.2.5c0 .3-.3.8-.7 1v2l-.4.8v.3l-.5.8c0 .3-.2.5-.3.7 0 .7-.2 1-.4 1.5-.2.4-.3.6-.2 1l-.3 1c0 .3 0 .5-.3.7l-.3.6v.6c-.4.7-.7 1.4-.8 2 0 .2.2.2.3.3l.7.4c.7 0 1 0 1.4.3.3.2.4.2.8.2h.2c.4 0 .5 0 .8-.3l.8-.5h.2c.2 0 .3 0 .5-.2h1V41h.5c.7 0 1.2-.4 1.7-.7.6-.3 1.3-.7 2.3-1 .5-.6 1-1.3 1.8-1.8.2-.5.6-1 1-1.2V36c.2-.2.4-.7.8-1l.5-1.7c.2-.7.4-1.3.4-2V30c0-.6 0-1-.3-1.3zm151.7-5.2h.7c.2-.5-.4-.4-.3-.8 0-.2.2-.2 0-.4 0-.3-.5-.2-.5-.6 0 0 .2-.2 0-.4 0-.2-.4 0-.5-.4 0-.2.3-.3.3-.6 0-.2-.4-.2-.4-.4s.4-.2.3-.6H428.6V19l.2-.2v-.4-.2s-.2 0 0-.3c-.2-.4.3-.3.2-.7 0 0-.2-.3-.6-.3h-.3v-.4h-.7c-.2 0-.2-.3-.3-.4 0-.2.6-.2.4-.6 0 0-.6-.3 0-.4 0-.3-.5-.2-.5-.5l.4-.2s.2-.2 0-.3h-.6c0-.2-.5 0-.4-.4l.8-.5c0-.5.4-.5.4-.8 0-.3-.2-.5 0-.8-.3 0-.3 0-.4-.2l-.3-.3c.2-.4 0-.5 0-.8l-.3-.3c-.2 0-.2 0-.3-.2 0-.2.4 0 .3-.4v-.2s0 0 0-.3v-.3.2l-.3-.2h-.3s.3-.2.2-.4c-.3 0-.5 0-.6-.2.2 0 .3 0 .4-.3.3 0 .3-.3.3-.6h-.7-.3c-.2 0-.2.2-.5.2v-.2c.3 0 .2-.2.2-.2v-.6h-.3s-.3 0-.3-.2h1s0-.4.3-.4c.2 0 .4-.2.7 0v-.4c-.3 0-.2-.2-.2-.4 0 0-.2 0 0 0-.2 0-.4 0-.4-.2s0-.4-.3-.4l-.3-.4s.2 0 0 0c.2 0 .4 0 .4-.2s.3 0 .4-.2c0-.4.3-.4.6-.6 0-.2 0-.3.2-.3 0-.3.4-.2.3-.5 0-.2-.4 0-.5-.3V2v-.3c0-.3-.2-.4-.2-.5V1h-.5c0-.3.3-.3 0-.6-.2 0-.2-.2-.6 0 0-.3 0-.4-.4-.4h-.3-1.4l-.7-.2h-1.3H417c-.3 0-.2.2-.6 0H415h-.3l-1 .2h-2.3-.8c0-.5-.2-.4-.6-.4h-.2c-1.8.2-3.6.3-5.5.3h-.8-6.4H389.8h-.4l-.6-.2c0 .3-.5 0-.7 0V0h-2.4-.4c0 .2-.2.2-.4.2L384 0h-.3v.4h-.4c-.2 0-.4 0-.6.2h-2.3-.2c-.4 0-.7 0-.8-.2h-.4l-.4.2H374.8h-1c-.5 0-1.4 0-2-.2l-1 .2h-.7v.2h-3.9l-.4-.2H365v.2h-.4c-.3 0-.7-.2-1 .3h-1.4c-.2-.4-.4 0-.4 0h-.8l-.7-.2s-.2-.2 0 .3h-.5c-.2-.4-.5 0-.6 0l-.6-.3H357c-.4 0-.4.2-.7.2-.2 0-.3-.3-.4 0-.4 0-.4-.3-.8-.2h-1-4.2c-.2 0-.3.2-.7 0h-1.8c-.4 0-1 0-1.7.2H342.7h-.5c-.4 0-.4 0-.7.2l-.7-.2h-.6-.3c-.4 0-.5.2-1 0H337c-.2 0-.4.3-.5 0-.4 0-.4 0-.7.2h-.3c0-.2-.2-.2-.4-.2H334.5h-.3H333.2 332.5 331c-.2-.2-.4.2-.5 0h-.7-.3-.3c-.8 0-1.2.3-1.7 0l-.6.2s-.4-.2-.8 0h-1.7c-.5.2-.5 0-1 0H321 316h-.4l-.6-.2c-.4 0-.3.2-.6.2h-1.7c-.2 0-.8.2-.8 0l-.8.2h-3.6c-.5 0-1 0-1.3.2-.2 0-.2-.3-.6-.2h-.7c-.3 0-.2-.2-.6 0h-.2l-.6.2h-1c-.5.2-1.6 0-2 0H298h-.4-.4c-.5.2-.4 0-.7 0h-.6-2.3c-.3 0-.4-.2-.8 0-.4-.2-.6.2-.7 0-.3 0-.2.2-.6 0h-2.1c-.3.2-1 0-1.7 0-.2.3-.8.2-1.3.2h-2.7c-.5 0-1 .2-1.4.3H278.8v-.4h-.2c0 .2-1.2 0-1.3 0H272c-.4.2-.4 0-.8 0-.3 0-.3.2-.7 0-.3 0-.7 0-.8.2-.3-.2-1 0-1.4 0h-1.8s-.2 0 0 0c-.2 0-.4 0-.4-.2h-.6c-.4.2-.4 0-.7 0h-.5l-.6.3h-4c-.2 0-.2-.3-.5-.3-.6.2-1.7 0-2.5 0-.2.2-.8 0-1.3 0 0 0-.2 0 0 0-.3 0-.4 0-.5-.2h-.3s-.3 0-.4.2h-1c-.5 0-1 0-1.3.2l-.3-.2h-1.4c-.4 0-.4.2-.7.2-.5-.2-1.4 0-2 0-.4 0-.6-.2-.8-.3 0 .2-.4.2-.7.2-.4-.2-.4 0-.8 0h-1.4-.3H242.7 235.6c-.5 0-.8 0-1.2.2h-1.6c-.4-.2-.4 0-.8 0h-.8l-.7.2h-5c-.4 0-.6-.3-1-.3h-.3v.2h-.6V2s0 .2-.2.3c0-.2-.5 0-.6 0l-1-.2c-.3 0-.3.6-.7 0H220c-.3 0-.3.3-.6.3h-.8l-.6.2h-.6-6.5c-.2 0-.5 0-.6-.2-1 .2-2 0-3 0l-.7.2H204.2c-.4.2-.4 0-.7 0h-1.2c-.2 0 0 0 0 0-.6.2-.7 0-1 0-.8 0-1.2.2-1.7 0 0 .2-.5 0-.7 0l-.8.2h-.6c-.4-.2-.4 0-.7 0H195.4c-.2 0 0 0 0 0H194h-.3c-.7 0-1-.2-1.4 0-.5-.2-.5 0-1 0H190h-.2H189h-2.1c-.4 0-.4.3-.8.2-.6 0-.7-.3-1-.3h-1.5c-.3 0-.7 0-1.2.2-.3 0-.3-.4-.7-.4h-1s-.3 0-.3.2H177c-1.2 0-2.5.2-3.4 0h-.3c0 .2 0 .2 0 0-.5 0-.5.3-.8.3h-2.7c-.3 0-.2-.4-.6-.3-.3 0-.4.2-.8 0-.4 0-.7 0-.8.2l-.4-.2h-.4l-.6.2h-3c-.3 0-.2-.2-.6-.2-.2 0-.3.2-.6 0 0-.2-.2.2-.5 0H160l-.2.2h-.6l-1.5-.2-.7-.2h-1.3-1c-.3.2-1 0-1.6 0-.2.2-.6.3-1 .3-.4.2-.5 0-1 0-.4 0-.3.3-.7.2h-1.7-.3c-.2 0 0 0 0 0H147 146.2c-.6-.2-1 0-1.6 0h-1.7-3.5c-.3.2-.8 0-1 0H137c-1.2.2-2.4 0-3.6 0h-.7l-1 .2h-5.4-2.1-1c-.5 0-1 0-1.3-.2 0 0-.3 0-.4.2h-2-2.2l-.6.2H115 113.2c-.2 0 0 0 0 0H111h-2.8c-.2 0 0 0 0 0h-3.8c-.3-.2-.5.2-.6 0h-.7-.7-1.2s0-.2-.5 0h-4.1l-.7.2h-1.4-.3s0 .2-.3.2c-.4 0-.4-.2-.8 0-.8 0-1.7-.2-2.2 0h-.3c-.2 0 0 0 0 0-.8-.3-1 0-1.5 0h-2.6c0 .3-.3 0-.8 0-.4.2-1 .2-1.4.3-.4 0-.4-.2-.8 0H82c.2.3-.6 0-.5.2h-.8l-1 .2H79h-.6c0 .2-.2.2-.6.2 0 0-.2 0 0 .2h-.5c0 .4-.3.4-.2.8.5 0 .6.2.7.2h.6c.2.3.5.4.6.7h.6c0 .2.2.2 0 .4.5 0 .5.2.8.2 0 .2.5.2.7.3 0 0-.3 0-.2.4.2 0 .3 0 .3.2h.5c-.2.3.4.5 0 .5 0 .4-.4.3-.3.6.3 0 .3.3.6.3 0 0 .5 0 .4.3-.3 0-.3 0-.3.3-.2.3.2.2.2.4s-.4.2-.3.5c0 .2.3.4.5.7-.4 0-.3 0-.6.2-.2.3 0 .3 0 .6 0 .2-.3.2-.3.5 0 .2.4 0 .3.4h.3V15c.2 0 0 .3 0 .5.7 0 .7.3 1.2.2 0 .2 0 .3.4.3v.2h-.4s-.4 0-.6.2c0 .2 0 .3.3.4 0 .2.4.2.3.5v.2s-.3 0 0 .2c-.2.2-.5.2-.4.6h.3c0 .2.2.2 0 .4.2.5-.2.7-.2 1-.2 0-.2.2-.3.3-.2 0 0 .3-.3.3H82c0 .2 0 .5-.3.5v.2c-.3 0-.2.2-.4.2 0 .3.3.4.6.5 0 .2.7 0 .6.5-.2.2-1 0-.8.4 0 .2.2.2 0 .4l.4.3-.3.4v.2c0 .2.5 0 .4.5l-.3.3v.4c0 .2.2.2 0 .4 0 .2-.3 0-.2.4.2 0 .5.3 0 .3 0 .2.3.3.2.6h-.6c-.2 0 0 .3-.4.3-.2.4.5.3.4.7-.2 0-.2 0-.3.2 0 0 0 .2-.2.3.5 0 .2.5 0 .7.2 0 .3.2.5.3 0 .3.4.2.3.5l.7.8c0 .4.2.7 0 1 .3.2.6.2.7.4.2 0 .4 0 .4.4 0 .2-.3.2-.2.5.2 0 0 .3.2.3v1.2c0 .2-.2 0 0 .4h.2s-.2 0 0 .2c0 .2.2.2.2.5s-.3.3-.3.6c.2 0 .5 0 .6.3 0 0 .3.2.2.4l.4.2.3.3h-.5-.2v.5-1c.2 0 .2 0 .2.2 0 .3.4.2.3.5 0 .3 0 .6-.4.7 0 .3.4.2.3.5 0 0-.2 0 0 .3.2 0 .2.3.3.4 0 .3.4.2.3.5v.8c0 .2 0 .2.3.2 0 .3.3.2.3.4 0 .3.6.2.5.7 0 0-.3 0-.3.2l-.4.2-.3.6c0 .3-.3.2-.3.6s.4.2.3.4h-.7V46.3c-.3 0-.5 0-.5.4s.7.3.7.8c-.2 0-.2.2-.3.3 0 0-.2.2 0 .4-.3 0-.2.3-.4.3 0 0-.3 0-.4.2-.2.3.5.2.3.7H84c0 .2-.3.2-.4.3 0 0 .2.2 0 .2 0 .3.2.4 0 .7l-1.2.2c0 .4.5.2.6.5-.4 0-.3.5 0 .7-.4 0-.5.3-.5.5-.2 0-.5.2-.4.3h.2l.6.2.4.2h.6s.3.2.2.3v.2h-.5c0 .3.2.3 0 .4-.2 0-.3 0-.3.2s.4 0 .3.4l.3.4c-.2 0 0 .3-.3.3-.2 0-.3 0-.3.3s.6.5.8.8c0 0 .2.2 0 .4.2 0 .6 0 .5.3 0 .2 0 .3.2.4 0 .2 0 .3-.2.3 0 .2-.2 0-.2.4v1s-.5.3-.4.6c-.2 0-.4-.2-.4.3h-.3c0 .4-.5 0-.4.4 0 .3.8.2.7.6 0 .3-.3.2-.3.4 0 .3-.2.3 0 .6 0 .2-.6.2-.5.5v.8c0 .2.4.2.3.5 0 .4-.4.5-.3 1-.3 0-.4 0-.4.2 0 .3.5 0 .4.4h.6c0-.2 0-.2.3-.2h1v-.3h1.7c0 .3.3 0 .4 0 .4 0 .4.3.7.3H94l.6-.2.6.2H98c.3 0 0-.4.3-.5.2 0 .2.2.3.3.3 0 .2.3.6.2h3c.3 0 .5 0 .7-.2.3 0 .2.3.6.2h5.7l1.8-.2h2.3l.4.2H115.2s.3 0 .4-.2h.8c.8.2 2.4 0 3.2.2.4 0 1 0 1.5-.2.4 0 .6.3.7 0 .3 0 .4.2.8 0s1 0 1.3 0h4.3c.2 0 .2.2.6.2 0-.2.5 0 .7 0 .3 0 .4-.3.7-.3h2.6c.6.2.8 0 1.2 0h6.1c-.2.2.7-.2.6 0 .6 0 .4-.3 1-.3h1.1l.4.4c.5 0 .4-.2 1 0 .3-.2.4 0 .7 0 .3 0 .2-.3.6-.2h1.4c1-.2 2.2.2 3.5 0h2.5c.5 0 1.3.2 1.7 0 .3 0 .3.3.7.2l1-.2H162c.4 0 .6-.2.8-.3l.7.2c0-.2.7-.2.6 0 .3 0 .2-.3.7-.2h3.1c.2 0 0-.3.5-.2.4 0 .3.3.7.3h2c.4 0 .3-.2.6-.2 0 .2.3.2.6.2h1.3c.2 0 0 .3.5.2 0-.2.4-.2.7-.2.3 0 .4 0 .7-.2 0 0 .3 0 .5.2 0 0 .2 0 .3-.2h.4c0 .2.7 0 .7.3h.3c.2 0 0 0 0 0H181.6c.2 0 .3 0 .4-.2.3 0 .3.2.7 0h1.3l.3-.2c0 .2.4.2.7.2h.5s.2 0 .3-.2h.4c0-.2.2-.2.3-.3l.4-.2.2.2h.6s.3.2.7.2h1c.4 0 .2-.5.7-.4.3 0 0 .4.4.2 0 .3.7 0 .6.2.4 0 .3.3.7.2h.3c0-.2.2-.2.4-.2h.7c.2.2.4.2.6.2h.7c.5.4.3-.3.8-.3.3 0 .3.4.7.3h1.4c0 .2.2.2.4.2h.7c.2 0 .2-.3.4-.3h.9c.2 0 .2.2.6 0h1.3l1.7.2.7-.3c0 .2.2.2.4.2h.6l1 .2h.4l.4-.3c0 .2.2.2.4.2h.6l.8.2s.2 0 .3-.2H210.6c.8 0 1.5 0 2 .2h.8c.3 0 .3.2.7 0 .3 0 .2-.2.6 0l1.8-.3c.4 0 .6.3 1 .3H221.5c.3 0 .6 0 .8-.2.3.2.8.2 1.3.3h.3s.2 0 .2-.2H225.4v.2h.4c.3 0 .3-.2.7-.2 0 .2.5 0 .7 0l.8.2c.3-.2.7 0 1.3 0h3.9l2.3-.2.7.2H238.2l1-.2h1.6l.4.2h.6s.2-.4.6-.3c.6 0 .8-.3 1.3-.3 1.3.4 3 0 4.5.3.4 0 .4 0 .7-.2h.5c0 .3.4.2.4.3h1c.2 0 .2 0 .3-.2.2 0 0-.2.3-.2 0 .2.5 0 .7 0 .2.2.5.2.8.2h.5c0-.2.3-.2.4-.3h1.2c.3 0 .3-.3.7-.2.3 0 0 .5.6.4 0-.2.4 0 .4-.2h4.5s.4.2.5 0c0 .2.3.3.6.3.5 0 .3-.3.8-.3 0 0 .2 0 .3.2h9.4c.4 0 .4.2.7.2l.6-.2s.5.2 1 0c.5 0 .4-.3 1-.2.4 0 1 0 1.4.2H279c0-.2.8.2.7 0l.8-.2h.4l.4.2c.4 0 .6.2 1 0h1c.5-.2.7 0 .8 0h1.7c.2 0 .4 0 .6-.2h.6c.4 0 .8.2 1.3 0 0 .2 0 .2.2.2h2.8c.3 0 .3-.4.7-.4 0 0 .2 0 0 0 0 .2.2.2.4.2h.7c.5.2.6 0 1 0 .6 0 .6.2 1 .2 1.2 0 2.6-.3 3.8 0h2v-.2h1.4V63c.4 0 1-.2 1.3 0h.6c.3 0 .2-.3.5-.3 0 0 .2 0 .3.2.2 0 .2-.2.3 0h.8c.3 0 .3-.2.7 0h3.7c.4-.2.4 0 .7 0h4.6l.6-.2h.4l.4.2h1l1-.2h3.3l1 .2c.3-.2 1 0 1.7 0 .2 0 .3-.3.6-.3h3.2c.3 0 .2.2.6 0h1.2c0 .2.2.2.4.2.7-.2 1.2-.3 2.2-.3.3 0 .3.2.7 0 0 0 .4.2.6 0h.2c.5.2.7 0 1 0 .3.2 1 0 1.4 0 .4.2.3-.2.7 0H341c.3 0 .3.2.5.2h2.8c.3 0 .4-.4.7-.3h.8c.4 0 .3.2.7.2h1c.6-.6 1.5-.5 2.3-.6h1.4l.8.2c.3 0 .3-.2.7 0h2.8c.2 0 .2-.3.4-.3h4.2l.4.2H362.5l.8-.2h2.7c.7.3 1.3 0 1.8 0l.7.2h1.6l.7-.2h3.8c.2-.2.5 0 .7 0h6.5c.3 0 .4-.2.8 0 .4-.2.4 0 .8 0h.8c.3 0 .3-.4.7-.4h.3c0 .2.3.3.6.3.6 0 1 0 1.5-.2l.6.2c.3 0 .4-.4.5 0 .2 0 .2-.2.2-.2h.4s.5.4.5-.2h.7c.4 0 .3.3.6.3.4 0 .4.3.8.3l.8-.2c.6.2.8 0 1.3 0l.4.2h2.6c.3 0 .7 0 1-.2.4 0 .5.3 1 .3h1.5c.4 0 .3-.3.5-.3s0 .3.4.2l.2-.2s-.2-.2 0-.2h1.6s.3 0 .7 0h.5c.3 0 0 .3.6.2.5 0 .2-.4.7-.3 0 .2.5 0 .7 0 0 .2-.2.2 0 .3 0 0 .2 0 0 0 .2 0 .4 0 .4.2.4 0 1 0 1.4-.2h1.7c.6.2 1 0 1.4 0h2.6c.4 0 .4 0 .7-.2h1s.2 0 0-.3v-.3-.7c.2 0 0-.3.3-.3 0-.2.4 0 .4-.3.3 0 .2-.3.5-.3s.2-.3.4-.3h.5c0 .2.3.2.4 0 0-.4-1 0-1-.5h.4s.2 0 0 0v-.3-.4c-.4 0 .2-.2 0-.4-.4-.3-.8-.5-1-1h.3c0-.2.2-.2 0-.4.5 0 .4-.3.4-.6v-.2h-.4v-.4h-.3c0-.5.2-.6 0-1 0 0-.3 0-.2-.3v-.5s.2 0 0 0V53c.3 0 .4 0 .3-.3.3 0 .5 0 .6-.2 0 0 .3 0 .5-.2 0-.2-.3-.2 0-.5l.2-.2v-.2-.3-.5-.2h-.3c-.2-.2-.4-.2-.4-.5 0-.2.4-.2.6-.3 0-.3-.4-.2-.3-.5-.2 0-.2-.2 0-.3l-.2-.3c.2-.2.6-.2.7-.5-.4-.2 0-.5 0-.6.4 0 1 .2 1 0 0 0 0-.2-.2-.2h-.4c0-.4.4-.3.4-.5v-.2c.3 0 .2-.2.4-.2V46h.2v-.3c.3 0 .2-.2.4-.2 0-.2-.2-.2 0-.4.2 0 .3-.2.3-.4.3 0 .5-.2.7-.3 0 0 .2 0 .3-.2h.3v-.4-.5c.5 0 .8 0 1-.4.5 0 .6-.4 1-.5 0-.4.4-.4.3-.8.2 0 .6-.2.6-.5-.2-.4 0-.4 0-.8 0-.2 0-.4-.3-.6h-.2V39c-.4 0-.6 0-.6-.4.4 0 0-.4.6-.3 0-.4-.2-.8 0-1.3 0-.2-.6 0-.5-.4 0-.3.3-.2.2-.5h-1c0-.3.3-.3.2-.7h-.6c.2 0 .3-.2.3-.4s.4-.2.5-.3c0-.4.2-.4 0-.8.5 0 0-.7.4-.8.2 0 .4.3.5 0h.6c.6 0 .6-.6 1.4-.5 0-.2-.2-.3-.6-.3 0-.2-.5-.2-.4-.5.2-.3.5-.4.6-.7l.4-.2h.4c0-.4-.2-.5-.3-.7.2 0 0-.2.3-.2 0 0 .2 0 0-.2.2-.2 0-.2 0-.5 0 0 .2 0 .2-.2v-.3s.4 0 .4-.4c.4 0 .5 0 .5-.4l.6-.2c0-.2-.2-.3 0-.6h.5s.3-.4.6-.4v-.5V28s0 .2.4 0h.5c0-.7-1-.5-.7-1h-.7v-.5h-.4c-.2 0-.2-.3 0-.4 0-.2.6 0 1-.2 0 0 0-.2.2-.2 0 0 .2 0 .3-.2 0-.4.3-.6.2-1h1c0-.3 0-.3-.3-.4 0-.2-.7 0-.5-.3.8 0 1 0 1-.3zM153.2 20h-1.4l-.3.3c-.3.2-.7.5-1.5.5h-11.5c-.2 0-.4.2-.6.4l-1.4.7c-.3.6-.6 1.3-.7 2l-.2.6h-.2v1.5l-.3.2v1.4h-.3c0 .4-.2.6-.3.7 0 .4 0 .7-.2 1v.5l-.2.3c0 .2-.2.4 0 1l-.4.7c0 .3-.2.6-.4.7 0 1.3-.2 2.2-.6 3 0 .6-.2 1-.3 1.6l-.2 1c0 .7 0 1.3-.3 1.8l-.2 1v.6h-.3l-.2.8h-.3c0 .3 0 .6-.4 1 0 1-.3 2-.6 3-.2.8-.5 1.5-.5 2.4v.6h-.3v1l-.2.2s-.2.3 0 .8l-.4.8c0 .3-.2.6-.3.7 0 .4 0 .7-.2 1l-1 .7-.8.4v.3l-.8.2c-1.7 0-3-.7-3.8-1.3l-.3-.2v-.2c-.5-1-.7-2-.7-3.4V50l.2-.7.3-1.5V47c.2-.7.4-1.2.2-2l.3-1 .3-.7c0-.3 0-.7.3-1 0-1 .2-1.5.4-2V40c0-.7.3-1 .5-1.4.2-.3.2-.4.2-.8l.3-1c0-.3.2-.5.3-.7 0-.2.2-.4.3-.5 0-.5 0-.8.2-1v-.2l.4-.8s0-.3.2-.4v-2c.2-.3.2-.6.2-1v-.7h.3c-.2-.4-.2-.8 0-1v-.5c.2-.4.3-.7.5-.8 0-.5.3-1 .5-1.2 0-.4 0-.8.2-1v-.2c0-.6.3-1 .4-1.4l.2-.6c-.3.2-1 .4-1.7.3h-.8c-.4.3-1 .5-1.7.4-1.7 0-3 .4-4.6.8l-.7.2c-1 .2-1.8.5-2.7 1l-1.8.5c-.6.4-1.5.4-2.3.4h-.4c0 .2-.4.2-.5.2-.3 0-.4 0-.6-.2h-.5c-.2-.2-.3-.3-.5-.3l-1-.7v-.5c-.3-.2-.5-.5-.6-1v-.3-.4c-.2-.4-.3-1 0-1.4h.2v-1c.3-.4.6-.6.8-.6 0-.3.2-.6.5-.8l.4-.2c0-.2.2-.2.3-.3h.7c0-.2.3-.4.7-.4h1c.3 0 .5-.2.6-.3l.8-.5c.6 0 1 0 1.4-.3.3 0 .6-.3 1-.4l.8-.4c.3-.2.6-.4 1-.4H118.2c0-.2.3-.3.6-.4h.2l7-.4 4-.7 1-.2.2-.2s.4-.5.8-.7l.4-.3v-.5h2.7c.3-.2.5-.2.7-.2.7 0 1 .4 1.3.6h1v.7l.4.2 3-.2 4.7.7c.8 0 1.5.2 2 .3.7 0 1 .2 1.3.3v.2h.5c1 0 1.5.3 2 .8h.5c.7.2 2.2.5 2 2.2v.7h-.2v.6l-.8.4zm35.5 12v.6c-.2.3-.4.4-.6.5v1l-.3.8v.2h-1.1c0 .7 0 1-.2 1.4 0 .3-.2.4 0 .8v.7c0 .6 0 1.4-.3 2v2.3c-.2.7-.3 1.3-.2 2s-.2 1.4-.4 1.7c-.2.2-.2.3-.2.5v.8h-.3v.6c0 .2 0 .4-.2.5v.3c-.4.7-1 1.2-1.3 1.5 0 .2 0 .3-.2.5 0 0-.3.3-.6.3 0 .3-.3.4-.4.4h-1l-1-.2h-.2l-.6-.2v-.2h-.2V50h-.2l-.6-1c0-.7-.2-1-.5-1.6l-.4-.6v-.4c.2-.7.2-1.7.2-2.6 0-1 0-2 .2-3 .3-1.2.2-3 0-5l-.6-.4H176c-.8 0-1.4.2-2 .4l-.6.2-3.3.2c-.3.4-1 .4-1.2.4h-1c0 .2-.3.3-.5.3-.6.3-.5.3-.5.5v.2c0 .4-.3.7-.4 1l-.2.6-.4.8c0 .3-.2.6-.5.7v.2l-.5.7-.2.6v.2c-.2.2-.3.3-.3.5 0 .6 0 1-.3 1.2 0 .4-.2 1-.6 1.3 0 .3-.2.5-.3.7 0 .4 0 .8-.2 1 0 .7-.5 1-.7 1v.6l-.8.3c-.6.3-1.3.5-2.2.5-.4.3-1 .3-1.3.4H156.5v-.4h-1v-.4c-.3-.3-.5-.6-.6-1l-.7-1V47c-.3-1 0-2 0-2.7V44c0-.6.3-1 .4-1.4l.2-1v-.4c.2 0 .2-.4.3-.6 0-.4.2-1 .5-1.3l-.4-.7c-.4-.6-1-1.4-.7-2.7-.2-1.3.4-2 1-2.3 0-.6.4-1 .6-1l.5-1 .5-.4.4-.3c.2-.4.6-.6.8-.6V30l.5-.2c.2-.2.4-.4 1-.4l.8-.4c0-.2.3-.4.6-.6 0-.3.3-.6.4-1 .3-.5.5-1 .6-1.6v-.4c.2 0 .2-.4.3-.6 0-.3 0-.6.3-1 0-.5.2-1 .5-1.4 0-1 0-1.6.3-2 .2-.6.3-1 .2-1.4v-.2c0-.3 0-.7.2-1.2 0-1 .2-2 .8-2.6l.3-.4h.5c.3-.4.7-.8 1.5-.8h3l1-.4.2-.2c.3-.5 1-.7 1.3-.8h.3l.2-.4h.5c.4-.2.7-.2 1-.2.8 0 1.4.2 2 .3.3.2.7.4 1.2.4h.7v.5c.6 0 1 .3 1 .6.2 0 .3 0 .5.2s.4.2.6.2h.2l.2.3.5 1 .3.4.5.8.3.4.3.3h.5v.6l.7 1.5.2.4c.2.3.4.6.4 1l.4.8c0 1.2.2 2 .5 3 .3.8.6 1.8.5 3 0 .3 0 .4 1 .5h.5l.2.4c0 .2 0 .3.3.5.3.3.6.7.8 1.3l.2.4h-.2c0 .3 0 .7-.3 1zm58-17.2c0 .5 0 1-.3 1.5 0 .3 0 .7-.3 1 0 .4 0 .8-.3 1 0 .4 0 .6-.2.7 0 .3 0 .6-.2 1 0 0 0 .2-.2.3 0 .2 0 .3-.2.4v.6c0 .2-.2.4-.3.4v1.1h-.3l-.2.8h-.3v1.2l-.6.2s-.3.2-.3 1v.4l-.4.2-.2.3c0 .2-.2.6-.7 1 0 .5-.4 1.3-1 1.7l-.5 1c0 .3 0 .7-.3 1 0 .3-.2.5-.3.6v.6h-.4c0 .2-.2.4-.5.6l-.5 1.2c-.3.7-.7 1.4-.8 2.2v.4l-.5.2s-.2 0 0 .3v.4l-.5.2s-.2 0-.3.2v.5h-.4c0 .3-.2.6-.5.7 0 .2-.2.4-.4.5 0 1-1 1.2-1.3 1.4 0 .6-.4 1-.7 1l-.2.3v.6h-.6c-.4 0-.6.2-1 .3-.4.2-1 .5-1.8.5l-.6.3v.5l-3 .2-.2-.4c-.2 0-.5-.2-.7-.5h-.2l-1-1s-.6-.4-.7-1c-.2-.2-.5-.5-.6-1v-.3h-.4v-1h-.5V40l-.2-.2v-.5l-.7-1.6v-.2c-.3-.3-.6-.7-.6-1.4h-.3v-.5l-.7-2c-.2-.6-.5-1.2-.6-2l-.4-.6-.7-1.4c-.5-.3-.7-.8-1-1.2V28l-.6-.7c0-1-.5-1.2-.6-1.3l-.5-.2v-.4c-.2 0-.4-.2-.6-.5l-.2.4c0 .4 0 1-.4 1.3 0 1.2-.2 2-.5 2.8l-.3.4v1c0 .7-.2 1.4-.5 2l-.4 2v1l-.4.5c0 .5 0 .8-.3 1 0 .3.2 1-.2 1.4 0 .5-.2 1-.4 1.3-.2.4-.3.6-.2 1v.3l.8.4c-.3.8-.4 1.7-.6 2.6-.2 1-.4 2.3-.8 3.3h-.2c-.5.7-1 .7-1.6.7h-.5v.2c-.4 0-1 .4-2 .3h-.5c-.5 0-1 0-1.4-.2-1 0-1.5-.3-1.8-.8-.4-.4-.6-1-.6-1.8V46c0-.4 0-1.2.4-1.6.2-.8.2-1.6 0-2.4l.4-.8c0-.4.2-.6.3-.8l.4-.6c0-.5.2-1 .3-1 0-.4 0-1 .3-1.4 0-.7.2-1.2.4-1.7 0 0 0-.3.2-.4 0-.7.2-1 .4-1.4l.2-.6v-.2l.3-1.2c.3-1 .5-2.2.5-3.4V28l.3-.2c0-.3.2-.6.3-.8 0-.3 0-.7.3-1-.2-.6 0-1 0-1.5.2-.2.2-.4.2-.6v-1.4c-.6-.2-1.3-.7-1.2-2v-.8h.6c0-.2.4-.6 1-.8l.4-.7c0-.8.6-1.2 1-1.4l.2-.5V16h.6c.2 0 .5-.2.8 0h.2l.5-.5h1.2c0-.3.4-.4.5-.4.7 0 1.2 0 1.5.3h.8c.6 0 1 .2 1.5.6l.2.2c.2 0 .7.2 1 .6.7.2 1.4.5 1.8 1.2l1 .7c0 .2.2.4.4.4l.6 1 .3.5c.3 0 .4 0 .5.2l.8.8c0 .2 0 .3.2.5s.4.5.5 1c0 .3 0 .4.2.7.2.2.4.5.5 1l.2.3.4 1c.4 0 .6.5.6.8l.5 1c0 .8.2 1.2.5 1.8l.2.3c.5 1 .8 1.8 1 2.8l.3 1 .6 1c.3.2.4.5.5.7h.3v.4h.3c.2 0 .4 0 .4-.2v-.6h.5V35c0-.3 0-1 .6-1.2l.3-.7c0-.5.3-1.2 1-1.7 0-.6.3-1 .6-1l.3-1c0-.2 0-.5.4-.6.2-.8.6-1 1-1.4V27l.7-.6c0-.2.2-.5.5-.7 0-.5.3-.8.4-1v-.4l.2-.4.3-.3h.2c0-.5 0-1 .3-1 0-.6.3-1 .4-1.2l.2-.4v-.5h.3c0-.4 0-.6.2-.7 0-.5 0-.8.2-1 0-.3.2-.4 0-.8 0-.7.2-1 .3-1.3 0-.4 0-.8.3-1 0-1.2.3-2 .6-2.6 0-.2.3-.4.3-.7V12l.5-.2c.6 0 1-.4 1.6-.6l.5-.2h.2c1.4 0 2.7.4 3.8 1h.5v.5h.4v.7l.2.6c.5.2.3.7.2 1zm40.4 14.8V31c0 1-.2 2 0 3.3l-.3.8v1h-.2v1h-.2v1.2h-.4l-.2.6h-.2c0 .3-.2.6-.5.7l-.6.8v.3l-.4.7c-.3.6-.7 1-1 1.4l-1 1v.4l-.3.2c-.2.2-.5.4-1 .4-.2.4-.5.5-.8.6h-.2l-.2.3c-.2.3-.5.4-.8.5l-.2.3c-.2.3-.5.4-.8.5l-1 .5h-.2c-.3.2-.6.5-1 .5-.2 0-.4 0-.5.2l-.8.5h-.2c-.2.2-.4.4-.8.4h-.5l-1 .6c-1 0-2 .3-2.8.5l-1.4.5h-.4c-.4 0-.7-.2-1-.3-.3 0-.7 0-1-.3h-.5c-.4 0-1 0-1.4-.4-.6 0-1.2-.3-1.6-.4-.6-.2-1-.4-1.8-.4h-1v-.5c-.5 0-.8-.4-1-.7-.3 0-.4-.3-.5-.5h-1.3c-.5 0-.7-.3-1-.5-.4-.3-.6-.8-.7-1h-.3l-.2-.6v-1l-.5-.6V43l.2-.7c0-.5 0-1 .3-1.5 0-.3 0-.8.3-1 0-.6.3-1 .4-1l.2-.6V38c0-.4.2-.7.3-1 .2-.2.3-.4.2-.8l.3-1s0-.2.3-.4l.4-.6c0-.5.2-.8.4-1 .2-.3.3-.5.2-1l.5-.8c.2 0 .4-.3.5-1V30l.3-.6c0-.4.3-.8.6-1.2 0-1.2.3-2.3.7-3.5 0-.8.4-1.3.6-1.4V23c0-.4.2-.7.4-1l.2-.5.3-2c.3-2 .7-3.7 1.3-5.3.2-.7.7-1.2 1.4-1.5l3.6-.3v.4c.3 0 .6.2.7.5.2 0 .3.3.4.7.3.2.4.5.5.7l3-.3h1.7c.6 0 1 .3 1.4.5h.7l1 .4h1v.2h.4l.7.6h.3c.3.2.8.4 1 1 .4 0 .7.3.8.5l.3.2 1 .8c.2 0 .7.4.8 1 .4.3.5.7.6 1l.5.8c0 .2.2.3.3.5l.5 1c.2 0 .4.3.4.8l.4.8c0 1.5.3 2.5.6 3.6l.3 1 .6.4zm54-12.3c0 .5-.2.8-.3 1v.2l-.4.8s0 .3-.2.4c0 .6-.4 1-1 1.2h-.2l-.6.4h-1c-.8 0-1.4-.2-2-.4l-1-.4h-2c-1.3 0-2.6 0-3.8-.2h-1.9c-.4.2-1 .5-1.5.4h-.2v.6H323c-.3.2-.6.2-.8.2-.7 0-1.2-.2-1.7-.3l-1-.2c-.3 0-.5.2-.8.3-.4 0-.8.3-1.5.3-.4.3-1 .3-1.3.3h-.6l-.6.2h-.2v.6h-.4c0 .3-.2.6-.5.8v1.7l-.3.6c0 .3 0 1-.2 1.5 0 .5-.2.8-.3 1h-.2 2c.6 0 1.2 0 1.6.2h2.7c.4 0 1 0 1.3.3h1.6c.4 0 .7 0 1 .3.7 0 1.4 0 2.2.2 2.4.2 4.8.4 7.5.3h.2c.2 0 .5 0 .8.2.5 0 1 .2 1.6.4h1.5l1.5-.2c.8 0 1.4 0 2 .4l.2.2v.4c.4 1.7-.3 3-1.8 3.6-.8.6-2 .6-3 .6h-1.5c-.4 0-.6.3-1 .4-.3.2-1 .5-1.7.5h-.5c-.7 0-1 .2-1.7.3l-.6.2h-.2l-2.5-.2c-1.2 0-2.2.2-3 .4l-.6.2c-.6 0-1-.2-1.3-.4l-.6-.2c-.3 0-.6 0-.8.2-.4.2-1 .4-2 .3h-.6v-.2h-1.6c-.8.3-1.4 0-2 0-.2 0-.4-.2-.8 0h-.2c-.5-.2-.8 0-1.3 0-.2.2-.5.3-.8.3-.2.2-.3.4-.4 1 0 .6 0 1-.2 1v.3c0 .4 0 .7-.2 1 0 .5-.5.8-.7 1l-.2 1v.7h.6c.4 0 .7 0 1 .2l5.5-.3c.3 0 .4 0 .7-.3.3-.2.8-.4 1.7-.3h.4c.4 0 1 0 1.3-.2l.3-.2h.3c.7-.2 1.2 0 1.6 0 .3.2.5.3.8.2 1.5-.5 3.5-.6 5.5-.6h.8v.3H330.3l.5.2h.3l.3.2h.3c.4.2 1.5.6 1.4 1.8.4 1.4-.7 2-1 2h-.3c-.6.7-1.5.7-2.4.7-.3.4-.5.8-1 1-.4 0-.7.2-1 .3-.3 0-.6 0-.7.2l-.2.2h-.5v.4l-5.5.4-1.4.4-2 .7-.2.2h-1-.3-1.1v.2c-.3 0-.7.4-1.3.3h-2c-1.2 0-2.6.2-3.4.6h-.4c-1.5-.2-2.4 0-3.8 0l-1.2.2h-.4l-.2-.2h-.4c-.4-.2-1.2-.3-1.5-1-.3 0-.6-.3-.8-.6-.2 0-.3-.3-.3-.4l-.6-1c0-.2 0-.5.2-.8 0-.4.2-.7 0-1.3 0-1 .3-1.4.5-1.8.3-.2.3-.3.3-.5v-.5c.6-1.2 1-2.3 1.2-3.8v-.7h.3l.2-.8h.2l.3-.2s0-.3.3-.4c0-.6.2-1 .4-1.4l.2-.4c0-.8 0-1.2-.4-1.7-.3-.8-.6-1.5-.5-2.7v-.6h.3c0-.6.3-1 .5-1 .2-.5.6-.8 1-1l.7-.7.4-.4c0-.7.2-1 .4-1.4V27c0-.7.2-1 .3-1.4h.2c-.2-.8 0-1.2.2-1.4 0-.5 0-.8.3-1 0-.5.2-.7.3-1V21.6l.2-.3s0-.4.2-.6c0-.3 0-.6.3-1 0-.5.2-1 .6-1.4 0-.7.4-1 .7-1.2l.4-1c.3 0 .4-.2.5-.5l.7-.5h.2c0-.2.4-.5 1-.5l.5-.2 14.7-1c1-.4 2-.5 3.2-.6 1.5-.2 3-.3 4-.8l.2-.2c.8-.2 1.4 0 1.8 0 .2.2.4.2.6.2h.4c1-.2 1.6 0 2 .4.2.2.3.2.5.2l.8 1s.2 0 .3.3c.2 0 .3.2.4.3l.5 1v.5c-.2.2 0 .7 0 1.5zm58 5.8c.2.8 0 1.2-.2 1.5s0 .2 0 .3c0 .2.4.6.3 1.2v1c-.2.3-.3.6-.2 1.2 0 .6 0 1-.2 1.2 0 .4 0 1-.2 1.4V33c-.2.7-.3 1.3-.2 2v.5c-.5 2.2-1 4-.7 6.5.3 1-.4 1.5-.6 1.6l-.4.8c0 .3 0 .6-.2 1 0 .5-.3 1-.4 1.2v.2c0 .3 0 .8-.3 1 0 .2-.2.3-.4.4l-1 .6c-.2 0-.3 0-.5.2-.3.2-.8.4-1.6.3h-1.6l-.4-.2h-.5l-.3-.3-1.6-3v-.3c-.3-1 0-1.7.2-2.3.2-.4.3-.8.2-1.4V41c.4-1 .7-1.8.5-3 0-.7.2-1.2.4-1.5.3-.3.3-.4.3-.7v-.2c0-.8.3-1.5.5-2V31c0-.7 0-1.3.3-2 .4-1.4.6-2.7.7-4l-.7.3c0 .2 0 .3-.2.4v.4l-.4.3c-.4.3-.8.6-1 1l-.2.5h-.2c0 .4-.2 1-.7 1.3-.3.7-.7 1-1.3 1.5v.2c-.2.4-.4 1-1 1.3-.3.5-.6 1-1 1.2-.2 1-1 1.3-1.3 1.5v.2c-.2.3-.4 1-1 1.2-.2.5-.6.8-.8 1l-.3.2v.4l-.4.2c-.4.3-.8.6-1 1v.3c-.3.4-.7 1.2-1.6 1.3l-.3.2v.4h-.4c0 .3-.2.5-.4.7l-.6.6v.4l-.6.7v.4l-.4.3s-.2 0-.3.2v.4h-.4c0 .2-.2.2-.3.3l-.7.7-.8.4c-1.3 0-2 .3-3 .8h-.2c-.3.2-.6.2-1 .2-.6 0-1-.2-1.5-.4l-.8-.2-.7-.6c0-.2 0-.4-.2-.6 0-.4-.3-1-.2-1.7-.2-.4-.4-.7-.4-1.3l-.4-1c0-.4-.2-.7 0-1v-.8l-.2-1.2v-1c-.4-.6-.4-1.4-.5-2.2V35 34c-.2-.3-.4-.6-.4-1-.2-.7 0-1.2 0-1.5.2-.4.3-.7.2-1.2V30v-.6c-.2-.3-.4-.6-.4-1l-.2-3.3s-.3-.2-.4-.6v-.7-.4h-.2l-.3.4c0 .6-.5 1-.7 1l-.6.8c-.2 0-.3.2-.5.7-.3.4-.6 1-1 1.3l-.6.6-.4 1c-.2 0-.4.3-.5.5 0 .6-.4 1-.6 1v.4c-.3.4-.6 1-1 1.2 0 .6-.2 1-.3 1.4l-.2 1c0 .5-.3.8-.5 1l-.2.6h-.3c0 .2 0 .4-.3.6 0 1-.2 1.8-.4 2.5l-.4 2.2c0 2-.8 3.2-1.5 4.4l-.4.4h-.4c-.4 0-.7 0-1 .2-.7.2-1.5.4-2.5.3l-.7-.2v-.2h-1c-.5 0-.7-.3-1-.5l-.7-.8v-2.7c0-1.4 0-3 .4-4.2 0-1 .3-1.5.8-2 0-.2 0-.5.4-.8 0-.8 0-1.3.2-1.8l.2-1V32h.3v-1.4h.3c0-.5.2-.7.3-1 0-.7.3-1.2.6-1.7 0-.3 0-.5.2-.8 0-.6.2-1 .3-1.4.2-.4.3-.7.2-1.2v-.2c0-1 .5-2 1-2.8-.2-.6 0-1 0-1.2l.2-.2v-.4l.5-1c0-.4.3-.7.6-1 .2-.5.5-1 1-1.2.3-.7 1-1.4 2.3-1.7 2-.2 3 .8 3.5 1.7 0-.2.3-.4.4-.6l.6-.8c0-.4.3-.6.5-.8 0-.3.3-.6.7-.8 0-.2.3-.3.4-.3V13l.6-.3.4-.2c.3-.2.7-.6 1.5-.6 1-.2 1.8 0 2.4.3.2 0 .4 0 .5.2h.2l.2.3c.4.6 1 1 1.5 1.4l.2.2v.3l.7 2c0 .7.3 1.3.5 2v.2c0 1 .2 1.7.5 2.5 0 .4.3 1 .4 1.3l.2 4.5c0 .6.3 1.2.4 1.7.5 2 1 4 1 6.5h.5V35c.2-.2.4-.5.8-.7 0-.2 0-.4.3-.6l.2-.4c.2 0 .2-.3.4-.5l.2-.2.3-.4.5-.4s0-.3.2-.4l.3-.3.3-.4h.2c0-.2 0-.4.3-.5l.2-.3.3-.4h.2c0-.2.3-.4.5-.6 0-.2.2-.4.4-.5l.6-.8c.2-.5.6-1.2 1.4-1.4 0-.4.3-1 .8-1.3.2-.4.4-.6.6-.7l.2-.2v-.2c.2-.7.7-1.2 1-1.5.6-.4.8-.6.8-1V21l.3-.2c.8-.6 1.5-1.4 2-2.3l.2-.2c.4-.2.6-.5 1-1 0-.4.4-1 1-1.3 0-.7.3-1 .5-1.4l.2-.4c0-.6.2-1 .4-1.3.3 0 .3-.2.3-.4V12l.3-.2 1-.7c.2 0 .4-.3.7-.5 0-.2.3-.4.5-.4V10l.6-.2c.7-.2 1.3 0 1.6.2h.4l1 .6s0 .2.4.4c.3.2 1 .6 1 1.4.3.2.4.5.4.7h.4V14.2h.4V16c0 1 0 2.3.4 3v.7c.5 1 .5 2 .6 3.4zm-221 3.2s-1-1-1-1.3v-1c-.2-.3-.3-.7-.3-1-.2 0-.2-.3-.3-.4l-.4-.7v-.5c-.6-.2-.7-.7-.8-1l-1 .6v.2l-.3.4-.5.6c0 .2-.2.4-.4.5v.2c0 .2-.3.7-.7 1 0 1-.4 1.6-.6 2.2l-.5 1.5c1 .2 2.6 0 4 0 .8-.2 1.6-.2 2.3-.2 0 0 .4-.5.6-.5v-.8z" /></g></svg>
