<svg xmlns="http://www.w3.org/2000/svg" viewBox="0 0 637.95752 235.82875"><defs><clipPath id="a"><path d="M0 188.7h510.4V0H0v188.7z"/></clipPath></defs><g clip-path="url(#a)" transform="matrix(1.25 0 0 -1.25 0 235.83)"><path d="M464.2 159.7v.9c-.6 1.2-.6 3-.7 4.5a39 39 0 0 1 0 1.5v1h-.6v.3c0 .2 0 .5-.2.7v1h-.6c0 .3-.2.7-.5 1-.2 1-1 1.6-1.5 2-.4.2-.5.3-.6.5l-1.4.7h-.6c-.5.4-1.3.7-2.4.4l-.8-.2v-.5a1.8 1.8 0 0 1-.7-.6l-1.2-1-1.4-1-.5-.3v-.7c.2-.3 0-.4 0-.7-.4-.4-.8-1-.7-2a5 5 0 0 0-.4-.5c-.3-.5-.8-1-1-2-.6-.6-1-1.3-1.4-2-.4-.6-.6-1-1-1.2l-.4-.2-.2-.2a12.5 12.5 0 0 0-3-3.3l-.5-.3v-.6c0-.6-.5-1-1-1.6-.7-.5-1.5-1-1.8-2.2v-.2l-.3-.2c-.4-.3-.8-.6-1-1-.8-.5-1-1.4-1.2-1.8-1.2-.4-1.7-1.3-2-2-.4-.2-.6-.6-.7-1a2.5 2.5 0 0 1-.5-1c-.5 0-.7-.4-.8-.7h-.4l-.3-.5-.5-.5a2 2 0 0 1-.3-.7h-.3l-.4-.4v-.2l-.5-.4a1.2 1.2 0 0 1-.2-.6 2 2 0 0 1-.6-.4l-.5-.5v-.3l-.4-.3a2 2 0 0 1-.4-.7h-.3l-.4-.4-.4-.8c-.7-.3-1-.8-1.2-1l-.2-.4a1.5 1.5 0 0 1-.6 0c0 3.5-.8 6.4-1.5 9.2l-.6 2.5-.4 6.3v.2l-.6 2c-.3 1-.7 2.2-.7 3.7v.2l-1 3-.8 2.8-.2.5-.4.2a5.8 5.8 0 0 0-2.3 2l-.2.3h-.4c0 .2-.4.3-.6.4-1 .3-2 .7-3.7.5-1 0-1.7-.6-2-1l-.6-.2-.8-.3v-.5l-.6-.4c-.5-.3-.8-.8-1-1.2a1.7 1.7 0 0 1-.7-1c-.5-.5-.7-1-1-1.4a3.3 3.3 0 0 0-.4-.8c-1 1.4-2.3 2.8-5 2.7-2-.5-3-1.6-3.6-2.5a2.4 2.4 0 0 1-1.2-1.7 2.4 2.4 0 0 1-1-1.6c-.3-.4-.4-1-.5-1.2v-.2l-.3-.2v-.4a1.7 1.7 0 0 0 0-.3c-.3-.4-.6-1-.5-1.8-.5-1-1-2.4-1.2-4v-.2c0-.8 0-1.2-.3-1.8-.2-.5-.5-1-.5-2 0-.3-.3-.6-.4-1-.3-.6-.8-1.4-.8-2.5-.2-.3-.4-.6-.4-1.2h-.4v-1-1h-.5v-1c0-.5-.2-1-.4-1.4-.3-.5-.6-1.3-.5-2.4l-.4-1v-.3c-.8-.5-1.2-1.4-1.2-2.7-.4-1.8-.4-4-.4-6v-4l1-1v-.3c.3-.2.7-.6 1.2-.7h1.6v-.3h1c1.7-.2 2.8 0 3.8.3l1.5.3h.6l.5.7c1 1.7 2.2 3.6 2.2 6.4 0 1.2.3 2.2.6 3.3.2 1 .5 2.2.6 3.6.2 0 .3.4.4.6h.4v.8l.2.2c.3.3.6.6.8 1.3 0 .6 0 1 .3 1.4.2.6.5 1.2.5 2a3.6 3.6 0 0 1 1.3 2V145c.3.2 1 .6 1 1.4 0 .4.3.6.7.8l.6 1.3c.2.2.6.5.8 1 .8.4 1 1.2 1.4 1.8.3.6.5 1 .8 1l.8 1c.2 0 1 .6 1 1.4 0 .2.2.3.3.5l.3-.5a2.6 2.6 0 0 1 0-1c0-.5.4-.8.5-1l.3-4.6c0-.6.2-1 .4-1.5.2-.4.3-.6.2-1v-.6c.2-.8 0-1.2 0-1.7-.2-.6-.4-1.2-.3-2 0-.8.4-1.3.6-1.7.2-.4.3-.6.2-1v-.2-.8c0-1 0-2.3.6-3V133c0-.6 0-1 .2-1.6v-1-1.4l.7-1.5a3.2 3.2 0 0 1 .5-1.7c0-1 .2-1.8.5-2.5a5.7 5.7 0 0 0 .2-.8l1-1c.5 0 1 0 1.3-.3.6-.3 1.3-.6 2.3-.6.5 0 1 0 1.4.2h.3c1.2.8 2.4 1.3 4.2 1.2l1 .5 1 1 .5.2.4.3v.5l.4.3.5.3v.6l1 1 .2.3c.2.2.7.5 1 1l.5 1h.6v.5l.4.3c1.3.3 1.8 1.3 2 2l.2.2a3.3 3.3 0 0 0 1.3 1.6l.6.2v.6l.2.3c.3.2.8.6 1 1.4 1 .5 1.4 1.5 1.5 2v.3c.7.4 1.7 1 1.8 2.3a5.4 5.4 0 0 1 1.5 1.7c1 .5 1.2 1.4 1.4 2v.2a5.6 5.6 0 0 1 2 2c.6.4.8 1.3 1 1.7l.3.2.2.5c.2.6.7 1 1.3 1.5l.6.3v.6c0 .2 0 .4.2.6l1 .6c0-2-.3-4-.7-5.8a83.8 83.8 0 0 1-.5-3v-3.4c-.3-1-.6-2-.7-3v-.4c0-.5 0-.7-.2-1-.2-.5-.6-1.2-.5-2.3.2-1.8-.2-3-.6-4.3l-.3-.5v-.4c.2-1 0-1.4-.2-2-.3-1-.7-2-.5-3.5.8-1.7 1.5-3.2 2.4-4.6l.4-.6H452c.5-.2 1-.4 1.6-.4h.8c1 0 1.8.3 2.3.6.4.2.6.2 1 .2l1.2 1 .5.3c.5.5.4 1.2.3 1.6v.4c.2.4.5 1 .5 1.7v.2c.4.4.4 1 .4 1.3l.3 1.2c.4.3 1.3 1 1 2.4-.4 3.7 0 6.4 1 9.5v.5c-.3 1.2-.2 2 0 3 0 1 .2 2 0 3.2.6.6.5 1.4.5 2 .2.3.6.8.3 1.8v1.8c.2.4.4.8.4 1.3 0 1-.3 1.5-.5 1.8v.4c.2.4.5 1 .3 2-.2 2-.2 3.5.2 4.5m-84.4 6.4c-.2.4-.3.6-.3 1l-.7 1.3a1.8 1.8 0 0 1-.5.5c0 .3-.2.4-.3.6l-1.3 1.2c-.3 0-.5 0-1 .3-.4.3-1.3.7-2.7.4a2 2 0 0 0-.5 0h-.8c-.6.4-1.5.6-2.6.3h-.2c-1.4-.8-3.6-1-5.8-1.3-1.5 0-3.2-.3-4.6-.7l-21-1.6a2.5 2.5 0 0 1-1-.3c-.7 0-1.2-.4-1.4-.6a.4.4 0 0 0-.3 0l-1.2-.7c-.2-.5-.4-.7-.8-1l-.6-1.3c-.3-.2-1-.7-1-1.7-.4-.5-.6-1.2-.7-2.2l-.4-1.2-.4-.8-.3-.5.2-.6v-.5l-.5-1c-.3-.5-.5-1-.4-1.7-.2-.2-.6-.8-.4-1.8v-.2c-.3-.3-.7-1-.4-2 0 0 0-.2-.2-.3-.3-.4-.7-1-.7-2 0-.2-.3-.4-.6-.6l-1-1.2a2.3 2.3 0 0 1-1.4-1.2c-.4-.2-.7-.7-.8-1.4h-.3l-.2-1c-.2-1.7.3-2.7.7-3.7.4-.8.7-1.4.6-2.5l-.2-.6c-.3-.4-.6-1-.6-2a2.2 2.2 0 0 1-.4-.6l-.5-.2h-.2v-1.2h-.5v-1c-.2-2.2-1-3.8-1.6-5.5l-.3-.6v-.3l-.2-.6c-.3-.5-.7-1-.6-2.4 0-.8 0-1.2-.2-1.8a7 7 0 0 1-.2-1.3l.8-1.3c0-.2.2-.5.5-.7 0-.4.5-.7.8-1 .5-1 1.7-1 2.2-1.2h.6l.3-.4h.5c.6 0 1 .2 1.6.3 2.2.2 3.4.4 5.6 0h.3l.2.2c1.2.5 3.2.5 5 .6h2.8c1 0 1.5.5 1.8.7h.2a1 1 0 0 0 .2 0h.3c.4 0 .7 0 1 .3a1.6 1.6 0 0 1 .2-.2h1.5l.4.3c.7.4 1.8.7 3 1 .6 0 1.3.3 2 .5l7.6.4v.5h.8l.4.4.8.3c.4.2 1 .3 1.3.6.8.3 1.2 1 1.4 1.2v.3c1.4 0 2.7 0 3.6 1h.2c.6.3 2 1 1.6 3 0 1.8-1.4 2.2-2 2.4l-.6.2-.4.3h-.4l-.8.2h-.4a4 4 0 0 1-.4 0h-.2v.5h-1.3c-3 0-5.8-.2-8-1h-1c-.6.3-1.4.6-2.4.4l-.4-.2-.2-.3c-.2-.2-1.3-.2-2-.2a14.7 14.7 0 0 1-.5 0c-1.2 0-2-.2-2.4-.5-.3-.2-.5-.3-1-.2l-8-.4c-.3.2-.7.5-1.3.5h-1v1.1l.4 1.4c.4.2 1 .7 1 1.6.3.2.4.6.4 1v.5c.3.3.5.8.5 1.5 0 1 .2 1.4.4 1.5.4 0 .8.2 1 .3.7.2 1.2.4 2 .3h.2c.5 0 .8 0 1.3-.3.6-.2 1.5-.4 2.6 0h2.3v-.3h.7c1.4-.3 2.2 0 3 .3.3.2.6.3 1 .3h.2c.2 0 .4 0 .8-.3s1-.6 2-.6c.2 0 .5 0 .8.2h.2c1 .5 2.4.7 4 .7 1.3 0 2.6-.2 3.7-.4h.2l1 .2c.7.3 1.4.5 2.3.5h.6c1.3 0 2 .4 2.7.7l1.3.5h2c1.6 0 3.3 0 4.3 1 2.2 1 3 2.6 2.7 5v.7l-.5.2c-.7.4-1.5.6-2.7.6h-2.3l-2.2-.3c-.7.3-1.5.5-2.3.6-.4 0-.8 0-1.2.2h-.2c-4 0-7.5.2-11 .5l-3.3.2c-.3.3-.7.6-1.4.6h-.8l-1.6-.2c-.6.4-1.3.4-2 .4h-2.5c-.4-.2-.5-.2-1 0s-1.3.5-2.4.2h-2.7c.3.4.5 1 .5 1.6.6.7.5 1.7.4 2 0 .5 0 .6.3 1l.2.3-.2.5v2c.4 0 .7.5.8.8h.4v.8l.3.3c.5 0 .8.3 1 .5h.7c.5 0 1.3 0 1.8.5 1 0 1.6.3 2.2.5l1 .3c.7 0 1 0 1.6-.3.7-.2 1.5-.5 2.5-.5.5 0 1 0 1.3.2h2.6l-.2.8s.2 0 .3.2c1 0 1.8.3 2.4.5h2.7c1.8-.3 3.6-.5 5.5-.5 1 0 2 0 3 .2.5 0 1-.3 1.5-.6.7-.2 1.5-.7 2.8-.7.4 0 .8 0 1.3.2l1 .8h.2c1 .3 1.7 1 1.7 1.8 0 .3.2.5.3.7l.5 1.2v.2c.2.4.5.8.4 1.5.2 1-.2 1.8-.4 2.4m-77-20l-.2.3c0 .4-.2 1-.4 1.3-.5 1.5-1 3-.8 5.2l-.6 1c0 .7-.4 1-.6 1.4-.2.5-.4 1-.7 1-.3.5-.3.6-.3 1l-.8 1v.2c-.2.3-.3 1-.8 1.3 0 1-.8 1.3-1 1.5l-1.5 1.4-.3.2c-.2.3-.5.7-1 1-.4.7-1.2 1-1.6 1l-1.2 1h-.5v.4h-1-.5l-1.3.4c-.5 0-.6 0-1 .2-.6.3-1.2.7-2.3.7h-2.6c-1.3 0-2.5 0-4-.3-.2.3-.4.7-.8 1-.2.5-.4.8-.7 1 0 .4-.5.6-.8.7v.5l-5.2-.3h-.2c-1-.5-1.7-1.3-2-2.3-1-2.4-1.4-5-1.8-7.6a120.6 120.6 0 0 0-.6-3c0-.3-.2-.6-.4-.8l-.5-1.3v-.6c-.4-.3-1.2-1-1-2a19.8 19.8 0 0 1-1-5c-.6-.6-.8-1.3-1-1.8 0-.4-.2-.7-.3-1l-.2-.4c0-1.2-.4-1.5-.6-1.6l-.7-1.3c0-.5 0-.7-.3-1.2l-.5-1.3h-.2v-.2l-.4-1a2.3 2.3 0 0 1-.4-.6l-.5-1.2c0-.6 0-.8-.3-1.2l-.5-1.3v-.4c0-.3 0-.4-.3-.8-.2-.3-.5-.8-.6-1.5-.4-.4-.5-1-.4-1.5-.5-.6-.5-1.5-.4-2a2.5 2.5 0 0 1-.4-1v-.8l.5-.7v-.2c0-.3 0-.7.2-1l.2-1h.5c0-.3.3-1 1-1.2v-.2c.2-.2.6-.5 1.2-.5h.3l1.7-.4c0-.2.3-.5.7-.7 0-.6.6-1 1.3-1v-.8h1.3c1 0 1.7-.2 2.5-.5.8-.2 1.6-.5 2.5-.6.7-.3 1.5-.4 2-.4h1c.2-.3.7-.4 1.4-.4 0 0 .5-.4 1-.4h.7l1.8.6c1.3.4 2.5.8 4 .8l1.3.7c.3 0 .6 0 .8.2.6 0 1 .3 1.2.5h.3l1.2.8c.3 0 .5.2.7.4.6 0 1 .2 1.3.4h.2a1 1 0 0 0 .2 0l1.4.8h.2c.3.2.7.3 1 .7l.3.2c.4.2 1 .4 1.2.8l.2.3c.3.2.8.4 1 .8l.2.2c.7 0 1 .4 1.4.6h.4l.2.6c.2.6.7 1 1.2 1.5.5.4 1.2 1 1.6 2l.4 1v.4l1 1 .2.2c.4.3.6.6.7 1h.4v.7l.2.2h.2v1.5h.4v1.5h.5v1.5l.5 1.2c-.2 1.8 0 3.2 0 4.7l.2 2zm-58 23.5l-.2.7h-.3v1h-.6v.6l-.6.3c-1.5 1-3.3 1.4-5.4 1.5h-.3l-.6-.3-2.2-1h-.7l-.2-.6c0-.4-.3-.8-.5-1-.4-1-1-2.2-.8-4-.2-.2-.4-.7-.4-1.4 0-.3-.5-.8-.3-1.8v-1c-.2-.5-.4-1-.4-1.6l-.3-.8v-.2h-.3l-.2-1-.2-.4c-.3-.4-.6-1-.6-1.6-.3-.3-.5-.8-.5-1.4l-.4-.2-.5-.3v-.6c0-.2 0-.3-.3-.6-.2-.3-.5-.8-.6-1.5l-.4-1-1-1v-.3c-.5-.3-1.2-.8-1.2-1.8l-.2-.2c-.4-.3-.6-.7-.7-1l-.5-1.3c-.3-.3-1-.7-1-1.7-.7-.7-1-1.7-1.4-2.6 0-.3-.2-.7-.4-1-.8-.5-1-1.3-1-1.7v-.2h-.6v-1c-.2 0-.4 0-.6-.2h-.3v.5h-.6v.2l-.5 1-.8 1.6-.6 1.3c0 1.3-.5 2.6-1.2 4l-.3.5c-.5.8-1 1.4-.7 2.7l-.8 1.3c0 .3-.3 1-1 1.2 0 .6-.4 1-.6 1.2-.2.2-.3.3-.3.5 0 .6-.4 1-.6 1.3-.3.3-.4.4-.4.7v.4c-.2.5-.5 1-.8 1.2-.2.3-.3.4-.3.8l-1.2 1c-.2.2-.3.4-.6.4 0 .3-.2.5-.3.6l-.2.3-1 1c0 .2-.3.4-.6.7-.3.4-.7.8-1.3 1-.7 1-1.7 1.5-2.5 2-.5.5-1.2.6-1.5.7l-.2.2-.2.2c-.5.6-1.3.8-2.2.8h-1c-.4.3-1.2.6-2.2.3a1 1 0 0 1-.7-.6h-1.8c-.2 0-.5-.3-.7-.6H187.5v-1s-.2 0-.6-.4c-.4-.4-1.2-1-1.3-2l-.5-1c-1-.2-1.3-1-1.4-1.2h-1v-1c0-2 1-2.8 1.6-3l.2-2-.2-.8c0-.5-.3-1.2-.2-2-.3-.5-.4-1-.4-1.5-.2-.2-.4-.5-.4-1h-.5v-1c0-2-.4-3.4-.8-5a57.3 57.3 0 0 1-.4-1.8v-.4l-.2-.7c-.3-.3-.7-1-.6-2l-.3-.5c-.2-.7-.5-1.4-.6-2.4-.4-.5-.3-1.4-.3-2-.2-.2-.5-.7-.4-1.5 0-.2-.3-.4-.4-1-.3 0-.5-.5-.6-1l-.4-1.2c.2-1.3 0-2.4 0-3.5-.8-.6-.7-1.8-.7-2.3v-.5c0-1 .3-2 .8-2.6.6-.8 1.5-1.3 2.8-1.3.5-.3 1.2-.4 2-.4h.8c1.4 0 2 .4 2.5.6h.3c.2.2.5.2.7.2.7 0 1.5 0 2.3 1l.2.2c.6 1.4 1 3 1.2 4.8.2 1.4.5 2.6 1 3.8v.6c-.3.8 0 1 0 1.6.4.5.7 1 .7 2 .5.7.5 1.6.4 2 .3.4.5 1 .4 1.6.2 0 .4.4.5 1v1c.2 1.2.3 2.2.6 3 .5 1 .5 2 .6 3v1.5l.3.6c.4 1.2 1 2.4.7 4.2.3.6.4 1.3.5 1.8v.8h.2c.2-.5.5-.7.8-.8v-.6l.8-.3c.2 0 .8-.3.8-1.8l1-1v-.5c.3-.5.7-1.3 1.4-1.7.2-.8.6-1.4 1-2l.5-.8c0-1 .5-2 .8-2.8l1-3v-.6h.4c0-1 .4-1.7.7-2v-.3c.4-.8.8-1.5 1-2.3v-.8h.4v-1h.6V129h.6v-.7c.2-.7.6-1 1-1.4 0-1 .8-1.4 1-1.6l1.5-1.4a1 1 0 0 0 .4 0c.3-.5.7-.7 1-.8v-.6l4.6.3v.5c.3 0 .6 0 1 .4 1 0 1.8.3 2.4.6l1.4.5 1 .2v1h.3c.4.4 1 1 1.2 2 .6.2 1.7.7 2 2 0 .2.3.5.5.7l.7.8h.4v1h.4l.7.5-.2.7c0 .3 0 .3.2.4l.6.2v.7c.3 1 .8 2 1.3 3l.7 1.8.6 1h.6v1l.3 1c.4.3.4 1 .4 1.5.4.3.5.8.6 1v.2c1 .6 1.4 1.8 1.6 2.6.5.4.8 1 1 1.4l.3.5.5.3v.5c0 1.2.4 1.5.7 1.6l.7.3v.8c0 .2 0 .4.2.7h.4l.2 1h.4v1.8c.2 0 .4.3.5.6v.8l.3.5v.5h.2c.3.5.3 1 .3 1.2 0 .4.3.6.3 1 .5.5.6 1 .6 1.6.4.5.5 1 .5 1.5.5.7.5 1.6.4 2v.3c.3.5.7 1 .4 2.2M161.3 144v.6l-1.2 2c-.2 0-.4.4-.5.6l-.3.5h-.8c-1.3.4-1.3.4-1.3.8 0 2-.3 3.2-.7 4.6-.4 1.3-.7 2.6-.6 4.2l-.6 1v.2c0 .6-.2 1-.5 1.2v.3l-.2.5-1 2.3v1h-.7a2 2 0 0 1-.4.5c0 .3-.3.4-.4.6l-.7 1-.3.8c-.2.5-.4 1-.8 1.3l-.3.4h-.3l-.8.4c-.2 0-.3.2-.5.3 0 .6-.6 1-1.4 1.2v.7l-1.3-.2c-.7 0-1.2.2-2 .4-.6.2-1.4.4-2.4.4h-1.7l-.7-.3v-.5a4.7 4.7 0 0 0-.5 0c-.4-.2-1.3-.4-1.7-1.2l-.5-.2-1.2-.7a2.6 2.6 0 0 1-.5-.2c-.4.2-1 .2-1.3.2H131a3 3 0 0 1-.7 0c-1 0-1.7-.7-2-1v-.2h-1l-.3-.5c-.8-1-1-2.4-1-3.7l-.4-1.7v-.4c0-.7-.2-1.2-.4-2-.3-.6-.6-1.6-.4-3-.5-.4-.8-1-.8-2-.3-.5-.4-1-.4-1.4 0-.3-.2-.7-.3-.8l-.2-.2v-.3c0-1-.4-1.7-.8-2.5l-.6-1.3c-.4-.2-.7-.6-.8-.8l-1.3-.7c-.6 0-1-.4-1.3-.6l-.8-.3v-.6c-.2 0-.8-.3-1-1-.3 0-.5-.2-.7-.3l-.8-.4-.8-1.3c-.3-.3-1-.7-1-1.6-.7-.5-1.5-1.4-1.2-3-.2-2 .5-3 1-4 .3-.3.5-.6.6-1-.5-.5-.6-1.3-.7-1.8l-.4-1-.2-.2v-.4c0-.5 0-1-.3-1.3 0-.6-.4-1.2-.4-2v-.5c-.3-1-.6-2.2-.3-4v-.2l1-1.5.8-1.3.4-.5H114.5v-.7l1.3.2h.5c.4 0 1.2 0 1.8.6 1.4 0 2.4.3 3.3.6l1.3.3v.7c.3.2 1 .7 1 1.7.2.3.4.8.3 1.4l.3 1c.6.7.8 1.5 1 2 .2.4.5 1 .3 1.8 0 .3 0 .5.3.8v.3l.4.7.5 1.2v.3c.5.3.7.6.8 1l.5 1c0 .4 0 .5.3 1 .2.2.5.7.6 1.3v.3c0 .2 0 .3.6.7l.8.4c.3.3.4.3.6.3h.8c.5 0 1.4 0 2 .6h4.8l.8.3c1 .3 1.7.6 3 .5h2s.4-.3 1-.3c0-2.8.2-5.6-.2-7.5-.3-1.3-.3-2.7-.3-4.2 0-1.3 0-2.6-.2-3.7v-.6l.5-1c.4-.7.7-1.3.7-2.4l.8-1c.2-.2.2-.2.2-.5l.2-1h.2v-.3l1-.2h.3l1.4-.5h1.6c.2.2.4.3.5.6.6 0 .8.3 1 .5.2.2.3.5.3.7.7.5 1.4 1.2 1.8 2.2v.2c.3.3.5.6.6 1a4.7 4.7 0 0 1 0 .7h.5v1.2l.2.7c.3.4.8 1 .6 2.3-.2 1.2 0 2 0 3 .2 1 .4 2 .2 3.5.5.8.4 2 .3 3v1c-.2.5 0 .7 0 1 .2.6.4 1.2.3 2h.3l1 .2v.3h.2l.3 1v.2h.2l.2.8v.6c.3.2.6.4.7.8l.2.6c.5.5.3 1.2.3 1.6m-50 17l.2.7v.2h.4v1c0 2.4-2 2.8-3 3-.4 0-.7 0-1 .2-.5.7-1.5 1-2.7 1H104.7c-.4.3-1 .6-2 .5-.8 0-1.8.2-2.8.4l-6.7 1h-4.3a3 3 0 0 1-.7.2l.2 1H87l-.2.3c-.3.3-.8.8-1.8.8h-1l-3.8-.3v-.8a2 2 0 0 1-.5-.4c-.6-.3-1-.8-1.2-1v-.4l-2-.3c-1.8-.2-3.6-.5-5.4-1l-10.2-.5h-.2a3.2 3.2 0 0 1-1-.4h-.5c-.8 0-1.2-.4-1.4-.7-.7 0-1-.3-1.3-.6-.6 0-1-.3-1.5-.5-.7-.4-1.2-.6-2-.5l-1.2-.7-.8-.5h-1.3c-.5 0-.8-.4-1-.5h-1a1 1 0 0 1-.6-.6 1.4 1.4 0 0 1-.8-.2c-.4-.3-.6-.7-.7-1-.3-.2-.7-.4-1-1l-.2-.2v-1.2c-.6-.6-.4-1.5-.3-2.2v-1.1c.2-.6.5-1 .8-1.3.2-.2.3-.3.3-.6l1.5-1.2c.2 0 .4 0 .7-.3l.3-.3h.2l.8-.2c.2 0 .6 0 1 .4h.4c1.2 0 2.4 0 3.3.6a49 49 0 0 1 2.6 1c1 .5 2.4 1 3.7 1.3h1c2 .6 4 1 6.5 1.2 1.2 0 2 .2 2.5.5l1 .2h.3c1.2-.3 2 0 2.5.3l-.3-1c-.2-.4-.5-1-.5-2a1.4 1.4 0 0 0 0-.2c-.3-.2-.5-.6-.5-1.3-.4-.4-.6-1-.7-1.8-.3-.3-.5-.7-.6-1.3h-.2l-.2-.6c-.2-.5 0-1 0-1.6h-.4v-1l-.2-1.7c-.2-.8-.3-1.7-.2-3l-.3-.5-.5-1.2v-.3c-.3-.3-.5-.7-.4-1.4a2.4 2.4 0 0 1-.4-1c-.3 0-.4-.5-.5-1l-.4-1.3c0-.5 0-.7-.3-1-.2-.5-.6-1.2-.6-2a10.5 10.5 0 0 0-.2-.7c-.3-.8-.6-1.7-.6-3-.3-.4-.4-1-.4-1.5-.2-.2-.4-.6-.4-1l-.5-1.3c.3-1.2 0-2 0-3l-.3-.7c0-1 0-1.5-.4-2.2a10.7 10.7 0 0 1-.3-1v-.3c0-1.8 0-3.3.7-5l.2-.2h.3c1.4-1 3-2 5.5-2h1.2v.6c.5 0 .8.2 1 .4h.3l1 1c.2 0 .2.2.3.4 0 .3.3.7.3 1.3.3.2.5.6.5 1l.5 1.2v1l.3.3V117.8h.4v1c0 1.2.4 2.2.8 3.4.4 1.3.8 2.7.8 4.4.4.4.5 1 .6 1.2v.2h.4l.2 1v.2h.5v1c0 .6.3 1 .4 1.4.3.7.6 1.5.5 2.7 0 .5 0 .8.2 1.3.3.6.6 1.3.5 2.4.5 1 1 2.3.8 4.2.2.2.3.5.4 1l.3 1c0 1 0 1.2.2 1.3l.3.4v.8c.2.3.4.7.3 1.3.3.3.5.6.6 1l.3.2v2l.4.2v1.8h.3v1c.2 1 .6 2 1 3 1 .3 1.5.7 2 1l.8.5H105c1.2 0 1.8.4 2.2.7l.4.3H108.5l1 .2 1.7 1zm397.8-6.6c-.2-.5.8 0 .7-.4.3 0 .4-.2.4-.4s-.7 0-1.3 0c.2-.8-.3-1-.2-1.6-.2 0-.4 0-.4-.3-.2 0-.3 0-.3-.3-.5 0-1.3 0-1.4-.4 0-.2 0-.4.2-.4h.6a.7.7 0 0 1 .3-.8c.6 0 .5.2 1 0-.3-.8 1-.6 1-1.4a1.3 1.3 0 0 0-.6 0c-.2 0 0 0 0-.2-.7 0-1 .2-1 0v-.3s.2 0 .3-.2c0-.4.2-.3 0-.7-.4 0-.2-.4-.6-.3l-1-.2c0-.4.3-.5.3-.8-.5 0-.5-.2-1 0 0-.5-.3-.6-.8-.7 0-.3-.7-.5-.7-.5v-.5c0-.2 0-.3-.2-.3 0-.4.3-.4.3-.7 0-.2-.2-.2-.3-.4-.2 0 0-.3-.4-.3 0-.3.5-.4.4-.8 0 0-.5 0-.6-.3l-.6-.2c0-.4-.6-.5-.8-.8 0-.5.5-.4.6-.7.5 0 1 0 .8-.4-1 .2-1-.4-1.8-.6h-.8c-.2-.4-.5 0-.8 0-.6 0 0-1-.5-1 .2-.5-.3-.5-.2-1 0-.2-.5 0-.6-.3 0 0 0-.3-.4-.3 0-.2.5 0 .8-.2.3-.4 0-.5-.3-.8a7.2 7.2 0 0 0 1.7-.2c0-.4-.4-.3-.2-.7-.2-.5.6-.2.6-.6 0-.7 0-1.3.2-2-.7.2-.3-.4-1-.3 0-.5.3-.6 1-.6 0 0-.3-.3-.2-.4l.2-.2h.2c.2 0 .2-.5.4-.6 0-.5-.4-.6-.2-1 0-.5-.5-.6-.8-.8 0-.7-.6-.7-.4-1.4-.7 0-.7-.6-1.5-.6-.3-.4-.7-.7-1.4-.7l.2-.6h-.2v-.4c-.2 0-.3 0-.4-.3 0 0-.5 0-.5-.2-.4 0-.6-.3-1-.4 0-.3-.2-.5-.6-.6-.2-.3 0-.3 0-.6 0 0 0-.2-.3-.2 0-.2-.2-.2-.2-.3-.2 0-.2-.3-.2-.4 0 0-.2 0-.2-.3-.2 0 0-.2-.3-.2 0 0-.3 0-.2-.2 0-.3-.6-.2-.5-.5 0-.2.4-.2.7-.2h.4c0-.5-1-.2-1.4-.2 0 0-.8-.5-.2-.6 0-.3-.6-.4-.8-.7l.2-.4s0-.3.2-.3c0-.4.6-.3.4-.7-.2 0-.7 0-.8-.4 0-.3.3-.4.6-.5h.4c0-.2 0-.3.2-.4-.2 0-.2-.4-.2-.8l-.2-.4c.2 0 .2 0 .2-.3h-.4c0-.5.3-.5.2-.8-.3 0-.5-.2-.8-.3 0-.3-.3-.4-.8-.3 0-.4 0-.6-.6-.6 0 0 .2 0 .2-.3.2 0 0 0 0 0 .2-.3.2-.6.2-1-.2-.3.4-.2.4-.5 0-.4-.4-.6-.2-1 0-.2.4-.2.6-.2l-.2-.4c0-.2.4 0 .6-.2 0 0 .2 0 .2-.2 0-.4 0-.8-.4-.8 0-.3-.2-.3-.2-.4-.2 0 0-.3-.4-.3.3-.5.8-.8 1.4-1 .3-.4-.5-.6 0-.6.2 0 .2-.3.2-.5v-.3h-.2-.4c0-.6 1.4 0 1.2-.8 0 0-.5-.2-.6 0-.4 0-.5 0-.8.2-.4 0 0-.5-.6-.4-.4 0-.2-.4-.8-.3 0-.4-.7-.2-.6-.5-.5 0-.2-.4-.6-.4.3 0 .2-.5.2-1 0 0 0-.3.2-.3l-.2-.4c-.3-.2-1.2-.2-1.4 0-.4 0-.6-.3-1-.3h-3.7c-.6 0-1.3-.2-2 0h-2.5c-.6 0-1.5 0-2-.2h-.5c0 .2 0 .2-.2.2s.2 0 0 .3c-.2 0-1-.2-1 0-.6.2 0-.4-1-.3-.5 0-.3.4-.7.4h-.6c0-.3-.2-.2-.2 0-.6 0-.5-.3-1-.2h-1.9-.4c-.2 0-.2-.2 0-.2 0 0-.4 0-.4-.2-.5 0-.4.2-.6.3-.4 0 0-.4-.6-.4h-2.2c-.7 0-.8.4-1.3.5a7.7 7.7 0 0 1-1.5 0c-.3 0-.8 0-.8-.3l-.6.2h-.7c-.3 0-.4 0-.4-.2h-1c-.2 0-.3.3-.6.4-.6 0-1-.3-1.8-.2-.6 0-.6-.3-1.2-.2-.6 0-.6.3-1.2.2-.4 0-.3.4-1 .4h-1c0-.8-.5-.2-.5-.4H450.8c0 .3-.3-.3-.6-.2h-.7c-.5-.2-1.3-.2-2.3-.2-.3 0-.6 0-.8.3-.3 0-.5 0-.6.2-.6 0-.5-.4-1-.4s-1 0-1.2-.2c-.7 0-.6.3-1.2.2-.7 0-.8-.2-1.3-.2-1 0-2.3.2-3 0h-.7c-.6 0-.6-.2-1 0 0 .2-.8 0-1 0-.5 0-1 0-1 .2-.3 0-.2-.2-.5-.2h-.8l-.4.2h-1.8c-.7 0-1.4 0-2-.3h-.3c-.2.2-.2 0-.2 0H424c-.5-.2-1-.2-1.2 0h-.8c-.4-.2-.6 0-1 0-.7 0-1.6-.2-2.5 0h-4.1c-.7 0-.6-.2-1.3 0-.6-.3-.6 0-1 0H410.4c-.3-.2-.4 0-.6 0-.4.2-.4 0-.8 0H403c-1.3 0-3-.3-4 0-.6 0-.5-.3-1-.2-.6 0-.6.2-1.2 0 0 .2-.4.3-.7.3h-1.3c-1-.2-2.4 0-3.2-.7H389s-.4 0-.6.2h-.6c-.5 0-.6-.3-1-.3H382l-.3.3c-.5 0-.6-.2-1.2 0-.5 0-.8 0-1-.2-.5 0-.5.3-1 .2-.5 0-.8 0-1 .2-.7 0-.5-.4-1-.3-.8 0-1.8 0-2 .2-.5 0-1-.3-1.6 0h-.5c-.3-.2-.7 0-1 0-.6-.2-.5 0-1 0-1.4 0-2-.2-3.3-.3h-.6c-.3 0-.5 0-.6.2-.6 0-.5-.2-1 0-.6-.2-.4.2-.8.2-.5 0-.8-.3-1.4-.2-.4 0-1.2.2-1.3 0H360c-.2-.2-.2 0-.5 0-.5 0-.6-.2-1-.3-.8 0-2 0-2.5-.2-.4 0-.7.2-1.4 0-.5.2-1 0-1.4.2-.3-.2-1 0-1.6 0h-3l-1.4-.2c0 .2-.3 0-.5 0-.4 0-.4.2-.6.2h-6.7l-.8-.2c-.5 0-.4.2-1 0-.3 0-.7.2-1 0h-.8-.2c-1 .2-2.2 0-3.5 0-.5.3-.5 0-1 0 0 .2-.4.2-.4 0-.2 0-.3.2-.6 0 0 .3-.2 0-.4 0l-.4.4c-.4 0-.3-.3-.8-.3-.4 0-.8 0-1-.2-.2.2-1 0-1.7 0h-.2c0 .2-1.5.3-1.8 0h-3.2c-1.5.4-3.5 0-5.2 0-.7-.2-.7.2-1.4 0-.8.2-1 0-1.7 0-.4 0-.5.2-.8 0-.3 0-.4.2-.4.3v.2c-.8 0-.7-.3-1.2-.3h-2.6c-.4 0-.7-.3-.8-.4h-.6c-.3 0-.4 0-.4.2-.7-.2-1.3 0-2 .2-.2-.2-.4-.2-.7 0-.3 0-.5-.3-.8-.3h-2-.3c-.2 0-.4.2-1 0-.6 0-1 0-1.5-.2-.6 0-1 0-1.4.2h-.6c-.3 0-.6 0-.6.2-.5 0-.6-.3-1.3-.2 0-.4-1 0-1-.3-.5 0-.4.3-1 .2h-.6c-.6 0-1.4 0-2 .3-1 0-.7-.5-1.5-.5-.6 0-1 0-1.4.2-.4 0-.5 0-.8-.2l-.8.2H283c0 .2-.8.2-1 .2h-4s0-.3-.3-.3c0 .2-.2 0-.2 0H274c-.7 0-1.8 0-2.6-.2l-.8.2s-.5 0-.5.3c-.6 0-.4-.5-1-.5-.5 0-1 .2-1 .3H264h-1.6c-.5 0-.4.4-.8.4-.2 0-.5-.2-1 0 0-.3-.6-.2-.6-.4-.8 0-.5.5-1 .6-.6 0-.6-.2-1-.2-.5 0-.8 0-1-.2-.4 0-.3.2-1 0 0 0-.5 0-.5-.2H254c-.4 0-1.2 0-1.2.2-.2 0 0-.3-.4-.3 0 0 0-.3-.4-.3h-1.6-.6c-.3.2-.8 0-.8.3-.4 0-.4-.4-1-.3-2 .2-4.7-.2-6.6.4-.6 0-1-.4-1.8-.3-.5 0-.4-.2-.8-.2-.3 0-.8 0-.8-.2-.3 0-.4.3-.6.3h-.6c-.4.2-.4 0-.6 0-.5 0-.6.2-1.3 0-.7 0-1 0-1.5-.2-.4 0-.5.3-.8.3-.4 0-.5 0-.8-.2-.4 0-.7.2-1 0-.4 0-.6.4-1 .4-1.3 0-2.3 0-3.2-.3-.6 0-1.2 0-1.4.3h-.6s0-.2-.3-.2c0 .2-.3.3-.6.3l-1-.2c-.6 0-1.2.2-2 0-1 0-1.5.4-2 0-.4 0-.5.4-1.2.3-.3 0-1-.2-1 0-.6.2-.5-.2-1-.3H215.2v.3h-.4s0 .2-.2 0h-1.2s-.3 0-.5-.2h-.5c-.6 0-1.3 0-1.8.3-.4 0-.8-.3-1.2-.4h-3.3c-.3 0-1 0-1 .2-.5 0-.6-.3-1.2-.2-.6 0-1 .3-1.4.3-1 0-1.8-.2-2.7-.3-.6 0-.5-.3-1-.3s-.5.3-1 .3c0 0-.5-.2-1 0h-3c-.5 0-.8.2-1.2.3l-.8-.2h-1.6c-.4 0-.5.2-1 0 0 0-.4 0-.5.3-.3 0-.4-.3-.7-.3h-2c-.4 0-.5.2-.8 0-.3 0-.6 0-.6.3-.6 0-.8-.3-1.2-.4-1 0-1.8.2-2.6 0-.4 0-.4 0-.4.3-.5 0-1 0-1.4-.3-.6 0-.6.2-1 0-.4.2-.4 0-.7 0h-.6-.5c-.3 0-.8 0-.8-.3-.2 0-.4 0-.4.2h-.2c-.4.2-.5 0-1 0h-1.1c-.7 0-.7.4-1.2.3-.7 0-.5-1-1.2-.2h-1.8c-.5 0-.8 0-1 .2-.3 0-.6 0-.7-.2h-.5c-.6-.2-.4.3-1 .2.2.3-1 0-.8.2-.7-.2 0 .4-.6.3-.7 0-.3-.6-1-.6h-1.3c-.7 0-.6.6-1 .6h-1s0 .2-.3.2l-.6-.2c0-.2-.4 0-.4-.3-.3 0-.6 0-.6-.2h-.8-.4c-.5 0-1-.2-1 0-.4.2-.4 0-.7 0h-1.5c-.5 0-.4 0-.6-.2-.7 0-.6.2-1 .2a1.3 1.3 0 0 0-.7 0c-.3 0-.4-.2-.4-.3-1 .2-2.6.2-3.4 0h-.6s0 .2-.2.2-.3-.3-.6-.3c0 .5-1 .2-1 .6h-.6c0-.3-.5-.2-.5-.4 0 0-.4 0-.7.2-.4 0-.5-.3-1-.3s-1 0-1-.4c-.6 0-.4.3-.8.3-.3 0-.4-.2-.6-.3-.6 0-.7.3-1.3.2-.6 0-1 0-1 .2-.5 0-.3-.4-1-.3-.2-.2-.2 0-.5 0-.5 0-.8-.2-1.4 0h-1c-.7-.2-.4.4-1 .3-.6 0-.5-.2-1-.2h-2l-.8-.2c-.6 0-1 .2-1.5 0-.8.2-.6-.3-1.3-.2.2.2-1 .2-.8 0-.5 0-.6.2-1 .3-.4-.2-.6-.5-1.2-.4h-.6c-.3 0-.4-.2-.4-.3l-1.5.3h-.4-.4a3 3 0 0 1-.7-.3c-.5 0-.8 0-1 .2l-1-.2-2.3.2c-.5 0-.8-.3-1.4-.3-.6 0-.6.2-1 .3-.6-.3-1.7 0-2.4 0s-.8-.2-1.3-.2-1 .2-1.3.3h-.4-.4a3 3 0 0 1-.7-.3c-2 0-3.5.4-5 0-.6 0-1.3 0-1.5.2-.3-.2-.3 0-.6 0-.6 0-.4-.3-1-.3-.3 0-.5.2-1 0-.8.3-.7-.2-1.3 0l-.7.3h-1.6c-.8 0-.7-.5-1.5-.4 0 .4-1 0-1 .3h-2c-.6 0-1.3 0-1.8-.2-.5 0-1 .2-1.3.3h-.5-.9c-.3 0-.6 0-.6-.2-.6 0-1 .3-1.7.2-.7 0-1-.2-1.7 0a7.7 7.7 0 0 0-1.6 0c-.8.2-1.6-.2-2.2 0-.5.2-.7 0-1 0-.3-.2-1 0-1-.3-.7 0-.6.3-1 .3h-2.2a.4.4 0 0 1-.4-.2c0 .2-.4 0-.7 0-.3 0-.6 0-.7.2-.3 0-.5-.2-.8-.3-.5 0-.6 0-1 .2L66 96c-.6-.2-.8 0-1.2 0-.2-.3-.5.2-1 0-.5 0-1.5 0-2-.2-1.3.3-3.6 0-4.8.3h-1.2c-.2 0-.6 0-.6-.2h-2.4c-.3 0-.6 0-.7.3h-2.5c-1 0-2-.3-2.6 0l-1-.2h-.6-6.8c-.5 0-.4.3-.8.3h-1c-.4 0-.4-.2-.6-.2h-2.3-1.5c-.6 0-.4.3-.8.3-.2.2 0 .4-.4.5-.4 0 0-.6-.6-.6-.3 0-.4 0-.4-.2H22.3c-.7-.2-1.6 0-2.4 0h-2.3a6.3 6.3 0 0 0-1.8 0c-.5-.2-.5.2-1 0 0 .2-.4-.2-.5.4H12a.3.3 0 0 0 0-.3l-.6-.2c0 .2-.3 0-.6 0H10c-.2-.2-.5-.3-.8-.3.2.5-.7.2-.6.6 0 .4 0 .5.6.5 0 .6.4.8.4 1.3.2.5-.3.4-.4.7 0 .4 0 1-.2 1.2 0 .5.5.4.6.7-.2.4.3.4.2.8 0 .3.6.2.4.6 0 .6-1 .3-1.2.8 0 .4.6 0 .4.6H10c0 1 .2.5.4.6-.2.4.6.7.6 1v1.2c0 .3.2.2.2.5.2 0 0 .2 0 .3h.3c0 .2-.3.3-.3.5.2.4-.4.3-.6.4 0 .3 0 .4-.2.6-.3.4-1 .6-1.2 1 0 .3 0 .4.4.5.3 0 0 .4.4.4 0 .2-.3.3-.4.5 0 .4-.4.3-.4.6 0 .2 0 .3.4.4.3 0 0 .2 0 .4.2.2.3.2.6.2.2 0 .2.2.2.3 0 0 0 .2-.2.3H10c-.3 0-.8 0-.8.2-.3 0-.3.3-.6.3h-.8c0 .3-.2.3-.2.3l.6.4c0 .3.2.6.6.7-.3 0-.4.8.2.8 0 .4-1 0-.8.7.8 0 1.3 0 1.8.2 0 .5-.4.5-.2 1 .2 0 .2.2 0 .2 0 .2.4 0 .4.3h.6c.2.7-.7.5-.6 1 .2 0 .6 0 .6.3.2 0 0 .2.4.2l.2.6c.2.2 0 .5.4.5 0 .6-1 .5-1 1 0 .4.3.5.6.6l.2.4c0 .2 0 .2.2.3-.2.5-.2 1.2-.2 2h1c0 .3-.5.5-.5.5v.7c0 .4.7.3.6.7.2.3.4.5.4 1h.6c0 .3.5.2.5.4.2.7-.6.7-.7 1 0 .3-.6.2-.5.6h-.4c0 .2 0 .3-.2.3.3 0 .2.6.2 1 .2.4-.5.2-.4.6-.2.2-.2.5-.6.6 0 .2.3.3.2.5.2.4-.5.3-.4.7.5 0 .6.5.6 1 .2.4-.5.2-.4.6 0 .2 0 0-.3.2v1c0 .2.2 0 0 .4.3 0 .3.2.4.3.3 0 .2-.2.5-.2l-.3.3c-.2 0-.2 0-.3.2l-.6.3c0 .2 0 .3-.2.5 0 .3-.5.3-.8.4 0 .4.4.4.4.8s-.3.4-.4.7l.2.2h-.4c-.2.5.2.4.2.7v1.6c-.2 0 0 .3-.3.3-.2.3.3.2.2.6 0 .3-.2.4-.5.5 0 .4-.6.4-.8.5l-.2 1.6c-.4.5-.7 1-1 1.2 0 .5-.6.3-.5.7-.3 0-.5 0-.6.3.2.3.6 1 0 1 0 .2.3.2.3.4l.4.2c0 .5-.8.3-.6 1 .7-.2.5.2.7.3h1c0 .6-.4.6-.4 1 .5 0 0 .4-.2.4 0 .3.6.2.6.5s-.3.3-.3.6c0 .2.3.2.3.5 0 .2.3.2.4.4 0 .5-.8.3-.7.8 0 .2 0 .3-.2.3l.5.5c0 .2-.3.2-.4.4.2.3 0 .3 0 .6-.2.5.8.3 1.2.5 0 .6-1 .4-1 .7-.4.2-1 .3-1 .7.3 0 .3.3.5.3 0 0 .2 0 .2.2.4 0 .3.4.5.6h1c.2 0 0 .5.3.5 0 0 0 .3.4.3 0 .7.6 1 .4 1.7l-.2.4c-.3 0-.4 0-.4.3-.2.4.2.5.4.8-.3 0 0 .2 0 .3l.2.3c.2.4-.3.4-.4.7-.3 0-.4.3-.4.5.2.2.7.2.8.4h.7v.2a.6.6 0 0 0-.3 0c-.5 0-.7 0-.6.4-.8 0-.7.4-1.6.3 0 .3 0 .6-.3.6a2 2 0 0 0 .3 1.2c-.2 0-.3.2-.3.4-.2 0-.3 0-.4.2.3.3-.3.2-.3.5 0 .2.4.3.4.6s-.2.4 0 .8c.3 0 0 .4.7.3a5.3 5.3 0 0 1-.8 1c-.2.4.3.3.3.6s-.5.2-.4.5c0 .3 0 .5.3.4.2.5-.6.2-.6.6-.4 0-.4.4-.8.4-.2.4.5.3.3.7.5 0-.3 0 0 .4 0 .2-.4 0-.6.2 0 .2 0 .2-.4.2-.2.5.3.4.4.7-.3.2-1 0-1 .4l-1 .2c0 .2-.3.3-.2.5-.6 0-.6.2-1 .2l-1 .7H1c0 .2-.2.5-.8.4 0 .6.4.7.2 1.2h.6c0 .3.2.3.2.5.5 0 .8 0 1 .3h1c.3.2.4 0 .7 0 .5 0 .8.2 1.4 0 .6 0 .7.4 1.3.3 0 .3 1 0 1 .2H8c.5 0 .6 0 1 .2.6 0 .6-.3 1.2-.2.7 0 1.5 0 2 .3.8 0 1-.4 1.3 0h.8c.4 0 1.2 0 1.6.3.4 0 .5-.2 1 0 .7-.3 1.2.3 2 0H19.6c.7.2 2 0 3 0 .7.2.6-.2 1.2 0 .4 0 .4 0 .5.2h2.4c.5 0 .6.2 1 .3.5-.2 1.3-.2 2-.2.5 0 .6 0 1 .2h2.9c.6.2.4-.2.8-.2l.8.2h1c.2.2.2 0 .5 0s.5 0 .6-.2c.4 0 .5.3 1 .3 0-.4.4 0 .8 0H42c.8-.2 1.7-.2 2.5 0 0 0 .3-.2.4 0h4.8c.4 0 .7-.3 1.4 0H53c.5-.2.5 0 1 0l.4-.2h3c.4 0 .8 0 1 .3.2 0 .4 0 .7-.2.4.2 1 .2 1.4.3 0-.2.2 0 .4 0h3.5s.5 0 .6.2a6.5 6.5 0 0 1 1.8 0c.4 0 .5-.2.8-.3 0 .2.4.2.4 0 .6.2 1.4.2 2.3.2.4 0 .5-.2.8-.3 1 0 2.2.2 2.7 0 .5 0 1.3 0 1.7.2 1.2 0 2.2-.2 3.2-.3a7 7 0 0 1 1.6.3c.6 0 .6-.2 1 0 1.8 0 3.5-.3 5.3 0h1.3c.2 0 1-.2 1.4 0h3.5c.5 0 .5-.2 1 0 0 .2.7 0 .8 0 .4 0 1 0 1.4.2.4 0 .4-.3 1-.2.7 0 1.2.3 2.2.2 0 0 0-.2.2-.2h1l.4.2.6-.2s0 .2.2.2h.8s0-.2.2-.2.3 0 .4.2h1.5c.2 0 .7 0 1-.2.6 0 .4.4 1 .3.7 0 1-.2 1.6 0a7.2 7.2 0 0 1 1.7 0c.8.2 2 0 2.3.3l.8-.2c0 .2.6.2.6 0 .4.3 1.2 0 1.8.2.6 0 .7-.2 1-.3 1 0 1.7 0 2.3-.3h.8c0 .2.2.2.4.2h1.2c.3 0 .7.2.8 0 .3-.2.6.4.8 0l.8.2c.5 0 .4-.2.8-.2h4c.3 0 .5.2.8.3h2.5l1.2.2c.6 0 .5-.3 1-.3h1l.7-.2h1.8c.5 0 .5.4 1 .3 0-.2.3 0 .3 0 .2 0 .3 0 .4.2 1-.3 3 0 4.5-.2.5 0 .7.3 1 .3h2.5c.6-.2.7 0 1.2 0h.6s.3 0 .4.2c0-.2.4 0 .7 0h.7c.6 0 .6-.4 1-.4.6 0 1.3.2 1.8.4h1.2l.2-.3h.5c.7 0 .8-.2 1.7 0 .6-.2.5 0 1 0 0 .2.3.3.6.3 0-.2.4 0 .6 0h1.4c.3 0 .6 0 .6-.3.4 0 .6 0 1 .2l.3-.3s.2 0 .2.2c.2 0 .2-.3.5-.3.2 0 0 .3.4.3s.3-.3 1-.2c.6 0 .6.3 1.3.2.7 0 1-.3 2-.2v.2c.2 0 .3 0 .5-.2h1s0 .2.2.2h.8s0-.2.2-.2h.4v.2h1.2c.3 0 .4 0 .5-.2.5 0 .5.3 1 .2.5 0 .6 0 1-.2.4 0 .5.3 1 .2.4 0 1.2-.2 1 0 .8 0 1.3.2 2.4 0 .5.3.7-.2 1.4 0h1.8c.5.2.5 0 1 0h.8c.7.2 1.4 0 2 0l1 .2c1.3 0 3 0 4.2.2 0-.2.5 0 .8-.2H195.2c.4 0 1.2-.2 1.7 0h1.3c1-.2 2 0 3 0 .4 0 .8-.2 1 0h1.5l1.2.2c.4 0 .4.4.8.4h2c.4-.8.4 0 1 0 .4 0 1 0 1.3-.3.2 0 1 .3 1 0 .2 0 0 .2 0 .3.4 0 .3-.2.3-.4.2 0 .5.2.8 0h.7c.5 0 1-.3 1.3-.4h7.3c.5 0 .6.3 1 .4h1.2c.7-.2.6.2 1.3 0h2.2l1.6.2H236.2c.6 0 1.6 0 2 .2h1c.3-.2.5-.2.8 0 .4 0 .4-.2.6 0h1.3c.3 0 .8-.2 1.5 0 .6-.2.6 0 1.2 0 .5 0 1 0 1 .3l1-.2c1 0 2.3 0 3-.2.3 0 .3.2.7.2h2.7a6.2 6.2 0 0 0 2 0c.4.2.6.3 1.3.3 0 .2.4.2.4.3h1.1c0-.3 0-.3.2-.4.6 0 1.4-.2 1.8 0 1.2 0 2.7-.2 3.6 0l.8-.2h5.5c.4 0 .5.3 1 .2.2 0 .6 0 .7.3.5 0 .4-.3 1 0 .4-.2.4 0 .8 0h.4c0-.2 0-.2.2-.2l1.2.2c0-.2.4 0 .6 0 .4-.2.5 0 1 0h2.9c.6 0 .5.2 1 0 .7.2.6 0 1.3 0h1c1 .2 2 0 2.8 0 1 0 2 .2 2.7 0h7.3c.6.2.7 0 1.2 0 .7 0 1.3.3 1.8.4h3.7c.6 0 1.5 0 1.8.2 1 0 2-.2 2.6 0h3c.6-.2.4.2 1 .2 0-.4.3 0 .7 0h1.2c.7-.2 1.8 0 2.2-.3.4 0 .4.2.6.2.3 0 .4-.2.4-.3.4 0 .7 0 1 .3.3 0 .2-.4 1-.3.2 0 .5 0 .5.2h.6l1.2-.3c1 .2 1 0 1.8.2 1-.2 2.4-.4 3 0 .5 0 .6-.2 1-.3a1.3 1.3 0 0 0 .5.2h.8c.2.2.5 0 .6.3.5 0 .4-.3.8-.3.5 0 .4.3 1 .2.6 0 .6-.3 1-.3h1.8c.5 0 .6 0 .8.2.5 0 .6 0 1-.2.3.3 1.8 0 2.3.3.4 0 .4-.2.8 0 .7-.2 1 0 1.3 0 0-.2 1 0 1.3 0h1.4c.5 0 .4.2 1 0 .4 0 .3.4.8.3 0-.2.5 0 .8 0 .3 0 .6 0 .6-.3.6.2 1.4.2 2.3.2 1-.2 2-.2 3.2-.2h5.5c.7 0 .8-.2 1.5 0h2.4c.7.2.6 0 1 0h1c.6 0 1.3.2 2.4 0 .2 0 .3.2.4.3h1.4c0-.3.4.2.8 0 .5.2.5 0 1 0 .4 0 .8 0 1-.2.2 0 .2.2.5.2l.4-.2c.2.2.4.2.7 0l.6.2h1c.2 0 .4-.2.4 0 .3 0 .6 0 .6-.2h.4l1 .2c.2-.4.5 0 1 0h2.5s0-.2.2-.2l1.2.2c0-.2.3 0 .4-.2.4 0 .8 0 1 .2.4 0 .5-.2 1-.3.3 0 .4.3 1 .3h3.3a7.8 7.8 0 0 0 2 0c.8 0 2 0 2.4.4 1 0 1.8-.2 2.7-.3h1.2c1 0 2 .3 3.3 0H397.4c.2.2.8.2 1.2 0h.8c.3.2 1 0 1.4 0 .6.2.6 0 1 0 .2.2.4 0 .7 0h.8c.4.2 1 0 1.4 0l1 .3c0-.2.5-.3.8-.4 0 0 .5.5.8-.3h.7c0 .8 0 .5.2.5.5 0 .6 0 1-.2h1.2c0-.2.4.5.6-.3h2c.5.8 1 .3 1.5.5h.4v.3h1.7c.3 0 .6 0 .6-.2l.8.2h2.2c.3-.2.4-.3.8-.3h1c.2.2.4.2.4 0 .2 0 .2.4.2.4h.8c.6 0 1 .3 1.6.4l3-.3h3.8c.4-.2.5 0 .8 0h3.6c.3 0 .6 0 .7.2h1c.2-.3.3 0 .5 0h2.4c.4 0 .5-.2.5-.3H443.2c.5 0 .6 0 1-.2.3 0 .6 0 .6.2h2.2c.7.2.8 0 1.3 0h.4c.2 0 0 .3.2.4.2 0 .7-.4 1 0 .3 0 .3-.2.7-.2h10.7l.4-.2H471.2c.2 0 1 0 1.2.2 2.7 0 5.3.2 8 .3.7.2 1 .4 1-.4h.8c.2 0 .3.2.4 0 .8.3 2.4.4 3.2.2.5 0 1 .2 1.3.3h2.3c.5-.2.4 0 .8.2.8-.3 2-.2 3.3-.2h.8s.5-.2.6 0H496.4c.2 0 .4 0 .4.2.5-.2 1-.3 1.8-.3.5 0 .7-.3 1-.3h1c.4 0 1 0 1 .3h.3c.4 0 .6-.2.6-.5.6 0 .5-.2 1 0 .2-.5-.3-.5-.2-.8 0-.2.5 0 .8 0l-.2-.4s.4-.2.2-.7c.3 0 0-.2 0-.3l.2-.4c0-.3.8-.2 1-.4 0-.5-.5-.4-.6-.7-.2 0 0-.2-.2-.3h-.2c-.3-.3-1-.4-.8-1 0 0-.5 0-.6-.2h-.4c0-.2 0-.2-.2-.3 0-.2.3-.3.4-.5.4 0 .5-.2.4-.5 0-.2.3 0 .4-.2h.2c0-.3 0-.6.2-.7l.2-.4c-.4 0-.7 0-1-.2-.2 0-.4-.4-.4-.4h-1l-.4-.2c0-.2.2 0 .4 0v-.3c0 .3.4 0 .4.2v-1s0-.3-.2-.3v-.3h.6c.2 0 .3 0 .4.2h1c0-.4 0-.7-.4-.7 0-.2-.3-.4-.6-.5 0-.2.4-.3.8-.2l-.2-.4c0-.2.3 0 .5-.2h.3v-.6c0-.2 0-.3.2-.3 0 0-.2 0-.2-.3l.2-.3c0-.4-.5-.3-.5-.5.2-.2.2-.5.4-.5 0-.2.4-.3.5-.5-.3-.5.2-.6 0-1.2 0-.2.4-.2.5-.4 0 0 0-.2.4-.3-.3-.4 0-.6 0-1 0-.6-.7-.6-.5-1.3-.6 0-1-.3-1.3-.7 0-.3.5-.2.7-.4h.7c.2-.3 0-.3 0-.5l-.6-.2c0-.3.8-.3.7-.7-.7 0 .2-.2.2-.4 0-.5-.6-.5-.7-.8 0 0 0-.4.4-.4 0-.2.5-.2.8-.2l.2-.4h.4c.6 0 .7-.3 1-.5 0-.5-.6-.4-.5-.8 0-.3.2-.3.2-.4 0 0 0-.2.2-.2v-.3h-.3v-.3h-.2l-.2-.2s-.3 0-.2-.2h1.7c.2-.6-.2-.7-.4-1 0-.2.6-.2.6-.5 0-.4-.4-.5-.5-.8 0-.3.8-.2.8-.5s0-.4-.2-.6c0-.4.8-.4 1-.8 0-.2-.3-.3-.3-.5 0-.4 1-.3.6-1h-1c0-.3-.2-.3-.2-.5m-218-9l.2-2c0-1-.3-2-.6-2.8l-.5-2.3c-.6-.5-.8-1.2-1-1.7v-.3a3.6 3.6 0 0 1-1.6-1.7 11 11 0 0 1-2.5-2.7c-1.5-.2-2.5-.8-3.4-1.3-.8-.4-1.6-.8-2.5-1h-.7v-.5h-.4a6.2 6.2 0 0 1-1 0l-.4-.2c-.3-.3-.4-.4-.8-.4h-.3l-1.2-.7c-.5-.5-.7-.6-1.2-.5h-.3c-.4-.2-.6 0-1 .2-.5.2-1 .6-2 .6-.5 0-.8.3-1 .6h-.5c.2 1.2.6 2 1 3v.2l.5.8c0 .3.3.6.4 1 .3.3.4.6.5 1l.6 1.3c0 .8 0 1 .4 1.6.2.4.6 1 .6 2 .2.3.3.7.3 1l.5 1c0 .4 0 .4.2.5l.7 1v2.8c.5.5.7 1.2.8 1.6l.2.4.2.2v.2c0 .2.4.6.4 1.3l.4 1.4c.3.3 1 .7 1 1.6.4.3.7.7 1 1.2.8.2 1.6.6 2.2 1h3a2.4 2.4 0 0 1 1-.3 32.4 32.4 0 0 1 2.6-.4c.4-.8.8-1.6 1.7-2 0-.5.3-.7.5-1v-.7l.6-.2c0-.2.2-.4.4-.6 0-1.2.4-2 .7-2.8.3-.6.6-1 .6-2M145.6 151v-1c-.3 0-.8-.6-1-.8a66.5 66.5 0 0 1-3-.2c-2.2-.2-4.5-.3-6 0 0 .6.3 1.3.6 2 .5 1 1 2 1 3.2.6.5 1 1.2 1 1.6v.4c.4.2.6.4.7.7l.6.7.4.6h.2c.2.2.8.5 1.2 1v-.2c.3-.2.5-1 1.2-1.2a.8.8 0 0 0 0-.5l.7-1a2 2 0 0 1 .6-.7c0-.5.2-1 .6-1.4V153c0-.6 1-1.8 1.3-2zM327.2 28.3l-.3.7a5 5 0 0 0-.4.6l.2 2.6-.4 1v.2c-.2.2-.3.8-1 1 0 .4-.3.7-.6.8l-.4.5v.2a2.7 2.7 0 0 1-1.4 1.5c-.7.7-2 .8-2.7.2-.3 0-.7-.3-.8-1-.5-.2-.5-1-.5-1.5-.3-1 0-1.4 0-2 .2-.2.3-.5.2-1l.4-.6v-.3c0-.7 0-1.2.3-1.5 0-.8.2-1.5.5-2.2-.3-.2-.4-.5-.5-.7v-.3a1 1 0 0 1-.6-.3v-.2c-.4 0-.8 0-1-.5-.3-.2-1.2 0-2 0h-.7l.3 5.4v.5l-.4.2v.3c0 .4 0 .7-.2 1v.2l-.6.7s-.2 0-.3.4c0 .3-.3.8-.7 1 0 1-.6 1.3-1 1.4l-.3.2v.3h-.2a2.3 2.3 0 0 0-.5.5c-.4.3-1 .8-1.8.8h-.7c-.6-.3-1.2-.7-1.5-1.3a.8.8 0 0 1-.5-.2c-.3-.3-.3-.8-.2-1.3l-.4-.3v-.7c0-1 0-1.6.3-2.3 0-.8.2-1.4 0-2.4l.5-.6a5.6 5.6 0 0 0 0-.6c0-.3-.2-.7 0-1 0-1.3-.3-1.5-.6-1.5-1 0-1.3 0-2 .3l-.4.2c0 .7-.4 1.2-.7 1.6-.3.2-.4.4-.5.6l.8 2-.2 1s0 .5.2.7v2.6h-.3l-.2.2s0 .4-.3.6c-.2.5-.5.6-.8.6v.2l-.4.7s-.2 0-.4.3c-.2.2-.5.5-1 .6l-2 .2h-.6l-.2-.4-.8-.5c0-.2 0-.2-.2-.3-.3-.2-1-.5-.8-1.5l-.2-2.5c0-.8 0-1.5.2-2 0-1 .2-2 0-3a1.5 1.5 0 0 0-1-.8c-.8 0-1-.7-1.2-1v-.3c-.5 0-.7-.2-1-.3h-.2V26c-.3-.2-1.2-.2-2 0h-.7l-.5-.5h-.8l-1.8.2c-.3 0-.6-.3-.8-.4h-.4-.2c-.2.2-.5.5-1 .5h-.5c-.2-.3-1-.3-2-.2H281c-.4-.2-1-.3-1.7-.4a12.5 12.5 0 0 1-1-.2c-1.5.2-3 .2-4.4 0h-1.7l-7 .4-1-.2c-.3 0-.5 0-1.2.4-.8.2-1.5 0-2 0-.4-.3-.6-.4-1.5-.2l-6 .4c-1 .4-2 .7-3.4.7-.2.5-1 .5-1.4.5h-.3v.2l-.5.2h-.3l-1.3.4c-.7 0-1.5-.2-2.4 0-.3.4-1 .4-1.6.5-.4.5-1.2.5-1.6.5h-.2v.2c0 .3-.3 1-1 1.2l-.6.6c-.2 0-.2 0 0 .4.2 1 0 1.3-.3 1.7 0 .3-.2.4 0 .6l-.3.6a5.4 5.4 0 0 0-1.8 2 17.3 17.3 0 0 1-1.6 3.2v.2h-.4a1.2 1.2 0 0 0-.8.3c0 .3-.5.5-.7.6l-.2.4h-.4c-.5 0-1 .3-1.3.5-.3.3-1 .5-1.6.6-1 0-1.6-.2-2.2-.5l-1-.5c-.8 0-1.4-.5-2-1l-.8-.5-.3-.2V39c0-.5 0-.7-.3-1-.3-.4-.7-.8-.7-1.6-.4-.3-.5-1-.5-1.4h-.2l-.2-.4a2.6 2.6 0 0 1 0-.4l-.4-.6c0-.6-.3-1-.7-1.3-.3-.3-.6-.5-.8-1a10.3 10.3 0 0 1-.3-.3c-.6-.6-.8-1-1.5-1h-.3c-1 .3-1.5.6-1.7 1v.5h-.4c-1 .2-1.4.5-1.5 1-.4 1-.6 2.2-.7 3.4 0 0 0-.2-.4-.2v.6c-.5 2.2-.4 5 0 7.6v.2l-.3.8c0 .7-.3 1.2 0 2l-.5.7v.7c.3.8.2 1.5 0 2v.4c-.2.8-.3 1.6 0 2.7l-.4.7c0 .3 0 .5-.2.7v.8c-.2.2-.2.3-.2.5.3 2 0 3.8 0 5.5l-.3 2c.4 1.4.2 2.4 0 3.4 0 .8-.2 1.6 0 2.6l-.3.5c-.4.3-.7.7-1 1.2-.5.8-1.2 2-3 2-.4 0-.7-.2-1-.3a4 4 0 0 0-.7-.3l-.5-.6c-.2-1-.5-1-.6-1l-.2-.2V71c-.3-.3-.3-.8-.3-1.2l-.5-.4v-.7c0-1.4-.4-2.3-.7-3.4a18 18 0 0 1-.3-1.2l-1-6.7h.2c.2-1.3 0-3-.2-4.3v-1.7h.2v-1c-.2-.4-.3-1-.2-1.3v-.2c.3-.4.2-1.3 0-2v-.6l.3-.6v-.4c0-.4 0-.7.2-.8V44c0-.7 0-1.2.2-1.6v-.2c0-.4-.2-1 0-1.2 0-1.5 0-2.5.4-3.4.2-.5.3-1 .3-1.6V34.4c0-.3 0-.7.2-1V33c-.3 0-.4-.2-.4-.2.2-.5.4-1 .4-1.5V29.8c0-.2 0-.7.4-1v-.4c-.2-.6 0-1.7 0-1.7l.4-.3V26v-1c.2-.4.4-1 .2-2 0-.5 0-1 .2-1.2.2-.3.3-.6 0-1l-.6-2.4c0-.5 0-1-.3-1.3-2-.8-4.4-1.2-8.2-1.2H191l-2 1h-.3c-.6.6-1.6.7-2.7.7h-.6c0 .3-.4.5-.5.5l-.2.5h-1.8c-.3.6-1 .6-1.5.6 0 .2-.2.2-.3.3-.4 0-.7.3-1.2.4 0 .2-.3.4-.4.5l-.2.3v.4h-.4v.2l-.4.2h-.4v.4h-.5v.4c0 .3-.2.6-.5 1-.3 0-.5.3-.5 1.2V26h.3l.2.3v1.2c0 .2.4.5.4.5l.2.4v.4h.3v.8h.2l.4.8c0 .6 0 .8.2 1.2l.3.8c.3.2.6.4.6.8.4.2.6.5.8.8 1 .3 1.3 1.2 1.5 2 .6.4 1 1 1.5 1.5 1.2.2 1.2 1.6 1.3 2.5v1h-.4l-.6.5c-.4.3-1 .6-1.7.7-.3.4-.8.3-1.3 0-.6 0-1-.2-1.4-.4l-.2-.2c0-.2-.2-.3-.5-.4-.4-.2-1-.5-1.2-1a4.4 4.4 0 0 1-1.7-1.5c-.7-.2-1-.8-1-1-.3-.6-.3-.6-.5-.6l-.4-.4-.2-.2s-.3-.3-.3-.7c-.2 0-.3-.4-.4-.6h-.4v-.4l-.2-.2c0-.2-.3-.4-.3-.7-.3-.2-.4-.4-.5-.6l-.5-.6c0-.6 0-1-.4-1.2-.3-.4-.6-.8-.6-1.7 0-.4-.2-.6-.4-1v-.2a2.4 2.4 0 0 1 0-1c-.3-.5-.3-1-.3-1.5V24c0-.4 0-.7.2-1 .2-.6.4-1 .3-2l.5-.6.4-.7c0-.2 0-.3.2-.5V19l.3-.7a3.3 3.3 0 0 0 1.3-1.6l.2-.2A3.3 3.3 0 0 0 174 15v-.3h.3l.4-.7v-.3h.5c.5 0 .6-.2.7-.6v-.3h.5c.2 0 .3 0 .5-.2.2 0 .6-.3 1-.3h.2c0-.2.3-.4.5-.5H179.3v-.3h.4c0-.2.2-.3.3-.3.2 0 .5-.3 1-.3.2-.5.7-.5 1-.5h.3l.8-.5c.8 0 1.2-.2 1.7-.5.5-.2 1-.6 2-.6.7-.4 1.6-.5 2.5-.7l1.7-.5 3.8-.3h.3c.5 0 .8 0 1 .2a1 1 0 0 0 .5 0h.2l.2.2h.5c.6-.2 1.2-.3 1.6 0l.2.2h1.6c.8.3 1.7.4 2.6.2l.6.3c0 .3.3.4.8.4l.5.3c0 .2.4.4 1.3.4l.5.4.6.4v.4l.5.6.3.2c.3 0 .8.4.8 1.2h.3l.2.5v.4h.4v.7l.2.2c.3.2 1 .6.7 1.5 0 .8 0 1.2-.2 1.6-.2.4-.3.7-.2 1 .6.8.7 1.8.7 2.8v1c.2 1 0 1.4-.4 1.8l-.4.6h1l1.7-1.5.2-.2h.2c.8 0 1.2-.3 1.7-.7.5-.3 1.2-.8 2.4-.8h.5v.4h1.2l.6.4h.3c.3 0 1 .3 1 1 .6 0 1 .5 1.3 1 .4.3.6.6 1 .7a6.6 6.6 0 0 1 2-2.2h.2a1.3 1.3 0 0 0 .4-.3c.2 0 .6-.3 1-.3.4-.7 1-1 1.7-1l3.7-.3c1.3 0 2 .5 2.6 1 .5.5 1 .8 1.7.8a2.7 2.7 0 0 0 .6-.3c.3-.3.8-.7 1.6-.7.2-.3.4-.4.6-.4v-.4h.8c0-.3.4-.5 1-.5s1 .2 1.3.3c.2 0 .4.2.8 0 .2-.2.6-.4 1-.4h.2l1.3-.2.2-.2c.3-.4.8-.4 1.2-.4h1.2c.2-.6 1-.6 1.5-.6h.2c.2-.3.5-.5 1-.5.7 0 1.3.2 1.7.3.4.2.6.3 1.3 0 1.3-.2 2-.4 3-.4h1.7l5.6-.3h1.3c1.3.2 2.6.2 4 0h7.5l2.2-.2c.7 0 1.2.2 1.8.4.6 0 1 0 1.6.2h12.2c.5 0 .8.5 1 .8a1 1 0 0 1 .5.3l.2.2c.2 0 .6 0 .8.3.3 0 .6 0 .8.2h.5l.6.4c0 .4.2.5.5.5.2-.3.4-.4.6-.5.6-.2.7-.3.7-.5l.7-.5c.6 0 .8 0 1.2-.2.3-.2.7-.4 1.2-.4l3-.3h.8c1 0 1.6.3 2.2.6.3 0 .6.2.8.3a5 5 0 0 1 .5-.2c.6-.2.8-.3.8-.6v-.2c.7-.8 1.8-1 3-1 1.3-.2 2.4 0 3.2.4l1.4.3 4 1.5.2.2.7.8c.5.5 1 1 1.2 1.7l.6 1c.6.6 1 1.3 1 2.5.4 1.5-.2 2-.8 2.3M220.8 58l.3-1 .2-.3c0-.2 0-.6.4-.8v-.2h.3l.2-.4s.3-.4.6-.5a6.5 6.5 0 0 1 2-2.3c1-2 3.2-3.2 6-3.6h.2l.5.3 2 .5h.4v.3l.6.8c.3.3.6.7.8 1.2 1.6.8 2.6 2.4 3 4.7.3 1-.3 1.5-.5 1.7l-.3.3v.3l-.3.2c-.2 0-.4.3-.5 1.2v.4l-.4.2c-1 .5-1.8 1.2-2 2l-.2.3h-.4c-.7 0-1.2.4-1.8.7-.5.3-1 .7-2 .8l-3.3.3h-.6l-.3-.3-.6-.4c0-.2-.2-.3-.6-.4l-.3-.3v-.3l-.5-.4c-.3-.2-.6-.4-.8-1-1-.4-1.4-1.5-1.7-2.5-.2-.6-.4-1.2-.7-1.5m69.6 9.3l.2-.8V66h.5l.4-.4c.2-.4.4-.5.6-.7l.4-.5V64h.6l.2.2V64h1.1l.2-.3 1 .3h.2c.4.2.6.4.7.6.4-.2 1-.3 1.5 0v.2l.2.2s0 .2.3.2c.2 0 .4 0 .6.2 0 0 0 .2.2.3 0-.2.4-.4.7-.4.2 0 .4 0 .5.2.3.2.4.6.4 1h.4c1.5.7 3 1 4.3 1 1.2.3 2.4.5 3.6 1 0 0 .3 0 .4-.2.5 0 1.2-.2 1.8 0 1 .2 1.5.5 1.8 1l.3.6v.2c0 1-.4 1.6-.7 2.2l-.6 1.2v.5h-.4v.2c-.2 0-.3.2-.3.3l-.3.2h-.2a.8.8 0 0 1-.4 0 1.6 1.6 0 0 1-.4 0v.3h-1c-.4 0-.7 0-1-.3l-.7-.2H306l-3.5-1-.7-.3h-1.2c-.3-.4-.6-.6-1-.6h-.8c-.5 0-1.3 0-2-.4-.5 0-1-.4-1.2-.6-.3-.3-.5-.4-1-.4h-.2a.7.7 0 0 1-.5.2l-3.3-1-.2-.7c-.3-.6-.5-1.2 0-2.4m19.8-12.7v.2c0 .8.3 1 .6 1.5.2.5.7 1.2.5 2.5v.4h-.4c0 .6-.4 1-1 1 0 .2 0 .4-.3.5l-.2.4v.3l-.3.2c-.2 0-.5.3-.7.5-.5.4-1 1-2.3 1-1 0-1.8-.4-2.3-.7-.3-.2-.5-.4-.8-.4l-.3-.3-.3-2.4c-.3-1 .3-1.4.5-1.6l.2-.2c-.2-1.4.2-2.3.6-3l.5-1v-.6h.6c.5 0 .6-.2 1-.4.2-.3.7-.7 1.5-.7h.2c1.4.5 2 1.7 2.6 2.6m-2-9.8c0 1 .3 1.4.6 1.7l-.4 1c0 .4 0 1-.5 1 0 .4 0 .6-.2.8 0 .3-.3.6-.3.8v.5h-.6c-.6 0-.7.2-1 .7-.3.5-.8 1.2-2 1.2l-2.5.2V52l-.4-.2c0-.2-.4-.4-.5-.8h-.5l-.3-4v-.4h.4c0-.2.2-.2 0-.4l.5-.6c.2 0 .3-.3.5-.5.3-.3.8-1 1.8-1 .3-.3.8-.4 1.2-.4.3-.5 1-.5 1.5-.5h.5l.6.4c.5 0 .8.4 1 .6l.4.2h.5v.6zm5.4 7c-.2.3-.6.5-1 .5H311V52c-.3-.2-.7-.3-1-.8l-.2-.2-.3-.6h-.3l-.2-2.2c-.3-1 .3-1.4.6-1.6l.2-.3a5 5 0 0 1 .4-1c0-.4.2-.6.3-1v-.2h.5c.4 0 .6-.2 1-.3l.6-.2s.3 0 .4-.2c.5-.2 1-.4 1.7-.4.3 0 .5 0 .6.3h.5c1 1.2 1.5 2.7 1.4 4.8 0 .8-.6 1.2-1 1.6-.3.3-.5.5-.6.8v.4h-.5c-.5 0-.6.2-.7.5l-.2.5h-.9M104 70v.4h-.3V70h.4zm-3.7-54c-.7-.2.3-.4 0 0m315.3-9.4c0-.5-.6 0-1 0-.2-.5.3-.4.4-.6.2 0 .3 0 .3-.3.2-.5-.3-.5-.6-.6 0-.4.2-.5.3-.7 0-.2 0-.2-.3-.2 0-.2.2-.2.2-.5-.3 0-.2-.2-.5-.2 0 0-.3 0-.3-.3v-.8V2h-.3c-.2-.2-.4-.2-.4-.4-.4 0-.5-.2-.8-.3 0-.2.5-.2.3-.6-.5 0-.3-.4-1-.3-.4 0-.7-.2-1-.3-1.5 0-2.5.3-4 .2l-1.2-.2c-.5 0-1 0-1.3.2h-9.3c0 .2-.4.3-.7 0-.5 0-.5.4-1 .4s-1.4 0-2-.2H390h-.6c0 .2-.2 0-.3.2-.4 0-.3-.2-.7-.2h-.5-.5c-.5 0-.4.2-.7.2-.2 0-.3.2-.5.3-.2-.2 0-.5-.4-.5s-.5.2-.7 0h-2.1-.2l-.4.2h-.6c0-.2-.2 0-.2 0h-1.2-.6c-.2.3-.4-.2-.7 0h-.8c-.3.2-.3 0-.6 0-.4 0-.6 0-.7.2-.3-.2-.7-.2-1-.3h-.9c-.3 0-1 .2-2 0H370.7l-.8-.2c-.7 0-1.2 0-1.6-.2a5 5 0 0 0-1.5 0c-.7.2-.7 0-1.2 0s-.5.2-1 0H363c-.3 0-.4 0-.4.2-.4 0-.5-.2-1 0-.6-.3-.5 0-1 0H354h-.4-1-1.5H349.8c-.3-.2-.4 0-.6 0h-1.9-1.3c-.2 0-.6 0-.7.2-.4 0-.3-.3-.8-.2-.8.2-2.2 0-3.3 0-.4 0-.4.2-.6.2H338c-.3 0-1 0-1.3.2h-.5c0-.3-.2-.2-.2 0-.4 0-.3-.4-.8-.3L334 1c-.2 0-.8-.2-.8 0-.3 0-.3 0-.3-.2h-.5c-.2.2-.6 0-1 0 0 0 0 .2-.3.2-.4 0-.6-.2-1.2 0-.5-.2-.5 0-.8 0-.3 0-.4-.2-.8 0-.7 0-1.3 0-2-.3H325c-.6 0-.7.3-1 .3h-3.3c-.6-.2-1.7 0-2.5 0h-1.5c-.3.2-.5 0-1 0-.3 0-.5 0-.5.2-.4 0-.8-.3-1 0h-1c-.7 0-1 .2-2 0-.3 0-.2-.2-.5-.2h-.7c-.5-.2-.5 0-.8 0-1 0-1.3.3-2 0 0 .2-.2.2-.4.2h-.3c-.5.2-.5 0-1 0h-2.9c-.7.2-.8 0-1.5 0-.2.2-.3 0-.5 0h-2.7c-.3 0-.6.3-.7 0-.4 0-.3.3-.7.3-.6-.3-2-.4-2.8-.2-.8 0-1.8 0-2.5-.2-.6 0-.6.2-1 .3h-1.5c-.2.2-.3.4-.7.5-.4 0-.4-.2-1 0 0-.3-.3-.2-.3-.3h-.5c-.4 0-.6 0-.7-.2h-.5c-.2 0-.3 0-.3.2l-1-.2H282h-4c-.8 0-2 .2-2.5 0H272.2c-.5 0-.5.2-1 0 0 0-.7.3-.7 0-.4 0-.4.2-.8 0-.5.2-.5 0-1 0-.3 0-.2.2-.7 0-.3 0-.5 0-.7.2-1.3-.4-2.7 0-4.2 0-.4-.2-.3 0-.7 0a5.2 5.2 0 0 1-1.5 0h-1-.4c-.2 0-.3 0-.3.2h-.2c-.2 0-.3 0-.4-.2h-4.8c-.5 0-.5.3-1 .2h-.7c-.3 0-.6 0-.6-.2-.4 0-.5.2-1 0-.5.2-.8 0-1.2 0H246c-.5-.2-.3.2-.8 0h-2.2c-.3 0-.4 0-.6.2-.6-.2-.8 0-1.4-.2H239c-.4 0-.4.3-.8.2H230c-.2 0-.5 0-.5.2-.5-.2-.5-.2-1 0h-1c-.4 0-.6 0-.8-.2h-.4c-.2 0-.3 0-.4.2-.3 0-.3-.2-.6 0h-.6l-.8-.3c-.6.2-.7 0-1.3 0h-2.6c-.6.2-1.5 0-2 .3-1.3-.3-3-.2-4.7-.2H210c-.3 0-.4 0-.6.2H205.7c0 .3-.5.2-.5.3-.3 0-.5 0-.5.2-.6-.3-1.4-.4-2.2-.3h-1.2c-.2-.2-.3 0-.4 0l-.6-.3H197c-.4-.2-.5 0-.7 0h-1.3c-.3 0-1-.2-1 0H193c-.4-.2-.4 0-.8 0h-4.9s0 .2-.3.2-.3-.2-.7-.2c-.8.2-1.8 0-2.5.4h-2.6c-.4 0-1 0-1.5-.2h-1.2l-.8-.2h-6.9c-.6.2-.6 0-1 0h-.8c-.5 0-1.2 0-1.5.2h-1.2c-.3 0-.4-.2-.8 0l-1-.2h-.5c-.3.2-.6 0-1.2 0H151.5c-.5-.2-.4 0-.8 0h-2c-.5.2-.6 0-1 0 0 .2-.5 0-.7 0-.4 0-.4.2-.7.2h-.5c-.3 0-.7-.2-.7 0-.4 0-.4-.2-.8 0l-.5-.2c0 .2-.4 0-.4.3 0 0-.5 0-.7-.3-.7.2-1 0-1.7 0h-.8c-1 .2-2 0-2.8 0H133.6c-.6.2-.6 0-1 0-1.3.2-2.8 0-4.2 0h-.5c-.2 0-.4.2-.4.3-.4 0-.4-.3-.8-.2-.3 0-1 .2-1 0-.2.2-1 0-1.7 0-.2 0-.2.2-.6.2-.7 0-1 0-1.6-.2-.5 0-.7.2-1 .3l-1-.2c-.2 0-.3.3-.4 0 0 .2-.5 0-.6 0v.2c-.3 0-.7-.3-1.2 0h-.2c-.2 0 0 0 0 0-.3-.2-1 0-1 0-.3 0-.6-.2-1 0-.5-.2-.6 0-1 0h-1c-.4-.2-.3.2-.6.2a.8.8 0 0 0-1 0c0-.4-.2 0-.6 0h-1c-.5 0-.7-.4-1.3-.3-.6 0-.5-.5-1.2-.4-.3.3-.3.8-.6 1 0 .3.4.3.4.5 0 .3-.2.4-.2.5-.2.4.3.3.3.5.2 0 0 .2.2.2v.2c0 .3-.2.3-.2.5 0 0 .2 0 .2.3 0 0-.3.2-.2.6-.2.2-.7.4-1.5.3l-.2.3V7c-.2 0-.3.2-.4.3 0 .2-.4 0-.4 0h-.3c0 .2-.3.2-.3.4h.2V8c-.3 0-.2.2-.3.3 0 .2-.2 0 0 0-.3 0-.3.2-.5.2 0 0-.3 0-.3.3l-.8.2c0 .3-.2.2-.5.2v.5c0 .2 0 .3-.2.3 0 .3.4.3.6.4.3.3-.6 0-.5.2l-.2.4h-.5c0 .6.3.8.3 1.3.5 0 .8.2 1 .4 0 .3-.4.2-.3.6 0 .3-.5 0-.8 0-.2.2-.6.2-.6.4-.3 0-.6 0-.7.2-.2 0-.6 0-.8.2l-.8.2c0 .2.5.3.6.6 0 .3-.4.3-.3.6 0 .3-.5.3-.7.4l-.2.3h-.3a1 1 0 0 0-.5 0h-.3c-.2 0-.3 0-.4-.2 0 0 0 .2-.2.2 0 .4 0 .7.5.8.3 0 .6.3.8.6 0 0 0 .2-.3.2v.2c-.4.2-.8 0-1 .3l-.2.4c0 .3-.2-.2-.6 0-.3.4 0 .5 0 .8 0 .3 0 .4-.3.5l.3.4c.2 0 0 .3 0 .5s.4.3.6.4c0 .2-.3 0-.5 0H96l-.2.2-.3.3H95l.3.2h1l.3.2c0 .5-.6.4-.5.8 0 .5.3 1 .4 1.5l.4.2c.2 0 .3 0 .4.2 0 .3 0 .4-.2.6 0 0 0 .4-.2.4.2.3.2.5 0 .8.2 0 .6 0 .5.5 0 .3-.7 0-1 0v.6c0 .3-.5.4-.6.7 0 .4.6.4.7.7 0 .4.3.6.4 1 0 0-.3 0 0 .4-.4 0-.5.2-.5.5 0 .4.4.6.8.7.2.2 0 .6.3.6 0 0 .2.3 0 .6h-.6c0 .6 0 1 .3 1.3v.7l.2.4s0 .2.3.2v.4c.3 0 .3.2.5.2 0 .3-.3.3-.2.6.2 0 0 .2.3.2v.5c0 .3.5.3.6.5 0 .3-.3.4-.2.7-.2.2-.4.3-1 .3l-1 .2c0 .2.5.3.8.5 0 .3-.3.2-.4.4v.2c-.2 0-.3 0-.3.3h-.7s0 .2-.3.2H95c.2.2 0 .2 0 .2l.3.5c0 .2-.3.4-.2.8 0 .2 0 .7-.4.8-.2.3.2.3 0 .6h-.2l-.4.2c0 .3 0 .4.4.5v.6h.6c0 .5-1 .5-1 .5.3.2.4.4.8.4.5 0 .6.4 1 .6 0 .3.4.5.8.6v1c.3.5-.3.3-.2.7-.4 0-.2.4-.5.4 0 .3-.4.4-.3.7-.4 0-.4.3-.5.5-.2.2.2.2.3.5h-.8l-.4.3c0 .4.3.3.3.6 0 .2-.3.4-.2.8 0 .2 0 .4.3.4 0 .2-.2.3 0 .5-.3.4.2.3.2.6l-.5.2v.4c0 .3-.6 0-.5.5 0 .4.7.2.5.6h.8l.4.2c0 .4-.3.5-.2.8h.5c-.3.2-.2.5-.2.8 0 .5.4.5.5.7v.5c0 .3-.2.3 0 .7 0 .2.2.5.6.6 0 .3-.6.2-.5.6.2 0 0 0 .2.2v.2c.4 0 .5.2.6.4l-.2.7.3.7c0 .3-.3.3-.2.7.6 0-.2.2 0 .4-.2.3 0 .4 0 .6a.6.6 0 0 0 0 .5s.2.2.5.2c0 0 .2.2.5.2.4 0 .3.2.5.4.6 0 1 0 1 .3l1.2.3c0 .4-.3.4-.2.8 0 .2-.5.3-.4.7h.6c.2 0 0-.4.4-.3 0-.3.6-.2.6-.5.4 0 .4.2 1 0h.4c.5.2.2.7.6.7 0 0-.2 0-.2.3v.2c-.2 0 0 .2 0 .3 0 .2-.4.4-.5.6 0 .2 0 .4.6.4-.3.6.5.5.6.8h-.5c0 .2-.2.3-.4.3 0 .2.3.2.4.4.2 0 0 .2.3.2 0 .2-.3.3-.5.4-.5 0-.4.2-.7.2-.5 0-.4-.2-.8 0h-1v.5c.3 0 .5.2.4.4 0 .2-.4 0-.6 0 0 .4 0 .5-.2.7v.4c.2.3-.3.2-.4.4h-.3l-.3.2c0 .3.4.3.8.2.5 0 .4.6 1 .6-.3.5.3.5.2 1v.2h.5c0 .2-.2.2-.2.3v.4s0 .3-.2.3h-.5l-.5.8c-.7.2-.5-.2-1 0h-2.2s-.2.2-.2.5H97v.3c0 .3.2.4.6.4 0 0 .2.2.5.2.4.2 1 .2 1 .5l.7-.2c.3 0 .4.2.7.3.4 0 1 0 1 .2h1.8c.4.2.5 0 .7 0l.5.3 2.7-.2c.3 0 .3 0 .3.2h1.4s.2 0 .2.3c.7 0 .8-.2 1.2-.3h.9l.8.2h1c.4 0 .4-.2.8 0 .5 0 .4-.3.7-.3.4.2 1.2.2 1.7.4.4 0 .4-.2.8 0h1c.3 0 .6 0 .7-.2.4 0 .4.3 1 .2h.4s0-.2.3-.2h1.7c.4 0 .5-.3 1-.2h2l.5.2H127.8l.4-.2h2.5c.2.2.2 0 .6 0h.6c.2 0 .5 0 .5.2h1.4c.5 0 .5-.2 1 0 .4-.2.3 0 .7 0h.9c.2 0 .7 0 1-.2.4 0 .5.2.6.4l1.2-.3H142.2c.5 0 .5-.2 1 0h5.7c.4 0 1 0 1-.2h.6c.2 0 .3 0 .3.2 0 0 .6-.3.6 0 .4 0 .3-.2.7-.2h1.3c.4 0 1 .2 1.5 0h.6c.2 0 .3 0 .3.2.4-.2 1.3 0 2.3 0 .4 0 .3-.3.8-.2h1.4c.5-.2.4 0 .7.2.6 0 .6-.3 1-.3h1v.2h.6c.3 0 .6 0 .8.2.3 0 .5 0 .5-.2h.4c.6 0 .8-.2 1.4 0h1c.5 0 1 .2 1.3.3 0 0 2.4 0 2.8-.3h3c.4 0 .5.2.8.3h1c.5 0 1 0 1.5-.2h2.4c.5 0 1 0 1.4-.2l3 .2c.6 0 .7-.3 1.2-.2h1c.2.2.8 0 .8.2.4 0 .5 0 .8-.2.7 0 .5.3 1 .3 0-.2.3 0 .5 0h.6c0-.3.2-.2.2 0h.5c.5 0 .6-.4 1-.5l4.5.2h.7c.4 0 .8 0 1 .2h4.5c.4 0 .6 0 .8-.2 1 .3 2.5 0 3.7 0 .5 0 .6.3 1 .2a6.2 6.2 0 0 0 1.5-.2 11.2 11.2 0 0 0 2.2 0c.5-.2.5 0 .8.2h.7c.2-.2.5 0 .8 0 .3-.2.3-.2.7-.2h1.6c.3 0 .5 0 .5.2l1-.2c0 .2.6 0 1 0s.5.3.8.4c.7 0 .6.2 1 0 .8.3.6-.2 1.2 0 .6 0 2.2 0 2-.2.4 0 .7 0 .8-.2H232.8c.3 0 .5.2.5 0 .5 0 .4.3.7.3h.8l1 .2h.7c.5-.2.4 0 .8 0 .2-.3.3 0 1 0 0 0 .2 0 .2-.2h.2c.4 0 .6 0 .8-.2 1 .2 1.5.5 2.7.4h.5c0-.2.3-.2.3-.3h1.5c.6-.2.2.3.7.2h.6l.4.2c.5 0 .3-.3.8-.2h3.9c.4-.2.5 0 .8 0 0-.2.6 0 1 0 .3 0 .4-.3 1-.2.3 0 .2-.2.6-.2.5 0 .3.3.8.3h1.3c.5 0 1.7-.2 2.2 0H260c.7-.2 2 0 3 0 .3 0 .2-.2.7 0 0-.2.5-.2.5-.4.3 0 .4.3.7.3 0 0 0-.2.2-.3.6.3 1.7.2 2.3.4.7 0 1.8.2 2.2 0l2.3-.2a6 6 0 0 0 1.4-.3c.5-.2.5 0 .8.2H278.4c.3 0 .5 0 .6-.3h4.3c.5 0 .5-.2 1 0h1.5c0 .2.3 0 .4.2h1.2c.2 0 .3 0 .4.2.8-.2 2 0 3 0 .4 0 .4-.2.7-.2 0 0 .5 0 .5-.2.4 0 .5.3 1 0h.2l.8.2c.7 0 1.5 0 2-.2h.4v.2h2.6s.5 0 .5-.2h2.1s.2 0 .2.2h.7l.4-.2h.7c.3 0 .7 0 .7.2h1.2l.6-.2h.8c.5.2 1 0 1.3.3.5 0 .8-.2 1.4 0 .4 0 .4-.2.6-.2h2.4c.6.2.5 0 1 0s.3.4 1 .3c0-.2 0 0 0 0 .6 0 .7-.3 1-.4H318v.2h1.9c0-.2.2-.2.3-.2.7 0 1 .2 1.8 0h3.3c.2.2.4 0 .6 0H327.8c.4.2.3 0 .6 0 .8 0 2 .5 2 .3 0 0 .5 0 .5-.2h.4v.2c.2 0 .2-.2.4 0h.7c.2 0 .2 0 .2.2.2 0 0-.2.3-.2h.3c.2 0 .6 0 .7-.2h1.4c.4-.2.5 0 1 0h1.2c.3 0 .6 0 .7-.3.3 0 .3.2.7 0 .4.2.4 0 .8 0l.8.2c.5 0 .5-.3 1-.2h2.7c.4 0 .8.2 1.2.4h1.5c.5 0 1.3 0 1.6-.2l.7.2h1.2c.3 0 1 0 1.3-.2h4.1c.5-.2.4 0 .8 0h.9c1 0 2.4 0 3.5.2h.6c.3 0 .5 0 .5-.2.7 0 .5.4 1 .3.7 0 .8 0 1-.2h7.5s0-.3.2-.2h4.8c.5.2.5 0 .8-.2.5.2.7.2 1.2 0h6.5c.3 0 .6 0 .7.2h.3c.2-.2.4 0 .5 0l.7-.3h1.5a10.6 10.6 0 0 1 2.2 0h2.2c.4-.2 1 0 1.5-.3.3 0 2.2-3.5 1.8-3.5-.3 0 0-.5-.7-.4h-.3v-.4l-.8-.2c0-.2-.2-.6.2-.6.2 0 .3-.2.2-.5 0 0 .4 0 .4-.2h.3c0-.5-.4-.6-.6-.8 0-.4.5-.2 1 0V73s0-.2.2-.2c0 0 .3-.2.5 0H399c0-.4.4-.4.6-.5.3-.2 0-.7.7-.6v-.6c0-.2.5-.2.7-.3-.2-.5.4-.6.4-1a1 1 0 0 1 .5-.2c0 .2 0 0 .2.2 0-.2.3-.3.4-.5.2 0 .4 0 .5-.2.2-.5-.6-.3-.8-.6 0-.5 1 0 1-.7h1v-.5-.4h-.2v-.2l-.2-.2s.3 0 .4-.3c0 0 .4 0 .5-.2v-.4c0-.3-.2-.4-.7-.3 0-.4.5-.4.7-.5 0 0 0-.3-.3-.3l.2-.5c.2 0 0-.3.3-.3 0-.3-.4-.3-.4-.5 0-.4.5-.3.5-.6.3 0 .7 0 1-.2v-.2h-.2l-.2-.3-.3-.2h-.2c0-.3 0-.4-.2-.6h-.3l-.2-.2c.2 0 0-.3.4-.3 0-.2.3 0 .3-.3.4 0 .7-.2 1-.3v-.6s-.3 0-.3-.3c.2 0 0 0 0-.3 0 0 .2 0 .2-.2.3 0 .2-.2.3-.3l.5-.2v-.5s.2 0 .2-.3V57c0-.2.3-.2.3-.4 0-.3 0-.4-.3-.5 0-.2-.5 0-.5-.3h-.3l-.3-.2-.3-.2s-.2 0-.2-.2c-.6.2-.7 0-1-.2 0-.2 0-.5-.3-.5l.2-.3c-.2 0-.3-.3-.3-.5.2-.3-.2-.3 0-.6l-.6-.3v-.2c-.3 0-.3 0-.3-.2h-.7c0-.4.3-.6.8-.5 0-.5.2-.6 0-1 0-.5.6-.5.7-.8 0 0 0-.3.2-.3 0-.3-.4-.3-.3-.6 0 0 .2 0 .2-.3-.3 0-.2-.3-.4-.3l-.2-.3s0-.4.2-.4c0-.2 0-.3.2-.3-.2-.4-.8-.4-1.5-.4 0-.5-.2-.5 0-.8-.2 0 0-.2 0-.2h.4c-.2-.5-.2-.6 0-1 0 0 .2-.2.5-.2l.5-.2s0-.2.2-.2c0-.2-.3-.3-.3-.5l.2-.2v-.2c-.2 0 0-.5 0-.6h-.2c0-.2.2-.2 0-.5 0-.2 0-.3-.2-.3 0 0 0-.3-.3-.4.2 0 .3-.3 0-.5.2 0 0-.2.2-.3l.2-.2c-.4 0-.5-.3-1-.4 0-.3.3-.5.5-.8 0-.2 0-.3-.2-.4.2 0 .2-.2.2-.2.2 0 .2 0 .2-.2 0-.3-.3-.4 0-1 0 0 0-.3.4-.2 0-.2.2-.3.5-.2v-.6c0-.2.3-.2.3-.4 0-.3-.2-.4 0-1 0-.3-.8-.2-.7-.7 0 0 0-.4.4-.5.4 0 .3-.2.6-.2.2-.3-.3-.2-.3-.4s.2-.3.4-.4c.2-.3-.3-.2-.3-.5l.6-.3c0-.2 0-.3-.2-.4.2-.3.6-.3.6-.5.4 0 .2-.3.5-.3.3-.4.4-.8.5-1.2 0-.3.5 0 .5-.3.3 0 0-.4.5-.4.2-.3-.4-.2-.3-.5 0-.4.5-.3.5-.6s-.2-.6 0-1c0-.2.2 0 .4-.2h.4c0-.4-.2-.4-.4-.5 0-.4-.4-.3-.4-.5s.6 0 .5-.3c.2-.3.4-.4.3-.7.3 0 .4-.2.5-.4v-.8-.6l.4-.3.2-.6c0-.3-.3-.4 0-.8v-.4c0-.2.4-.3.4-.6.3 0 .4-.2.5-.3h1c0-.3-.2-.5-.3-.6 0-.3-.3-.2-.3-.5 0-.4.8-.3.7-1 .4.2.3 0 .7 0 .3 0 .5-.2.6-.3 0-.5-.6-.3-.7-.2-.3 0-.5-.2-.8-.3V17c0-.2 0-.4.2-.4 0-.4-.5-.4-.6-.7 0-.3 0-.5.3-.6.2-.2.3-.3.5-.3 0-.2-.3-.3-.3-.5.3 0 0-.4.2-.6 0-.4.4-.4.6-.5 0-.4.3-.4.2-.8l.2-.3c.2 0 .3 0 .4-.2V12h-.2c0-.2.2-.2.2-.3-.2-.2-.2-.3 0-.5 0-.4-.5-.2-.3-.6.2 0 0-.5.2-.7v-.5c0-.3.7-.2.8-.5.6 0 .7-.2 1.4 0 0-.2 0-.2.2-.2h.3c0-.4.2-.6.6-.7v-.3s.3-.2.3-.4c-.3 0-.8 0-1-.2.3 0 .3-.2.3-.3.2 0 .2-.3 0-.3M231.3 30v.3h-.3v.5l-.2.4v.2h-.4v.6c0 .7 0 1-.6 1.4-.4.2-.8.6-1 1l-.8.2c-.3-.5-.3-1.4-.4-2.2v-.8c.4-.4.4-1 .4-1.5.3 0 .4-.3.6-.5 0-.2.2-.3.4-.3l.4-.2v-.3h1c.6-.2 1 0 1.3 0V30h-.4zM228 57.4a2.2 2.2 0 0 0-.2 2l2-.3c1.5 0 2.3-.5 2.7-1.3 0-1.5-1-1.7-1.7-1.7-1 0-2 .6-2.7 1.4" fill="#F4C522" fill-rule="evenodd"/></g></svg>