<svg xmlns="http://www.w3.org/2000/svg" viewBox="0 0 543.24628 354.32999"><path fill="#ffc400" fill-rule="evenodd" d="M116.75 156.53c-3.69.5-3.584 4.8-5.39 7.186 2.614.795-.18 1.576 0 3.592.294 2.086-.396 3.196-1.795 3.59-.56 7.822-2.073 14.693-3.593 21.557v53.885c-1.485 5.074 2.533 4.652 1.797 8.976.14 2.848-.87 6.854 1.79 7.186 1.3 5.496-3.1 5.284-1.8 10.78.95 1.443 1.87 2.913 1.79 5.388.83 6.345 4.53 9.83 7.18 14.367.45.65-.59 3.112 0 3.593.21.17 1.69-.224 1.79 0 .3.652-.53 3.165 0 3.594.19.155 1.71-.202 1.79 0 1.2 2.95-.26 5.362 1.79 7.185.98 2.6-2.1 9.28 1.79 8.97-2.31 4.87-4.39 9.97-3.59 17.96-1.82-1.02-1.32 1.58-1.8 1.79-2.83 1.21-6.21-1.01-5.39 3.59-.94 2.65-2.66 4.52-3.6 7.18-3.35.24-6 1.18-7.19 3.59-3.567.02-2.28 4.9-7.18 3.59-.295-2.1-3.28-1.52-5.39-1.8-.797-1.6-1.58-3.21-3.595-3.59-.22-3.97-7.62-.76-10.78-1.8-.044-1.75-2.193-1.39-3.59-1.8.33-1.53-.7-1.7-1.794-1.8-.797-1.6-1.58-3.21-3.593-3.59-.29-2.11-3.277-1.52-5.387-1.8-.29-2.11-3.27-1.52-5.39-1.8-.95-1.45-1.87-2.92-1.79-5.39-2.09.29-3.196-.4-3.59-1.8-3.06.66-3.39-1.4-3.6-3.59-1.742-.05-1.39-2.2-1.792-3.59-3.66-.53-3.52-4.86-7.185-5.39-.44-1.95-3.57-1.22-3.59-3.59-1.453-.34-1.79-1.8-3.59-1.8-1.92-1.68-.56-6.63-5.39-5.39-.25-6.34-5.14-8.03-5.39-14.37-.05-1.75-2.2-1.394-3.59-1.795.33-1.53-.7-1.698-1.8-1.8-2.353-.634-2.82-3.16-5.385-3.59 1.516-7.504-3.492-8.486-3.59-14.37 1.516-7.5-3.494-8.48-3.594-14.37-.4-18.16 1.26-38.38-1.794-53.89 1.68-12.09 2.25-25.29 1.8-39.51-.738-4.33 3.276-3.907 1.795-8.986 4.87 1.284-1.29-8.47 3.58-7.187-.29-2.09.4-3.197 1.8-3.59-.297-2.09.393-3.2 1.792-3.6-.5-4.094.43-6.75 3.59-7.18-1.41-7.4 2.76-9.22 1.794-16.17 1.6-.795 3.216-1.576 3.59-3.59-.33-3.915 1.47-5.71 5.39-5.385 1-2.59 2.8-4.39 5.39-5.39-1.28-6.67 3.06-7.71 1.79-14.38 2.41-1.18 3.35-3.84 3.6-7.19 2.58-1 4.38-2.8 5.384-5.384 1.11-6.68 4.28-11.29 5.39-17.96 1.95-.45 1.22-3.58 3.59-3.6.34-1.45 1.8-1.79 1.8-3.59 2.586-1.01 4.38-2.8 5.387-5.39 2.27-5.51 6.11-9.45 8.98-14.37 3.57-.026 2.28-4.9 7.18-3.594.2-3.39 5.94-1.25 5.39-5.39 2.66-.93 4.53-2.65 7.19-3.59-.55-4.14 5.19-1.99 5.39-5.39 5.03-.95 9.337-2.63 14.37-3.59.556-2.433 4.5-1.49 7.185-1.793.78-2.21 2.296-3.687 5.388-3.59 4.16-.574 6.89.286 8.98 1.795 3.22.222 3.79-2.2 7.18-1.8 2.98 3.01 10.55 1.43 16.17 1.792 2.3-.45 4.127-2.92 7.187-3.59 3.8-.83 9.8.62 14.37 0 5.68-.296 6 4.77 12.57 3.59 3.67 1.72 7.11 3.67 10.775 5.39 2.09-.29 3.2.4 3.6 1.794-.33 1.53.7 1.7 1.795 1.8.634 2.36 3.16 2.825 3.594 5.39 3.79 1.595 5.31 5.465 10.775 5.386-.076 3.075 1.34 4.655 3.59 5.39-.5 2.903 1.7 3.093 1.8 5.39 1.624 3.17 4.02 5.564 7.186 7.19-.86 5.65 2.56 7.02 3.595 10.774-1.302 5.5 3.098 5.287 1.798 10.78 2.07 2.12 2.04 6.35 1.8 10.78-1.3 5.494 3.1 5.285 1.8 10.776-.47 7.92-2.878 13.894-1.8 23.354.34 7.53-8.82 5.55-7.19 14.37-.02 3.57-4.9 2.28-3.59 7.18-1.51 2.08-2.37 4.81-1.79 8.98-5.78 3.2-9.11 8.85-10.78 16.17-4.906-1.31-3.62 3.57-7.19 3.59.55 4.14-5.19 1.99-5.39 5.39-5.49 1.69-5.63 8.74-12.57 8.98-1.45.26-1.8 1.9-3.59 1.79.22.01-.68-1.74-1.8-1.8-.6-.03-1.2.026-1.797 0-4.17.57-6.9-.29-8.983-1.798-4.33-.734-3.908 3.284-8.98 1.8-2.61.982-5.79 1.84-8.98 1.796-3.74-1.05-5.81-3.775-8.98-5.39-.3-2.1-3.28-1.51-5.39-1.79-1.46-.347-1.79-1.806-3.6-1.8-.44-1.95-3.57-1.22-3.59-3.597-2.9.5-3.094-1.7-5.39-1.8-.444-1.954-3.57-1.223-3.59-3.595h-5.39zM431.08 32.593c5.772-1.58 2.464 5.92 7.186 5.39.526 3.66 4.857 3.52 5.39 7.185 7.484-.902 7.92 5.25 16.162 3.593-.47 5.26 4.063 5.52 3.593 10.78 4.21.59 1.75 7.84 5.39 8.98v12.57c.45.65-.58 3.12 0 3.6.11.09 1.79-.08 1.8 0 .09 1.44-2.14 1.82-1.79 3.6 2.91-1.28 2.91 8.47 0 7.19-.73 4.33 3.28 3.91 1.8 8.98.74 4.33-3.28 3.91-1.79 8.98-1.54 1.45-1.07 4.92-3.59 5.39 1.24 7.22-1.72 10.26-1.79 16.17-3.86 1.52-2.89 7.88-5.38 10.78-1.74.05-1.39 2.2-1.79 3.6-1.52-.33-1.69.7-1.79 1.79-.95 1.45-1.87 2.92-1.79 5.39-2.59.41-.63 5.36-3.592 5.39.51 2.9-1.692 3.1-1.79 5.39-2.493 2.3-1.1 8.48-3.59 10.78-5.09.3-7.486 3.3-12.576 3.6.2-5.18-5.752.29-7.185 0 .03.01-.46-2.87-1.79-1.79-2.656.94-4.525 2.66-7.18 3.59-1.456.34-1.793 1.8-3.593 1.8-2.09-.29-3.192.4-3.59 1.8-2.08-1.51-4.813-2.37-8.98-1.8.55-4.14-5.19-1.99-5.39-5.38h-12.6c-9.41-.77-7.7-12.656-19.76-10.78-2.087-.29-3.195.397-3.588 1.796.33 1.53-.7 1.7-1.79 1.8-1.54 1.45-1.07 4.92-3.59 5.39-1.77 4.22-3.15 8.828-3.59 14.37-3.39.197-1.24 5.94-5.39 5.386 1.31 4.907-3.57 3.62-3.59 7.19-2.47 11.9-2.57 26.17-5.39 37.72-.76 3.76 1.23 4.76 1.8 7.19.23 3.22-2.2 3.785-1.8 7.18 2.5 5.724 1.73 15.346 1.8 25.15.57 4.215 2.84 6.74 1.8 12.57 4.21.585 1.74 7.84 5.39 8.984-1.3 4.09-1.6 9.18-3.59 12.57 1.09 4.31 2.59 8.2 1.8 14.374-3.574 1.81-7.67 3.1-8.98 7.18h-10.78c-1.45 1.24-4.92 2.79-5.39 0-6.94-.36-13.235-.065-17.96 1.795-.53-3.66-4.864-3.52-5.39-7.18-.53-3.67-4.86-3.53-5.39-7.19-1.455-.34-1.79-1.8-3.59-1.8-2.09.29-3.2-.4-3.595-1.8-2.36-.632-2.825-3.16-5.39-3.59.57-7.153-8.307-4.863-8.98-10.776-8.2-4.97-12.01-14.335-21.56-17.96.187-5.57-2.19-8.58-3.583-12.57-3.17-1.625-5.565-4.02-7.19-7.19-.15-2.84.866-6.85-1.794-7.185 2.57-14.62-5.63-26.77-1.8-41.31.12-.46 1.71-.153 1.796-1.794.13-2.442-.1-10.92 0-16.166-.23-3.22 2.194-3.786 1.79-7.185 2.59-.406.63-5.36 3.596-5.386.16-2.55.3-5.09-1.79-5.39 1.807-2.39 1.7-6.688 5.39-7.188-.263-4.45-.34-8.716 3.59-8.98-1.41-7.394 2.76-9.216 1.8-16.164 2.41-1.18 3.344-3.84 3.59-7.185 3.394-.2 1.245-5.94 5.39-5.39.63-2.36 3.16-2.828 3.59-5.39 1.49-4.5 4.92-7.06 5.39-12.577 3.94-2.04 5.96-6.007 10.77-7.186-.074-3.07 1.34-4.65 3.595-5.39 1.547-1.45 1.07-4.92 3.59-5.39 1.55-1.453 1.07-4.925 3.596-5.39 1.6-.796 3.21-1.58 3.59-3.593-.32-6.31 6.07-5.91 7.182-10.78 4.08-1.31 5.37-5.406 7.18-8.98 3.92-2.067 11.62-.36 12.58-5.39 5.47.08 6.983-3.79 10.78-5.387h10.77c4.45-2.74 10.68-3.69 12.57-8.98 2.59-1.007 4.385-2.8 5.39-5.39 1.45-1.54 4.92-1.067 5.39-3.59 3.92.33 5.713-1.47 5.39-5.39 3.345-.245 6-1.18 7.183-3.59 1.46-.34 1.79-1.8 3.597-1.795 2.09.29 3.195-.4 3.59-1.796 1.448-1.55 4.92-1.07 5.39-3.595 2.11.664 5.16-.866 7.18 0 .81.346-.12 1.687 1.8 1.797 3.785.22 4.73-.82 7.184-1.79 5.68-.3 6.005 4.775 12.576 3.59 6.54.557 11.683-.28 16.16-1.793" class="quotes"/></svg>