<svg xmlns="http://www.w3.org/2000/svg" viewBox="0 0 543.24628 354.32999"><path fill="#ffc400" fill-rule="evenodd" d="M354.004 326.522c-.014-4.33.62-9.313-1.633-11.415 1.65-1.865 2.57-5.313 0-8.157-.76-5.115 4.11-4.6 6.53-6.526.48-3.325 4.41-3.2 4.9-6.527 3.33-.48 3.2-4.412 6.53-4.895.4-1.768 3.24-1.107 3.27-3.262 1.32-.31 1.63-1.633 3.26-1.633 1.77-.398 1.11-3.24 3.27-3.262.31-1.323 1.64-1.625 1.63-3.263.91-2.347 2.54-3.98 4.9-4.895 3.35-.455 3.26-4.35 4.89-6.52 3.76.497 1.82-4.716 4.89-4.893.48-3.325 4.42-3.203 4.9-6.528 1.59-.047 1.27-1.996 1.63-3.262.31-1.323 1.64-1.625 1.63-3.264 5.96-1.115 3.84-10.305 9.79-11.42-1.18-4.99 2.82-4.8 1.63-9.79.02-3.243 4.46-2.073 3.27-6.526 1.59-.042 1.27-1.997 1.63-3.263.31-1.31 1.64-1.62 1.64-3.25v-9.79c-3.94-3.12-13.11-1.03-19.58-1.63h-21.21c-5.72-.8-10.62-2.43-17.94-1.63-.04-1.59-1.99-1.26-3.26-1.63.31-1.39-.63-1.54-1.63-1.63-1.31-.85-2.65-1.69-4.89-1.63-.37-2.34-4.87-.57-4.89-3.26h-6.53c.5-3.75-4.71-1.81-4.9-4.89-2.35-.91-3.98-2.55-4.89-4.89-4.29-1.68-5.49-6.47-9.79-8.16-1.27-3.62-.94-8.84-4.89-9.78.59-8.2-1-14.22-3.26-19.58v-32.63c.54-3.8 1.96-6.74 3.26-9.78v-14.7c2.05-.4 1.64-3.24 0-3.26v-6.53c1.58-.04 1.27-1.99 1.63-3.26 1.38.31 1.54-.63 1.63-1.63.86-1.3 1.7-2.65 1.63-4.89 2.88-1.48 5.06-3.65 6.53-6.53 1.58-.04 1.27-2 1.63-3.26 1.39.3 1.54-.64 1.63-1.63 1.77-.41 1.1-3.25 3.26-3.27 1.77-.4 1.1-3.25 3.27-3.26-.46-2.64 1.53-2.81 1.62-4.89 2.15-1.66 6.02-1.6 8.16-3.26.48-3.33 4.41-3.2 4.9-6.53h6.53c2.88-1.48 2.7-6 6.53-6.52-.7-4.51 6.08-1.53 6.53-4.9 2.58.13 6.22-.79 6.53 1.63 1.31-.86 2.65-1.7 4.9-1.63 5.39-1.68 12.46-1.68 16.31-4.9h9.79c4.45 1.19 3.28-3.25 6.53-3.27 16.28.04 29.43 3.2 44.05 4.9.59.42 2.83-.53 3.27 0 .19.24-.25 1.48 0 1.63.828.54 2.52.93 3.26 1.64.91.86.81 2.29 1.63 3.26.43.51 2.27.02 1.63 1.63 2.14.58 2.57 2.87 4.9 3.27.04 1.59 1.99 1.27 3.26 1.64-.3 1.39.63 1.54 1.63 1.63 2.35.91 3.98 2.55 4.898 4.89 2.79-.07 4.22 1.21 4.9 3.26 2.78-.07 4.22 1.22 4.88 3.27 3.41-.7 4.32 1.11 6.525 1.63 1.405 1.31.97 4.47 3.26 4.89.87 1.31 1.71 2.64 1.63 4.89 4.157.2 6.33 2.37 6.53 6.53 2.88 1.48 2.7 6.01 6.526 6.53 1.473 2.88 3.65 5.06 6.525 6.53.21 2.93-1.992 3.45-1.63 6.53 1.45.72 2.92 1.43 3.26 3.26 2.26 2.63 1.38 8.41 4.9 9.79.22 9.57 3.81 15.78 3.27 26.1-.26 4.07 2.56 5.06 3.26 8.16.01 4.34-.62 9.32 1.63 11.42.12 6.96-.76 15.19 1.63 21.21v19.57c-.25 7.54-4.62 13.46-1.63 19.58.46 2.64-1.54 2.81-1.63 4.9-2.05.4-1.64 3.24 0 3.26.14 2.32.27 4.62-1.63 4.89.14 2.32.27 4.63-1.63 4.9-.02 4.34.61 9.32-1.63 11.42-1.91.26-1.37 2.98-1.63 4.9V245c-2.19 1.07-3.03 3.49-3.26 6.525-3.77-.5-1.81 4.72-4.9 4.9-.56 3.27.33 5.1 3.26 4.89-.37 2.343-4.86.56-4.89 3.26-.86 1.304-1.7 2.64-1.63 4.89-4.192.15-2.334 6.36-6.53 6.52.43 4.776-3.69 5.02-3.26 9.79-.935 3.41-4.04 4.66-3.26 9.79-3.044 1.3-5.98 2.725-9.79 3.26-1.42 2.39-2.44 5.17-6.52 4.895-1.48 2.88-3.655 5.055-6.526 6.53-1.67 2.14-1.61 6.01-3.27 8.156-.59.41-2.83-.53-3.264 0-.24.3.28 1.37 0 1.64-.28.27-1.35-.272-1.63 0-.22.217.25 1.477 0 1.636-.79.48-2.4-.37-3.26 0-.25.1-.214 2.52-1.63 1.63-.48 3.324-4.416 3.193-4.9 6.52-.02 3.24-4.45 2.08-3.263 6.524-8.263-.11-10.54 5.77-17.934 6.53-1.457.72-2.92 1.43-3.27 3.26-2.32-.132-4.62-.27-4.89 1.638-1.46.72-2.92 1.43-3.27 3.26-1.9-.26-2.9.36-3.26 1.63h-8.16c-2.31-.13-4.62-.26-4.89 1.64-2.31.13-4.62.26-4.89-1.64-1.31.86-2.65 1.7-4.9 1.636-7.29-1.41-13.44-3.97-22.84-3.27.05-4.943-8.21-1.58-8.16-6.53-1.32-1.4-4.47-.97-4.89-3.26-1.31-.86-2.65-1.7-4.89-1.63-.05-1.585-2-1.27-3.27-1.63.294-1.386-.635-1.54-1.63-1.634-.407-1.77-3.245-1.1-3.265-3.26-1.45-.73-2.92-1.44-3.265-3.27-1.77-.4-1.11-3.24-3.26-3.26M81.6 305.35c-.95-5.297 1.11-7.597 1.63-11.424 1.17-4.986-1.67-5.95-1.64-9.79 1.77-.4 1.11-3.245 3.26-3.265.87-1.31 1.71-2.64 1.63-4.9 1.3-3.04 2.73-5.97 3.26-9.78 3.82-.53 1.59-7.12 4.9-8.16.725-1.45 1.434-2.92 3.265-3.26-.26-1.9.36-2.9 1.635-3.26-1.31-5.66 2.43-6.27 1.63-11.42 1.91-.26 1.38-2.97 1.63-4.89 1.32-.31 1.63-1.64 3.26-1.63.46-2.63-1.54-2.81-1.63-4.89-.46-2.62 1.55-2.8 1.64-4.89.936-2.86-1.98-9.58 1.63-9.78-1.664-8.44-.59-10.6 0-19.58-.404-1.76-3.24-1.1-3.263-3.26H99.5c-.046-1.58-1.994-1.27-3.26-1.63-1.323-.31-1.626-1.64-3.264-1.63-1.04-.19-2.236.26-3.263 0-.646-.16-2.106-1.63-1.63-1.63-1.322 0-1.625 1.89-3.265 1.63H73.41c-5.66-.86-8.69-4.36-14.686-4.89-4.055-1.93-9.604-2.36-14.684-3.26-.18-3.07-5.39-1.12-4.895-4.89-2.14-.57-2.56-2.87-4.89-3.26-2.02-3.41-4.74-6.13-8.154-8.15-.31-1.33-1.63-1.64-1.63-3.27.27-1.9-.35-2.9-1.63-3.26-.91-2.36-2.54-3.99-4.89-4.9 1.51-7.49-4.07-7.88-3.25-14.68-2.19-1.07-3.04-3.49-3.26-6.53-.57-2.14-2.87-2.56-3.26-4.89v-6.53c-2.05-.4-1.64-3.24 0-3.26.77-5.12-4.39-4.31-4.89-8.15-1.35-4.61 2.3-4.22 1.63-8.16-1.88-1.93-1.85-5.77-1.63-9.79-4.43 1.16 1.16-7.69-3.26-6.53 3.12-3.94 1.02-13.11 1.63-19.58 1.29-9.57 9.44-12.3 9.79-22.83 3.96-2.57 7.22-5.83 9.79-9.79.91-2.34 2.54-3.97 4.89-4.89.85-2.41 2.42-4.11 3.26-6.52 4.06.26 5.06-2.56 8.16-3.26 5.24 1.43 3.39-4.23 6.53-4.9 5.2 1.41 5.04-2.57 8.16-3.26 3.32-.47 3.2-4.41 6.53-4.88h9.79c2.14 1.956 2.56.63 4.89 0C75.58 2.99 76 .69 78.33.3c.98.65 4.09-.82 4.9 0 .09.09-.08 1.624 0 1.63C85.87 2.07 86 .552 88.1.26c.264 1.906 2.976 1.37 4.896 1.63h4.896c5.57.41 7.84 4.124 14.69 3.256 5.52.46 9.37 2.6 16.31 1.63.456 3.36 6.08 1.54 6.527 4.897 4.99-1.184 4.8 2.816 9.79 1.63 1.93 2.426 1.41 7.29 6.53 6.53.4 1.775 3.24 1.107 3.26 3.26 2.63-.46 2.81 1.544 4.89 1.634 1.83 4.15 4.01 7.957 6.53 11.42 4.12 1.308 4.16 6.71 6.52 9.79 3.76-.503 1.81 4.708 4.9 4.895-.21 2.93 2 3.44 1.63 6.53 2.15.57 2.57 2.87 4.9 3.255 1.4 1.32.97 4.474 3.26 4.894v8.16c2.01.72 3.35 2.09 3.26 4.9 2.62 2.82.79 10.08 4.89 11.42.07 5.37 2.75 8.12 1.63 14.68 4.1 1.33 2.28 8.6 4.89 11.42.52 3.79-.26 6.26-1.63 8.16.58 1.26 1.29 1.7 1.63 3.26.33 1.53-.45 3.4 0 4.9.71 2.36 2.71 4.71 3.26 6.53.53 3.79-.26 6.27-1.63 8.16 1.59.04 1.27 2 1.63 3.27v4.9c1.79 4.74 1.48 11.57 3.27 16.31 1.15 6.05-2.79 7.01-1.63 13.06-1.12 6.56 1.56 9.31 1.63 14.68-1.38 6.24-2.14 13.09-1.63 21.2.25 4.06-2.56 5.06-3.27 8.16v11.42c.27 1.9-.36 2.91-1.63 3.26.27 1.9-.36 2.91-1.63 3.27.52 3.79-.27 6.26-1.64 8.16-.22 3.04-1.08 5.45-3.27 6.53.14 2.58-.79 6.22 1.63 6.53-.58 2.14-2.87 2.56-3.27 4.89-1.58.05-1.26 2-1.63 3.26-1.38-.29-1.53.64-1.63 1.63-1.4 1.32-.97 4.48-3.26 4.9-1.4 1.31-.97 4.47-3.27 4.89 1.44 5.25-5.38 2.24-4.89 6.53-3.33.48-3.2 4.41-6.52 4.9.72 6.16-3.22 7.66-4.89 11.42-.58 2.14-2.87 2.56-3.26 4.9.45 2.63-1.55 2.81-1.63 4.9-3.34 1.56-6.46 3.33-9.79 4.89-.38 2.36-4.87.57-4.9 3.27-2.64-.46-2.81 1.54-4.9 1.63h-31c-.27-1.91-2.98-1.37-4.9-1.63-.26-1.91-2.98-1.37-4.9-1.63-.49-3.33-4.42-3.2-4.9-6.52-.18-3.09-5.4-1.14-4.9-4.9-5.24 1.43-2.24-5.38-6.53-4.89-.18-3.08-5.39-1.13-4.9-4.89" class="quotes"/></svg>