<svg xmlns="http://www.w3.org/2000/svg" viewBox="0 0 530.54406 694.99447"><path d="M134.922 694c0-.55-.63-1-1.397-1-3.87 0-11.448-12.875-19.5-33.126-2.323-5.844-5.114-11.582-6.203-12.75-3.195-3.43-10.44-2.895-20.148 1.488-10.964 4.95-14.75 5.35-19.508 2.067-2.06-1.423-5.925-3.548-8.59-4.722-2.665-1.175-6.49-3.595-8.5-5.377-2.01-1.78-6.58-4.604-10.154-6.272-3.575-1.668-8.923-4.98-11.883-7.36C21.025 620.503 10.193 605.26 6.335 595c-1.758-4.675-3.918-9.85-4.8-11.5-2.133-3.994-2.036-7.756.238-9.176 1.164-.727 2.087-2.866 2.483-5.758.704-5.136 2.756-9.64 6.353-13.95 1.324-1.585 3.278-4.59 4.343-6.677 1.064-2.087 2.746-4.052 3.738-4.367 2.524-.8 9.2-10.022 11.22-15.498 1.52-4.116 3.855-8.176 8.523-14.822 2.872-4.09 7.164-5.39 22.375-6.78 8.037-.732 17.764-2.03 21.614-2.885 3.85-.854 8.894-1.56 11.21-1.57 4.867-.02 7.007-1.885 13.218-11.518 3.38-5.243 3.954-7.01 4.543-14 .372-4.4 1.317-10.84 2.102-14.312 1.793-7.933 1.767-16.9-.086-29.688-2.935-20.253-1.487-42.124 3.938-59.5 2.08-6.658 2.416-10.25 3.008-32 .366-13.475 1.372-29.882 2.234-36.46 1.684-12.848 1.377-21.758-1.12-32.54-2.162-9.33-1.946-22.802.547-34.047 2.826-12.745 2.24-26.717-2.09-49.75-3.133-16.673-3.194-17.483-1.702-22.5.85-2.86 1.844-7.003 2.206-9.203.362-2.2 2.25-7.375 4.194-11.5 2.782-5.903 5.28-9.203 11.738-15.5 7.305-7.124 10.002-8.928 24.63-16.477l16.43-8.477 10.56-.377 10.56-.378 10.2 5.117c8.45 4.24 11.61 6.532 18.44 13.373 8.807 8.824 15.94 13.138 21.74 13.15 2.038.004 6.635-1.547 11.008-3.713 4.13-2.046 8.5-3.72 9.713-3.72 1.213 0 4.488-.9 7.28-2 3.377-1.332 7.65-2.036 12.786-2.11 4.24-.058 10.412-.396 13.712-.75 5.743-.613 6.053-.79 7.252-4.14.777-2.173 1.045-5.928.706-9.907-.662-7.765-6.08-32.45-7.908-36.023-.722-1.414-1.642-4.595-2.044-7.07-.402-2.475-1.398-6.075-2.215-8-3.087-7.28-6.267-20.726-6.28-26.554-.014-7.282 3.2-14.52 8.8-19.82 2.028-1.92 5.654-5.323 8.056-7.56L314.156 0h13.823c7.603 0 14.077.41 14.388.913.31.502 2.382 1.22 4.603 1.595 4.74.8 8.822 4.61 13.828 12.91 2.696 4.47 3.534 7.16 4.16 13.366.43 4.273 1.435 9.332 2.232 11.243 3.522 8.443 5.027 14.16 6.31 23.973.754 5.775 2.32 14.96 3.478 20.412 1.158 5.452 2.913 14.677 3.9 20.5 1.303 7.7 3.017 13.317 6.277 20.588 5.804 12.942 8.355 20.903 10.255 32 1.454 8.49 4.64 18.283 6.966 21.402.575.772 1.315 5.722 1.643 11 .328 5.28 1.326 11.848 2.217 14.598 3.54 10.92 4.9 18.714 6.11 35 1.165 15.68 1.5 17.466 4.316 23 2.045 4.02 4.49 7.028 7.406 9.116 2.393 1.714 6.377 4.72 8.852 6.684 2.475 1.962 8.615 5.6 13.644 8.082 5.833 2.88 9.932 5.62 11.318 7.566 1.196 1.678 3.005 3.052 4.02 3.052 1.016 0 5.245 1.8 9.397 4 4.154 2.2 8.158 4 8.9 4 .74 0 2.67 1.402 4.284 3.115 1.616 1.713 4.738 3.91 6.938 4.88 4.486 1.978 22.906 19.977 27.578 26.947 1.638 2.443 3.67 6.827 4.518 9.74.847 2.916 2.452 5.94 3.567 6.72 2.02 1.414 2.017 1.433-.474 5.758-1.374 2.387-3.314 6.974-4.31 10.194-1.063 3.44-3.31 7.563-5.45 10-2.004 2.28-4.56 5.946-5.68 8.146-2.35 4.618-3.975 6.15-10.425 9.83-2.572 1.467-5.947 4.18-7.5 6.027-1.553 1.847-4.09 3.663-5.637 4.036-2.81.676-7.07 4.105-13.03 10.485-1.736 1.86-8.408 8.633-14.827 15.055-8.136 8.14-11.932 12.687-12.535 15.016-1.09 4.208-.06 14.962 3.398 35.47 2.462 14.602 2.716 18.516 2.76 42.58.052 28.635.45 25.812-6.006 42.5-3.238 8.368-9.855 16.205-14.945 17.702-5.738 1.688-34.5 1.63-42.223-.083-6.098-1.354-6.337-1.326-11.87 1.382-3.47 1.697-8.864 5.913-13.982 10.928-6.21 6.086-10.7 9.422-17.63 13.096l-9.296 4.93-11.176.378c-11.1.375-11.225.353-18.61-3.2-9.504-4.57-14.96-8.715-28.162-21.392-11.442-10.987-10.914-10.14-23.373-37.492-2.767-6.078-3.363-6.75-5.977-6.75-1.597 0-5.108 1.193-7.802 2.65-2.694 1.458-6.784 3.386-9.09 4.283-2.58 1.005-7.673 5.002-13.25 10.4-10.408 10.076-10.714 11.096-6.968 23.224 1.16 3.755 1.87 8.143 1.595 9.856-.955 5.96-4.676 14.812-7.647 18.196-4.36 4.964-5.503 7.56-12.182 27.66-7.403 22.274-8.762 24.987-16.528 32.977-5.307 5.46-7.37 6.805-14.72 9.596-4.7 1.786-8.812 3.677-9.136 4.202-.8 1.295-21.472 1.25-21.472-.045z" fill="#fdcb2e"/></svg>