<svg xmlns="http://www.w3.org/2000/svg" viewBox="0 0 210 297"><path d="M119 136.3v.5h-.2v.4c-.3 0-.2.2-.3.2v.3l-.2.4c0 .2.2.2.4.3h.2v-.2h.2a.3.3 0 0 1 .2 0h.8a.3.3 0 0 0 .2.3l.2.6-.2.2s0 .2-.2.3c0 0 0 .2-.3.2l-.3.3h-.3v.5h-.5c-.2 0-.3.2-.3.3h-.3c-.2 0 0 .3-.3.3v.3s-.3 0-.3.2l-.4.5c-.2 0 0 .3-.2.3v.2l-.4.2v2c-.2.3-.3.6-.3 1l-.2.2v.5c0 .2-.2.2-.2.5 0 0-.2 0-.2.2l-.2 1.3s0 .2-.2.3c0 .2 0 .3-.2.3v.7c-.2 0 0 .2-.3.2l-.2.6s0 .2-.2.3h-.2v.5c0 .2-.2.2-.2.3 0 0-.2 0-.2.2 0 0 0 .2-.2.2 0 .2 0 .2-.2.2 0 .2-.2.2 0 .5-.3 0-.5 0-.5.2 0 0 0 .2-.2.2v.3c-.3 0-.4.2-.6.3 0 0-.2 0-.2.2h-.2c0 .2 0 .3-.3.2v.3a.3.3 0 0 0-.3.2c0-.2 0 0-.2 0 0 0 0 .2-.2.3l-.2.3h-.2c0 .2 0 .2-.2.2a.3.3 0 0 1-.2.2v.2c-.4 0-.4.2-.6 0v.3h-.3c-.4 0-.6.2-1 .3l-.3.3c0 .2-.3.2-.4.2-.2 0-.3 0-.3.3a.3.3 0 0 1-.2 0v.2h-.4-.5c0 .2-.2.2-.3.2h-.9c-.5 0-1 .3-1.4.3h-.7-.2a.5.5 0 0 0-.2 0h-.7c-.3 0-.6 0-.7-.2h-3.3c-.2 0-.2-.3-.4-.2 0 0-.2 0-.3-.2h-.2v-.2a.5.5 0 0 0-.3-.3v-.3s-.3 0-.3-.2H94h-.2c0-.2 0 0-.2-.2h-.4c0-.2-.2-.2-.3-.2h-.2l-.4-.2c-.2 0-.5 0-.7-.2h-.2-.2c-.2-.2-.2-.4-.2-.6v-.3-.2c0-.2.3-.2.4-.2 0 0 .2 0 .2-.2.2.2.2 0 .4 0h.2c.3-.2.7 0 1-.3H94.6l.5-.3h1s0-.2.3-.2h.3v-.3-.2c-.3 0-.2-.2-.4-.2v-.2-.3H96v-.2a.8.8 0 0 0-.4-.3c-.2 0-.2-.3-.3-.3l-.2-.2c0-.3-.2-.6-.3-.8 0-.3-.2-.5-.3-.7v-1.2-.2h.2l.2-.4v-.5c-.3 0-.3-.2-.4-.3 0-.2-.2-.2-.2-.3-.2 0-.2-.2-.3-.3 0 0-.3 0-.2-.3-.2 0-.2-.2-.3-.2 0-.3 0-.4-.2-.6 0-.2-.2-.3-.3-.4 0-.2-.3 0-.3-.4v-.2l.2-.4s0-.3.2-.4v-.2h.2v-.3-.7c0-.2-.2-.2-.2-.3v-.2c0-.4-.3-.6-.4-.8v-.3-.2-.6-1.2c0-.3 0-.2.2-.4v-.2h.3v-.4s.2 0 .2-.2v-.2s.2 0 0-.2c.2 0 .2 0 .2-.2s.2-.2.2-.3v-.3h1s.2 0 .3.2v.3h.3c.3 0 .3.3.4.3 0 0 .2 0 .3.3 0 0 0 .3.3.2 0 .2 0 .3.2.3v.2h.5v.2h.2c0 .2.2.2.3.2 0 0 0 .2.2.3h.2l.2.4h.2a.3.3 0 0 0 .2.2v.2c.2 0 .4 0 .4.2 0 0 .2 0 .2.2h.2v.2h.3s0 .3.2.3l1 .2.4.3h1c.3 0 .3.2.5.2H104v-.2s.2 0 .2-.2l.2-.4s.2 0 .3-.2c0-.2.2-.2 0-.5h.2v-.2-.2h.4v-.3c0-.2.2-.3 0-.5l.3-.5v-.5-.6h.4c.2-.2.4 0 .5 0l.3-.3c.2 0 .2-.2.3-.2h.2l.4-.3h.7s0-.2.2-.2.2 0 .3-.2a.5.5 0 0 0 .3-.3h.4c0-.2.2-.2.3-.3h1.6v.2h.2s0 .2.2.2h.2c0 .3.2.2.2.3h.3c.2 0 .2 0 .3.2H113.7v.2a.3.3 0 0 0 .3 0h.4l.4.2a.5.5 0 0 0 .2.2v.2h1.1c.3 0 .4-.2.6 0v-.3H117.3s.2 0 .2-.2c.2.2.2 0 .3 0h1.1c.2 0 0 0 0 0 .2 0 .2 0 .3.2" fill="#fff" fill-rule="evenodd"/></svg>