<?xml version="1.0" encoding="UTF-8" standalone="no"?>
<svg width="512px" height="512px" viewBox="0 0 512 512" version="1.1" xmlns="http://www.w3.org/2000/svg" xmlns:xlink="http://www.w3.org/1999/xlink">
    <!-- Generator: Sketch 3.7.1 (28215) - http://www.bohemiancoding.com/sketch -->
    <title>T_ampersand_white.ai</title>
    <desc>Created with Sketch.</desc>
    <defs>
        <polygon id="path-1" points="0 512.734278 512 512.734278 512 0.734277505 0 0.734277505"></polygon>
    </defs>
    <g id="Page-1" stroke="none" stroke-width="1" fill="none" fill-rule="evenodd">
        <g id="T_ampersand_white.ai" transform="translate(0.000000, -1.000000)">
            <g id="g4517" transform="translate(256.000000, 257.234278) scale(1, -1) translate(-256.000000, -257.234278) translate(0.000000, 0.734278)">
                <g id="g4519">
                    <g id="g4521-Clipped">
                        <mask id="mask-2" fill="white">
                            <use xlink:href="#path-1"></use>
                        </mask>
                        <use id="path4525" fill="#F4C522" xlink:href="#path-1"></use>
                        <g id="g4521" mask="url(#mask-2)">
                            <g transform="translate(99.000000, 64.000000)" id="g4527">
                                <g transform="translate(0.259483, 0.108269)">
                                    <path d="M135.637918,103.507629 L131.263781,100.929736 L131.176563,99.5541244 C126.880812,98.2370256 124.216805,96.0035881 123.207729,92.9388216 C120.329542,91.4781999 117.501037,90.0175781 114.665907,88.5856609 C111.594516,87.0378214 108.544102,85.4204284 105.450631,83.8736929 L87.7432142,83.7886832 C86.9416939,84.3903755 86.110365,84.8617931 85.2657878,85.2769055 L84.1705975,86.3080625 L81.7284997,88.685023 L79.7092426,89.7029317 L77.0684207,92.4950046 L74.5115047,94.5705669 C74.1250968,94.9591828 73.5664614,96.4617574 73.1369966,97.4642098 C72.6070658,98.8828787 72.0197259,100.42851 71.1033872,101.917837 C70.8019891,104.510081 71.3749767,106.027008 72.3056677,108.375264 C73.2937678,110.925556 74.5976184,114.260808 74.4110386,118.944071 C76.7460462,121.379545 78.356815,124.687197 79.1086543,128.939891 C80.1817642,129.755764 81.0197173,130.644502 81.6865468,131.374261 L82.6525665,132.363465 L87.829328,138.907006 C87.7145097,140.854502 88.1296221,141.327024 90.9371513,143.432394 C92.7411241,144.793654 94.9756656,146.467352 96.6725482,149.030893 L96.8006148,149.030893 C98.2546124,146.95533 100.101642,145.65148 101.419845,144.677732 L103.067046,143.347385 L103.367341,142.171601 C104.31128,139.508698 105.578698,137.360271 106.697072,135.470184 C107.642116,133.923449 108.457988,132.505884 108.995647,131.073967 L110.175847,127.779564 L113.548636,127.049805 C114.508032,126.821272 115.195838,126.047352 116.699516,123.99939 C118.63266,121.464555 121.59696,117.540859 127.196562,116.281169 C129.473056,112.456835 133.232253,110.581101 135.938212,109.235298 C137.721209,108.333311 138.945569,107.731619 139.397115,107.059269 C139.375034,105.798476 138.795422,105.311602 135.637918,103.507629 L135.637918,103.507629 Z M76.8310559,323.911368 L78.4639052,325.129105 C79.6882661,326.031091 81.4922389,327.047896 84.9511414,327.047896 C85.8531277,327.047896 86.7694664,326.976134 88.3018496,326.803907 C91.0872984,326.632783 93.1926693,325.759501 95.8345951,324.599174 C98.2402601,323.582369 100.832505,322.465098 104.097099,321.820349 C104.912972,320.732887 105.837039,319.872853 106.545821,319.200504 L107.533921,318.283061 L110.605312,313.643958 C111.0138,312.684563 111.76564,311.238293 113.033058,309.991852 L113.133524,295.185806 C112.861934,294.496896 112.389412,293.738433 111.636469,292.650971 C110.111814,290.458382 107.899353,287.265549 107.663092,282.281991 C106.374698,279.919383 105.708972,277.355843 105.10728,275.064996 C104.633654,273.217967 104.126908,271.155653 103.45235,270.295619 C102.020433,268.349228 101.218913,266.258209 100.516755,264.395723 C100.173404,263.551146 99.7582911,262.419523 99.5010538,261.861991 L99.3718832,262.333409 C98.8993616,264.152838 98.0680326,267.575308 95.5552774,269.980973 C94.9756656,274.935826 91.5167631,277.312786 89.8055283,278.501818 L89.4754255,278.715999 L89.547187,278.802113 L85.5528336,286.320506 L85.2944924,287.351663 C84.7789138,289.270454 83.855951,292.951265 81.0197173,295.328225 C80.3330153,299.137103 78.4848816,301.686291 77.1744069,303.547673 C76.4225676,304.622991 75.9147172,305.381454 75.6287754,306.125565 L75.5426617,323.911368 L76.8310559,323.911368 L76.8310559,323.911368 Z M307.1169,185.449283 L306.815502,185.648007 L306.837582,185.778281 L301.703878,193.324275 C301.359423,193.696331 300.736754,195.214361 300.350346,196.202462 C299.619483,198.049491 298.78153,200.14051 297.322012,202.11671 L296.147332,203.591684 L294.364336,204.192272 C291.034604,205.353704 288.134337,207.371857 285.106004,209.520285 C279.463345,213.516846 273.041246,218.012426 262.416133,218.256415 C261.362896,218.470595 260.374796,218.599766 259.3878,218.599766 C253.529856,218.599766 250.822793,214.503843 249.705522,212.757279 L249.577456,212.613756 L244.378614,207.172029 L242.724788,205.826226 C241.114019,204.594137 238.695106,202.818868 237.2113,199.797159 C235.880953,199.123705 234.699648,198.392842 233.603354,197.749197 C231.970505,196.805258 230.618077,196.015882 229.114399,195.472703 L227.339131,194.813601 L226.198675,193.281218 C224.760134,191.346971 223.943157,189.257056 223.257559,187.381322 C222.870047,186.393222 222.311412,184.846486 222.076255,184.617954 L219.811905,182.76982 L217.070617,180.593792 C216.210584,178.216831 214.751066,176.769458 212.350921,175.839871 L210.397905,175.037246 L208.420601,171.600424 C206.358287,167.949422 206.165083,167.762842 204.017759,167.847852 L200.796222,166.732789 L198.373996,164.985122 C193.843088,158.052964 190.470299,153.872031 181.627079,153.872031 C178.469575,153.886383 177.395361,155.260891 174.754539,159.240893 C174.023676,160.287506 173.33587,161.390424 172.563054,162.364172 L171.302261,164.040078 L169.284108,164.598714 C168.01669,164.985122 167.02859,166.086936 165.437693,168.034432 C163.805948,170.053689 161.65752,172.660286 158.370845,174.421202 C156.595577,177.700149 153.953651,179.80552 151.912314,181.410768 C149.936113,182.9564 148.797866,183.9445 148.325345,185.405122 C147.187097,188.827591 145.497943,191.549007 144.008617,193.997729 C142.189188,196.962029 140.728566,199.340094 140.256044,202.646641 L140.313453,203.233981 L140.656804,203.534275 C142.504938,205.05341 143.105526,206.999802 143.19164,208.833583 L143.921399,209.577694 L144.896251,210.85284 L146.184645,211.882893 C148.605766,213.903254 148.863004,216.623566 148.6698,218.728937 C152.579143,221.793703 154.333435,226.432806 155.707943,230.041855 C156.509463,232.075465 157.239222,234.037313 158.142313,235.253945 L158.787062,236.313807 C160.118513,239.063927 161.164022,242.07018 162.238236,245.034481 C163.547607,248.801405 164.815025,252.410455 166.598021,255.015948 L167.34986,256.60574 C168.01669,258.682407 169.11188,260.500732 170.379298,262.634807 C172.584031,266.32997 175.333047,270.926016 175.849729,278.157363 L175.590284,316.965962 L174.624264,320.616965 C172.13359,327.148362 169.799686,333.348552 169.884696,341.855045 L169.928857,345.850503 L166.318703,347.568362 C164.859185,348.27052 164.386664,351.606876 164.192356,353.512419 L163.849005,357.89318 L161.421259,358.552282 L161.421259,358.580986 C161.377099,362.447273 159.388754,364.78228 158.456959,365.555096 L157.81221,368.176046 L155.47941,369.507497 C151.247692,371.956219 146.307191,372.958671 141.544438,373.903714 C139.526285,374.318827 137.528005,374.706339 135.615838,375.220813 C130.232624,379.045147 123.379956,382.911434 113.290295,384 L70.8892068,383.68425 L68.7396751,383.59924 L67.2801573,383.59924 C65.0886727,383.59924 60.392161,383.59924 57.2269285,380.84912 L40.4005216,377.468603 C38.9829568,377.168309 36.9636996,376.596425 35.265713,375.278222 C33.6129913,375.407393 32.1093127,375.278222 30.7204524,374.791348 C29.6462385,374.404941 28.4859109,373.717134 27.6700383,372.471797 L25.49953,372.358083 L23.974875,371.426288 C21.56921,369.922609 20.6672236,367.445183 19.8789515,365.253698 L19.8358946,365.167584 C18.1323879,364.65311 15.5544954,363.793076 13.8222841,361.173231 L12.8772409,359.870484 L12.7259898,358.251987 C12.2534681,353.038793 11.3084249,348.299225 10.3424052,343.301315 C9.0319305,336.641851 7.70047938,329.753855 7.37810481,321.719883 L7.35602436,320.90401 L7.52825187,320.188604 C12.5979232,296.144098 17.645514,274.864064 27.6700383,257.994601 C28.5002632,255.231232 29.9178281,253.255032 31.0638034,251.579126 C32.5387775,249.516812 32.9969468,248.787053 32.8677762,246.98308 L37.0067565,240.567606 L37.2860742,239.536449 C37.7585958,237.617657 38.7246155,233.922494 41.5597453,231.545534 C42.2619036,227.764257 44.0945809,225.215069 45.3984315,223.340439 C46.3434747,222.007883 46.8877578,221.220715 47.1030422,220.275672 L49.3431038,217.139144 L51.068691,215.405829 C51.5202362,214.432081 52.2510991,213.186744 53.3882423,212.155587 C53.9899345,210.736918 54.8709445,209.792979 55.5587505,209.234343 C55.3004092,208.919697 54.1191052,208.318004 53.2822561,207.931597 L51.6350545,205.225637 L49.8233536,202.073653 C49.9094674,200.355794 49.6511261,200.240976 48.4698221,199.811511 L44.3242176,193.396036 C42.4341311,192.636469 41.152361,191.59096 40.3353843,190.473689 C38.3602881,189.400579 37.0067565,187.984118 36.1047701,186.994914 L35.11667,186.007918 L32.8467997,183.686159 L30.5625772,180.665553 C30.0469987,176.197574 28.1425599,172.974932 25.9300988,169.22236 C23.7606946,165.542653 21.3539256,161.476538 20.1516451,155.976298 C18.676671,154.702256 17.5306957,152.883931 17.0007649,150.521323 C15.2818018,149.204224 14.0508168,147.585727 13.1554545,146.010287 C9.07498738,143.775745 7.91465974,139.079234 7.37810481,136.817092 L7.09768309,135.784831 L7.41343353,133.279804 L3.06689697,129.412413 C3.33959052,124.085504 2.55242248,119.732344 1.66368438,115.121946 C0.533165342,108.992413 -0.778413381,102.06136 0.57622222,92.6948327 L1.01893524,91.1204966 C4.80021228,82.3700143 7.37810481,74.7798596 9.15999711,67.2195136 L9.84780313,64.3556792 L12.4477761,63.0385804 C16.1131308,61.204799 18.9780692,58.011966 21.9765943,54.6182008 C26.6819381,49.4050066 32.3521977,43.0469411 42.1757898,40.8698087 C44.6962732,37.9485652 48.2335612,36.7462847 50.8545106,35.8862512 C51.8856676,35.5296519 53.4964365,35.0129694 53.7106168,34.8837988 L61.179329,29.3857667 C61.5083277,29.3857667 61.6949075,29.3416058 62.8110743,28.7277693 C63.8422313,28.1691339 65.2178433,27.4515193 67.021816,26.9801017 C68.3543712,25.5603288 70.4729904,24.3878569 73.6514711,23.8005169 L76.3795107,21.9247827 L98.1475222,20.5491707 L110.978472,20.5491707 L124.496123,21.695146 L126.78697,21.9247827 C127.733117,21.1939198 128.900069,22.0672016 130.847564,21.595784 L138.559162,25.5901374 C139.590319,26.0770113 140.915146,26.8509311 142.018064,28.124973 C144.337615,29.2135392 145.798237,30.8033316 146.843746,31.9206024 L147.252235,32.7640756 C151.504929,33.5954045 153.953651,36.1302402 155.535716,38.577858 C159.474868,39.4389956 162.560611,41.6856813 164.535707,45.1953689 C166.963452,46.4848671 168.532268,48.4312588 169.649539,50.2937447 C170.872796,50.7949709 172.090533,51.6108436 173.100713,52.9997039 L173.163643,53.0858176 C175.139843,53.6289967 176.579488,54.4161647 177.610645,55.3910166 C181.090524,56.1351278 183.968711,58.011966 185.982448,60.8890486 C187.957544,61.2909128 189.439142,62.0493763 190.556413,62.6941254 C192.318433,61.2909128 194.31561,60.6461637 195.645957,60.2178029 C196.31389,56.6948672 197.901475,51.9111377 202.255739,48.8176667 C204.382087,44.8652661 207.497638,42.2443167 210.074427,40.0826407 C212.502172,38.0644876 214.407715,36.4448866 215.265541,34.2832105 L216.577119,31.0892734 L218.66041,30.7039696 L218.831533,30.1011733 C219.455306,28.2541437 220.293259,25.7204121 222.504616,23.7000509 L223.385626,22.8841783 L224.501793,22.4690658 C226.843424,21.5803277 228.318398,20.0898973 229.307603,17.7283932 L231.956153,14.821502 L233.989762,13.5607083 C234.655488,11.5414512 235.988043,7.97766654 239.552931,6.33046498 C242.574641,2.59114079 247.516246,0.472521628 254.259615,0.0430568773 L254.49698,-2.84217094e-14 L262.659018,-2.84217094e-14 L268.158154,-2.84217094e-14 L280.324482,5.5852498 L281.912066,6.91780495 C283.646486,8.10573315 286.610786,10.2398086 288.027247,14.0762868 L289.695425,15.9674773 L291.270865,18.9174254 C293.139975,26.8067702 292.044785,39.7094811 286.890104,47.6010339 C285.664639,49.4911204 284.376245,50.8512761 283.08785,51.8691848 C282.599872,55.4340735 280.215184,58.9128483 273.793085,60.6461637 L273.471814,60.6903246 C271.967032,63.9692714 269.396867,65.816301 267.679008,67.0483901 L266.003102,68.3941935 L260.933431,73.9783393 C260.374796,75.7679598 259.258629,78.7190119 256.573646,80.5086324 C255.971954,81.6391514 255.263171,82.5709464 254.647127,83.2587524 L253.636946,87.4827425 L250.822793,87.5545039 C250.479442,88.2423099 250.00692,89.0736389 249.341195,89.8895115 C248.975763,93.1099451 247.472085,95.2296683 246.568994,96.5467671 L245.96951,97.4498575 C245.96951,97.4498575 245.904373,97.8793223 246.204667,98.9535362 L241.843778,106.97426 C239.231661,108.39072 238.371627,109.034366 238.113286,109.878943 C241.414313,114.691377 245.345737,118.701187 250.093034,122.096056 C254.067515,122.152361 256.573646,123.913277 258.076221,124.972034 L259.108482,125.617887 C259.278501,125.617887 259.70907,125.546126 260.460909,125.316489 L268.601971,130.25699 C270.464457,130.815625 273.751132,132.033362 275.534128,135.08488 C276.908636,135.784831 278.110917,136.501341 279.249164,137.2035 C280.838957,138.133086 282.213465,138.921359 283.717143,139.479994 L287.619863,140.897559 L287.747929,143.074691 C292.108818,144.421599 294.793801,146.682637 295.760925,149.876574 L296.920148,150.477162 C303.442713,153.872031 313.230977,158.912998 312.716502,172.874466 C314.06893,180.636848 309.243247,183.987557 307.1169,185.449283 L307.1169,185.449283 Z" id="path4529" fill="#FFFFFF"></path>
                                </g>
                            </g>
                        </g>
                    </g>
                </g>
            </g>
        </g>
    </g>
</svg>