<svg xmlns="http://www.w3.org/2000/svg" width="10.5" height="287.561" viewBox="0 0 10.5 287.56124"><defs><clipPath id="a"><path d="M0 8.4h230.05V0H0v8.4z"/></clipPath></defs><g clip-path="url(#a)" transform="matrix(0 1.25 1.25 0 0 0)"><path d="M2.89 0h-.24c.055.497-.562.318-.84.48C1.307.606.995.228.73.48.654.806.227.778.25 1.2c-.03.41-.304.576-.24 1.08 0 .04-.003.08 0 .12.005.12.106.078.12.12.043.132-.04.347.12.36.05.23.342.217.24.6.092.027.138.1.12.24.006.153.153.166.12.36.244.035.234.324.48.36h.36c.133-.012.186.174.24 0 .377-.057.47.17.72.24-.086-.326.565.086.48-.24.092-.027.235-.003.24-.12.092-.027.236-.004.24-.12.463-.104.426.293.72.36.108-.25.354-.366.72-.36-.02.26.425.054.6.12.028.21.206.274.48.24.35-.108.368-.108.72 0 .02-.14.19-.13.36-.12.17.03.2.198.36.24.028-.21.206-.274.48-.24.228-.05.3-.258.6-.24.21-.01.373.027.48.12.067.25.187.254.36.12.477.078.482-.318.96-.24.377-.058.27.368.72.24.078-.36.256.115.48 0-.037-.277.346-.133.36-.36.424-.065.294.425.72.36.03-.17.262-.137.36-.24h.6c.14.02.34-.02.36.12.072.007.142.018.12.12.026.093.1.14.24.12.026-.093.1-.14.24-.12 0-.067.096-.136.12 0 .366.086.436-.123.72-.12.278.08.32.4.6.48.025-.094.1-.14.24-.12.12 0 .142-.097.24-.12.092.027.236.003.24.12.152-.006.166-.154.36-.12.376-.057.317.323.6.36 0-.158.21-.11.24-.24h.6c.472-.034.366.513.84.48.022-.178.29-.11.48-.12-.087-.326.565.086.48-.24.445-.046.313.486.84.36.39.07.558-.082.84-.12.463-.06.473.69.84.36.523.083.533-.346.96-.36 0 .158.21.11.24.24.16.037.23.17.48.12.478.12.36-.36.84-.24.205-.007.307.092.36.24.072.007.14.018.12.12.025.093.1.14.24.12 0-.2.332-.067.36-.24.208.01.373-.027.48-.12.208-.01.372.027.48.12.03-.187.262-.084.36 0 .025-.093.1-.14.24-.12.12 0 .142-.097.24-.12.177-.062.302-.178.48-.24 0 .158.21.11.24.24.14-.018.34.02.36-.12.153-.007.165-.154.36-.12.14-.02.34.02.36-.12.223.016.4.08.48.24.228.05.216.343.6.24.266-.093.65-.07.72-.36.445-.046.312.486.84.36.02-.177.29-.11.48-.12.078-.16.256-.223.48-.24.288.11.317.482.84.36.366.087.352-.207.72-.12.28.038.45.19.84.12H37.33c.025.135.132.187.24.24.02-.178.29-.11.48-.12.16-.038.23-.17.48-.12.376-.056.316.323.6.36 0-.16.21-.11.24-.24.153-.006.165-.154.36-.12.013.03-.02.092 0 .12-.03-.045.182.147.12.12.142.06.28-.098.36-.12.228.05.216.343.6.24.35-.13.69-.27 1.2-.24.072.036.46.298.48 0 .366.086.436-.123.72-.12 0 .158.332.153.36 0 .07.023.173-.03.24 0 .03.014.085.21.12.24.02.017-.016.098 0 .12.073.11.274.095.36 0 .51.07.793-.086 1.2-.12 0 .158.332.153.36 0H47.17c.048.15.154.246.36.24.073-.007.14-.018.12-.12.093-.027.236-.003.24-.12.174-.066.62.14.6-.12.206-.006.307.092.36.24h.72c.49-.012.983-.024 1.32.12.17-.03.2-.197.36-.24.223-.016.4-.08.48-.24.56-.122.398.482.96.36.02-.14.19-.13.36-.12 0-.198.332-.067.36-.24h.48c.05.15.154.245.36.24.026-.093.1-.14.24-.12.026-.093.1-.14.24-.12.045-.112.244-.212.36-.24.074-.02.163.015.24 0 .092.026.236.003.24.12.02.14.19.13.36.12.022-.177.29-.11.48-.12.338.1.31-.17.6-.12.425.174 1.254.174 1.68 0 .292.066.255.464.72.36.235-.164.685-.115.96-.24.292.067.254.464.72.36.153-.166.52-.12.84-.12 0-.12.21-.15.24 0 .17.03.2.198.36.24-.187-.426.407-.073.36-.36h.36c.14-.018.34.02.36-.12.425-.065.295.425.72.36.03-.168.262-.137.36-.24.16.037.228.17.48.12.163-.52.493.01.72.12 0-.12.097-.143.12-.24.14-.018.34.02.36-.12.366.087.436-.123.72-.12.092.026.236.003.24.12.14-.018.34.02.36-.12h.48c.14-.02.34.02.36-.12.377-.058.468.17.72.24.082-.237.32-.32.6-.36.462.152.554-.02 1.08.12.093-.026.14-.1.12-.24.092-.027.235-.003.24-.12.173-.066.62.14.6-.12.352-.123.454.215.48.24.02.02.095-.015.12 0 .085.054.17.053.24.12.025-.094.1-.14.24-.12.025-.093.1-.14.24-.12.026-.093.1-.14.24-.12.02-.14.19-.13.36-.12.278.264.68-.024.96-.12.025.094.1.14.24.12.02.14.19.13.36.12.297-.018.37.19.6.24.03-.168.263-.137.36-.24.338.1.31-.17.6-.12.377-.058.27.368.72.24.262-.137.49-.31.96-.24.208-.01.373.027.48.12.078.36.256-.115.48 0 .538-.06.898.06 1.32.12.463.064.585-.214 1.08-.12.478-.12.36.36.84.24.444.085.515-.205.96-.12a.604.604 0 0 1 .36.36c.12-.02.142.12.24.12-.036 0 .072-.108.12-.12.075-.02.163.015.24 0 .14.14.424.136.72.12.244.035.235.324.48.36.03-.17.263-.136.36-.24.138-.1.32-.158.6-.12.072.02.168-.024.24 0 .01.004-.01.108 0 .12.03.037.196-.024.24 0 .017.01-.016.106 0 .12.02.02.098-.02.12 0 .02.02-.02.098 0 .12.03.04.196-.03.24 0 .02-.14.19-.13.36-.12h.6c.38-.02.4.32.84.24.422-.185.536.065.96-.12a.567.567 0 0 1 .36.12c.02.177.29.11.48.12.438.08.46-.26.84-.24.377-.058.27.37.72.24.02-.14.188-.13.36-.12.022-.178.29-.11.48-.12a.568.568 0 0 1 .36.12c.022.177.29.11.48.12h.36c.14-.02.34.02.36-.12.35-.032.368.27.72.24.16-.037.23-.17.48-.12-.086-.326.565.086.48-.24.492-.012.48.48 1.08.36.067-.25.187-.254.36-.12.138.1.32.158.6.12.017.3.405.035.48 0 .338-.1.31.17.6.12.33-.296.61.188 1.08.12.502.063.67-.21 1.08-.24.238.002.152.328.48.24.174.065.62-.14.6.12.338.1.31-.17.6-.12.025.094.1.14.24.12.026.094.1.14.24.12.073-.007.14-.018.12-.12.092-.027.236-.003.24-.12.174-.065.62.14.6-.12.445-.046.313.486.84.36.238-.002.152-.328.48-.24.237-.002.152-.327.48-.24 0 .16.21.11.24.24.153.007.166.154.36.12.02-.14.188-.13.36-.12h.48c.388-.07.557.082.84.12.154-.165.52-.12.84-.12.073.02.167-.024.24 0 .01.004-.01.108 0 .12.028.036.195-.022.24 0 .048.025.06.212.12.24.098.046.257-.037.36 0 .43-.01.693-.186 1.08-.24.226.213.79.087 1.2.12.525-.127.393.406.84.36.297-.142.706-.174 1.08-.24.25.07.387.252.6.36.013-.147.035-.284.24-.24h1.08c.048.15.154.246.36.24.287-.153.44-.438.96-.36.35-.03.368.27.72.24.412.052.67-.047.96-.12.502-.023.37.59.96.48.376.058.468-.17.72-.24.38-.02.4.32.84.24.014-.265.508-.05.72-.12.026-.094.1-.14.24-.12h.48c.228-.05.3-.258.6-.24.3.02.375-.184.48-.36.206-.007.307.093.36.24.34.1.31-.17.6-.12.17-.047.202-.144.36 0 .078-.16.256-.223.48-.24.17-.026.253.085.36.12.168.056.204.137.36 0 .44-.04.663-.296 1.08-.36.226-.027.264.136.48.12.138-.1.32-.158.6-.12.45-.092.572.146.96.12.386-.054.65-.23 1.08-.24.092.027.236.004.24.12.092.027.236.004.24.12.366.087.352-.207.72-.12.04.002.08-.002.12 0 .074.004.134.12.12.12.12.007.142-.103.24-.12.366-.086.436.123.72.12.227-.052.3-.26.6-.24.1.352.386-.072.6 0 .282-.002.352.207.72.12.28-.038.45-.19.84-.12.273-.034.45.03.48.24.277-.038.46.02.6.12.238-.002.152-.327.48-.24.276.124.386.413.84.36.28-.038.45-.19.84-.12.448-.128.34.298.72.24-.087-.326.565.086.48-.24.184.067.183.117.36 0 .053-.036.156.004.12-.12.35-.03.367.27.72.24.286-.072.547-.173.96-.12.525-.126.394.406.84.36.1-.352.386.072.6 0 .026-.093.1-.14.24-.12.133.026.186.133.24.24.555-.06 1.114.328 1.56 0 .025.134.132.187.24.24.012.146.035.284.24.24.208.01.372-.026.48-.12.022-.178.29-.11.48-.12.525-.126.393.406.84.36.082-.237.32-.32.6-.36.026.093.1.14.24.12.025-.145.132-.073.24 0 .12 0 .142.098.24.12.024.145.133.074.24 0 .463.064.585-.214 1.08-.12.327-.087.24.238.48.24.366-.087.436.123.72.12.226.022.263-.128.48-.12-.037 0 .077.108.12.12.11.033.247-.026.36 0 .436.037.78-.02 1.08-.12.238.002.152.327.48.24.295-.015.577-.018.72.12.152-.165.566-.165.72 0h1.08c.438-.08.46.26.84.24.448.13.34-.298.72-.24-.02.26.425.054.6.12.14.138.424.135.72.12.367.087.352-.207.72-.12.044.113.243.21.36.24.075.018.163-.015.24 0 .282.003.352-.206.72-.12.025.145.132.074.24 0 .14.02.34-.02.36.12h.36c0-.12.21-.15.24 0 .378.058.423-.216.84-.12.146.013.284.036.24.24.162.038.228.17.48.12.66-.062 1.13.068 1.68.12.318 0 .685.045.84-.12.25.07.342.298.72.24.344-.215.953-.167 1.32-.36.02.14.19.13.36.12a.573.573 0 0 1 .36.12c.28-.038.45-.19.84-.12.37.03.677.122.96.24.25-.07.342-.298.72-.24.174.186.613.106.96.12.482-.083.684.115 1.08.12.386.027.507-.213.96-.12h.48c.048.15.154.245.36.24.504-.283 1.143-.233 1.68 0 .026-.093.1-.14.24-.12.02-.14.19-.13.36-.12.366.087.352-.207.72-.12.025.094.1.14.24.12.02-.14.19-.13.36-.12.366.087.352-.207.72-.12.208-.01.372.027.48.12.226.026.263-.136.48-.12.387.173.89.23 1.32.36.157-.123.442-.118.6-.24.228-.052.3-.26.6-.24.225-.01.264.113.48.12.208.007.372-.025.48-.12.208-.01.373.027.48.12.026-.094.1-.14.24-.12h.96c.14.017.27.214.36 0 .206.048.306-.178.36 0 .288-.05.26.22.6.12.235-.164.684-.114.96-.24.378-.06.423.216.84.12.34-.02.5-.22.84-.24.07.023.173-.03.24 0 .043.02.068.212.12.24.152.082.216.118.36 0 .482.083.684-.115 1.08-.12.26.1.408.31.84.24h.6c.073-.035.462-.3.48 0h.72c-.087-.326.565.086.48-.24.07.023.173-.03.24 0 .043.02.065.215.12.24.025.013.09-.002.12 0 .074.004.135.12.12.12.12.007.142-.102.24-.12h.36c.14-.02.34.02.36-.12.366-.087.436.123.72.12-.055-.334.653.094.6-.24.12 0 .142-.097.24-.12.14-.02.34.02.36-.12.327-.087.24.24.48.24.12 0 .142-.097.24-.12.153.006.165.154.36.12.138-.1.32-.16.6-.12.228.05.216.343.6.24.297-.142.705-.174 1.08-.24.092.027.235.003.24.12.14-.02.34.02.36-.12.282-.002.352.207.72.12.153-.006.165-.154.36-.12.152.006.166.154.36.12.213-.107.304-.335.72-.24.366.086.436-.123.72-.12.026.093.1.14.24.12h.48c.34-.18.79-.25 1.2-.36h1.68c.226.026.264-.136.48-.12.173-.065.62.14.6-.12.572.093.772-.188 1.32-.12.29-.05.26.22.6.12.228.05.216.343.6.24h.84c.448-.128.34.298.72.24-.087-.326.565.086.48-.24.34.1.31-.17.6-.12-.087.194.565.194.48 0h.72c.226-.026.264.136.48.12.237.002.15.327.48.24.508-.148.645-.044 1.2 0 .44.08.912.127 1.32.24.15-.038.167-.114.36-.12.227-.007.263.12.48.12.266-.093.467-.252.84-.24.37-.012.572.147.84.24.244-.036.235-.325.48-.36.14-.018.34.02.36-.12.14-.018.34.02.36-.12.208-.01.373.026.48.12.14-.1.32-.158.6-.12.506.027.774-.185 1.2-.24 0-.158.21-.11.24-.24.167-.032.136-.263.24-.36.083-.316.545-.254.6-.6.246-.153.608-.192.6-.6.098-.3.328-.47.36-.84-.14-.142-.137-.424-.12-.72-.15-.05-.246-.155-.24-.36-.24-.002-.154-.327-.48-.24-.284.003-.354-.206-.72-.12-.08-.16-.257-.224-.48-.24-.23-.05-.303-.258-.6-.24-.143.138-.425.136-.72.12-.04.28-.525.116-.6.36h-1.2c-.032.17-.264.136-.36.24-.275-.033-.452.03-.48.24-.274-.033-.452.028-.48.24-.34-.1-.312.17-.6.12-.18.14-.304.14-.48 0-.175.066-.622-.14-.6.12-.225-.115-.402.36-.48 0-.34-.1-.312.17-.6.12-.12.018-.144-.12-.24-.12-.115 0-.152.13-.24.12-.007 0 .005-.113 0-.12-.02-.025-.205.004-.24 0-.592-.07-.97.107-1.44.12-.155-.026-.166-.13-.36-.12-.154.007-.168.154-.36.12-.02-.14-.19-.13-.36-.12-.023-.178-.29-.11-.48-.12-.023-.177-.29-.11-.48-.12-.074-.006-.143-.018-.12-.12-.094-.027-.238-.004-.24-.12-.135.026-.188.133-.24.24h-.6c-.446.085-.516-.205-.96-.12-.635.285-1.63.21-2.4.36-.438.037-.782-.02-1.08-.12-.12 0-.143.1-.24.12-.113.024-.25-.033-.36 0-.174.052-.347.2-.48.24-.002-.158-.21-.11-.24-.24-.21-.01-.374.027-.48.12h-1.08c-.142.138-.425.135-.72.12-.02.14-.19.13-.36.12-.154.007-.167.154-.36.12h-.48c-.008-.073-.018-.142-.12-.12-.027.094-.1.14-.24.12-.46-.004-.772.006-1.08 0-.13-.003-.067-.097-.12-.12-.054-.022-.182-.002-.24 0-.006 0 .005.114 0 .12-.08.08-.382-.06-.48 0-.438.037-.782-.02-1.08-.12-.12 0-.144.098-.24.12-.135-.013-.188.175-.24 0-.368-.087-.354.207-.72.12h-.36c-.003-.12-.212-.15-.24 0h-.84c-.34.1-.742.14-1.08.24-.094-.027-.237-.003-.24-.12-.136-.012-.188.174-.24 0H196.81c-.225-.095-.44-.2-.72-.24-.264.137-.49.31-.96.24-.2-.013-.402.018-.6 0-.007 0 .005-.113 0-.12-.09-.108-.465.102-.48.12-.512.07-.795-.087-1.2-.12-.228-.027-.266.135-.48.12-.18.02-.444-.043-.48.12-.228.027-.266-.135-.48-.12.085-.195-.567-.195-.48 0h-.72c0-.067-.098-.136-.12 0h-.36c-.207.047-.31-.178-.36 0-.14.1-.323.16-.6.12-.493-.012-.985-.024-1.32.12-.14-.1-.323-.16-.6-.12-.367.086-.44-.123-.72-.12 0-.067-.098-.136-.12 0-.12 0-.143.097-.24.12-.143-.138-.425-.135-.72-.12-.29-.05-.262.22-.6.12-.12-.368-.32.138-.48.12-.62-.003-1.216-.033-1.56.12a5.56 5.56 0 0 0-1.56.12c-.37-.084-.232-.084-.6 0-.368-.087-.438.123-.72.12-.156-.165-.522-.12-.84-.12-.413.053-.673-.047-.96-.12-.35.132-.853.108-1.2.24-.294-.066-.256-.464-.72-.36-.024.177-.29.11-.48.12-.023-.178-.29-.11-.48-.12-.495-.094-.616.184-1.08.12-.376-.025-.882.08-1.08-.12-.023.177-.29.11-.48.12-.34-.1-.312.17-.6.12-.226-.1-.335-.224-.6-.24.046.003-.082.11-.12.12-.288.072-.5-.055-.72 0-.074-.02-.17.025-.24 0-.013-.004.01-.11 0-.12-.032-.04-.197.028-.24 0-.044-.028-.08-.2-.12-.24-.06-.06-.192-.05-.24-.12-.084.238-.32.32-.6.36-.387.026-.51-.212-.96-.12-.57.18-1.06-.04-1.56-.24-.352-.1.07-.387 0-.6v-.36c-.16-.002-.11-.21-.24-.24.015.296.018.578-.12.72.026.093.003.237.12.24a.568.568 0 0 1-.12.36c-.38.062-.67-.118-.96-.12-.32-.003-.66.2-1.08.12h-1.08c-.03-.184-.198-.017-.24.12h-.6c-.47-.01-.75-.21-1.08-.36-.14.1-.322.158-.6.12-.34-.1-.312.17-.6.12-.002-.16-.21-.11-.24-.24-.164-.038-.23-.17-.48-.12-.568.048-1.002-.038-1.44-.12-.14.1-.323.158-.6.12-.027-.094-.102-.14-.24-.12h-.48c-.34-.1-.31.17-.6.12-.028-.094-.1-.14-.24-.12a.565.565 0 0 0-.36.12c-.027-.094-.102-.14-.24-.12-.166.006-.264-.057-.36-.12-.23.05-.302.26-.6.24-.08-.16-.257-.224-.48-.24-.316.036-.095-.465-.48-.36.02.26-.427.054-.6.12h-.84c-.102-.352-.387.072-.6 0-.212.07-.706-.145-.72.12-.094-.027-.237-.003-.24-.12-.094-.027-.237-.003-.24-.12-.37-.09-.232.33-.6.24-.027-.093-.102-.14-.24-.12-.12 0-.144-.097-.24-.12-.16-.123-.443-.118-.6-.24-.143.138-.425.136-.72.12-.154-.007-.167-.154-.36-.12-.002-.12-.21-.15-.24 0a.57.57 0 0 1-.36-.12c-.026-.145-.134-.074-.24 0-.38.058-.272-.368-.72-.24-.12-.023-.145.126-.24.12-.006 0 .005-.112 0-.12-.033-.04-.197.03-.24 0-.57-.088-.826.135-1.32.12-.274.033-.452-.028-.48-.24-.29-.05-.262.22-.6.12-.51.03-.85-.11-1.2-.24-.163.038-.23.17-.48.12-.12-.023-.146.126-.24.12-.006 0 .005-.113 0-.12-.033-.04-.198.03-.24 0-.478.037-.603-.277-1.08-.24-.003.158-.334.153-.36 0-.14-.1-.322-.158-.6-.12-.858-.002-1.7.043-2.28-.12-.44-.08-.46.26-.84.24-.002-.16-.21-.11-.24-.24h-.48c-.003.12-.212.15-.24 0a.562.562 0 0 0-.36.12.565.565 0 0 1-.36-.12c-.135.012-.188-.175-.24 0-.453-.093-.574.147-.96.12-.14-.1-.322-.158-.6-.12-.24-.002-.154-.327-.48-.24-.027.094-.1.14-.24.12-.02.14-.19.13-.36.12-.39-.07-.56.082-.84.12-.186-.067-.185-.117-.36 0-.054.035-.158-.005-.12.12-.39-.07-.56.08-.84.12-.44.107-.64-.212-.84 0-.02.14-.19.13-.36.12-.05-.204-.155.025-.36 0-.607.155-1.223.298-2.04.24a.57.57 0 0 0-.36.12c-.023.178-.29.11-.48.12h-.72c-.094-.027-.238-.003-.24-.12-.154.007-.167.154-.36.12.085.194-.567.194-.48 0h-.84c-.21-.01-.374.026-.48.12-.175.066-.62-.14-.6.12-.383-.018-.53-.272-.96-.24-.176.186-.615.106-.96.12-.453.126-.548-.52-.72 0-.337-.064-.624-.177-.96-.24-.154.007-.167.154-.36.12-.135.012-.187-.175-.24 0a.563.563 0 0 0-.36.12c-.023-.177-.29-.11-.48-.12-.18-.02-.444.043-.48-.12-.24-.002-.154-.327-.48-.24.122.403-.374.187-.6.24-.44.08-.46-.26-.84-.24-.023.178-.29.11-.48.12h-.72c-.494-.122-1.12-.14-1.68-.12-.483.018-.903.155-1.32.12-.525.084-.677-.204-1.2-.12h-.96c-.166.006-.264-.057-.36-.12-.05.15-.155.245-.36.24-.14-.1-.323-.158-.6-.12-.34.1-.31-.17-.6-.12-.337.143-.83.13-1.32.12-.347.105-.51-.138-.6-.12-.022.005-.008.195-.12.12-.02-.14-.19-.13-.36-.12h-.48c-.09-.072-.122.12-.12.12-.127.025-.083-.11-.12-.12-.072-.02-.173.03-.24 0-.033-.014 0-.188-.12-.12-.38-.06-.425.216-.84.12-.328.088-.242-.24-.48-.24-.367-.087-.438.122-.72.12-.12 0-.144-.097-.24-.12-.142-.02-.34.02-.36-.12-.094.027-.238.003-.24.12a.562.562 0 0 1-.36-.12c-.224-.115-.402.36-.48 0-.12.02-.143-.12-.24-.12.034 0-.073.11-.12.12-.076.02-.164-.014-.24 0-.424-.28-.75-.194-1.32-.12-.14-.1-.323-.158-.6-.12-.18-.062-.303-.178-.48-.24-.027.094-.1.14-.24.12-.136.013-.187-.175-.24 0-.283-.003-.354.207-.72.12a.568.568 0 0 1-.36-.12c-.023-.178-.29-.11-.48-.12-.142.018-.342-.02-.36.12-.18.02-.443-.043-.48.12-.29-.072-.548-.173-.96-.12a.57.57 0 0 0-.36.12c-.18-.02-.443.043-.48-.12-.207.048-.308-.178-.36 0-.163.038-.23.17-.48.12a1.49 1.49 0 0 0-.36-.12c-.077-.02-.165.015-.24 0-.117-.022-.147-.08-.24-.12h-.48c-.18-.02-.444.043-.48-.12-.432.07-.58-.14-.84-.24-.026.145-.134.074-.24 0-.032.168-.264.137-.36.24-.034-.247-.448-.113-.48-.36-.158-.123-.443-.118-.6-.24-.172.028-.204.197-.36.24.02.26-.427.054-.6.12-.274-.086-.614-.107-.84-.24-.2.2-.705.096-1.08.12-.367.005-.467-.254-.72-.36.02.26-.427.055-.6.12-.368.087-.354-.207-.72-.12a5.3 5.3 0 0 1-1.44.12c-.076-.004-.135-.12-.12-.12-.443-.028-.437.126-.72.12-.04 0-.08.002-.12 0-.112-.006-.09-.11-.12-.12-.355-.097-.47.103-.6.12-.164.022-.266-.07-.36-.12-.388-.026-.51.212-.96.12-.44.08-.46-.26-.84-.24-.26.223-.88.08-1.32.12-.207-.007-.31.093-.36.24-.21-.01-.374.027-.48.12-.08-.36-.258.115-.48 0-.14-.1-.323-.158-.6-.12-.24 0-.153.327-.48.24-.027-.093-.1-.14-.24-.12-.02.14-.19.13-.36.12h-.84c-.12 0-.143.097-.24.12-.142.02-.34-.02-.36.12-.228.027-.266-.135-.48-.12-.24 0-.153-.328-.48-.24-.014.307-.403.24-.72.24-.347-.014-.786.066-.96-.12.054.374-.257.383-.6.36h-.6c-.24 0-.154-.327-.48-.24-.02.14-.19.13-.36.12-.154.007-.167.154-.36.12-.163-.037-.23-.17-.48-.12-.172-.03-.203-.198-.36-.24-.043.398-.693.188-1.08.24-.34.1-.312-.17-.6-.12-.24.002-.153.328-.48.24-.002-.198-.334-.068-.36-.24-.34.1-.31-.17-.6-.12-.023.177-.29.11-.48.12.02.26-.427.054-.6.12-.478.078-.483-.318-.96-.24-.178.17-.36.07-.6.12-.116.024-.143.098-.24.12-.116.025-.245-.02-.36 0-.176.066-.62-.14-.6.12-.094.027-.238.004-.24.12-.094.027-.238.003-.24.12-.275-.126-.724-.076-.96-.24-.05.15-.156.245-.36.24 0 .066-.098.136-.12 0h-.36c-.18.02-.444-.043-.48.12-.18-.062-.303-.178-.48-.24-.05.15-.156.245-.36.24-.176.066-.62-.14-.6.12-.387.027-.508-.213-.96-.12-.433-.032-.58.222-.96.24-.027-.093-.1-.14-.24-.12H47.53c-.002-.12-.21-.15-.24 0-.368-.087-.438.122-.72.12-.023-.177-.29-.11-.48-.12-.29.05-.262-.22-.6-.12-.228-.027-.266.135-.48.12-.12.023-.145-.126-.24-.12-.006 0 .005.113 0 .12-.033.04-.197-.03-.24 0-.033-.17-.264-.136-.36-.24-.29-.05-.26.22-.6.12-.493.052-.77-.11-1.08-.24-.264.137-.492.31-.96.24h-.48c-.026-.135-.134-.186-.24-.24-.136.025-.188.133-.24.24h-.6c.02-.26-.427-.055-.6-.12-.128-.112-.04-.442-.36-.36-.14.1-.322.158-.6.12-.046.112-.246.21-.36.24-.076.02-.164-.015-.24 0-.236.095-.238-.24-.36-.24-.074 0-.143.023-.12.12-.296.016-.58.018-.72-.12-.296.015-.58.018-.72-.12-.297.015-.58.018-.72-.12-.284-.002-.354.207-.72.12-.02-.262-.303-.258-.6-.24-.027.093-.102.14-.24.12-.142-.02-.34.02-.36-.12-.32-.002-.686.045-.84-.12-.074.007-.143.018-.12.12-.094.027-.238.003-.24.12-.142-.017-.273-.213-.36 0-.417-.064-.64-.32-1.08-.36-.08.16-.257.224-.48.24-.29-.05-.262.22-.6.12-.34.1-.312-.17-.6-.12.02.26-.427.054-.6.12-.28-.04-.462.02-.6.12-.328.088-.242-.24-.48-.24.015.215-.12.28-.36.24-.18.02-.443-.043-.48.12-.21.01-.375-.027-.48-.12-.24.002-.153.328-.48.24-.016-.265-.51-.05-.72-.12h-.36c-.002-.12-.21-.15-.24 0-.278-.024-.564.032-.84 0-.314-.035-.524-.104-.72-.24-.033.17-.264.137-.36.24h-.6c-.474.033-.367-.513-.84-.48.036.146-.348.413-.36.12-.14-.1-.323-.16-.6-.12h-.6c-.24 0-.153.327-.48.24-.02-.14-.19-.13-.36-.12a.565.565 0 0 1-.36-.12c-.154.006-.167.154-.36.12-.008-.073-.02-.142-.12-.12-.028-.093-.004-.237-.12-.24.036.146-.347.414-.36.12-.176.066-.62-.14-.6.12-.094-.027-.238-.004-.24-.12-.093-.027-.238-.004-.24-.12-.283-.003-.354.207-.72.12-.027-.094-.1-.14-.24-.12a.568.568 0 0 1-.36-.12c-.028-.094-.102-.14-.24-.12-.167.006-.264-.057-.36-.12-.155.166-.522.12-.84.12h-.48c-.172-.028-.203-.197-.36-.24-.02.14-.19.13-.36.12-.023.177-.29.11-.48.12-.38.058-.424-.216-.84-.12-.34-.1-.312.17-.6.12-.094-.027-.237-.003-.24-.12a.557.557 0 0 0-.36.12h-.36c0-.067-.098-.136-.12 0-.142.14-.425.136-.72.12h-.6C7.64.81 7.534.715 7.33.72c-.023.177-.29.11-.48.12-.29-.05-.262.22-.6.12C5.91.857 5.756.572 5.29.6c-.04 0-.08.003-.12 0-.075-.004-.135-.12-.12-.12-.12-.007-.144.102-.24.12-.29.05-.262-.22-.6-.12 0 .067-.098.136-.12 0h-.36c-.283.002-.354-.207-.72-.12C3 .207 2.855.193 2.89 0" fill="#ffc400" fill-rule="evenodd"/></g></svg>